<svg xmlns="http://www.w3.org/2000/svg" xmlns:xlink="http://www.w3.org/1999/xlink" width="473.988" height="335.519" viewBox="0 0 473.988 335.519">
  <defs>
    <clipPath id="clip-path">
      <rect id="Rectángulo_6047" data-name="Rectángulo 6047" width="473.988" height="335.518" fill="none"/>
    </clipPath>
    <clipPath id="clip-path-2">
      <rect id="Rectángulo_6040" data-name="Rectángulo 6040" width="473.989" height="335.518" fill="none"/>
    </clipPath>
    <clipPath id="clip-path-4">
      <rect id="Rectángulo_6045" data-name="Rectángulo 6045" width="2.33" height="13.185" fill="none"/>
    </clipPath>
  </defs>
  <g id="Grupo_13574" data-name="Grupo 13574" transform="translate(-483.012 -4646.481)">
    <g id="Grupo_10061" data-name="Grupo 10061" transform="translate(483.012 4646.481)">
      <g id="Grupo_10060" data-name="Grupo 10060" clip-path="url(#clip-path)">
        <rect id="Rectángulo_6041" data-name="Rectángulo 6041" width="53.573" height="155.972" transform="translate(112.383 166.263)" fill="#619dc1"/>
        <rect id="Rectángulo_6042" data-name="Rectángulo 6042" width="53.573" height="228.872" transform="translate(181.553 93.363)" fill="#619dc1"/>
        <rect id="Rectángulo_6043" data-name="Rectángulo 6043" width="53.573" height="189.879" transform="translate(250.724 132.356)" fill="#619dc1"/>
        <rect id="Rectángulo_6044" data-name="Rectángulo 6044" width="53.573" height="279.732" transform="translate(319.894 42.503)" fill="#619dc1"/>
        <g id="Grupo_10059" data-name="Grupo 10059">
          <g id="Grupo_10058" data-name="Grupo 10058" clip-path="url(#clip-path-2)">
            <path id="Trazado_13408" data-name="Trazado 13408" d="M521.989,1070.243c0,25.715-25.294,24.24-56.7,24.24s-56.7,1.265-56.7-24.24c0-25.716,25.294-68.5,56.7-68.5,31.406.211,56.7,43,56.7,68.5" transform="translate(-313.52 -768.659)" fill="#0f0a3c"/>
            <path id="Trazado_13409" data-name="Trazado 13409" d="M533.6,849.558c0-12.436,12.436-11.8,27.612-11.8s27.613-.632,27.613,11.8-12.436,33.3-27.613,33.3-27.612-20.867-27.612-33.3" transform="translate(-409.447 -642.825)" fill="#0f0a3c"/>
            <path id="Trazado_13410" data-name="Trazado 13410" d="M596.578,996.622a3.778,3.778,0,0,1-3.794,3.794H551.892a3.778,3.778,0,0,1-3.794-3.794v-1.054a3.778,3.778,0,0,1,3.794-3.794h41.1a3.778,3.778,0,0,1,3.794,3.794v1.054Z" transform="translate(-420.569 -761.012)" fill="#ffd200"/>
            <path id="Trazado_13411" data-name="Trazado 13411" d="M568.862,1113.166a25.294,25.294,0,1,1-25.294,25.294,25.294,25.294,0,0,1,25.294-25.294" transform="translate(-417.093 -854.159)" fill="#ffd200"/>
            <path id="Trazado_13412" data-name="Trazado 13412" d="M615.413,1177.673V1172.4a17.949,17.949,0,0,1-8.431-2.108l1.265-5.691a17.921,17.921,0,0,0,8.01,2.108c2.74,0,4.637-1.054,4.637-2.951s-1.475-2.951-5.27-4.216c-5.269-1.686-8.642-4.216-8.642-8.853,0-4.216,1.9-7.588,8.22-8.642v-4.426h4.216v4.216c4.216.211,5.691.843,7.167,1.686l-1.265,5.48a14.233,14.233,0,0,0-6.956-1.686c-3.162,0-4.216,1.264-4.216,2.74,0,1.686,1.686,2.529,5.9,4.216,5.691,2.108,8.01,4.637,8.01,9.064s-2.319,8.01-8.642,9.064v5.269Z" transform="translate(-465.752 -872.927)" fill="#0f0a3c"/>
            <path id="Trazado_13413" data-name="Trazado 13413" d="M652.276,1137.625v9.7h1.054a14.235,14.235,0,0,1,6.956,1.686l1.265-5.48a12.509,12.509,0,0,0-7.166-1.686v-4.216Z" transform="translate(-500.507 -872.927)" fill="#0f0a3c"/>
            <path id="Trazado_13414" data-name="Trazado 13414" d="M655.017,1204.81c-1.054-.422-2.108-.843-2.74-1.054v7.166c2.108,1.054,3.372,2.108,3.372,3.583,0,1.686-1.265,2.529-3.372,2.951v10.961h2.108v-5.48c6.323-1.054,8.642-4.637,8.642-9.064s-2.319-6.956-8.01-9.064" transform="translate(-500.508 -923.671)" fill="#0f0a3c"/>
            <path id="Trazado_13415" data-name="Trazado 13415" d="M1294.435,770.844a72.9,72.9,0,1,1-72.9,72.9,72.9,72.9,0,0,1,72.9-72.9" transform="translate(-937.316 -591.487)" fill="#0f0a3c"/>
            <path id="Trazado_13416" data-name="Trazado 13416" d="M1329.9,817.059a62.144,62.144,0,1,1-62.144,62.144,62.144,62.144,0,0,1,62.144-62.144" transform="translate(-972.778 -626.949)" fill="#b3e7ff"/>
            <path id="Trazado_13417" data-name="Trazado 13417" d="M1378.96,975.527a47.266,47.266,0,1,1,47.266-47.266,47.32,47.32,0,0,1-47.266,47.266" transform="translate(-1021.841 -676.009)" fill="#0f0a3c"/>
            <path id="Trazado_13418" data-name="Trazado 13418" d="M1428.022,1009.711a32.389,32.389,0,1,1,32.389-32.389,32.425,32.425,0,0,1-32.389,32.389" transform="translate(-1070.903 -725.07)" fill="#b3e7ff"/>
            <path id="Trazado_13419" data-name="Trazado 13419" d="M1477.083,1043.9a17.512,17.512,0,1,1,17.512-17.512,17.532,17.532,0,0,1-17.512,17.512" transform="translate(-1119.964 -774.131)" fill="#0f0a3c"/>
            <path id="Trazado_13420" data-name="Trazado 13420" d="M1581.19,832.368l-57.248,57.247a4.026,4.026,0,0,1-5.693-5.693l57.247-57.247Z" transform="translate(-1164.084 -634.327)" fill="#b3e7ff"/>
            <path id="Trazado_13421" data-name="Trazado 13421" d="M1585.078,841.757,1527.83,899a4.026,4.026,0,0,1-5.693,0l60.094-60.094Z" transform="translate(-1167.973 -643.716)" fill="#009f9d"/>
            <path id="Trazado_13422" data-name="Trazado 13422" d="M1651.354,791.881l22.039-22.039,5.142,13.223L1656.5,805.1Z" transform="translate(-1267.124 -590.718)" fill="#007589"/>
            <path id="Trazado_13423" data-name="Trazado 13423" d="M1672.666,832.348l3.306-3.306,5.142,13.223-3.306,3.306Z" transform="translate(-1283.477 -636.144)" fill="#009f9d"/>
            <path id="Trazado_13424" data-name="Trazado 13424" d="M1707.4,797.617l3.306-3.306,5.142,13.224-3.306,3.306Z" transform="translate(-1310.127 -609.494)" fill="#009f9d"/>
            <path id="Trazado_13425" data-name="Trazado 13425" d="M1719.964,851.144l-22.039,22.039,13.223,5.142,22.039-22.039Z" transform="translate(-1302.859 -653.103)" fill="#007589"/>
            <path id="Trazado_13426" data-name="Trazado 13426" d="M1757.273,875.612l-3.306,3.306,13.224,5.143,3.306-3.306Z" transform="translate(-1345.862 -671.879)" fill="#b3e7ff"/>
            <path id="Trazado_13427" data-name="Trazado 13427" d="M1722.542,910.345l-3.306,3.306,13.223,5.142,3.306-3.306Z" transform="translate(-1319.212 -698.53)" fill="#b3e7ff"/>
            <path id="Trazado_13428" data-name="Trazado 13428" d="M876.72,1327.03c-20.617,0-37.332-4.253-37.332-8.615v10.045c.011,4.359,16.72,8.621,37.332,8.621s37.32-4.261,37.332-8.621v-10.045c0,4.362-16.715,8.615-37.332,8.615" transform="translate(-644.083 -1011.652)" fill="#e4af18"/>
            <path id="Trazado_13429" data-name="Trazado 13429" d="M858.207,1259.15c-20.617,0-37.332-4.253-37.332-8.615v10.045c.011,4.359,16.72,8.621,37.332,8.621s37.32-4.261,37.332-8.621v-10.045c0,4.362-16.715,8.615-37.332,8.615" transform="translate(-629.877 -959.566)" fill="#f4bf1a"/>
            <path id="Trazado_13430" data-name="Trazado 13430" d="M895.233,1191.268c-20.617,0-37.332-4.253-37.332-8.615V1192.7c.012,4.359,16.72,8.621,37.332,8.621s37.32-4.261,37.332-8.621v-10.045c0,4.362-16.714,8.615-37.332,8.615" transform="translate(-658.288 -907.478)" fill="#e4af18"/>
            <path id="Trazado_13431" data-name="Trazado 13431" d="M895.539,1085.112c0,4.361-16.715,8.428-37.332,8.428s-37.332-4.068-37.332-8.428,16.714-7.366,37.332-7.366,37.332,3,37.332,7.366" transform="translate(-629.877 -826.981)" fill="#ffd200"/>
            <path id="Trazado_13432" data-name="Trazado 13432" d="M858.207,1117.216c-20.617,0-37.332-4.253-37.332-8.615v10.045c.011,4.359,16.72,8.621,37.332,8.621s37.32-4.262,37.332-8.621V1108.6c0,4.362-16.715,8.615-37.332,8.615" transform="translate(-629.877 -850.656)" fill="#f4bf1a"/>
            <path id="Trazado_13433" data-name="Trazado 13433" d="M845.559,1127.57v10.044q1.309.483,2.872.928V1128.5q-1.564-.444-2.872-.926" transform="translate(-648.818 -865.212)" fill="#dca815"/>
            <path id="Trazado_13434" data-name="Trazado 13434" d="M1104.74,1128.5v10.045q1.564-.444,2.872-.928v-10.044q-1.31.482-2.872.926" transform="translate(-847.694 -865.213)" fill="#dca815"/>
            <path id="Trazado_13435" data-name="Trazado 13435" d="M876.414,1136.031v10.047q1.378.286,2.872.543v-10.047q-1.493-.256-2.872-.543" transform="translate(-672.494 -871.704)" fill="#dca815"/>
            <path id="Trazado_13436" data-name="Trazado 13436" d="M1073.886,1136.574v10.048q1.492-.259,2.872-.544v-10.047q-1.378.286-2.872.543" transform="translate(-824.019 -871.704)" fill="#dca815"/>
            <path id="Trazado_13437" data-name="Trazado 13437" d="M907.269,1141.116v10.048c.936.121,1.891.233,2.872.333v-10.048c-.981-.1-1.936-.214-2.872-.333" transform="translate(-696.17 -875.606)" fill="#dca815"/>
            <path id="Trazado_13438" data-name="Trazado 13438" d="M1043.03,1141.451V1151.5c.981-.1,1.935-.214,2.872-.333v-10.049c-.936.122-1.891.234-2.872.334" transform="translate(-800.342 -875.607)" fill="#dca815"/>
            <path id="Trazado_13439" data-name="Trazado 13439" d="M938.123,1144.14v10.049q1.415.1,2.872.172v-10.051q-1.458-.071-2.872-.171" transform="translate(-719.845 -877.926)" fill="#dca815"/>
            <path id="Trazado_13440" data-name="Trazado 13440" d="M1012.176,1144.311v10.051q1.458-.071,2.872-.172V1144.14q-1.415.1-2.872.171" transform="translate(-776.667 -877.926)" fill="#dca815"/>
            <path id="Trazado_13441" data-name="Trazado 13441" d="M976.585,1145.6c-.481,0-.959,0-1.436-.009v10.051c.477,0,.955.009,1.436.009s.959,0,1.436-.009V1145.59c-.477,0-.955.009-1.436.009" transform="translate(-748.256 -879.039)" fill="#dca815"/>
            <path id="Trazado_13442" data-name="Trazado 13442" d="M882.585,1201.623v10.044q1.309.482,2.872.927v-10.045q-1.564-.443-2.872-.926" transform="translate(-677.229 -922.035)" fill="#c49214"/>
            <path id="Trazado_13443" data-name="Trazado 13443" d="M1141.767,1202.55v10.045q1.564-.444,2.872-.927v-10.044q-1.309.482-2.872.926" transform="translate(-876.105 -922.035)" fill="#c49214"/>
            <path id="Trazado_13444" data-name="Trazado 13444" d="M913.44,1210.083v10.047q1.378.286,2.872.543v-10.047q-1.493-.256-2.872-.543" transform="translate(-700.905 -928.526)" fill="#c49214"/>
            <path id="Trazado_13445" data-name="Trazado 13445" d="M1110.911,1210.626v10.048q1.492-.259,2.872-.544v-10.047q-1.379.286-2.872.543" transform="translate(-852.429 -928.526)" fill="#c49214"/>
            <path id="Trazado_13446" data-name="Trazado 13446" d="M944.295,1215.174v10.048c.936.12,1.891.233,2.872.333v-10.048c-.981-.1-1.936-.214-2.872-.333" transform="translate(-724.581 -932.433)" fill="#c49214"/>
            <path id="Trazado_13447" data-name="Trazado 13447" d="M1080.057,1215.506v10.049c.981-.1,1.935-.214,2.872-.333v-10.048c-.936.121-1.891.233-2.872.332" transform="translate(-828.754 -932.433)" fill="#c49214"/>
            <path id="Trazado_13448" data-name="Trazado 13448" d="M975.149,1218.191v10.049q1.415.1,2.872.172v-10.051q-1.458-.071-2.872-.171" transform="translate(-748.256 -934.748)" fill="#c49214"/>
            <path id="Trazado_13449" data-name="Trazado 13449" d="M1049.2,1218.363v10.051q1.458-.071,2.872-.172v-10.049q-1.415.1-2.872.171" transform="translate(-805.077 -934.748)" fill="#c49214"/>
            <path id="Trazado_13450" data-name="Trazado 13450" d="M1013.612,1219.651c-.481,0-.959,0-1.436-.009v10.051c.477,0,.955.009,1.436.009s.959,0,1.436-.009v-10.051c-.477,0-.955.009-1.436.009" transform="translate(-776.667 -935.861)" fill="#c49214"/>
            <path id="Trazado_13451" data-name="Trazado 13451" d="M845.559,1269.5v10.044q1.309.482,2.872.927V1270.43q-1.564-.443-2.872-.926" transform="translate(-648.818 -974.121)" fill="#dca815"/>
            <path id="Trazado_13452" data-name="Trazado 13452" d="M1104.74,1270.43v10.045q1.564-.444,2.872-.927V1269.5q-1.31.482-2.872.926" transform="translate(-847.694 -974.121)" fill="#dca815"/>
            <path id="Trazado_13453" data-name="Trazado 13453" d="M876.414,1277.964v10.047q1.378.286,2.872.543v-10.047q-1.493-.256-2.872-.543" transform="translate(-672.494 -980.613)" fill="#dca815"/>
            <path id="Trazado_13454" data-name="Trazado 13454" d="M1073.886,1278.507v10.048q1.492-.259,2.872-.544v-10.047q-1.378.287-2.872.543" transform="translate(-824.019 -980.613)" fill="#dca815"/>
            <path id="Trazado_13455" data-name="Trazado 13455" d="M907.269,1283.055V1293.1c.936.12,1.891.233,2.872.333v-10.048c-.981-.1-1.936-.214-2.872-.333" transform="translate(-696.17 -984.519)" fill="#dca815"/>
            <path id="Trazado_13456" data-name="Trazado 13456" d="M1043.03,1283.387v10.049c.981-.1,1.935-.214,2.872-.333v-10.048c-.936.121-1.891.233-2.872.332" transform="translate(-800.342 -984.519)" fill="#dca815"/>
            <path id="Trazado_13457" data-name="Trazado 13457" d="M938.123,1286.072v10.049q1.415.1,2.872.172v-10.051q-1.458-.071-2.872-.171" transform="translate(-719.845 -986.834)" fill="#dca815"/>
            <path id="Trazado_13458" data-name="Trazado 13458" d="M1012.176,1286.244v10.051q1.458-.071,2.872-.172v-10.049q-1.415.1-2.872.171" transform="translate(-776.667 -986.835)" fill="#dca815"/>
            <path id="Trazado_13459" data-name="Trazado 13459" d="M976.585,1287.532c-.481,0-.959,0-1.436-.009v10.051c.477,0,.955.009,1.436.009s.959,0,1.436-.009v-10.051c-.477,0-.955.009-1.436.009" transform="translate(-748.256 -987.948)" fill="#dca815"/>
            <path id="Trazado_13460" data-name="Trazado 13460" d="M864.071,1337.385v10.044q1.309.482,2.872.927v-10.045q-1.564-.443-2.872-.926" transform="translate(-663.023 -1026.208)" fill="#c49214"/>
            <path id="Trazado_13461" data-name="Trazado 13461" d="M1123.254,1338.311v10.045q1.563-.444,2.872-.927v-10.044q-1.31.482-2.872.926" transform="translate(-861.9 -1026.208)" fill="#c49214"/>
            <path id="Trazado_13462" data-name="Trazado 13462" d="M894.927,1345.845v10.047q1.378.286,2.872.543v-10.047q-1.493-.256-2.872-.543" transform="translate(-686.699 -1032.7)" fill="#c49214"/>
            <path id="Trazado_13463" data-name="Trazado 13463" d="M1092.4,1346.388v10.048q1.492-.259,2.871-.544v-10.047q-1.378.287-2.871.543" transform="translate(-838.224 -1032.7)" fill="#c49214"/>
            <path id="Trazado_13464" data-name="Trazado 13464" d="M925.781,1350.936v10.048c.936.12,1.891.233,2.872.333v-10.048c-.981-.1-1.936-.214-2.872-.333" transform="translate(-710.374 -1036.606)" fill="#c49214"/>
            <path id="Trazado_13465" data-name="Trazado 13465" d="M1061.543,1351.267v10.049c.981-.1,1.936-.214,2.872-.333v-10.048c-.936.121-1.891.233-2.872.332" transform="translate(-814.548 -1036.605)" fill="#c49214"/>
            <path id="Trazado_13466" data-name="Trazado 13466" d="M956.637,1353.953V1364q1.415.1,2.872.172v-10.051q-1.458-.071-2.872-.171" transform="translate(-734.051 -1038.921)" fill="#c49214"/>
            <path id="Trazado_13467" data-name="Trazado 13467" d="M1030.689,1354.125v10.051q1.458-.071,2.872-.172v-10.049q-1.415.1-2.872.171" transform="translate(-790.873 -1038.922)" fill="#c49214"/>
            <path id="Trazado_13468" data-name="Trazado 13468" d="M995.1,1355.412c-.481,0-.959,0-1.436-.009v10.051c.477,0,.955.009,1.436.009s.959,0,1.436-.009V1355.4c-.477,0-.955.009-1.436.009" transform="translate(-762.461 -1040.034)" fill="#c49214"/>
            <path id="Trazado_13469" data-name="Trazado 13469" d="M908.612,1302.2c-4.078,3.587-18.736,6.645-36.2,6.645-13.655,0-25.591-1.871-32.1-4.4a2.374,2.374,0,0,0-.925,1.716c0,4.362,16.715,8.428,37.332,8.428s37.332-4.066,37.332-8.428c0-1.5-1.989-2.848-5.439-3.96" transform="translate(-644.082 -999.207)" fill="#ffd200"/>
            <path id="Trazado_13470" data-name="Trazado 13470" d="M866.822,1237.86c-18.972,0-34.627-3.611-37.008-7.586-5.569,1.262-8.939,2.944-8.939,4.9,0,4.36,16.714,8.428,37.332,8.428s37.332-4.068,37.332-8.428a1.739,1.739,0,0,0-.108-.567c-6.848,1.927-17.12,3.252-28.609,3.252" transform="translate(-629.877 -944.019)" fill="#ffd200"/>
            <path id="Trazado_13471" data-name="Trazado 13471" d="M922.5,1161.356c-4.467,3.475-18.837,6.391-35.886,6.391-11.01,0-20.9-1.218-27.737-3.015a2.426,2.426,0,0,0-.979,1.766c0,4.362,16.715,8.428,37.332,8.428s37.332-4.066,37.332-8.428c0-2.085-3.823-3.858-10.061-5.142" transform="translate(-658.288 -891.137)" fill="#ffd200"/>
            <path id="Trazado_13472" data-name="Trazado 13472" d="M1091.415,1068.189c-21.681-.161-39.732,17.319-39.893,39a39.85,39.85,0,0,0,39.308,39.9c21.681.161,39.427-17.63,39.587-39.31a39.321,39.321,0,0,0-39-39.585" transform="translate(-806.858 -819.647)" fill="#c49214"/>
            <path id="Trazado_13473" data-name="Trazado 13473" d="M1121.837,1107.926c-16.55-.123-30.456,13.273-30.579,29.823a30.637,30.637,0,0,0,30.131,30.581c16.55.123,30.15-13.583,30.273-30.133a30.107,30.107,0,0,0-29.825-30.271" transform="translate(-837.348 -850.138)" fill="#ffd200"/>
            <path id="Trazado_13474" data-name="Trazado 13474" d="M1194.162,1170.091c.045-6.129-3-8.78-10.087-11.552-4.868-1.909-6.131-3.262-6.11-6.045.02-2.7,1.521-4.665,4.711-4.641,4.779.035,5.091,4.21,5.156,5.845l5.67.042c0-4.354-1.873-9.461-8.475-10.406l.037-4.989-4.73-.035-.037,5.06a9.147,9.147,0,0,0-8.107,9.443c-.038,5.089,2.112,7.843,9.763,10.819,4.636,1.83,6.394,3.5,6.368,7.01-.023,3.133-1.828,5.328-5.549,5.3-4-.03-5.856-2.93-6.023-6.529l-5.767-.043c.095,5.8,3,10.117,9.04,11.053l-.03,4.114,4.73.035.03-4.078c6-.7,9.366-4.435,9.411-10.4" transform="translate(-898.522 -873.452)" fill="#c49214"/>
            <path id="Trazado_13475" data-name="Trazado 13475" d="M820.331,218.308a21.175,21.175,0,1,0,20.935,21.248,21.248,21.248,0,0,0-20.935-21.248" transform="translate(-613.029 -167.513)" fill="#c49214"/>
            <path id="Trazado_13476" data-name="Trazado 13476" d="M836.66,239.638a16.212,16.212,0,1,0,16.009,16.248,16.3,16.3,0,0,0-16.009-16.248" transform="translate(-629.395 -183.879)" fill="#ffd200"/>
            <path id="Trazado_13477" data-name="Trazado 13477" d="M875.482,273.005c.024-3.29-1.612-4.713-5.414-6.2-2.613-1.025-3.291-1.751-3.28-3.245a2.3,2.3,0,0,1,2.529-2.491c2.565.019,2.732,2.26,2.767,3.137l3.044.022c0-2.337-1.005-5.078-4.549-5.586l.02-2.678-2.539-.019-.02,2.716a4.91,4.91,0,0,0-4.351,5.069c-.02,2.732,1.134,4.21,5.24,5.807,2.489.982,3.432,1.88,3.418,3.763a2.661,2.661,0,0,1-2.978,2.845c-2.146-.016-3.143-1.573-3.233-3.5l-3.1-.023c.051,3.115,1.612,5.431,4.852,5.933l-.016,2.208,2.539.019.016-2.189a5.228,5.228,0,0,0,5.051-5.584" transform="translate(-662.231 -196.394)" fill="#c49214"/>
            <path id="Trazado_13478" data-name="Trazado 13478" d="M528.438,529.824a21.175,21.175,0,1,0,20.935,21.248,21.248,21.248,0,0,0-20.935-21.248" transform="translate(-389.052 -406.546)" fill="#c49214"/>
            <path id="Trazado_13479" data-name="Trazado 13479" d="M544.767,551.154A16.212,16.212,0,1,0,560.776,567.4a16.3,16.3,0,0,0-16.009-16.248" transform="translate(-405.418 -422.913)" fill="#ffd200"/>
            <path id="Trazado_13480" data-name="Trazado 13480" d="M583.588,584.521c.024-3.29-1.612-4.713-5.414-6.2-2.613-1.025-3.291-1.751-3.28-3.245a2.3,2.3,0,0,1,2.528-2.491c2.565.019,2.732,2.26,2.767,3.137l3.044.022c0-2.337-1.005-5.078-4.549-5.586l.02-2.678-2.539-.019-.02,2.716a4.91,4.91,0,0,0-4.351,5.069c-.02,2.732,1.134,4.21,5.24,5.807,2.489.982,3.432,1.88,3.418,3.763a2.661,2.661,0,0,1-2.978,2.845c-2.146-.016-3.143-1.573-3.233-3.5l-3.1-.023c.051,3.115,1.612,5.431,4.852,5.933l-.016,2.208,2.539.019.016-2.189a5.228,5.228,0,0,0,5.051-5.584" transform="translate(-438.253 -435.427)" fill="#c49214"/>
            <path id="Trazado_13481" data-name="Trazado 13481" d="M1418.835,0a21.248,21.248,0,0,0-21.413,20.934,21.175,21.175,0,1,0,42.348.314A21.106,21.106,0,0,0,1418.835,0" transform="translate(-1072.276 0)" fill="#c49214"/>
            <path id="Trazado_13482" data-name="Trazado 13482" d="M1435.165,21.33a16.212,16.212,0,1,0,16.009,16.248,16.3,16.3,0,0,0-16.009-16.248" transform="translate(-1088.642 -16.366)" fill="#ffd200"/>
            <path id="Trazado_13483" data-name="Trazado 13483" d="M1473.987,54.7c.024-3.29-1.612-4.713-5.414-6.2-2.613-1.025-3.291-1.751-3.28-3.245a2.3,2.3,0,0,1,2.528-2.491c2.565.019,2.732,2.26,2.768,3.137l3.044.023c0-2.337-1.005-5.078-4.549-5.586l.02-2.678-2.539-.019-.02,2.716a4.91,4.91,0,0,0-4.352,5.069c-.02,2.731,1.134,4.21,5.24,5.807,2.489.982,3.432,1.88,3.418,3.763a2.661,2.661,0,0,1-2.978,2.845c-2.146-.016-3.143-1.573-3.233-3.5l-3.1-.023c.051,3.115,1.612,5.431,4.853,5.933l-.016,2.208,2.539.019.016-2.189a5.227,5.227,0,0,0,5.051-5.584" transform="translate(-1121.478 -28.881)" fill="#c49214"/>
            <path id="Trazado_13484" data-name="Trazado 13484" d="M991.149,647.257l4.4-39.682,4.606.624-1.763,36.114Z" transform="translate(-760.532 -466.207)" fill="#dcb600"/>
            <path id="Trazado_13485" data-name="Trazado 13485" d="M1005.967,581s.441-.8-.711-2.473-.27-3.269.526-2.828a3.176,3.176,0,0,1,1.151,1.677l1.407-3.973a.987.987,0,0,1,1.585-.408,6.391,6.391,0,0,1,2.31,4.2,5.944,5.944,0,0,1-1.605,4.9Z" transform="translate(-770.933 -439.485)" fill="#a67c52"/>
            <path id="Trazado_13486" data-name="Trazado 13486" d="M973.233,449.571a19.564,19.564,0,1,0,19.114,19.853,19.632,19.632,0,0,0-19.114-19.853" transform="translate(-731.431 -344.964)" fill="#c49214"/>
            <path id="Trazado_13487" data-name="Trazado 13487" d="M988.267,469.277a14.979,14.979,0,1,0,14.616,15.182,15.062,15.062,0,0,0-14.616-15.182" transform="translate(-746.553 -360.086)" fill="#ffd200"/>
            <path id="Trazado_13488" data-name="Trazado 13488" d="M1023.76,500.126c.058-3.039-1.439-4.371-4.935-5.786-2.4-.975-3.022-1.653-3-3.033a2.121,2.121,0,0,1,2.363-2.275c2.37.045,2.5,2.117,2.523,2.928l2.811.053c.023-2.159-.874-4.7-4.143-5.209l.047-2.474-2.346-.044-.048,2.509a4.536,4.536,0,0,0-4.074,4.637c-.048,2.523,1,3.9,4.779,5.421,2.289.934,3.151,1.773,3.118,3.512a2.458,2.458,0,0,1-2.782,2.6c-1.982-.038-2.887-1.487-2.949-3.272l-2.859-.054c.014,2.878,1.431,5.034,4.419,5.533l-.039,2.04,2.346.045.039-2.022a4.83,4.83,0,0,0,4.726-5.1" transform="translate(-776.739 -371.604)" fill="#c49214"/>
            <path id="Trazado_13489" data-name="Trazado 13489" d="M985.745,749.036l2.474-2.574,7.408,1.408-3.982,4.934Z" transform="translate(-756.386 -572.779)" fill="#b3e7ff"/>
            <path id="Trazado_13490" data-name="Trazado 13490" d="M953.97,870.2s-.99,30.694-2.971,50.5h3.961l8.911-34.654,3.96,34.654h3.961l.99-26.733-2.971-17.822Z" transform="translate(-729.725 -667.726)" fill="#0f0a3c"/>
            <path id="Trazado_13491" data-name="Trazado 13491" d="M1023.341,1087.226v2.661a2.29,2.29,0,0,0,2.29,2.29h7.541a.588.588,0,0,0,.312-1.087l-6.182-3.864Z" transform="translate(-785.234 -834.255)" fill="#007589"/>
            <path id="Trazado_13492" data-name="Trazado 13492" d="M951,1087.226v2.661a2.29,2.29,0,0,0,2.29,2.29h7.541a.588.588,0,0,0,.312-1.087l-6.182-3.864Z" transform="translate(-729.725 -834.255)" fill="#007589"/>
            <path id="Trazado_13493" data-name="Trazado 13493" d="M1000.613,711.294s-.431,1.529-4.834,1.066c-3.114-.327-5.474-1.834-5.9-3.768-.853-3.868,1.948-9.555,5.062-9.228s4.081.114,5.688,2.8c1.024,1.713,1.962,3.034,2.507,3.766a.846.846,0,0,1-.15,1.162l-1.078.873s-.327,3.114-1.294,3.327" transform="translate(-759.438 -536.629)" fill="#c69c6d"/>
            <g id="Grupo_10057" data-name="Grupo 10057" transform="translate(231.727 214.538)" opacity="0.35">
              <g id="Grupo_10056" data-name="Grupo 10056">
                <g id="Grupo_10055" data-name="Grupo 10055" clip-path="url(#clip-path-4)">
                  <path id="Trazado_13494" data-name="Trazado 13494" d="M995.924,935.232l1.362-13.185.968,3.873Z" transform="translate(-995.924 -922.047)"/>
                </g>
              </g>
            </g>
            <path id="Trazado_13495" data-name="Trazado 13495" d="M1022.615,586s.441-.8-.711-2.473-.27-3.269.526-2.829a3.177,3.177,0,0,1,1.151,1.677l1.407-3.973a.987.987,0,0,1,1.585-.408,6.389,6.389,0,0,1,2.31,4.2,5.944,5.944,0,0,1-1.6,4.9Z" transform="translate(-783.708 -443.317)" fill="#c69c6d"/>
            <path id="Trazado_13496" data-name="Trazado 13496" d="M984.174,684.056c.05-.015.149-.046.287-.093a3.252,3.252,0,0,0-.6-6.289l-.018,0c-3.163-.475-9.341-1.186-10.955,2.318a.508.508,0,0,1-.3.264,3.674,3.674,0,0,0-2.5,3.421c-.174,3.648,1.055,5.115,3.955,7.583a.528.528,0,0,0,.868-.455c-.137-1.375-.154-3.468.777-4.65.789-1,1.365-.293,1.73.578a.527.527,0,0,0,.93.094c.641-1.011,2.161-2.24,5.748-2.753a.49.49,0,0,0,.073-.016" transform="translate(-744.363 -519.687)" fill="#0f0a3c"/>
            <path id="Trazado_13497" data-name="Trazado 13497" d="M975.749,648.8l5.528-35.148-4.513-1.113-7.258,32.806a2.946,2.946,0,0,0-3.623,1.983c-3.032,10.035-5.319,21.6-4.361,28.719,1.592,11.816,16.75,2.389,16.75,2.389-.586-2.657.466-10.956,1.533-17.894a13.321,13.321,0,0,0-4.056-11.741" transform="translate(-737.63 -470.015)" fill="#ffd200"/>
            <path id="Trazado_13498" data-name="Trazado 13498" d="M1001.063,768.055s-.775,3.68-3.1,5.036-3.68-1.55-3.68-1.55.194,3.68,4.455,2.324,2.324-5.81,2.324-5.81" transform="translate(-762.938 -589.347)" fill="#d5aa00"/>
            <path id="Trazado_13499" data-name="Trazado 13499" d="M1017.063,824.11s-.573,3.226-6.964,6.325a30.257,30.257,0,0,0,4.261-.969l-1.549,1.743s3.352-.55,3.419-1.049Z" transform="translate(-775.074 -632.36)" fill="#d5aa00"/>
            <path id="Trazado_13500" data-name="Trazado 13500" d="M149.564,1151.175c1.745-.266,3.636.743,5.182,1.421.165.073.513.263.873.455q-.925-1.059-1.863-2.106c-.416-.463-.837-.924-1.258-1.385-.451.07-1.4-.091-2.478.03-1.276.143-1.817.643-2.984-.327-1.1-.915-1.565-2.51.174-2.772,1.478-.223,2.847.741,4.069,1.716a26.382,26.382,0,0,1-3.417-4.629c-4.593-2.327-6.775-9.154-6.121-13.913a2.153,2.153,0,0,1,.49-1.268c.709-.707,1.956-.211,2.621.538a6.848,6.848,0,0,1,1.493,3.86c.149,1.394.062,2.8.133,4.2a15.809,15.809,0,0,0,.59,3.357.273.273,0,0,1,.036.057,19.1,19.1,0,0,0,3.007,4.9,15.164,15.164,0,0,1-.749-3.376,8.251,8.251,0,0,1,.926-5.221,1.145,1.145,0,0,1,.736-.633c.417-.058.766.306,1,.66a5.945,5.945,0,0,1,.849,4.256c-.342,1.865-1.333,3.574-1.751,5.426a.658.658,0,0,1-.07-.009c.759.861,1.552,1.7,2.343,2.521a12.7,12.7,0,0,1-.131-4.234,3.494,3.494,0,0,1,.833-1.835,1.647,1.647,0,0,1,1.866-.4,1.725,1.725,0,0,1,.746.9,5.36,5.36,0,0,1-.365,3.714c-.421,1.2-.795,2.445-1.266,3.629l.28.3q2.016,2.2,3.974,4.451a21.793,21.793,0,0,1-1-3.2,12.889,12.889,0,0,1,.107-6.659,4.7,4.7,0,0,1,1.35-2.253,1.009,1.009,0,0,1,.98-.274,1.062,1.062,0,0,1,.43.385,4.962,4.962,0,0,1,.649,3.523,36.957,36.957,0,0,1-1.514,5.553,10.8,10.8,0,0,0-.566,3.43q2.014,2.343,3.927,4.77a22.739,22.739,0,0,1-1.541-6.272c-.214-1.765-.034-3.811,1.364-4.909a1.671,1.671,0,0,1,.687-.348c.8-.16,1.521.562,1.793,1.326a5.042,5.042,0,0,1-.06,3.062c-.287,1-.734,1.942-1.045,2.931a12.973,12.973,0,0,0-.366,5.28q1.459,1.9,2.844,3.853a18,18,0,0,1-.4-2.6,12.491,12.491,0,0,1,.682-5.307c.207-.572.536-1.2,1.13-1.332a1.632,1.632,0,0,1,1.413.563,4.323,4.323,0,0,1,1.238,3.716,8.526,8.526,0,0,1-.936,2.454l-1.23,2.436a5.814,5.814,0,0,0-.6,1.933q1.483,2.192,2.851,4.458a15.392,15.392,0,0,1-.42-2.162,8.3,8.3,0,0,1,.745-4.824,2.1,2.1,0,0,1,1.195-1.147,1.63,1.63,0,0,1,1.822,1.2,3.45,3.45,0,0,1-.311,2.342,8.263,8.263,0,0,1-1.176,1.909,6.623,6.623,0,0,0-.954,1.282,4.735,4.735,0,0,0-.321,1.942c0,.136-.006.274-.009.411.7,1.188,1.4,2.4,2.059,3.631a8.389,8.389,0,0,1,1.121-4.289c.441-.755,1.221-1.517,2.066-1.29a1.332,1.332,0,0,1,.677.455,2.362,2.362,0,0,1-.222,2.779c-.588.809-1.436,1.391-2.083,2.154a14.478,14.478,0,0,0-.813,1.624,40.209,40.209,0,0,1,2.527,6.087.487.487,0,0,1-.912.343c-.77-1.489-1.512-2.985-2.261-4.475a42.785,42.785,0,0,1-4.4,1.123,1.98,1.98,0,0,1-2.178-.565,1.644,1.644,0,0,1,.45-2.072,3.2,3.2,0,0,1,2.193-.584,11.1,11.1,0,0,1,3.4,1.038c-.775-1.527-1.569-3.044-2.414-4.539a6.329,6.329,0,0,0-1.5.007c-.792.145-1.531.518-2.326.646a2.024,2.024,0,0,1-2.128-.777,1.762,1.762,0,0,1,1.074-2.307,3.875,3.875,0,0,1,2.8.263c.281.116.685.272,1.089.47-.072-.12-.141-.241-.215-.361-.4-.651-.809-1.3-1.223-1.938a22.878,22.878,0,0,1-3.627-.083,6.775,6.775,0,0,1-3.083-.329,1.972,1.972,0,0,1-1.1-2.555,2.363,2.363,0,0,1,2.547-.758,11.4,11.4,0,0,1,4.034,1.855q-1.362-2.02-2.8-3.985c-1.814-.215-4.163,1.185-6.111.487-.787-.282-1.869-1.186-1.474-2.19.312-.79,1.663-.849,2.371-.914a7.506,7.506,0,0,1,3.952.915q-.578-.767-1.163-1.528-.755-.979-1.527-1.943a14.246,14.246,0,0,0-3,.116c-1.434.235-2.935.793-4.087-.52-1.054-1.2-1.533-3.7.675-3.566a11.1,11.1,0,0,1,4.671,1.821q-1.51-1.831-3.067-3.622a12.96,12.96,0,0,0-3.578.476c-1.258.429-2.775,1.624-3.939.551a1.906,1.906,0,0,1,1.014-3.416" transform="translate(-108.674 -865.585)" fill="#ffd200"/>
            <path id="Trazado_13501" data-name="Trazado 13501" d="M243.165,1125.313c1.691.507,2.968,2.229,4.074,3.5.118.136.351.457.594.785q-.383-1.353-.782-2.7c-.177-.6-.361-1.193-.544-1.79-.438-.13-1.224-.681-2.252-1.034-1.215-.417-1.918-.2-2.556-1.574-.6-1.3-.339-2.938,1.344-2.43,1.431.431,2.255,1.889,2.942,3.293a26.406,26.406,0,0,1-1.1-5.646c-3.154-4.07-2.2-11.173.427-15.193a2.152,2.152,0,0,1,.985-.936c.943-.335,1.858.647,2.138,1.608a6.848,6.848,0,0,1-.3,4.128c-.462,1.324-1.144,2.559-1.68,3.855a15.812,15.812,0,0,0-.905,3.286.278.278,0,0,1,.009.067,19.1,19.1,0,0,0,.62,5.713,15.176,15.176,0,0,1,.769-3.372,8.251,8.251,0,0,1,3.072-4.322,1.143,1.143,0,0,1,.936-.256c.4.126.561.605.617,1.023a5.945,5.945,0,0,1-1.056,4.21c-1.108,1.539-2.736,2.659-3.906,4.153a.587.587,0,0,1-.059-.038c.317,1.1.677,2.2,1.038,3.282a12.7,12.7,0,0,1,1.695-3.882,3.493,3.493,0,0,1,1.539-1.3,1.647,1.647,0,0,1,1.857.437,1.724,1.724,0,0,1,.289,1.132,5.36,5.36,0,0,1-1.92,3.2c-.894.9-1.765,1.869-2.7,2.737.041.131.084.262.124.393q.881,2.848,1.685,5.724a21.8,21.8,0,0,1,.469-3.319,12.885,12.885,0,0,1,2.948-5.971,4.693,4.693,0,0,1,2.185-1.458,1.01,1.01,0,0,1,1,.172,1.06,1.06,0,0,1,.224.532,4.961,4.961,0,0,1-.922,3.462,37.027,37.027,0,0,1-3.747,4.37,10.783,10.783,0,0,0-1.981,2.857q.817,2.98,1.506,5.991a22.75,22.75,0,0,1,1.294-6.328c.562-1.686,1.6-3.459,3.335-3.852a1.672,1.672,0,0,1,.769-.02,1.767,1.767,0,0,1,1.052,1.966,5.04,5.04,0,0,1-1.365,2.741c-.687.778-1.495,1.44-2.2,2.2a12.971,12.971,0,0,0-2.592,4.614q.505,2.34.92,4.7a18.019,18.019,0,0,1,.747-2.518,12.489,12.489,0,0,1,2.889-4.5,1.868,1.868,0,0,1,1.592-.72,1.632,1.632,0,0,1,1.036,1.113,4.324,4.324,0,0,1-.472,3.889,8.531,8.531,0,0,1-1.9,1.817l-2.155,1.674a5.813,5.813,0,0,0-1.372,1.489q.4,2.617.667,5.25a15.408,15.408,0,0,1,.546-2.133,8.3,8.3,0,0,1,2.739-4.04,2.1,2.1,0,0,1,1.571-.525,1.63,1.63,0,0,1,1.132,1.865,3.451,3.451,0,0,1-1.284,1.983,8.271,8.271,0,0,1-1.88,1.222,6.593,6.593,0,0,0-1.411.75,4.736,4.736,0,0,0-1.122,1.618l-.185.368c.126,1.374.236,2.766.306,4.162a8.388,8.388,0,0,1,2.85-3.4c.722-.494,1.753-.848,2.419-.281a1.329,1.329,0,0,1,.417.7,2.363,2.363,0,0,1-1.39,2.416c-.878.479-1.894.642-2.805,1.054-.523.237-.962.829-1.43,1.119a40.2,40.2,0,0,1-.324,6.583.487.487,0,0,1-.971-.08c-.058-1.675-.088-3.345-.127-5.013a42.813,42.813,0,0,1-4.457-.869,1.981,1.981,0,0,1-1.726-1.443,1.644,1.644,0,0,1,1.294-1.679,3.2,3.2,0,0,1,2.232.411,11.1,11.1,0,0,1,2.626,2.394c-.046-1.712-.114-3.423-.237-5.136a6.348,6.348,0,0,0-1.363-.637c-.778-.209-1.6-.188-2.378-.412a2.024,2.024,0,0,1-1.59-1.614,1.762,1.762,0,0,1,1.958-1.624,3.875,3.875,0,0,1,2.42,1.438c.2.225.5.54.783.891-.014-.14-.024-.279-.04-.419-.082-.76-.176-1.518-.276-2.275a22.891,22.891,0,0,1-3.242-1.629,6.771,6.771,0,0,1-2.645-1.618,1.972,1.972,0,0,1,.1-2.781,2.363,2.363,0,0,1,2.626.406,11.4,11.4,0,0,1,2.851,3.4q-.365-2.408-.825-4.8c-1.547-.971-4.269-.712-5.731-2.176-.59-.592-1.181-1.873-.393-2.61.62-.581,1.866-.056,2.534.189a7.508,7.508,0,0,1,3.179,2.519q-.194-.941-.4-1.879-.263-1.207-.548-2.409a14.259,14.259,0,0,0-2.759-1.179c-1.4-.4-2.992-.54-3.471-2.22-.438-1.536.2-4,2.136-2.934a11.1,11.1,0,0,1,3.44,3.646q-.58-2.3-1.22-4.587a12.98,12.98,0,0,0-3.437-1.1c-1.321-.151-3.2.279-3.8-1.189a1.906,1.906,0,0,1,2.379-2.652" transform="translate(-184.619 -845.225)" fill="#ffd200"/>
            <path id="Trazado_13502" data-name="Trazado 13502" d="M209.246,878.8a24.642,24.642,0,1,0,24.642-24.642A24.642,24.642,0,0,0,209.246,878.8" transform="translate(-160.56 -655.417)" fill="#ffd200"/>
            <path id="Trazado_13503" data-name="Trazado 13503" d="M353.514,1067.12a12.949,12.949,0,1,0,12.948-12.949,12.949,12.949,0,0,0-12.948,12.949" transform="translate(-271.26 -808.891)" fill="#ffd200"/>
            <path id="Trazado_13504" data-name="Trazado 13504" d="M254.088,907.791l1.57-1.232,11.64,14.835V899.311h2v17.234l4.929-4.967,1.417,1.406-6.346,6.4v47.36l15.463-14.621,1.632-9.946,1.97.323-1.207,7.359,3.386-3.2,1.371,1.45-2.61,2.468,8.24,2.524L296.954,955l-9.323-2.856-18.337,17.338v40.992h-2V924.627Z" transform="translate(-194.968 -690.063)" fill="#0f0a3c"/>
            <path id="Trazado_13505" data-name="Trazado 13505" d="M280.021,1246.552s-10.834-16.867-4.679-40.875c0,0,17.729,3.94,23.639,40.875Z" transform="translate(-209.825 -925.145)" fill="#007589"/>
            <path id="Trazado_13506" data-name="Trazado 13506" d="M312.607,1293.652s-4.629-22.161-7.214-26.594c0,0,7.78,14.036,8.938,26.594Z" transform="translate(-234.335 -972.244)" fill="#b3e7ff"/>
            <path id="Trazado_13507" data-name="Trazado 13507" d="M377.6,1223.049s13.778-19.808,5.95-48c0,0-22.545,4.627-30.061,48Z" transform="translate(-271.244 -901.642)" fill="#007589"/>
            <path id="Trazado_13508" data-name="Trazado 13508" d="M405.753,1278.36s5.886-26.026,9.174-31.231c0,0-9.893,16.483-11.366,31.231Z" transform="translate(-309.662 -956.953)" fill="#b3e7ff"/>
          </g>
        </g>
      </g>
    </g>
  </g>
</svg>
