<svg xmlns="http://www.w3.org/2000/svg" xmlns:xlink="http://www.w3.org/1999/xlink" width="286.21" height="186.334" viewBox="0 0 286.21 186.334">
  <defs>
    <clipPath id="clip-path">
      <rect id="Rectángulo_6858" data-name="Rectángulo 6858" width="286.21" height="186.334" fill="none"/>
    </clipPath>
    <clipPath id="clip-path-2">
      <rect id="Rectángulo_6857" data-name="Rectángulo 6857" width="286.211" height="186.334" fill="none"/>
    </clipPath>
    <clipPath id="clip-path-3">
      <rect id="Rectángulo_6855" data-name="Rectángulo 6855" width="31.539" height="6.774" fill="none"/>
    </clipPath>
    <clipPath id="clip-path-4">
      <rect id="Rectángulo_6856" data-name="Rectángulo 6856" width="51.409" height="20.128" fill="none"/>
    </clipPath>
  </defs>
  <g id="Grupo_13576" data-name="Grupo 13576" transform="translate(-167.79 -6892.936)">
    <g id="Grupo_10985" data-name="Grupo 10985" transform="translate(167.79 6892.936)">
      <g id="Grupo_10984" data-name="Grupo 10984" clip-path="url(#clip-path)">
        <g id="Grupo_10983" data-name="Grupo 10983" transform="translate(0 0)">
          <g id="Grupo_10982" data-name="Grupo 10982" clip-path="url(#clip-path-2)">
            <path id="Trazado_14812" data-name="Trazado 14812" d="M352.838,384.291s52.468-80.52-3.236-102.542c-14.031-5.547-18.925-83.207-81.25-44.377-24.785,15.442-60.474-3.245-94.651,6.969-31.388,9.38-32.109,36.438-28.14,46.179,4.336,10.644-12.956,23.369-30.666,32.109-27.78,13.71-7.352,61.89,18.892,62.12s219.051-.459,219.051-.459" transform="translate(-89.017 -198.463)" fill="#ebf3fa"/>
            <path id="Trazado_14813" data-name="Trazado 14813" d="M174.462,161.445l-4.565-.1c1.467,1.9,1.8,3.652.883,5.134-.913,1.512-3.1,2.754-6.361,3.7A59.005,59.005,0,0,0,86.212,95.228c-.868.374-1.736.763-2.575,1.167l-.008,0c-2.536-.774-5.006-1.408-7.389-1.891-12.029-2.441-20.566-.754-24.034,4.751-3.3,5.235-1.5,13.116,5.045,22.308l0,0c-.883,1.631-1.676,3.308-2.41,5.044-.554,1.3-1.048,2.6-1.5,3.937-12.3.733-18.889,2.9-21.284,6.82-2.784,4.565,1.018,10.692,13.187,16.649,1.676.823,3.473,1.631,5.358,2.44a57.659,57.659,0,0,0,4.236,16.045,58.975,58.975,0,0,0,108.411.554c6-1.242,9.953-3.188,11.525-5.763,1.093-1.781.958-3.757-.314-5.852M160.377,171.1a90.925,90.925,0,0,1-14.8,1.2,216.863,216.863,0,0,1-30.346-2.044q1.38-3,2.7-6.166a83.475,83.475,0,0,0,9.827,2.672,49.785,49.785,0,0,0,9.812,1.091c6.869,0,11.791-1.983,14.222-5.842a10.086,10.086,0,0,0,.978-2.021h-3.5c-.058.107-.12.212-.184.314-1.806,2.866-5.84,4.347-11.506,4.345a46.734,46.734,0,0,1-9.184-1.026,80.05,80.05,0,0,1-9.249-2.5q1.265-3.164,2.455-6.442c2.135-5.886,3.962-11.72,5.44-17.323a148.767,148.767,0,0,0,21.652,1.492q7.176,0,14.867-.579a55.847,55.847,0,0,1,1.145,11.3,55.19,55.19,0,0,1-4.326,21.538M87.419,200.328c-1.7-.618-2.568-3.062-2.993-5a43.868,43.868,0,0,1-.352-12.466c.224-2.572.583-5.307,1.067-8.168a151.671,151.671,0,0,1,20.626,7.137c-1.516,2.615-3.049,5.039-4.583,7.237a43.863,43.863,0,0,1-8.261,9.342c-1.571,1.218-3.8,2.54-5.505,1.922m19.89-21.237A154.8,154.8,0,0,0,85.7,171.608q.387-1.992.848-4.05,3.052.694,6.187,1.341c6.114,1.25,12.213,2.312,18.183,3.171q-1.774,3.67-3.611,7.02M94.085,166.684q-3.543-.729-6.978-1.521c1.077-4.482,2.4-9.154,3.945-13.915a136.552,136.552,0,0,0,23.927,11.8q-1.455,3.474-2.984,6.759c-5.873-.842-11.881-1.887-17.91-3.123m-19.611-60.5a36.643,36.643,0,0,0,2.171,3.819,51.836,51.836,0,0,0,13.2,13.531,64.649,64.649,0,0,0,6.947,4.325c-2.242,4.886-4.378,10.1-6.342,15.516q-.549,1.514-1.07,3.023c-11.73-7.635-21.661-16.4-28.176-24.876l0,0a55.762,55.762,0,0,1,5.6-7.884c.868-1.018,1.766-2.006,2.709-2.964l.389-.389a56.061,56.061,0,0,1,4.577-4.1m50.157-8.461c1.7.618,2.568,3.062,2.993,5a43.864,43.864,0,0,1,.351,12.466,124.375,124.375,0,0,1-3.258,18.623q-3.006-.517-5.867-1.173a84.366,84.366,0,0,1-17.949-6.188,126.72,126.72,0,0,1,9.963-17.468,43.871,43.871,0,0,1,8.261-9.342c1.3-1,3.039-2.079,4.566-2.079a2.737,2.737,0,0,1,.939.157m-6.694,37.914q2.927.679,6,1.212c-1.44,5.418-3.213,11.06-5.28,16.758q-1.195,3.294-2.47,6.477a133.714,133.714,0,0,1-24.1-11.961q.628-1.836,1.3-3.682c1.92-5.293,4-10.388,6.188-15.159a87.329,87.329,0,0,0,18.361,6.355m30.5-25.355a55.324,55.324,0,0,1,14.4,24.9,162.993,162.993,0,0,1-35.018-.875,127.079,127.079,0,0,0,3.275-18.844c.542-6.238.476-13.627-2.053-17.785q.879.338,1.751.706a55.139,55.139,0,0,1,17.647,11.9m-39.26-16.27a55.618,55.618,0,0,1,11.33,1.155c-4.363,1.9-8.817,7.185-12.2,12.031a129.724,129.724,0,0,0-10.179,17.827,61.6,61.6,0,0,1-6.241-3.877,48.106,48.106,0,0,1-12.5-12.66,32.786,32.786,0,0,1-2.367-4.229A55.514,55.514,0,0,1,84.2,99.932h0q1.53-.772,3.115-1.448l.229-.1.053-.023c.225-.1.451-.188.677-.279l.182-.072a55.159,55.159,0,0,1,20.715-4m-54.257,6.95c1.805-2.866,5.84-4.345,11.506-4.345a46.726,46.726,0,0,1,9.184,1.026q1.931.391,3.939.92h0a57.965,57.965,0,0,0-12.075,9.308c-.763.748-1.5,1.527-2.215,2.335-.9.988-1.751,2.021-2.574,3.068a59.393,59.393,0,0,0-3.652,5.224l0,0c-5.006-7.433-6.511-13.736-4.112-17.541m3.067,26.981c.494-1.138,1-2.26,1.557-3.353v0c6.86,8.574,16.971,17.34,28.785,24.942-1.675,5.1-3.1,10.109-4.258,14.911a228.43,228.43,0,0,1-23.541-6.951c-1.467-.524-2.889-1.063-4.251-1.6-.808-.314-1.6-.644-2.38-.973-.12-1.2-.209-2.41-.239-3.622-.015-.584-.03-1.152-.03-1.736,0-.674.015-1.362.03-2.036A56.175,56.175,0,0,1,56.2,132.8c.254-.808.524-1.6.823-2.395.3-.823.614-1.646.958-2.455M47.97,152.255c-10.612-5.179-15.462-10.178-13.291-13.725,1.751-2.874,8.127-4.82,17.886-5.538a57.341,57.341,0,0,0-2.215,12.453c-.09,1.257-.135,2.515-.149,3.787v.329c0,1.272.045,2.544.12,3.8-.808-.359-1.586-.733-2.35-1.108m8.053,6.361c1.437.539,2.9,1.078,4.416,1.6,6.949,2.408,14.739,4.646,23.072,6.632q-.454,2.025-.838,3.99-1.021-.248-2.044-.482a124.147,124.147,0,0,0-24.172-3.246,54.278,54.278,0,0,1-2.184-9.169l1.751.673m1.961,12.558q-.191-.452-.372-.907a128.173,128.173,0,0,1,22.44,3.163q1.028.235,2.054.487c-.521,3.038-.905,5.942-1.143,8.671-.45,5.17-.482,11.131.961,15.388a55.861,55.861,0,0,1-23.941-26.8m72.8,29.561a55.729,55.729,0,0,1-38.455,1.772c4.109-2.153,8.237-7.1,11.416-11.656,1.64-2.351,3.278-4.952,4.9-7.759a156.96,156.96,0,0,1,26.719,15.458q-2.23,1.192-4.576,2.186m17.647-11.9a55.13,55.13,0,0,1-10.1,8.007,160.228,160.228,0,0,0-28.155-16.485c1.354-2.481,2.689-5.1,3.992-7.838a239.9,239.9,0,0,0,25.6,2.1c2.066.06,4.071.06,6.017.045a107.082,107.082,0,0,0,13.381-.9,55.183,55.183,0,0,1-10.732,15.073" transform="translate(-27.326 -79.373)" fill="#adcbf9"/>
            <path id="Trazado_14814" data-name="Trazado 14814" d="M458.638,32.524l-13.95,2.369,9.124-6.58.526,2.018,3.421.526Z" transform="translate(-389.568 -24.803)" fill="#456aa3"/>
            <path id="Trazado_14815" data-name="Trazado 14815" d="M444.689,30.553l11.493-6.317,11.405-.877Z" transform="translate(-389.569 -20.464)" fill="#adcbf9"/>
            <path id="Trazado_14816" data-name="Trazado 14816" d="M453.813,3.51l-9.124,6.58L451.62,0Z" transform="translate(-389.569 -0.001)" fill="#adcbf9"/>
            <path id="Trazado_14817" data-name="Trazado 14817" d="M63.049,314.413l13.2,5.086-7.639-8.257-.916,1.873-3.458-.162Z" transform="translate(-55.234 -272.662)" fill="#456aa3"/>
            <path id="Trazado_14818" data-name="Trazado 14818" d="M21.019,295.954l-10.013-8.469L0,284.366Z" transform="translate(0 -249.118)" fill="#adcbf9"/>
            <path id="Trazado_14819" data-name="Trazado 14819" d="M107.938,290l7.639,8.257L110.783,287Z" transform="translate(-94.559 -251.424)" fill="#adcbf9"/>
            <path id="Trazado_14820" data-name="Trazado 14820" d="M289.4,1205.872H30.836s28.538-19.008,41.665-11.456,35.687-1.787,42.378-11.592,16.265,14.143,24.989,8.178,12.3-31.092,23.9-25.629,6.645,35.987,14.45,19.359,23.545-25.994,27.2-5.744,44.067-4.169,83.979,26.885" transform="translate(-27.014 -1020.246)" fill="#a8d29f"/>
            <rect id="Rectángulo_6853" data-name="Rectángulo 6853" width="8.378" height="6.53" transform="translate(207.957 49.793)" fill="#fff"/>
            <path id="Trazado_14821" data-name="Trazado 14821" d="M1697.358,408.456l-1.481,5.94H1684.5l2.342-8.672a5.433,5.433,0,0,1,10.517,2.731" transform="translate(-1475.7 -351.915)" fill="#a0c0ef"/>
            <path id="Trazado_14822" data-name="Trazado 14822" d="M1123.934,829.695l6.539,77.745s.685,4.713-2.82,4.721c-5.764.014-28.688,0-28.688,0s4.338-.981,4.285-3.188c-.062-2.6-7.642-80.013-7.642-80.013Z" transform="translate(-959.805 -726.207)" fill="#d86713"/>
            <path id="Trazado_14823" data-name="Trazado 14823" d="M1112.278,900.783c-5.614.072-27.508,0-28.642,0,.427,0,3.72-.081,4.185-2.559a3.285,3.285,0,0,0,.055-.629c0-.485-.269-3.561-.7-8.248-.387-4.2-.907-9.7-1.49-15.787-2.259-23.582-5.451-55.978-5.451-55.978l28.327.735,4.646,55.242.907,10.782.815,9.7.17,2.021s.8,4.675-2.821,4.72" transform="translate(-946.336 -716.241)" fill="#ee9849"/>
            <path id="Trazado_14824" data-name="Trazado 14824" d="M724.725,493.59,708.8,557.564l-2.181,8.761-7.418,29.8H561.388L588.729,493.59Z" transform="translate(-491.802 -432.408)" fill="#f1a34f"/>
            <path id="Trazado_14825" data-name="Trazado 14825" d="M1698.722,493.589l2.207.736-24.8,104.023-2.935-2.225Z" transform="translate(-1465.799 -432.408)" fill="#ee9849"/>
            <path id="Trazado_14826" data-name="Trazado 14826" d="M702.137,1323.012H565.173l-3.782-2.225H699.2Z" transform="translate(-491.805 -1157.071)" fill="#d86713"/>
            <rect id="Rectángulo_6854" data-name="Rectángulo 6854" width="29.655" height="1.409" transform="translate(132.58 184.573)" fill="#f1a34f"/>
            <path id="Trazado_14827" data-name="Trazado 14827" d="M1158.6,1338.376l-.185,2.206-.007.081s-19.263,1.847-26.932,4.924c-.193-2.108-.421-4.541-.673-7.211Z" transform="translate(-990.633 -1172.481)" fill="#d86713"/>
            <g id="Grupo_10978" data-name="Grupo 10978" transform="translate(137.3 177.801)" opacity="0.4">
              <g id="Grupo_10977" data-name="Grupo 10977">
                <g id="Grupo_10976" data-name="Grupo 10976" clip-path="url(#clip-path-3)">
                  <path id="Trazado_14828" data-name="Trazado 14828" d="M1136.323,1441.17c-5.614.072-27.508,0-28.642,0,.427,0,3.72-.081,4.185-2.559a71.839,71.839,0,0,0,27.108-4.182l.17,2.021s.8,4.675-2.821,4.72" transform="translate(-1107.68 -1434.429)" fill="#d86713"/>
                </g>
              </g>
            </g>
            <g id="Grupo_10981" data-name="Grupo 10981" transform="translate(160.82 143.586)" opacity="0.4">
              <g id="Grupo_10980" data-name="Grupo 10980">
                <g id="Grupo_10979" data-name="Grupo 10979" clip-path="url(#clip-path-4)">
                  <path id="Trazado_14829" data-name="Trazado 14829" d="M1348.842,1158.4l-5.011,20.129h-46.4c19.619-6.233,28.905-15.35,32.648-20.129Z" transform="translate(-1297.432 -1158.397)" fill="#d86713"/>
                </g>
              </g>
            </g>
            <path id="Trazado_14830" data-name="Trazado 14830" d="M773.248,504.525l-19.654,81.049H617.963l22.025-81.049Z" transform="translate(-541.365 -441.988)" fill="#d2e4ff"/>
            <path id="Trazado_14831" data-name="Trazado 14831" d="M602.445,1158.4h1.677l-.336,1.235-1.623-.184Z" transform="translate(-527.524 -1014.81)" fill="#f1a34f"/>
            <path id="Trazado_14832" data-name="Trazado 14832" d="M1872,493.586v1.356h-1.259l.328-1.356Z" transform="translate(-1638.859 -432.405)" fill="#f1a34f"/>
            <path id="Trazado_14833" data-name="Trazado 14833" d="M706.307,527.018h93.219L830.77,401.707H742.848a6.78,6.78,0,0,0-6.579,5.14Z" transform="translate(-618.758 -351.914)" fill="#fff"/>
            <path id="Trazado_14834" data-name="Trazado 14834" d="M964.023,844.3h61.753a1.907,1.907,0,0,0,1.739-1.392l.13-.522a1.054,1.054,0,0,0-1.045-1.392H964.847a1.908,1.908,0,0,0-1.739,1.392l-.13.522a1.054,1.054,0,0,0,1.045,1.392" transform="translate(-843.577 -736.752)" fill="#a0c0ef"/>
            <path id="Trazado_14835" data-name="Trazado 14835" d="M1008.344,666.531H1070.1a1.908,1.908,0,0,0,1.739-1.392l.13-.522a1.054,1.054,0,0,0-1.045-1.392h-61.753a1.908,1.908,0,0,0-1.739,1.392l-.13.522a1.054,1.054,0,0,0,1.045,1.392" transform="translate(-882.405 -581.017)" fill="#a0c0ef"/>
            <path id="Trazado_14836" data-name="Trazado 14836" d="M992.948,728.283H1054.7a1.907,1.907,0,0,0,1.739-1.392l.13-.522a1.054,1.054,0,0,0-1.045-1.391H993.772a1.907,1.907,0,0,0-1.739,1.391l-.13.522a1.054,1.054,0,0,0,1.045,1.392" transform="translate(-868.917 -635.115)" fill="#a0c0ef"/>
            <path id="Trazado_14837" data-name="Trazado 14837" d="M978.486,786.292h61.753a1.908,1.908,0,0,0,1.739-1.392l.13-.522a1.054,1.054,0,0,0-1.045-1.392H979.31a1.907,1.907,0,0,0-1.739,1.392l-.13.522a1.054,1.054,0,0,0,1.045,1.392" transform="translate(-856.248 -685.934)" fill="#a0c0ef"/>
            <path id="Trazado_14838" data-name="Trazado 14838" d="M934.546,962.523H996.3a1.908,1.908,0,0,0,1.739-1.392l.13-.522a1.054,1.054,0,0,0-1.045-1.392H935.37a1.907,1.907,0,0,0-1.739,1.392l-.13.522a1.054,1.054,0,0,0,1.045,1.392" transform="translate(-817.754 -840.32)" fill="#a0c0ef"/>
            <path id="Trazado_14839" data-name="Trazado 14839" d="M949.009,904.514h61.753a1.908,1.908,0,0,0,1.739-1.392l.13-.522a1.054,1.054,0,0,0-1.045-1.392H949.833a1.907,1.907,0,0,0-1.739,1.392l-.13.522a1.054,1.054,0,0,0,1.045,1.392" transform="translate(-830.425 -789.502)" fill="#a0c0ef"/>
            <path id="Trazado_14840" data-name="Trazado 14840" d="M889.76,1144.816h15a2.265,2.265,0,0,0,2.065-1.653,1.251,1.251,0,0,0-1.241-1.653h-15a2.265,2.265,0,0,0-2.065,1.653,1.251,1.251,0,0,0,1.241,1.653" transform="translate(-778.341 -1000.018)" fill="#a0c0ef"/>
            <path id="Trazado_14841" data-name="Trazado 14841" d="M1260.447,1144.816h15a2.265,2.265,0,0,0,2.065-1.653,1.251,1.251,0,0,0-1.241-1.653h-15a2.265,2.265,0,0,0-2.064,1.653,1.251,1.251,0,0,0,1.24,1.653" transform="translate(-1103.08 -1000.018)" fill="#a0c0ef"/>
            <path id="Trazado_14842" data-name="Trazado 14842" d="M836.119,1235.932H814.246a1.708,1.708,0,0,1-1.387-.63,1.81,1.81,0,0,1-.281-1.587l1.577-6.324a2.976,2.976,0,0,1,2.719-2.175h21.873a1.709,1.709,0,0,1,1.387.63,1.811,1.811,0,0,1,.281,1.587l-1.577,6.324a2.976,2.976,0,0,1-2.719,2.175m-19.245-10.541a2.791,2.791,0,0,0-2.549,2.042l-1.577,6.324a1.639,1.639,0,0,0,.249,1.436,1.536,1.536,0,0,0,1.248.563h21.873a2.791,2.791,0,0,0,2.549-2.042l1.577-6.324a1.639,1.639,0,0,0-.249-1.437,1.536,1.536,0,0,0-1.248-.563Z" transform="translate(-711.798 -1073.346)" fill="#476ba7"/>
            <path id="Trazado_14843" data-name="Trazado 14843" d="M1207.435,1235.932h-21.873a1.708,1.708,0,0,1-1.386-.63,1.81,1.81,0,0,1-.281-1.587l1.577-6.324a2.976,2.976,0,0,1,2.719-2.175h21.873a1.709,1.709,0,0,1,1.387.63,1.81,1.81,0,0,1,.281,1.587l-1.577,6.324a2.976,2.976,0,0,1-2.719,2.175m-19.245-10.541a2.791,2.791,0,0,0-2.549,2.042l-1.577,6.324a1.639,1.639,0,0,0,.249,1.436,1.536,1.536,0,0,0,1.248.563h21.873a2.792,2.792,0,0,0,2.549-2.042l1.577-6.324a1.64,1.64,0,0,0-.249-1.437,1.536,1.536,0,0,0-1.248-.563Z" transform="translate(-1037.088 -1073.346)" fill="#476ba7"/>
            <path id="Trazado_14844" data-name="Trazado 14844" d="M1255.434,1218.192q-4.983,2.059-9.892,4.5.194-.549.349-1.1c.083-.295-.315-.491-.561-.167a5.22,5.22,0,0,1-.347.412c.083-.264-.229-.411-.5-.218-.018.013-.034.027-.05.04.129-.355-.423-.408-.628-.065l-.307.513a2.15,2.15,0,0,1-.99.661,1.676,1.676,0,0,1-.146-.551.245.245,0,0,0-.255-.234c-.006-.18-.169-.287-.409-.18a2.249,2.249,0,0,0-.753.555c-.164-.306-.689-.087-.971.207l.024-.05c.133-.284-.114-.608-.447-.322a4.022,4.022,0,0,0-1.223,1.793,6.958,6.958,0,0,1-.626.617c-.109.093-.616.563-.732.522s-.052-.33,0-.535l.054-.076c.421-.587,2.454-3.349,1.022-3.324a.513.513,0,0,0-.4.243,9.512,9.512,0,0,0-1.173,2.5c-.047.162-.113.372-.166.591l-.126.167a6.519,6.519,0,0,1-2.277,2.188,10.177,10.177,0,0,1,.949-3.775q.288-.793.6-1.584a.447.447,0,0,0,.2-.1,2.517,2.517,0,0,0,.951-2.916c-.13-.241-.527-.022-.641.234q-1.029,2.307-1.865,4.631a8.9,8.9,0,0,0-.846,4.09c.022.134.178.183.323.152a5.345,5.345,0,0,0,2.7-2.1.438.438,0,0,0,.288.254c.489.145,1.157-.4,1.638-.854a1.909,1.909,0,0,0,.086.462c.052.16.218.2.413.119a3.806,3.806,0,0,0,1.238-.827,2.667,2.667,0,0,0,1.238-.993,6.541,6.541,0,0,0,.61-.609.932.932,0,0,0,.17.311c.179.2.63.019.918-.112a3.037,3.037,0,0,0,.756-.5,1.5,1.5,0,0,0,.521-.142.424.424,0,0,0,.123.129.538.538,0,0,0,.6-.057c-.047.133-.1.267-.146.4q-.715.361-1.428.729c-.314.162-.388.643-.035.616l1.31-.1a.521.521,0,0,0,.439-.331q.116-.262.222-.525,5.124-2.568,10.341-4.725c.444-.183.3-.753-.147-.57m-15.222,5.027a2.171,2.171,0,0,1-.108.273c-.03.062-.062.123-.1.183a2.308,2.308,0,0,1,.205-.456m-.962.819a.815.815,0,0,0-.011.5,3.06,3.06,0,0,1-.328.217,1.878,1.878,0,0,1,.037-.611c.151-.179.294-.363.426-.552a3.258,3.258,0,0,0-.125.448" transform="translate(-1080.351 -1067.163)" fill="#365da2"/>
            <path id="Trazado_14845" data-name="Trazado 14845" d="M864.929,1200.983c-1.176,2.186-1.836,4.429-2.792,6.641a17.743,17.743,0,0,1-1.726,3.172c-.5.709-1.578,2.25-2.494,1.916-.228-.083-.292-.279-.217-.546.016-.059.036-.119.057-.18a.506.506,0,0,0,.475-.056,1.707,1.707,0,0,0,.676-.752c.137-.3.115-.607-.124-.739a.674.674,0,0,0-.746.21,2.492,2.492,0,0,0-.478.846,2.616,2.616,0,0,0-.323,1.063c.033.5.578.684,1.111.567A3.4,3.4,0,0,0,860,1211.9a14.183,14.183,0,0,0,1.357-1.913,26.519,26.519,0,0,0,1.893-4.118,40.383,40.383,0,0,1,2.035-4.781c.138-.257-.22-.366-.359-.109m-6.367,9.925c.04.155-.109.357-.232.5a.809.809,0,0,1-.139.137.487.487,0,0,1-.1.059.139.139,0,0,0-.031.008.133.133,0,0,0-.124-.069c.052-.116.105-.23.157-.339.077-.162.384-.619.468-.3" transform="translate(-750.979 -1051.99)" fill="#365da2"/>
            <path id="Trazado_14846" data-name="Trazado 14846" d="M905.958,1253.056a2.623,2.623,0,0,1-.747.31.716.716,0,0,1-.191.005,1.177,1.177,0,0,0,.369-.579c.044-.317-.305-.39-.6-.227a.91.91,0,0,0-.453.683.466.466,0,0,0,.036.225,1.658,1.658,0,0,1-.964.387,3.508,3.508,0,0,0,.887-.877.183.183,0,0,0,.013-.2.584.584,0,0,0-.747-.057,1.5,1.5,0,0,0-.641.771,1.1,1.1,0,0,0-.082.283,2.22,2.22,0,0,1-.948.214v-.006q.149-.138.293-.281c.144-.143.058-.29-.076-.308a.611.611,0,0,0-.609.477,9.113,9.113,0,0,1-1.5,1.088c-.133.077-.313.231-.4.133a4.694,4.694,0,0,0,.61-.539c.361-.381.719-1.061.291-1.3a.249.249,0,0,0-.3.073l-.563.748a3.268,3.268,0,0,0-.433.672.867.867,0,0,0-.061.235,4.07,4.07,0,0,1-.6.307l-.051.021.331-.266a1.372,1.372,0,0,0,.609-.9,1.011,1.011,0,0,0-.393-.755c-.054-.053-.18-.027-.258.032a4.055,4.055,0,0,0-1.336,1.715.669.669,0,0,0-.019.562q-.8.612-1.624,1.2c-.058.041-.2.17-.256.151s-.031-.142-.031-.2a3.932,3.932,0,0,1,.026-.459,4.539,4.539,0,0,1,.25-1.027,5.552,5.552,0,0,1,.417-.888.219.219,0,0,0,.229-.042,1.4,1.4,0,0,0,.576-1.186c-.014-.144-.245-.123-.353,0a5.762,5.762,0,0,0-1.572,3.84c.012.276.137.506.505.353a2.667,2.667,0,0,0,.478-.306q.3-.214.6-.431.559-.409,1.112-.831a1.9,1.9,0,0,0,.658-.148,4.478,4.478,0,0,0,.759-.363.38.38,0,0,0,.4.189,2.111,2.111,0,0,0,.666-.336c.222-.134.441-.276.653-.428s.407-.3.6-.468c.045.062.123.081.257.084a2.257,2.257,0,0,0,.562-.061,2.959,2.959,0,0,0,.606-.214.38.38,0,0,0,.1.069,1.091,1.091,0,0,0,.82-.05,3.1,3.1,0,0,0,.771-.434.753.753,0,0,0,.226.06,2.254,2.254,0,0,0,1.2-.369c.268-.141.179-.5-.091-.353m-8,1.853a3.513,3.513,0,0,1,.852-1.058.476.476,0,0,1,.082.665,2.571,2.571,0,0,1-.441.389q-.253.2-.508.4l-.134.1c-.058-.116.084-.376.148-.5m2.3-1.078a1.687,1.687,0,0,1-.44.629l-.083.078c.153-.24.34-.475.523-.707m3.574-.811a2.705,2.705,0,0,1-.522.49c.107-.235.356-.5.522-.49m.982-.011c.025-.041.141-.172.122-.082a.7.7,0,0,1-.166.205.314.314,0,0,1,.044-.123" transform="translate(-784.131 -1097.233)" fill="#365da2"/>
            <path id="Trazado_14847" data-name="Trazado 14847" d="M549.907,379.443s-.717-10.231-14-6.357c-3.015.879-2.623,9.981,4.678,13.446Z" transform="translate(-467.927 -326.074)" fill="#2b478b"/>
            <path id="Trazado_14848" data-name="Trazado 14848" d="M615.588,539.527s5.2.942,7.129,2.87,6.48,7.618,3.616,26.588c0,0-.229,5.717-6.659,6.268s-4.087-35.727-4.087-35.727" transform="translate(-538.92 -472.651)" fill="#b64c41"/>
            <path id="Trazado_14849" data-name="Trazado 14849" d="M521.782,828.17c.894,6.225,6.894,22.405,6.719,28-.138,4.407-.065,14.588.516,21.351a41.694,41.694,0,0,0,.589,4.567c.516,2.494,1.178,5.367,1.534,7.178.793,4.065.378,6.436,1.025,8.617.713,2.385,8.894,1.949,6.429.5a7.239,7.239,0,0,1-2.793-3.032c-2.3-5.149.924-27.35,1.884-35.91.124-1.069.211-1.92.247-2.5.32-5.287,3.949-40.508,3.949-40.508-8.814-4.9-20.988,5.514-20.1,11.739" transform="translate(-457.065 -714.118)" fill="#d9935c"/>
            <path id="Trazado_14850" data-name="Trazado 14850" d="M521.784,828.084c.894,6.225,6.894,22.405,6.719,28-.138,4.407-.065,14.588.516,21.351l8.668-18.079c.124-1.069.211-1.92.247-2.5.32-5.287,4.04-40.521,4.04-40.521-8.814-4.9-21.079,5.527-20.192,11.752" transform="translate(-457.068 -714.033)" fill="#cb8757"/>
            <path id="Trazado_14851" data-name="Trazado 14851" d="M531.985,816.418s-7.57,34.8-8.43,40.019S515.8,886.26,517.3,892.424c.886,3.636,2.432,4.712,2.432,4.712.364.667-5.624,1.991-6.107-.561-.614-3.24-.743-7.786-1.642-15.495-1.549-13.272,1.523-20.825,2.267-26.372s-2.5-23.178-.7-29.2c3.151-10.545,10.17-14.868,18.43-9.087" transform="translate(-448.147 -712.961)" fill="#d9935c"/>
            <path id="Trazado_14852" data-name="Trazado 14852" d="M508.964,849.335s1.971.306,4.872.509l1.578-6.327.553,6.443c4.661.189,10.748-.044,15.235-1.9l-.967-31.859a25.371,25.371,0,0,1-14.316-1.289s-10.166,7.938-6.954,34.421" transform="translate(-445.327 -713.903)" fill="#b64c41"/>
            <path id="Trazado_14853" data-name="Trazado 14853" d="M510.859,1423.392h-7.011c-.56-.817-1.346-4.115-1.939-4.777-.04-.044-.083-.1-.129-.154l-.06,4.931h-.638a54.606,54.606,0,0,0-.447-6.737,3.038,3.038,0,0,1-.537-1.738c.248-.622,2.537-2,2.537-2s1.552,8.443,2.5,8.681a11.1,11.1,0,0,0,4.326.167,3.709,3.709,0,0,1,1.336.954h0a.644.644,0,0,1,.062.676" transform="translate(-438.085 -1237.78)" fill="#2b478b"/>
            <path id="Trazado_14854" data-name="Trazado 14854" d="M588.109,1423.468H581.1c-.554-.808-1.328-4.037-1.919-4.749l-.057,4.749h-.638c0-.137,0-.371-.012-.676h0a54.006,54.006,0,0,0-.372-5.666c-.488-.858-.891-1.779-.751-2.132.248-.622,2.487-1.992,2.487-1.992s1.6,8.432,2.549,8.67a12.914,12.914,0,0,0,4.532.216s1.613.785,1.192,1.582" transform="translate(-505.761 -1237.856)" fill="#2b478b"/>
            <path id="Trazado_14855" data-name="Trazado 14855" d="M574.423,573.366s3.082-10.537,2.111-20.683a22.041,22.041,0,0,0-8.705-15.332s-7.967.67-8.993,2.9,2.415,27.585.6,32.009c0,0,5.969,4.121,14.984,1.106" transform="translate(-489.396 -470.745)" fill="#e7f0fd"/>
            <path id="Trazado_14856" data-name="Trazado 14856" d="M593.015,501.141a.02.02,0,0,1,0-.006,12.609,12.609,0,0,1-.218-3.711h0c.035-.406.076-.648.076-.648l-.076-.024-6.4-1.95c-.093,2.033-.211,3.54-.336,4.658-.06.529-.119.972-.18,1.34a26.264,26.264,0,0,0,3.11,1.16c2.3.667,3.29.4,3.716,0a1,1,0,0,0,.31-.818" transform="translate(-513.258 -433.469)" fill="#d9935c"/>
            <path id="Trazado_14857" data-name="Trazado 14857" d="M594.06,496.754v.673s-4.267.048-6.737,2.035c.126-1.118.244-2.625.337-4.658Z" transform="translate(-514.523 -433.473)" fill="#cb8757"/>
            <path id="Trazado_14858" data-name="Trazado 14858" d="M587.86,423.806s-7.754,1.557-8.649-3.287-2.5-7.9,2.414-9.1,6.219.471,6.911,2.015,1.318,9.846-.676,10.375" transform="translate(-506.556 -360.062)" fill="#d9935c"/>
            <path id="Trazado_14859" data-name="Trazado 14859" d="M566.558,399.017a11.056,11.056,0,0,0-1.476.111,6.6,6.6,0,0,0-7.549,2.283c-3.688,4.63,4.273,12.4,4.273,12.4-1.063-1.413-1.37-6.435,2.63-8.946,2.479-1.557,2.579-3.2,2.3-4.231l.11.033a4.057,4.057,0,0,1,3.377,4.081s1.4-5.846-3.663-5.729" transform="translate(-487.572 -349.326)" fill="#2b478b"/>
            <path id="Trazado_14860" data-name="Trazado 14860" d="M527.19,578.056a24.165,24.165,0,0,0,10.057-.633,10.933,10.933,0,0,0,2.669-1.1c2.814-1.731,4.181-14.544,3.694-19.395s-9.123-14.939-9.123-14.939c-2,1.483-2.4,5.085-3.6,9.616-2.887,10.9-3.7,26.449-3.7,26.449" transform="translate(-461.843 -474.811)" fill="#b64c41"/>
            <path id="Trazado_14861" data-name="Trazado 14861" d="M527.19,646.015a24.166,24.166,0,0,0,10.057-.633,15.956,15.956,0,0,0,2.574-6.1c1.432-7.069-4.218-14.741-8.93-19.715-2.887,10.9-3.7,26.449-3.7,26.449" transform="translate(-461.843 -542.769)" fill="#aa413e"/>
            <path id="Trazado_14862" data-name="Trazado 14862" d="M535.386,719.771l6.271,4.526a1.745,1.745,0,0,0,2.429-.392l6.994-9.69a1.745,1.745,0,0,0-.393-2.429l-6.271-4.526a1.745,1.745,0,0,0-2.429.392l-6.994,9.69a1.745,1.745,0,0,0,.393,2.429" transform="translate(-468.393 -619.307)" fill="#233862"/>
            <path id="Trazado_14863" data-name="Trazado 14863" d="M605.453,784.592s3.065-.31,3.444.207a2.074,2.074,0,0,1-1.688,2.721,6.379,6.379,0,0,1-3.685-1.205Z" transform="translate(-528.716 -687.259)" fill="#da935b"/>
            <path id="Trazado_14864" data-name="Trazado 14864" d="M503.378,541.991a10.624,10.624,0,0,0-7.328,5.7c-2.364,4.909-4.909,17.544-4.272,18.726s8.272,7.545,14.544,8.363a5.941,5.941,0,0,0,1.273-3.272s-8.454-5.272-9.181-6.727,6.454-13.544,6.363-15.635a54.265,54.265,0,0,0-1.4-7.154" transform="translate(-430.733 -474.81)" fill="#b64c41"/>
            <path id="Trazado_14865" data-name="Trazado 14865" d="M155.4,524.752s-10.708,11.055-11.222,15.223,5.095,10.689,5.095,10.689Z" transform="translate(-126.277 -459.708)" fill="#4a75cb"/>
            <path id="Trazado_14866" data-name="Trazado 14866" d="M271.886,1436.566s.364,5.877,1.5,5.961c.151.011,5.767.011,5.767.011l7.168-.042a2.326,2.326,0,0,0-2.142-2.092c-2.1-.365-5.6-1.838-6.872-4.607-1.335-2.913-5.422.769-5.422.769" transform="translate(-238.185 -1256.843)" fill="#163560"/>
            <path id="Trazado_14867" data-name="Trazado 14867" d="M143.076,1436.566s.364,5.877,1.5,5.961c.151.011,5.767.011,5.767.011l7.19-.026a2.371,2.371,0,0,0-2.164-2.108c-2.1-.365-5.6-1.838-6.872-4.607-1.335-2.913-5.422.769-5.422.769" transform="translate(-125.341 -1256.843)" fill="#163560"/>
            <path id="Trazado_14868" data-name="Trazado 14868" d="M164.06,878s-1.875,11.991-8.869,33.276-7.947,30.5-7.947,30.5a30.8,30.8,0,0,1-3.89.274,24.638,24.638,0,0,1-3.613-.485s-.064-23.263,3.159-33.966.7-38.588.7-38.588Z" transform="translate(-122.42 -761.298)" fill="#355493"/>
            <path id="Trazado_14869" data-name="Trazado 14869" d="M211.777,874.313a291.025,291.025,0,0,1-2.861,40.255c-3.126,22.186-2.067,31.6-2.067,31.6s-2.574.461-3.478.491c-.968.032-4.01-.242-4.01-.242s-4.475-22.194-3.192-33.3-6.128-38.1-6.128-38.1Z" transform="translate(-166.487 -765.94)" fill="#415da5"/>
            <path id="Trazado_14870" data-name="Trazado 14870" d="M248.448,470.043l3.532,2.616,5.1-1.075c-.071-.465-.408-2.395-.714-4.142-.018-.1-.037-.206-.054-.307-.263-1.487-.49-2.764-.49-2.764L251.058,462l-1.777-.886c0,.031.138,1.65.156,1.886a15.264,15.264,0,0,1-.989,7.047" transform="translate(-217.652 -403.954)" fill="#ffb27d"/>
            <path id="Trazado_14871" data-name="Trazado 14871" d="M252.569,509.537c-.112-.047-6.943-2.063-7.685-1.818S243.7,509.4,243.7,509.4l11.173,2.526a5.549,5.549,0,0,0-2.307-2.389" transform="translate(-213.494 -444.768)" fill="#4a75cb"/>
            <path id="Trazado_14872" data-name="Trazado 14872" d="M164.812,566.98c1.158,5.282,20.429,5.909,25.4,1.114.565-.547.593-3.089.38-6.518-.417-6.7-1.755-16.774-1.807-21.922a40.757,40.757,0,0,0-.822-7.338,59.6,59.6,0,0,0-2.444-8.783s-9.413-3.043-11.174-2.525c-8.485,2.493-10.686,40.69-9.528,45.972" transform="translate(-144.132 -456.376)" fill="#739af0"/>
            <path id="Trazado_14873" data-name="Trazado 14873" d="M308.443,634.852c-.417-6.7-1.755-16.774-1.807-21.922a40.747,40.747,0,0,0-.822-7.338l-5.662-1s-5.536,22.611,8.292,30.259" transform="translate(-261.988 -529.652)" fill="#4a75cb"/>
            <path id="Trazado_14874" data-name="Trazado 14874" d="M329.336,767.168a1.332,1.332,0,0,0,.425,1.542,2.583,2.583,0,0,1,1.151,2.356c-.186.733-1.964,1.93-2.58,1.737s-1.871-1.159-1.736-1.546-.844-3.395.659-4.552a1.213,1.213,0,0,1,2.082.463" transform="translate(-285.947 -671.305)" fill="#ffb27d"/>
            <path id="Trazado_14875" data-name="Trazado 14875" d="M294.339,530.867s5.522,1.033,9.922,7.518,7.295,11.3,6.484,13.642-8.2,10.442-9.472,10.442a3.415,3.415,0,0,1-3.445-3.01s5.2-7.8,4.177-8.964c-.438-.5-6.753-5.626-7.655-3.31-1.492,3.832-.011-16.318-.011-16.318" transform="translate(-257.281 -465.065)" fill="#739af0"/>
            <path id="Trazado_14876" data-name="Trazado 14876" d="M258.349,469.326c1.047,2,4.948,3.735,6.575,4.372-.019-.1-.037-.206-.054-.307-.263-1.487-.49-2.764-.49-2.764l-4.767-2.376c-1.054-.016-1.7.25-1.263,1.074" transform="translate(-226.206 -410.21)" fill="#fca56b"/>
            <path id="Trazado_14877" data-name="Trazado 14877" d="M252.981,392.509s-8.419.968-8.941-4.284-1.96-8.664,3.393-9.5,6.6,1.06,7.2,2.771.525,10.631-1.651,11.018" transform="translate(-213.289 -331.597)" fill="#ffb27d"/>
            <path id="Trazado_14878" data-name="Trazado 14878" d="M233.365,360.428s-1.607,5.691-2.756,5.212-2.2-.871-2.355.906,1.12,4.108-2.627,3.715-7.24-10.913-5.885-12.521c3.912-4.64,19.054-2.847,13.623,2.688" transform="translate(-192.243 -311.073)" fill="#233862"/>
            <path id="Trazado_14879" data-name="Trazado 14879" d="M1878.193,1383.347l-1.984,8.358-2.972-.017-.109-8.341Z" transform="translate(-1640.948 -1211.877)" fill="#ffb27d"/>
            <path id="Trazado_14880" data-name="Trazado 14880" d="M1656.834,1378.446l-5.646,8-2.2-2.825,3.4-6.276Z" transform="translate(-1444.591 -1206.62)" fill="#ffb27d"/>
            <path id="Trazado_14881" data-name="Trazado 14881" d="M1807.946,490.748a5.756,5.756,0,0,1,3.116-.6,1.456,1.456,0,0,0-.657-.312,4.829,4.829,0,0,1,1.724.45c7.419-2.859,8.585,8.065,8.429,10.6s2.493,3.366,6.353,5.366c7.364,3.815,8.011,8.924,8.011,8.924-.057.034-.117.072-.181.116-.365-.619-1.118-1.781-1.752-1.957a26.264,26.264,0,0,1,1.02,2.485c-2.173,1.653-6.237,5.315-9.07,7.911a4.166,4.166,0,0,0-.193-1.608l-.35,2.107c-1.516,1.393-2.561,2.374-2.561,2.374.187-2.051-9.275-12.873-14.212-16.114a14.271,14.271,0,0,1-1.661-5.141,13.5,13.5,0,0,0,1.01,4.651c-4.18-3.847-1.747-17.713.973-19.258" transform="translate(-1581.024 -429.103)" fill="#b64c41"/>
            <path id="Trazado_14882" data-name="Trazado 14882" d="M1830.469,606.294c-.025.011,2.384,1.262,4.2.766,1.7-.465,2.817-2.674,2.794-2.679-.722-.143-.93-1.135-.914-5.4l-.326.064-5.485,1.086s.125,1.726.128,3.352c0,1.366-.079,2.661-.392,2.806" transform="translate(-1603.577 -524.739)" fill="#ffb27d"/>
            <path id="Trazado_14883" data-name="Trazado 14883" d="M1832.594,600.59s.125,1.726.128,3.352c3.069-.086,4.692-2.886,5.357-4.439Z" transform="translate(-1605.439 -525.194)" fill="#d68d5d"/>
            <path id="Trazado_14884" data-name="Trazado 14884" d="M1814.232,515.032a16.128,16.128,0,0,0,1.995-4.715c.276-1.552-.515-7.3-6.294-6.475a7.851,7.851,0,0,0-3.256,1.231c-1.255.848-3.066,2.677-1.041,7.7l.526,1.7Z" transform="translate(-1581.025 -441.319)" fill="#b64c41"/>
            <path id="Trazado_14885" data-name="Trazado 14885" d="M1656.215,965.635l2.908.089,3.147.1a62.127,62.127,0,0,0,11.347-21.069q.142-.452.3-.916c2.232-6.507,6.858-14.675,9.3-22.068.388-1.178.736-2.286,1.049-3.335.1-.336.2-.666.291-.991a78.405,78.405,0,0,0,2.8-14.721l-17.6.141a328.175,328.175,0,0,1-13.531,62.773" transform="translate(-1450.923 -790.826)" fill="#80bdcc"/>
            <path id="Trazado_14886" data-name="Trazado 14886" d="M1767.225,660.95c.044,8.377-1.229,11.972-1.229,11.972a23.656,23.656,0,0,0,16.5,1.011c.105-.033,7.418-1.7,7.418-1.7-.15-.339-1.483-5.985-1.63-6.3-1.891-4.062-3.328-5.843-3.552-7.092a26.561,26.561,0,0,1-.218-7.019,56.319,56.319,0,0,1,2.172-11.022,57.771,57.771,0,0,1-7.331-2.458,5.5,5.5,0,0,1-3.857,1.428c-1.785-.039-2.342-.794-2.276-1.644-1.9,1.058-3.413,2.065-3.413,2.065-1.616,2.807-4.894,5.534-5.131,9.84-.059,1.059,2.549,10.682,2.551,10.917" transform="translate(-1545.937 -559.03)" fill="#e7f1fd"/>
            <path id="Trazado_14887" data-name="Trazado 14887" d="M1888.713,726.884c.77,1.089,2.245,7.709,5.916,8.541-1.891-4.718-3.328-6.787-3.552-8.237a35.792,35.792,0,0,1-.218-8.153c-1.229-2.154-2.146-3.63-2.146-3.63-.1-.348-1.953-6.088-2.548-.958a23.705,23.705,0,0,0,2.548,12.437" transform="translate(-1652.285 -624.031)" fill="#5f9aa8"/>
            <path id="Trazado_14888" data-name="Trazado 14888" d="M1807.23,534.082s7.262.12,7.267-4.4.946-7.555-3.691-7.823-5.54,1.457-5.908,2.967.443,9.112,2.332,9.26" transform="translate(-1581.1 -457.146)" fill="#ffb27d"/>
            <path id="Trazado_14889" data-name="Trazado 14889" d="M1801.6,515.226c1.121-1.358,1.968-1.063,2.444-.655,1.569-2.345,6.53,1.046,6.53,1.046a8.642,8.642,0,0,0,2.826,5.105s-1.324.818-4.375.033c-2.4-.617-4.144-4.036-4.778-5.464a5.762,5.762,0,0,0-1.616,2.14c-.362,1.152-.525,3.523-1.216,3.443,0,0-1.5-3.607.186-5.648" transform="translate(-1577.589 -450.065)" fill="#b64c41"/>
            <path id="Trazado_14890" data-name="Trazado 14890" d="M1871.618,1447a8.053,8.053,0,0,0,.379,3.426s.487,2.217-1.7,2.258-2.718-.165-2.471-1.524.717-3.71.717-3.71Z" transform="translate(-1636.258 -1267.643)" fill="#ffb27d"/>
            <path id="Trazado_14891" data-name="Trazado 14891" d="M1866.546,1477.589l.007,0h4.517l.007,0a11.652,11.652,0,0,0-.157-3.343c-2.472,2.363-4.019-.059-4.019-.059a12.619,12.619,0,0,0-.355,3.4" transform="translate(-1635.181 -1291.457)" fill="#163560"/>
            <path id="Trazado_14892" data-name="Trazado 14892" d="M1606.535,1434.821a58.28,58.28,0,0,0,5.26-6.844l2.993,1.533-6.69,6.283-1.565-.206Z" transform="translate(-1407.399 -1250.976)" fill="#ffb27d"/>
            <path id="Trazado_14893" data-name="Trazado 14893" d="M1586.631,1447.833h5.584a9.106,9.106,0,0,0,1.535-2.507,2.7,2.7,0,0,1,1.823-1.243v3.75h1.155l1.07-3.987c.712-1.336.177-2.561-.324-3.617-.583,0-2.274.42-5.247,3.836a3.867,3.867,0,0,1-3.128,1.489.27.27,0,0,1-.044.024,4.143,4.143,0,0,0-2.425,2.255" transform="translate(-1389.964 -1261.709)" fill="#163560"/>
            <path id="Trazado_14894" data-name="Trazado 14894" d="M1583.462,643.474s4.767,2.666,6.47,3.434c.605.273,1.7.784,2.824,1.307.677.316,1.362.638,1.954.917a2.457,2.457,0,0,0,2.911-.628c2.581-3.014,9.262-9.546,16.16-10.366l.024-.01,0,.008h.009l-.038.074c-.388.964-4.17,10.414-4.287,12.406-.124,2.1-.494,34.352-.494,34.352s.247,1.483-2.6.865-3.583-1.236-3.583-1.236,2.719-19.894,1.977-26.814a15.39,15.39,0,0,1,.29-4.46,35.438,35.438,0,0,1-9.156,3.677,41.706,41.706,0,0,1-4.719-2.585,29.629,29.629,0,0,1-3.979-3.2,58.436,58.436,0,0,1-4.523-5.205Z" transform="translate(-1386.524 -559.03)" fill="#e37970"/>
            <path id="Trazado_14895" data-name="Trazado 14895" d="M1679.672,1055.859l3.147.1a62.123,62.123,0,0,0,11.347-21.068q.143-.452.3-.916c2.232-6.507,6.858-14.675,9.3-22.068.388-1.177.736-2.286,1.049-3.335.1-.336.2-.666.291-.991l-2.592-1.967s-7.784,12.6-10.193,24.465c-2.093,10.3-10.476,22.7-12.646,25.784" transform="translate(-1471.472 -880.962)" fill="#5f9aa8"/>
            <path id="Trazado_14896" data-name="Trazado 14896" d="M1849.52,1007.54c-.044,5.768.247,19.029,1,24.52h2.788c1.541,0,2.309-.022,2.309-.022,1.885-9.546,3.225-17.444,4.2-24.25.8-5.585,1.512-10.374,2.06-14.5.551-4.148.934-7.622,1.071-10.556q.031-.693.046-1.348t.008-1.279l-15.211-1.483c.192,10.107,1.755,25.563,1.73,28.915" transform="translate(-1618.751 -857.322)" fill="#80bdcc"/>
            <path id="Trazado_14897" data-name="Trazado 14897" d="M1892.292,1061.106c1.541,0,2.309-.022,2.309-.022,1.884-9.546,3.225-17.444,4.2-24.25.8-5.585,1.512-10.374,2.06-14.5.551-4.148.934-7.622,1.071-10.556l-5.582,3.283s3.563,1.257,2.2,10.771-4.372,33.923-6.264,35.27" transform="translate(-1657.737 -886.368)" fill="#5f9aa8"/>
            <path id="Trazado_14898" data-name="Trazado 14898" d="M1849.759,685.874s1.071,3.871,4.778,3.377a44.68,44.68,0,0,0,8.979-2.719s-1.584-5.006-3.554-11.582c-2.385-7.961-5.337-18.225-6.728-24.7a40.041,40.041,0,0,1-.756-4.414l-3.139-5.97s-4.522,10.295-4.769,12.89,5.19,33.116,5.19,33.116" transform="translate(-1615.923 -560.555)" fill="#e37970"/>
            <path id="Trazado_14899" data-name="Trazado 14899" d="M1887.8,731.582c.166,4.2,1.154,12.357,9.968,16.723.023.011.047.024.07.033-2.385-7.961-5.337-18.225-6.728-24.7-1.619,2.419-3.4,5.63-3.31,7.943" transform="translate(-1653.799 -633.942)" fill="#c45446"/>
            <path id="Trazado_14900" data-name="Trazado 14900" d="M1589.931,684.693c.605.273,1.7.784,2.823,1.307a14.412,14.412,0,0,0-1.55,6.2,25.887,25.887,0,0,1-4.1-3.3,54.352,54.352,0,0,1-4.4-5.106l.758-2.534s4.767,2.666,6.47,3.434" transform="translate(-1386.523 -596.815)" fill="#ffb27d"/>
            <path id="Trazado_14901" data-name="Trazado 14901" d="M1495.292,600.308h0a.294.294,0,0,0,.1.4l1.75,1.078.308-.5-1.75-1.078a.294.294,0,0,0-.4.1" transform="translate(-1309.908 -525.776)" fill="#163560"/>
            <path id="Trazado_14902" data-name="Trazado 14902" d="M1790.626,831.032l-.344.559-2.114-1.3-1.638,2.657,1.982,1.221a5.277,5.277,0,0,1-5.723,1.121c-3.842-1.579-9.3-4.812-16.617-9.846a3.777,3.777,0,0,0-3.061-2.134l-.5-.355a.755.755,0,0,0-.873,1.232c9.232,6.542,15.931,10.631,20.48,12.5a6.783,6.783,0,0,0,7.613-1.707l.045.028a1.56,1.56,0,0,0,1.693-2.619l.346-.561a.755.755,0,0,0-1.286-.792" transform="translate(-1543.083 -720.823)" fill="#163560"/>
            <path id="Trazado_14903" data-name="Trazado 14903" d="M1506.075,605.816a.463.463,0,0,0-.4.649c2.863,6.345,46.773,35.8,52.453,37.928q.406.152.792.272a5.128,5.128,0,0,0,5.21-8.455q-.281-.291-.6-.585c-4.452-4.119-50.5-30.1-57.457-29.81" transform="translate(-1319.007 -530.721)" fill="#415da5"/>
            <path id="Trazado_14904" data-name="Trazado 14904" d="M1522.731,615.073a453.49,453.49,0,0,1,40.776,20.4s-21.916-14.109-40.776-20.4" transform="translate(-1333.984 -538.833)" fill="#a0c0ef"/>
            <path id="Trazado_14905" data-name="Trazado 14905" d="M1760.1,772.144c1.784.235,2.887.541,3.107,1.82a5.434,5.434,0,0,0,.777,1.854c1.777.1,6.01.326,9.566.551l.293,4.664a53.257,53.257,0,0,1-10.642-2.519,2.784,2.784,0,0,1-1.211-.658c-2.56-2.1-4.178-3.99-4.183-4.493s.509-1.453,2.293-1.219" transform="translate(-1539.923 -676.403)" fill="#ffb27d"/>
            <path id="Trazado_14906" data-name="Trazado 14906" d="M1880.134,639.867s7.54.534,9.352,4.571,2.389,17.464.082,21.419c0,0-3.176.9-8.792-.146l-.208-.039s-1.792-4.387-.185-5.252c0,0,4.737.247,4.242-1.318s-4.492-19.235-4.492-19.235" transform="translate(-1646.719 -560.554)" fill="#e37970"/>
            <path id="Trazado_14907" data-name="Trazado 14907" d="M1564.6,666.587s-3.747-3.962-2.177-4.747,3.706.586,2.812,3.081.922.753-.635,1.666" transform="translate(-1368.422 -579.61)" fill="#ffb27d"/>
          </g>
        </g>
      </g>
    </g>
  </g>
</svg>
