<svg xmlns="http://www.w3.org/2000/svg" xmlns:xlink="http://www.w3.org/1999/xlink" width="804.069" height="314.913" viewBox="0 0 804.069 314.913">
  <defs>
    <clipPath id="clip-path">
      <rect id="Rectángulo_4483" data-name="Rectángulo 4483" width="803.716" height="243.012" fill="none"/>
    </clipPath>
    <clipPath id="clip-path-3">
      <rect id="Rectángulo_4365" data-name="Rectángulo 4365" width="79.898" height="146.053" transform="translate(662.68 94.017)" fill="none"/>
    </clipPath>
    <clipPath id="clip-path-4">
      <rect id="Rectángulo_4373" data-name="Rectángulo 4373" width="79.897" height="146.053" transform="translate(61.357 94.017)" fill="none"/>
    </clipPath>
    <clipPath id="clip-path-5">
      <rect id="Rectángulo_4380" data-name="Rectángulo 4380" width="1.729" height="36.137" transform="translate(377.92 198.133)" fill="none"/>
    </clipPath>
    <clipPath id="clip-path-6">
      <rect id="Rectángulo_4381" data-name="Rectángulo 4381" width="6.137" height="6.137" transform="translate(375.716 233.885)" fill="none"/>
    </clipPath>
    <clipPath id="clip-path-7">
      <rect id="Rectángulo_4382" data-name="Rectángulo 4382" width="28.911" height="28.911" transform="translate(347.779 211.111)" fill="none"/>
    </clipPath>
  </defs>
  <g id="Grupo_13571" data-name="Grupo 13571" transform="translate(-338.647 -2900.037)">
    <rect id="Rectángulo_4256" data-name="Rectángulo 4256" width="803.116" height="314.887" transform="translate(338.647 2900.037)" fill="#f7ec45" opacity="0.5"/>
    <rect id="Rectángulo_4258" data-name="Rectángulo 4258" width="802.619" height="314.913" transform="translate(339.206 2900.037)" fill="none"/>
    <rect id="Rectángulo_4357" data-name="Rectángulo 4357" width="802.619" height="3.643" transform="translate(339.206 3211.307)" fill="#184655"/>
    <g id="Grupo_5736" data-name="Grupo 5736" transform="translate(339 2971)">
      <g id="Enmascarar_grupo_5735" data-name="Enmascarar grupo 5735" clip-path="url(#clip-path)">
        <g id="Grupo_5734" data-name="Grupo 5734">
          <g id="Grupo_5733" data-name="Grupo 5733" clip-path="url(#clip-path)">
            <path id="Trazado_11086" data-name="Trazado 11086" d="M35.645,240.069c-1.279,0-3.449-15.522-3.662-16.787-6.313-37.466-6.255-78.523,9.006-113.912,10.346-24,28.632-43.125,50.526-57.124,24.2-15.475,52.113-22.091,80.571-23.364,32.748-1.466,65.254,3.169,97.908,4.563,33.451,1.427,66.544-3.606,99.215-10.313,29.078-5.97,57.976-12.926,87.355-17.32C485.27,1.373,515.175-1.45,544.218.779c23.7,1.817,46.4,8.55,66.437,21.462,18.511,11.928,33.949,28.3,53.48,38.682a96.05,96.05,0,0,0,34.761,10.6c11.63,1.27,23.131.56,34.6,3.345a84.566,84.566,0,0,1,45.571,28.921c22.714,27.887,29.367,67.969,21.45,102.558a97.578,97.578,0,0,1-14.347,33.724Z" fill="#f7ec45"/>
            <path id="Trazado_11087" data-name="Trazado 11087" d="M243.869,31.442V240.07H11.118S-21.794,132.412,44.027,74.23c59.051-52.2,124.587-47.81,199.842-42.788" fill="#efebb9"/>
            <path id="Trazado_11088" data-name="Trazado 11088" d="M193.708,98.79H180.78a7.256,7.256,0,0,1-7.234-7.234V79.446a7.256,7.256,0,0,1,7.234-7.234h12.928a7.255,7.255,0,0,1,7.233,7.234V91.557a7.254,7.254,0,0,1-7.233,7.233" fill="#a2bff6"/>
            <path id="Trazado_11089" data-name="Trazado 11089" d="M193.147,97.638H181.34a6.627,6.627,0,0,1-6.607-6.607V79.97a6.627,6.627,0,0,1,6.607-6.607h11.807a6.627,6.627,0,0,1,6.607,6.608v11.06a6.627,6.627,0,0,1-6.607,6.607" fill="#eff5ff"/>
            <path id="Trazado_11090" data-name="Trazado 11090" d="M186.676,75.789a.568.568,0,1,1,.567.567.567.567,0,0,1-.567-.567" fill="#a2bff6"/>
            <path id="Trazado_11091" data-name="Trazado 11091" d="M191.255,76.592a.567.567,0,1,1,.22.771.567.567,0,0,1-.22-.771" fill="#a2bff6"/>
            <path id="Trazado_11092" data-name="Trazado 11092" d="M195.178,79.708a.568.568,0,1,1-.169.785.567.567,0,0,1,.169-.785" fill="#a2bff6"/>
            <path id="Trazado_11093" data-name="Trazado 11093" d="M197.122,84.532a.568.568,0,1,1-.567.567.567.567,0,0,1,.567-.567" fill="#a2bff6"/>
            <path id="Trazado_11094" data-name="Trazado 11094" d="M196.129,90.131a.568.568,0,1,1-.8,0,.567.567,0,0,1,.8,0" fill="#a2bff6"/>
            <path id="Trazado_11095" data-name="Trazado 11095" d="M192.566,93.7a.568.568,0,1,1-.8,0,.567.567,0,0,1,.8,0" fill="#a2bff6"/>
            <path id="Trazado_11096" data-name="Trazado 11096" d="M186.676,95.545a.568.568,0,1,1,.567.567.567.567,0,0,1-.567-.567" fill="#a2bff6"/>
            <path id="Trazado_11097" data-name="Trazado 11097" d="M183.213,76.592a.567.567,0,1,0-.22.771.567.567,0,0,0,.22-.771" fill="#a2bff6"/>
            <path id="Trazado_11098" data-name="Trazado 11098" d="M179.291,79.708a.568.568,0,1,0,.17.785.567.567,0,0,0-.17-.785" fill="#a2bff6"/>
            <path id="Trazado_11099" data-name="Trazado 11099" d="M177.347,84.532a.568.568,0,1,0,.568.567.567.567,0,0,0-.568-.567" fill="#a2bff6"/>
            <path id="Trazado_11100" data-name="Trazado 11100" d="M178.339,90.131a.568.568,0,1,0,.8,0,.567.567,0,0,0-.8,0" fill="#a2bff6"/>
            <path id="Trazado_11101" data-name="Trazado 11101" d="M181.9,93.7a.567.567,0,1,0,.8,0,.567.567,0,0,0-.8,0" fill="#a2bff6"/>
            <path id="Trazado_11102" data-name="Trazado 11102" d="M187.09,85.1a.568.568,0,1,1,.567.567.567.567,0,0,1-.567-.567" fill="#a2bff6"/>
            <rect id="Rectángulo_4358" data-name="Rectángulo 4358" width="0.155" height="7.089" transform="translate(187.581 78.01)" fill="#a2bff6"/>
            <rect id="Rectángulo_4359" data-name="Rectángulo 4359" width="4.779" height="0.465" transform="matrix(0.786, -0.618, 0.618, 0.786, 187.444, 84.909)" fill="#a2bff6"/>
            <g id="Grupo_5720" data-name="Grupo 5720" opacity="0.7">
              <g id="Grupo_5719" data-name="Grupo 5719">
                <g id="Grupo_5718" data-name="Grupo 5718" clip-path="url(#clip-path-3)">
                  <rect id="Rectángulo_4360" data-name="Rectángulo 4360" width="79.897" height="146.052" transform="translate(662.681 94.017)" fill="#bcd2f5"/>
                  <rect id="Rectángulo_4361" data-name="Rectángulo 4361" width="72.981" height="143.486" transform="translate(666.188 96.583)" fill="#dfeafd"/>
                  <path id="Trazado_11103" data-name="Trazado 11103" d="M726.789,167.345a3.227,3.227,0,1,1,3.227,3.227,3.227,3.227,0,0,1-3.227-3.227" fill="#c9d9f4"/>
                  <rect id="Rectángulo_4362" data-name="Rectángulo 4362" width="30.126" height="9.511" transform="translate(687.721 118.327)" fill="#fff"/>
                  <rect id="Rectángulo_4363" data-name="Rectángulo 4363" width="18.944" height="0.979" transform="translate(693.312 121.276)" fill="#bcd2f5"/>
                  <rect id="Rectángulo_4364" data-name="Rectángulo 4364" width="13.642" height="0.979" transform="translate(695.963 123.91)" fill="#bcd2f5"/>
                  <path id="Trazado_11104" data-name="Trazado 11104" d="M687.36,128.2h30.848V117.965H687.36Zm30.125-.724h-29.4v-8.786h29.4Z" fill="#bcd2f5"/>
                </g>
              </g>
            </g>
            <rect id="Rectángulo_4366" data-name="Rectángulo 4366" width="79.897" height="146.052" transform="translate(317.582 94.017)" fill="#bcd2f5"/>
            <rect id="Rectángulo_4367" data-name="Rectángulo 4367" width="72.981" height="143.486" transform="translate(321.089 96.583)" fill="#dfeafd"/>
            <path id="Trazado_11105" data-name="Trazado 11105" d="M381.69,167.345a3.227,3.227,0,1,1,3.227,3.227,3.227,3.227,0,0,1-3.227-3.227" fill="#c9d9f4"/>
            <rect id="Rectángulo_4368" data-name="Rectángulo 4368" width="30.126" height="9.511" transform="translate(342.623 118.327)" fill="#fff"/>
            <rect id="Rectángulo_4369" data-name="Rectángulo 4369" width="18.944" height="0.979" transform="translate(348.214 121.276)" fill="#bcd2f5"/>
            <rect id="Rectángulo_4370" data-name="Rectángulo 4370" width="13.642" height="0.979" transform="translate(350.864 123.91)" fill="#bcd2f5"/>
            <path id="Trazado_11106" data-name="Trazado 11106" d="M342.26,128.2h30.851V117.965H342.26Zm30.128-.724h-29.4v-8.786h29.4Z" fill="#bcd2f5"/>
            <g id="Grupo_5723" data-name="Grupo 5723" opacity="0.7">
              <g id="Grupo_5722" data-name="Grupo 5722">
                <g id="Grupo_5721" data-name="Grupo 5721" clip-path="url(#clip-path-4)">
                  <rect id="Rectángulo_4371" data-name="Rectángulo 4371" width="79.897" height="146.052" transform="translate(61.357 94.017)" fill="#bcd2f5"/>
                  <rect id="Rectángulo_4372" data-name="Rectángulo 4372" width="72.98" height="143.486" transform="translate(64.864 96.583)" fill="#eef4ff"/>
                  <path id="Trazado_11107" data-name="Trazado 11107" d="M125.465,167.345a3.226,3.226,0,1,1,3.227,3.227,3.227,3.227,0,0,1-3.227-3.227" fill="#c9d9f4"/>
                </g>
              </g>
            </g>
            <path id="Trazado_11108" data-name="Trazado 11108" d="M737.685,240.069h-7.153a17.18,17.18,0,0,1,.57-2.567,7.239,7.239,0,0,1,.405-1.031c.7-1.388,5.115-.506,5.115-.506a3.419,3.419,0,0,1,.731,1.7,14.24,14.24,0,0,1,.332,2.408" fill="#2c3a64"/>
            <path id="Trazado_11109" data-name="Trazado 11109" d="M724.553,130.807s-5.7,1-6.988,4.365-8.57,57.71-8.57,57.71,3.606,2.857,11.344,1.83,4.214-63.9,4.214-63.9" fill="#afc0ff"/>
            <path id="Trazado_11110" data-name="Trazado 11110" d="M716.069,237.812a3.88,3.88,0,0,1-.495,2.257H701.425a2.445,2.445,0,0,1,2.142-1.518,10.725,10.725,0,0,0,5.726-2.649,4.267,4.267,0,0,0,1.108-2.008c.666-2.963,5.5.908,5.5.908a24.055,24.055,0,0,1,.164,3.01" fill="#2c3a64"/>
            <path id="Trazado_11111" data-name="Trazado 11111" d="M709.976,236.371c1.581.5,4.6,2.044,6.522,1.32,1.241-.467,8.176-20.528,8.625-29.3a23.038,23.038,0,0,1,.356-2.614c.411-2.264,1.129-5.376,1.957-8.809,2.219-9.2,5.221-20.71,5.155-24.389-.1-5.71-17.015-1.2-17.015-1.2a61.167,61.167,0,0,0-1.4,11.465c-.459,13.461-1.723,36.2-5.157,51.986a1.355,1.355,0,0,0,.953,1.54" fill="#dd843e"/>
            <path id="Trazado_11112" data-name="Trazado 11112" d="M721.716,172.6l8.942,64.81a17.467,17.467,0,0,0,6.981.189s2.618-34.469,2.4-42.8,1.88-22.3-.478-23.838-17.844,1.641-17.844,1.641" fill="#f39e57"/>
            <path id="Trazado_11113" data-name="Trazado 11113" d="M740.691,133.776s-9.4-6.076-16.138-2.969a12.622,12.622,0,0,0-3.176,2.844c-2.437,2.685-7.2,45.331-7.2,45.331s13.515,4.577,26.512-1.553Z" fill="#fff"/>
            <path id="Trazado_11114" data-name="Trazado 11114" d="M724.018,130.653s-9.513,3.9-10.8,6.9-5.475,21.392-5.475,23.549,7.291.483,8.465-3c.974-2.889,4.262-11.764,6-17.379Z" fill="#afc0ff"/>
            <path id="Trazado_11115" data-name="Trazado 11115" d="M725.995,133.624a10.7,10.7,0,0,0,7.361-1.5,21.206,21.206,0,0,1-1.569-5.541c-.009-.066-.015-.13-.021-.19a5.651,5.651,0,0,1-.026-1.27h-5.37s-1.468.671-1.468,1.135q0,.372-.006.712c-.01.618-.035,1.157-.067,1.62a14.873,14.873,0,0,1-.275,2.216s-.657,2.4,1.441,2.816" fill="#f4ac75"/>
            <path id="Trazado_11116" data-name="Trazado 11116" d="M724.829,128.592a7.42,7.42,0,0,0,6.958-2.007c.075-.082.114-.131.114-.131-.043-.021-.089-.04-.135-.059-1.515-.614-4.951-.126-6.87.577-.01.618-.035,1.157-.067,1.62" fill="#d68b52"/>
            <path id="Trazado_11117" data-name="Trazado 11117" d="M733.116,124.242c-.728,3.912-5.775,3.784-7.957,3.538-.613-.068-1-.146-1-.146-.692-.186-1.078-1.276-1.258-2.7a22.257,22.257,0,0,1,.571-8.037c.719-1.6,2.073-3.323,7.156-2.078s3.421,4.414,2.488,9.427" fill="#f4ac75"/>
            <path id="Trazado_11118" data-name="Trazado 11118" d="M723.283,114.711a11.607,11.607,0,0,1,3.506-2.86c2.875-1.556,6.554.048,6.569.055,4.152,1.826,5.237,5,3.035,9.95-2.328,5.234-4.545,4.645-4.545,4.645s.471-.293.428-1.924c0-.093-.006-.17-.01-.236a1.1,1.1,0,0,1,.346-.893c.516-.46.768-1.852.336-2.24-.521-.468-1.254.1-1.487.537a.637.637,0,0,1-.911.2c-1.292-.816-.454-2.451-1.688-3.45s-3.741-.161-5.594-.957c-2.424-.9-.508-2.1.015-2.828" fill="#2c3a64"/>
            <path id="Trazado_11119" data-name="Trazado 11119" d="M722.705,196.875q1.227.316,2.433.517c.713.121,1.421.212,2.13.271a34.638,34.638,0,0,0,12.784-1.569q1.594-.457,3.3-1.034c.123-.041-.309-12.527-.808-25.406-.05-1.33-.1-2.664-.154-3.989-.023-.561-.044-1.12-.067-1.678-.452-11.389-.9-21.676-.994-22.23-.216-1.253-.418-2.321-.639-3.248-.642-2.7-1.441-4.178-3.183-5.45-.17-.129-1.563-.831-2.791-1.443-1.018-.506-1.922-.947-1.922-.947h0a5.371,5.371,0,0,0-1.4,2.43,87.781,87.781,0,0,0-2.647,8.823l0,.015c-.452,1.773-.776,3.154-.868,3.55-.157.669-.364,1.964-.608,3.72-.332,2.39-.726,5.633-1.144,9.313-.043.377-.086.761-.129,1.147q-.075.663-.149,1.34c-.016.144-.033.29-.047.434-.161,1.457-.323,2.962-.485,4.492-.134,1.263-2.051,2.177-2.183,3.462-.076.755-.236,7.72-.441,9.943-.147,1.587-.043,16.791.016,17.537" fill="#afc0ff"/>
            <path id="Trazado_11120" data-name="Trazado 11120" d="M736.574,146.348c.006.026.325,11.519-8.318,12.914s-2.9,1.765-2.9,1.765,16.265-.691,16.533-1.119-5.313-13.56-5.313-13.56" fill="#9eadf6"/>
            <path id="Trazado_11121" data-name="Trazado 11121" d="M729.27,164.2s.162.114.474.315l.015.01a40.626,40.626,0,0,0,10.932,4.676q.9.243,1.853.457c-.049-1.33-.1-2.664-.154-3.989a16.828,16.828,0,0,0,2.143-.3c-.023-.175-.047-.35-.07-.525-.724-.3-1.445-.585-2.139-.856-.567-.221-1.114-.432-1.633-.627-2.341-.889-4.076-1.491-4.076-1.491l-6.93,2.194Z" fill="#9eadf6"/>
            <path id="Trazado_11122" data-name="Trazado 11122" d="M727.436,164s.89.222,2.308.508l.014,0a56.793,56.793,0,0,0,10.933,1.221c.579,0,1.148-.028,1.7-.071a16.475,16.475,0,0,0,2.143-.3,6.656,6.656,0,0,0,3.422-1.616c5.838-5.946-3.186-27.29-5.083-29.367-2.216-2.425-6.259-3.276-8.492-3.568l-.269-.034c-.785-.093-1.289-.112-1.317-.114h0s.175.564.468,1.518c.114.369.246.8.391,1.275,1.372,4.491,4.017,13.317,5.183,18.295a12.613,12.613,0,0,1,.553,3.517c-.456,1.7-5.173,2.574-8.162,2.959-1.246.162-2.192.238-2.4.254a.326.326,0,0,0-.044,0l-.173.709-.413,1.7-.407,1.669Z" fill="#afc0ff"/>
            <path id="Trazado_11123" data-name="Trazado 11123" d="M711.152,174.234l20.052-.845L727.135,148.4l-20.051.845Z" fill="#2c3a64"/>
            <path id="Trazado_11124" data-name="Trazado 11124" d="M728.778,158.49s-3.9-.271-4.1.638c-.457,2.121,3.356,3.863,4.591,3.744s.406-4.524-.492-4.382" fill="#f4ac75"/>
            <path id="Trazado_11125" data-name="Trazado 11125" d="M708.18,154.319s3.734-1.167,4.135-.327c.934,1.957-2.371,4.533-3.6,4.7s-1.441-4.306-.534-4.376" fill="#f4ac75"/>
            <path id="Trazado_11126" data-name="Trazado 11126" d="M732.388,129.414a7.277,7.277,0,0,1,2.465,1.964s-6.138,10.657-6.111,10.557,2.076-11.156,3.646-12.521" fill="#9eadf6"/>
            <path id="Trazado_11127" data-name="Trazado 11127" d="M724.743,129.564a4.692,4.692,0,0,0-1.811,1.854l-.73,9.3s1.559-6.827,2.352-9.914a5.092,5.092,0,0,0,.189-1.243" fill="#9eadf6"/>
            <path id="Trazado_11128" data-name="Trazado 11128" d="M720.489,148.68a.912.912,0,0,0-1.071-.613c-.913.081-6.041.333-6.041.333s-.99-.016-.9.618Z" fill="#b84c42"/>
            <path id="Trazado_11129" data-name="Trazado 11129" d="M726.37,125.125a2.142,2.142,0,0,1-1.739.419c-.637-.111-.993-.94-.993-.94a4.807,4.807,0,0,1,2.732.521" fill="#fff"/>
            <path id="Trazado_11130" data-name="Trazado 11130" d="M412.464,219.422,408.278,186.9a6.955,6.955,0,0,1,6.767-7.941H531.787a10.284,10.284,0,0,1,9.872,7.743l8.244,30.919Z" fill="#e28740"/>
            <path id="Trazado_11131" data-name="Trazado 11131" d="M423.135,219.422,418.949,186.9a6.954,6.954,0,0,1,6.767-7.941H542.458a10.284,10.284,0,0,1,9.872,7.743l8.244,30.919Z" fill="#eb914d"/>
            <path id="Trazado_11132" data-name="Trazado 11132" d="M552.813,223.97H417.741a5.291,5.291,0,0,1-5.277-5.276v-7.5a5.292,5.292,0,0,1,5.277-5.277H552.813a5.292,5.292,0,0,1,5.276,5.277v7.5a5.291,5.291,0,0,1-5.276,5.276" fill="#e28740"/>
            <path id="Trazado_11133" data-name="Trazado 11133" d="M567.811,223.97H441.1a5.291,5.291,0,0,1-5.276-5.276v-7.5a5.292,5.292,0,0,1,5.276-5.277H567.811a5.293,5.293,0,0,1,5.276,5.277v7.5a5.292,5.292,0,0,1-5.276,5.276" fill="#f39e57"/>
            <path id="Trazado_11134" data-name="Trazado 11134" d="M431.111,240.069h0a1.463,1.463,0,0,1-1.418-1.7l2.2-14.4h3.936L431.952,239.4a.873.873,0,0,1-.841.67" fill="#333854"/>
            <path id="Trazado_11135" data-name="Trazado 11135" d="M565.288,240.069h0a1.463,1.463,0,0,0,1.418-1.7l-2.2-14.4h-3.936l3.872,15.429a.873.873,0,0,0,.841.67" fill="#333854"/>
            <path id="Trazado_11136" data-name="Trazado 11136" d="M549.057,240.069h0a1.462,1.462,0,0,0,1.418-1.7l-2.195-14.4h-3.935l3.871,15.429a.874.874,0,0,0,.841.67" fill="#333854"/>
            <path id="Trazado_11137" data-name="Trazado 11137" d="M416.974,240.069h0a1.462,1.462,0,0,1-1.418-1.7l2.2-14.4h3.936L417.815,239.4a.874.874,0,0,1-.841.67" fill="#333854"/>
            <path id="Trazado_11138" data-name="Trazado 11138" d="M199.361,228.3h.06a.816.816,0,0,0,.824-.872l-3.276-32.715-2.858.255,4.7,32.891a.534.534,0,0,0,.547.442" fill="#df750d"/>
            <path id="Trazado_11139" data-name="Trazado 11139" d="M167.818,228.3h-.06a.816.816,0,0,1-.824-.872l3.276-32.715,2.858.255-4.7,32.891a.534.534,0,0,1-.547.442" fill="#df750d"/>
            <path id="Trazado_11140" data-name="Trazado 11140" d="M222.471,228.3h.06a.816.816,0,0,0,.824-.872l-3.277-32.715-2.858.255,4.7,32.891a.533.533,0,0,0,.547.442" fill="#df750d"/>
            <path id="Trazado_11141" data-name="Trazado 11141" d="M168.794,189.958l-5.815-28.714a6.363,6.363,0,0,1,6.658-7.348l11.215.256a8.859,8.859,0,0,1,8.306,6.4l8.507,29.411Z" fill="#df750d"/>
            <path id="Trazado_11142" data-name="Trazado 11142" d="M172.311,189.958,166.5,161.244a6.363,6.363,0,0,1,6.658-7.348l11.214.256a8.859,8.859,0,0,1,8.307,6.4l8.507,29.411Z" fill="#df750d"/>
            <path id="Trazado_11143" data-name="Trazado 11143" d="M170.325,195.2h44.547a1.535,1.535,0,0,0,1.531-1.53v-2.176a1.536,1.536,0,0,0-1.531-1.531H168.794v3.706a1.535,1.535,0,0,0,1.531,1.531" fill="#df750d"/>
            <path id="Trazado_11144" data-name="Trazado 11144" d="M191.46,195.2h27.832a1.535,1.535,0,0,0,1.531-1.53v-2.176a1.536,1.536,0,0,0-1.531-1.531H191.46a1.535,1.535,0,0,0-1.531,1.531v2.176a1.534,1.534,0,0,0,1.531,1.53" fill="#df750d"/>
            <path id="Trazado_11145" data-name="Trazado 11145" d="M193.955,160.456l4.713,11.925s4.541,5.351,8.19,3.627l-11.549-22.426Z" fill="#b1ddd9"/>
            <path id="Trazado_11146" data-name="Trazado 11146" d="M225.976,225.975c-.136,1.317,1.7,1.657,3.822,1.786s1.479.558,4.388,1.117,4.086-.226,4.3-.618c.191-.347-1.158-.908-2.6-1.541-.181-.079-.361-.16-.543-.242-1.617-.732-2.514-2.2-3.767-3.565-1.186-1.292-2.282-5.4-2.282-5.4l-3.951-.888s1.072,3.7,1.441,5.279a4.879,4.879,0,0,1-.434,2.746,5.162,5.162,0,0,0-.379,1.329" fill="#f4ac75"/>
            <path id="Trazado_11147" data-name="Trazado 11147" d="M229.8,227.762c2.126.129,1.479.558,4.388,1.117s4.086-.226,4.3-.618c.192-.347-1.158-.908-2.595-1.541l-.023.024a8.294,8.294,0,0,1-4.415,0c-1.923-.544-3.774-1.716-5.1-2.1a5.162,5.162,0,0,0-.379,1.329c-.136,1.317,1.7,1.657,3.822,1.786" fill="#1b294c"/>
            <path id="Trazado_11148" data-name="Trazado 11148" d="M219.989,180.193c-2.126-1.493-15.921-8.044-23.1-8.813l-8.2-3s-6.753,10-6.806,17.655c-.025,3.568,1.618,3.923,1.619,3.923s25.432.189,26.548.3c1.825.189,4.232,4.735,4.834,8.875s11.207,20.982,11.207,20.982a13.313,13.313,0,0,0,3.234.648,3.224,3.224,0,0,0,1.609-.433s-6.145-36.773-10.941-40.14" fill="#832c2c"/>
            <path id="Trazado_11149" data-name="Trazado 11149" d="M219.4,225.975c-.136,1.317,1.7,1.657,3.822,1.786s1.479.558,4.388,1.117,4.085-.226,4.3-.618c.192-.347-1.157-.908-2.6-1.541q-.271-.118-.543-.242c-1.618-.732-2.514-2.2-3.767-3.565-1.186-1.292-2.282-5.4-2.282-5.4l-3.952-.888s1.073,3.7,1.442,5.279a4.879,4.879,0,0,1-.435,2.746,5.16,5.16,0,0,0-.378,1.329" fill="#f4ac75"/>
            <path id="Trazado_11150" data-name="Trazado 11150" d="M223.22,227.762c2.126.129,1.479.558,4.388,1.117s4.085-.226,4.3-.618c.192-.347-1.158-.908-2.6-1.541l-.023.024a8.3,8.3,0,0,1-4.416,0c-1.922-.544-3.774-1.716-5.1-2.1a5.16,5.16,0,0,0-.378,1.329c-.136,1.317,1.7,1.657,3.822,1.786" fill="#2c3a64"/>
            <path id="Trazado_11151" data-name="Trazado 11151" d="M213.352,180.193c-1.847-1.3-6.494-1.886-13.251-4.087-1.627-.53-7.891-3.549-8.306-5.209l3.091-1.427-12.838-1.09a34.376,34.376,0,0,0-3.3,13.949c-.025,3.568,3.13,7.629,3.131,7.629s20.415.189,21.531.3c1.825.189,4.232,4.735,4.834,8.875s11.207,20.982,11.207,20.982a13.313,13.313,0,0,0,3.234.648,3.224,3.224,0,0,0,1.609-.433s-6.145-36.773-10.941-40.14" fill="#9d3f3a"/>
            <path id="Trazado_11152" data-name="Trazado 11152" d="M194.263,126.823a16.141,16.141,0,0,0-5.428-1.234c-5.8-.78-9.289,7.647-9.494,10.2-.378,4.706-2.867,5.424-6.372,8.371-7.026,5.91-4.966,12.776-1.124,15.328,2.306,1.531,6.369,0,6.369,0,.057.04,11.112-6.18,16.562-9.181,8.169-1.161,4.483-20.861-.513-23.484" fill="#2c3a64"/>
            <path id="Trazado_11153" data-name="Trazado 11153" d="M193.054,147.409c.025.013-2.577,1.2-4.455.576-1.768-.583-3.323-3.243-3.3-3.247.768-.11,1.547-.867,1.765-5.35l.34.084,5.71,1.444s-.226,1.809-.32,3.519c-.078,1.437-.062,2.8.259,2.974" fill="#f4ac75"/>
            <path id="Trazado_11154" data-name="Trazado 11154" d="M193.115,140.916s0,.372-.213,2.056c-3.23-.815-4.654-1.886-5.658-3.112Z" fill="#e19054"/>
            <path id="Trazado_11155" data-name="Trazado 11155" d="M194.333,141.144s-7.552,1.229-8.245-3.485-2.135-7.731,2.657-8.715,6,.676,6.609,2.193.925,9.565-1.021,10.007" fill="#f4ac75"/>
            <path id="Trazado_11156" data-name="Trazado 11156" d="M194.34,128.747s-3.43,5.412-6.49,6.694-4.566.632-4.566.632a12.884,12.884,0,0,0,1.755-4.947,2.32,2.32,0,0,1,1.435-1.865c2.2-.88,6.445-2.268,7.866-.514" fill="#2c3a64"/>
            <path id="Trazado_11157" data-name="Trazado 11157" d="M191.328,129.269a11.958,11.958,0,0,1,2.838,2,9.169,9.169,0,0,1,1.655,4.6s.992-5.443-1.073-7.314c-2.19-1.983-3.42.721-3.42.721" fill="#2c3a64"/>
            <path id="Trazado_11158" data-name="Trazado 11158" d="M199.1,158.927c-.229,15.349,5.428,11.053,3.749,12.51-.4.35-2.061,2.963-8.3,3.273-4.712.235-13.205-1.989-13.52-2.859-1.085-3.01-.32-3.945-1.225-8.553-.1-.489-.211-1.02-.348-1.6-.755-3.165-1.491-4.241,1.189-9.325,2.43-4.6,5.287-8.347,5.514-8.213,6.41,3.806,6.63.617,6.63.617s6.428,6.661,6.316,14.148" fill="#fff"/>
            <path id="Trazado_11159" data-name="Trazado 11159" d="M192.779,144.778s6.561,1.112,7.335,3.952,8.346,24.331,8.346,24.331-8.075.221-9.623-1.328-3.683-18.786-3.683-18.786Z" fill="#b2cbfd"/>
            <path id="Trazado_11160" data-name="Trazado 11160" d="M194.54,170.86a8.979,8.979,0,0,0,1.291,1.4.943.943,0,0,0,.525.113l-.655-1.18Z" fill="#f4ac75"/>
            <path id="Trazado_11161" data-name="Trazado 11161" d="M194.314,169.567l2.829,1.374a.506.506,0,0,1-.469.181,6.749,6.749,0,0,1-1.226-.337Z" fill="#f4ac75"/>
            <path id="Trazado_11162" data-name="Trazado 11162" d="M192.837,143.776l-.059,1c.746,2.563,2.007,10.486,3.578,16.616l1.1-8.777-.9-.737.339-1.243-2.958-5.613Z" fill="#98b0f1"/>
            <path id="Trazado_11163" data-name="Trazado 11163" d="M189.207,185.714c-10.12,3.386-14.564,1.31-14.564,1.31l1.653-9.783.9-5.335,1.936-11.451,3.306-10.888,2.893-1.752,2.524,12.64.665,12.431.032.6Z" fill="#b2cbfd"/>
            <path id="Trazado_11164" data-name="Trazado 11164" d="M180.576,161.645a6.411,6.411,0,0,0,4.725,6.74c4.9,1.273-7.177,2.512-7.177,2.512s-3.895-2.989-3.838-3.723,6.29-5.529,6.29-5.529" fill="#98b0f1"/>
            <path id="Trazado_11165" data-name="Trazado 11165" d="M188.554,173.483c-2.079,1.056-7.232,3.427-12.259,3.758l.9-5.335,11.324.979Z" fill="#98b0f1"/>
            <path id="Trazado_11166" data-name="Trazado 11166" d="M188.921,170.189s4.644-1.034,5.393-.622A10.873,10.873,0,0,1,197.123,172c.23.522-1.668-.4-2.285-.562a5.516,5.516,0,0,0-1.972.433,6.558,6.558,0,0,1-3.535.354Z" fill="#f4ac75"/>
            <path id="Trazado_11167" data-name="Trazado 11167" d="M186.149,144.162s-6.571.385-8.73,3.4c-3.039,4.238-9.066,22.3-5.611,24.706,3.89,2.712,17.7.71,17.7.71s.459-2.149-.18-3.189-11.034-2.719-11.513-3.2,6-9.355,6-10.794,2.334-11.63,2.334-11.63" fill="#b2cbfd"/>
            <path id="Trazado_11168" data-name="Trazado 11168" d="M186.528,143.318l1.331,17.138-3.048-6.562.523-1.168a18.63,18.63,0,0,1-1.116-2.145c0-.226.318-6.235.318-6.235Z" fill="#98b0f1"/>
            <rect id="Rectángulo_4374" data-name="Rectángulo 4374" width="8.748" height="0.567" transform="translate(194.18 171.734)" fill="#2c3a64"/>
            <path id="Trazado_11169" data-name="Trazado 11169" d="M230.187,167.907h-26.64l4.841-17.9h26.64Z" fill="#203060"/>
            <path id="Trazado_11170" data-name="Trazado 11170" d="M231.029,167.907h-26.64l4.84-17.9h26.64Z" fill="#35488b"/>
            <path id="Trazado_11171" data-name="Trazado 11171" d="M219.681,172.25l-5.586.051,3.867-11.787,5.586-.051Z" fill="#203060"/>
            <rect id="Rectángulo_4375" data-name="Rectángulo 4375" width="12.199" height="0.562" transform="translate(210.646 171.739)" fill="#203060"/>
            <rect id="Rectángulo_4376" data-name="Rectángulo 4376" width="150.564" height="64.356" transform="translate(104.44 175.948)" fill="#f39e57"/>
            <rect id="Rectángulo_4377" data-name="Rectángulo 4377" width="160.248" height="5.263" transform="translate(99.598 172.308)" fill="#fff"/>
            <rect id="Rectángulo_4378" data-name="Rectángulo 4378" width="150.564" height="10.393" transform="translate(104.44 218.517)" fill="#fff"/>
            <path id="Trazado_11172" data-name="Trazado 11172" d="M348.287,175.788a.553.553,0,0,1-.5-.319l-1.856-3.986h-6.16a.551.551,0,0,1,0-1.1h6.511a.554.554,0,0,1,.5.319l2.005,4.3a.552.552,0,0,1-.5.785" fill="#2c3a64"/>
            <path id="Trazado_11173" data-name="Trazado 11173" d="M344.335,171.763H339.6a.834.834,0,1,1,0-1.668h4.732a.834.834,0,0,1,0,1.668" fill="#2c3a64"/>
            <path id="Trazado_11174" data-name="Trazado 11174" d="M339.519,169.2c.154.117,2.9-.231,3.784.326s1.733,2.105,1.336,2.656-2.275-1.1-2.827-1.078a10.661,10.661,0,0,1-2.139-.462Z" fill="#f4ac75"/>
            <path id="Trazado_11175" data-name="Trazado 11175" d="M340.358,168.98a2.236,2.236,0,0,1,.282.935,1.885,1.885,0,0,1-.282,1.083,35.031,35.031,0,0,1-6.9-.25,15.976,15.976,0,0,1-5.671-1.768c-2.2-1.291-4.238-5.89-5.755-10.278-1.612-4.654-2.634-9.075-2.634-9.075a4.3,4.3,0,0,1,4.393-2.632c.912.146,3.053.85,3.537,1.487.743.976,2.84,9.884,4.487,14.1.362.925,8.539,6.4,8.539,6.4" fill="#f4daba"/>
            <path id="Trazado_11176" data-name="Trazado 11176" d="M333.461,170.748a15.942,15.942,0,0,1-5.671-1.768c-2.2-1.291-4.237-5.889-5.755-10.278-.024-3.17-.024-5.787-.024-5.787l3.6,1.491c.111.221,1.271,11.1,3.867,13.314a36.046,36.046,0,0,0,3.987,3.028" fill="#e3bf9c"/>
            <g id="Grupo_5726" data-name="Grupo 5726" opacity="0.2">
              <g id="Grupo_5725" data-name="Grupo 5725">
                <g id="Grupo_5724" data-name="Grupo 5724" clip-path="url(#clip-path-5)">
                  <rect id="Rectángulo_4379" data-name="Rectángulo 4379" width="1.729" height="36.138" transform="translate(377.92 198.133)" fill="#2c3a64"/>
                </g>
              </g>
            </g>
            <g id="Grupo_5729" data-name="Grupo 5729" opacity="0.2">
              <g id="Grupo_5728" data-name="Grupo 5728">
                <g id="Grupo_5727" data-name="Grupo 5727" clip-path="url(#clip-path-6)">
                  <path id="Trazado_11177" data-name="Trazado 11177" d="M381.853,236.953a3.068,3.068,0,1,0-3.068,3.068,3.069,3.069,0,0,0,3.068-3.068" fill="#2c3a64"/>
                  <path id="Trazado_11178" data-name="Trazado 11178" d="M377.731,236.953a1.054,1.054,0,1,1,1.054,1.054,1.054,1.054,0,0,1-1.054-1.054" fill="#ec9037"/>
                </g>
              </g>
            </g>
            <path id="Trazado_11179" data-name="Trazado 11179" d="M335.118,175.788a.552.552,0,0,1-.5-.319l-1.857-3.986H326.6a.551.551,0,0,1,0-1.1h6.51a.554.554,0,0,1,.5.319l2.005,4.3a.552.552,0,0,1-.5.785" fill="#2c3a64"/>
            <g id="Grupo_5732" data-name="Grupo 5732" opacity="0.2">
              <g id="Grupo_5731" data-name="Grupo 5731">
                <g id="Grupo_5730" data-name="Grupo 5730" clip-path="url(#clip-path-7)">
                  <path id="Trazado_11180" data-name="Trazado 11180" d="M358.839,238.551c-.128-.576,6.384-23.468,7.126-26.076l.213.06c-2,7.006-7.165,25.33-7.122,25.975Z" fill="#3953a1"/>
                  <path id="Trazado_11181" data-name="Trazado 11181" d="M349.418,221.919c.576-.128,23.468,6.384,26.076,7.127l-.06.212c-7.006-1.995-25.33-7.165-25.975-7.122Z" fill="#3953a1"/>
                  <path id="Trazado_11182" data-name="Trazado 11182" d="M351.815,217.176c.581.1,19.193,14.938,21.313,16.628l-.137.173c-5.7-4.542-20.61-16.376-21.221-16.585Z" fill="#3953a1"/>
                  <path id="Trazado_11183" data-name="Trazado 11183" d="M376.026,223.8c-.554-.207-24.126,3.077-26.812,3.452l.031.218c7.215-1.007,26.078-3.593,26.71-3.461Z" fill="#3953a1"/>
                  <path id="Trazado_11184" data-name="Trazado 11184" d="M357.342,213.142c.452.38,9.207,22.511,10.2,25.033l-.2.081c-2.678-6.775-9.72-24.464-10.145-24.949Z" fill="#3953a1"/>
                  <path id="Trazado_11185" data-name="Trazado 11185" d="M373.116,217.462c-.582.1-19.39,14.681-21.532,16.343l.135.175c5.755-4.466,20.826-16.1,21.44-16.3Z" fill="#3953a1"/>
                  <path id="Trazado_11186" data-name="Trazado 11186" d="M360.395,225.858a1.84,1.84,0,1,1,1.839,1.839,1.839,1.839,0,0,1-1.839-1.839" fill="#ec9037"/>
                  <path id="Trazado_11187" data-name="Trazado 11187" d="M347.779,225.566a14.456,14.456,0,1,1,14.455,14.455,14.472,14.472,0,0,1-14.455-14.455m1.545,0a12.91,12.91,0,1,0,12.91-12.911,12.925,12.925,0,0,0-12.91,12.911" fill="#2c3a64"/>
                </g>
              </g>
            </g>
            <path id="Trazado_11188" data-name="Trazado 11188" d="M331.167,171.763h-4.733a.834.834,0,0,1,0-1.668h4.733a.834.834,0,0,1,0,1.668" fill="#2c3a64"/>
            <path id="Trazado_11189" data-name="Trazado 11189" d="M372.949,194.795s2.677.276,3.007.644a13.059,13.059,0,0,1,1.582,2.752c.037.375.009,1.064-.267.954s-1.432-1.95-2.018-1.977a13.809,13.809,0,0,1-2.461-.811Z" fill="#e19157"/>
            <path id="Trazado_11190" data-name="Trazado 11190" d="M370.146,209.093l-24.9.256-11.2-35.017,23.033-.257Z" fill="#35488b"/>
            <path id="Trazado_11191" data-name="Trazado 11191" d="M362.107,175.859s.494,12.875,1.693,14.155c.776.828,9.149,4.781,9.149,4.781l-.084,1.578s-10.892-1.541-12.5-3.484c-3.169-3.835-3.379-14.289-3.532-15.4s3.03-3.34,5.271-1.631" fill="#e19157"/>
            <path id="Trazado_11192" data-name="Trazado 11192" d="M386.621,230.33h-8.334a3.461,3.461,0,0,1,.235-2.233,1.606,1.606,0,0,0-.059-1.918,3.223,3.223,0,0,0,1.4.263,2.925,2.925,0,0,0,1.239-.435,30.191,30.191,0,0,0,2.375,2.494c.544.392,2.973.252,3.141,1.829" fill="#263872"/>
            <path id="Trazado_11193" data-name="Trazado 11193" d="M348.2,199.852a6.886,6.886,0,0,0,6.9,5.7c4.2-.051,10.326-.135,12.573-.219,4.761-.179,6.551.012,6.536.147-.214,2-.39,1.147,1.83.991,0,0,7.846-.222,5.5-5.59s-24.64-7.041-26.609-6.807c-1.675.2-7.584.6-6.725,5.778" fill="#dd843e"/>
            <path id="Trazado_11194" data-name="Trazado 11194" d="M381.956,202.988c-.1,3.795-.688,14.31.79,22.756.374,2.142-2.7,2.208-2.722,2.211-.584.068-1.607.12-1.949-.3-2.37-2.942-5.717-16.6-4.807-22.266.444-2.764,3.2-2.714,5.425-3.734,1.37-.628,3.3-.17,3.263,1.337" fill="#dd843e"/>
            <rect id="Rectángulo_4383" data-name="Rectángulo 4383" width="1.729" height="28.841" transform="translate(340.888 197.327)" fill="#2c3a64"/>
            <path id="Trazado_11195" data-name="Trazado 11195" d="M354.126,152.838a7.673,7.673,0,0,1,6.986,1.566,20.46,20.46,0,0,1,2.669,2.72c2.176,2.7-1.521,5.7-.953,6.626s1.8,1.609,1.394,3.628-3.688,4.8-4.8,4.978c-11.266,1.815-16.544-4.15-12.949-7.736s1.768-8.383,4.735-10.458a9.451,9.451,0,0,1,2.917-1.324" fill="#2c3a64"/>
            <path id="Trazado_11196" data-name="Trazado 11196" d="M362.482,174.931a10.268,10.268,0,0,1-3.5,1.733c-5.458,1.6-7.846-2.957-8.827-6.119a4.789,4.789,0,0,1,1.841-.684c.4-.07.816-.125,1.163-.161.594-.512,1.407-2.512,1.438-5.547l.264.054,4.428.943s-.12,1.4-.143,2.713a5.2,5.2,0,0,0,.235,2.238c.3.086.579.179.579.179.066.1.069.053.047.02a27.3,27.3,0,0,1,2.475,4.631" fill="#f4ac75"/>
            <path id="Trazado_11197" data-name="Trazado 11197" d="M359.289,165.151s-.12,1.4-.143,2.712c-2.483-.106-3.764-2.391-4.285-3.654Z" fill="#e19157"/>
            <path id="Trazado_11198" data-name="Trazado 11198" d="M360.1,166.409s-5.88.014-5.832-3.648-.68-6.127,3.077-6.29,4.468,1.243,4.749,2.469-.464,7.371-1.994,7.469" fill="#f4ac75"/>
            <path id="Trazado_11199" data-name="Trazado 11199" d="M361.949,156.9c-.893-1.114-1.583-.882-1.973-.557a4.111,4.111,0,0,0-5.3.771,6.993,6.993,0,0,1-2.346,4.1s1.087.771,3.542.078a6.233,6.233,0,0,0,4.2-4.143,3.738,3.738,0,0,1,1.173,1.257,5.782,5.782,0,0,1,.813,2.841s1.229-2.675-.111-4.347" fill="#2c3a64"/>
            <rect id="Rectángulo_4384" data-name="Rectángulo 4384" width="20.9" height="1.694" transform="translate(368.408 230.201)" fill="#2c3a64"/>
            <path id="Trazado_11200" data-name="Trazado 11200" d="M345.635,199.852a6.885,6.885,0,0,0,6.9,5.7c4.2-.051,10.326-.135,12.573-.219,4.761-.179,6.551.012,6.536.147-.214,2-.39,1.147,1.829.991,0,0,7.847-.222,5.5-5.59s-24.639-7.041-26.609-6.807c-1.675.2-7.584.6-6.725,5.778" fill="#f39e57"/>
            <path id="Trazado_11201" data-name="Trazado 11201" d="M345.61,188.708c.4-2.733-.572-13.079,1.589-16.313a7.274,7.274,0,0,1,6.406-3.305c.861.488,4.142,2.332,5.427,2.005l.072-.022c.6-.188.81-.632.277-.972a7.166,7.166,0,0,1,2.874,1.246c.654.742.624,2.336.832,4.214.051.464.059.933.116,1.4.259,2.112-.423,2.341-2.75,8.436a8.539,8.539,0,0,0,.154,6.943,3.1,3.1,0,0,1-1.127,3.969c-4.6,2.908-13.529,7.968-13.845,3.547-.319-4.49-.577-7.37-.025-11.145" fill="#f4daba"/>
            <path id="Trazado_11202" data-name="Trazado 11202" d="M353.408,175.461s2.208,14.982,3.679,16.251c.95.82,10.4,2.341,10.4,2.341l.154,1.457s-13.48.99-14.252-.135c-3.113-4.543-5.291-16.294-5.59-17.5s2.94-4.033,5.609-2.416" fill="#f4ac75"/>
            <path id="Trazado_11203" data-name="Trazado 11203" d="M384.06,230.218h-8.334a3.461,3.461,0,0,1,.235-2.233,1.607,1.607,0,0,0-.059-1.919,3.208,3.208,0,0,0,1.4.264,2.925,2.925,0,0,0,1.239-.435,30.351,30.351,0,0,0,2.375,2.494c.545.392,2.973.252,3.141,1.829" fill="#35488b"/>
            <path id="Trazado_11204" data-name="Trazado 11204" d="M379.395,202.988c-.1,3.795-.688,14.31.79,22.756.375,2.142-2.7,2.208-2.722,2.211-.584.068-1.608.12-1.949-.3-2.37-2.942-5.717-16.6-4.807-22.266.444-2.764,3.2-2.714,5.425-3.734,1.37-.628,3.3-.17,3.263,1.337" fill="#f39e57"/>
            <path id="Trazado_11205" data-name="Trazado 11205" d="M361.078,164.249a5.432,5.432,0,0,0-2.119.028s.118.6,1.271.6a.919.919,0,0,0,.848-.626" fill="#fff"/>
            <path id="Trazado_11206" data-name="Trazado 11206" d="M355.5,179.953s-3.995,3.464-8.641,2.28c0,0-1.673-11.178,4.142-11.333,0,0,4.818,1.91,4.5,9.053" fill="#f4daba"/>
            <rect id="Rectángulo_4385" data-name="Rectángulo 4385" width="27.937" height="2.199" transform="translate(342.617 207.064)" fill="#2c3a64"/>
            <rect id="Rectángulo_4386" data-name="Rectángulo 4386" width="2.307" height="27.341" transform="matrix(0.866, -0.5, 0.5, 0.866, 354.735, 208.218)" fill="#2c3a64"/>
            <path id="Trazado_11207" data-name="Trazado 11207" d="M342.618,207.063c.51,0,2.449-1.828,5.493-1.729s20.028-.005,20.028-.005,2.216-.233,2.423,1.734Z" fill="#3953a1"/>
            <rect id="Rectángulo_4387" data-name="Rectángulo 4387" width="1.729" height="36.138" transform="translate(368.138 198.133)" fill="#2c3a64"/>
            <path id="Trazado_11208" data-name="Trazado 11208" d="M367.487,194.053s2.988.172,3.319.54a13.064,13.064,0,0,1,1.582,2.753c.036.374.009,1.063-.267.953s-1.42-2.1-2.007-2.124a16.874,16.874,0,0,1-2.473-.665Z" fill="#f4ac75"/>
            <path id="Trazado_11209" data-name="Trazado 11209" d="M339.8,199.156h32.59a3.622,3.622,0,0,0-3.622-3.622h-26.81a2.158,2.158,0,0,0-2.158,2.158Z" fill="#2c3a64"/>
            <path id="Trazado_11210" data-name="Trazado 11210" d="M338.358,238.551c-.128-.576,6.384-23.468,7.127-26.076l.212.06c-1.995,7.006-7.165,25.33-7.122,25.975Z" fill="#3953a1"/>
            <path id="Trazado_11211" data-name="Trazado 11211" d="M328.937,221.919c.576-.128,23.468,6.384,26.076,7.127l-.059.212c-7.007-1.995-25.331-7.165-25.975-7.122Z" fill="#3953a1"/>
            <path id="Trazado_11212" data-name="Trazado 11212" d="M331.335,217.176c.58.1,19.191,14.938,21.312,16.628l-.137.173c-5.7-4.542-20.611-16.376-21.222-16.585Z" fill="#3953a1"/>
            <path id="Trazado_11213" data-name="Trazado 11213" d="M355.544,223.8c-.553-.207-24.125,3.077-26.812,3.452l.031.218c7.215-1.007,26.078-3.593,26.71-3.461Z" fill="#3953a1"/>
            <path id="Trazado_11214" data-name="Trazado 11214" d="M336.861,213.142c.452.38,9.207,22.511,10.2,25.033l-.205.081c-2.678-6.775-9.72-24.464-10.145-24.949Z" fill="#3953a1"/>
            <path id="Trazado_11215" data-name="Trazado 11215" d="M352.635,217.462c-.583.1-19.391,14.681-21.533,16.343l.136.175c5.754-4.466,20.826-16.1,21.439-16.3Z" fill="#3953a1"/>
            <path id="Trazado_11216" data-name="Trazado 11216" d="M339.914,225.858a1.839,1.839,0,1,1,1.84,1.839,1.839,1.839,0,0,1-1.84-1.839" fill="#ec9037"/>
            <path id="Trazado_11217" data-name="Trazado 11217" d="M327.3,225.566a14.456,14.456,0,1,1,14.456,14.455A14.472,14.472,0,0,1,327.3,225.566m1.545,0a12.91,12.91,0,1,0,12.911-12.911,12.926,12.926,0,0,0-12.911,12.911" fill="#2c3a64"/>
            <path id="Trazado_11218" data-name="Trazado 11218" d="M372.071,236.953A3.069,3.069,0,1,0,369,240.021a3.069,3.069,0,0,0,3.068-3.068" fill="#2c3a64"/>
            <path id="Trazado_11219" data-name="Trazado 11219" d="M367.949,236.953A1.053,1.053,0,1,1,369,238.007a1.054,1.054,0,0,1-1.054-1.054" fill="#ec9037"/>
            <path id="Trazado_11220" data-name="Trazado 11220" d="M310.716,151.616c-.413-.8,9.025-3.671,9.175,4.2,0,0,17.68-.434,9.238-10.29-2.923-3.411-2.622-6.232-2.534-8.858s-1.82-10.258-8.365-9.49a4.874,4.874,0,0,0-3.853.413c-4.864,2.523-15.76,26.925-3.661,24.022" fill="#233862"/>
            <path id="Trazado_11221" data-name="Trazado 11221" d="M298.754,231.073s-1.981,1.808-1.6,3.093,2.175,2.141,2.416,3.711,1.208,2.426,2.078,2.426H305.8s.641-1.1-.906-1.437-2.129-2.179-2.033-3.892a30.1,30.1,0,0,0-.145-4l-3.285-.761Z" fill="#2c3a64"/>
            <path id="Trazado_11222" data-name="Trazado 11222" d="M315.523,231.841s-.711,7.753.159,8.181h11.229a2,2,0,0,0-1.887-1.686c-1.788-.286-4.929-1.332-5.46-3.664s-4.041-2.831-4.041-2.831" fill="#2c3a64"/>
            <path id="Trazado_11223" data-name="Trazado 11223" d="M307.591,176.888c2.29-5.136,3.691-6.611,3.424-8.205-.2-1.188.606-22.127.606-22.127.273-.084.818-.16,1.116-.226a2.8,2.8,0,0,0,2.041-1.775,14.269,14.269,0,0,0,.692-4.725l.293.058,4.934.979s-.112,1.551-.116,3.014v.036a2.834,2.834,0,0,0,2.048,2.743c.623.181,1.165.334,1.165.334a45.186,45.186,0,0,1,2.158,10.487c.346,5.314-3.294,7.623.028,18.24,3.391,10.845-19.655,4.006-18.389,1.167" fill="#f4ac75"/>
            <path id="Trazado_11224" data-name="Trazado 11224" d="M320.7,140.866s-.112,1.553-.116,3.015c-2.761-.077-4.22-2.6-4.819-3.993Z" fill="#dc8e53"/>
            <path id="Trazado_11225" data-name="Trazado 11225" d="M321.62,142.251s-6.532.107-6.537-3.961-.851-6.8,3.32-7.037,4.983,1.311,5.315,2.669-.4,8.2-2.1,8.329" fill="#f4ac75"/>
            <path id="Trazado_11226" data-name="Trazado 11226" d="M321.378,131.153s-1.789,4.774-4.534,5.48-3.936-.03-3.936-.03a7.77,7.77,0,0,0,2.543-4.592s4.577-3.129,5.927-.858" fill="#233862"/>
            <path id="Trazado_11227" data-name="Trazado 11227" d="M320.934,131.541A4.055,4.055,0,0,1,322.806,133a6.58,6.58,0,0,1,.883,3.735s1.348-3.244-.166-5.079c-1.607-1.946-2.589-.119-2.589-.119" fill="#233862"/>
            <path id="Trazado_11228" data-name="Trazado 11228" d="M320.2,139.726a1.644,1.644,0,0,0,1.353.551,1.2,1.2,0,0,0,1.006-.665,4.387,4.387,0,0,0-2.359.114" fill="#ebf2f9"/>
            <path id="Trazado_11229" data-name="Trazado 11229" d="M325.025,167.73l-6.48,1.936-2.055-.5-5.845-1.432s-.756-.252-1.425-1.8a18.734,18.734,0,0,1-.594-2.235c-.264-1.171-.538-2.54-.693-3.509-.226-1.426-.68-3.2-1.076-5.112h0a34.918,34.918,0,0,1-.665-4.335,3.677,3.677,0,0,1,3.261-3.945l2.169-.24c6.884,5.617,12.174.44,12.174.44a35.678,35.678,0,0,1,3,7.858c1.185,4.638-1.767,12.877-1.767,12.877" fill="#f4daba"/>
            <path id="Trazado_11230" data-name="Trazado 11230" d="M324.613,168.98s3.209,9.989,3.415,13.391-6.135,48.315-6.39,49.881c-.24,1.478-2.074,2.419-2.074,2.419a2.779,2.779,0,0,1-2.048.159,5.079,5.079,0,0,1-2.2-1.037s-2.5-32.033-.952-43.475a181.173,181.173,0,0,0,1.564-21.338Z" fill="#dd843e"/>
            <path id="Trazado_11231" data-name="Trazado 11231" d="M311.015,168.682s-4.9,6.568-5.352,11.009-.715,20.037-1.688,24.365-4.544,12.659-4.544,26.16a2.694,2.694,0,0,0,1.518,1.187,12.278,12.278,0,0,0,1.335.368,2.1,2.1,0,0,0,2.346-1.113c2.415-4.864,10.109-20.547,10.5-23.8.279-2.3,2.708-17.552,8.007-26.5,1.272-2.149-.78-10.692-.78-10.692Z" fill="#f39e57"/>
            <path id="Trazado_11232" data-name="Trazado 11232" d="M320.343,139.836s.113.479,1.306.4c0,0,1-.062.97-.589a3.218,3.218,0,0,0-2.276.184" fill="#fff"/>
            <path id="Trazado_11233" data-name="Trazado 11233" d="M325.125,167.438a6.72,6.72,0,0,1-3.848,1.071c-3.057.061-10.632-.78-10.632-.78a6.27,6.27,0,0,0-.324,1.934s9.253,2.334,14.614.34a3.386,3.386,0,0,0,.19-2.565" fill="#2c3a64"/>
            <path id="Trazado_11234" data-name="Trazado 11234" d="M320.616,169.564a1.406,1.406,0,1,1,1.4,1.579,1.5,1.5,0,0,1-1.4-1.579m.463,0a.948.948,0,1,0,.933-1.116,1.038,1.038,0,0,0-.933,1.116" fill="#fff"/>
            <path id="Trazado_11235" data-name="Trazado 11235" d="M314.129,167.438a22.641,22.641,0,0,1-5.5-3.741c-.264-1.171-.538-2.54-.692-3.509-.227-1.426-1.015-4.951-1.41-6.864l10.408,14.993s.469.794-2.8-.879" fill="#e3bf9c"/>
            <path id="Trazado_11236" data-name="Trazado 11236" d="M317.815,157.448s4.629,7.348,5.97,8.669-5.475-1.05-5.475-1.05Z" fill="#e3bf9c"/>
            <path id="Trazado_11237" data-name="Trazado 11237" d="M328.341,169.238c.154.118,2.9-.23,3.784.326s1.733,2.105,1.336,2.657-2.274-1.106-2.827-1.078a10.662,10.662,0,0,1-2.139-.462Z" fill="#f4ac75"/>
            <path id="Trazado_11238" data-name="Trazado 11238" d="M306.523,153.324s4.881,12.995,9.406,15.656S328.5,171,328.5,171a2.581,2.581,0,0,0,.3-1.115,1.921,1.921,0,0,0-.3-.9s-8.177-5.472-8.538-6.4c-1.648-4.216-4.034-9.612-5.028-10.33s-7.29-1.635-8.407,1.072" fill="#f4daba"/>
            <path id="Trazado_11239" data-name="Trazado 11239" d="M644.192,151.367s1.26-1.528,1.937-1.743,1.989-1.23,2.16-.812-.881,1.064-.826,1.542,3.346,1.245,3.326,1.751a1.945,1.945,0,0,1-2.03,1.588c-1.254-.14-4.437-.895-5.09-.569s.523-1.757.523-1.757" fill="#f4ac75"/>
            <path id="Trazado_11240" data-name="Trazado 11240" d="M610.26,143.93a26.961,26.961,0,0,0,6.268,6.021,34.622,34.622,0,0,0,14.807,5.677c1.847-.592,7.52-1.208,10.871-1.748h0a6.466,6.466,0,0,0,2.55-.652l-.084-2.919s-12.3-.65-14.34-1.6a46.127,46.127,0,0,1-7.9-9.169,11.865,11.865,0,0,0-6.193-5.15c-4.168-1.485-11.748,1.789-5.98,9.536" fill="#f4daba"/>
            <path id="Trazado_11241" data-name="Trazado 11241" d="M615.9,148.113l.627,1.837a34.633,34.633,0,0,0,14.808,5.678c1.483,0,7.519-1.208,10.871-1.748-.133.01-9.126.713-11.114.507-2-.207-11.325-8.286-11.325-8.286Z" fill="#e3bf9c"/>
            <path id="Trazado_11242" data-name="Trazado 11242" d="M623.932,240.636h-13.6c-.973-.66.263-7.119.263-7.119s3.711-1.407,4.352,1.456,4.726,3.77,6.887,4.119a2.327,2.327,0,0,1,2.094,1.544" fill="#2c3a64"/>
            <path id="Trazado_11243" data-name="Trazado 11243" d="M603.769,240.636h-13.6c-.973-.66.263-7.119.263-7.119s3.711-1.407,4.352,1.456,4.726,3.77,6.887,4.119a2.329,2.329,0,0,1,2.095,1.544" fill="#2c3a64"/>
            <path id="Trazado_11244" data-name="Trazado 11244" d="M620.275,174.748s-.611,7.625-1.329,16.79c-.977,12.449-3.609,43.316-3.609,43.316s-1.727,1.473-5.55.667a120.838,120.838,0,0,1-4.229-22.8q-.021-.3-.045-.6c-.905-12.372-2.313-38.426-2.313-38.426Z" fill="#35488b"/>
            <path id="Trazado_11245" data-name="Trazado 11245" d="M620.483,172.114s-.819,10.259-1.537,19.424l-13.388,21.181q-.021-.3-.045-.6c-.905-12.372-2.313-38.426-2.313-38.426Z" fill="#2c3a64"/>
            <path id="Trazado_11246" data-name="Trazado 11246" d="M616.582,172.114s-9.709,24.167-12.813,33.328c-2.21,6.526-8.446,29.417-8.446,29.417a6.268,6.268,0,0,1-4.99-.769s-2.319-23.388,2.366-29.983c2.487-3.5.617-36.37,10.7-36.651s13.186,4.658,13.186,4.658" fill="#35488b"/>
            <path id="Trazado_11247" data-name="Trazado 11247" d="M612.245,136.486a6.055,6.055,0,0,1-4.183.563,8.683,8.683,0,0,1-2.834-1.2,8.454,8.454,0,0,1-1.143-.86s.051-.073.135-.216a12.234,12.234,0,0,0,1.174-7.768,3.1,3.1,0,0,1,1.069.177c1.927.456,5.8,1.555,5.97,1.6h.007s.047.909.207,2.541c.013.143.028.294.043.449.021.191.04.394.064.6a13.5,13.5,0,0,1-.509,4.1" fill="#f4ac75"/>
            <path id="Trazado_11248" data-name="Trazado 11248" d="M612.647,131.331c-2.876.659-7.168-3.587-7.168-3.587a4.586,4.586,0,0,1,.983-.558c1.927.457,5.8,1.555,5.971,1.6h.007s.047.909.207,2.541" fill="#e19054"/>
            <path id="Trazado_11249" data-name="Trazado 11249" d="M613.624,128.559a14.6,14.6,0,0,1-2.69.628c-2.205.3-5.1.122-6.015-2.546-1.534-4.49-3.493-7.183,1.021-9.016,2.416-.981,3.962-1.034,5.013-.659a3.637,3.637,0,0,1,1.858,1.609c.876,1.374,2.639,9.2.813,9.984" fill="#f4ac75"/>
            <path id="Trazado_11250" data-name="Trazado 11250" d="M616.363,118.929c-2.613,1.879-6.229.032-7.354.532s-1.324,2.381-1.344,2.979-.1,1.1-1.624.747a.744.744,0,0,0-.553.032c-.633.375.175,2.193.419,2.589,0,0,.351,1.3-.428,1.935-.094.078-1.624.746-5.309-4.894a5.244,5.244,0,0,1-.238-4.8c.894-1.92,4.629-3.777,7.8-4.76a4.245,4.245,0,0,1,2.756-.1,4.987,4.987,0,0,1,2.368,2.6,9.94,9.94,0,0,0,3.511,3.148" fill="#9d3f3a"/>
            <path id="Trazado_11251" data-name="Trazado 11251" d="M621.794,168.044c-.211,2.77-.8,4.754-2.078,4.754a43.113,43.113,0,0,1-12.523,2.061,31.519,31.519,0,0,1-4.784-.512c-1.6-.271-2.865-.543-2.865-.543-1.37-.317-2.883-1.164-2.679-2.727.114-.885.2-2.037.248-3.377.151-3.62.125-8.608.145-13.384.013-2.933.041-5.784.139-8.189,0,0-1.345-9.447.15-11,1.75-1.814,6.891-2.37,7.211-2.3.1-.02.193-.044.294-.061,0,0,4.47,2.439,7.721.612,0,0,4.745,1.082,6.11,2.525a12.685,12.685,0,0,1,2.4,6.9c.073,4.67-.11,9.974-.11,9.975.05.759.131,1.736.219,2.852.095,1.189.2,2.533.29,3.934.044.706.086,1.426.119,2.147a54.908,54.908,0,0,1-.008,6.335" fill="#f4daba"/>
            <path id="Trazado_11252" data-name="Trazado 11252" d="M604.781,132.834s4.844,5,8.308,3.973c0,0,.461-.675-1.1-.891s-3.243-.128-7.209-3.082" fill="#e3bf9c"/>
            <path id="Trazado_11253" data-name="Trazado 11253" d="M613.659,125.661s.094.581-1.258,1.045c0,0-1.135.39-1.342-.206a3.853,3.853,0,0,1,2.6-.839" fill="#fff"/>
            <path id="Trazado_11254" data-name="Trazado 11254" d="M601.709,150.394s.01,13.513-4.6,17.306c.151-3.62.125-8.609.145-13.384Z" fill="#e3bf9c"/>
            <path id="Trazado_11255" data-name="Trazado 11255" d="M587.55,175.689s-2.345,3.682-2.477,5.091c-.088.959.126,4.735.6,4.749.675.018,1.35-2.331,1.611-2.942s.566-1.088.827-1.088-.566,2.352,0,2.09,1.525-2.437,1.612-2.961-.511-2.2-.219-2.856-1.959-2.083-1.959-2.083" fill="#f4ac75"/>
            <path id="Trazado_11256" data-name="Trazado 11256" d="M597.994,134.618s-3.169,1.5-5.826,12.578c-2,8.355-5.836,29.687-5.836,29.687l3.242,1.334s11.875-27.265,13.574-31.1-5.154-12.5-5.154-12.5" fill="#f4daba"/>
            <path id="Trazado_11257" data-name="Trazado 11257" d="M656.331,150.394s3.135,15.326,4.328,17.831,5.964,11.52,5.964,11.52l-1.359.226s-8.633-8.165-8.933-9.122-5.931-12.891-5.931-12.891Z" fill="#f4ac75"/>
            <path id="Trazado_11258" data-name="Trazado 11258" d="M650.286,127s-6.078-7.3-9.3-2.63c0,0-2.4,1-3.269,5.082-.886,4.17,1.886,7.339,3.32,6.556.919-.5,1.615,1.106,1.615,1.106Z" fill="#2c3a64"/>
            <path id="Trazado_11259" data-name="Trazado 11259" d="M641.653,123.631s-.817-3.269-5.618-2.247c0,0,2.3-.289,2.929.6,0,0-1.823-.834-2.963-.136s-1.328,3.047-1.159,3.763,1.431,2.843,2.265,2.843a3.842,3.842,0,0,0,1.822-.732Z" fill="#2c3a64"/>
            <path id="Trazado_11260" data-name="Trazado 11260" d="M634.468,174.8c2.388-5.354,3.529-6.868,3.569-8.553.033-1.332-.625-2.769-1.9-6.294a13.088,13.088,0,0,1-.635-2.548c-1.01-6.794,2.92-14.139,5.363-14.64.678-.18,1.831-2.634,1.816-6.588l.307.06,5.141,1.018s-.117,1.618-.12,3.143c0,1.27.073,2.475.361,2.627.37.033.588.055.588.055s4.288,5.954,4.649,11.492-3.434,7.945.028,19.011c3.535,11.3-20.484,4.176-19.166,1.217" fill="#f4ac75"/>
            <path id="Trazado_11261" data-name="Trazado 11261" d="M648.128,137.251s-.117,1.618-.12,3.143c-2.878-.081-4.4-2.706-5.022-4.162Z" fill="#dc8e53"/>
            <path id="Trazado_11262" data-name="Trazado 11262" d="M642.456,135.673a15.128,15.128,0,0,1-1.87-4.42c-.259-1.455.482-6.846,5.9-6.07a7.354,7.354,0,0,1,3.053,1.155c1.177.794,2.874,2.509.976,7.214l-.494,1.59Z" fill="#2c3a64"/>
            <path id="Trazado_11263" data-name="Trazado 11263" d="M649.089,138.694s-6.809.112-6.812-4.128-.887-7.083,3.459-7.334,5.194,1.366,5.54,2.781-.416,8.542-2.187,8.681" fill="#f4ac75"/>
            <path id="Trazado_11264" data-name="Trazado 11264" d="M648.838,127.129s-1.864,4.976-4.726,5.711-4.1-.031-4.1-.031a8.1,8.1,0,0,0,2.65-4.786s4.771-3.262,6.177-.894" fill="#2c3a64"/>
            <path id="Trazado_11265" data-name="Trazado 11265" d="M648.375,127.532a6,6,0,0,1,1.731,2.191c.34,1.08.493,3.3,1.141,3.228,0,0,1.4-3.382-.174-5.3-1.674-2.028-2.7-.124-2.7-.124" fill="#2c3a64"/>
            <path id="Trazado_11266" data-name="Trazado 11266" d="M640.5,226.175a67.321,67.321,0,0,0,4.291,12.037l2.245-.155A63.539,63.539,0,0,1,646,225.741a51.551,51.551,0,0,1,2.611-16.378c6.718-19.185,5.632-33.149,5.632-33.149l-12.633,1.479-.588.068c-.053,5.8-.2,13.68-.334,19.839-.116,5.54-.217,9.689-.217,9.689-2.429,5.231-1.547,12.615.03,18.886" fill="#233862"/>
            <path id="Trazado_11267" data-name="Trazado 11267" d="M625.614,180.483l2.044.613s6.742-11.187,7.355-14.1c.2-.949.691-2.845,1.263-4.969,1.184-4.4,2.712-9.784,2.712-9.784l.5-2.18,1.716-7.433a23.223,23.223,0,0,0-5.208,1.14,2.391,2.391,0,0,0-1.292.954c-1.412,3.106-2.822,10.942-3.813,16.531-.552,3.116-.973,5.535-1.193,6.047-.613,1.429-2.486,9.3-4.087,13.178" fill="#f4ac75"/>
            <path id="Trazado_11268" data-name="Trazado 11268" d="M630.539,218.982c-.617,4.147-2.155,15.613-1.557,17.53l2.452-.413s4.5-10.358,5.526-13.2c2.1-5.847,4.541-9.4,5.37-12.147,2.593-8.58,5.814-36.563,5.814-36.563l-12.807-.636c-1.288,2.166-1.85,5.718-1.984,9.756a152.931,152.931,0,0,0,1.38,23.9c-1.045,1.72-3.036,3.976-4.194,11.77" fill="#2b478b"/>
            <path id="Trazado_11269" data-name="Trazado 11269" d="M648.634,127.7s-1.328,5.21-4.937,6.878c0,0,3.609-3.2,3.916-6.64s1.021-.238,1.021-.238" fill="#2c3a64"/>
            <path id="Trazado_11270" data-name="Trazado 11270" d="M632.863,178.662a3.051,3.051,0,0,0,.079,1.023c.274.858,1.209,1.248,3.472,1.014,1.383-.143,2-2.461,2.274-4.438.831,2.829,1.993,4.417,3.5,4.75,2.194.488,13.259,1.834,13.983-3.427.8-5.785-1.588-16.029-1.719-21.553a27.427,27.427,0,0,0,.4-5.118c-.091-3.935-1.247-6.14-2.134-7.027a3.025,3.025,0,0,0-1.513-.488c-.516-.088-1.231-.189-2.244-.322a3.846,3.846,0,0,0-.4-.032c.187.335,2.694,4.13,2.5,5.1-.205,1.022-9.092.1-9.706-.459s-1.583-4.865-1.583-4.865-3.147.344-4.686,1.464l.016.019a1.309,1.309,0,0,0-.405.426c-1.642,3.128-3.283,11.021-4.436,16.65a8.2,8.2,0,0,0,6,.879c-.991,6.484-3.239,13.445-3.386,16.4" fill="#ec9037"/>
            <path id="Trazado_11271" data-name="Trazado 11271" d="M643.495,240.1h1.434c.48-.076.835-.215,1.327-.279a1.328,1.328,0,0,1,1.16.279l.014.014h6.088c.154-.219.006-.725-.137-1.1a.868.868,0,0,0-.571-.521,6.575,6.575,0,0,1-3.084-1.409c-.656-.592-3.167-2.179-3.167-2.179l-.013,0c-.055,0-.318.082-1.46,1.046-.59.5-1.6-.7-1.6-.7a1.461,1.461,0,0,0-.33.448,1.515,1.515,0,0,0-.131.934,6.054,6.054,0,0,1-.435,2.258c-.143.418-.262.714-.262.714s-.068.345,1.164.5" fill="#2c3a64"/>
            <path id="Trazado_11272" data-name="Trazado 11272" d="M643.159,235.689a4.539,4.539,0,0,0,1.544.778c.646.085,1.856-1.566,1.856-1.566l-.013,0c-.055,0-.318.082-1.46,1.046-.59.5-1.6-.7-1.6-.7a1.448,1.448,0,0,0-.33.447" fill="#4e6aa5"/>
            <path id="Trazado_11273" data-name="Trazado 11273" d="M643.495,240.1h1.434c.48-.076.835-.215,1.327-.279a1.328,1.328,0,0,1,1.16.279l.014.014h6.088c.154-.219.006-.725-.137-1.1-.186-.165-.238.714-.339.854a27.108,27.108,0,0,1-5.249-.154,2.938,2.938,0,0,0-2.3-.28,5.544,5.544,0,0,1-2.9-.549c-.143.418-.262.714-.262.714s-.068.345,1.164.5" fill="#4e6aa5"/>
            <path id="Trazado_11274" data-name="Trazado 11274" d="M628.788,240.1h1.434c.479-.076.834-.215,1.326-.279a1.331,1.331,0,0,1,1.161.279l.014.014h6.087c.154-.219.007-.725-.137-1.1a.866.866,0,0,0-.571-.521,6.575,6.575,0,0,1-3.084-1.409c-.655-.592-3.167-2.179-3.167-2.179l-.012,0c-.056,0-.319.082-1.46,1.046-.591.5-1.6-.7-1.6-.7a1.443,1.443,0,0,0-.33.448,1.515,1.515,0,0,0-.131.934,6.055,6.055,0,0,1-.436,2.258c-.142.418-.262.714-.262.714s-.068.345,1.165.5" fill="#2c3a64"/>
            <path id="Trazado_11275" data-name="Trazado 11275" d="M628.452,235.689a4.533,4.533,0,0,0,1.543.778c.647.085,1.856-1.566,1.856-1.566l-.012,0c-.056,0-.319.082-1.46,1.046-.591.5-1.6-.7-1.6-.7a1.43,1.43,0,0,0-.33.447" fill="#4e6aa5"/>
            <path id="Trazado_11276" data-name="Trazado 11276" d="M628.788,240.1h1.434c.479-.076.834-.215,1.326-.279a1.331,1.331,0,0,1,1.161.279l.014.014h6.087c.154-.219.007-.725-.137-1.1-.185-.165-.237.714-.339.854a27.1,27.1,0,0,1-5.248-.154,2.941,2.941,0,0,0-2.3-.28,5.544,5.544,0,0,1-2.9-.549c-.142.418-.262.714-.262.714s-.068.345,1.165.5" fill="#4e6aa5"/>
            <path id="Trazado_11277" data-name="Trazado 11277" d="M652.584,143.793s4,2.049,5.411,10.672a7.338,7.338,0,0,1-3.349,2.469,4.006,4.006,0,0,1-.873.149c-2.405.128-1.189-13.29-1.189-13.29" fill="#ec9037"/>
            <path id="Trazado_11278" data-name="Trazado 11278" d="M647.759,136.178s.118.5,1.361.422c0,0,1.044-.065,1.012-.613a3.357,3.357,0,0,0-2.373.191" fill="#fff"/>
            <path id="Trazado_11279" data-name="Trazado 11279" d="M665.522,178.163s2.41,1.184,2.836,2.026a3.228,3.228,0,0,1-.748,2.65c-.509.23-.506-1.348-.948-1.507s-1.75-.858-1.915-1.36a1.284,1.284,0,0,1,.775-1.809" fill="#f4ac75"/>
            <rect id="Rectángulo_4388" data-name="Rectángulo 4388" width="0.715" height="59.863" transform="translate(666.369 181.173) rotate(-11.53)" fill="#233862"/>
            <path id="Trazado_11280" data-name="Trazado 11280" d="M668.07,187.019l-.25.051a.627.627,0,0,1-.741-.488l-1.085-5.274a.628.628,0,0,1,.489-.742l.249-.052a.63.63,0,0,1,.742.489l1.084,5.274a.627.627,0,0,1-.488.742" fill="#233862"/>
            <path id="Trazado_11281" data-name="Trazado 11281" d="M664.822,180.115s1.1,1.485,1.2,1.624.245-.258.173-.529-.444-1.338-.444-1.338Z" fill="#f4ac75"/>
            <path id="Trazado_11282" data-name="Trazado 11282" d="M625.978,179.546s-2.96,1.82-3.389,2.607-1.43,3.683-1.43,3.683.715.107,1.43-1.144,3.075-1.144,3.862-1.824a10.647,10.647,0,0,0,1.7-2.67Z" fill="#f4ac75"/>
            <path id="Trazado_11283" data-name="Trazado 11283" d="M627.847,180.814a9.335,9.335,0,0,1-1.039,2.841c-.572.643-1.359,1.716-1.681,1.43s.358-2.682.358-2.682Z" fill="#f4ac75"/>
            <path id="Trazado_11284" data-name="Trazado 11284" d="M622.982,182.4c-.071.107-2.538,2.729-2.538,2.729s.893.406,1.143,0,1.4-2.729,1.4-2.729" fill="#f4ac75"/>
            <path id="Trazado_11285" data-name="Trazado 11285" d="M647.6,133.51h-1.41a.589.589,0,0,1-.589-.589v-.628a.3.3,0,0,1,.295-.3h2.092a.194.194,0,0,1,.194.194v.738a.582.582,0,0,1-.582.581" fill="#233862"/>
            <path id="Trazado_11286" data-name="Trazado 11286" d="M650.079,133.51h1.41a.589.589,0,0,0,.589-.589v-.629a.3.3,0,0,0-.3-.3H649.69a.193.193,0,0,0-.193.194v.738a.582.582,0,0,0,.582.581" fill="#233862"/>
            <path id="Trazado_11287" data-name="Trazado 11287" d="M649.767,132.65a2.208,2.208,0,0,0-1.636,0l-.059-.132a2.318,2.318,0,0,1,1.754,0Z" fill="#233862"/>
            <rect id="Rectángulo_4389" data-name="Rectángulo 4389" width="75.603" height="53.51" transform="translate(433.321 76.599)" fill="#dfeafd"/>
            <rect id="Rectángulo_4390" data-name="Rectángulo 4390" width="21.105" height="18.873" transform="translate(439.192 80.802)" fill="#bcd2f5"/>
            <rect id="Rectángulo_4391" data-name="Rectángulo 4391" width="20.488" height="11.819" transform="translate(480.563 112.327)" fill="#bcd2f5"/>
            <rect id="Rectángulo_4392" data-name="Rectángulo 4392" width="17.895" height="0.953" transform="translate(463.799 81.518)" fill="#bcd2f5"/>
            <rect id="Rectángulo_4393" data-name="Rectángulo 4393" width="7.884" height="0.953" transform="translate(482.812 81.518)" fill="#bcd2f5"/>
            <rect id="Rectángulo_4394" data-name="Rectángulo 4394" width="7.883" height="0.953" transform="translate(491.81 81.518)" fill="#bcd2f5"/>
            <rect id="Rectángulo_4395" data-name="Rectángulo 4395" width="17.895" height="0.953" transform="translate(463.799 84.379)" fill="#bcd2f5"/>
            <rect id="Rectángulo_4396" data-name="Rectángulo 4396" width="7.884" height="0.953" transform="translate(482.812 84.379)" fill="#bcd2f5"/>
            <rect id="Rectángulo_4397" data-name="Rectángulo 4397" width="7.883" height="0.953" transform="translate(491.81 84.379)" fill="#bcd2f5"/>
            <rect id="Rectángulo_4398" data-name="Rectángulo 4398" width="17.895" height="0.954" transform="translate(463.799 87.239)" fill="#bcd2f5"/>
            <rect id="Rectángulo_4399" data-name="Rectángulo 4399" width="7.884" height="0.954" transform="translate(482.812 87.239)" fill="#bcd2f5"/>
            <rect id="Rectángulo_4400" data-name="Rectángulo 4400" width="7.883" height="0.954" transform="translate(491.81 87.239)" fill="#bcd2f5"/>
            <rect id="Rectángulo_4401" data-name="Rectángulo 4401" width="17.895" height="0.953" transform="translate(463.799 93.095)" fill="#bcd2f5"/>
            <rect id="Rectángulo_4402" data-name="Rectángulo 4402" width="7.884" height="0.953" transform="translate(482.812 93.095)" fill="#bcd2f5"/>
            <rect id="Rectángulo_4403" data-name="Rectángulo 4403" width="7.883" height="0.953" transform="translate(491.81 93.095)" fill="#bcd2f5"/>
            <rect id="Rectángulo_4404" data-name="Rectángulo 4404" width="17.895" height="0.954" transform="translate(463.799 95.955)" fill="#bcd2f5"/>
            <rect id="Rectángulo_4405" data-name="Rectángulo 4405" width="7.884" height="0.954" transform="translate(482.812 95.955)" fill="#bcd2f5"/>
            <rect id="Rectángulo_4406" data-name="Rectángulo 4406" width="7.883" height="0.954" transform="translate(491.81 95.955)" fill="#bcd2f5"/>
            <rect id="Rectángulo_4407" data-name="Rectángulo 4407" width="17.895" height="0.954" transform="translate(463.799 98.816)" fill="#bcd2f5"/>
            <rect id="Rectángulo_4408" data-name="Rectángulo 4408" width="7.884" height="0.954" transform="translate(482.812 98.816)" fill="#bcd2f5"/>
            <rect id="Rectángulo_4409" data-name="Rectángulo 4409" width="7.883" height="0.954" transform="translate(491.81 98.816)" fill="#bcd2f5"/>
            <rect id="Rectángulo_4410" data-name="Rectángulo 4410" width="10.749" height="0.953" transform="translate(439.192 112.515)" fill="#bcd2f5"/>
            <rect id="Rectángulo_4411" data-name="Rectángulo 4411" width="7.979" height="0.953" transform="translate(467.541 112.515)" fill="#bcd2f5"/>
            <rect id="Rectángulo_4412" data-name="Rectángulo 4412" width="7.979" height="0.953" transform="translate(451.248 112.515)" fill="#bcd2f5"/>
            <rect id="Rectángulo_4413" data-name="Rectángulo 4413" width="6.005" height="0.953" transform="translate(460.297 112.515)" fill="#bcd2f5"/>
            <rect id="Rectángulo_4414" data-name="Rectángulo 4414" width="18.111" height="0.953" transform="translate(439.192 115.376)" fill="#bcd2f5"/>
            <rect id="Rectángulo_4415" data-name="Rectángulo 4415" width="7.979" height="0.953" transform="translate(458.436 115.376)" fill="#bcd2f5"/>
            <rect id="Rectángulo_4416" data-name="Rectángulo 4416" width="7.979" height="0.953" transform="translate(467.541 115.376)" fill="#bcd2f5"/>
            <rect id="Rectángulo_4417" data-name="Rectángulo 4417" width="10.749" height="0.953" transform="translate(439.192 104.672)" fill="#bcd2f5"/>
            <rect id="Rectángulo_4418" data-name="Rectángulo 4418" width="7.979" height="0.953" transform="translate(467.541 104.672)" fill="#bcd2f5"/>
            <rect id="Rectángulo_4419" data-name="Rectángulo 4419" width="25.298" height="0.953" transform="translate(476.517 104.672)" fill="#bcd2f5"/>
            <rect id="Rectángulo_4420" data-name="Rectángulo 4420" width="7.979" height="0.953" transform="translate(451.248 104.672)" fill="#bcd2f5"/>
            <rect id="Rectángulo_4421" data-name="Rectángulo 4421" width="6.005" height="0.953" transform="translate(460.297 104.672)" fill="#bcd2f5"/>
            <rect id="Rectángulo_4422" data-name="Rectángulo 4422" width="18.111" height="0.954" transform="translate(439.192 107.532)" fill="#bcd2f5"/>
            <rect id="Rectángulo_4423" data-name="Rectángulo 4423" width="15.731" height="0.954" transform="translate(458.436 107.532)" fill="#bcd2f5"/>
            <rect id="Rectángulo_4424" data-name="Rectángulo 4424" width="10.516" height="0.954" transform="translate(475.255 107.532)" fill="#bcd2f5"/>
            <rect id="Rectángulo_4425" data-name="Rectángulo 4425" width="7.979" height="0.954" transform="translate(487.3 107.532)" fill="#bcd2f5"/>
            <rect id="Rectángulo_4426" data-name="Rectángulo 4426" width="14.248" height="0.953" transform="translate(439.192 118.237)" fill="#bcd2f5"/>
            <rect id="Rectángulo_4427" data-name="Rectángulo 4427" width="7.979" height="0.953" transform="translate(467.541 118.237)" fill="#bcd2f5"/>
            <rect id="Rectángulo_4428" data-name="Rectángulo 4428" width="10.469" height="0.953" transform="translate(455.063 118.237)" fill="#bcd2f5"/>
            <rect id="Rectángulo_4429" data-name="Rectángulo 4429" width="18.111" height="0.954" transform="translate(439.192 121.204)" fill="#bcd2f5"/>
            <rect id="Rectángulo_4430" data-name="Rectángulo 4430" width="7.979" height="0.954" transform="translate(458.436 121.204)" fill="#bcd2f5"/>
            <rect id="Rectángulo_4431" data-name="Rectángulo 4431" width="7.979" height="0.954" transform="translate(467.541 121.204)" fill="#bcd2f5"/>
            <rect id="Rectángulo_4432" data-name="Rectángulo 4432" width="37.802" height="53.51" transform="translate(552.135 76.599)" fill="#dfeafd"/>
            <rect id="Rectángulo_4433" data-name="Rectángulo 4433" width="14.443" height="18.015" transform="translate(572.953 80.801)" fill="#bcd2f5"/>
            <rect id="Rectángulo_4434" data-name="Rectángulo 4434" width="9.359" height="0.954" transform="translate(555.49 101.784)" fill="#bcd2f5"/>
            <rect id="Rectángulo_4435" data-name="Rectángulo 4435" width="14.579" height="0.954" transform="translate(555.49 81.04)" fill="#bcd2f5"/>
            <rect id="Rectángulo_4436" data-name="Rectángulo 4436" width="14.579" height="0.954" transform="translate(555.49 85.173)" fill="#bcd2f5"/>
            <rect id="Rectángulo_4437" data-name="Rectángulo 4437" width="8.214" height="0.954" transform="translate(555.49 87.239)" fill="#bcd2f5"/>
            <rect id="Rectángulo_4438" data-name="Rectángulo 4438" width="6.139" height="0.954" transform="translate(564.514 87.239)" fill="#bcd2f5"/>
            <rect id="Rectángulo_4439" data-name="Rectángulo 4439" width="5.842" height="0.954" transform="translate(555.49 83.106)" fill="#bcd2f5"/>
            <rect id="Rectángulo_4440" data-name="Rectángulo 4440" width="5.842" height="0.954" transform="translate(562.78 83.106)" fill="#bcd2f5"/>
            <rect id="Rectángulo_4441" data-name="Rectángulo 4441" width="6.947" height="0.954" transform="translate(580.175 101.784)" fill="#bcd2f5"/>
            <rect id="Rectángulo_4442" data-name="Rectángulo 4442" width="6.947" height="0.954" transform="translate(565.988 101.784)" fill="#bcd2f5"/>
            <rect id="Rectángulo_4443" data-name="Rectángulo 4443" width="5.229" height="0.954" transform="translate(573.867 101.784)" fill="#bcd2f5"/>
            <rect id="Rectángulo_4444" data-name="Rectángulo 4444" width="15.771" height="0.954" transform="translate(555.489 104.645)" fill="#bcd2f5"/>
            <rect id="Rectángulo_4445" data-name="Rectángulo 4445" width="6.947" height="0.954" transform="translate(572.246 104.645)" fill="#bcd2f5"/>
            <rect id="Rectángulo_4446" data-name="Rectángulo 4446" width="6.947" height="0.954" transform="translate(580.175 104.645)" fill="#bcd2f5"/>
            <rect id="Rectángulo_4447" data-name="Rectángulo 4447" width="12.405" height="0.953" transform="translate(555.49 107.507)" fill="#bcd2f5"/>
            <rect id="Rectángulo_4448" data-name="Rectángulo 4448" width="6.947" height="0.953" transform="translate(580.175 107.507)" fill="#bcd2f5"/>
            <rect id="Rectángulo_4449" data-name="Rectángulo 4449" width="9.115" height="0.953" transform="translate(569.309 107.507)" fill="#bcd2f5"/>
            <rect id="Rectángulo_4450" data-name="Rectángulo 4450" width="15.771" height="0.954" transform="translate(555.489 110.474)" fill="#bcd2f5"/>
            <rect id="Rectángulo_4451" data-name="Rectángulo 4451" width="6.947" height="0.954" transform="translate(572.246 110.474)" fill="#bcd2f5"/>
            <rect id="Rectángulo_4452" data-name="Rectángulo 4452" width="6.947" height="0.954" transform="translate(580.175 110.474)" fill="#bcd2f5"/>
            <rect id="Rectángulo_4453" data-name="Rectángulo 4453" width="9.359" height="0.954" transform="translate(555.49 115.303)" fill="#bcd2f5"/>
            <rect id="Rectángulo_4454" data-name="Rectángulo 4454" width="6.947" height="0.954" transform="translate(580.175 115.303)" fill="#bcd2f5"/>
            <rect id="Rectángulo_4455" data-name="Rectángulo 4455" width="6.947" height="0.954" transform="translate(565.988 115.303)" fill="#bcd2f5"/>
            <rect id="Rectángulo_4456" data-name="Rectángulo 4456" width="5.229" height="0.954" transform="translate(573.867 115.303)" fill="#bcd2f5"/>
            <rect id="Rectángulo_4457" data-name="Rectángulo 4457" width="15.771" height="0.954" transform="translate(555.489 118.164)" fill="#bcd2f5"/>
            <rect id="Rectángulo_4458" data-name="Rectángulo 4458" width="6.947" height="0.954" transform="translate(572.246 118.164)" fill="#bcd2f5"/>
            <rect id="Rectángulo_4459" data-name="Rectángulo 4459" width="6.947" height="0.954" transform="translate(580.175 118.164)" fill="#bcd2f5"/>
            <rect id="Rectángulo_4460" data-name="Rectángulo 4460" width="12.405" height="0.954" transform="translate(555.49 121.025)" fill="#bcd2f5"/>
            <rect id="Rectángulo_4461" data-name="Rectángulo 4461" width="6.947" height="0.954" transform="translate(580.175 121.025)" fill="#bcd2f5"/>
            <rect id="Rectángulo_4462" data-name="Rectángulo 4462" width="9.115" height="0.954" transform="translate(569.309 121.025)" fill="#bcd2f5"/>
            <rect id="Rectángulo_4463" data-name="Rectángulo 4463" width="15.771" height="0.954" transform="translate(555.489 123.992)" fill="#bcd2f5"/>
            <rect id="Rectángulo_4464" data-name="Rectángulo 4464" width="6.947" height="0.954" transform="translate(572.246 123.992)" fill="#bcd2f5"/>
            <rect id="Rectángulo_4465" data-name="Rectángulo 4465" width="6.947" height="0.954" transform="translate(580.175 123.992)" fill="#bcd2f5"/>
            <rect id="Rectángulo_4466" data-name="Rectángulo 4466" width="60.864" height="5.447" transform="translate(463.903 43.797)" fill="#fff"/>
            <rect id="Rectángulo_4467" data-name="Rectángulo 4467" width="0.566" height="23.628" transform="translate(472.564 20.169)" fill="#fff"/>
            <rect id="Rectángulo_4468" data-name="Rectángulo 4468" width="0.565" height="23.628" transform="translate(515.609 20.169)" fill="#fff"/>
            <rect id="Rectángulo_4469" data-name="Rectángulo 4469" width="60.864" height="5.447" transform="translate(318.608 43.797)" fill="#fff"/>
            <path id="Trazado_11288" data-name="Trazado 11288" d="M327.836,30.414V43.8h-.566V30.493c.19-.024.379-.052.566-.079" fill="#fff"/>
            <path id="Trazado_11289" data-name="Trazado 11289" d="M370.879,22.79V43.8h-.566V22.906c.189-.041.377-.078.566-.116" fill="#fff"/>
            <rect id="Rectángulo_4470" data-name="Rectángulo 4470" width="60.864" height="5.447" transform="translate(141.055 43.797)" fill="#fff"/>
            <path id="Trazado_11290" data-name="Trazado 11290" d="M149.715,29.968V43.8h.566V29.913Z" fill="#fff"/>
            <path id="Trazado_11291" data-name="Trazado 11291" d="M193.327,28.689V43.8h-.566V28.678c.19,0,.377.008.566.011" fill="#fff"/>
            <path id="Trazado_11292" data-name="Trazado 11292" d="M38.492,221.522s-2.976-3.472-.184-5.677a7.924,7.924,0,0,1,3.7-1.134s-2.357,3.952-1.594,4.344,2.307-4.592,2.307-4.592,4.641-.45,6.134.268c0,0-3.967,3.247-3.132,3.44s5.121-2.993,5.121-2.993,4.319.735,4.089,3.369-1.718,3.449-2.373,3.378-4.48-1.53-4.563-.994,2.22,2.287,3.832,2.369c0,0-3.045,3.359-5.069,2.39s-2.2-2.506-3.458-3.082-2.338-.575-1.817.013,2.8,1.159,3.525,2.435,1.369,2.137-.725,1.821-5.5-1.846-5.647-3.6Z" fill="#7ea2e7"/>
            <path id="Trazado_11293" data-name="Trazado 11293" d="M52.813,218.619s-11.73-.452-14.321,2.9a8.5,8.5,0,0,1-2.336,3.279l-.276.749s2.034-2.144,2.761-2.274c0,0-1.138-4.156,14.172-4.657" fill="#7ea2e7"/>
            <path id="Trazado_11294" data-name="Trazado 11294" d="M36.156,224.8a7.362,7.362,0,0,0-2.693,5.189l.457.041s.8-3.44,2.257-4.786-.021-.444-.021-.444" fill="#7ea2e7"/>
            <path id="Trazado_11295" data-name="Trazado 11295" d="M28.089,217.157s4.732-2.65,2.523-6.248a9.38,9.38,0,0,0-3.66-2.776s1.01,5.364,0,5.49-.693-6.059-.693-6.059-4.985-2.4-6.941-2.208c0,0,3.091,5.238,2.082,5.112s-4.481-5.428-4.481-5.428-5.111-.946-5.932,2.083.5,4.544,1.262,4.732,5.616.127,5.49.758-3.408,1.641-5.238,1.073c0,0,2.02,4.986,4.67,4.733s3.472-1.894,5.112-2.02,2.84.316,2.019.758-3.6.145-4.922,1.271-2.4,1.821.063,2.326,6.878.189,7.762-1.7Z" fill="#7ea2e7"/>
            <path id="Trazado_11296" data-name="Trazado 11296" d="M13.323,208.069s13.252,4.292,14.767,9.088a10.058,10.058,0,0,0,1.261,4.606v.947s-1.388-3.219-2.145-3.661c0,0,2.966-4.165-13.883-10.98" fill="#7ea2e7"/>
            <path id="Trazado_11297" data-name="Trazado 11297" d="M29.351,221.763a8.74,8.74,0,0,1,.879,6.881L29.7,228.5s.51-4.16-.559-6.253.206-.486.206-.486" fill="#7ea2e7"/>
            <path id="Trazado_11298" data-name="Trazado 11298" d="M35.619,213.5s-6.239-3.494-3.327-8.235c0,0,2.329-2.912,4.824-3.661,0,0-1.331,7.071,0,7.237s.915-7.986.915-7.986,6.572-3.161,9.151-2.911c0,0-4.077,6.9-2.746,6.738s5.907-7.154,5.907-7.154,6.738-1.248,7.819,2.745-.665,5.99-1.664,6.239-7.4.167-7.236,1,4.492,2.163,6.9,1.415c0,0-2.662,6.571-6.156,6.238s-4.576-2.495-6.738-2.662-3.743.416-2.662,1,4.741.19,6.488,1.676,3.162,2.4-.083,3.065-9.067.249-10.232-2.246Z" fill="#a2bff6"/>
            <path id="Trazado_11299" data-name="Trazado 11299" d="M55.083,201.523S37.614,207.179,35.618,213.5a13.27,13.27,0,0,1-1.664,6.072v1.247s1.831-4.242,2.828-4.824c0,0-3.908-5.491,18.3-14.474" fill="#a2bff6"/>
            <path id="Trazado_11300" data-name="Trazado 11300" d="M33.955,219.574a11.524,11.524,0,0,0-1.158,9.07l.693-.186s-.673-5.485.736-8.243-.271-.641-.271-.641" fill="#a2bff6"/>
            <path id="Trazado_11301" data-name="Trazado 11301" d="M35.409,239.443A12.222,12.222,0,0,0,47.63,227.222H23.187a12.222,12.222,0,0,0,12.222,12.221" fill="#a2bff6"/>
            <path id="Trazado_11302" data-name="Trazado 11302" d="M38.416,239.349a12.225,12.225,0,0,1-13.738-12.127h3.036a12.222,12.222,0,0,0,10.7,12.127" fill="#b2cbfd"/>
            <rect id="Rectángulo_4471" data-name="Rectángulo 4471" width="25.122" height="0.375" transform="translate(22.786 227.222)" fill="#a2bff6"/>
            <rect id="Rectángulo_4472" data-name="Rectángulo 4472" width="7.763" height="1.395" transform="translate(31.244 238.674)" fill="#a2bff6"/>
            <path id="Trazado_11303" data-name="Trazado 11303" d="M270.638,133.7a2.966,2.966,0,0,0-2.966,2.967v21.192a5.669,5.669,0,0,0,3.685,5.311,3.424,3.424,0,0,1,2.19,2.942h9.119a3.6,3.6,0,0,1,2.069-2.586c2.229-.926,4.113-2.313,3.807-5.626V136.821a3.125,3.125,0,0,0-3.126-3.126Z" fill="#a2bff6"/>
            <path id="Trazado_11304" data-name="Trazado 11304" d="M287.917,152.089H268.168a.918.918,0,0,1-.915-.915v-1.3a.918.918,0,0,1,.916-.915h19.748a.918.918,0,0,1,.914.915v1.3a.918.918,0,0,1-.914.915" fill="#7ea2e7"/>
            <path id="Trazado_11305" data-name="Trazado 11305" d="M287.917,158.713H268.168a.918.918,0,0,1-.915-.915v-1.3a.918.918,0,0,1,.916-.915h19.748a.918.918,0,0,1,.914.915v1.3a.918.918,0,0,1-.914.915" fill="#7ea2e7"/>
            <path id="Trazado_11306" data-name="Trazado 11306" d="M284.391,166.879H271.505l.381-1.269a.767.767,0,0,1,.734-.545H283.2a.765.765,0,0,1,.721.508Z" fill="#bcd2f5"/>
            <path id="Trazado_11307" data-name="Trazado 11307" d="M284.775,239.016H271.962a6.66,6.66,0,0,1-6.661-6.659v-58.82a6.66,6.66,0,0,1,6.66-6.659h12.814a6.659,6.659,0,0,1,6.659,6.66v58.819a6.659,6.659,0,0,1-6.659,6.659" fill="#cedefc"/>
            <rect id="Rectángulo_4473" data-name="Rectángulo 4473" width="17.422" height="23.773" transform="translate(269.703 178.04)" fill="#bcd2f5"/>
            <rect id="Rectángulo_4474" data-name="Rectángulo 4474" width="17.422" height="5.354" transform="translate(269.703 178.039)" fill="#a2bff6"/>
            <rect id="Rectángulo_4475" data-name="Rectángulo 4475" width="2.29" height="4.892" transform="translate(280.467 185.348)" fill="#dfeafd"/>
            <rect id="Rectángulo_4476" data-name="Rectángulo 4476" width="2.29" height="1.301" transform="translate(280.467 185.348)" fill="#7ea2e7"/>
            <rect id="Rectángulo_4477" data-name="Rectángulo 4477" width="2.29" height="4.892" transform="translate(273.887 185.348)" fill="#dfeafd"/>
            <rect id="Rectángulo_4478" data-name="Rectángulo 4478" width="2.29" height="1.301" transform="translate(273.887 185.348)" fill="#ec9037"/>
            <path id="Trazado_11308" data-name="Trazado 11308" d="M274.358,190.274l.227,1.126a.2.2,0,0,0,.194.16h.4a.2.2,0,0,0,.195-.158l.237-1.126a.2.2,0,0,0-.195-.24h-.862a.2.2,0,0,0-.2.238" fill="#dfeafd"/>
            <path id="Trazado_11309" data-name="Trazado 11309" d="M280.987,190.274l.226,1.126a.2.2,0,0,0,.195.16h.4a.2.2,0,0,0,.2-.158l.236-1.126a.2.2,0,0,0-.194-.24h-.863a.2.2,0,0,0-.194.238" fill="#dfeafd"/>
            <rect id="Rectángulo_4479" data-name="Rectángulo 4479" width="14.292" height="0.59" transform="translate(271.154 201.223)" fill="#a2bff6"/>
            <path id="Trazado_11310" data-name="Trazado 11310" d="M286.1,211.659H270.726a1.161,1.161,0,0,1-1.16-1.16v-5.212a1.16,1.16,0,0,1,1.16-1.159H286.1a1.16,1.16,0,0,1,1.159,1.159V210.5a1.161,1.161,0,0,1-1.159,1.16m-15.375-7.26a.889.889,0,0,0-.888.888V210.5a.889.889,0,0,0,.888.887H286.1a.888.888,0,0,0,.887-.887v-5.212a.888.888,0,0,0-.887-.888Z" fill="#a2bff6"/>
            <rect id="Rectángulo_4480" data-name="Rectángulo 4480" width="1.679" height="0.862" transform="translate(268.658 239.017)" fill="#2c3a64"/>
            <rect id="Rectángulo_4481" data-name="Rectángulo 4481" width="1.678" height="0.862" transform="translate(286.807 239.017)" fill="#2c3a64"/>
            <path id="Trazado_11311" data-name="Trazado 11311" d="M456.564,5.812c-29.379,4.394-58.277,11.35-87.354,17.319q-1.723.355-3.449.7h247.3q-1.2-.808-2.408-1.592C590.616,9.329,567.915,2.6,544.218.779c-29.043-2.229-58.948.594-87.654,5.033" fill="#efebb9"/>
            <path id="Trazado_11312" data-name="Trazado 11312" d="M519.292,142.314l-11.121.054,5.613,19.975,10.7-2.217Z" fill="#f4daba"/>
            <path id="Trazado_11313" data-name="Trazado 11313" d="M513.87,154.441a1.185,1.185,0,0,0-.322-.551,8.625,8.625,0,0,1-.645-1.587c-.063-.74-.566-.481-.645.168-.017.141.068.488.07.638a1.114,1.114,0,0,1-1.4-.936c-.076-.321-.191-.64-.24-.849-.068-.295-.785.2-.8.71a14.648,14.648,0,0,0,.187,3.407c.349.6,2.348,1.215,3.376,1.347l1.22.094.709-1.968Z" fill="#f4ac75"/>
            <path id="Trazado_11314" data-name="Trazado 11314" d="M551.377,234.784s-.322,5.2-1.328,5.275c-.135.01-5.1.01-5.1.01l-6.343-.036a2.059,2.059,0,0,1,1.9-1.853c1.855-.322,4.957-1.625,6.081-4.076,1.182-2.578,4.8.68,4.8.68" fill="#233862"/>
            <path id="Trazado_11315" data-name="Trazado 11315" d="M551.743,235.145a13.218,13.218,0,0,1-3.435.646,12.587,12.587,0,0,1-3.206-.459,87.628,87.628,0,0,0-2.36-11.247c-1.048-4.054-2.544-9.267-4.672-15.746-5.884-17.9-7.674-28.378-7.837-29.37-.009-.053-.011-.078-.011-.078l.018-.009,18.091-7.943s-2.236,24.677.616,34.148a39.953,39.953,0,0,1,1.036,4.537c1.8,10.289,1.76,25.521,1.76,25.521" fill="#35488b"/>
            <path id="Trazado_11316" data-name="Trazado 11316" d="M549.983,209.625l-7.241,14.461c-1.048-4.055-2.544-9.268-4.672-15.746-5.884-17.9-7.674-28.378-7.837-29.37,0-.031,0-.058.007-.087l18.091-7.944s-2.237,24.677.616,34.149a40.065,40.065,0,0,1,1.036,4.537" fill="#2c3a64"/>
            <path id="Trazado_11317" data-name="Trazado 11317" d="M537.248,234.784s-.323,5.2-1.329,5.275c-.134.01-5.1.01-5.1.01l-6.343-.036a2.059,2.059,0,0,1,1.895-1.853c1.855-.322,4.958-1.625,6.081-4.076,1.182-2.578,4.8.68,4.8.68" fill="#233862"/>
            <path id="Trazado_11318" data-name="Trazado 11318" d="M526.991,171.521a257.575,257.575,0,0,0,2.531,35.623c2.768,19.634,1.829,27.968,1.829,27.968a18.942,18.942,0,0,0,2.668.679,12.114,12.114,0,0,0,3.958-.458s3.961-19.641,2.826-29.468,5.422-33.721,5.422-33.721Z" fill="#35488b"/>
            <path id="Trazado_11319" data-name="Trazado 11319" d="M540.182,133.522,537.2,136.51l-5.189.113c-.016-.417-.034-2.158-.051-3.734,0-.094,0-.186,0-.277-.011-1.342-.021-2.494-.021-2.494l4.235-3.033,1.579-1.13c0,.027.163,1.457.189,1.665a12.134,12.134,0,0,0,2.242,5.9" fill="#f4ac75"/>
            <path id="Trazado_11320" data-name="Trazado 11320" d="M525.936,172.213c.073,8.44.636,28.186,1.05,28.587,4.395,4.243,23.731-1.164,24.757-5.839s-3.9-59.942-11.4-62.149c-1.557-.457-9.887,2.236-9.887,2.236a52.793,52.793,0,0,0-2.163,7.771c-.319,1.614-1.355,13.125-1.96,20.818-.16,2.051-.29,3.829-.368,5.076-.031.516-.038,1.771-.024,3.5" fill="#b2cbfd"/>
            <path id="Trazado_11321" data-name="Trazado 11321" d="M537.6,127.758c-.662,1.949-4.166,4.247-5.643,5.132,0-.094,0-.187,0-.278-.011-1.341-.021-2.494-.021-2.494l4.235-3.032c1.029-.23,1.7-.13,1.431.672" fill="#f09e62"/>
            <path id="Trazado_11322" data-name="Trazado 11322" d="M530.12,130.2s8,.773,8.409-4.218,1.711-8.254-3.382-8.959-6.241,1.119-6.782,2.752-.316,10.095,1.755,10.425" fill="#f4ac75"/>
            <path id="Trazado_11323" data-name="Trazado 11323" d="M528.565,119.262s1.623,5.371,2.7,4.9,2.072-.864,2.251.819-.992,3.917,2.556,3.48,6.681-10.478,5.368-11.98c-3.79-4.335-18.126-2.375-12.879,2.783" fill="#233862"/>
            <path id="Trazado_11324" data-name="Trazado 11324" d="M532.493,132.933c.1-.042,5.714-2.561,6.371-2.344s1.475,2.223,1.475,2.223l-9.888,2.235a4.909,4.909,0,0,1,2.042-2.114" fill="#98b0f1"/>
            <path id="Trazado_11325" data-name="Trazado 11325" d="M525.936,172.213c18.347-12.424,16.852-29.512,16.852-29.512-7.159,4.039-14.254,13.6-16.46,20.936-.16,2.051-.29,3.829-.368,5.076-.031.516-.038,1.771-.024,3.5" fill="#98b0f1"/>
            <path id="Trazado_11326" data-name="Trazado 11326" d="M535.4,138.424s-5.174,17.975-7.281,17.975c-1.4,0-13.625-2.024-13.625-2.024l-1.127,2.649s13.624,8.976,18.575,7.169c7.844-2.864,12.574-16.757,10.851-21.492s-4.085-6.322-7.393-4.277" fill="#b2cbfd"/>
            <path id="Trazado_11327" data-name="Trazado 11327" d="M113.649,160.559l-.184,2.046s-.134.008-.369,0c-.74-.008-2.54,0-4.581-.1a45.315,45.315,0,0,1-5.845-.55,8.583,8.583,0,0,1-2.37-.706c-2.273-1.212-6.117-5.111-8.7-9.083a2.459,2.459,0,0,1-.186-.292,19.985,19.985,0,0,1-2.034-3.983,8.267,8.267,0,0,1-.463-1.96,8.628,8.628,0,0,1,.125-2.767,7,7,0,0,1,1.1-2.552,1.208,1.208,0,0,1,.217-.3,5.79,5.79,0,0,1,1.516-1.451.971.971,0,0,1,1.03.2c.042.028.083.061.125.1l.006.005q.08.066.159.144v.017a4.839,4.839,0,0,1,.428.457l0,0a9.361,9.361,0,0,1,.825,1.182c.017.015.036.03.037.048.092.147.186.309.3.487a.366.366,0,0,1,.073.114q.311.563.624,1.173c2.322,4.374,4.914,11.053,6.859,12.975a14,14,0,0,0,3.3,1.763h0c.03.011.06.025.09.038l.01,0c1.3.558,2.767,1.133,4.085,1.629,2.113.785,3.829,1.359,3.829,1.359" fill="#f4ac75"/>
            <path id="Trazado_11328" data-name="Trazado 11328" d="M105.713,157.6a15.038,15.038,0,0,1-1.112,2.416c-.529.9-.678,1.628-1.549,2.133a11.5,11.5,0,0,1-7.147-3.681c-1.125-1.319-1.923-2.884-3.236-4.73-.372-.519-.728-1.047-1.071-1.572a2.489,2.489,0,0,1-.188-.292,19.805,19.805,0,0,1-2.031-3.983s.753-10.463,4.568-9.359c3.6,1.046,6.444,15.31,8.39,17.234a13.828,13.828,0,0,0,3.3,1.761l0,0c.035.045.06.07.076.07" fill="#b2cbfd"/>
            <path id="Trazado_11329" data-name="Trazado 11329" d="M98.432,236.968l-2.219.826s-9.638-13.368-10.825-25.129a17.867,17.867,0,0,1,.317-6.012s-.094-.539-.259-1.49c-.076-.444-.17-.978-.277-1.591-.313-1.794-.745-4.251-1.237-7.048-1.135-6.437-2.6-14.665-3.745-20.715l.6-.192,6.469-2.087,1.337-4.247,4.818-1.267s1.076,2.1,2.038,12.049c.177,1.3.339,2.743.46,4.3a85.185,85.185,0,0,1-.458,17.419c-.222,1.729-.5,3.513-.847,5.346a23.941,23.941,0,0,0-.185,5.279c.486,9.615,4.015,24.557,4.015,24.557" fill="#ec9037"/>
            <path id="Trazado_11330" data-name="Trazado 11330" d="M95.907,184.714,85.446,205.163c-.075-.436-.17-.962-.276-1.564-.314-1.766-.745-4.181-1.238-6.932-1.134-6.329-2.6-14.421-3.745-20.369l.6-.189,6.47-2.052,1.337-4.176,4.817-1.247s1.076,2.07,2.038,11.849c.178,1.283.339,2.7.46,4.231" fill="#df750d"/>
            <path id="Trazado_11331" data-name="Trazado 11331" d="M91.305,170.683l-.242-2.076c-4.058,1.077-14.9-3.011-14.9-3.011s-3.93,3.454-3.414,11.735c.252,4.042.712,21.218,1.193,26.3.173,1.842.325,3.154.387,3.677v0a.716.716,0,0,1-.118.45,23.8,23.8,0,0,0-1.773,3.73c-4.716,12.567.726,28.044.726,28.044l1.412-.569s3.1-17.224,5.615-24.833a15,15,0,0,1,1.212-2.911,32.929,32.929,0,0,0,3.031-8.084A198.723,198.723,0,0,0,88.515,181.7c.129.006,2.79-11.014,2.79-11.014" fill="#ec9037"/>
            <path id="Trazado_11332" data-name="Trazado 11332" d="M88.45,145.113c-6.794,1.624-7.146-8.88-6.718-8.9.76-.591,1.881-2.995,2.1-6.717l.321.083L89.533,131s-.233,1.706-.342,3.319a6.369,6.369,0,0,0,.153,2.76c.418.088.67.144.67.144l0,.006c.073.117.245,7.447-1.567,7.88" fill="#f4ac75"/>
            <path id="Trazado_11333" data-name="Trazado 11333" d="M83.6,116.122c-.065-.3-.878-3.459-5.792-2.739,0,0,2.454-.151,3.061.83,0,0-1.873-1.007-3.128-.346s-1.614,3.137-1.482,3.905,1.321,3.108,2.2,3.164a2.616,2.616,0,0,0,1.025-.184,11.6,11.6,0,0,0-.444,1.29c-1.221,4.354,1.5,7.9,3.071,7.166,1.006-.469,1.634,1.282,1.634,1.282L92.513,120.3s-5.195-7.126-8.915-4.179" fill="#323c66"/>
            <path id="Trazado_11334" data-name="Trazado 11334" d="M89.533,131.005s-.233,1.705-.341,3.318c-3.041-.281-4.473-3.163-5.034-4.746Z" fill="#e19157"/>
            <path id="Trazado_11335" data-name="Trazado 11335" d="M90.452,132.6s-7.216-.344-6.933-4.835-.457-7.559,4.162-7.529,5.406,1.8,5.676,3.321-1.02,9.017-2.9,9.043" fill="#f4ac75"/>
            <path id="Trazado_11336" data-name="Trazado 11336" d="M93.3,121.046c-1.027-1.422-1.889-1.18-2.386-.8a5.049,5.049,0,0,0-6.546.62,8.587,8.587,0,0,1-3.131,4.887s1.262.9,4.341.312a5.162,5.162,0,0,0,2.563-1.536,16.859,16.859,0,0,1-3.121,3.349c3.724-1.439,5.5-6.378,5.679-6.9a5.672,5.672,0,0,1,1.438,2.2c.286,1.166.3,3.53.987,3.494,0,0,1.717-3.484.176-5.617" fill="#323c66"/>
            <path id="Trazado_11337" data-name="Trazado 11337" d="M81.379,240.693H70.2a6.149,6.149,0,0,1,.316-3c.559-1.24,1.435-1.8,1.226-3.3a4.023,4.023,0,0,0,3.483,1.333,12.293,12.293,0,0,0,1.939,2.514c.731.524,3.987.337,4.212,2.453" fill="#2c3a64"/>
            <path id="Trazado_11338" data-name="Trazado 11338" d="M105.377,240.693H94.2a4.645,4.645,0,0,1,.316-3,2.159,2.159,0,0,0-.08-2.572,4.336,4.336,0,0,0,1.88.354,3.932,3.932,0,0,0,1.663-.585,40.456,40.456,0,0,0,3.184,3.346c.732.524,3.987.337,4.213,2.453" fill="#2c3a64"/>
            <path id="Trazado_11339" data-name="Trazado 11339" d="M93.948,138.533l2.6,24.542L98.139,178.1c-1.6.836-3.139,1.542-4.613,2.137a18.417,18.417,0,0,0-1-2.638,8.027,8.027,0,0,1-.875,3.344c-13.671,4.816-21.389-.127-21.389-.127-.44-5.536-.067-16.965,1.1-26.7.243-2.025.52-3.978.83-5.787a75.863,75.863,0,0,1,1.71-7.994c.9-3.233,7.394-4.22,7.394-4.22a16.049,16.049,0,0,0,5.982,6.428c1.627-1.4,2.3-5.409,2.3-5.409Z" fill="#b2cbfd"/>
            <path id="Trazado_11340" data-name="Trazado 11340" d="M82.566,135.03s-1.157.292-1.272,1.087c0,0,2.647,5.875,5.981,6.427Z" fill="#98b0f1"/>
            <path id="Trazado_11341" data-name="Trazado 11341" d="M87.275,142.544s2.038-5.391,1.894-6.117c0,0,1.292.249,1.353,1.012,0,0-1.786,4.492-3.247,5.105" fill="#98b0f1"/>
            <path id="Trazado_11342" data-name="Trazado 11342" d="M82.684,147.106c.138.276,6.945,12.479,13.863,15.969,3.049,1.538-7.279-.5-7.431-.924s-6.432-15.045-6.432-15.045" fill="#98b0f1"/>
            <path id="Trazado_11343" data-name="Trazado 11343" d="M96.547,163.075l1.086,10.249c-17.446,0-19.306-23.959-19.306-23.959l9.707,10.6,8.41,3.015.1.1" fill="#98b0f1"/>
            <path id="Trazado_11344" data-name="Trazado 11344" d="M103.226,165.636l-.3,2.208s-.751-.035-1.945-.1c-.359-.02-.565-.043-.565-.043-.957-.057-2.1-.157-3.355-.26l-.018,0c-2.147-.22-4.557-.506-6.611-.91q-.276-.057-.543-.115a16.165,16.165,0,0,1-3.056-.943,2.181,2.181,0,0,1-.255-.135c-2.136-1.154-5.008-5-7.4-9.223-.333-.582-.648-1.167-.961-1.734a45.883,45.883,0,0,1-2.747-6.07,18.1,18.1,0,0,1-.853-2.953,6.922,6.922,0,0,1-.13-.846c-.616-4.831,2.729-5.788,3.253-5.3a15.293,15.293,0,0,1,2.2,2.906c1.237,2.019,2.608,4.665,3.911,7.3.72,1.445,1.423,2.894,2.109,4.224.4.81.788,1.571,1.152,2.267a23.182,23.182,0,0,0,1.834,3.059,8.15,8.15,0,0,0,2.3,1.573c.294.158.61.321.94.487,1.838.918,4.151,1.9,6.2,2.722,1,.407,1.951.772,2.738,1.073,1.268.49,2.107.8,2.107.8" fill="#f4ac75"/>
            <path id="Trazado_11345" data-name="Trazado 11345" d="M92.182,161.039a6.925,6.925,0,0,1-2.842,6.472c-4.566-.988-7.767-7.169-10.164-11.389-.333-.582-.648-1.167-.961-1.734a45.763,45.763,0,0,1-2.747-6.071,18.066,18.066,0,0,1-.853-2.952,6.937,6.937,0,0,1-.13-.847c-.616-4.831,2.729-5.788,3.253-5.3a15.26,15.26,0,0,1,2.2,2.906c1.237,2.018,2.608,4.665,3.911,7.3.72,1.445,1.423,2.893,2.109,4.223.4.811.788,1.572,1.152,2.268a23.158,23.158,0,0,0,1.834,3.058,8.126,8.126,0,0,0,2.3,1.574c.294.158.61.321.94.487" fill="#b2cbfd"/>
            <path id="Trazado_11346" data-name="Trazado 11346" d="M108.93,155.365c0,.019-.007.029-.017.031,0-.014.006-.025.007-.033.009-.029.012-.029.01,0" fill="#b1ddd9"/>
            <path id="Trazado_11347" data-name="Trazado 11347" d="M119.285,171.933l-14.136.088,9.372-15.444,14.136-.087Z" fill="#35488b"/>
            <path id="Trazado_11348" data-name="Trazado 11348" d="M111.343,167.053a11.3,11.3,0,0,1-3.235-.786,7.642,7.642,0,0,1,.729-.324l.523-.862a6.92,6.92,0,0,1-2.263.263,4.15,4.15,0,0,0-1.853.741c-1.076-.193-2.05-.448-2.365-.532a.556.556,0,0,1-.116-.039l-1.458,2.251s.994.114,1.344.2c.879.26,2.26,1.078,4.02,1.666,1.007.337,2.845-.226,3.939-.632a3.134,3.134,0,0,0,1.684-1.4c.328-.628-.386-.519-.949-.548" fill="#f4ac75"/>
            <path id="Trazado_11349" data-name="Trazado 11349" d="M103.052,162.149a11.5,11.5,0,0,1-7.146-3.681l-.608-7.2c.083.547,1.5,9.3,7.754,10.879" fill="#98b0f1"/>
            <path id="Trazado_11350" data-name="Trazado 11350" d="M478.524,178.3a17.928,17.928,0,0,1,2.245-1.729c.586-.267,1.653-1.324,1.853-.966s-.676,1.051-.574,1.475,3.144.753,3.181,1.21a1.761,1.761,0,0,1-1.649,1.65c-1.143.011-4.1-.259-4.959-.126-.655.1-.1-1.514-.1-1.514" fill="#f4ac75"/>
            <path id="Trazado_11351" data-name="Trazado 11351" d="M449.755,162.6s1.763-.8,7.267,4.175,9.272,10.178,12.212,10.4,9.545.793,9.545.793l.949,1.829s-.237.788-4.9,2.271a22.092,22.092,0,0,1-8.136.912c-3.769-.452-12.8-6.489-14.179-8.3s-2.762-12.085-2.762-12.085" fill="#fff"/>
            <path id="Trazado_11352" data-name="Trazado 11352" d="M488.67,217.321a17.263,17.263,0,0,0,.177,3.612c.742,5.944,3.163,15.436,3.163,15.436l3.034.368c-.222-1.679.41-8.106,1.248-15.229,1.266-10.747,3-23.076,3-23.076s-6.6-5.458-10.5-3.95.327,18.674-.13,22.839" fill="#f4ac75"/>
            <path id="Trazado_11353" data-name="Trazado 11353" d="M488.847,220.933c.742,5.943,3.163,15.436,3.163,15.436l3.034.368c-.221-1.679.41-8.107,1.248-15.23a13.285,13.285,0,0,1-6.459-.355,3.055,3.055,0,0,0-.986-.219" fill="#e9caaa"/>
            <path id="Trazado_11354" data-name="Trazado 11354" d="M491.625,154.319a4.409,4.409,0,0,1,3.394,0c1.794.768,3.1,4.035,2.3,7.088s1.911,3.1.654,5.553c-.446.868-6.345,1.606-6.546-1.775-.125-2.1,1.771-2.2,1.219-4.474s-1.018-6.392-1.018-6.392" fill="#323c66"/>
            <path id="Trazado_11355" data-name="Trazado 11355" d="M483.155,216.671a21.622,21.622,0,0,0,.043,4.754c.516,6.059,2.162,14.718,2.162,14.718l3,.693c-.114-1.656.866-7.892,2.1-14.866,1.921-10.851,4.463-23.494,4.463-23.494s-6.256-5.857-10.234-4.59-.825,18.657-1.537,22.785" fill="#f6bd92"/>
            <path id="Trazado_11356" data-name="Trazado 11356" d="M495.007,236.138a3.553,3.553,0,0,0,2.1,1.631,3.435,3.435,0,0,1,2.061,1.283.806.806,0,0,1-.655,1.281l-6.98-.039a1,1,0,0,1-.992-1.11c.055-.517.113-1.118.139-1.58a3.323,3.323,0,0,1,1.149-1.913,7.162,7.162,0,0,0,1.328.615,4.932,4.932,0,0,0,1.855-.168" fill="#28304f"/>
            <path id="Trazado_11357" data-name="Trazado 11357" d="M496.337,168.9s4.561,7.689,5.48,13.959c0,0-2.217,2.993-3.12.892s-7.377-13.352-2.36-14.851" fill="#f4ac75"/>
            <path id="Trazado_11358" data-name="Trazado 11358" d="M495.469,155.247a9.373,9.373,0,0,0-5.9-3.952,5.642,5.642,0,0,0-6.458,4.76c-.478,3.113.008,7.146,5.088,8.6Z" fill="#323c66"/>
            <path id="Trazado_11359" data-name="Trazado 11359" d="M494.537,169.119l-5.747,3.413-1.452-4.045a12.649,12.649,0,0,0,.859-3.833,15.751,15.751,0,0,0-.092-3.4l5,2.171a9.4,9.4,0,0,0-.122,1.12,8.1,8.1,0,0,0,.248,2.585,3.6,3.6,0,0,0,1.309,1.989" fill="#f4ac75"/>
            <path id="Trazado_11360" data-name="Trazado 11360" d="M493.226,167.13c-2.757.1-5.031-2.476-5.031-2.476l4.783-.109a8.073,8.073,0,0,0,.248,2.585" fill="#e19054"/>
            <path id="Trazado_11361" data-name="Trazado 11361" d="M494.463,165.511s-5.4,1.8-7.569-2.446c-2.343-4.582-.32-8.158,1.53-8.507,3.688-.7,5.937.582,6.686,2.039s2.333,7.948-.647,8.914" fill="#f4ac75"/>
            <path id="Trazado_11362" data-name="Trazado 11362" d="M492.131,163.192s.266.552,1.693.142c0,0,1.2-.345,1.021-.976a4.007,4.007,0,0,0-2.714.834" fill="#fff"/>
            <path id="Trazado_11363" data-name="Trazado 11363" d="M480.78,212.914c1.561,1.49,13.082,4.572,19.575,2.356,1.164-.4-.7-36.3-1.807-43.233a4.368,4.368,0,0,0-3.723-3.639q-.483-.067-1.049-.123c.08.853-.211,1.654-1.7,1.945-1.978.386-3.847-.861-4.808-1.728a18.213,18.213,0,0,0-3.678.954,3.233,3.233,0,0,0-1.955,3.413l.371,2.737,1.183,8.722a11.475,11.475,0,0,1-.025,3.3c-.5,3.316-1.3,11.391-1.841,17.533-.378,4.322-.624,7.687-.546,7.763" fill="#f4daba"/>
            <path id="Trazado_11364" data-name="Trazado 11364" d="M490.682,155.062s.511,5.063-4.293,6.857c-1.91.714-2.9-7.02,1.087-8.564s7.928.29,8.4,2.989.113,3.263.113,3.263-1.868-5.136-5.3-4.545" fill="#323c66"/>
            <path id="Trazado_11365" data-name="Trazado 11365" d="M487.765,171.627s2.2,8.714,2.289,12.18c0,0,4.834,8.444,5.118,9.045s-1.745,1.421-1.745,1.421-6.065-6.468-7.234-9.187-5.318-11.559-3.657-14.2,5.229.738,5.229.738" fill="#f4ac75"/>
            <path id="Trazado_11366" data-name="Trazado 11366" d="M501.818,182.855a15.556,15.556,0,0,1-3.791,10.612s-1.153-1.388-1.008-1.819,1.8-7.046,3.007-7.987,1.792-.806,1.792-.806" fill="#f4ac75"/>
            <path id="Trazado_11367" data-name="Trazado 11367" d="M495.173,192.851s2.7-.02,2.854.616a1.956,1.956,0,0,1-2.672,1.932c-1.978-.694-1.928-1.126-1.928-1.126Z" fill="#f4ac75"/>
            <path id="Trazado_11368" data-name="Trazado 11368" d="M497.019,191.648s-2.172,1-1.434,2.073a1.449,1.449,0,0,0,2.442-.254c.228-.684-1.008-1.819-1.008-1.819" fill="#f4ac75"/>
            <path id="Trazado_11369" data-name="Trazado 11369" d="M489.355,176.224a9.873,9.873,0,0,1-7.206,2.229s-2.154-7.635,1.3-8.573,6.309,3.588,5.906,6.344" fill="#f4daba"/>
            <path id="Trazado_11370" data-name="Trazado 11370" d="M497.827,170.242l2.5,4.273a2.64,2.64,0,0,1-2.192,2.181c-1.87.2-.308-6.454-.308-6.454" fill="#f4daba"/>
            <path id="Trazado_11371" data-name="Trazado 11371" d="M484.719,154.362a3.964,3.964,0,0,0-3.394,0c-1.794.864-3.1,4.544-2.3,7.981s-1.91,3.5-.654,6.252c.447.978,6.345,1.81,6.546-2,.125-2.358-1.77-2.475-1.218-5.038s1.017-7.2,1.017-7.2" fill="#323c66"/>
            <path id="Trazado_11372" data-name="Trazado 11372" d="M483.2,221.425c.516,6.059,2.162,14.718,2.162,14.718l3,.693c-.114-1.656.866-7.891,2.1-14.866a19.1,19.1,0,0,1-7.265-.545" fill="#f4daba"/>
            <path id="Trazado_11373" data-name="Trazado 11373" d="M488.445,236.138a3.553,3.553,0,0,0,2.1,1.631,3.435,3.435,0,0,1,2.061,1.283.806.806,0,0,1-.656,1.281l-6.979-.039a1,1,0,0,1-.992-1.11c.055-.517.113-1.118.139-1.58a3.323,3.323,0,0,1,1.149-1.913,7.162,7.162,0,0,0,1.328.615,4.936,4.936,0,0,0,1.855-.168" fill="#323c66"/>
            <path id="Trazado_11374" data-name="Trazado 11374" d="M450.824,145.915s.1-3.586-4.628-4.289-6.036.4-6.841,1.607-2.311,6.132-2.161,8.092,5.546,4.385,5.458,5.528,8.172-10.938,8.172-10.938" fill="#233862"/>
            <path id="Trazado_11375" data-name="Trazado 11375" d="M471.894,237.742c-.1,1.2,1.573,1.466,3.5,1.537s1.352.473,4,.917,3.7-.293,3.883-.652c.166-.319-1.069-.8-2.384-1.341-.166-.067-.332-.137-.5-.207-1.481-.628-2.325-1.939-3.489-3.149-1.1-1.145-2.185-4.846-2.185-4.846l-3.6-.719s1.051,3.329,1.42,4.752a4.422,4.422,0,0,1-.335,2.5,4.664,4.664,0,0,0-.314,1.211" fill="#f4ac75"/>
            <path id="Trazado_11376" data-name="Trazado 11376" d="M475.395,239.279c1.929.07,1.352.473,4,.917s3.7-.293,3.883-.652c.166-.319-1.069-.8-2.384-1.341l-.02.022a7.514,7.514,0,0,1-4,.1c-1.753-.451-3.457-1.474-4.665-1.795a4.664,4.664,0,0,0-.314,1.211c-.1,1.2,1.573,1.466,3.5,1.537" fill="#a5423d"/>
            <path id="Trazado_11377" data-name="Trazado 11377" d="M444.193,192.87s23.888,1.253,27.98,4.635,5.035,36.721,5.035,36.721c-.579.652-1.03.66-2,.632a13.617,13.617,0,0,1-2.853-.714s-5.894-16.1-6.144-19.886-1.372-10.169-3.006-10.469-20.773,2.768-23.176-3.1a12.707,12.707,0,0,1,.857-10.953Z" fill="#233862"/>
            <path id="Trazado_11378" data-name="Trazado 11378" d="M432.972,198.8c1.027.687,3.681,1.067,6.761,1.178,5.512.2,12.391-.457,13.745-1.737a2.329,2.329,0,0,0,.571-1.571c.15-2.115-.86-5.6-1.539-8.474-.44-1.872-.74-3.488-.494-4.315.748-2.515,3.071-7.64,3.271-9.324s-1.809-10.708-4.587-11.825-13.506,0-13.506,0c-4.19.85-4.367,9.784-2.975,17.387.036.2.072.391.11.584,1.508,7.721-4.221,16.177-1.357,18.1" fill="#fff"/>
            <path id="Trazado_11379" data-name="Trazado 11379" d="M448.851,163.508c-.075.489-1.416,1.284-4.283.529-2.747-.724-3.077-1.619-3.076-2.21,0-.7,1.193-1.641,1.177-5.944l.33.064,5.539,1.1s-.126,1.743-.129,3.386c0,1.379.568,2.263.442,3.078" fill="#f4ac75"/>
            <path id="Trazado_11380" data-name="Trazado 11380" d="M448.538,157.044s-.126,1.743-.129,3.386c-3.1-.088-4.738-2.915-5.409-4.483Z" fill="#e19054"/>
            <path id="Trazado_11381" data-name="Trazado 11381" d="M449.573,158.6s-7.333.121-7.338-4.447-.955-7.628,3.727-7.9,5.593,1.472,5.965,3-.447,9.2-2.354,9.35" fill="#f4ac75"/>
            <path id="Trazado_11382" data-name="Trazado 11382" d="M449.3,146.141s-2.008,5.359-5.089,6.151-4.418-.033-4.418-.033a8.729,8.729,0,0,0,2.855-5.155s5.138-3.514,6.652-.963" fill="#233862"/>
            <path id="Trazado_11383" data-name="Trazado 11383" d="M448.8,146.577a6.478,6.478,0,0,1,1.865,2.359c.365,1.163.53,3.558,1.228,3.477,0,0,1.512-3.643-.188-5.7-1.8-2.186-2.905-.133-2.905-.133" fill="#233862"/>
            <path id="Trazado_11384" data-name="Trazado 11384" d="M447.943,155.83s.137.58,1.58.491c0,0,1.212-.075,1.175-.713a3.9,3.9,0,0,0-2.755.222" fill="#fff"/>
            <path id="Trazado_11385" data-name="Trazado 11385" d="M456.113,239.049c.041,1.2,1.729,1.278,3.653,1.131s1.4.316,4.076.458,3.64-.709,3.786-1.088c.128-.335-1.153-.672-2.522-1.062-.172-.048-.345-.1-.517-.15-1.543-.456-2.53-1.662-3.824-2.732-1.225-1.014,1.109-6.324,1.109-6.324L458.4,227.8s-.461,3.731-1.131,7.009c-.173.847-.8,2.259-.979,3a4.611,4.611,0,0,0-.176,1.239" fill="#f4ac75"/>
            <path id="Trazado_11386" data-name="Trazado 11386" d="M432.972,198.8c1.027.687,3.681,1.067,6.761,1.178,5.085-1.157,10.873-2.5,14.316-3.308.15-2.115-.86-5.6-1.539-8.474-4.016,1.225-9.99-2.952-12-4.6-2.111-1.734-2.045-7.513-2.045-7.513l-4.247,4.038c.036.2.072.391.11.584,1.508,7.721-4.221,16.177-1.357,18.1" fill="#e0e8fc"/>
            <path id="Trazado_11387" data-name="Trazado 11387" d="M459.766,240.179c1.924-.148,1.4.316,4.076.458s3.64-.709,3.785-1.088c.128-.335-1.152-.672-2.521-1.061l-.018.024a7.523,7.523,0,0,1-3.963.553c-1.793-.251-3.6-1.074-4.837-1.256a4.651,4.651,0,0,0-.175,1.239c.041,1.2,1.729,1.278,3.653,1.131" fill="#b84c42"/>
            <path id="Trazado_11388" data-name="Trazado 11388" d="M439.135,194.547c6.025-.466,24.118.061,27.707,2.455,4.417,2.947-6.232,36.715-6.232,36.715h-3.417s-1.988-19.608-.754-23.522c1.139-3.616,1.883-4.912.225-5.044s-22.083,3.458-24.1-2.555a14.875,14.875,0,0,1,.188-9.2s.821,1.582,6.381,1.152" fill="#2b478b"/>
            <path id="Trazado_11389" data-name="Trazado 11389" d="M441.639,143.428s.3-1.914-2.353-2.407-2.7,5.142-2.987,6.5.424,2.173,1.437,2.256,3.9-6.351,3.9-6.351" fill="#233862"/>
            <path id="Trazado_11390" data-name="Trazado 11390" d="M450.038,192.467s3.874-.431,4.714-.039,3.526,2.893,3.012,3.365-3.031-.839-4.282-.878-2.3.406-3.157.129a10.392,10.392,0,0,1-1.724-.777Z" fill="#f4ac75"/>
            <path id="Trazado_11391" data-name="Trazado 11391" d="M450.038,192.467a14.1,14.1,0,0,0,2.568-1.072.145.145,0,0,1,.22.063c.1.24.161.683-.543.994a3.457,3.457,0,0,1-2.245.015" fill="#f4ac75"/>
            <path id="Trazado_11392" data-name="Trazado 11392" d="M437.194,162.73s-4.2.355-4.523,3.673c-.248,2.519-2.074,20.385-.759,21.938,3.7,4.373,11.965,5.658,16.689,5.925a7.337,7.337,0,0,0,.878-.784,4.457,4.457,0,0,0,.559-1.016s-12.945-6.864-12.743-8.372,3.924-21.962-.1-21.364" fill="#fff"/>
            <path id="Trazado_11394" data-name="Trazado 11394" d="M432.844,130.584H509.4V76.122H432.844Zm75.6-.953H433.8V77.076h74.649Z" fill="#bcd2f5"/>
            <path id="Trazado_11395" data-name="Trazado 11395" d="M551.658,130.584h38.758V76.122H551.658Zm37.8-.953H552.611V77.076H589.46Z" fill="#bcd2f5"/>
          </g>
        </g>
      </g>
    </g>
  </g>
</svg>
