<svg xmlns="http://www.w3.org/2000/svg" xmlns:xlink="http://www.w3.org/1999/xlink" width="202.667" height="204.815" viewBox="0 0 202.667 204.815">
  <defs>
    <clipPath id="clip-path">
      <rect id="Rectángulo_8515" data-name="Rectángulo 8515" width="188.695" height="196.815" fill="none"/>
    </clipPath>
    <clipPath id="clip-path-2">
      <circle id="Elipse_410" data-name="Elipse 410" cx="94.5" cy="94.5" r="94.5" transform="translate(0 -0.035)" fill="none"/>
    </clipPath>
    <clipPath id="clip-path-3">
      <rect id="Rectángulo_8487" data-name="Rectángulo 8487" width="151.668" height="167.32" fill="none"/>
    </clipPath>
    <clipPath id="clip-path-4">
      <rect id="Rectángulo_8489" data-name="Rectángulo 8489" width="109.349" height="146.939" fill="none"/>
    </clipPath>
    <clipPath id="clip-path-5">
      <rect id="Rectángulo_8502" data-name="Rectángulo 8502" width="19.541" height="85.967" fill="none"/>
    </clipPath>
    <clipPath id="clip-path-6">
      <rect id="Rectángulo_8504" data-name="Rectángulo 8504" width="11.875" height="71.928" fill="none"/>
    </clipPath>
    <clipPath id="clip-path-7">
      <rect id="Rectángulo_8505" data-name="Rectángulo 8505" width="13.246" height="72.063" fill="none"/>
    </clipPath>
    <clipPath id="clip-path-8">
      <rect id="Rectángulo_8507" data-name="Rectángulo 8507" width="5.676" height="8.879" fill="none"/>
    </clipPath>
    <clipPath id="clip-path-9">
      <rect id="Rectángulo_8508" data-name="Rectángulo 8508" width="68.317" height="67.173" fill="none"/>
    </clipPath>
    <clipPath id="clip-path-10">
      <rect id="Rectángulo_8509" data-name="Rectángulo 8509" width="31.264" height="30.504" fill="none"/>
    </clipPath>
    <clipPath id="clip-path-11">
      <rect id="Rectángulo_8510" data-name="Rectángulo 8510" width="36.934" height="36.936" fill="none"/>
    </clipPath>
    <clipPath id="clip-path-12">
      <rect id="Rectángulo_8513" data-name="Rectángulo 8513" width="31.405" height="31.407" fill="none"/>
    </clipPath>
    <clipPath id="clip-path-13">
      <rect id="Rectángulo_8511" data-name="Rectángulo 8511" width="24.98" height="24.981" fill="none"/>
    </clipPath>
    <clipPath id="clip-path-14">
      <rect id="Rectángulo_8512" data-name="Rectángulo 8512" width="27.912" height="27.915" fill="none"/>
    </clipPath>
    <clipPath id="clip-path-15">
      <rect id="Rectángulo_8514" data-name="Rectángulo 8514" width="9.11" height="10.077" fill="none"/>
    </clipPath>
  </defs>
  <g id="Grupo_13584" data-name="Grupo 13584" transform="translate(-613.262 -1226.878)">
    <circle id="Elipse_406" data-name="Elipse 406" cx="98.333" cy="98.333" r="98.333" transform="translate(616.262 1229.878)" fill="none" stroke="#97c7ea" stroke-miterlimit="10" stroke-width="6"/>
    <g id="Grupo_13253" data-name="Grupo 13253" transform="translate(619 1234.878)">
      <g id="Grupo_13252" data-name="Grupo 13252" clip-path="url(#clip-path)">
        <g id="Grupo_13251" data-name="Grupo 13251" transform="translate(0 0.156)">
          <g id="Grupo_13250" data-name="Grupo 13250" clip-path="url(#clip-path-2)">
            <g id="Grupo_13213" data-name="Grupo 13213" transform="translate(21.555 29.338)" style="mix-blend-mode: multiply;isolation: isolate">
              <g id="Grupo_13212" data-name="Grupo 13212">
                <g id="Grupo_13211" data-name="Grupo 13211" clip-path="url(#clip-path-3)">
                  <path id="Trazado_18397" data-name="Trazado 18397" d="M244.618,144.887l-5.412-.391-2.226-.161-102.085-7.385a8.634,8.634,0,0,0-9.131,7.156l-1.441-.035,0,.063-2.572-.063-.229,9.321-11.894.658.175,3.159-9.735,1.2,17.908,145.844,66.654-8.184,34.775,2.516a8.632,8.632,0,0,0,9.108-7.023,8.376,8.376,0,0,0,.124-.965l.836-11.564,6.178-85.354,5.412.391a7.667,7.667,0,0,0,8.2-7.094l2.452-33.879a7.668,7.668,0,0,0-7.094-8.2" transform="translate(-100.065 -136.926)" fill="#c6c6c6"/>
                </g>
              </g>
            </g>
            <path id="Trazado_18398" data-name="Trazado 18398" d="M296.088,140.546l-2.452,33.879a7.667,7.667,0,0,1-8.2,7.094l-5.412-.391-6.178,85.354-.836,11.564a8.429,8.429,0,0,1-.125.965,8.632,8.632,0,0,1-9.108,7.022l-95.7-6.924a8.63,8.63,0,0,1-7.985-9.233l8.72-120.517,1.117-15.447.11-1.521a8.633,8.633,0,0,1,9.233-7.987l102.085,7.385,2.227.161,5.412.391a7.668,7.668,0,0,1,7.094,8.2" transform="translate(-125.588 -97.746)" fill="#fbb040"/>
            <g id="Grupo_13216" data-name="Grupo 13216" transform="translate(39.567 33.779)" style="mix-blend-mode: multiply;isolation: isolate">
              <g id="Grupo_13215" data-name="Grupo 13215">
                <g id="Grupo_13214" data-name="Grupo 13214" clip-path="url(#clip-path-4)">
                  <rect id="Rectángulo_8488" data-name="Rectángulo 8488" width="144.386" height="105.839" transform="translate(0 144.343) rotate(-88.594)" fill="#e6e7e8"/>
                </g>
              </g>
            </g>
            <rect id="Rectángulo_8490" data-name="Rectángulo 8490" width="144.386" height="105.839" transform="translate(36.994 178.122) rotate(-88.594)" fill="#fff"/>
            <rect id="Rectángulo_8491" data-name="Rectángulo 8491" width="105.839" height="144.386" transform="translate(28.413 43.758) rotate(-3.167)" fill="#f1f2f2"/>
            <rect id="Rectángulo_8492" data-name="Rectángulo 8492" width="109.349" height="146.939" transform="translate(18.852 48.112) rotate(-7)" fill="#fff"/>
            <rect id="Rectángulo_8493" data-name="Rectángulo 8493" width="54.18" height="3.717" transform="translate(69.904 106.375) rotate(-7)" fill="#dae3e8"/>
            <rect id="Rectángulo_8494" data-name="Rectángulo 8494" width="40.719" height="3.717" transform="translate(70.807 113.726) rotate(-7)" fill="#dae3e8"/>
            <rect id="Rectángulo_8495" data-name="Rectángulo 8495" width="40.719" height="3.717" transform="translate(68.998 98.995) rotate(-7)" fill="#8bcfca"/>
            <path id="Trazado_18399" data-name="Trazado 18399" d="M195.889,466.594c-1.334.863-7.369,9.7-10.709,13.913l-3.268-2.544c-.389-.366-1.269-1.546-1.859-.636L179.178,479c-.593.911.308,2.177.905,2.534l5.342,4.822c.6.356,1.56-.092,2.151-1l.5-.776h0l8.987-16.893c.59-.915,1.983-2.968-1.179-1.09" transform="translate(-140.43 -365.643)" fill="#706f6f"/>
            <path id="Trazado_18400" data-name="Trazado 18400" d="M181.856,473.254,161.94,475.7a3.844,3.844,0,0,1-4.279-3.344l-2.445-19.916a3.844,3.844,0,0,1,3.343-4.279l19.916-2.445a3.845,3.845,0,0,1,4.279,3.344l2.445,19.916a3.845,3.845,0,0,1-3.343,4.279m-23.029-22.905a1.637,1.637,0,0,0-1.424,1.823l2.446,19.916a1.637,1.637,0,0,0,1.822,1.424l19.916-2.445a1.637,1.637,0,0,0,1.424-1.822l-2.445-19.916a1.638,1.638,0,0,0-1.823-1.424Z" transform="translate(-121.759 -349.839)" fill="#dae3e8"/>
            <rect id="Rectángulo_8496" data-name="Rectángulo 8496" width="54.18" height="3.717" transform="translate(73.443 135.198) rotate(-7)" fill="#dae3e8"/>
            <rect id="Rectángulo_8497" data-name="Rectángulo 8497" width="40.719" height="3.718" transform="translate(74.346 142.549) rotate(-7)" fill="#dae3e8"/>
            <rect id="Rectángulo_8498" data-name="Rectángulo 8498" width="40.719" height="3.717" transform="translate(72.537 127.818) rotate(-7)" fill="#8bcfca"/>
            <path id="Trazado_18401" data-name="Trazado 18401" d="M220.152,613.576c-.974.63-5.381,7.086-7.819,10.159l-2.386-1.857c-.284-.267-.927-1.129-1.357-.464l-.639,1.222c-.433.665.225,1.589.661,1.85l3.9,3.521c.437.26,1.139-.067,1.571-.733l.367-.567h0l6.562-12.335c.431-.668,1.448-2.167-.861-.8" transform="translate(-163.046 -481.126)" fill="#706f6f"/>
            <path id="Trazado_18402" data-name="Trazado 18402" d="M209.906,618.439l-14.542,1.786a2.807,2.807,0,0,1-3.125-2.441l-1.785-14.542a2.807,2.807,0,0,1,2.441-3.125l14.542-1.786a2.807,2.807,0,0,1,3.124,2.441l1.786,14.542a2.807,2.807,0,0,1-2.441,3.124m-16.815-16.725a1.2,1.2,0,0,0-1.04,1.331l1.786,14.542a1.2,1.2,0,0,0,1.331,1.04l14.542-1.786a1.2,1.2,0,0,0,1.04-1.331l-1.785-14.542a1.2,1.2,0,0,0-1.331-1.04Z" transform="translate(-149.412 -469.587)" fill="#dae3e8"/>
            <rect id="Rectángulo_8499" data-name="Rectángulo 8499" width="54.18" height="3.717" transform="translate(76.982 164.02) rotate(-7)" fill="#dae3e8"/>
            <rect id="Rectángulo_8500" data-name="Rectángulo 8500" width="40.719" height="3.718" transform="matrix(0.993, -0.122, 0.122, 0.993, 77.885, 171.372)" fill="#dae3e8"/>
            <rect id="Rectángulo_8501" data-name="Rectángulo 8501" width="40.719" height="3.717" transform="translate(76.076 156.641) rotate(-7)" fill="#8bcfca"/>
            <path id="Trazado_18403" data-name="Trazado 18403" d="M236.581,747.384c-.974.63-5.381,7.086-7.819,10.159l-2.386-1.857c-.284-.267-.927-1.129-1.357-.464l-.639,1.222c-.433.665.225,1.589.661,1.85l3.9,3.521c.437.26,1.139-.067,1.571-.733l.367-.567h0l6.562-12.335c.431-.668,1.448-2.167-.861-.8" transform="translate(-175.936 -586.111)" fill="#706f6f"/>
            <path id="Trazado_18404" data-name="Trazado 18404" d="M226.336,752.247l-14.542,1.785a2.807,2.807,0,0,1-3.124-2.441l-1.785-14.542a2.807,2.807,0,0,1,2.441-3.125l14.542-1.786a2.807,2.807,0,0,1,3.124,2.441l1.786,14.542a2.807,2.807,0,0,1-2.441,3.125m-16.815-16.725a1.2,1.2,0,0,0-1.04,1.331l1.786,14.542a1.2,1.2,0,0,0,1.331,1.04l14.542-1.785a1.2,1.2,0,0,0,1.04-1.331l-1.785-14.542a1.2,1.2,0,0,0-1.331-1.04Z" transform="translate(-162.304 -574.572)" fill="#dae3e8"/>
            <g id="Grupo_13219" data-name="Grupo 13219" transform="translate(108.132 57.877)" style="mix-blend-mode: multiply;isolation: isolate">
              <g id="Grupo_13218" data-name="Grupo 13218">
                <g id="Grupo_13217" data-name="Grupo 13217" clip-path="url(#clip-path-5)">
                  <path id="Trazado_18405" data-name="Trazado 18405" d="M520.724,270.74a3.458,3.458,0,0,0-1.711-.723L515,269.454c-1.543-.217-2.923.534-3.084,1.677l-.862,6.137-.39,2.774-8.677,61.737,1.829,10.189v.007l.025.142h0l.531,2.96a.154.154,0,0,0,.073.1,1.292,1.292,0,0,0,1.077.151.155.155,0,0,0,.1-.076l1.326-2.7.032-.06.017-.037.018-.035h0v-.007l3.476-7.068v0l1.09-2.215h0l8.676-61.737.39-2.774h0l.863-6.137a1.935,1.935,0,0,0-.793-1.739" transform="translate(-501.991 -269.417)" fill="#c6c6c6"/>
                </g>
              </g>
            </g>
            <rect id="Rectángulo_8503" data-name="Rectángulo 8503" width="62.344" height="9.69" transform="translate(106.781 128.888) rotate(-82)" fill="#f99f05"/>
            <path id="Trazado_18406" data-name="Trazado 18406" d="M505.316,600.428l-1.09,2.215v0l-3.476,7.068v.008h0l-.033.073-.032.06-1.326,2.7a.156.156,0,0,1-.1.076,1.292,1.292,0,0,1-1.077-.152.154.154,0,0,1-.073-.1l-.531-2.961-.028-.146v0l-1.393-7.754v0l-.437-2.432Z" transform="translate(-388.939 -470.191)" fill="#f0b16c" fill-rule="evenodd"/>
            <path id="Trazado_18407" data-name="Trazado 18407" d="M507.445,647.506l-1.326,2.7a.155.155,0,0,1-.1.076,1.293,1.293,0,0,1-1.077-.151.154.154,0,0,1-.073-.1l-.531-2.96c.137.008.272.019.408.029.382.033.766.076,1.153.13s.782.121,1.163.2c.127.025.254.053.381.08" transform="translate(-395.702 -507.844)" fill="#706f6f" fill-rule="evenodd"/>
            <g id="Grupo_13222" data-name="Grupo 13222" transform="translate(106.781 67.151)" style="mix-blend-mode: screen;isolation: isolate">
              <g id="Grupo_13221" data-name="Grupo 13221">
                <g id="Grupo_13220" data-name="Grupo 13220" clip-path="url(#clip-path-6)">
                  <path id="Trazado_18408" data-name="Trazado 18408" d="M504.4,312.469l-8.677,61.737,1.83,10.191,10.046-71.478Z" transform="translate(-495.719 -312.47)" fill="#58595b"/>
                </g>
              </g>
            </g>
            <g id="Grupo_13225" data-name="Grupo 13225" transform="translate(108.61 67.6)" style="mix-blend-mode: screen;isolation: isolate">
              <g id="Grupo_13224" data-name="Grupo 13224">
                <g id="Grupo_13223" data-name="Grupo 13223" clip-path="url(#clip-path-7)">
                  <path id="Trazado_18409" data-name="Trazado 18409" d="M504.21,386.031l10.046-71.48,3.2.45L507.41,386.48l-.068.134q-.755-.167-1.544-.277c-.526-.074-1.046-.128-1.563-.16Z" transform="translate(-504.21 -314.551)" fill="#414042"/>
                </g>
              </g>
            </g>
            <rect id="Rectángulo_8506" data-name="Rectángulo 8506" width="2.802" height="9.69" transform="matrix(0.139, -0.99, 0.99, 0.139, 115.457, 67.151)" fill="#ffed00"/>
            <path id="Trazado_18410" data-name="Trazado 18410" d="M545.766,263.746l-4.009-.564c-1.543-.217-2.924.534-3.084,1.677L537.81,271l9.6,1.349.862-6.136c.16-1.143-.96-2.245-2.5-2.462" transform="translate(-421.963 -206.618)" fill="#f85a68"/>
            <g id="Grupo_13228" data-name="Grupo 13228" transform="translate(120.645 56.846)" style="mix-blend-mode: multiply;isolation: isolate">
              <g id="Grupo_13227" data-name="Grupo 13227">
                <g id="Grupo_13226" data-name="Grupo 13226" clip-path="url(#clip-path-8)">
                  <path id="Trazado_18411" data-name="Trazado 18411" d="M565.746,267.372l-.862,6.137-4.8-.674,1.153-8.2,2,.282c1.542.217,2.663,1.317,2.5,2.46" transform="translate(-560.085 -264.63)" fill="#ededed"/>
                </g>
              </g>
            </g>
            <g id="Grupo_13231" data-name="Grupo 13231" transform="translate(35.437 96.667)" style="mix-blend-mode: multiply;isolation: isolate">
              <g id="Grupo_13230" data-name="Grupo 13230">
                <g id="Grupo_13229" data-name="Grupo 13229" clip-path="url(#clip-path-9)">
                  <path id="Trazado_18412" data-name="Trazado 18412" d="M231.15,506.038l-20.995-20.349a5.9,5.9,0,0,0-7-.743c.043-.024.087-.051.13-.075l-5.264-5.1a22.628,22.628,0,0,0-1.854-30.276l1.9,4.656,1.809,15.537-8.7,11.864-10.838,3.264L170.1,482.784l-5.584-.97a22.624,22.624,0,0,0,30.209,1.305l5.415,5.247c-.024.065-.046.13-.07.2-.035.1-.073.195-.1.294s-.054.2-.081.3-.049.186-.068.281-.038.213-.054.319-.03.181-.04.273c-.011.108-.016.213-.022.321-.006.089-.014.181-.014.27,0,.027-.005.054-.005.084,0,.089.008.176.013.268,0,.073,0,.146.011.219.008.116.024.232.04.351.011.07.019.143.032.213.019.116.049.232.076.346.016.07.033.14.051.208.033.116.073.23.114.343.022.065.043.132.068.195.046.119.1.232.154.346.03.057.051.116.081.173.065.121.138.238.208.357.03.046.054.092.084.138.089.135.189.268.292.395.019.024.035.048.051.07a5.515,5.515,0,0,0,.4.435l20.995,20.349a5.887,5.887,0,0,0,6.925.778,6.674,6.674,0,0,0,1.667-1.254,6.092,6.092,0,0,0,.205-8.6m-30.836-18.068c-.032.07-.067.135-.1.205.046-.1.089-.2.14-.3-.013.033-.03.065-.043.1m.319-.589c-.051.084-.1.165-.149.249.078-.14.159-.281.249-.419-.038.057-.068.113-.1.17m.408-.6c-.043.054-.084.108-.124.162.065-.092.13-.181.2-.27-.027.035-.049.073-.076.108" transform="translate(-164.512 -449.492)" fill="#c6c6c6"/>
                </g>
              </g>
            </g>
            <path id="Trazado_18413" data-name="Trazado 18413" d="M352.77,634.551a6.1,6.1,0,0,0,.206-8.6L331.982,605.6a6.34,6.34,0,0,0-8.8,9.076l20.993,20.349a6.1,6.1,0,0,0,8.592-.475" transform="translate(-252.252 -474.088)" fill="#f85a68"/>
            <g id="Grupo_13234" data-name="Grupo 13234" transform="translate(69.254 131.987)" style="mix-blend-mode: multiply;isolation: isolate">
              <g id="Grupo_13233" data-name="Grupo 13233">
                <g id="Grupo_13232" data-name="Grupo 13232" clip-path="url(#clip-path-10)">
                  <path id="Trazado_18414" data-name="Trazado 18414" d="M352.767,641.939a6.1,6.1,0,0,1-8.593.476l-20.993-20.35a5.6,5.6,0,0,1-1.679-4.057,6.558,6.558,0,0,1,1.885-4.544Z" transform="translate(-321.503 -613.464)" fill="#ededed"/>
                </g>
              </g>
            </g>
            <path id="Trazado_18415" data-name="Trazado 18415" d="M302.288,584.317a6.832,6.832,0,0,0-3.154,3.5l-6.722-6.516a24.808,24.808,0,0,0,1.871-1.723q.764-.78,1.448-1.611Z" transform="translate(-229.425 -453.622)" fill="#2c4761"/>
            <path id="Trazado_18416" data-name="Trazado 18416" d="M133.5,452a22.623,22.623,0,1,0-.333-31.992A22.626,22.626,0,0,0,133.5,452m2.441-29.276a18.741,18.741,0,1,1,.274,26.5,18.741,18.741,0,0,1-.274-26.5" transform="translate(-99.411 -324.362)" fill="#32526f"/>
            <path id="Trazado_18417" data-name="Trazado 18417" d="M142.418,446.277a19.373,19.373,0,1,1,18.3,20.388,19.4,19.4,0,0,1-18.3-20.388m.908.049a18.467,18.467,0,1,0,19.431-17.447,18.486,18.486,0,0,0-19.431,17.447" transform="translate(-111.718 -335.921)" fill="#414042"/>
            <g id="Grupo_13237" data-name="Grupo 13237" transform="translate(31.581 92.932)" opacity="0.61" style="mix-blend-mode: multiply;isolation: isolate">
              <g id="Grupo_13236" data-name="Grupo 13236">
                <g id="Grupo_13235" data-name="Grupo 13235" clip-path="url(#clip-path-11)">
                  <path id="Trazado_18418" data-name="Trazado 18418" d="M183.52,451.615a18.467,18.467,0,1,0-19.436,17.448,18.489,18.489,0,0,0,19.436-17.448" transform="translate(-146.613 -432.154)" fill="#d3eaeb"/>
                </g>
              </g>
            </g>
            <g id="Grupo_13246" data-name="Grupo 13246" transform="translate(31.582 92.932)" style="mix-blend-mode: lighten;isolation: isolate">
              <g id="Grupo_13245" data-name="Grupo 13245">
                <g id="Grupo_13244" data-name="Grupo 13244" clip-path="url(#clip-path-12)">
                  <g id="Grupo_13240" data-name="Grupo 13240" style="mix-blend-mode: screen;isolation: isolate">
                    <g id="Grupo_13239" data-name="Grupo 13239">
                      <g id="Grupo_13238" data-name="Grupo 13238" clip-path="url(#clip-path-13)">
                        <path id="Trazado_18419" data-name="Trazado 18419" d="M147.805,457.137,171.6,433.342a18.408,18.408,0,0,0-5.522-1.16q-.468-.025-.931-.027l-18.526,18.526a18.34,18.34,0,0,0,1.187,6.454" transform="translate(-146.618 -432.156)" fill="#706f6f"/>
                      </g>
                    </g>
                  </g>
                  <g id="Grupo_13243" data-name="Grupo 13243" transform="translate(3.493 3.492)" style="mix-blend-mode: screen;isolation: isolate">
                    <g id="Grupo_13242" data-name="Grupo 13242">
                      <g id="Grupo_13241" data-name="Grupo 13241" clip-path="url(#clip-path-14)">
                        <path id="Trazado_18420" data-name="Trazado 18420" d="M164.642,476.284l26.1-26.1a18.582,18.582,0,0,0-2.142-1.812l-25.77,25.77a18.614,18.614,0,0,0,1.809,2.145" transform="translate(-162.833 -448.369)" fill="#706f6f"/>
                      </g>
                    </g>
                  </g>
                </g>
              </g>
            </g>
            <path id="Trazado_18421" data-name="Trazado 18421" d="M304.994,295.882l7.213-.886c-3.66,10.287-14.939,17.076-14.939,17.076s-12.068-4.1-18.214-13.005l4.386-.539,3.5,4.806a2.467,2.467,0,0,0,2.269.993l.016,0a2.463,2.463,0,0,0,1.959-1.472l2.383-5.568,5.734-.7,2.525-6.4Z" transform="translate(-218.943 -227.832)" fill="#f85a68"/>
            <path id="Trazado_18422" data-name="Trazado 18422" d="M300.822,237.206a12.976,12.976,0,0,1,.09,1.334,17.716,17.716,0,0,1-.067,2.2l-5.781.71-3.84-6.894a2.466,2.466,0,0,0-2.309-1.256c-.045,0-.089.007-.134.013a2.458,2.458,0,0,0-1.988,1.536l-3.159,8-5.647.694-1.96,4.584-2.9-3.987-8.874,1.09a12.289,12.289,0,0,1-.928-3.417c-.045-.371-.071-.727-.083-1.091l-.014-.116h.011c-.159-5.942,3.721-10.751,9.072-11.408a10.172,10.172,0,0,1,8.939,3.593,10.194,10.194,0,0,1,7.8-5.674c5.55-.681,10.647,3.348,11.684,9.482l.011,0s.037.3.055.445c.006.051.017.106.023.157" transform="translate(-206.526 -178.298)" fill="#f85a68"/>
            <path id="Trazado_18423" data-name="Trazado 18423" d="M257.661,279.969l-.015,0a1.548,1.548,0,0,1-1.423-.626l-3.813-5.238L240.5,275.569a1.366,1.366,0,1,1-.333-2.712l13.5-1.658,3.53,4.849,2.386-5.575,5.665-.7,3.358-8.509a1.545,1.545,0,0,1,2.788-.184l4.137,7.43,11.455-1.406a1.366,1.366,0,0,1,.333,2.712l-13.28,1.631-3.812-6.846-3.033,7.686-5.716.7-2.589,6.05a1.549,1.549,0,0,1-1.232.926" transform="translate(-187.495 -204.379)" fill="#8bcfca"/>
            <g id="Grupo_13249" data-name="Grupo 13249" transform="translate(58.882 53.692)" style="mix-blend-mode: screen;isolation: isolate">
              <g id="Grupo_13248" data-name="Grupo 13248">
                <g id="Grupo_13247" data-name="Grupo 13247" clip-path="url(#clip-path-15)">
                  <path id="Trazado_18424" data-name="Trazado 18424" d="M274.544,252.72c-1.7,2.473-1.563,5.511.3,6.785s4.74.3,6.435-2.172,1.563-5.511-.3-6.785-4.74-.3-6.435,2.172" transform="translate(-273.354 -249.988)" fill="#1d1d1b"/>
                </g>
              </g>
            </g>
          </g>
        </g>
      </g>
    </g>
  </g>
</svg>
