<svg xmlns="http://www.w3.org/2000/svg" xmlns:xlink="http://www.w3.org/1999/xlink" width="705.59" height="329.384" viewBox="0 0 705.59 329.384">
  <defs>
    <clipPath id="clip-path">
      <rect id="Rectángulo_8393" data-name="Rectángulo 8393" width="705.59" height="329.384" fill="none"/>
    </clipPath>
    <clipPath id="clip-path-2">
      <rect id="Rectángulo_8392" data-name="Rectángulo 8392" width="705.588" height="329.384" fill="none"/>
    </clipPath>
    <clipPath id="clip-path-3">
      <rect id="Rectángulo_8370" data-name="Rectángulo 8370" width="83.07" height="23.227" fill="none"/>
    </clipPath>
    <clipPath id="clip-path-4">
      <rect id="Rectángulo_8371" data-name="Rectángulo 8371" width="167.957" height="53.089" fill="none"/>
    </clipPath>
  </defs>
  <g id="Grupo_13581" data-name="Grupo 13581" transform="translate(-382 -711.816)">
    <g id="Grupo_13105" data-name="Grupo 13105" transform="translate(382 711.816)">
      <g id="Grupo_13104" data-name="Grupo 13104" clip-path="url(#clip-path)">
        <g id="Grupo_13103" data-name="Grupo 13103">
          <g id="Grupo_13102" data-name="Grupo 13102" clip-path="url(#clip-path-2)">
            <path id="Trazado_17825" data-name="Trazado 17825" d="M624.08,446.421c-17.1-12.816-33.517,3.923-57.457-7.021s25.309-64.981,5.472-81.4-52.669,18.468-52.669,18.468,57.457-71.821,35.569-80.779-160.328-31.861-160.328-31.861L369.652,408.118c-5.116-6.618-15.956-15.153-25.344-4.385-12.487,14.324,29.384,45.177,22.772,51.421s-22.405-20.2-35.767-9.858,3.777,28.087,3.777,28.087l37.5.522s.006-.464.016-1.309H637.091s4.089-13.36-13.011-26.175" transform="translate(-178.697 -144.522)" fill="#a8d29f"/>
            <path id="Trazado_17826" data-name="Trazado 17826" d="M568.31,244.07,551.087,448.85s-1.8,12.413,7.429,12.435c15.182.036,75.564,0,75.564,0s-11.426-2.584-11.288-8.4c.163-6.853,20.13-210.756,20.13-210.756Z" transform="translate(-301.798 -132.636)" fill="#d86713"/>
            <path id="Trazado_17827" data-name="Trazado 17827" d="M644.992,453.069c-2.986.009-60.659.19-75.443,0-6.443-.08-7.573-5.729-7.626-9.385a18.3,18.3,0,0,1,.2-3.048l.448-5.323,1.141-13.566,1.008-11.985,1.3-15.4,1.091-13L579.34,235.851l74.613-1.936s-8.409,85.332-14.357,147.447c-.664,6.92-1.3,13.556-1.88,19.751q-.284,2.966-.548,5.794c-.551,5.877-1.056,11.274-1.494,16.039-.232,2.511-.445,4.845-.638,6.983-.759,8.377-1.2,13.726-1.21,14.743a8.63,8.63,0,0,0,.145,1.657c1.225,6.526,9.9,6.74,11.022,6.74" transform="translate(-307.81 -128.135)" fill="#ee9849"/>
            <path id="Trazado_17828" data-name="Trazado 17828" d="M546.867,0H188.651L230.6,168.509l5.744,23.078,19.539,78.487h363Z" transform="translate(-103.34 0)" fill="#f1a34f"/>
            <path id="Trazado_17829" data-name="Trazado 17829" d="M181.607,0l-5.814,1.938,65.319,274,7.73-5.862Z" transform="translate(-96.297 0)" fill="#ee9849"/>
            <path id="Trazado_17830" data-name="Trazado 17830" d="M320.234,603.084H681l9.963-5.862h-363Z" transform="translate(-175.419 -327.148)" fill="#d86713"/>
            <rect id="Rectángulo_8369" data-name="Rectángulo 8369" width="78.111" height="3.712" transform="translate(271.506 325.016)" fill="#f1a34f"/>
            <path id="Trazado_17831" data-name="Trazado 17831" d="M639.735,610.182l-.4,2.838L565.873,627.86l1.008-11.985.48-5.693Z" transform="translate(-309.976 -334.247)" fill="#d86713"/>
            <g id="Grupo_13098" data-name="Grupo 13098" transform="translate(254.112 301.794)" opacity="0.4">
              <g id="Grupo_13097" data-name="Grupo 13097">
                <g id="Grupo_13096" data-name="Grupo 13096" clip-path="url(#clip-path-3)">
                  <path id="Trazado_17832" data-name="Trazado 17832" d="M644.995,690.505c-2.986.009-60.659.19-75.443,0-6.443-.08-7.573-5.729-7.626-9.385l73.113-13.756c-.759,8.377-1.2,13.726-1.21,14.743a8.64,8.64,0,0,0,.145,1.657c1.225,6.526,9.9,6.74,11.022,6.74" transform="translate(-561.925 -667.365)" fill="#d86713"/>
                </g>
              </g>
            </g>
            <g id="Grupo_13101" data-name="Grupo 13101" transform="translate(139.33 216.985)" opacity="0.4">
              <g id="Grupo_13100" data-name="Grupo 13100">
                <g id="Grupo_13099" data-name="Grupo 13099" clip-path="url(#clip-path-4)">
                  <path id="Trazado_17833" data-name="Trazado 17833" d="M476.061,479.857,321.319,532.914,308.1,479.826Z" transform="translate(-308.104 -479.825)" fill="#d86713"/>
                </g>
              </g>
            </g>
            <path id="Trazado_17834" data-name="Trazado 17834" d="M546.866,0H188.65l53.988,216.985,362.35.069Z" transform="translate(-103.339 0)" fill="#699dee"/>
            <path id="Trazado_17835" data-name="Trazado 17835" d="M736.391,528.978a12.275,12.275,0,0,0-11.512-9.638c-5.323,0-8.8,4.315-7.765,9.638a12.275,12.275,0,0,0,11.512,9.638c5.323,0,8.8-4.315,7.765-9.638" transform="translate(-392.723 -284.486)" fill="#d86713"/>
            <path id="Trazado_17836" data-name="Trazado 17836" d="M606.067,221.731h-335.4L232.684,70.419l-2.911-11.6-2.485-9.9L221.462,25.71H552.027l6.4,23.208,2.729,9.9,3.2,11.6Z" transform="translate(-121.313 -14.083)" fill="#e9f3fe"/>
            <path id="Trazado_17837" data-name="Trazado 17837" d="M552.027,25.71H221.462l5.825,23.208H558.424Z" transform="translate(-121.313 -14.083)" fill="#afcdfb"/>
            <path id="Trazado_17838" data-name="Trazado 17838" d="M482.89,158.449h33.438l4.338,16.761H487.228Z" transform="translate(-264.519 -86.796)" fill="#a8d29f"/>
            <path id="Trazado_17839" data-name="Trazado 17839" d="M345.483,195.515h33.438l4.14,16H349.71Z" transform="translate(-189.25 -107.1)" fill="#a8d29f"/>
            <path id="Trazado_17840" data-name="Trazado 17840" d="M705.464,158.449H738.9l4.338,16.761H709.8Z" transform="translate(-386.441 -86.796)" fill="#a8d29f"/>
            <path id="Trazado_17841" data-name="Trazado 17841" d="M724.218,233.425h33.438l4.14,16H728.445Z" transform="translate(-396.714 -127.866)" fill="#a8d29f"/>
            <path id="Trazado_17842" data-name="Trazado 17842" d="M669.148,306.708h67.058l4.157,16.761H673.487Z" transform="translate(-366.548 -168.009)" fill="#a8d29f"/>
            <rect id="Rectángulo_8372" data-name="Rectángulo 8372" width="333.047" height="0.974" transform="translate(114.721 71.167)" fill="#afcdfb"/>
            <rect id="Rectángulo_8373" data-name="Rectángulo 8373" width="332.791" height="0.974" transform="translate(119.502 87.928)" fill="#afcdfb"/>
            <rect id="Rectángulo_8374" data-name="Rectángulo 8374" width="334.014" height="0.974" transform="translate(122.804 104.689)" fill="#afcdfb"/>
            <rect id="Rectángulo_8375" data-name="Rectángulo 8375" width="333.619" height="0.973" transform="translate(127.726 121.451)" fill="#afcdfb"/>
            <rect id="Rectángulo_8376" data-name="Rectángulo 8376" width="333.907" height="0.974" transform="translate(131.962 138.212)" fill="#afcdfb"/>
            <rect id="Rectángulo_8377" data-name="Rectángulo 8377" width="334.445" height="0.973" transform="translate(135.95 154.973)" fill="#afcdfb"/>
            <rect id="Rectángulo_8378" data-name="Rectángulo 8378" width="334.859" height="0.974" transform="translate(140.061 171.734)" fill="#afcdfb"/>
            <rect id="Rectángulo_8379" data-name="Rectángulo 8379" width="334.88" height="0.974" transform="translate(144.565 188.495)" fill="#afcdfb"/>
            <path id="Trazado_17843" data-name="Trazado 17843" d="M253.772,42.487a2.192,2.192,0,0,0-2.178,2.9,3.963,3.963,0,0,0,3.625,2.9,2.192,2.192,0,0,0,2.178-2.9,3.963,3.963,0,0,0-3.625-2.9" transform="translate(-137.77 -23.274)" fill="#e9f3fe"/>
            <path id="Trazado_17844" data-name="Trazado 17844" d="M275.088,42.487a2.192,2.192,0,0,0-2.178,2.9,3.963,3.963,0,0,0,3.624,2.9,2.192,2.192,0,0,0,2.178-2.9,3.963,3.963,0,0,0-3.625-2.9" transform="translate(-149.446 -23.274)" fill="#e9f3fe"/>
            <path id="Trazado_17845" data-name="Trazado 17845" d="M301.666,45.388a3.963,3.963,0,0,0-3.625-2.9,2.192,2.192,0,0,0-2.178,2.9,3.963,3.963,0,0,0,3.625,2.9,2.192,2.192,0,0,0,2.178-2.9" transform="translate(-162.02 -23.274)" fill="#e9f3fe"/>
            <path id="Trazado_17846" data-name="Trazado 17846" d="M585.107,261.807l.942-.244L546.919,110.372h27.5l-3.2-11.6h-27.3l-.032-.122-.471.122H510.477l-.032-.122-.471.122H477.039l-.031-.122-.472.122H443.6l-.032-.122-.472.122H410.163l-.032-.122-.471.122H376.724l-.032-.122-.472.122H343.286l-.032-.122-.471.122H309.848l-.032-.122-.471.122H276.41l-.032-.122-.471.122H239.839l2.911,11.6h35.656L317.6,261.807l.942-.244L279.413,110.372h32.433l39.194,151.434.943-.244L312.851,110.372h32.433l39.194,151.434.943-.244L346.289,110.372h32.433l39.194,151.434.943-.244L379.728,110.372H412.16l39.194,151.434.943-.244L413.166,110.372H445.6l39.194,151.434.942-.244L446.6,110.372h32.433l39.194,151.434.943-.244L480.042,110.372h32.432l39.195,151.434.942-.244L513.48,110.372h32.433Z" transform="translate(-131.38 -54.037)" fill="#afcdfb"/>
            <rect id="Rectángulo_8380" data-name="Rectángulo 8380" width="69.986" height="69.987" transform="translate(614.022 143.293)" fill="#d86713"/>
            <rect id="Rectángulo_8381" data-name="Rectángulo 8381" width="69.986" height="69.987" transform="translate(635.601 143.293)" fill="#ee9849"/>
            <path id="Trazado_17847" data-name="Trazado 17847" d="M1478.384,420.075a5.111,5.111,0,1,0,5.133,5.09,5.111,5.111,0,0,0-5.133-5.09" transform="translate(-807.045 -230.11)" fill="#ebf2f9"/>
            <path id="Trazado_17848" data-name="Trazado 17848" d="M1478.427,354.309h0a5.111,5.111,0,1,0-5.133-5.09,5.112,5.112,0,0,0,5.133,5.09" transform="translate(-807.045 -188.485)" fill="#ebf2f9"/>
            <rect id="Rectángulo_8382" data-name="Rectángulo 8382" width="43.803" height="10.223" transform="translate(649.368 173.266) rotate(-0.238)" fill="#ebf2f9"/>
            <rect id="Rectángulo_8383" data-name="Rectángulo 8383" width="59.829" height="59.829" transform="translate(14.22 191.783)" fill="#4a75cb"/>
            <rect id="Rectángulo_8384" data-name="Rectángulo 8384" width="59.829" height="59.829" transform="translate(32.667 191.783)" fill="#699dee"/>
            <rect id="Rectángulo_8385" data-name="Rectángulo 8385" width="37.446" height="8.739" transform="translate(44.453 217.328)" fill="#ebf2f9"/>
            <path id="Trazado_17849" data-name="Trazado 17849" d="M379.265,668.744l3.491,14.7,5.229-.03.192-14.674Z" transform="translate(-207.755 -366.327)" fill="#e49963"/>
            <path id="Trazado_17850" data-name="Trazado 17850" d="M476.537,667.786l9.934,14.078,3.871-4.971-5.979-11.042Z" transform="translate(-261.039 -364.742)" fill="#e49963"/>
            <path id="Trazado_17851" data-name="Trazado 17851" d="M361.937,239.477a10.12,10.12,0,0,0-5.482-1.049,2.56,2.56,0,0,1,1.156-.549,8.493,8.493,0,0,0-3.033.791c-13.053-5.03-15.1,14.19-14.83,18.655s-4.386,5.922-11.177,9.44c-12.957,6.712-14.095,15.7-14.095,15.7q.151.09.318.2c.643-1.089,1.967-3.134,3.082-3.443a46.269,46.269,0,0,0-1.795,4.373c3.823,2.908,10.973,9.35,15.957,13.919a7.327,7.327,0,0,1,.34-2.83l.616,3.708c2.667,2.452,4.506,4.176,4.506,4.176-.329-3.608,16.319-22.649,25-28.352,2.115-3.113,2.866-8.612,2.922-9.044-.365,4.36-1.111,6.806-1.777,8.183,7.355-6.769,3.073-31.164-1.712-33.883" transform="translate(-172.265 -130.284)" fill="#163560"/>
            <path id="Trazado_17852" data-name="Trazado 17852" d="M404.648,303.345c.043.019-4.194,2.219-7.381,1.348-3-.817-4.957-4.7-4.916-4.713,1.27-.252,1.636-2,1.609-9.494l.574.113,9.651,1.911s-.22,3.037-.226,5.9c-.007,2.4.139,4.681.689,4.937" transform="translate(-214.923 -159.123)" fill="#e49963"/>
            <path id="Trazado_17853" data-name="Trazado 17853" d="M395.411,245.6s4.761-5.068,10.738-.259c0,0-3.478-.6-10.738.259" transform="translate(-216.599 -133.257)" fill="#e37970"/>
            <path id="Trazado_17854" data-name="Trazado 17854" d="M406.83,292.646s-.22,3.037-.226,5.9c-5.4-.152-8.255-5.079-9.425-7.809Z" transform="translate(-217.568 -159.26)" fill="#d68d5d"/>
            <path id="Trazado_17855" data-name="Trazado 17855" d="M390.624,264.392s-2.83-4.472-3.509-8.3c-.485-2.73.905-12.849,11.073-11.391a13.808,13.808,0,0,1,5.729,2.166c2.208,1.491,5.394,4.71,1.832,13.54l-.925,2.983Z" transform="translate(-212.009 -133.967)" fill="#163560"/>
            <path id="Trazado_17856" data-name="Trazado 17856" d="M437.223,547.652l-5.116.156-5.537.17a109.307,109.307,0,0,1-19.964-37.068q-.251-.8-.53-1.611c-3.927-11.448-12.066-25.819-16.355-38.826-.683-2.072-1.3-4.022-1.846-5.868q-.265-.887-.511-1.743a137.948,137.948,0,0,1-4.92-25.9l30.974.247a577.4,577.4,0,0,0,23.806,110.443" transform="translate(-209.496 -239.36)" fill="#2b478b"/>
            <path id="Trazado_17857" data-name="Trazado 17857" d="M393,349.528c-.078,14.739,2.162,21.063,2.162,21.063a41.62,41.62,0,0,1-29.024,1.778c-.186-.058-13.051-2.995-13.051-2.995.264-.6,2.61-10.53,2.867-11.077,3.328-7.146,5.855-10.28,6.249-12.477a46.714,46.714,0,0,0,.383-12.349,99.068,99.068,0,0,0-3.822-19.392c4.3-.977,8.317-2.694,12.786-4.37,1.028,1.28,4.171,2.62,6.9,2.559,3.14-.069,4.158-1.413,3.995-2.881,3.346,1.862,6.015,3.62,6.015,3.62,2.844,4.94,8.611,9.736,9.028,17.313.1,1.863-4.486,18.795-4.488,19.207" transform="translate(-193.416 -169.477)" fill="#e7f1fd"/>
            <path id="Trazado_17858" data-name="Trazado 17858" d="M446.609,327.631c-4.547-5.312-16.328-16.831-28.485-18.244l10.491,20.437a9.043,9.043,0,0,0,3.7,5.544c7.609,5,17.284,7.211,17.284,7.211a90.822,90.822,0,0,0,15.508-9.421c2.811-2.06,7.751-9.917,7.751-9.917l-1.333-4.458s-8.387,4.689-11.383,6.042c-1.708.771-5.638,2.611-8.408,3.912a4.322,4.322,0,0,1-5.122-1.1" transform="translate(-229.041 -169.477)" fill="#c65447"/>
            <path id="Trazado_17859" data-name="Trazado 17859" d="M406.846,274.835s-12.777.211-12.786-7.748-1.664-13.292,6.494-13.763,9.746,2.565,10.4,5.22-.78,16.032-4.1,16.292" transform="translate(-215.781 -138.74)" fill="#e49963"/>
            <path id="Trazado_17860" data-name="Trazado 17860" d="M401.4,250.992s-3.5,9.337-8.867,10.718-7.7-.058-7.7-.058a15.2,15.2,0,0,0,4.973-8.982s8.953-6.122,11.592-1.678" transform="translate(-210.804 -136.603)" fill="#163560"/>
            <path id="Trazado_17861" data-name="Trazado 17861" d="M419.545,252.784s2.612,2.085,3.25,4.112.923,6.2,2.139,6.057c0,0,2.636-6.346-.326-9.937-3.141-3.807-5.063-.232-5.063-.232" transform="translate(-229.82 -137.637)" fill="#163560"/>
            <path id="Trazado_17862" data-name="Trazado 17862" d="M536.2,323.3a7.976,7.976,0,0,1,8.938-5.574c.819.256,3.213,1.211,1.683,3.773-1.128,1.888-1.616.914-3.39,3.452s-3.7,3.111-5.9,2.808Z" transform="translate(-293.723 -173.997)" fill="#e49963"/>
            <path id="Trazado_17863" data-name="Trazado 17863" d="M385.692,699.442a14.172,14.172,0,0,1-.666,6.029s-.856,3.9,2.985,3.972,4.783-.289,4.348-2.681-1.262-6.527-1.262-6.527Z" transform="translate(-210.866 -383.142)" fill="#e49963"/>
            <path id="Trazado_17864" data-name="Trazado 17864" d="M392.315,718.291s-.082.05-.241.128h-7.518a1.871,1.871,0,0,1-.212-.128,18.862,18.862,0,0,1,.275-5.639c4.35,3.986,7.072-.1,7.072-.1.707,1.7.625,5.738.625,5.738" transform="translate(-210.46 -390.324)" fill="#c45446"/>
            <path id="Trazado_17865" data-name="Trazado 17865" d="M509.942,702.126s-7.081-7.86-9.255-11.859l-5.266,2.7,11.77,11.054,2.754-.362Z" transform="translate(-271.383 -378.116)" fill="#e49963"/>
            <path id="Trazado_17866" data-name="Trazado 17866" d="M512.719,709.478h-9.69c-.934-.7-1.8-2.311-2.888-4.478a4.748,4.748,0,0,0-3.207-2.143V709.4h-2.01l-1.9-6.959c-1.252-2.3-.1-4.393.784-6.213,1.025,0,3.786.7,9.017,6.594a6.857,6.857,0,0,0,5.5,2.568.523.523,0,0,0,.077.041c3.156,1.418,4.058,3.182,4.316,4.043" transform="translate(-269.767 -381.384)" fill="#c45446"/>
            <path id="Trazado_17867" data-name="Trazado 17867" d="M418,309.388s7.392,18.262,7.61,21.959.87,60.439.87,60.439-.435,2.609,4.566,1.522,6.3-2.174,6.3-2.174-4.783-35-3.478-47.178-10-32.031-10-32.031Z" transform="translate(-228.975 -169.477)" fill="#c65447"/>
            <path id="Trazado_17868" data-name="Trazado 17868" d="M438.067,574.988l-5.537.17a109.3,109.3,0,0,1-19.964-37.068q-.251-.8-.53-1.611c-3.927-11.449-12.066-25.819-16.355-38.827-.683-2.072-1.3-4.022-1.846-5.868q-.265-.887-.511-1.744l4.562-3.461s13.694,22.175,17.934,43.045c3.683,18.127,18.432,39.94,22.25,45.364" transform="translate(-215.455 -266.54)" fill="#233862"/>
            <path id="Trazado_17869" data-name="Trazado 17869" d="M442.28,372.69l-.269.827-14.335-4.66a.552.552,0,0,1-.091-.51.407.407,0,0,1,.36-.316Z" transform="translate(-234.209 -201.601)" fill="#163560"/>
            <path id="Trazado_17870" data-name="Trazado 17870" d="M375.726,524.439c.078,10.148-.435,33.481-1.756,43.14h-4.9c-2.711,0-4.064-.038-4.064-.038-3.315-16.795-5.674-30.692-7.392-42.666-1.409-9.827-2.661-18.252-3.624-25.5-.97-7.3-1.643-13.41-1.885-18.573q-.056-1.22-.08-2.372t-.013-2.251l26.763-2.608c-.337,17.781-3.087,44.975-3.043,50.873" transform="translate(-192.822 -259.411)" fill="#2b478b"/>
            <path id="Trazado_17871" data-name="Trazado 17871" d="M369.182,576.339c-2.711,0-4.063-.039-4.063-.039-3.316-16.795-5.674-30.692-7.392-42.666-1.409-9.827-2.661-18.251-3.624-25.5-.97-7.3-1.644-13.41-1.885-18.573l9.82,5.776s-6.268,2.211-3.876,18.951,7.692,59.685,11.021,62.055" transform="translate(-192.939 -268.171)" fill="#233862"/>
            <path id="Trazado_17872" data-name="Trazado 17872" d="M363.207,391.149s-1.885,6.812-8.407,5.942-15.8-4.783-15.8-4.783,2.787-8.807,6.252-20.378c4.2-14.007,9.39-32.065,11.838-43.455a70.514,70.514,0,0,0,1.331-7.765l5.411-10.5s8.068,18.108,8.5,22.673-9.131,58.265-9.131,58.265" transform="translate(-185.7 -169.928)" fill="#c65447"/>
            <path id="Trazado_17873" data-name="Trazado 17873" d="M364.316,332.2l7.141-21.993c-.019.009-9.02,2.678-13.548,4.965,0,0-2.829,3.648-4.581,12.066,0,0-1.85,20.209,2.281,27.6,0,0,13.044,2.609,33.915-4.566v-4.783s-22.827,1.2-27.5,1.739Z" transform="translate(-193.321 -169.928)" fill="#e49963"/>
            <path id="Trazado_17874" data-name="Trazado 17874" d="M370.491,364.574c-.291,7.392-2.03,21.741-17.538,29.422-.041.019-.082.041-.124.058,4.2-14.007,9.39-32.065,11.838-43.455,2.848,4.257,5.983,9.9,5.824,13.975" transform="translate(-193.274 -192.052)" fill="#aa413e"/>
            <path id="Trazado_17875" data-name="Trazado 17875" d="M370.618,310.211s-13.239.933-16.427,8.035-4.2,30.727-.145,37.684c0,0,5.587,1.591,15.469-.257l.365-.069s3.152-7.718.326-9.24c0,0-8.333.435-7.464-2.319s7.876-33.833,7.876-33.833" transform="translate(-192.482 -169.928)" fill="#c65447"/>
            <path id="Trazado_17876" data-name="Trazado 17876" d="M428.7,380.06a11.415,11.415,0,0,0,2.206-4.454c.388-2.25,1.591-3.919,4.73-4.331s4.488-.457,4.481.428-2.565,7.062-7.069,10.751-4.349-2.393-4.349-2.393" transform="translate(-234.832 -203.223)" fill="#e49963"/>
            <path id="Trazado_17877" data-name="Trazado 17877" d="M460.82,379.132l-1.031-.8-.269.827Z" transform="translate(-251.717 -207.245)" fill="#163560"/>
            <rect id="Rectángulo_8386" data-name="Rectángulo 8386" width="115.888" height="115.889" transform="translate(579.526 213.279)" fill="#d86713"/>
            <rect id="Rectángulo_8387" data-name="Rectángulo 8387" width="115.888" height="115.889" transform="translate(543.794 213.279)" fill="#f1a34f"/>
            <path id="Trazado_17878" data-name="Trazado 17878" d="M1320.429,547.371h-27.8v-27.8H1275.7v27.8h-27.8V564.3h27.8v27.8h16.927V564.3h27.8Z" transform="translate(-683.577 -284.611)" fill="#ebf2f9"/>
            <path id="Trazado_17879" data-name="Trazado 17879" d="M1458.773,471.631l35.732,17.4v-17.4Z" transform="translate(-799.091 -258.351)" fill="#c95c12"/>
            <path id="Trazado_17880" data-name="Trazado 17880" d="M1209.664,554.522a2.067,2.067,0,0,1,.369,2.212.016.016,0,0,1-.005.011c-.534,1.474-2.3,3.12-4.343,4.765-.262.211-.494.4-.7.581-.053.047-.107.094-.157.141s-.081.074-.121.109c-1.909,1.76-1.19,2.163-4.62,5.734-3.911,4.069-6.6,4.142-7.369,3.771-.648-.316.668-2.474,2.127-4.9.071-.117.14-.236.213-.354.194-.322.387-.65.58-.974,1.71-2.919,1.271-4.288.865-8.633-.33-3.53-5.492-19.723-5.492-19.723l7.494-1.291s2.256,12.894,4.743,14.879c1.33,1.059,2.818,1.072,4.1,1.856q.136.081.265.168a9.839,9.839,0,0,1,2.051,1.648" transform="translate(-652.417 -293.596)" fill="#e49963"/>
            <path id="Trazado_17881" data-name="Trazado 17881" d="M1211.526,574.795a2.067,2.067,0,0,1,.369,2.212.017.017,0,0,1-.005.011c-.654,1.473-2.371,3.111-4.35,4.75-.259.215-.487.412-.69.6-.053.047-.107.094-.156.141s-.081.074-.121.109c-1.909,1.76-1.19,2.163-4.62,5.734-3.911,4.069-6.6,4.142-7.369,3.771-.648-.316.668-2.474,2.127-4.9a16.67,16.67,0,0,0,6.971-5.137c2.354-3,3.925-6.865,5.529-9.1q.135.081.265.168a9.836,9.836,0,0,1,2.051,1.648" transform="translate(-654.279 -313.868)" fill="#c65447"/>
            <path id="Trazado_17882" data-name="Trazado 17882" d="M1071.381,547.079c-.463,2.313-3.76,1.927-7.444,1.027s-2.808.17-8.052-.411-6.831-2.535-6.991-3.315c-.143-.692,2.448-.936,5.226-1.256.35-.039.7-.083,1.052-.125,3.137-.394,5.435-2.418,8.285-4.081,2.7-1.575,6.728-7.992,6.728-7.992l7.19.57s-3.773,5.731-5.232,8.223a8.681,8.681,0,0,0-.706,4.9,9.223,9.223,0,0,1-.056,2.46" transform="translate(-574.563 -290.833)" fill="#e49963"/>
            <path id="Trazado_17883" data-name="Trazado 17883" d="M1063.937,562.882c-3.684-.9-2.808.17-8.052-.411s-6.831-2.536-6.991-3.315c-.143-.692,2.447-.936,5.226-1.256l.026.054a14.779,14.779,0,0,0,7.509,2.334c3.557.086,7.325-.933,9.781-.893a9.2,9.2,0,0,1-.055,2.46c-.463,2.313-3.76,1.927-7.444,1.027" transform="translate(-574.563 -305.608)" fill="#c65447"/>
            <path id="Trazado_17884" data-name="Trazado 17884" d="M1119.39,327.071s-1.713-4.2-3.6-4.368-7.881-1.114-8.309-.257a5.928,5.928,0,0,0,1.285,5.054c1.285,1.113,9.251,2.913,9.251,2.913Z" transform="translate(-606.573 -176.436)" fill="#e49963"/>
            <path id="Trazado_17885" data-name="Trazado 17885" d="M1159.562,451.01l15.5,41.705a14.2,14.2,0,0,0,4.663-.427,20.09,20.09,0,0,0,4.507-2.195s-3.844-40.044-10.892-48.373-13.775,9.29-13.775,9.29" transform="translate(-635.188 -240.742)" fill="#aa413e"/>
            <path id="Trazado_17886" data-name="Trazado 17886" d="M1180.986,412.763s-44.529-15.057-54.459-11.853-39.749,62.528-39.749,62.528a5.76,5.76,0,0,0,2.509,1.584c1.709.641,5.844.6,5.844.6s26.91-23.065,30.113-29.793,4.485-13.134,7.689-12.493,41.325,15.7,49.975,6.727,6.387-20.625,6.387-20.625Z" transform="translate(-595.318 -219.367)" fill="#c65447"/>
            <path id="Trazado_17887" data-name="Trazado 17887" d="M1229.82,226.894c-.711-1.468-1.506-4.076-1.9-8.725.06.462.861,6.324,3.116,9.643,9.26,6.081,27.01,26.381,26.659,30.228,0,0,6.253-10.6,6.36-10.667,0,0,11.533-14.666-2.136-23.067-6.947-4.269-6.912-9.749-6.621-14.509s-1.895-25.252-15.811-19.889a9.068,9.068,0,0,0-3.234-.844,2.731,2.731,0,0,1,1.233.585,10.8,10.8,0,0,0-5.845,1.118c-5.1,2.9-9.667,28.909-1.825,36.126" transform="translate(-671.364 -103.542)" fill="#b5453c"/>
            <path id="Trazado_17888" data-name="Trazado 17888" d="M1238.84,258.864c-.047.021,4.471,2.366,7.869,1.438,3.2-.872,5.285-5.016,5.241-5.026-1.353-.269-1.744-2.129-1.715-10.122l-.612.12-10.289,2.037s.234,3.238.241,6.289c.007,2.561-.148,4.991-.735,5.264" transform="translate(-678.615 -134.291)" fill="#e49963"/>
            <path id="Trazado_17889" data-name="Trazado 17889" d="M1239.932,247.457s.234,3.238.24,6.289c5.759-.162,8.8-5.414,10.048-8.326Z" transform="translate(-679.214 -134.437)" fill="#d68d5d"/>
            <path id="Trazado_17890" data-name="Trazado 17890" d="M1243.434,217.332s3.018-4.768,3.741-8.844c.517-2.91-.965-13.7-11.807-12.145a14.727,14.727,0,0,0-6.108,2.309c-2.354,1.59-5.751,5.022-1.953,14.437l.987,3.18Z" transform="translate(-671.364 -107.47)" fill="#b5453c"/>
            <path id="Trazado_17891" data-name="Trazado 17891" d="M1230.184,228.467s13.623.225,13.632-8.262,1.774-14.171-6.924-14.674-10.392,2.734-11.083,5.566.831,17.092,4.375,17.37" transform="translate(-671.388 -112.558)" fill="#e49963"/>
            <path id="Trazado_17892" data-name="Trazado 17892" d="M1241.918,204.837s-9.3-6.361-12.248-1.963c-.893-.766-2.482-1.32-4.584,1.229-3.158,3.828-.348,10.595-.348,10.595,1.3.151,1.6-4.3,2.282-6.459a10.808,10.808,0,0,1,3.031-4.014c1.188,2.679,4.458,9.091,8.963,10.249,5.724,1.472,8.207-.061,8.207-.061a16.211,16.211,0,0,1-5.3-9.577" transform="translate(-670.259 -110.282)" fill="#b5453c"/>
            <path id="Trazado_17893" data-name="Trazado 17893" d="M1263.11,340.184c-.735,2.04-2.988,2.565-6.008,2.211-5.759-.673-14.313-4.539-20.476-7.213-9.4-4.072-13.669-.245-16.659-2.838s3.417-8.357-2.135-35.125c-1.884-9.077,10.044-28.553,10.044-28.553s.825,5.277,12.456-1.128a106.765,106.765,0,0,1,9.227,14.62c4.771,9.051,9.341,19.984,8,25.619-2.563,10.741,7.689,26.482,5.553,32.409" transform="translate(-666.997 -146.552)" fill="#699dee"/>
            <path id="Trazado_17894" data-name="Trazado 17894" d="M1178.52,270.031l-7.033,28.891s-.876,1.559-2.249,3.778c-3.223,5.212-9.188,14.064-13.007,14.963-1.884.445-5.891-1.123-10.325-3.364a209.713,209.713,0,0,1-18.3-10.874c-.64-3.844,2.7-6.977,2.7-6.977s20.076,7.546,22.071,7.689c4.347.309,8.77-20.668,12.832-27.659,2.937-5.055,13.3-6.448,13.3-6.448" transform="translate(-617.642 -147.918)" fill="#699dee"/>
            <path id="Trazado_17895" data-name="Trazado 17895" d="M1236.174,244.1s-.254,1.078-2.936.912c0,0-2.251-.14-2.183-1.324a7.245,7.245,0,0,1,5.119.412" transform="translate(-674.35 -133.338)" fill="#fff"/>
            <path id="Trazado_17896" data-name="Trazado 17896" d="M1285.471,370.618c-.735,2.04-2.988,2.565-6.008,2.211-3.985-1.737-21.2-8.407-21.01-12.926.287-6.691,3.311-6.9,1.175-15.164-1.715-6.632,14.193-18.962,16.731-21.643,4.771,9.052,4.9,9.479,3.559,15.114-2.563,10.741,7.689,26.482,5.553,32.409" transform="translate(-689.358 -176.986)" fill="#4a75cb"/>
            <path id="Trazado_17897" data-name="Trazado 17897" d="M1191.5,340.878c-3.223,5.211-9.188,14.064-13.007,14.963-1.883.444-5.89-1.124-10.324-3.364a26.8,26.8,0,0,0,9.434.517c3.31-.32,4.272-4.378,9.5-10.465,3.394-3.947,4.227-2.954,4.393-1.651" transform="translate(-639.903 -186.097)" fill="#4a75cb"/>
            <path id="Trazado_17898" data-name="Trazado 17898" d="M1243.448,368.431s-2.883-2.242-5.606-1.708-4.058,2.4-3.952,3.257,1.549,3.257,3.631,3.471,8.009-1.282,8.009-1.282Z" transform="translate(-675.901 -200.84)" fill="#e49963"/>
            <path id="Trazado_17899" data-name="Trazado 17899" d="M1259.505,267.537s11.1.684,14.947,6.045c5.411,7.547,18.4,41.114,12.245,45.4-6.927,4.83-33.781-.142-33.781-.142s-.818-3.827.32-5.678,19.649-4.841,20.5-5.7-10.679-16.659-10.679-19.222-3.556-20.711-3.556-20.711" transform="translate(-686.17 -146.552)" fill="#699dee"/>
            <path id="Trazado_17900" data-name="Trazado 17900" d="M1190.152,372.811h-40.9l-7.373-25.71h40.834Z" transform="translate(-625.504 -190.136)" fill="#1c468a"/>
            <rect id="Rectángulo_8388" data-name="Rectángulo 8388" width="53.465" height="1.002" transform="translate(523.892 181.674)" fill="#163560"/>
            <path id="Trazado_17901" data-name="Trazado 17901" d="M1186.824,372.623a1.191,1.191,0,0,1,1.167-1.637,2.344,2.344,0,0,1,2.105,1.637,1.191,1.191,0,0,1-1.167,1.636,2.345,2.345,0,0,1-2.106-1.636" transform="translate(-650.086 -203.22)" fill="#163560"/>
            <rect id="Rectángulo_8389" data-name="Rectángulo 8389" width="76.461" height="76.461" transform="translate(20.881 251.612)" fill="#d86713"/>
            <rect id="Rectángulo_8390" data-name="Rectángulo 8390" width="76.461" height="76.461" transform="translate(44.457 251.612)" fill="#f1a34f"/>
            <path id="Trazado_17902" data-name="Trazado 17902" d="M180.074,628.032l-13.181-12.757,12.757-13.181-8.025-7.767-12.757,13.181-13.181-12.757-7.767,8.025L151.1,615.534l-12.757,13.181,8.025,7.767L159.126,623.3l13.181,12.757Z" transform="translate(-75.55 -325.562)" fill="#ebf2f9"/>
            <path id="Trazado_17903" data-name="Trazado 17903" d="M69.75,556.4,46.175,570.688V556.4Z" transform="translate(-25.294 -304.784)" fill="#c95c12"/>
            <path id="Trazado_17904" data-name="Trazado 17904" d="M956.384,283.658s17.824,18.152,18.68,25.095-8.486,17.806-8.486,17.806Z" transform="translate(-523.891 -155.383)" fill="#e58638"/>
            <path id="Trazado_17905" data-name="Trazado 17905" d="M910.708,702.187s-.379,6.116-1.477,8.749H886.944a4.053,4.053,0,0,1,3.284-2.355c3.492-.611,9.333-3.062,11.447-7.675,2.224-4.852,9.034,1.282,9.034,1.282" transform="translate(-485.853 -382.921)" fill="#163560"/>
            <path id="Trazado_17906" data-name="Trazado 17906" d="M969.518,702.187s-.379,6.116-1.474,8.749H945.757a4.045,4.045,0,0,1,3.284-2.355c3.489-.611,9.332-3.062,11.446-7.675,2.224-4.852,9.031,1.282,9.031,1.282" transform="translate(-518.07 -382.921)" fill="#163560"/>
            <path id="Trazado_17907" data-name="Trazado 17907" d="M910.249,455.225s3.123,19.973,14.773,55.428,13.237,50.809,13.237,50.809l12.5-.351s.106-38.748-5.263-56.577-1.159-64.276-1.159-64.276Z" transform="translate(-498.619 -241.166)" fill="#163560"/>
            <path id="Trazado_17908" data-name="Trazado 17908" d="M896.79,442.679a484.728,484.728,0,0,0,4.765,67.053c5.207,36.956,3.442,52.643,3.442,52.643l12.473.415s7.453-36.969,5.317-55.466,10.206-63.471,10.206-63.471Z" transform="translate(-491.241 -242.492)" fill="#1c468a"/>
            <path id="Trazado_17909" data-name="Trazado 17909" d="M930.51,268.9l-6.645,4.357-9.6-1.79c.133-.776.767-3.989,1.344-6.9.035-.172.07-.344.1-.511.494-2.476.922-4.6.922-4.6l8.97-3.957,3.344-1.475c-.009.052-.259,2.748-.294,3.142A22.868,22.868,0,0,0,930.51,268.9" transform="translate(-500.817 -139.149)" fill="#ffb27d"/>
            <path id="Trazado_17910" data-name="Trazado 17910" d="M935.2,358.017c-1.929,8.8-34.028,9.842-42.3,1.855-.941-.911-.988-5.146-.633-10.857.695-11.158,2.924-27.941,3.011-36.516a67.925,67.925,0,0,1,1.369-12.223,99.256,99.256,0,0,1,4.072-14.629s15.678-5.069,18.612-4.207c14.134,4.153,17.8,67.776,15.871,76.576" transform="translate(-488.655 -154.115)" fill="#ee9849"/>
            <path id="Trazado_17911" data-name="Trazado 17911" d="M892.512,369.936c.695-11.158,2.924-27.941,3.011-36.516a67.914,67.914,0,0,1,1.369-12.223l9.431-1.664s9.221,37.663-13.812,50.4" transform="translate(-488.903 -175.035)" fill="#e58638"/>
            <path id="Trazado_17912" data-name="Trazado 17912" d="M900.552,394.823a2.221,2.221,0,0,1-.707,2.569c-1.35,1.031-2.225,2.7-1.916,3.924s3.271,3.215,4.3,2.893,3.116-1.931,2.891-2.574,1.406-5.654-1.1-7.584-3.467.771-3.467.771" transform="translate(-491.836 -215.474)" fill="#ffb27d"/>
            <path id="Trazado_17913" data-name="Trazado 17913" d="M893.749,285.871s-9.2,1.722-16.527,12.522-12.151,18.831-10.8,22.723S880.078,338.51,882.2,338.51s5.545-1.543,5.738-5.015c0,0-8.664-12.985-6.958-14.93.729-.831,11.249-9.371,12.751-5.514,2.485,6.383.018-27.18.018-27.18" transform="translate(-474.487 -156.595)" fill="#ee9849"/>
            <path id="Trazado_17914" data-name="Trazado 17914" d="M929.6,259.073c-1.969,3.336-9.31,6.222-12.371,7.283.035-.171.07-.343.1-.511.494-2.476.922-4.6.922-4.6l8.97-3.957c1.982-.028,3.189.417,2.377,1.79" transform="translate(-502.445 -140.935)" fill="#fca56b"/>
            <path id="Trazado_17915" data-name="Trazado 17915" d="M909.832,236.024s14.449,4.507,17.117-4.534,6.331-14.548-2.782-17.808-11.931-.341-13.556,2.46-4.469,18.478-.78,19.883" transform="translate(-497.401 -116.263)" fill="#ffb27d"/>
            <path id="Trazado_17916" data-name="Trazado 17916" d="M913.353,209.29s.922,10.522,3.1,10.065,4.149-.8,3.83,2.376-3.336,6.833,3.37,7.394,16.345-16.732,14.5-20.006c-5.315-9.448-32.483-11.354-24.8.17" transform="translate(-499.575 -110.283)" fill="#163560"/>
            <path id="Trazado_17917" data-name="Trazado 17917" d="M915.045,278.355c.186-.079,11.565-3.436,12.8-3.028s1.968,2.8,1.968,2.8L911.2,282.335s1.465-2.978,3.842-3.979" transform="translate(-499.142 -150.801)" fill="#e58638"/>
            <path id="Trazado_17918" data-name="Trazado 17918" d="M121.078,323.289s-6.032-7.037-.372-11.507c0,0,4.134-2.5,7.5-2.3,0,0-4.777,8.01-3.231,8.806s4.679-9.309,4.679-9.309,9.408-.912,12.435.543c0,0-8.043,6.581-6.349,6.973s10.381-6.068,10.381-6.068,8.756,1.49,8.289,6.831-3.484,6.991-4.81,6.849-9.083-3.1-9.252-2.016,4.5,4.637,7.77,4.8c0,0-6.174,6.808-10.276,4.843s-4.453-5.08-7.011-6.248-4.741-1.165-3.685.026,5.684,2.349,7.147,4.936,2.775,4.332-1.47,3.693-11.144-3.745-11.447-7.3Z" transform="translate(-64.794 -169.099)" fill="#82b378"/>
            <path id="Trazado_17919" data-name="Trazado 17919" d="M147.086,327.9s-23.783-.917-29.035,5.885a17.2,17.2,0,0,1-4.736,6.646l-.557,1.518s4.122-4.345,5.6-4.608c0,0-2.306-8.427,28.732-9.442" transform="translate(-61.767 -179.595)" fill="#82b378"/>
            <path id="Trazado_17920" data-name="Trazado 17920" d="M107.378,354.936a14.933,14.933,0,0,0-5.459,10.521l.927.083s1.63-6.975,4.577-9.7-.044-.9-.044-.9" transform="translate(-55.829 -194.1)" fill="#82b378"/>
            <path id="Trazado_17921" data-name="Trazado 17921" d="M35.2,291.3s9.6-5.373,5.117-12.665c0,0-3.582-4.478-7.42-5.629,0,0,2.047,10.874,0,11.13s-1.407-12.282-1.407-12.282-10.107-4.861-14.073-4.477c0,0,6.269,10.618,4.222,10.362s-9.083-11-9.083-11S2.189,264.814.525,270.955s1.023,9.211,2.559,9.595,11.386.256,11.13,1.535S7.306,285.411,3.6,284.259c0,0,4.094,10.108,9.467,9.6s7.036-3.838,10.363-4.094,5.757.64,4.094,1.535-7.292.294-9.979,2.578-4.861,3.691.128,4.715,13.945.383,15.736-3.454Z" transform="translate(0 -145.956)" fill="#a8d29f"/>
            <path id="Trazado_17922" data-name="Trazado 17922" d="M11.628,280.655s26.866,8.7,29.937,18.422a20.411,20.411,0,0,0,2.559,9.34v1.919s-2.815-6.525-4.35-7.42c0,0,6.013-8.443-28.146-22.261" transform="translate(-6.37 -153.738)" fill="#82b378"/>
            <path id="Trazado_17923" data-name="Trazado 17923" d="M81.931,340.6a17.721,17.721,0,0,1,1.781,13.951l-1.066-.287s1.035-8.436-1.133-12.678.418-.986.418-.986" transform="translate(-44.177 -185.92)" fill="#82b378"/>
            <path id="Trazado_17924" data-name="Trazado 17924" d="M101.511,265.332s-12.648-7.083-6.746-16.7c0,0,4.722-5.9,9.781-7.42,0,0-2.7,14.334,0,14.671S106.4,239.7,106.4,239.7s13.322-6.408,18.55-5.9c0,0-8.263,14-5.565,13.66s11.973-14.5,11.973-14.5,13.66-2.529,15.852,5.565-1.349,12.142-3.373,12.648-15.01.337-14.672,2.024,9.107,4.385,14,2.867c0,0-5.4,13.323-12.479,12.648s-9.275-5.059-13.66-5.4-7.589.843-5.4,2.024,9.613.387,13.154,3.4,6.408,4.865-.169,6.215-18.382.506-20.743-4.553Z" transform="translate(-51.051 -127.403)" fill="#a8d29f"/>
            <path id="Trazado_17925" data-name="Trazado 17925" d="M146.96,251.307s-35.414,11.467-39.462,24.284a26.9,26.9,0,0,1-3.373,12.311v2.53s3.71-8.6,5.734-9.781c0,0-7.926-11.131,37.1-29.344" transform="translate(-57.038 -137.662)" fill="#82b378"/>
            <path id="Trazado_17926" data-name="Trazado 17926" d="M100.119,330.323a23.356,23.356,0,0,0-2.348,18.389l1.405-.378s-1.364-11.12,1.493-16.712-.55-1.3-.55-1.3" transform="translate(-53.032 -180.083)" fill="#82b378"/>
            <path id="Trazado_17927" data-name="Trazado 17927" d="M80.63,391.3a24.776,24.776,0,0,0,24.776-24.776H55.854A24.776,24.776,0,0,0,80.63,391.3" transform="translate(-30.596 -200.774)" fill="#f1a34f"/>
            <path id="Trazado_17928" data-name="Trazado 17928" d="M90.383,391.106A24.789,24.789,0,0,1,62.531,366.52h6.155a24.78,24.78,0,0,0,21.7,24.586" transform="translate(-34.253 -200.773)" fill="#ffb973"/>
            <path id="Trazado_17929" data-name="Trazado 17929" d="M102.277,417.336H58.155a3.056,3.056,0,0,0-3.057,3.057h50.235a3.056,3.056,0,0,0-3.057-3.057" transform="translate(-30.182 -228.61)" fill="#f1a34f"/>
            <rect id="Rectángulo_8391" data-name="Rectángulo 8391" width="50.929" height="0.76" transform="translate(24.444 165.746)" fill="#d86713"/>
          </g>
        </g>
      </g>
    </g>
  </g>
</svg>
