<svg xmlns="http://www.w3.org/2000/svg" xmlns:xlink="http://www.w3.org/1999/xlink" width="273" height="215.633" viewBox="0 0 273 215.633">
  <defs>
    <clipPath id="clip-path">
      <rect id="Rectángulo_6852" data-name="Rectángulo 6852" width="273" height="215.633" fill="none"/>
    </clipPath>
  </defs>
  <g id="Grupo_13577" data-name="Grupo 13577" transform="translate(-178 -7231.069)">
    <g id="Grupo_10975" data-name="Grupo 10975" transform="translate(178 7231.069)">
      <g id="Grupo_10974" data-name="Grupo 10974" clip-path="url(#clip-path)">
        <path id="Trazado_14750" data-name="Trazado 14750" d="M23.649,346.194l-2.763-1.567a15.429,15.429,0,0,1-2.6,3.131,1.934,1.934,0,0,1-2.644-.037l-.088-.085a1.929,1.929,0,0,1,.051-2.831,11.267,11.267,0,0,0,2.332-2.846c.94-1.658.943-3.155-.22-3.814-1.1-.627-2.331-.092-4.278,1.648-2.811,2.518-5.469,3.816-8.291,2.216-2.559-1.451-3.543-4.392-2.39-7.85L0,332.592l1.616-2.85,2.559,1.451a14.25,14.25,0,0,1,1.888-2.437,1.933,1.933,0,1,1,2.719,2.749,10.271,10.271,0,0,0-1.811,2.349c-1.072,1.89-.6,2.963.211,3.425.959.544,2.147-.127,4.48-2.072,3.184-2.768,5.575-3.257,8.192-1.772,2.589,1.468,3.76,4.553,2.445,8.227l2.967,1.682Z" transform="translate(0 -185.133)" fill="#afc1f7"/>
        <path id="Trazado_14751" data-name="Trazado 14751" d="M300.218,392.385c6.967-9.377,12.562-9.458,12.562-9.458s2.54-16.473.514-23.481-11.188-.862-11.188-.862,12.147-23.81,7.165-26.485c-9.28-4.981-23.9,20.274-23.9,20.274s3.423-11.117-3.139-11.075c-9.9.061-10.753,25.55-10.753,25.55s-1.951-5.021-8.057-2.145c-6.577,3.1-8.359,21.76-8.732,36.181h34.669c4.96-3.038,9.012-6.016,10.857-8.5" transform="translate(-143.676 -186.975)" fill="#7c9af2"/>
        <path id="Trazado_14752" data-name="Trazado 14752" d="M285.644,350.279s.408-12.668-6.155-12.627c-9.9.063-8.949,29.132-8.949,29.132s-4.134-8.225-10.24-5.347c-6.7,3.158-7.5,23.783-7.234,39.383h11.516l43.747-68.784c-9.28-4.982-22.685,18.244-22.685,18.244" transform="translate(-142.734 -186.911)" fill="#4951ec"/>
        <path id="Trazado_14753" data-name="Trazado 14753" d="M451.492,442.195s31.593,3.638,39.246.957,2.585-6.966,2.585-6.966,16.184-2.067,17.746-6.884-6.1-4.848-6.1-4.848,16.245-8.964,14.422-12.439c-3.4-6.474-21.626,2.359-21.626,2.359s6.293-5.06,2.5-7.589c-5.714-3.814-16.121,10.507-16.121,10.507s.832-3.646-3.8-4.367c-8.306-1.294-28.861,29.27-28.861,29.27" transform="translate(-254.693 -229.109)" fill="#7c9af2"/>
        <path id="Trazado_14754" data-name="Trazado 14754" d="M484.259,406.779c4.63.721,3.807,7.058,3.807,7.058s10.764-17.081,16.478-13.267c3.789,2.529-1.373,9.653-1.373,9.653s16.742-8.138,20.139-1.664l-64.877,28.155c2.382-3.581,18.069-31.144,25.827-29.936" transform="translate(-258.608 -225.654)" fill="#4951ec"/>
        <path id="Trazado_14755" data-name="Trazado 14755" d="M444.766,386.876s28.749-20,32.884-28.8-3.784-8.061-3.784-8.061,11.826-15.572,9.019-20.953-9.265,1.14-9.265,1.14,5.982-21.417,1.478-22.777c-8.388-2.533-16.593,24.588-16.593,24.588s-3.133-15-8.478-13.89c-8.06,1.682-.018,23.865-.018,23.865s-2.378-7.226-6.883-3.874c-8.083,6.014,1.638,48.759,1.638,48.759" transform="translate(-248.163 -173.33)" fill="#7c9af2"/>
        <path id="Trazado_14756" data-name="Trazado 14756" d="M427.33,338.4a11.435,11.435,0,0,0,6.1-7.453s.034-12.543,8.094-14.225c5.344-1.115,9.086,8.962,9.086,8.962s8.172-20.853,16.56-18.319l-30.42,79.112c-1.061-5.044-15.462-45.217-9.416-48.078" transform="translate(-240.23 -173.271)" fill="#4951ec"/>
        <path id="Trazado_14757" data-name="Trazado 14757" d="M351.348,481.39H293.376a3.347,3.347,0,1,1,0-6.695h57.972a3.347,3.347,0,1,1,0,6.695" transform="translate(-163.609 -267.783)" fill="#92b5f9"/>
        <path id="Trazado_14758" data-name="Trazado 14758" d="M374.61,466.487H316.638a3.347,3.347,0,1,1,0-6.694H374.61a3.347,3.347,0,1,1,0,6.694" transform="translate(-176.732 -259.376)" fill="#4951ec"/>
        <path id="Trazado_14759" data-name="Trazado 14759" d="M356,452.369H298.029a3.347,3.347,0,0,1,0-6.695H356a3.347,3.347,0,1,1,0,6.695" transform="translate(-166.235 -251.411)" fill="#92b5f9"/>
        <path id="Trazado_14760" data-name="Trazado 14760" d="M340.493,437.074H282.521a3.347,3.347,0,0,1,0-6.694h57.972a3.347,3.347,0,1,1,0,6.694" transform="translate(-157.486 -242.784)" fill="#4951ec"/>
        <path id="Trazado_14761" data-name="Trazado 14761" d="M439.039,390.51a28.985,28.985,0,1,1-28.986-28.986,28.985,28.985,0,0,1,28.986,28.986" transform="translate(-214.966 -203.942)" fill="#dde8fe"/>
        <path id="Trazado_14762" data-name="Trazado 14762" d="M440.409,396.545a24.323,24.323,0,1,1-24.322-24.323,24.323,24.323,0,0,1,24.322,24.323" transform="translate(-221 -209.976)" fill="#92b5f9"/>
        <path id="Trazado_14763" data-name="Trazado 14763" d="M425.028,421.511l1.384-3.818a19.69,19.69,0,0,1-4.5-2.6,2.471,2.471,0,0,1-.518-3.34l.088-.129a2.466,2.466,0,0,1,3.579-.542,14.385,14.385,0,0,0,4.086,2.331c2.29.83,4.178.515,4.761-1.092.554-1.527-.383-2.958-2.992-5.04-3.775-3.005-5.98-6.078-4.567-9.976,1.282-3.535,4.779-5.4,9.384-4.69l1.384-3.817,3.938,1.428-1.282,3.536a18.214,18.214,0,0,1,3.474,1.859,2.471,2.471,0,1,1-2.882,4.015,13.136,13.136,0,0,0-3.349-1.78c-2.612-.947-3.863-.128-4.271,1-.481,1.326.619,2.679,3.569,5.2,4.17,3.421,5.3,6.331,3.986,9.947-1.3,3.576-4.936,5.712-9.848,4.84l-1.486,4.1Z" transform="translate(-237.472 -219.325)" fill="#fff"/>
        <path id="Trazado_14764" data-name="Trazado 14764" d="M121.432,349.154S76.39,326.944,68.644,315.361s3.641-12.24,3.641-12.24-20.1-19.549-17.272-27.779,13.381-.366,13.381-.366S55.328,245.89,61.422,243C72.773,237.611,88.7,268.566,88.7,268.566s-3.422-13.447,4.394-13.01c11.788.659,11.3,31.078,11.3,31.078s1.331-11.663,8.436-7.875c12.747,6.8,8.6,70.394,8.6,70.394" transform="translate(-30.879 -136.724)" fill="#4951ec"/>
        <path id="Trazado_14765" data-name="Trazado 14765" d="M124.04,274.054c-5.548-3.078-11.074,5.92-11.074,5.92s.56-23.759-11.228-24.418c-7.817-.437-4.395,13.01-4.395,13.01S81.421,237.611,70.07,243l60.062,105.661c.425-7.379,4.9-68.506-6.091-74.6" transform="translate(-39.528 -136.724)" fill="#7c9af2"/>
        <path id="Trazado_14766" data-name="Trazado 14766" d="M100.862,426.654s-36.839,4.576-46.377.5-2.7-9.114-2.7-9.114-20.48-4.025-22.061-10.308,8.2-5.665,8.2-5.665S17.95,389.232,20.576,384.951c4.891-7.972,27.4,4.865,27.4,4.865s-7.6-7-2.546-9.9c7.621-4.378,19.678,14.793,19.678,14.793s-.749-4.725,5.222-5.249c10.713-.94,30.531,37.195,30.531,37.195" transform="translate(-11.473 -213.949)" fill="#4951ec"/>
        <path id="Trazado_14767" data-name="Trazado 14767" d="M70.88,381.543c-5.971.524-5.464,8.683-5.464,8.683s-12.275-22.726-19.9-18.347c-5.053,2.9.925,12.44.925,12.44s-20.672-11.823-25.563-3.85l80.4,41.5c-2.734-4.775-20.394-41.3-30.4-40.424" transform="translate(-11.781 -209.466)" fill="#7c9af2"/>
        <path id="Trazado_14768" data-name="Trazado 14768" d="M29.24,490.986h0a1.036,1.036,0,0,0,1.036,1.036H288.459a1.036,1.036,0,1,0,0-2.071H30.276a1.035,1.035,0,0,0-1.036,1.036" transform="translate(-16.495 -276.388)" fill="#4951ec"/>
        <path id="Trazado_14769" data-name="Trazado 14769" d="M425.871,79.088l-1.313,3.274-5.5-1.532-2.511,4.55-4.3-.473L412,87.086l5.756.633,2.379-4.312L425.861,85l1.976-4.926Z" transform="translate(-232.417 -44.615)" fill="#fa7167"/>
        <path id="Trazado_14770" data-name="Trazado 14770" d="M484.359,243.076l1.352-3.355a17.556,17.556,0,0,1-3.925-2.458,2.2,2.2,0,0,1-.357-2.99l.083-.113a2.2,2.2,0,0,1,3.2-.37,12.812,12.812,0,0,0,3.565,2.2c2.013.811,3.7.589,4.273-.823.541-1.342-.248-2.645-2.505-4.581-3.267-2.795-5.133-5.6-3.753-9.025,1.252-3.108,4.424-4.663,8.5-3.882l1.352-3.355,3.461,1.395-1.252,3.108a16.237,16.237,0,0,1,3.035,1.764,2.2,2.2,0,1,1-2.693,3.484,11.68,11.68,0,0,0-2.925-1.69c-2.3-.925-3.436-.235-3.834.754-.47,1.165.467,2.4,3.014,4.745,3.605,3.177,4.517,5.8,3.236,8.982-1.266,3.144-4.573,4.931-8.92,4l-1.452,3.6Z" transform="translate(-271.34 -120.905)" fill="#dde8fe"/>
        <path id="Trazado_14771" data-name="Trazado 14771" d="M223.782,477.252H155.689a4.912,4.912,0,1,1,0-9.824h68.093a4.912,4.912,0,1,1,0,9.824" transform="translate(-85.056 -263.683)" fill="#bed1f9"/>
        <path id="Trazado_14772" data-name="Trazado 14772" d="M252.427,454.944h-64.1a4.912,4.912,0,1,1,0-9.824h64.1a4.912,4.912,0,1,1,0,9.824" transform="translate(-103.465 -251.099)" fill="#7c9af2"/>
        <path id="Trazado_14773" data-name="Trazado 14773" d="M235.111,432.392H174.019a4.914,4.914,0,1,1,0-9.827h61.092a4.914,4.914,0,0,1,0,9.827" transform="translate(-95.395 -238.375)" fill="#bed1f9"/>
        <path id="Trazado_14774" data-name="Trazado 14774" d="M234.624,409.913H173.407A4.912,4.912,0,0,1,168.495,405h0a4.912,4.912,0,0,1,4.912-4.912h61.217a4.912,4.912,0,0,1,0,9.824" transform="translate(-95.051 -225.696)" fill="#7c9af2"/>
        <path id="Trazado_14775" data-name="Trazado 14775" d="M238.492,388.7h-62.17a4.912,4.912,0,1,1,0-9.824h62.17a4.912,4.912,0,1,1,0,9.824" transform="translate(-96.695 -213.73)" fill="#bed1f9"/>
        <path id="Trazado_14776" data-name="Trazado 14776" d="M232.336,366.446H170.165a4.912,4.912,0,0,1,0-9.824h62.171a4.912,4.912,0,1,1,0,9.824" transform="translate(-93.222 -201.176)" fill="#7c9af2"/>
        <path id="Trazado_14777" data-name="Trazado 14777" d="M242.9,322.906H183.544a4.912,4.912,0,0,1-4.912-4.912h0a4.912,4.912,0,0,1,4.912-4.912H242.9a4.912,4.912,0,0,1,0,9.824" transform="translate(-100.769 -176.614)" fill="#7c9af2"/>
        <path id="Trazado_14778" data-name="Trazado 14778" d="M258.2,344.576H201.358a4.912,4.912,0,0,1,0-9.824H258.2a4.912,4.912,0,0,1,0,9.824" transform="translate(-110.818 -188.839)" fill="#bed1f9"/>
        <path id="Trazado_14779" data-name="Trazado 14779" d="M124.03,368.506a28.841,28.841,0,1,1-40.755,1.648,28.842,28.842,0,0,1,40.755-1.648" transform="translate(-42.667 -203.57)" fill="#dde8fe"/>
        <path id="Trazado_14780" data-name="Trazado 14780" d="M126.889,377.923a24.2,24.2,0,1,1-34.2,1.383,24.2,24.2,0,0,1,34.2-1.383" transform="translate(-48.671 -209.575)" fill="#92b5f9"/>
        <path id="Trazado_14781" data-name="Trazado 14781" d="M138.113,412.4a1.92,1.92,0,0,1-.093,2.44,18.891,18.891,0,0,1-5.619,4.183,15.186,15.186,0,0,1-11.64.975,14,14,0,0,1-6.514-4.858l-2.128,1.044a1.459,1.459,0,0,1-1.952-.666l-.027-.055a1.458,1.458,0,0,1,.666-1.952l1.746-.857c-.349-.573-.591-.928-.752-1.256a14.336,14.336,0,0,1-.774-1.99l-1.8.884a1.458,1.458,0,1,1-1.285-2.618l2.182-1.071a14.976,14.976,0,0,1,.3-8.07,16.114,16.114,0,0,1,8.3-9.153,16.468,16.468,0,0,1,5.557-1.677,1.967,1.967,0,0,1,2.159,1.673l.005.033a1.973,1.973,0,0,1-1.693,2.233,14.113,14.113,0,0,0-4.316,1.365,10.5,10.5,0,0,0-5.424,5.912,8.753,8.753,0,0,0-.148,5.353l12.275-6.026a1.459,1.459,0,0,1,1.286,2.618l-12.82,6.294c.24.627.48,1.254.668,1.635.241.491.482.982.858,1.61l12.847-6.307a1.489,1.489,0,1,1,1.312,2.673l-12.3,6.039a9.266,9.266,0,0,0,4.056,2.883,10.251,10.251,0,0,0,8.186-.7,16.055,16.055,0,0,0,4.018-2.812,1.921,1.921,0,0,1,2.86.22" transform="translate(-60.431 -218.702)" fill="#fff"/>
        <path id="Trazado_14782" data-name="Trazado 14782" d="M146.883,222.861a1.524,1.524,0,0,1-.262,1.919,14.98,14.98,0,0,1-4.759,2.87,12.04,12.04,0,0,1-9.264-.128,11.091,11.091,0,0,1-4.769-4.337l-1.76.661a1.158,1.158,0,0,1-1.489-.677l-.017-.045a1.156,1.156,0,0,1,.676-1.489l1.445-.543c-.232-.479-.4-.778-.5-1.049a11.353,11.353,0,0,1-.458-1.63l-1.489.558a1.157,1.157,0,0,1-.813-2.166l1.805-.677a11.886,11.886,0,0,1,.861-6.348,12.785,12.785,0,0,1,7.26-6.586,13.071,13.071,0,0,1,4.516-.9,1.561,1.561,0,0,1,1.576,1.487v.027a1.564,1.564,0,0,1-1.508,1.633,11.2,11.2,0,0,0-3.512.745,8.327,8.327,0,0,0-4.738,4.25,6.941,6.941,0,0,0-.53,4.215l10.155-3.811a1.157,1.157,0,0,1,.813,2.166l-10.606,3.981c.141.513.282,1.027.4,1.342.152.407.305.813.553,1.338l10.629-3.99a1.181,1.181,0,1,1,.83,2.212l-10.177,3.819a7.349,7.349,0,0,0,2.98,2.589,8.131,8.131,0,0,0,6.516.077,12.743,12.743,0,0,0,3.389-1.91,1.524,1.524,0,0,1,2.241.394" transform="translate(-69.204 -114.119)" fill="#92b5f9"/>
        <path id="Trazado_14783" data-name="Trazado 14783" d="M390.871,156.726l3.24-1.641,3.188,1.74a.5.5,0,0,0,.732-.515l-.559-3.589,2.64-2.495a.5.5,0,0,0-.264-.855l-3.586-.578-1.557-3.282a.5.5,0,0,0-.895-.014l-1.657,3.232-3.6.467a.5.5,0,0,0-.29.847l2.562,2.575-.67,3.569a.5.5,0,0,0,.716.537" transform="translate(-218.942 -81.925)" fill="#7c9af2"/>
        <path id="Trazado_14784" data-name="Trazado 14784" d="M228.538,8.943l-3.349.34-1.142-5.327-4.957-.107L217.583,0l-1.948.762,2.015,5.146,4.7.1,1.188,5.542,5.039-.511Z" transform="translate(-121.643 0)" fill="#fa7167"/>
        <path id="Trazado_14785" data-name="Trazado 14785" d="M397.964,196.077l3.583,1.182s5.68-1.841,6.24-3,.717-3.967,1.526-4.043a2.446,2.446,0,0,1,2.742,2.109c.27,1.4-1.774,5.429-1.455,5.858a19.546,19.546,0,0,0,3.738,1.522,2.793,2.793,0,0,1,1.848,2.253v0a1.538,1.538,0,0,1-.961,1.652l-1.03.4.329,1.064a1.537,1.537,0,0,1-.972,1.906l-.8.267.255.648a1.536,1.536,0,0,1-.992,2.031l-.7.2.028.186a1.534,1.534,0,0,1-1.117,1.717l-.692.181L400,209.067a6.8,6.8,0,0,1-2.418-1.4l-3.169-1.673a.787.787,0,0,1-.369-.957l2.938-8.46a.784.784,0,0,1,.983-.5" transform="translate(-222.261 -107.298)" fill="#fb9390"/>
        <path id="Trazado_14786" data-name="Trazado 14786" d="M99.363,147.36c-.046-.132-1.168-2.051-2.617-4.135-6.738-9.707-16.728-19.063-28.445-18.711l-.008-.071a25.47,25.47,0,0,1,15.044,3.344c7.516,4.052,14.84,11.773,18.847,17.709Z" transform="translate(-38.525 -70.126)" fill="#7c9af2"/>
        <path id="Trazado_14787" data-name="Trazado 14787" d="M316.105,132.788a5.5,5.5,0,0,0,.323-2.3,40,40,0,0,0-.5-5.245c-.143-.479,6.274-2.491,6.274-2.491s10.3-.527,11.83-1.676,2.822-1.623,2.108-.431a28.568,28.568,0,0,1-4.981,5.747c-.67.431-8.669,2.443-8.813,2.443s-.1,5.029-.1,5.029Z" transform="translate(-178.217 -67.667)" fill="#fb9390"/>
        <path id="Trazado_14788" data-name="Trazado 14788" d="M286.017,143.607s-6.668-1.133-6.789-.467c-2.694,14.752-3.151,19.628-3.448,19.781-1.015.522-15.527-12.215-17.925-13.048a10,10,0,0,0-3.592-.3c-2.853.084-1.891.016-3.395.09l0,0-.127.009.015,2.683c3.214,2.892,10.572,46.695,11.192,46.666.693-.033,15.236,3.627,14.98,2.4-.042-.2-9.86-8.233-12.644-19.829-.935-3.892-1.4-8.084-1.9-11.752,3.231,1.621,15.852,7.832,17.853,7.011,6.222-2.553,5.783-33.251,5.783-33.251" transform="translate(-141.447 -80.629)" fill="#4951ec"/>
        <path id="Trazado_14789" data-name="Trazado 14789" d="M389.128,316.788s13.531,10.6,13.983,12.478c.65,2.707,13.041-.851,10.053-1.4-.688-.127-2.888-.685-3.069-.782-.967-.517-13.007-15.026-13.007-15.026Z" transform="translate(-219.513 -176.035)" fill="#fb9390"/>
        <path id="Trazado_14790" data-name="Trazado 14790" d="M436.441,347.411l-8.639-.7a12.246,12.246,0,0,1-7.216,2.139,11.066,11.066,0,0,0-.4,4.7c.062.438.136,1.758.576,1.729,1.6-.109,5.849-1.167,10.694-2.136,0,0,6.512-1.379,10.273-3.629s-5.291-2.1-5.291-2.1" transform="translate(-236.98 -195.583)" fill="#0b0754"/>
        <path id="Trazado_14791" data-name="Trazado 14791" d="M245.607,255.277a59.15,59.15,0,0,0,20.868-.9c12.68-2.967,26.7-5.709,30.811-3.321,3.307,1.923,23.957,33.126,23.957,33.126L313.268,290l-22.738-25.461s-29.01,10.7-35.525,9.517c-14.838-2.7-15.049-14.552-9.4-18.782" transform="translate(-136.62 -141.113)" fill="#e8605d"/>
        <path id="Trazado_14792" data-name="Trazado 14792" d="M260.868,247.47l9.914,11.782-18.392,5.6-2.356-11.09Z" transform="translate(-141.049 -139.601)" fill="#e8605d"/>
        <path id="Trazado_14793" data-name="Trazado 14793" d="M319.832,370.938s-.6,16.366-.976,19.137,6.945,11.071,6.01,8.179c-.215-.665-.769-2.866-.77-3.071,0-1.1,2.713-19.767,2.713-19.767Z" transform="translate(-179.863 -209.252)" fill="#fb9390"/>
        <path id="Trazado_14794" data-name="Trazado 14794" d="M318.626,428.165l-3.485-7.936a12.248,12.248,0,0,1-5.311-5.332,11.067,11.067,0,0,0-4.327,1.884c-.355.262-2.775,2.032-2.607,2.44.621,1.5,3.916,4.722,7.519,8.238a96.944,96.944,0,0,0,8.875,6.36c3.767,2.24-.665-5.654-.665-5.654" transform="translate(-170.864 -234.05)" fill="#0b0754"/>
        <path id="Trazado_14795" data-name="Trazado 14795" d="M284.877,265.861c-3.465-4.62-31.429-9.009-31.429-9.009l-7.8-14.987L228.408,252.5s1.723,13.72,3.018,17.386c1.724,4.885,13.311,5.134,20.389,5.062,6.512-.067,18.406,1.261,18.406,1.261L266.2,311.7s7.908,1.8,10.13,1.509c.251-.033,12.86-41.6,8.549-47.345" transform="translate(-128.848 -136.44)" fill="#fa7167"/>
        <path id="Trazado_14796" data-name="Trazado 14796" d="M237.547,158.466l-9.729.534s-.222.078-.29.091c-.792.147-.073,28.5.634,39.084s2.14,15.036,2.14,15.036,13.194-2.342,17.243-3.914c1.68-.652,5.748-5.737,5.748-5.737a42.644,42.644,0,0,1-6.248-14.66c-1.615-7-3.6-19.4-4.744-21.993a36.958,36.958,0,0,0-4.754-8.441" transform="translate(-128.157 -89.393)" fill="#dde8fe"/>
        <path id="Trazado_14797" data-name="Trazado 14797" d="M228.921,138.286l-.276,8.589s6.3,10.851,9.53,9.339c2.713-1.269.305-9.523.305-9.523s-.47-1.893-1.122-4.066a15.741,15.741,0,0,1-.806-4.372c.068-2.936-7.632.034-7.632.034" transform="translate(-128.982 -77.259)" fill="#ef7f7f"/>
        <path id="Trazado_14798" data-name="Trazado 14798" d="M236.869,95.064s3.209,4.837,3.448,8.908a21.122,21.122,0,0,1-.622,6.849L229.4,98.512Z" transform="translate(-129.406 -53.627)" fill="#0b0754"/>
        <path id="Trazado_14799" data-name="Trazado 14799" d="M252.984,110.443c.145,1.426-.409,2.65-1.237,2.734s-1.618-1-1.763-2.428.409-2.649,1.238-2.734,1.618,1,1.763,2.428" transform="translate(-141.006 -60.93)" fill="#ef7f7f"/>
        <path id="Trazado_14800" data-name="Trazado 14800" d="M221.643,102.191c-.236-.05-.213,11.8,3.222,14.589s9.413,3.034,11.159.224c1.931-3.107.094-15.593-5.014-18.246s-9.366,3.433-9.366,3.433" transform="translate(-124.984 -55.334)" fill="#fb9390"/>
        <path id="Trazado_14801" data-name="Trazado 14801" d="M211.661,87.153c-2.622,2.3-3.892,3.979-5.666,8.066-2.181,5.026,2.147,10.232,5.776,12.3s3.937,4.609,3.937,4.609l.144-1.581a4.262,4.262,0,0,0-.563-2.67c-.309-.661-1.3-2.923-1.689-3.521-1.021-1.575-1.222-1.916-.718-3.413.388-1.152-.061-3.692.539-5.592l4.885-1.054a10.224,10.224,0,0,0,4.6-2.516c4.433-5.114-4.331-10.816-11.246-4.633" transform="translate(-115.873 -47.644)" fill="#0b0754"/>
        <path id="Trazado_14802" data-name="Trazado 14802" d="M221.188,122.926c.6,1.3.477,2.638-.279,2.988s-1.856-.421-2.458-1.721-.477-2.638.279-2.988,1.856.421,2.458,1.721" transform="translate(-123.017 -68.326)" fill="#fb9390"/>
        <path id="Trazado_14803" data-name="Trazado 14803" d="M54.92,113.144l-.792-5.459,4.048-3.748a.758.758,0,0,0-.387-1.3l-5.437-.933-2.313-5.007a.758.758,0,0,0-1.359-.035l-2.567,4.882-5.478.653a.758.758,0,0,0-.453,1.282l3.85,3.951-1.072,5.411a.758.758,0,0,0,1.079.827l4.947-2.44,4.815,2.692a.758.758,0,0,0,1.12-.771" transform="translate(-22.545 -54.298)" fill="#7c9af2"/>
        <path id="Trazado_14804" data-name="Trazado 14804" d="M148.5,31.49c.555,2.281,1.557,5.886,1.557,5.886-.079.991-.372,5.116-.721,10.171l7.431-2.974s-.089-8.237.242-8.741c.281-.427.752.105,3.029-3.153a6.367,6.367,0,0,0,.78-2.622s.136-2.069-.329-2.261a.965.965,0,0,0-1.166.473c-.168.358-.125,1.191-.293,1.548a2.574,2.574,0,0,1-1.7.766c-.453-.022.056-6.12.056-6.12s.253-1.729.381-2.295c.109-.483.548-1.9.548-1.9s.515-2.052-.122-2.209c-.376-.092-1.333,1.575-1.989,3.345-.707,1.906-1.107,3.927-1.309,3.9-.475-.064-.223-3.407-.223-3.407a10.7,10.7,0,0,0,.461-2.254c.447-.885.743-2.528-.043-2.664a13.607,13.607,0,0,0-1.181,2.061s-.407,1.469-.645,2.156c-.418,1.211-.482,3.124-.7,3.967-.182.7-.346.413-.421.443a17.448,17.448,0,0,1,.159-2.275,13.419,13.419,0,0,1,.169-2.205A16.105,16.105,0,0,0,152.8,18.8c.127-1.73-.962-1.553-1.338.028-.143.6-.295,1.26-.445,1.926-.585,2.592-.568,5.089-.848,5.11-.363.027-.124-4.52-.124-4.52s-.557-2.517-1.11-.181a20.371,20.371,0,0,0-.566,5.018,19.68,19.68,0,0,0,.136,5.309" transform="translate(-83.619 -9.579)" fill="#fb9390"/>
        <path id="Trazado_14805" data-name="Trazado 14805" d="M179.59,108.413s-9.631-.454-12.119-1.579c-1.509-.683-13.9-10.669-13.9-10.669l.139-26.736-8.716-.663s-4.519,29.552-2.954,32.787c1.616,3.341,19.756,17.093,23.384,23.061,2.09,3.438,6.448,50.2,7.108,50.616,4.694,2.443,19.188,4.882,18.846,3.4-9.435-40.951-11.788-70.218-11.788-70.218" transform="translate(-79.941 -38.792)" fill="#4951ec"/>
        <path id="Trazado_14806" data-name="Trazado 14806" d="M318.886,29.057A28.985,28.985,0,1,1,289.9.072a28.985,28.985,0,0,1,28.985,28.985" transform="translate(-147.186 -0.041)" fill="#dde8fe"/>
        <path id="Trazado_14807" data-name="Trazado 14807" d="M320.257,35.092a24.323,24.323,0,1,1-24.322-24.323,24.322,24.322,0,0,1,24.322,24.323" transform="translate(-153.22 -6.075)" fill="#92b5f9"/>
        <path id="Trazado_14808" data-name="Trazado 14808" d="M304.876,60.058l1.384-3.817a19.714,19.714,0,0,1-4.5-2.6,2.472,2.472,0,0,1-.518-3.34l.089-.129a2.467,2.467,0,0,1,3.579-.542A14.384,14.384,0,0,0,309,51.958c2.29.83,4.178.515,4.761-1.093.554-1.527-.383-2.957-2.992-5.04-3.775-3.005-5.98-6.078-4.567-9.976,1.282-3.536,4.779-5.4,9.384-4.691l1.384-3.817L320.9,28.77l-1.282,3.536a18.222,18.222,0,0,1,3.475,1.859,2.471,2.471,0,1,1-2.883,4.014,13.112,13.112,0,0,0-3.348-1.781c-2.612-.947-3.863-.128-4.271,1-.481,1.326.619,2.679,3.569,5.2,4.17,3.422,5.3,6.331,3.986,9.947-1.3,3.576-4.936,5.712-9.848,4.84l-1.486,4.1Z" transform="translate(-169.692 -15.424)" fill="#fff"/>
        <path id="Trazado_14809" data-name="Trazado 14809" d="M325.708,124.469s2.682-1.15,3.4-1.389,3.018-.67,3.018-.67,3.568-3.664,4.478-3.76-2.083,4-2.083,4l-1.245,1.2s2.012-1.724,2.395-1.964,3.4-4.6,4.167-4.31-1.293,3.353-2.3,4.981-5.6,2.634-5.6,2.634Z" transform="translate(-183.737 -66.317)" fill="#fb9390"/>
        <path id="Trazado_14810" data-name="Trazado 14810" d="M370.982,160.559c-.006.718-16.294.917-19.669,15.359l-2.172-.713c4.838-14.683,20.965-14.092,21.755-14.632a.06.06,0,0,0,.014-.015Z" transform="translate(-196.956 -90.574)" fill="#7c9af2"/>
        <path id="Trazado_14811" data-name="Trazado 14811" d="M556.487,344.373l.56-1.926a8.019,8.019,0,0,0,6.351-5.464,17.151,17.151,0,0,0,.591-2.753l-3.967-1.153.706-2.427,3.582,1.041a26.781,26.781,0,0,1,.785-4.283,7.4,7.4,0,0,1,9.579-5.362,10.208,10.208,0,0,1,2.861,1.286,1.411,1.411,0,0,1-1.548,2.359,8.561,8.561,0,0,0-2.108-.91c-3-.873-4.841.848-5.636,3.583a21.507,21.507,0,0,0-.736,4.256l5.547,1.612-.706,2.427-5.238-1.523a14.021,14.021,0,0,1-1.408,4.269,8.357,8.357,0,0,1-3.867,3.388l-.022.077,10.123,2.943a1.411,1.411,0,0,1,.962,1.749l-.03.1a1.411,1.411,0,0,1-1.749.961Z" transform="translate(-313.923 -181.471)" fill="#7c9af2"/>
      </g>
    </g>
  </g>
</svg>
