<svg xmlns="http://www.w3.org/2000/svg" xmlns:xlink="http://www.w3.org/1999/xlink" width="371.346" height="239.664" viewBox="0 0 371.346 239.664">
  <defs>
    <clipPath id="clip-path">
      <rect id="Rectángulo_8696" data-name="Rectángulo 8696" width="371.346" height="239.664" fill="none"/>
    </clipPath>
    <clipPath id="clip-path-3">
      <rect id="Rectángulo_8686" data-name="Rectángulo 8686" width="40.554" height="79.132" fill="none"/>
    </clipPath>
    <clipPath id="clip-path-4">
      <rect id="Rectángulo_8687" data-name="Rectángulo 8687" width="16.117" height="79.127" fill="none"/>
    </clipPath>
    <clipPath id="clip-path-5">
      <rect id="Rectángulo_8688" data-name="Rectángulo 8688" width="20.877" height="1.375" fill="none"/>
    </clipPath>
    <clipPath id="clip-path-6">
      <rect id="Rectángulo_8689" data-name="Rectángulo 8689" width="42.177" height="59.844" fill="none"/>
    </clipPath>
    <clipPath id="clip-path-7">
      <rect id="Rectángulo_8692" data-name="Rectángulo 8692" width="29.561" height="81.911" fill="none"/>
    </clipPath>
    <clipPath id="clip-path-8">
      <rect id="Rectángulo_8693" data-name="Rectángulo 8693" width="22.992" height="1.514" fill="none"/>
    </clipPath>
    <clipPath id="clip-path-9">
      <rect id="Rectángulo_8694" data-name="Rectángulo 8694" width="22.017" height="11.862" fill="none"/>
    </clipPath>
  </defs>
  <g id="Grupo_13589" data-name="Grupo 13589" transform="translate(-510.23 -3207.722)">
    <g id="Grupo_13528" data-name="Grupo 13528" transform="translate(510.23 3207.722)">
      <g id="Grupo_13527" data-name="Grupo 13527" clip-path="url(#clip-path)">
        <g id="Grupo_13526" data-name="Grupo 13526">
          <g id="Grupo_13525" data-name="Grupo 13525" clip-path="url(#clip-path)">
            <path id="Trazado_19158" data-name="Trazado 19158" d="M1408.067,6.1c-4.664-10.516-22.655-4.231-22.655-4.231s-9.614,21.144-13.2,22.166,4.69-19.683,4.69-19.683c-7.194.407-23.916,11.88-23.916,11.88s4.6,22.23.869,22.337-3.067-19.891-3.067-19.891c-6.542,3.115-11.71,12.1-11.71,12.1C1333.083,45.043,1351.712,52,1351.712,52a36.909,36.909,0,0,1-2,17.4h0a26.751,26.751,0,0,0-1.5,4.782l1.87-.288q.113-.788.284-1.53a.011.011,0,0,1,0-.009c0-.007,0-.014.005-.021.084-.309.2-.748.356-1.285v0s0,0,0,0c.4-1.207.657-2.092.809-2.726a.016.016,0,0,0,0-.006c1.171-3.775,2.932-8.729,4.428-9.942a3.666,3.666,0,0,1-.532-.8l.532.8c4.258,6.366,20.439,5.041,29.074,1.837s4.36-5.12-1.071-8.461-15.325-.714-18.544-1.857.878-3.413,6.893-3.872,9.9,5.027,19.648,4.461,14.275-19.756,14.275-19.756c-6.313,3.08-18.766,1.255-19.576-.961s16.83-4.7,19.469-5.811,6.593-7.336,1.929-17.853" transform="translate(-1113.341 -0.001)" fill="#dfebfd"/>
            <path id="Trazado_19159" data-name="Trazado 19159" d="M1438.546,565.35c16.734-10,2.486-38.97,2.486-38.97s-37.529-11.848-39.98-17.673,34.064,3.864,34.064,3.864c-2.155-12.016-24.871-37.8-24.871-37.8s-36.45,12.278-37.392,6.028,32.829-9.225,32.829-9.225c-6.577-10.366-22.753-17.221-22.753-17.221-25.22-7.163-33.116,25.591-33.116,25.591s-12.724,3.982-29.667.193h0a45.359,45.359,0,0,0-8.349-1.545l.867,3.086c.9.019,1.777.072,2.631.164a.018.018,0,0,1,.016,0l.037,0c.536.077,1.3.191,2.233.337h0s0,0,0,0c2.111.424,3.654.678,4.751.8h.01c6.588,1.2,15.281,3.146,17.627,5.416a6.208,6.208,0,0,1,1.23-1.058l-1.23,1.058c-9.836,8.464-4.3,35.408,2.854,49.276s9.5,6.287,14.012-3.53-1.931-25.922-.668-31.569,5.919.78,7.921,10.8-6.43,17.685-3.486,33.958,36.147,19.971,36.147,19.971c-6.471-9.989-5.948-31.307-2.386-33.122s11.348,27.347,13.753,31.557,13.688,9.59,30.422-.405" transform="translate(-1091.629 -377.247)" fill="#dfebfd"/>
            <path id="Trazado_19160" data-name="Trazado 19160" d="M559.672,392.018c9.373-13.521,32.958.133,32.958.133s7.833,32.279,12.6,34.676-1.308-28.906-1.308-28.906c10,2.5,30.408,23.1,30.408,23.1s-12.421,29.993-7.212,31.143,9.643-27.118,9.643-27.118c8.353,6.131,13.2,20.144,13.2,20.144,4.592,21.647-23.442,26.425-23.442,26.425s-4.08,10.487-1.857,24.971h0a38.279,38.279,0,0,1,.824,7.119l-2.549-.907c.035-.758.04-1.5.012-2.225a.016.016,0,0,0,0-.013c0-.011,0-.021,0-.032-.034-.456-.086-1.106-.156-1.9v0s0,0,0,0c-.237-1.8-.362-3.115-.406-4.047a.03.03,0,0,1,0-.008c-.632-5.616-1.776-13.048-3.553-15.153a5.239,5.239,0,0,0,.961-.975l-.961.975c-7.689,7.8-30.062,1.6-41.332-5.218s-4.751-8.361,3.773-11.6,21.718,3.107,26.546,2.366-.318-5.029-8.644-7.288-15.26,4.4-28.795,1-14.753-31.58-14.753-31.58c8.042,6.02,26.023,6.8,27.755,3.9S561,419.878,557.593,417.613s-7.293-12.074,2.079-25.594" transform="translate(-460.866 -321.251)" fill="#cde0fb"/>
            <path id="Trazado_19161" data-name="Trazado 19161" d="M1562.141,518.374c-.031-.074-.068-.152-.113-.234-.148-.577-1.443-3.636-1.586-3.971-.407-.953-1.073-.446-1.073.265,0,.22.094,1.791.039,2.018A10.7,10.7,0,0,0,1554.8,514s-2.163-.711-1.123,1.468c.7,1.457,1.524,1.639,2.536,3.677s2.885,3.438,4.559,3.311l1.8.608,1.817-2.688-1.169-.722a2.752,2.752,0,0,1-1.074-1.279" transform="translate(-1292.675 -427.437)" fill="#ffb27d"/>
            <rect id="Rectángulo_8672" data-name="Rectángulo 8672" width="106.467" height="153.209" transform="translate(160.227 29.401)" fill="#b3e8f4"/>
            <rect id="Rectángulo_8673" data-name="Rectángulo 8673" width="48.529" height="2.52" transform="translate(187.53 43.198)" fill="#f99746"/>
            <rect id="Rectángulo_8674" data-name="Rectángulo 8674" width="24.264" height="2.52" transform="translate(181.258 49.045)" fill="#f99746"/>
            <rect id="Rectángulo_8675" data-name="Rectángulo 8675" width="35.613" height="2.52" transform="translate(208.45 49.045)" fill="#f99746"/>
            <rect id="Rectángulo_8676" data-name="Rectángulo 8676" width="52.357" height="1.918" transform="translate(183.868 105.802)" fill="#aec3ff"/>
            <rect id="Rectángulo_8677" data-name="Rectángulo 8677" width="37.074" height="1.918" transform="translate(211.478 100.683)" fill="#aec3ff"/>
            <rect id="Rectángulo_8678" data-name="Rectángulo 8678" width="36.116" height="1.918" transform="translate(171.542 100.683)" fill="#aec3ff"/>
            <rect id="Rectángulo_8679" data-name="Rectángulo 8679" width="31.894" height="1.918" transform="translate(213.027 95.565)" fill="#aec3ff"/>
            <rect id="Rectángulo_8680" data-name="Rectángulo 8680" width="31.894" height="1.918" transform="translate(175.173 95.565)" fill="#aec3ff"/>
            <path id="Trazado_19162" data-name="Trazado 19162" d="M1219.775,730.524h-15.4a1.27,1.27,0,1,1,0-2.54h15.4a1.27,1.27,0,1,1,0,2.54" transform="translate(-1001.183 -605.801)" fill="#a8c3f7"/>
            <path id="Trazado_19163" data-name="Trazado 19163" d="M1347.738,730.524h-15.4a1.27,1.27,0,1,1,0-2.54h15.4a1.27,1.27,0,1,1,0,2.54" transform="translate(-1107.669 -605.801)" fill="#a8c3f7"/>
            <path id="Trazado_19164" data-name="Trazado 19164" d="M1249.56,806.553a13.87,13.87,0,1,1,13.87-13.869,13.885,13.885,0,0,1-13.87,13.869m0-27.04a13.17,13.17,0,1,0,13.17,13.17,13.185,13.185,0,0,0-13.17-13.17" transform="translate(-1028.296 -648.1)" fill="#a8c3f7"/>
            <path id="Trazado_19165" data-name="Trazado 19165" d="M1262.918,817.217a11.176,11.176,0,1,1,11.176-11.176,11.188,11.188,0,0,1-11.176,11.176m0-21.652a10.476,10.476,0,1,0,10.476,10.476,10.488,10.488,0,0,0-10.476-10.476" transform="translate(-1041.654 -661.458)" fill="#a8c3f7"/>
            <path id="Trazado_19166" data-name="Trazado 19166" d="M1286.115,840.906a10.769,10.769,0,0,1-3.982.623c-1.7-.141-2.653-1.031-2.691-2.5a3.779,3.779,0,0,1,1.406-3.023c-.009-.08-.017-.16-.023-.24-.062-.824.114-1.372.523-1.628.663-.413,1.648.152,1.689.176l-.22.377c-.221-.129-.876-.411-1.239-.183-.312.2-.35.735-.323,1.174a9.26,9.26,0,0,1,3.018-1.35,16.187,16.187,0,0,1,2.844-.486c0-.1.013-.194.025-.269.03-.2.1-.439.3-.487a.328.328,0,0,1,.352.184,1.049,1.049,0,0,1,.133.53c.316-.007.61,0,.87.017l.007-.017a5,5,0,0,1,.067-1.518c.11-.5.291-.76.545-.785a.334.334,0,0,1,.345.214,4.082,4.082,0,0,1-.51,2.154v0c.361.061.607.161.684.3a.325.325,0,0,1-.088.409.515.515,0,0,1-.638.137.625.625,0,0,1-.234-.268,4.563,4.563,0,0,1-.859,1.279.429.429,0,0,1-.507.074.472.472,0,0,1-.11-.088,5.93,5.93,0,0,1-.332.687c-.456.8-.969,1.213-1.485,1.188a.838.838,0,0,1-.556-.246,8.059,8.059,0,0,1-1,1.645,1.17,1.17,0,0,1-1.3.462c-.846-.264-1.611-1.488-1.9-2.937a3.269,3.269,0,0,0-1.05,2.5c.032,1.257.8,1.957,2.292,2.081,3.756.313,10.342-3.179,10.841-5.749-.406,2.09-3.531,4.47-6.9,5.56m-4.8-4.731c.229,1.529.994,2.653,1.644,2.856a.743.743,0,0,0,.833-.32,7.511,7.511,0,0,0,1.05-1.795,2.657,2.657,0,0,1-.182-.569,4.1,4.1,0,0,1,0-1.671,11.031,11.031,0,0,0-2.056.716,6.727,6.727,0,0,0-1.292.783m4.009.715a.5.5,0,0,0,.384.261c.33.014.727-.338,1.087-.968a5.751,5.751,0,0,0,.45-1.016,4.314,4.314,0,0,1-.122-.886c-.483.039-1.01.1-1.553.2a3.28,3.28,0,0,1-.245,2.407m2.375-1.715c.068.205.129.245.129.245a4.086,4.086,0,0,0,.775-1.179c-.207-.008-.44-.009-.694,0a5.314,5.314,0,0,1-.21.936m-2.559-.56a3.335,3.335,0,0,0-.056,1.63,2.145,2.145,0,0,0,.056-1.63m4.292-.278h0m-.064-2.237a2.694,2.694,0,0,0-.1.456,3.424,3.424,0,0,0,.1-.456" transform="translate(-1064.704 -691.939)" fill="#a8c3f7"/>
            <rect id="Rectángulo_8681" data-name="Rectángulo 8681" width="58.462" height="1.918" transform="translate(180.816 82.497)" fill="#aec3ff"/>
            <rect id="Rectángulo_8682" data-name="Rectángulo 8682" width="41.397" height="1.918" transform="translate(211.645 77.379)" fill="#aec3ff"/>
            <rect id="Rectángulo_8683" data-name="Rectángulo 8683" width="40.327" height="1.918" transform="translate(167.053 77.379)" fill="#aec3ff"/>
            <rect id="Rectángulo_8684" data-name="Rectángulo 8684" width="35.613" height="1.918" transform="translate(213.375 72.26)" fill="#aec3ff"/>
            <rect id="Rectángulo_8685" data-name="Rectángulo 8685" width="35.613" height="1.918" transform="translate(171.107 72.26)" fill="#aec3ff"/>
            <path id="Trazado_19167" data-name="Trazado 19167" d="M1640.589,490.206s8.951,34.288-18.263,28.589c-7.347-1.539-26.922-21.045-26.922-21.045s1.884-2.972,4.2-2.657c0,0,18.911,6.149,21.935,8.375,1.675,1.233,3.588-18.193,9.38-17.917a15.142,15.142,0,0,1,9.666,4.654" transform="translate(-1327.636 -404.056)" fill="#91cecf"/>
            <path id="Trazado_19168" data-name="Trazado 19168" d="M1839.465,1364.311s-.5,8.065-2.06,8.18c-.208.015-7.914.015-7.914.015l-9.837-.057a3.191,3.191,0,0,1,2.94-2.871c2.875-.5,7.688-2.522,9.43-6.322,1.833-4,7.441,1.055,7.441,1.055" transform="translate(-1514.249 -1133.17)" fill="#163560"/>
            <path id="Trazado_19169" data-name="Trazado 19169" d="M1775.6,886.853a20.505,20.505,0,0,1-5.325,1,19.549,19.549,0,0,1-4.971-.71s-.563-5.445-3.661-17.441c-1.625-6.288-3.944-14.372-7.244-24.418-9.125-27.764-11.9-44.006-12.153-45.545-.014-.081-.019-.121-.019-.121l.03-.013,28.052-12.317s-3.467,38.266.956,52.953a61.938,61.938,0,0,1,1.606,7.037c2.794,15.954,2.729,39.575,2.729,39.575" transform="translate(-1449.815 -655.152)" fill="#2b478b"/>
            <path id="Trazado_19170" data-name="Trazado 19170" d="M1772.962,847.278,1761.734,869.7c-1.625-6.288-3.944-14.372-7.244-24.418-9.125-27.764-11.9-44.006-12.153-45.545,0-.046.006-.089.011-.135l28.052-12.317s-3.467,38.266.957,52.953a61.966,61.966,0,0,1,1.605,7.037" transform="translate(-1449.909 -655.152)" fill="#233862"/>
            <path id="Trazado_19171" data-name="Trazado 19171" d="M1708.918,1364.311s-.5,8.065-2.06,8.18c-.208.015-7.914.015-7.914.015l-9.837-.057a3.192,3.192,0,0,1,2.94-2.871c2.875-.5,7.688-2.522,9.43-6.322,1.832-4,7.441,1.055,7.441,1.055" transform="translate(-1405.613 -1133.17)" fill="#163560"/>
            <path id="Trazado_19172" data-name="Trazado 19172" d="M1712.343,792.66a399.388,399.388,0,0,0,3.926,55.242c4.29,30.446,2.836,43.369,2.836,43.369a29.27,29.27,0,0,0,4.137,1.052,18.779,18.779,0,0,0,6.138-.711s6.141-30.457,4.38-45.7,8.409-52.291,8.409-52.291Z" transform="translate(-1424.942 -659.623)" fill="#2b478b"/>
            <path id="Trazado_19173" data-name="Trazado 19173" d="M1769.859,381.809l-4.919,4.319-8.041-.354c.019-.648.166-3.342.3-5.783.009-.144.017-.288.025-.429.118-2.077.222-3.862.222-3.862l6.862-4.261,2.558-1.589c0,.043.1,2.272.122,2.6a18.84,18.84,0,0,0,2.87,9.361" transform="translate(-1462.026 -307.776)" fill="#ffb27d"/>
            <path id="Trazado_19174" data-name="Trazado 19174" d="M1702.583,495.709c.113,13.088.985,43.706,1.627,44.329,6.817,6.58,36.8-1.8,38.391-9.053s-6.041-92.953-17.685-96.375c-2.416-.709-15.333,3.467-15.333,3.467a81.942,81.942,0,0,0-3.354,12.052c-.492,2.5-2.1,20.353-3.038,32.281-.247,3.18-.45,5.938-.57,7.872-.048.8-.06,2.747-.037,5.428" transform="translate(-1416.818 -361.598)" fill="#abddda"/>
            <path id="Trazado_19175" data-name="Trazado 19175" d="M1767.953,380.05c-1.223,2.949-6.878,6.148-9.253,7.366.009-.144.018-.288.025-.429.118-2.077.222-3.862.222-3.862l6.862-4.261c1.614-.25,2.65-.028,2.145,1.186" transform="translate(-1463.525 -315.2)" fill="#fca56b"/>
            <path id="Trazado_19176" data-name="Trazado 19176" d="M1729.409,303.845s12.416,1.154,13.016-6.589,2.606-12.809-5.3-13.873-9.673,1.771-10.5,4.307-.433,15.655,2.781,16.155" transform="translate(-1436.526 -235.629)" fill="#ffb27d"/>
            <path id="Trazado_19177" data-name="Trazado 19177" d="M1721.479,265.518s2.547,8.32,4.221,7.579,3.207-1.352,3.494,1.258-1.516,6.079,3.984,5.381,10.3-16.286,8.256-18.608c-5.9-6.7-28.122-3.579-19.955,4.391" transform="translate(-1431.069 -214.257)" fill="#163560"/>
            <path id="Trazado_19178" data-name="Trazado 19178" d="M1747.516,418.013c.153-.065,8.861-3.971,9.88-3.635s2.288,3.447,2.288,3.447l-15.333,3.467a7.615,7.615,0,0,1,3.166-3.279" transform="translate(-1451.584 -344.813)" fill="#91cecf"/>
            <path id="Trazado_19179" data-name="Trazado 19179" d="M1702.572,638.677c23.331-16.871,25.145-43.613,25.145-43.613-11.1,6.262-21.641,16.614-25.062,27.992-.247,3.18.074,8.259-.045,10.193-.049.8-.06,2.747-.037,5.428" transform="translate(-1416.806 -495.19)" fill="#91cecf"/>
            <path id="Trazado_19180" data-name="Trazado 19180" d="M1570.81,794.948a1.838,1.838,0,0,0-.946-.286,13.379,13.379,0,0,1-2.406-1.126c-.853-.774-1.152.05-.557.872.129.178.591.481.752.651a17.771,17.771,0,0,0-5.2,3.422s-1.772,1.429.622,1.741c1.6.208,2.2-.388,4.465-.13s4.454-.552,5.257-2.027l1.488-1.178-1.268-2.987Z" transform="translate(-1299.693 -660.094)" fill="#ffb27d"/>
            <path id="Trazado_19181" data-name="Trazado 19181" d="M1653.166,459.341s24.573-1.18,2.351,40.163c-3.554,6.612-28.949,20.979-28.949,20.979s-2.387-2.585-1.485-4.745c0,0,16.537-18.82,18.753-19.586,1.966-.679,1.56-23.594,3.319-29.12a13.535,13.535,0,0,1,6.011-7.693" transform="translate(-1352.165 -382.244)" fill="#abddda"/>
            <g id="Grupo_13506" data-name="Grupo 13506" transform="translate(238.045 159.767)" opacity="0.5">
              <g id="Grupo_13505" data-name="Grupo 13505">
                <g id="Grupo_13504" data-name="Grupo 13504" clip-path="url(#clip-path-3)">
                  <path id="Trazado_19182" data-name="Trazado 19182" d="M1452.19,1031.053l-17.814-.005-9.422,0a6.67,6.67,0,0,1-6.647-6.654l.021-65.824a6.666,6.666,0,0,1,6.65-6.647l8.356,0,18.88.005a6.668,6.668,0,0,1,6.647,6.652l-.019,65.824a6.671,6.671,0,0,1-6.652,6.648" transform="translate(-1418.308 -951.921)" fill="#c0d8fb"/>
                </g>
              </g>
            </g>
            <path id="Trazado_19183" data-name="Trazado 19183" d="M1463.645,1179.447l-.473-3.464-.473-3.466a3.257,3.257,0,0,0-3.655-2.778c-.1.013-.193.033-.288.054a3.218,3.218,0,0,0,.558-1.534,3.244,3.244,0,0,0,6.15-2l-.814-3.4-.814-3.4a3.246,3.246,0,1,0-6.314,1.511l1.226,5.125a3.212,3.212,0,0,0-2.56-1.379,8.889,8.889,0,0,0-.674-6.846l-5.391-4.456a3.245,3.245,0,0,0-4.424,4.732,3.211,3.211,0,0,0-.865.111l-3.374.923h0l-3.373.923a3.252,3.252,0,0,0-2.294,2.365l-.354-.848-1.348-3.226a3.246,3.246,0,0,0-5.991,2.5l1.348,3.226.864,2.068a3.253,3.253,0,0,0-2.051,2.851l-.177,3.492-.177,3.493a3.235,3.235,0,0,0,4.174,3.269,3.273,3.273,0,0,0-.258,2.194,3.224,3.224,0,0,0-1.376,1.563l-1.336,3.231-1.336,3.233a11.754,11.754,0,0,1,6.394,4.74,3.254,3.254,0,0,0,4.551-.6l2.125-2.777,2.126-2.777a2.119,2.119,0,0,1,2.741-1.789l.557-.384-.771,1.007-2.125,2.776a3.246,3.246,0,0,0,5.155,3.946l2.125-2.777,2.126-2.777c.027-.036.05-.074.076-.11a3.23,3.23,0,0,0,.622.732l-.757.989a3.246,3.246,0,0,0,5.155,3.946l4.252-5.554a3.234,3.234,0,0,0-1.38-4.986c.04,0,.079,0,.118-.01a3.255,3.255,0,0,0,2.778-3.655m-29.252-3.1.06-1.191a3.113,3.113,0,0,0,1.209,1.173l-1.487,1.026a3.209,3.209,0,0,0,.218-1.008m21.874-2.955.636,4.659a3.255,3.255,0,0,0-3.37-1.786,3.2,3.2,0,0,0,.884-.791l1.825-2.384c0,.1.012.2.025.3m-7.383-12.586.818.676-.842.581a3.208,3.208,0,0,0,.024-1.257m.706,10.294a.875.875,0,0,1,.124-1.739l2.558-1.764Zm2.123,6.074a3.269,3.269,0,0,0-2.447-.738l.069-.874a3.2,3.2,0,0,0,.531.517,1.346,1.346,0,1,1,1.847,1.095m-6.539-12.285a3.255,3.255,0,0,0,.024,3.643c.014.021.031.038.045.059a.713.713,0,1,1-.539-1.074,3.236,3.236,0,0,0-1.24-2.151l-.01-.007Zm-3.231,7.805,1.252-1.636c-.018.1-.032.2-.04.307l-.237,3a3.247,3.247,0,0,0-1.649-.794Zm-5.861,13.72.367-.889a3.218,3.218,0,0,0,.156-1.975c.074-.043.148-.086.22-.136l5.757-3.971c.037-.026.07-.055.106-.081a3.231,3.231,0,0,0,.366.888l-1.025.707a4.9,4.9,0,0,1-4.211,3.187Zm15.273-4,.18.751a3.212,3.212,0,0,0-.9-.255Zm6.857.758-.25-1.046-.047-.2a.823.823,0,1,1,.3,1.245m-19.663-16.724-1.761,2.3-2.125,2.776c-.01.013-.018.026-.027.039l.111-2.2c0-.057,0-.112,0-.168.1-.031.2-.066.3-.107a2.225,2.225,0,0,1,3.5-2.641" transform="translate(-1187.94 -959.209)" fill="#afcdfb"/>
            <g id="Grupo_13509" data-name="Grupo 13509" transform="translate(238.045 159.767)" opacity="0.5">
              <g id="Grupo_13508" data-name="Grupo 13508">
                <g id="Grupo_13507" data-name="Grupo 13507" clip-path="url(#clip-path-4)">
                  <path id="Trazado_19184" data-name="Trazado 19184" d="M1434.376,1031.048l-9.423,0a6.67,6.67,0,0,1-6.647-6.654l.021-65.824a6.666,6.666,0,0,1,6.65-6.647l8.357,0a8.152,8.152,0,0,1,1.09,4.112l-.022,74.348q0,.336-.027.664" transform="translate(-1418.308 -951.921)" fill="#afcdfb"/>
                </g>
              </g>
            </g>
            <path id="Trazado_19185" data-name="Trazado 19185" d="M1454.294,926.84l-25.3-.008-14.359-.005a1.3,1.3,0,0,1-1.292-1.294l0-6.2a1.3,1.3,0,0,1,1.294-1.292l14.339,0h0l25.317.007a1.3,1.3,0,0,1,1.292,1.294l0,6.2a1.3,1.3,0,0,1-1.294,1.294" transform="translate(-1176.132 -763.961)" fill="#f99746"/>
            <path id="Trazado_19186" data-name="Trazado 19186" d="M1428.993,926.832l-14.359-.005a1.294,1.294,0,0,1-1.292-1.294l0-6.2a1.3,1.3,0,0,1,1.293-1.292l14.339,0h0a1.3,1.3,0,0,1,1.289,1.293v6.2a1.3,1.3,0,0,1-1.274,1.294" transform="translate(-1176.131 -763.961)" fill="#ef7e29"/>
            <path id="Trazado_19187" data-name="Trazado 19187" d="M2067.215,1378.307a4.375,4.375,0,0,1-4.361,4.361h-20.591a4.36,4.36,0,0,1,0-8.72h20.591a4.373,4.373,0,0,1,4.361,4.359" transform="translate(-1695.869 -1143.349)" fill="#ef7e29"/>
            <path id="Trazado_19188" data-name="Trazado 19188" d="M2056.593,1378.307a4.373,4.373,0,0,1-4.359,4.361h-9.971a4.36,4.36,0,0,1,0-8.72h9.971a4.372,4.372,0,0,1,4.359,4.359" transform="translate(-1695.869 -1143.349)" fill="#f99746"/>
            <g id="Grupo_13512" data-name="Grupo 13512" transform="translate(347.075 231.566)" opacity="0.5">
              <g id="Grupo_13511" data-name="Grupo 13511">
                <g id="Grupo_13510" data-name="Grupo 13510" clip-path="url(#clip-path-5)">
                  <path id="Trazado_19189" data-name="Trazado 19189" d="M2088.193,1381.084h-19.641a.62.62,0,0,1-.618-.618v-.139a.62.62,0,0,1,.618-.618h19.641a.62.62,0,0,1,.618.618v.139a.62.62,0,0,1-.618.618" transform="translate(-2067.933 -1379.709)" fill="#ffe2cc"/>
                </g>
              </g>
            </g>
            <path id="Trazado_19190" data-name="Trazado 19190" d="M844.18,684.7v61.4a6.871,6.871,0,0,1-6.851,6.851H800.837a6.772,6.772,0,0,1-2.75-.58,6.874,6.874,0,0,1-4.1-6.271V684.7a6.871,6.871,0,0,1,6.851-6.851h36.492a6.87,6.87,0,0,1,6.851,6.851" transform="translate(-660.726 -564.083)" fill="#fcecdb"/>
            <path id="Trazado_19191" data-name="Trazado 19191" d="M972.747,743.811a7.457,7.457,0,1,1,9.6-4.36,7.457,7.457,0,0,1-9.6,4.36" transform="translate(-805.458 -606.955)" fill="#f7e0cb"/>
            <path id="Trazado_19192" data-name="Trazado 19192" d="M984.72,739.451l-13.962-5.243a7.457,7.457,0,1,1,13.962,5.243" transform="translate(-807.828 -606.955)" fill="#efcbab"/>
            <path id="Trazado_19193" data-name="Trazado 19193" d="M832.991,742.615a7.457,7.457,0,1,1,10.493-1.061,7.457,7.457,0,0,1-10.493,1.061" transform="translate(-690.903 -606.963)" fill="#f7e0cb"/>
            <path id="Trazado_19194" data-name="Trazado 19194" d="M851.817,741.554l-11.553-9.432a7.457,7.457,0,1,1,11.553,9.432" transform="translate(-699.237 -606.964)" fill="#efcbab"/>
            <path id="Trazado_19195" data-name="Trazado 19195" d="M972.747,1014.85a7.457,7.457,0,1,1,9.6-4.36,7.457,7.457,0,0,1-9.6,4.36" transform="translate(-805.458 -832.504)" fill="#f7e0cb"/>
            <path id="Trazado_19196" data-name="Trazado 19196" d="M984.72,1013.508l-13.962-5.243a7.457,7.457,0,1,1,13.962,5.243" transform="translate(-807.828 -835.016)" fill="#efcbab"/>
            <path id="Trazado_19197" data-name="Trazado 19197" d="M832.991,1013.653a7.457,7.457,0,1,1,10.493-1.061,7.457,7.457,0,0,1-10.493,1.061" transform="translate(-690.903 -832.511)" fill="#f7e0cb"/>
            <path id="Trazado_19198" data-name="Trazado 19198" d="M851.817,1015.612l-11.553-9.432a7.457,7.457,0,1,1,11.553,9.432" transform="translate(-699.237 -835.025)" fill="#efcbab"/>
            <path id="Trazado_19199" data-name="Trazado 19199" d="M978.563,884.135a7.457,7.457,0,1,1,3.545-9.932,7.457,7.457,0,0,1-3.545,9.932" transform="translate(-805.459 -723.93)" fill="#f7e0cb"/>
            <path id="Trazado_19200" data-name="Trazado 19200" d="M982.108,874.2l-13.477,6.387a7.457,7.457,0,1,1,13.477-6.387" transform="translate(-805.46 -723.931)" fill="#efcbab"/>
            <path id="Trazado_19201" data-name="Trazado 19201" d="M830.776,874.624a7.457,7.457,0,1,1,4.152,9.694,7.457,7.457,0,0,1-4.152-9.694" transform="translate(-690.896 -723.929)" fill="#f7e0cb"/>
            <path id="Trazado_19202" data-name="Trazado 19202" d="M858.173,886.976l5.542-13.847a7.457,7.457,0,0,1-5.542,13.847" transform="translate(-714.14 -726.586)" fill="#efcbab"/>
            <g id="Grupo_13515" data-name="Grupo 13515" transform="translate(141.277 129.021)" opacity="0.5">
              <g id="Grupo_13514" data-name="Grupo 13514">
                <g id="Grupo_13513" data-name="Grupo 13513" clip-path="url(#clip-path-6)">
                  <path id="Trazado_19203" data-name="Trazado 19203" d="M883.929,768.73v53.426a6.363,6.363,0,0,1-6.269,6.418H844.268a6.071,6.071,0,0,1-2.516-.544v-51.9a7.458,7.458,0,0,1,2.3-5.4,7.259,7.259,0,0,1,1.764-1.249,7.022,7.022,0,0,1,3.162-.752Z" transform="translate(-841.752 -768.73)" fill="#efcbab"/>
                </g>
              </g>
            </g>
            <path id="Trazado_19204" data-name="Trazado 19204" d="M848.854,839.033v-61.4a6.871,6.871,0,0,1,6.851-6.851H892.2a6.871,6.871,0,0,1,6.851,6.851v61.4a6.871,6.871,0,0,1-6.851,6.851H855.7a6.871,6.871,0,0,1-6.851-6.851" transform="translate(-706.385 -641.42)" fill="#fcecdb"/>
            <path id="Trazado_19205" data-name="Trazado 19205" d="M1027.615,836.75a7.457,7.457,0,1,1,9.6-4.36,7.457,7.457,0,0,1-9.6,4.36" transform="translate(-851.117 -684.296)" fill="#f7e0cb"/>
            <path id="Trazado_19206" data-name="Trazado 19206" d="M1039.588,832.389l-13.963-5.242a7.457,7.457,0,1,1,13.963,5.242" transform="translate(-853.487 -684.295)" fill="#efcbab"/>
            <path id="Trazado_19207" data-name="Trazado 19207" d="M887.859,835.554a7.457,7.457,0,1,1,10.493-1.061,7.457,7.457,0,0,1-10.493,1.061" transform="translate(-736.562 -684.304)" fill="#f7e0cb"/>
            <path id="Trazado_19208" data-name="Trazado 19208" d="M906.685,834.493l-11.553-9.432a7.457,7.457,0,1,1,11.553,9.432" transform="translate(-744.896 -684.304)" fill="#efcbab"/>
            <path id="Trazado_19209" data-name="Trazado 19209" d="M1027.615,1107.789a7.457,7.457,0,1,1,9.6-4.36,7.456,7.456,0,0,1-9.6,4.36" transform="translate(-851.117 -909.844)" fill="#f7e0cb"/>
            <path id="Trazado_19210" data-name="Trazado 19210" d="M1039.588,1106.447l-13.963-5.243a7.457,7.457,0,1,1,13.963,5.243" transform="translate(-853.487 -912.356)" fill="#efcbab"/>
            <path id="Trazado_19211" data-name="Trazado 19211" d="M887.859,1106.592a7.457,7.457,0,1,1,10.493-1.061,7.457,7.457,0,0,1-10.493,1.061" transform="translate(-736.562 -909.852)" fill="#f7e0cb"/>
            <path id="Trazado_19212" data-name="Trazado 19212" d="M906.685,1108.55l-11.553-9.432a7.457,7.457,0,1,1,11.553,9.432" transform="translate(-744.896 -912.364)" fill="#efcbab"/>
            <path id="Trazado_19213" data-name="Trazado 19213" d="M1033.431,977.075a7.457,7.457,0,1,1,3.545-9.932,7.457,7.457,0,0,1-3.545,9.932" transform="translate(-851.118 -801.271)" fill="#f7e0cb"/>
            <path id="Trazado_19214" data-name="Trazado 19214" d="M1036.977,967.142,1023.5,973.53a7.457,7.457,0,1,1,13.477-6.387" transform="translate(-851.119 -801.271)" fill="#efcbab"/>
            <path id="Trazado_19215" data-name="Trazado 19215" d="M885.645,967.563a7.457,7.457,0,1,1,4.152,9.694,7.457,7.457,0,0,1-4.152-9.694" transform="translate(-736.555 -801.269)" fill="#f7e0cb"/>
            <path id="Trazado_19216" data-name="Trazado 19216" d="M913.041,979.914l5.542-13.846a7.457,7.457,0,0,1-5.542,13.846" transform="translate(-759.799 -803.926)" fill="#efcbab"/>
            <rect id="Rectángulo_8690" data-name="Rectángulo 8690" width="57.315" height="85.536" transform="translate(129.699 153.856)" fill="#ef7e29"/>
            <rect id="Rectángulo_8691" data-name="Rectángulo 8691" width="57.315" height="85.536" transform="translate(137.683 153.855)" fill="#f99746"/>
            <path id="Trazado_19217" data-name="Trazado 19217" d="M780.755,921.664l-2.747,4.272h-5.237V916.7h7.983Z" transform="translate(-643.072 -762.844)" fill="#d8661a"/>
            <path id="Trazado_19218" data-name="Trazado 19218" d="M751.585,923.439H743.6l4.9-6.738h7.983Z" transform="translate(-618.799 -762.845)" fill="#f99746"/>
            <g id="Grupo_13518" data-name="Grupo 13518" transform="translate(137.683 157.754)" opacity="0.5">
              <g id="Grupo_13517" data-name="Grupo 13517">
                <g id="Grupo_13516" data-name="Grupo 13516" clip-path="url(#clip-path-7)">
                  <path id="Trazado_19219" data-name="Trazado 19219" d="M849.9,1021.833H820.339V939.923l29.561,2.841Z" transform="translate(-820.34 -939.923)" fill="#efcbab"/>
                </g>
              </g>
            </g>
            <path id="Trazado_19220" data-name="Trazado 19220" d="M877.655,923.436l-4.65,2.5H823.1l-2.763-4.272V916.7Z" transform="translate(-682.656 -762.842)" fill="#ef7e29"/>
            <path id="Trazado_19221" data-name="Trazado 19221" d="M881.7,923.439H824.385l-4.049-6.738h57.315Z" transform="translate(-682.653 -762.845)" fill="#f99746"/>
            <path id="Trazado_19222" data-name="Trazado 19222" d="M378.641,764.713a5.973,5.973,0,0,0-10.768-1.427,5.409,5.409,0,0,0-.806,2.715c-.146,5.711,11.118,27.819,12.613,29.774,2.722,3.56,19.152,12.122,19.152,12.122l3.491-.509a25.871,25.871,0,0,1-4.018-3.281c-4.221-4.214-10.375-11.066-11.5-12.015-1.935-1.629-5.281-18.131-8.162-27.379" transform="translate(-305.458 -632.846)" fill="#ed985f"/>
            <path id="Trazado_19223" data-name="Trazado 19223" d="M604.7,1116.466H529.747a8.462,8.462,0,0,1-8.437-8.437v-45.382a8.462,8.462,0,0,1,8.437-8.437H604.7a8.462,8.462,0,0,1,8.437,8.437v45.382a8.462,8.462,0,0,1-8.437,8.437" transform="translate(-433.815 -877.276)" fill="#fcecdb"/>
            <path id="Trazado_19224" data-name="Trazado 19224" d="M601.97,1111.68a9.081,9.081,0,0,1-11.742,5.408,9.288,9.288,0,0,1-5.331-11.91,9.083,9.083,0,0,1,11.742-5.408,9.29,9.29,0,0,1,5.331,11.91" transform="translate(-486.243 -914.695)" fill="#f7e0cb"/>
            <path id="Trazado_19225" data-name="Trazado 19225" d="M596.639,1099.77l-6.411,17.318a9.288,9.288,0,0,1-5.331-11.91,9.083,9.083,0,0,1,11.742-5.408" transform="translate(-486.243 -914.695)" fill="#efcbab"/>
            <path id="Trazado_19226" data-name="Trazado 19226" d="M600.507,1285.041a9.031,9.031,0,0,1-12.83,1.316,9.339,9.339,0,0,1-1.3-13.014,9.032,9.032,0,0,1,12.83-1.316,9.341,9.341,0,0,1,1.3,13.014" transform="translate(-486.253 -1056.8)" fill="#f7e0cb"/>
            <path id="Trazado_19227" data-name="Trazado 19227" d="M599.21,1272.027l-11.533,14.33a9.339,9.339,0,0,1-1.3-13.014,9.032,9.032,0,0,1,12.83-1.316" transform="translate(-486.253 -1056.8)" fill="#efcbab"/>
            <path id="Trazado_19228" data-name="Trazado 19228" d="M933.4,1111.68a9.081,9.081,0,0,1-11.742,5.408,9.288,9.288,0,0,1-5.331-11.91,9.082,9.082,0,0,1,11.742-5.408,9.29,9.29,0,0,1,5.331,11.91" transform="translate(-762.043 -914.695)" fill="#f7e0cb"/>
            <path id="Trazado_19229" data-name="Trazado 19229" d="M928.077,1099.77l-6.411,17.318a9.288,9.288,0,0,1-5.331-11.91,9.082,9.082,0,0,1,11.742-5.408" transform="translate(-762.054 -914.695)" fill="#efcbab"/>
            <path id="Trazado_19230" data-name="Trazado 19230" d="M931.932,1285.038a9.025,9.025,0,0,1-12.421,1.631c-.139-.1-.274-.2-.409-.316a9.338,9.338,0,0,1-1.3-13.014,9.03,9.03,0,0,1,12.83-1.315c.133.111.261.222.388.339a9.343,9.343,0,0,1,.909,12.674" transform="translate(-762.053 -1056.797)" fill="#f7e0cb"/>
            <path id="Trazado_19231" data-name="Trazado 19231" d="M931.023,1272.364l-11.512,14.306c-.139-.1-.274-.2-.409-.316a9.339,9.339,0,0,1-1.3-13.014,9.03,9.03,0,0,1,12.83-1.315c.133.111.261.222.388.339" transform="translate(-762.053 -1056.797)" fill="#efcbab"/>
            <path id="Trazado_19232" data-name="Trazado 19232" d="M773.558,1104.47a9.306,9.306,0,0,1-4.335,12.319,9.062,9.062,0,0,1-12.145-4.4,9.308,9.308,0,0,1,4.335-12.319,9.064,9.064,0,0,1,12.145,4.4" transform="translate(-629.28 -914.697)" fill="#f7e0cb"/>
            <path id="Trazado_19233" data-name="Trazado 19233" d="M761.414,1104.5l7.81,16.716a9.063,9.063,0,0,1-12.145-4.4,9.308,9.308,0,0,1,4.335-12.319" transform="translate(-629.281 -919.125)" fill="#efcbab"/>
            <path id="Trazado_19234" data-name="Trazado 19234" d="M761.927,1287.766a9.293,9.293,0,0,1-5.077-12.024,9.075,9.075,0,0,1,11.854-5.15,9.3,9.3,0,0,1,5.077,12.024,9.077,9.077,0,0,1-11.854,5.15" transform="translate(-629.277 -1056.786)" fill="#f7e0cb"/>
            <path id="Trazado_19235" data-name="Trazado 19235" d="M777.031,1282.615l-16.931-6.874a9.076,9.076,0,0,1,11.854-5.15,9.3,9.3,0,0,1,5.077,12.024" transform="translate(-632.527 -1056.786)" fill="#efcbab"/>
            <path id="Trazado_19236" data-name="Trazado 19236" d="M410.493,618.71c.091-.367-7.97,3.643-8.379,4.1-3.78,4.193-2.7,9.666-.539,9.719,1.387.034,1.118,2.34,1.118,2.34l15.456-6.538s-1.861-10.852-7.656-9.617" transform="translate(-332.542 -514.786)" fill="#b5453c"/>
            <path id="Trazado_19237" data-name="Trazado 19237" d="M368.883,594.386s.552-6.021-6.175-6.021a7.9,7.9,0,0,1,3.093,1.659s-4.291-2.519-8.96,1.352-1.768,13.578-3.188,15.421-6.949,2.212-6.274,8.171,17.549,13.424,16.466,18.355c0,0,6.612-9.72,1.884-14.156a8.763,8.763,0,0,1,2.539,4.751s.625-5.038-2.58-6.65c-2.837-1.426-5.161-6.641-4.915-7.573s8.11-15.309,8.11-15.309" transform="translate(-289.029 -489.616)" fill="#b5453c"/>
            <path id="Trazado_19238" data-name="Trazado 19238" d="M174.322,981.421l-3.345-.492a39.54,39.54,0,0,1-12.921-25.612,29.8,29.8,0,0,1-.08-5.156.9.9,0,0,0-.117-.569s0,0,0,0c-.36-.552-1.256-1.934-2.469-3.9-1.2-1.937-3.241-5.6-5.493-9.707-4.055-7.4-8.776-16.249-10.4-19.068-5.16-8.984-2.672-15.024-2.672-15.024s14.394-1.423,18.338-4.873l1.42,2.19s3.119,13.806,2.971,13.87q.23.7.468,1.434a240.019,240.019,0,0,1,6.836,24.824,41.04,41.04,0,0,1,1.08,10.725,18.812,18.812,0,0,0,.254,3.928c1.393,9.909,6.127,27.436,6.127,27.436" transform="translate(-113.363 -746.462)" fill="#2b478b"/>
            <path id="Trazado_19239" data-name="Trazado 19239" d="M335.434,1386.642H321.48a7.663,7.663,0,0,1,.394-3.74c.7-1.548,1.694-1.6.127-4.025.887.913,3.737,1.291,5.754,1.019.247.4,1.594,3.089,2.419,3.682.912.655,4.978.422,5.259,3.063" transform="translate(-267.46 -1147.451)" fill="#233862"/>
            <path id="Trazado_19240" data-name="Trazado 19240" d="M160.024,914.508c-1.219,6.723-4.1,17.911-10.13,21.472-4.055-7.4-8.776-16.249-10.4-19.068-5.16-8.984-2.673-15.024-2.673-15.024s14.394-1.423,18.338-4.873l1.421,2.19s3.119,13.807,2.971,13.87q.23.7.468,1.434" transform="translate(-113.363 -746.462)" fill="#233862"/>
            <path id="Trazado_19241" data-name="Trazado 19241" d="M46.046,888.487l.047-2.61c-5.2.656-17.929-6.214-17.929-6.214s-5.44,3.618-6.184,13.951c-.364,5.043-2.663,26.372-2.917,32.741-.093,2.308-.124,3.956-.134,4.614a.012.012,0,0,1,0,.006.905.905,0,0,1-.221.537,29.816,29.816,0,0,0-2.817,4.319c-7.934,14.762-3.785,34.822-3.785,34.822l1.843-.468s6.709-20.795,11.094-29.789a18.819,18.819,0,0,1,1.986-3.4,41.034,41.034,0,0,0,5.1-9.5,248.2,248.2,0,0,0,8.626-25.853c.158.029,5.291-13.161,5.291-13.161" transform="translate(-9.171 -732.024)" fill="#2b478b"/>
            <path id="Trazado_19242" data-name="Trazado 19242" d="M377.513,729.13c-8.5-1.951-3.07-13.9-2.577-13.685,1.178-.24,3.764-2.308,6.078-6.347l.313.271,5.221,4.577s-1.207,1.78-2.222,3.524c-.793,1.365-1.468,2.71-1.36,3.172.42.33-3.185,9.009-5.452,8.488" transform="translate(-310.209 -590.085)" fill="#ffb27d"/>
            <path id="Trazado_19243" data-name="Trazado 19243" d="M398.381,775.588a42.823,42.823,0,0,1,2.292,5.5c.8,2.555,2.792,10.68,2.792,10.68s-4.115,4.7-9.839,4.421c0,0-3.078-4.818-1.993-9.168s6.747-11.437,6.747-11.437" transform="translate(-325.711 -645.416)" fill="#91cecf"/>
            <path id="Trazado_19244" data-name="Trazado 19244" d="M428.469,715.3s-1.207,1.778-2.222,3.524c-3.246-2-3.25-6.02-3-8.1Z" transform="translate(-352.131 -591.436)" fill="#ed985f"/>
            <path id="Trazado_19245" data-name="Trazado 19245" d="M427.54,671.32s-7.881-4.386-5.075-9.252,3.68-8.71,8.83-6.115,5.049,5.01,4.507,6.862-6.14,9.52-8.263,8.5" transform="translate(-351.057 -545.164)" fill="#ffb27d"/>
            <path id="Trazado_19246" data-name="Trazado 19246" d="M433.027,656.708c-.361-2.16-1.459-2.367-2.224-2.222a6.3,6.3,0,0,0-7.666-2.935,10.73,10.73,0,0,1-6.212,3.731s.915,1.7,4.683,2.755a6.44,6.44,0,0,0,3.717-.3,21.036,21.036,0,0,1-5.348,2.016c4.966.455,9.691-4.085,10.181-4.571a7.067,7.067,0,0,1,.39,3.253c-.327,1.463-1.626,4.114-.833,4.457,0,0,3.853-2.947,3.311-6.187" transform="translate(-346.95 -541.896)" fill="#b5453c"/>
            <path id="Trazado_19247" data-name="Trazado 19247" d="M14.031,1386.142H.076a7.663,7.663,0,0,1,.394-3.74c.7-1.548,1.792-2.252,1.531-4.125a5.025,5.025,0,0,0,4.349,1.664,15.3,15.3,0,0,0,2.421,3.138c.912.655,4.978.422,5.259,3.063" transform="translate(0 -1146.952)" fill="#233862"/>
            <path id="Trazado_19248" data-name="Trazado 19248" d="M105.825,761.465a33.948,33.948,0,0,1-6.893,1.25c-3.67.4-7.458.674-9.442,1.466a12.578,12.578,0,0,0-2.647,1.445v0a.766.766,0,0,0-.078.058,8.485,8.485,0,0,0-1.094.944,5.986,5.986,0,0,0-1.28,1.9c-.728,1.8.236,6.782.853,9.507a2.476,2.476,0,0,1-1.267,2.747q-2.093,1.082-4.114,2l-.212.1c.013-.277.017-.552.017-.821a25.367,25.367,0,0,0-.236-3.444,14.428,14.428,0,0,1-2.747,5.524c-18.726,7.514-31.81,4.248-31.6.5.739-13,9.5-24.051,9.5-24.051C70.94,741.582,104,736.578,104,736.578s1.583-.191,3.494,2.106c2.749,3.308,2.885,4.17,2.885,4.17s.726,16.768-4.558,18.611" transform="translate(-37.521 -612.95)" fill="#abddda"/>
            <path id="Trazado_19249" data-name="Trazado 19249" d="M318.687,794.311c-3.669.4-7.457.675-9.442,1.466a38.692,38.692,0,0,1,4.908-21.233s3.73,15.181,4.534,19.767" transform="translate(-257.277 -644.547)" fill="#91cecf"/>
            <path id="Trazado_19250" data-name="Trazado 19250" d="M339.4,760.574s-9.2.909-9.933,6.884,8.816,30.313,10.185,32.517c2.491,4.012,17.158,17.764,17.158,17.764l2.7-1.638s-10.4-17.612-12.015-19.261c-2.529-2.588-4.985-34.2-8.1-36.266" transform="translate(-274.138 -632.922)" fill="#ffb27d"/>
            <path id="Trazado_19251" data-name="Trazado 19251" d="M339.316,767.791s.944-15.406-10.847-11.681,1.83,30.224,1.83,30.224,6.921-.342,9.375-6.38Z" transform="translate(-269.341 -628.723)" fill="#abddda"/>
            <path id="Trazado_19252" data-name="Trazado 19252" d="M255.41,927.064a2.476,2.476,0,0,1-1.267,2.747q-2.093,1.082-4.114,2c-.072-.23-.136-.47-.195-.726a12.641,12.641,0,0,1-.236-3.444c.312-5.753,4.23-10.109,6.238-11.981a5.984,5.984,0,0,0-1.28,1.9c-.728,1.8.236,6.782.853,9.507" transform="translate(-207.686 -761.976)" fill="#91cecf"/>
            <path id="Trazado_19253" data-name="Trazado 19253" d="M396.113,727.858s1.44-1.82,2.413-1.761c0,0,3.935,5.509,3.967,8.037,0,0-4.908-6.531-6.379-6.275" transform="translate(-329.631 -604.23)" fill="#91cecf"/>
            <path id="Trazado_19254" data-name="Trazado 19254" d="M564.851,1041.412s-2.092.037-2.544-.028a13.416,13.416,0,0,0-1.632-.278,6.976,6.976,0,0,0-1.674.281,1.219,1.219,0,0,1-.249.024h-3.47a2.075,2.075,0,0,1-.729-.779c-.164-.265-.187-.9-.561-1.105-2.1-1.173,3.491-.509,3.491-.509a21.609,21.609,0,0,1,3.835.178c.577.434,3.664,2.049,3.534,2.215" transform="translate(-460.618 -864.477)" fill="#ed985f"/>
            <path id="Trazado_19255" data-name="Trazado 19255" d="M563.75,1047.007a16.125,16.125,0,0,1,2.709,1.01l.612.386s.354-.395-.2-.833a2.678,2.678,0,0,1-1.132-1.684c-.027-.776-2.432-.1-1.986,1.122" transform="translate(-469.086 -870.072)" fill="#ed985f"/>
            <path id="Trazado_19256" data-name="Trazado 19256" d="M493.223,1090.915a8.538,8.538,0,0,0,2.68,1.638c1.158.286,2.474,3.6,2.684,4.075s-1.105-.211-1.632-1.018-.886-1.123-1.039-.947a6.183,6.183,0,0,0,.969,3.614c.877,1.228,1.4,2.316.772,2.246s-4.386-.982-5.158-3.263-.206-2.361-1.98-4.707,2.7-1.638,2.7-1.638" transform="translate(-407.847 -907.736)" fill="#ffb27d"/>
            <path id="Trazado_19257" data-name="Trazado 19257" d="M1349.318,1372.151a4.819,4.819,0,0,1-4.8,4.8h-22.677a4.8,4.8,0,0,1,0-9.6h22.677a4.816,4.816,0,0,1,4.8,4.8" transform="translate(-1095.99 -1137.858)" fill="#2b478b"/>
            <path id="Trazado_19258" data-name="Trazado 19258" d="M1337.619,1372.151a4.816,4.816,0,0,1-4.8,4.8h-10.98a4.8,4.8,0,0,1,0-9.6h10.98a4.815,4.815,0,0,1,4.8,4.8" transform="translate(-1095.99 -1137.858)" fill="#699ff0"/>
            <g id="Grupo_13521" data-name="Grupo 13521" transform="translate(226.598 230.557)" opacity="0.4">
              <g id="Grupo_13520" data-name="Grupo 13520">
                <g id="Grupo_13519" data-name="Grupo 13519" clip-path="url(#clip-path-8)">
                  <path id="Trazado_19259" data-name="Trazado 19259" d="M1372.421,1375.209h-21.631a.683.683,0,0,1-.681-.681v-.153a.683.683,0,0,1,.681-.68h21.631a.683.683,0,0,1,.681.68v.153a.683.683,0,0,1-.681.681" transform="translate(-1350.11 -1373.695)" fill="#e9f3fe"/>
                </g>
              </g>
            </g>
            <path id="Trazado_19260" data-name="Trazado 19260" d="M1239.713,1301a5.109,5.109,0,0,1-2.271,6.833l-21.494,10.771a5.091,5.091,0,0,1-4.561-9.1l21.494-10.771a5.106,5.106,0,0,1,6.832,2.269" transform="translate(-1005.736 -1080.312)" fill="#ef7e29"/>
            <path id="Trazado_19261" data-name="Trazado 19261" d="M1228.625,1334.106a5.106,5.106,0,0,1-2.27,6.832l-10.407,5.215a5.091,5.091,0,0,1-4.561-9.1l10.408-5.215a5.1,5.1,0,0,1,6.83,2.27" transform="translate(-1005.736 -1107.859)" fill="#f99746"/>
            <g id="Grupo_13524" data-name="Grupo 13524" transform="translate(207.114 219.172)" opacity="0.5">
              <g id="Grupo_13523" data-name="Grupo 13523">
                <g id="Grupo_13522" data-name="Grupo 13522" clip-path="url(#clip-path-9)">
                  <path id="Trazado_19262" data-name="Trazado 19262" d="M1255.642,1307.378l-20.5,10.274a.724.724,0,0,1-.968-.322l-.073-.145a.723.723,0,0,1,.322-.968l20.5-10.274a.723.723,0,0,1,.968.322l.073.146a.724.724,0,0,1-.322.968" transform="translate(-1234.022 -1305.866)" fill="#ffe2cc"/>
                </g>
              </g>
            </g>
          </g>
        </g>
      </g>
    </g>
  </g>
</svg>
