<svg xmlns="http://www.w3.org/2000/svg" xmlns:xlink="http://www.w3.org/1999/xlink" width="152.443" height="152.443" viewBox="0 0 152.443 152.443">
  <defs>
    <clipPath id="clip-path">
      <path id="Trazado_8786" data-name="Trazado 8786" d="M273,83.131A65.13,65.13,0,1,0,338.13,18,65.13,65.13,0,0,0,273,83.131" fill="none"/>
    </clipPath>
  </defs>
  <g id="Grupo_13560" data-name="Grupo 13560" transform="translate(-647.362 -4247.172)">
    <path id="Trazado_8703" data-name="Trazado 8703" d="M2314.583,6466.172q3.746,0,7.471.367t7.4,1.1q3.674.729,7.256,1.817t7.043,2.52q3.459,1.433,6.762,3.2t6.416,3.845q3.112,2.08,6.008,4.456t5.542,5.024q2.648,2.648,5.023,5.542t4.456,6.008q2.08,3.113,3.846,6.416t3.2,6.762q1.433,3.458,2.52,7.042t1.817,7.256q.73,3.674,1.1,7.4t.367,7.471q0,3.746-.367,7.471t-1.1,7.4q-.731,3.672-1.817,7.255t-2.52,7.043q-1.434,3.459-3.2,6.762t-3.846,6.416q-2.08,3.112-4.456,6.008t-5.023,5.542q-2.647,2.649-5.542,5.023t-6.008,4.456q-3.114,2.08-6.416,3.846t-6.762,3.2q-3.459,1.433-7.043,2.52t-7.256,1.817q-3.672.732-7.4,1.1t-7.471.367q-3.744,0-7.471-.367t-7.4-1.1q-3.672-.73-7.256-1.817t-7.043-2.52q-3.459-1.434-6.761-3.2t-6.416-3.846q-3.114-2.079-6.008-4.456t-5.543-5.023q-2.648-2.648-5.023-5.542t-4.456-6.008q-2.08-3.114-3.845-6.416t-3.2-6.762q-1.434-3.459-2.52-7.043t-1.818-7.255q-.73-3.674-1.1-7.4t-.367-7.471q0-3.744.367-7.471t1.1-7.4q.731-3.672,1.818-7.256t2.52-7.042q1.432-3.461,3.2-6.762t3.845-6.416q2.08-3.114,4.456-6.008t5.023-5.542q2.649-2.649,5.543-5.024t6.008-4.456q3.112-2.079,6.416-3.845t6.761-3.2q3.46-1.434,7.043-2.52t7.256-1.817q3.674-.732,7.4-1.1T2314.583,6466.172Z" transform="translate(-1591 -2219)" fill="#f7ec45"/>
    <circle id="Elipse_353" data-name="Elipse 353" cx="71.597" cy="71.597" r="71.597" transform="translate(651.987 4251.797)" fill="#fff"/>
    <circle id="Elipse_354" data-name="Elipse 354" cx="65.13" cy="65.13" r="65.13" transform="translate(658.453 4258.263)" fill="#c2d8ff"/>
    <g id="Grupo_4652" data-name="Grupo 4652" transform="translate(384 4240)">
      <g id="Grupo_4651" data-name="Grupo 4651" clip-path="url(#clip-path)">
        <path id="Trazado_8748" data-name="Trazado 8748" d="M383.023,137.263c-2.806-2.484-9.614-7.847-33-18.139v-8.371c3.645-2.7,6.85-5.78,8.072-7.744a41.822,41.822,0,0,0,2.866-9.5,9.077,9.077,0,0,0,3.1-4.572c.994-3.015.612-5.941-.793-7.137,1.275-10.791,1.082-27.813-8.828-30.12-12.019-9.454-30.575-3.822-36.173,4.06-5.012,7.047-5.171,16.7-4.254,25.749-1.779.913-2.352,4.12-1.258,7.448a8.887,8.887,0,0,0,3.271,4.682,41.158,41.158,0,0,0,2.837,9.392c1.213,1.951,4.4,5.025,8.037,7.713V119.1c-14.39,6.343-22.558,10.858-27.35,13.961-.241.163-.474.316-.7.464-.455.3-.874.59-1.263.863a38.761,38.761,0,0,0-3.683,2.879c-4.358,3.842-6.762,18.2-9.328,30.389H392.348c-2.568-12.186-4.973-26.547-9.325-30.389" fill="#f5b16d" fill-rule="evenodd"/>
        <path id="Trazado_8749" data-name="Trazado 8749" d="M320.85,62.661c6.478,4.385,11.494-2.155,17.353.651s21.683-10.684,25.137,18.939c5.543-21.485-2.854-36.837-23.981-37.858C316.8,43.306,307.7,60.663,313.945,82.008c1.471-11.329,2.1-13.634,6.9-19.347" fill="#4c4948" fill-rule="evenodd"/>
        <path id="Trazado_8750" data-name="Trazado 8750" d="M326.436,112.6c-26.867,11.777-34.929,18.056-38.116,20.874-4.912,4.346-7.187,20.853-7.187,34.291H396.427c0-13.936-2.669-29.945-7.579-34.291-3.183-2.818-11.953-9.094-38.824-20.874L338.78,131.191Z" fill="#bbbbbd" fill-rule="evenodd"/>
        <path id="Trazado_8751" data-name="Trazado 8751" d="M326.436,112.6s11.591,12.021,23.588,0l-11.795,27.581Z" fill="#bbbbbd"/>
        <path id="Trazado_8752" data-name="Trazado 8752" d="M341.993,167.763h-5.952L333.956,117.9l9.2.379Z" fill="#6a8290"/>
        <path id="Trazado_8753" data-name="Trazado 8753" d="M321.007,115.019s16.762,18.4,34.46,0l-5.443-2.421s-9.983,11.137-23.588,0Z" fill="#6a8290"/>
        <path id="Trazado_8754" data-name="Trazado 8754" d="M302.827,123.952a102.032,102.032,0,0,0-11.5,7.016H339l-4.7-7.016Z" fill="#6a8290"/>
        <path id="Trazado_8755" data-name="Trazado 8755" d="M373.949,123.952H343.16l-4.254,7.016h46.83a112.315,112.315,0,0,0-11.787-7.016" fill="#6a8290"/>
        <path id="Trazado_8756" data-name="Trazado 8756" d="M283.358,144.329H393.99a38.554,38.554,0,0,0-2.387-7.022H285.616a37.572,37.572,0,0,0-2.258,7.022" fill="#6a8290"/>
        <path id="Trazado_8757" data-name="Trazado 8757" d="M339.956,123.193a1.237,1.237,0,1,1-1.24-1.237,1.238,1.238,0,0,1,1.24,1.237" fill="#5f6b75"/>
        <path id="Trazado_8758" data-name="Trazado 8758" d="M339.956,129.133a1.237,1.237,0,1,1-1.24-1.24,1.239,1.239,0,0,1,1.24,1.24" fill="#5f6b75"/>
        <path id="Trazado_8759" data-name="Trazado 8759" d="M339.956,135.068a1.237,1.237,0,1,1-1.24-1.235,1.24,1.24,0,0,1,1.24,1.235" fill="#5f6b75"/>
        <path id="Trazado_8760" data-name="Trazado 8760" d="M339.956,141.009a1.237,1.237,0,1,1-1.24-1.24,1.237,1.237,0,0,1,1.24,1.24" fill="#5f6b75"/>
        <path id="Trazado_8761" data-name="Trazado 8761" d="M339.956,146.948a1.237,1.237,0,1,1-1.24-1.242,1.237,1.237,0,0,1,1.24,1.242" fill="#5f6b75"/>
        <path id="Trazado_8762" data-name="Trazado 8762" d="M350.137,112.547V110.7c3.643-2.692,6.85-5.781,8.073-7.745.575-.914,1.822-4.548,2.863-9.5a9.133,9.133,0,0,0,3.1-4.577c.955-2.9.626-5.705-.658-6.98-.026.1-.04.2-.069.3-.014-.152-.04-.288-.056-.438C359.944,53.852,345.3,65.1,339.019,63.514v53.952a16.263,16.263,0,0,0,9.342-3.345,23.106,23.106,0,0,0,1.776-1.574" fill="#e0995d"/>
        <path id="Trazado_8763" data-name="Trazado 8763" d="M363.385,81.7c0,.024.007.04.009.063.016.151.042.287.056.439.029-.1.043-.2.069-.3,5.386-21.32-3.022-36.546-24.049-37.559-.154-.006-.3.007-.451,0V63.515C345.3,65.1,359.944,53.852,363.385,81.7" fill="#393738"/>
        <path id="Trazado_8764" data-name="Trazado 8764" d="M350.137,112.547l5.1,2.274c-1.625-.736-3.314-1.492-5.1-2.274" fill="#bbbbbd"/>
        <path id="Trazado_8765" data-name="Trazado 8765" d="M342.986,130.968l-.138,6.339,48.772-.092a11.981,11.981,0,0,0-2.643-3.829,36.42,36.42,0,0,0-3.227-2.5Z" fill="#9c9b9d"/>
        <path id="Trazado_8766" data-name="Trazado 8766" d="M346.254,121.653l-.978,2.292,28.7-.058c-4.672-2.469-10.677-5.415-18.418-8.894a27.788,27.788,0,0,1-9.3,6.66" fill="#9c9b9d"/>
        <path id="Trazado_8767" data-name="Trazado 8767" d="M342.656,144.285l-.149,6.342h52.729c-.351-2.239-.769-4.367-1.255-6.342Z" fill="#9c9b9d"/>
        <path id="Trazado_8768" data-name="Trazado 8768" d="M350.137,112.547a23.106,23.106,0,0,1-1.776,1.574,13.818,13.818,0,0,0,1.776-1.574" fill="#bbbbbd"/>
        <path id="Trazado_8769" data-name="Trazado 8769" d="M343.166,122.621l-.034,1.513.141-.231h2.008l.976-2.289a20.209,20.209,0,0,1-3.091,1.007" fill="#9c9b9d"/>
        <path id="Trazado_8770" data-name="Trazado 8770" d="M342.656,144.285h-3.638V145.7a1.211,1.211,0,0,1,0,2.4v2.53h3.489Z" fill="#516d78"/>
        <path id="Trazado_8771" data-name="Trazado 8771" d="M342.823,137.263l.146-6.336h-3.951v2.9a1.209,1.209,0,0,1,0,2.4v1.04Z" fill="#516d78"/>
        <path id="Trazado_8772" data-name="Trazado 8772" d="M339.531,130.078a1.2,1.2,0,0,1-.513.205v.5l.042.066Z" fill="#525b61"/>
        <path id="Trazado_8773" data-name="Trazado 8773" d="M340.069,129.089a.97.97,0,0,1-.034.155l3.1-5.11.034-1.513a19.733,19.733,0,0,1-3.107.477c0,.017.01.034.01.05a1.215,1.215,0,0,1-1.051,1.2v3.541a1.219,1.219,0,0,1,1.051,1.2" fill="#516d78"/>
        <path id="Trazado_8774" data-name="Trazado 8774" d="M340.056,123.148a19.5,19.5,0,0,0,3.106-.48,21.315,21.315,0,0,0,3.092-1.015,27.778,27.778,0,0,0,9.3-6.66s-.343-.156-.343-.156l-5.1-2.254a13.468,13.468,0,0,1-1.775,1.567A16.216,16.216,0,0,1,339,117.52l.006,4.482a1.22,1.22,0,0,1,1.048,1.146" fill="#516d78"/>
        <path id="Trazado_8775" data-name="Trazado 8775" d="M339.019,130.785v.143l.042-.077Z" fill="#525b61"/>
        <path id="Trazado_8776" data-name="Trazado 8776" d="M339.114,130.927h46.733a111.906,111.906,0,0,0-11.783-7.024H343.273l-.141.231-3.1,5.11a1.2,1.2,0,0,1-.5.834l-.471.773-.042.076Z" fill="#516d78"/>
        <path id="Trazado_8777" data-name="Trazado 8777" d="M393.982,144.285h.12a37.836,37.836,0,0,0-2.39-7.022H339.019v2.5a1.211,1.211,0,0,1,0,2.4v2.125h54.963Z" fill="#516d78"/>
        <path id="Trazado_8778" data-name="Trazado 8778" d="M340.069,123.148c0-.016-.01-.032-.01-.05a1.216,1.216,0,0,0-1.041-1.146v2.395a1.215,1.215,0,0,0,1.051-1.2" fill="#525b61"/>
        <path id="Trazado_8779" data-name="Trazado 8779" d="M340.035,129.244a1.02,1.02,0,0,0,.034-.155,1.218,1.218,0,0,0-1.051-1.2v2.4a1.206,1.206,0,0,0,1.017-1.039" fill="#525b61"/>
        <path id="Trazado_8780" data-name="Trazado 8780" d="M340.069,135.024a1.229,1.229,0,0,0-1.051-1.2v2.4a1.221,1.221,0,0,0,1.051-1.2" fill="#525b61"/>
        <path id="Trazado_8781" data-name="Trazado 8781" d="M340.069,140.961a1.226,1.226,0,0,0-1.051-1.2v2.4a1.219,1.219,0,0,0,1.051-1.2" fill="#525b61"/>
        <path id="Trazado_8782" data-name="Trazado 8782" d="M340.069,146.9a1.223,1.223,0,0,0-1.051-1.2v2.4a1.221,1.221,0,0,0,1.051-1.2" fill="#525b61"/>
        <rect id="Rectángulo_3702" data-name="Rectángulo 3702" width="6.5" height="172.408" transform="translate(266.29 12.473)" fill="#392c2f"/>
        <rect id="Rectángulo_3703" data-name="Rectángulo 3703" width="6.497" height="172.408" transform="translate(405.723 12.473)" fill="#392c2f"/>
        <rect id="Rectángulo_3704" data-name="Rectángulo 3704" width="6.497" height="172.408" transform="translate(293.779 12.473)" fill="#392c2f"/>
        <rect id="Rectángulo_3705" data-name="Rectángulo 3705" width="6.495" height="172.408" transform="translate(321.766 12.473)" fill="#392c2f"/>
        <rect id="Rectángulo_3706" data-name="Rectángulo 3706" width="6.497" height="172.408" transform="translate(349.75 12.473)" fill="#392c2f"/>
        <rect id="Rectángulo_3707" data-name="Rectángulo 3707" width="6.494" height="172.408" transform="translate(378.237 12.473)" fill="#392c2f"/>
        <rect id="Rectángulo_3708" data-name="Rectángulo 3708" width="145.93" height="17.082" transform="translate(266.29 11.379)" fill="#434544"/>
        <rect id="Rectángulo_3709" data-name="Rectángulo 3709" width="145.925" height="8.746" transform="translate(266.04 19.715)" fill="#392c2f"/>
        <path id="Trazado_8783" data-name="Trazado 8783" d="M405.723,28.461V167.388h6.5V28.461h-6.5Z" fill="#101216"/>
        <rect id="Rectángulo_3710" data-name="Rectángulo 3710" width="6.497" height="138.927" transform="translate(349.75 28.461)" fill="#101216"/>
        <rect id="Rectángulo_3711" data-name="Rectángulo 3711" width="6.494" height="138.927" transform="translate(378.236 28.461)" fill="#101216"/>
        <path id="Trazado_8784" data-name="Trazado 8784" d="M411.965,19.715v8.746h.255V11.379H339.274v8.336Z" fill="#2c2b2d"/>
        <path id="Trazado_8785" data-name="Trazado 8785" d="M356.247,28.461h55.718V19.715H339.273v8.746h16.974Z" fill="#101216"/>
      </g>
    </g>
  </g>
</svg>
