<svg xmlns="http://www.w3.org/2000/svg" width="152.443" height="152.443" viewBox="0 0 152.443 152.443">
  <g id="Grupo_13561" data-name="Grupo 13561" transform="translate(-1014.207 -4247.172)">
    <path id="Trazado_8705" data-name="Trazado 8705" d="M2681.428,6466.172q3.746,0,7.471.367t7.4,1.1q3.673.729,7.256,1.817t7.043,2.52q3.459,1.433,6.762,3.2t6.416,3.845q3.113,2.08,6.008,4.456t5.542,5.024q2.648,2.648,5.023,5.542t4.456,6.008q2.08,3.113,3.846,6.416t3.2,6.762q1.433,3.458,2.52,7.042t1.817,7.256q.731,3.674,1.1,7.4t.367,7.471q0,3.746-.367,7.471t-1.1,7.4q-.731,3.672-1.817,7.255t-2.52,7.043q-1.434,3.459-3.2,6.762t-3.846,6.416q-2.08,3.112-4.456,6.008t-5.023,5.542q-2.647,2.649-5.542,5.023t-6.008,4.456q-3.114,2.08-6.416,3.846t-6.762,3.2q-3.459,1.433-7.043,2.52t-7.256,1.817q-3.672.732-7.4,1.1t-7.471.367q-3.744,0-7.471-.367t-7.4-1.1q-3.672-.73-7.256-1.817t-7.043-2.52q-3.459-1.434-6.761-3.2t-6.416-3.846q-3.114-2.079-6.008-4.456t-5.543-5.023q-2.647-2.648-5.023-5.542t-4.456-6.008q-2.08-3.114-3.845-6.416t-3.2-6.762q-1.434-3.459-2.52-7.043t-1.818-7.255q-.73-3.674-1.1-7.4t-.367-7.471q0-3.744.367-7.471t1.1-7.4q.731-3.672,1.818-7.256t2.52-7.042q1.433-3.461,3.2-6.762t3.845-6.416q2.08-3.114,4.456-6.008t5.023-5.542q2.649-2.649,5.543-5.024t6.008-4.456q3.112-2.079,6.416-3.845t6.761-3.2q3.46-1.434,7.043-2.52t7.256-1.817q3.672-.732,7.4-1.1T2681.428,6466.172Z" transform="translate(-1591 -2219)" fill="#f7ec45"/>
    <circle id="Elipse_355" data-name="Elipse 355" cx="71.597" cy="71.597" r="71.597" transform="translate(1018.832 4251.797)" fill="#fff"/>
    <circle id="Elipse_356" data-name="Elipse 356" cx="65.13" cy="65.13" r="65.13" transform="translate(1025.298 4258.263)" fill="#c2d8ff"/>
    <path id="Trazado_8787" data-name="Trazado 8787" d="M643.477,90.415a47.018,47.018,0,1,0-10.92,11l19.569,10.58Z" transform="translate(484 4257)" fill="#f03f2d"/>
    <rect id="Rect치ngulo_3712" data-name="Rect치ngulo 3712" width="20.662" height="44.411" transform="translate(1078.799 4298.236)" fill="#fff"/>
    <rect id="Rect치ngulo_3713" data-name="Rect치ngulo 3713" width="44.41" height="20.661" transform="translate(1066.925 4310.111)" fill="#fff"/>
  </g>
</svg>
