<svg xmlns="http://www.w3.org/2000/svg" width="36" height="36" viewBox="0 0 36 36">
  <g id="Grupo_2732" data-name="Grupo 2732" transform="translate(-340.322 -4364.117)">
    <circle id="Elipse_215" data-name="Elipse 215" cx="18" cy="18" r="18" transform="translate(340.322 4364.117)" fill="#dd503e" opacity="0.8"/>
    <g id="Grupo_2731" data-name="Grupo 2731">
      <path id="Trazado_6077" data-name="Trazado 6077" d="M345.909,4377.792a13.14,13.14,0,0,0,0,8.649.793.793,0,0,0,.042.118,13.144,13.144,0,0,0,24.742,0,.918.918,0,0,0,.041-.118,13.14,13.14,0,0,0,0-8.649.918.918,0,0,0-.041-.118,13.145,13.145,0,0,0-24.742,0,.793.793,0,0,0-.042.118Zm12.413-6.936c.5,0,1.307.906,1.982,2.93a20.622,20.622,0,0,1,.776,3.321h-5.517a20.736,20.736,0,0,1,.776-3.321c.675-2.024,1.482-2.93,1.983-2.93Zm2.987,8.135c.091,1,.138,2.053.138,3.126s-.047,2.12-.138,3.125h-5.974c-.091-1.005-.138-2.052-.138-3.125s.047-2.121.138-3.126Zm8.273,3.126a11.2,11.2,0,0,1-.442,3.125H363.2c.088-1.026.133-2.076.133-3.125s-.045-2.1-.133-3.126h5.941a11.2,11.2,0,0,1,.442,3.126Zm-11.26,11.26c-.5,0-1.308-.906-1.983-2.93a20.711,20.711,0,0,1-.776-3.321h5.517a20.573,20.573,0,0,1-.776,3.321c-.675,2.024-1.482,2.93-1.982,2.93Zm-4.877-8.135H347.5a11.3,11.3,0,0,1,0-6.251h5.942c-.088,1.026-.133,2.076-.133,3.126s.045,2.1.133,3.125Zm-5.206,1.884h5.422a18.081,18.081,0,0,0,1.717,5.86,11.313,11.313,0,0,1-7.139-5.86Zm13.027,5.86a18.13,18.13,0,0,0,1.717-5.86H368.4a11.308,11.308,0,0,1-7.138,5.86Zm7.138-15.879h-5.421a18.13,18.13,0,0,0-1.717-5.86,11.313,11.313,0,0,1,7.138,5.86Zm-13.026-5.86a18.081,18.081,0,0,0-1.717,5.86h-5.422a11.317,11.317,0,0,1,7.139-5.86Zm0,0" fill="#fff"/>
    </g>
  </g>
</svg>
