<svg xmlns="http://www.w3.org/2000/svg" xmlns:xlink="http://www.w3.org/1999/xlink" width="202.667" height="202.667" viewBox="0 0 202.667 202.667">
  <defs>
    <clipPath id="clip-path">
      <rect id="Rectángulo_3893" data-name="Rectángulo 3893" width="187.2" height="187.2" fill="none"/>
    </clipPath>
    <clipPath id="clip-path-2">
      <path id="Trazado_9439" data-name="Trazado 9439" d="M0,93.6A93.6,93.6,0,1,0,93.6,0,93.6,93.6,0,0,0,0,93.6" transform="translate(0 -0.001)" fill="none"/>
    </clipPath>
    <clipPath id="clip-path-3">
      <rect id="Rectángulo_3832" data-name="Rectángulo 3832" width="26.509" height="4.741" fill="none"/>
    </clipPath>
    <clipPath id="clip-path-6">
      <rect id="Rectángulo_3866" data-name="Rectángulo 3866" width="26.509" height="4.742" fill="none"/>
    </clipPath>
    <clipPath id="clip-path-9">
      <rect id="Rectángulo_3888" data-name="Rectángulo 3888" width="24.549" height="23.064" fill="none"/>
    </clipPath>
    <clipPath id="clip-path-10">
      <rect id="Rectángulo_3890" data-name="Rectángulo 3890" width="41.669" height="80.6" fill="none"/>
    </clipPath>
    <clipPath id="clip-path-11">
      <rect id="Rectángulo_3891" data-name="Rectángulo 3891" width="6.145" height="30.262" fill="none"/>
    </clipPath>
    <clipPath id="clip-path-12">
      <rect id="Rectángulo_3892" data-name="Rectángulo 3892" width="2.959" height="7.063" fill="none"/>
    </clipPath>
    <clipPath id="clip-path-13">
      <path id="Trazado_9466" data-name="Trazado 9466" d="M100.612,114.958l29.734,4.8,9.963-70.912-24.372-6.887Z" transform="translate(-100.612 -41.955)" fill="none"/>
    </clipPath>
  </defs>
  <g id="Grupo_13565" data-name="Grupo 13565" transform="translate(-613.261 -2967.878)">
    <circle id="Elipse_54" data-name="Elipse 54" cx="98.333" cy="98.333" r="98.333" transform="translate(616.261 2970.878)" fill="none" stroke="#97c7ea" stroke-miterlimit="10" stroke-width="6"/>
    <g id="Grupo_4842" data-name="Grupo 4842" transform="translate(620 2977.51)">
      <g id="Grupo_4841" data-name="Grupo 4841" clip-path="url(#clip-path)">
        <g id="Grupo_4812" data-name="Grupo 4812" transform="translate(0 0.001)">
          <g id="Grupo_4811" data-name="Grupo 4811" clip-path="url(#clip-path-2)">
            <path id="Trazado_9431" data-name="Trazado 9431" d="M59.672,116.7s-5.342.237-4.295-4.022" transform="translate(-3.2 -6.528)" fill="none" stroke="#ffd165" stroke-miterlimit="10" stroke-width="2.568"/>
            <path id="Trazado_9432" data-name="Trazado 9432" d="M57.076,112.124a1.482,1.482,0,1,1-1.374-1.584,1.482,1.482,0,0,1,1.374,1.584" transform="translate(-3.135 -6.404)" fill="#ffd165"/>
            <path id="Trazado_9433" data-name="Trazado 9433" d="M26.544,130.975s-.272-15.271,23.249-15.227,25.937,14.787,25.638,18.988-48.887-3.761-48.887-3.761" transform="translate(-1.538 -6.706)" fill="#faa522"/>
            <path id="Trazado_9434" data-name="Trazado 9434" d="M25.558,130.147s-.371-13.894,23.141-13.7,26.021,13.62,25.749,17.439-48.89-3.736-48.89-3.736" transform="translate(-1.48 -6.746)" fill="#ffd165"/>
            <path id="Trazado_9435" data-name="Trazado 9435" d="M79.691,147.214c.2-9.766-8.959-16.735-8.959-16.735-3.2-8.875-14.416-10.621-20.449-10.9-6.01-.577-17.362-.443-21.789,7.889,0,0-10.058,5.6-11.244,15.294-1.124,9.174,8.347,12.786,30.4,13.706,21.963,2.22,31.85-.01,32.04-9.251" transform="translate(-0.994 -6.916)" fill="#47253a"/>
            <path id="Trazado_9436" data-name="Trazado 9436" d="M79.72,147.91c.181-8.779-7.2-15.3-8.7-16.525A19.2,19.2,0,0,1,75.118,143c-.19,9.24-10.077,11.471-32.039,9.25-12.226-.51-20.582-1.848-25.413-4.5C19.83,153.8,29.46,156.4,47.68,157.161c21.963,2.22,31.85-.01,32.04-9.251" transform="translate(-1.023 -7.611)" fill="#311828"/>
            <path id="Trazado_9437" data-name="Trazado 9437" d="M44.121,115.613s5.253.994,4.822-3.371" transform="translate(-2.556 -6.502)" fill="none" stroke="#ffd165" stroke-miterlimit="10" stroke-width="2.568"/>
            <path id="Trazado_9438" data-name="Trazado 9438" d="M47.451,111.438a1.482,1.482,0,1,0,1.584-1.373,1.482,1.482,0,0,0-1.584,1.373" transform="translate(-2.748 -6.376)" fill="#ffd165"/>
          </g>
        </g>
        <g id="Grupo_4814" data-name="Grupo 4814" transform="translate(133.296 109.372)">
          <g id="Grupo_4813" data-name="Grupo 4813" clip-path="url(#clip-path-3)">
            <rect id="Rectángulo_3824" data-name="Rectángulo 3824" width="26.509" height="4.741" transform="translate(-0.001)" fill="#ffc047"/>
            <rect id="Rectángulo_3825" data-name="Rectángulo 3825" width="1.303" height="9.913" transform="translate(24.612 -0.861)" fill="#faa522"/>
            <rect id="Rectángulo_3826" data-name="Rectángulo 3826" width="1.303" height="9.913" transform="translate(22.47 -0.861)" fill="#faa522"/>
            <rect id="Rectángulo_3827" data-name="Rectángulo 3827" width="1.304" height="9.913" transform="translate(20.327 -0.861)" fill="#faa522"/>
            <rect id="Rectángulo_3828" data-name="Rectángulo 3828" width="1.303" height="9.913" transform="translate(18.186 -0.861)" fill="#faa522"/>
            <rect id="Rectángulo_3829" data-name="Rectángulo 3829" width="1.303" height="9.913" transform="translate(16.045 -0.861)" fill="#faa522"/>
            <rect id="Rectángulo_3830" data-name="Rectángulo 3830" width="1.303" height="9.913" transform="translate(13.902 -0.861)" fill="#faa522"/>
            <rect id="Rectángulo_3831" data-name="Rectángulo 3831" width="1.304" height="9.913" transform="translate(11.76 -0.861)" fill="#faa522"/>
          </g>
        </g>
        <g id="Grupo_4816" data-name="Grupo 4816" transform="translate(138.757 104.968)">
          <g id="Grupo_4815" data-name="Grupo 4815" clip-path="url(#clip-path-3)">
            <rect id="Rectángulo_3833" data-name="Rectángulo 3833" width="26.509" height="4.741" transform="translate(-0.001 0.001)" fill="#ffc047"/>
            <rect id="Rectángulo_3834" data-name="Rectángulo 3834" width="1.364" height="9.913" transform="translate(23.559 -0.861)" fill="#faa522"/>
            <rect id="Rectángulo_3835" data-name="Rectángulo 3835" width="1.363" height="9.913" transform="translate(21.317 -0.861)" fill="#faa522"/>
            <rect id="Rectángulo_3836" data-name="Rectángulo 3836" width="1.363" height="9.913" transform="translate(19.075 -0.861)" fill="#faa522"/>
            <rect id="Rectángulo_3837" data-name="Rectángulo 3837" width="1.363" height="9.913" transform="translate(16.833 -0.861)" fill="#faa522"/>
            <rect id="Rectángulo_3838" data-name="Rectángulo 3838" width="1.363" height="9.913" transform="translate(14.591 -0.861)" fill="#faa522"/>
            <rect id="Rectángulo_3839" data-name="Rectángulo 3839" width="1.363" height="9.913" transform="translate(12.349 -0.861)" fill="#faa522"/>
            <rect id="Rectángulo_3840" data-name="Rectángulo 3840" width="1.363" height="9.913" transform="translate(10.107 -0.861)" fill="#faa522"/>
          </g>
        </g>
        <g id="Grupo_4818" data-name="Grupo 4818" transform="translate(138.37 113.968)">
          <g id="Grupo_4817" data-name="Grupo 4817" clip-path="url(#clip-path-3)">
            <rect id="Rectángulo_3842" data-name="Rectángulo 3842" width="26.509" height="4.741" transform="translate(0)" fill="#ffc047"/>
            <rect id="Rectángulo_3843" data-name="Rectángulo 3843" width="1.348" height="9.913" transform="translate(23.575 -0.861)" fill="#faa522"/>
            <rect id="Rectángulo_3844" data-name="Rectángulo 3844" width="1.349" height="9.913" transform="translate(21.358 -0.861)" fill="#faa522"/>
            <rect id="Rectángulo_3845" data-name="Rectángulo 3845" width="1.349" height="9.913" transform="translate(19.14 -0.861)" fill="#faa522"/>
            <rect id="Rectángulo_3846" data-name="Rectángulo 3846" width="1.349" height="9.913" transform="translate(16.923 -0.861)" fill="#faa522"/>
            <rect id="Rectángulo_3847" data-name="Rectángulo 3847" width="1.349" height="9.913" transform="translate(14.706 -0.861)" fill="#faa522"/>
            <rect id="Rectángulo_3848" data-name="Rectángulo 3848" width="1.349" height="9.913" transform="translate(12.489 -0.861)" fill="#faa522"/>
            <rect id="Rectángulo_3849" data-name="Rectángulo 3849" width="1.349" height="9.913" transform="translate(10.271 -0.861)" fill="#faa522"/>
          </g>
        </g>
        <g id="Grupo_4820" data-name="Grupo 4820" transform="translate(147.919 118.71)">
          <g id="Grupo_4819" data-name="Grupo 4819" clip-path="url(#clip-path-6)">
            <rect id="Rectángulo_3851" data-name="Rectángulo 3851" width="26.509" height="4.741" transform="translate(0 0.001)" fill="#ffc047"/>
            <rect id="Rectángulo_3852" data-name="Rectángulo 3852" width="1.546" height="9.913" transform="translate(16.763 -0.861)" fill="#faa522"/>
            <rect id="Rectángulo_3853" data-name="Rectángulo 3853" width="1.547" height="9.913" transform="translate(14.22 -0.861)" fill="#faa522"/>
            <rect id="Rectángulo_3854" data-name="Rectángulo 3854" width="1.547" height="9.913" transform="translate(11.678 -0.861)" fill="#faa522"/>
            <rect id="Rectángulo_3855" data-name="Rectángulo 3855" width="1.547" height="9.913" transform="translate(9.135 -0.861)" fill="#faa522"/>
            <rect id="Rectángulo_3856" data-name="Rectángulo 3856" width="1.547" height="9.913" transform="translate(6.594 -0.861)" fill="#faa522"/>
            <rect id="Rectángulo_3857" data-name="Rectángulo 3857" width="1.547" height="9.913" transform="translate(4.05 -0.861)" fill="#faa522"/>
            <rect id="Rectángulo_3858" data-name="Rectángulo 3858" width="1.547" height="9.913" transform="translate(1.508 -0.861)" fill="#faa522"/>
            <rect id="Rectángulo_3859" data-name="Rectángulo 3859" width="1.547" height="9.913" transform="translate(34.785 -0.861)" fill="#faa522"/>
            <rect id="Rectángulo_3860" data-name="Rectángulo 3860" width="1.547" height="9.913" transform="translate(32.243 -0.861)" fill="#faa522"/>
            <rect id="Rectángulo_3861" data-name="Rectángulo 3861" width="1.547" height="9.913" transform="translate(29.701 -0.861)" fill="#faa522"/>
            <rect id="Rectángulo_3862" data-name="Rectángulo 3862" width="1.547" height="9.913" transform="translate(27.159 -0.861)" fill="#faa522"/>
            <rect id="Rectángulo_3863" data-name="Rectángulo 3863" width="1.547" height="9.913" transform="translate(24.616 -0.861)" fill="#faa522"/>
            <rect id="Rectángulo_3864" data-name="Rectángulo 3864" width="1.547" height="9.913" transform="translate(22.074 -0.861)" fill="#faa522"/>
            <rect id="Rectángulo_3865" data-name="Rectángulo 3865" width="1.546" height="9.913" transform="translate(19.532 -0.861)" fill="#faa522"/>
          </g>
        </g>
        <g id="Grupo_4822" data-name="Grupo 4822" transform="translate(142.282 123.29)">
          <g id="Grupo_4821" data-name="Grupo 4821" clip-path="url(#clip-path-3)">
            <rect id="Rectángulo_3867" data-name="Rectángulo 3867" width="26.509" height="4.741" transform="translate(-0.001 0.001)" fill="#ffc047"/>
            <rect id="Rectángulo_3868" data-name="Rectángulo 3868" width="1.621" height="9.913" transform="translate(17.502 -0.861)" fill="#faa522"/>
            <rect id="Rectángulo_3869" data-name="Rectángulo 3869" width="1.621" height="9.913" transform="translate(14.837 -0.861)" fill="#faa522"/>
            <rect id="Rectángulo_3870" data-name="Rectángulo 3870" width="1.621" height="9.913" transform="translate(12.171 -0.861)" fill="#faa522"/>
            <rect id="Rectángulo_3871" data-name="Rectángulo 3871" width="1.621" height="9.913" transform="translate(9.506 -0.861)" fill="#faa522"/>
            <rect id="Rectángulo_3872" data-name="Rectángulo 3872" width="1.621" height="9.913" transform="translate(6.839 -0.861)" fill="#faa522"/>
            <rect id="Rectángulo_3873" data-name="Rectángulo 3873" width="1.622" height="9.913" transform="translate(4.173 -0.861)" fill="#faa522"/>
            <rect id="Rectángulo_3874" data-name="Rectángulo 3874" width="1.621" height="9.913" transform="translate(1.508 -0.861)" fill="#faa522"/>
            <rect id="Rectángulo_3875" data-name="Rectángulo 3875" width="1.621" height="9.913" transform="translate(36.518 -0.861)" fill="#faa522"/>
            <rect id="Rectángulo_3876" data-name="Rectángulo 3876" width="1.621" height="9.913" transform="translate(33.853 -0.861)" fill="#faa522"/>
            <rect id="Rectángulo_3877" data-name="Rectángulo 3877" width="1.621" height="9.913" transform="translate(31.186 -0.861)" fill="#faa522"/>
            <rect id="Rectángulo_3878" data-name="Rectángulo 3878" width="1.622" height="9.913" transform="translate(28.52 -0.861)" fill="#faa522"/>
            <rect id="Rectángulo_3879" data-name="Rectángulo 3879" width="1.621" height="9.913" transform="translate(25.855 -0.861)" fill="#faa522"/>
            <rect id="Rectángulo_3880" data-name="Rectángulo 3880" width="1.622" height="9.913" transform="translate(23.188 -0.861)" fill="#faa522"/>
            <rect id="Rectángulo_3881" data-name="Rectángulo 3881" width="1.621" height="9.913" transform="translate(20.523 -0.861)" fill="#faa522"/>
          </g>
        </g>
        <g id="Grupo_4836" data-name="Grupo 4836" transform="translate(0 0.001)">
          <g id="Grupo_4835" data-name="Grupo 4835" clip-path="url(#clip-path-2)">
            <rect id="Rectángulo_3883" data-name="Rectángulo 3883" width="22.607" height="0.243" transform="translate(142.709 109.442)" fill="#faa522"/>
            <rect id="Rectángulo_3884" data-name="Rectángulo 3884" width="22.608" height="0.243" transform="translate(137.178 113.71)" fill="#faa522"/>
            <rect id="Rectángulo_3885" data-name="Rectángulo 3885" width="22.607" height="0.243" transform="translate(142.223 118.478)" fill="#faa522"/>
            <rect id="Rectángulo_3886" data-name="Rectángulo 3886" width="22.607" height="0.242" transform="translate(146.153 127.794)" fill="#faa522"/>
            <rect id="Rectángulo_3887" data-name="Rectángulo 3887" width="22.607" height="0.243" transform="translate(151.829 123.233)" fill="#faa522"/>
            <g id="Grupo_4825" data-name="Grupo 4825" transform="translate(133.296 104.967)" opacity="0.3">
              <g id="Grupo_4824" data-name="Grupo 4824">
                <g id="Grupo_4823" data-name="Grupo 4823" clip-path="url(#clip-path-9)">
                  <path id="Trazado_9440" data-name="Trazado 9440" d="M150.478,129.745v4.741h13.969c.339-4.869,1.161-16.679,1.595-23.064H146.953v4.4h-5.461v4.741h5.075v4.595h9.548v4.582Z" transform="translate(-141.492 -111.422)" fill="#47253a"/>
                </g>
              </g>
            </g>
            <path id="Trazado_9441" data-name="Trazado 9441" d="M154.693,131.33a5.616,5.616,0,0,1-6.454,4.628l-36.57-6.026a5.618,5.618,0,0,1-4.628-6.455L120.52,41.692a5.616,5.616,0,0,1,6.453-4.628l36.571,6.027a5.616,5.616,0,0,1,4.628,6.455Z" transform="translate(-6.196 -2.143)" fill="#47253a"/>
            <path id="Trazado_9442" data-name="Trazado 9442" d="M152.684,131a5.616,5.616,0,0,1-6.455,4.628l-36.57-6.026a5.618,5.618,0,0,1-4.627-6.455L118.51,41.361a5.617,5.617,0,0,1,6.454-4.628l36.571,6.027a5.616,5.616,0,0,1,4.627,6.455Z" transform="translate(-6.079 -2.124)" fill="#952239"/>
            <path id="Trazado_9443" data-name="Trazado 9443" d="M149.655,44.267a.824.824,0,0,1-.947.679l-8.274-1.364a.823.823,0,1,1,.268-1.625l8.274,1.363a.824.824,0,0,1,.679.947" transform="translate(-8.094 -2.431)" fill="#47253a"/>
            <path id="Trazado_9444" data-name="Trazado 9444" d="M126.246,131.273A3.969,3.969,0,1,0,130.806,128a3.969,3.969,0,0,0-4.561,3.271" transform="translate(-7.31 -7.412)" fill="#47253a"/>
            <rect id="Rectángulo_3889" data-name="Rectángulo 3889" width="74.727" height="42.23" transform="matrix(0.163, -0.987, 0.987, 0.163, 102.858, 115.974)" fill="#fff"/>
            <g id="Grupo_4828" data-name="Grupo 4828" transform="translate(115.009 42.242)" opacity="0.1">
              <g id="Grupo_4827" data-name="Grupo 4827">
                <g id="Grupo_4826" data-name="Grupo 4826" clip-path="url(#clip-path-10)">
                  <path id="Trazado_9445" data-name="Trazado 9445" d="M151.6,125.439l-7.9-1.3L122.08,44.84l41.668,6.867Z" transform="translate(-122.08 -44.84)" fill="#e1313a"/>
                </g>
              </g>
            </g>
            <g id="Grupo_4831" data-name="Grupo 4831" transform="translate(126.826 55.169)" opacity="0.5">
              <g id="Grupo_4830" data-name="Grupo 4830">
                <g id="Grupo_4829" data-name="Grupo 4829" clip-path="url(#clip-path-11)">
                  <path id="Trazado_9446" data-name="Trazado 9446" d="M136.693,87.934a1.039,1.039,0,0,1-2.057-.3L138.7,59.454a1.039,1.039,0,1,1,2.057.3Z" transform="translate(-134.624 -58.562)" fill="#47253a"/>
                </g>
              </g>
            </g>
            <g id="Grupo_4834" data-name="Grupo 4834" transform="translate(126.826 78.368)" opacity="0.5">
              <g id="Grupo_4833" data-name="Grupo 4833">
                <g id="Grupo_4832" data-name="Grupo 4832" clip-path="url(#clip-path-12)">
                  <path id="Trazado_9447" data-name="Trazado 9447" d="M135.43,83.552l-.8,5.512a1.039,1.039,0,0,0,2.057.3l.89-6.172q-1.075.192-2.153.364" transform="translate(-134.624 -83.188)" fill="#47253a"/>
                </g>
              </g>
            </g>
          </g>
        </g>
        <g id="Grupo_4838" data-name="Grupo 4838" transform="translate(94.784 39.525)">
          <g id="Grupo_4837" data-name="Grupo 4837" clip-path="url(#clip-path-13)">
            <path id="Trazado_9449" data-name="Trazado 9449" d="M125.869,72.26A12.409,12.409,0,1,0,140.1,61.993,12.409,12.409,0,0,0,125.869,72.26" transform="translate(-102.066 -43.106)" fill="#ffc047"/>
            <path id="Trazado_9450" data-name="Trazado 9450" d="M145.32,85.673,128.366,82.93a12.131,12.131,0,0,0,.952,1.122l14.743,2.386a12.46,12.46,0,0,0,1.258-.765" transform="translate(-102.22 -44.328)" fill="#faa522"/>
            <path id="Trazado_9451" data-name="Trazado 9451" d="M125.97,77.613c.068.34.151.677.248,1.008L148.35,82.2q.294-.425.553-.879Z" transform="translate(-102.081 -44.02)" fill="#faa522"/>
            <path id="Trazado_9452" data-name="Trazado 9452" d="M126.784,80.21c.155.359.326.71.513,1.051L146.63,84.39q.43-.4.821-.836Z" transform="translate(-102.128 -44.171)" fill="#faa522"/>
            <path id="Trazado_9453" data-name="Trazado 9453" d="M125.91,73.644l24.327,3.937c.054-.24.1-.481.142-.727.011-.072.019-.142.029-.214L126.063,72.7Z" transform="translate(-102.077 -43.736)" fill="#faa522"/>
            <path id="Trazado_9454" data-name="Trazado 9454" d="M146.484,64.655a12.4,12.4,0,0,0-12.327-2Z" transform="translate(-102.555 -43.106)" fill="#faa522"/>
            <path id="Trazado_9455" data-name="Trazado 9455" d="M130.773,64.581l17.972,2.908a12.351,12.351,0,0,0-.826-1.1L131.9,63.795a12.427,12.427,0,0,0-1.131.786" transform="translate(-102.359 -43.22)" fill="#faa522"/>
            <path id="Trazado_9456" data-name="Trazado 9456" d="M131.478,85.9a12.415,12.415,0,0,0,10.357,1.676Z" transform="translate(-102.4 -44.5)" fill="#faa522"/>
            <path id="Trazado_9457" data-name="Trazado 9457" d="M129.373,65.846c-.262.269-.512.553-.75.847l21.29,3.445c-.133-.353-.281-.7-.445-1.04Z" transform="translate(-102.235 -43.339)" fill="#faa522"/>
            <path id="Trazado_9458" data-name="Trazado 9458" d="M125.712,75.106q0,.492.043.975l23.759,3.846c.127-.3.242-.6.349-.913Z" transform="translate(-102.066 -43.875)" fill="#faa522"/>
            <path id="Trazado_9459" data-name="Trazado 9459" d="M126.555,70.315c-.07.184-.135.37-.2.558l-.059.369,24.252,3.925c.011-.324.014-.648,0-.968Z" transform="translate(-102.1 -43.598)" fill="#faa522"/>
            <path id="Trazado_9460" data-name="Trazado 9460" d="M127.672,68.033q-.269.432-.5.887l23.293,3.769c-.052-.336-.117-.671-.2-1Z" transform="translate(-102.15 -43.466)" fill="#faa522"/>
            <path id="Trazado_9461" data-name="Trazado 9461" d="M123.833,71.93a12.409,12.409,0,1,0,14.231-10.267A12.408,12.408,0,0,0,123.833,71.93" transform="translate(-101.948 -43.087)" fill="#ffd165"/>
            <path id="Trazado_9462" data-name="Trazado 9462" d="M125.949,72.377a10.39,10.39,0,1,0,11.917-8.6,10.39,10.39,0,0,0-11.917,8.6" transform="translate(-102.072 -43.211)" fill="#ffc047"/>
            <path id="Trazado_9463" data-name="Trazado 9463" d="M127.056,72.556a10.391,10.391,0,0,1,11.361-8.672q-.273-.059-.55-.1a10.39,10.39,0,1,0-3.321,20.514q.278.045.556.074a10.392,10.392,0,0,1-8.046-11.812" transform="translate(-102.072 -43.211)" fill="#faa522"/>
            <path id="Trazado_9464" data-name="Trazado 9464" d="M141.243,74.19a5.966,5.966,0,0,0-2.584-1.4l.193-1.194a3.7,3.7,0,0,1,1.041.405,7.13,7.13,0,0,1,1.237.983l2.063-2.161a5.639,5.639,0,0,0-1.859-1.518,7.937,7.937,0,0,0-1.985-.777l.206-1.271-1.237-.2-.21,1.3a5.543,5.543,0,0,0-1.677.2,4.586,4.586,0,0,0-1.961,1.08,3.059,3.059,0,0,0-.951,1.76,2.441,2.441,0,0,0,.779,2.241,6.9,6.9,0,0,0,2.719,1.467l-.207,1.278a6.554,6.554,0,0,1-1.057-.426,4.128,4.128,0,0,1-1.3-.939L132.009,77.2a5.092,5.092,0,0,0,1.8,1.687,7.326,7.326,0,0,0,2.448.921l-.219,1.344,1.237.2.23-1.423a5.659,5.659,0,0,0,1.573-.211,4.577,4.577,0,0,0,2.025-1.142,3.3,3.3,0,0,0,.966-1.843,2.753,2.753,0,0,0-.825-2.545m-4.062-1.831a.361.361,0,0,1-.219-.405c.045-.283.261-.444.644-.485l-.161,1a1.922,1.922,0,0,1-.264-.106m.983,4.061a.954.954,0,0,1-.1.03l.159-.984a1.923,1.923,0,0,1,.185.074.322.322,0,0,1,.171.378.634.634,0,0,1-.419.5" transform="translate(-102.431 -43.409)" fill="#faa522"/>
            <path id="Trazado_9465" data-name="Trazado 9465" d="M140.147,74.012a5.977,5.977,0,0,0-2.583-1.4l.193-1.193a3.653,3.653,0,0,1,1.04.405,7.085,7.085,0,0,1,1.237.982l2.064-2.161a5.666,5.666,0,0,0-1.86-1.518,7.97,7.97,0,0,0-1.985-.776l.206-1.272-1.237-.2-.21,1.3a5.514,5.514,0,0,0-1.677.2,4.585,4.585,0,0,0-1.961,1.079,3.059,3.059,0,0,0-.951,1.761,2.442,2.442,0,0,0,.779,2.241,6.908,6.908,0,0,0,2.72,1.466l-.207,1.279a6.574,6.574,0,0,1-1.058-.427,4.114,4.114,0,0,1-1.3-.939l-2.447,2.185a5.1,5.1,0,0,0,1.8,1.687,7.346,7.346,0,0,0,2.448.921l-.219,1.343,1.237.2.23-1.423a5.707,5.707,0,0,0,1.574-.211,4.6,4.6,0,0,0,2.025-1.143,3.3,3.3,0,0,0,.965-1.843,2.752,2.752,0,0,0-.825-2.545m-4.061-1.831a.36.36,0,0,1-.22-.405c.045-.282.261-.444.644-.485l-.161,1a1.749,1.749,0,0,1-.263-.106m.982,4.062c-.029.012-.063.02-.1.03l.16-.985c.078.029.141.054.185.074a.323.323,0,0,1,.171.378.637.637,0,0,1-.419.5" transform="translate(-102.367 -43.399)" fill="#ffd165"/>
          </g>
        </g>
        <g id="Grupo_4840" data-name="Grupo 4840" transform="translate(0 0.001)">
          <g id="Grupo_4839" data-name="Grupo 4839" clip-path="url(#clip-path-2)">
            <path id="Trazado_9467" data-name="Trazado 9467" d="M40.562,90.214A12.409,12.409,0,1,0,54.108,79.055,12.41,12.41,0,0,0,40.562,90.214" transform="translate(-2.346 -4.577)" fill="#ffc047"/>
            <path id="Trazado_9468" data-name="Trazado 9468" d="M60.784,102.4l-17.095-1.651a12.615,12.615,0,0,0,1.022,1.059l14.868,1.437a12.608,12.608,0,0,0,1.2-.844" transform="translate(-2.531 -5.837)" fill="#faa522"/>
            <path id="Trazado_9469" data-name="Trazado 9469" d="M40.958,95.6q.136.5.312.991l22.317,2.155q.266-.445.495-.913Z" transform="translate(-2.372 -5.538)" fill="#faa522"/>
            <path id="Trazado_9470" data-name="Trazado 9470" d="M41.938,98.139c.177.349.371.687.579,1.017l19.494,1.883q.4-.425.763-.886Z" transform="translate(-2.429 -5.686)" fill="#faa522"/>
            <path id="Trazado_9471" data-name="Trazado 9471" d="M40.649,91.642l24.53,2.37c.038-.243.071-.487.1-.735.007-.073.008-.144.015-.216L40.741,90.69Z" transform="translate(-2.355 -5.254)" fill="#faa522"/>
            <path id="Trazado_9472" data-name="Trazado 9472" d="M60.6,81.335a12.391,12.391,0,0,0-12.428-1.2Z" transform="translate(-2.79 -4.577)" fill="#faa522"/>
            <path id="Trazado_9473" data-name="Trazado 9473" d="M44.919,82.282l18.121,1.75a12.6,12.6,0,0,0-.894-1.047L46,81.426a12.3,12.3,0,0,0-1.08.856" transform="translate(-2.602 -4.717)" fill="#faa522"/>
            <path id="Trazado_9474" data-name="Trazado 9474" d="M46.986,103.516a12.408,12.408,0,0,0,10.444,1.009Z" transform="translate(-2.722 -5.997)" fill="#faa522"/>
            <path id="Trazado_9475" data-name="Trazado 9475" d="M43.6,83.636q-.366.431-.692.893L64.377,86.6q-.233-.517-.51-1.01Z" transform="translate(-2.486 -4.845)" fill="#faa522"/>
            <path id="Trazado_9476" data-name="Trazado 9476" d="M40.54,93.115q.034.49.106.97L64.6,96.4c.108-.3.2-.616.289-.933Z" transform="translate(-2.348 -5.395)" fill="#faa522"/>
            <path id="Trazado_9477" data-name="Trazado 9477" d="M41.078,88.279c-.058.187-.11.377-.159.569l-.037.373,24.454,2.362c-.009-.325-.027-.648-.061-.967Z" transform="translate(-2.368 -5.114)" fill="#faa522"/>
            <path id="Trazado_9478" data-name="Trazado 9478" d="M42.048,85.929c-.162.3-.307.6-.444.919l23.487,2.269c-.074-.333-.159-.662-.26-.986Z" transform="translate(-2.41 -4.978)" fill="#faa522"/>
            <path id="Trazado_9479" data-name="Trazado 9479" d="M38.509,90.016A12.409,12.409,0,1,0,52.054,78.857,12.408,12.408,0,0,0,38.509,90.016" transform="translate(-2.227 -4.565)" fill="#ffd165"/>
            <path id="Trazado_9480" data-name="Trazado 9480" d="M40.642,90.335a10.391,10.391,0,1,0,11.342-9.344,10.389,10.389,0,0,0-11.342,9.344" transform="translate(-2.351 -4.689)" fill="#ffc047"/>
            <path id="Trazado_9481" data-name="Trazado 9481" d="M41.757,90.442A10.392,10.392,0,0,1,52.539,81.06c-.184-.027-.368-.051-.557-.069a10.39,10.39,0,1,0-2,20.684c.187.018.374.03.56.039a10.391,10.391,0,0,1-8.787-11.272" transform="translate(-2.351 -4.689)" fill="#faa522"/>
            <path id="Trazado_9482" data-name="Trazado 9482" d="M56.02,91.18a5.96,5.96,0,0,0-2.667-1.228l.116-1.2a3.732,3.732,0,0,1,1.065.337,7.18,7.18,0,0,1,1.3.9l1.921-2.29A5.654,5.654,0,0,0,55.8,86.3a7.993,7.993,0,0,0-2.03-.648l.124-1.282-1.247-.12-.126,1.31a5.491,5.491,0,0,0-1.66.3,4.56,4.56,0,0,0-1.889,1.2,3.066,3.066,0,0,0-.838,1.817,2.441,2.441,0,0,0,.922,2.187,6.9,6.9,0,0,0,2.806,1.29l-.124,1.29a6.485,6.485,0,0,1-1.082-.358A4.093,4.093,0,0,1,49.3,92.44L47,94.777a5.092,5.092,0,0,0,1.9,1.568,7.343,7.343,0,0,0,2.5.763l-.131,1.356,1.246.121.138-1.435a5.7,5.7,0,0,0,1.556-.311,4.59,4.59,0,0,0,1.948-1.271,3.294,3.294,0,0,0,.844-1.9,2.742,2.742,0,0,0-.986-2.486m-4.17-1.567a.362.362,0,0,1-.246-.391q.041-.427.611-.526l-.1,1a1.974,1.974,0,0,1-.269-.088m1.24,3.99c-.028.014-.062.024-.093.036l.1-.993a1.87,1.87,0,0,1,.188.063.323.323,0,0,1,.2.365.639.639,0,0,1-.387.529" transform="translate(-2.722 -4.881)" fill="#faa522"/>
            <path id="Trazado_9483" data-name="Trazado 9483" d="M54.914,91.074a5.943,5.943,0,0,0-2.666-1.229l.116-1.2a3.684,3.684,0,0,1,1.065.337,7.086,7.086,0,0,1,1.3.9l1.92-2.29A5.64,5.64,0,0,0,54.694,86.2a8,8,0,0,0-2.03-.649l.124-1.281-1.247-.121-.126,1.311a5.445,5.445,0,0,0-1.661.3,4.571,4.571,0,0,0-1.889,1.2,3.067,3.067,0,0,0-.837,1.818,2.442,2.442,0,0,0,.922,2.187,6.9,6.9,0,0,0,2.806,1.289l-.124,1.29a6.389,6.389,0,0,1-1.082-.357,4.1,4.1,0,0,1-1.354-.854l-2.3,2.336a5.086,5.086,0,0,0,1.9,1.569A7.378,7.378,0,0,0,50.3,97l-.131,1.355,1.246.121.138-1.435a5.63,5.63,0,0,0,1.556-.311,4.588,4.588,0,0,0,1.948-1.27,3.294,3.294,0,0,0,.844-1.9,2.741,2.741,0,0,0-.987-2.486m-4.169-1.568a.361.361,0,0,1-.246-.391q.041-.425.611-.525l-.1,1a1.955,1.955,0,0,1-.269-.089m1.24,3.99c-.029.015-.062.024-.093.037l.1-.993a1.49,1.49,0,0,1,.188.063.321.321,0,0,1,.2.364.635.635,0,0,1-.386.529" transform="translate(-2.658 -4.875)" fill="#ffd165"/>
            <path id="Trazado_9484" data-name="Trazado 9484" d="M56.761,70.155a12.409,12.409,0,1,0,1.971-17.438,12.409,12.409,0,0,0-1.971,17.438" transform="translate(-3.131 -2.898)" fill="#ffc047"/>
            <path id="Trazado_9485" data-name="Trazado 9485" d="M79.453,64.936l-13.43,10.7a12.565,12.565,0,0,0,1.472.05l11.68-9.309a12.341,12.341,0,0,0,.279-1.445" transform="translate(-3.824 -3.762)" fill="#faa522"/>
            <path id="Trazado_9486" data-name="Trazado 9486" d="M60.475,73.606c.3.178.6.344.914.495L78.922,60.127c-.078-.335-.172-.67-.279-1Z" transform="translate(-3.503 -3.426)" fill="#faa522"/>
            <path id="Trazado_9487" data-name="Trazado 9487" d="M62.945,74.837q.555.191,1.124.327L79.385,62.958q-.007-.585-.069-1.169Z" transform="translate(-3.646 -3.58)" fill="#faa522"/>
            <path id="Trazado_9488" data-name="Trazado 9488" d="M57.5,70.919l19.273-15.36c-.141-.2-.288-.4-.443-.594-.045-.057-.093-.11-.139-.165L56.907,70.171Z" transform="translate(-3.296 -3.175)" fill="#faa522"/>
            <path id="Trazado_9489" data-name="Trazado 9489" d="M64.717,50.154a12.4,12.4,0,0,0-9.765,7.782Z" transform="translate(-3.183 -2.906)" fill="#faa522"/>
            <path id="Trazado_9490" data-name="Trazado 9490" d="M54.094,61.5,68.332,50.158a12.822,12.822,0,0,0-1.372-.131L54.273,60.139a12.554,12.554,0,0,0-.179,1.365" transform="translate(-3.133 -2.899)" fill="#faa522"/>
            <path id="Trazado_9491" data-name="Trazado 9491" d="M70.312,75.589a12.41,12.41,0,0,0,8.205-6.539Z" transform="translate(-4.073 -4.001)" fill="#faa522"/>
            <path id="Trazado_9492" data-name="Trazado 9492" d="M54.085,63.251c.024.375.065.751.123,1.124L71.073,50.934q-.527-.211-1.068-.371Z" transform="translate(-3.133 -2.93)" fill="#faa522"/>
            <path id="Trazado_9493" data-name="Trazado 9493" d="M58.446,72.063c.244.219.494.428.751.625l18.822-15c-.133-.294-.281-.585-.44-.871Z" transform="translate(-3.385 -3.292)" fill="#faa522"/>
            <path id="Trazado_9494" data-name="Trazado 9494" d="M55.478,68.211c.089.176.183.349.282.521l.233.292L75.205,53.713c-.233-.227-.47-.446-.716-.652Z" transform="translate(-3.213 -3.074)" fill="#faa522"/>
            <path id="Trazado_9495" data-name="Trazado 9495" d="M54.551,65.894c.092.326.2.648.319.968L73.324,52.156c-.285-.187-.576-.366-.872-.528Z" transform="translate(-3.16 -2.991)" fill="#faa522"/>
            <path id="Trazado_9496" data-name="Trazado 9496" d="M55.148,71.441A12.409,12.409,0,1,0,57.118,54a12.41,12.41,0,0,0-1.971,17.438" transform="translate(-3.038 -2.972)" fill="#ffd165"/>
            <path id="Trazado_9497" data-name="Trazado 9497" d="M56.849,70.307a10.39,10.39,0,1,0,1.651-14.6,10.391,10.391,0,0,0-1.651,14.6" transform="translate(-3.162 -3.096)" fill="#ffc047"/>
            <path id="Trazado_9498" data-name="Trazado 9498" d="M57.727,69.727a10.389,10.389,0,0,1,1.221-14.239c-.152.107-.3.22-.448.336A10.391,10.391,0,1,0,71.451,72.076c.148-.118.29-.238.429-.362a10.39,10.39,0,0,1-14.153-1.987" transform="translate(-3.162 -3.215)" fill="#faa522"/>
            <path id="Trazado_9499" data-name="Trazado 9499" d="M68.43,60.535a5.951,5.951,0,0,0-2.77.972l-.754-.946a3.7,3.7,0,0,1,1-.5,7.137,7.137,0,0,1,1.559-.254l-.214-2.982a5.632,5.632,0,0,0-2.372.356,7.982,7.982,0,0,0-1.911.947l-.8-1.007-.979.78.821,1.03a5.489,5.489,0,0,0-.982,1.374,4.576,4.576,0,0,0-.521,2.178,3.056,3.056,0,0,0,.663,1.887,2.441,2.441,0,0,0,2.184.931,6.9,6.9,0,0,0,2.912-1.027l.808,1.013a6.381,6.381,0,0,1-1.027.5,4.1,4.1,0,0,1-1.568.329l-.028,3.28a5.083,5.083,0,0,0,2.459-.2A7.363,7.363,0,0,0,69.237,68l.849,1.065.979-.78-.9-1.128a5.624,5.624,0,0,0,.9-1.306,4.609,4.609,0,0,0,.516-2.269,3.3,3.3,0,0,0-.716-1.953,2.746,2.746,0,0,0-2.439-1.1m-4.086,1.774A.362.362,0,0,1,63.9,62.2c-.179-.223-.153-.492.074-.8l.628.789a1.761,1.761,0,0,1-.255.123m3.667,2c-.01.03-.027.06-.041.091l-.622-.78a1.615,1.615,0,0,1,.179-.087.321.321,0,0,1,.394.126.635.635,0,0,1,.09.649" transform="translate(-3.505 -3.292)" fill="#faa522"/>
            <path id="Trazado_9500" data-name="Trazado 9500" d="M67.562,61.226a5.963,5.963,0,0,0-2.771.973l-.754-.946a3.725,3.725,0,0,1,1-.5A7.157,7.157,0,0,1,66.6,60.5l-.213-2.982a5.632,5.632,0,0,0-2.372.356,7.913,7.913,0,0,0-1.911.947l-.8-1.007-.979.78.821,1.03A5.489,5.489,0,0,0,60.158,61a4.587,4.587,0,0,0-.521,2.178,3.064,3.064,0,0,0,.663,1.887,2.443,2.443,0,0,0,2.184.931A6.9,6.9,0,0,0,65.4,64.968l.807,1.013a6.369,6.369,0,0,1-1.026.5,4.082,4.082,0,0,1-1.568.328l-.029,3.281a5.083,5.083,0,0,0,2.459-.2A7.353,7.353,0,0,0,68.368,68.7l.849,1.065.979-.78-.9-1.128a5.605,5.605,0,0,0,.9-1.307,4.585,4.585,0,0,0,.516-2.268A3.294,3.294,0,0,0,70,62.326a2.749,2.749,0,0,0-2.439-1.1M63.475,63a.362.362,0,0,1-.447-.109q-.267-.335.074-.8l.629.789a1.718,1.718,0,0,1-.256.123m3.667,2c-.011.03-.028.06-.042.091l-.621-.78a1.7,1.7,0,0,1,.178-.087.322.322,0,0,1,.395.126.636.636,0,0,1,.09.649" transform="translate(-3.454 -3.332)" fill="#ffd165"/>
            <path id="Trazado_9501" data-name="Trazado 9501" d="M87.231,49.093a12.409,12.409,0,1,0,15.72-7.8,12.41,12.41,0,0,0-15.72,7.8" transform="translate(-5.015 -2.355)" fill="#ffc047"/>
            <path id="Trazado_9502" data-name="Trazado 9502" d="M104.359,65.4l-16.275-5.48a12.2,12.2,0,0,0,.755,1.262l14.156,4.767a12.474,12.474,0,0,0,1.365-.549" transform="translate(-5.102 -3.471)" fill="#faa522"/>
            <path id="Trazado_9503" data-name="Trazado 9503" d="M86.589,54.276q.018.521.079,1.036l21.249,7.154c.24-.248.469-.508.689-.776Z" transform="translate(-5.016 -3.145)" fill="#faa522"/>
            <path id="Trazado_9504" data-name="Trazado 9504" d="M86.968,56.971q.141.569.334,1.121l18.561,6.251q.488-.322.945-.691Z" transform="translate(-5.038 -3.301)" fill="#faa522"/>
            <path id="Trazado_9505" data-name="Trazado 9505" d="M87.171,50.352l23.355,7.865c.092-.229.179-.459.259-.694.024-.069.041-.138.064-.206L87.476,49.446Z" transform="translate(-5.049 -2.865)" fill="#faa522"/>
            <path id="Trazado_9506" data-name="Trazado 9506" d="M108.939,44.884A12.4,12.4,0,0,0,97.105,40.9Z" transform="translate(-5.625 -2.355)" fill="#faa522"/>
            <path id="Trazado_9507" data-name="Trazado 9507" d="M93.452,42.217l17.253,5.81a12.708,12.708,0,0,0-.633-1.222L94.7,41.627a12.835,12.835,0,0,0-1.244.59" transform="translate(-5.413 -2.412)" fill="#faa522"/>
            <path id="Trazado_9508" data-name="Trazado 9508" d="M90.667,63.352a12.42,12.42,0,0,0,9.945,3.349Z" transform="translate(-5.252 -3.671)" fill="#faa522"/>
            <path id="Trazado_9509" data-name="Trazado 9509" d="M91.863,43.233q-.454.335-.878.713l20.439,6.883c-.073-.371-.162-.739-.268-1.1Z" transform="translate(-5.27 -2.505)" fill="#faa522"/>
            <path id="Trazado_9510" data-name="Trazado 9510" d="M86.738,51.761c-.052.324-.092.647-.117.969l22.81,7.681q.261-.408.493-.843Z" transform="translate(-5.017 -2.999)" fill="#faa522"/>
            <path id="Trazado_9511" data-name="Trazado 9511" d="M88.351,47.175q-.147.256-.285.518l-.12.355,23.283,7.84c.064-.318.121-.638.159-.956Z" transform="translate(-5.094 -2.734)" fill="#faa522"/>
            <path id="Trazado_9512" data-name="Trazado 9512" d="M89.828,45.11c-.224.254-.437.52-.641.793l22.364,7.53c0-.341-.006-.681-.031-1.018Z" transform="translate(-5.166 -2.614)" fill="#faa522"/>
            <path id="Trazado_9513" data-name="Trazado 9513" d="M85.276,48.435a12.409,12.409,0,1,0,15.72-7.8,12.41,12.41,0,0,0-15.72,7.8" transform="translate(-4.902 -2.317)" fill="#ffd165"/>
            <path id="Trazado_9514" data-name="Trazado 9514" d="M87.312,49.2a10.391,10.391,0,1,0,13.164-6.531A10.391,10.391,0,0,0,87.312,49.2" transform="translate(-5.026 -2.441)" fill="#ffc047"/>
            <path id="Trazado_9515" data-name="Trazado 9515" d="M88.376,49.561A10.39,10.39,0,0,1,101,42.866c-.172-.069-.348-.134-.526-.193a10.39,10.39,0,1,0-6.631,19.694q.267.089.536.165a10.391,10.391,0,0,1-6-12.971" transform="translate(-5.026 -2.441)" fill="#faa522"/>
            <path id="Trazado_9516" data-name="Trazado 9516" d="M102.115,53.461a5.952,5.952,0,0,0-2.319-1.8l.386-1.147a3.713,3.713,0,0,1,.96.571,7.076,7.076,0,0,1,1.059,1.172l2.389-1.8a5.64,5.64,0,0,0-1.585-1.8,7.956,7.956,0,0,0-1.832-1.092l.412-1.221-1.187-.4L99.978,47.2a5.462,5.462,0,0,0-1.686-.079,4.559,4.559,0,0,0-2.112.742,3.054,3.054,0,0,0-1.227,1.582,2.437,2.437,0,0,0,.4,2.338A6.9,6.9,0,0,0,97.8,53.671L97.384,54.9a6.61,6.61,0,0,1-.973-.594,4.115,4.115,0,0,1-1.126-1.139l-2.772,1.754a5.078,5.078,0,0,0,1.5,1.959,7.323,7.323,0,0,0,2.263,1.309l-.434,1.292,1.187.4.46-1.366a5.7,5.7,0,0,0,1.587.049,4.594,4.594,0,0,0,2.184-.8,3.292,3.292,0,0,0,1.253-1.661,2.745,2.745,0,0,0-.4-2.646M98.409,50.99a.361.361,0,0,1-.151-.436c.09-.27.33-.394.714-.372l-.321.956a1.73,1.73,0,0,1-.242-.148m.3,4.168c-.031.008-.065.009-.1.015l.317-.946a1.673,1.673,0,0,1,.17.1.32.32,0,0,1,.107.4.637.637,0,0,1-.5.428" transform="translate(-5.359 -2.663)" fill="#faa522"/>
            <path id="Trazado_9517" data-name="Trazado 9517" d="M101.062,53.107a5.952,5.952,0,0,0-2.319-1.8l.386-1.147a3.713,3.713,0,0,1,.96.571,7.076,7.076,0,0,1,1.059,1.172l2.389-1.8a5.64,5.64,0,0,0-1.585-1.8,7.936,7.936,0,0,0-1.832-1.092l.412-1.221-1.187-.4-.419,1.247a5.491,5.491,0,0,0-1.686-.079,4.559,4.559,0,0,0-2.112.742A3.054,3.054,0,0,0,93.9,49.088a2.437,2.437,0,0,0,.4,2.338,6.9,6.9,0,0,0,2.442,1.891l-.413,1.228a6.566,6.566,0,0,1-.974-.594,4.115,4.115,0,0,1-1.126-1.139L91.46,54.567a5.078,5.078,0,0,0,1.5,1.959,7.323,7.323,0,0,0,2.263,1.309l-.434,1.292,1.187.4.46-1.366a5.7,5.7,0,0,0,1.587.049,4.594,4.594,0,0,0,2.184-.8,3.292,3.292,0,0,0,1.253-1.661,2.745,2.745,0,0,0-.4-2.646m-3.706-2.471A.361.361,0,0,1,97.2,50.2c.09-.27.33-.394.714-.372l-.321.956a1.729,1.729,0,0,1-.242-.148m.3,4.168c-.031.008-.065.009-.1.015l.317-.946a1.675,1.675,0,0,1,.17.1.32.32,0,0,1,.107.4.637.637,0,0,1-.5.428" transform="translate(-5.298 -2.642)" fill="#ffd165"/>
            <path id="Trazado_9518" data-name="Trazado 9518" d="M36.034,54.256a40.023,40.023,0,0,1,1.9-5.218q1.105-2.5,2.451-4.892a55.116,55.116,0,0,1,6.346-8.959A54.036,54.036,0,0,1,64.375,21.871,65.256,65.256,0,0,1,74.895,18.1l2.723-.615,1.365-.3,1.374-.221,2.756-.438,2.767-.28a93.388,93.388,0,0,1,22.069.713l-1.67,9.272A84.82,84.82,0,0,0,86.335,24.1l-2.5.065-2.48.212-1.243.1-1.229.181-2.461.366a58.733,58.733,0,0,0-9.556,2.646A48.456,48.456,0,0,0,50.216,38.441a50.726,50.726,0,0,0-6.429,7.793c-.94,1.408-1.807,2.868-2.6,4.364a37.495,37.495,0,0,0-2.06,4.552Z" transform="translate(-2.087 -0.921)" fill="#1f6884"/>
            <path id="Trazado_9519" data-name="Trazado 9519" d="M31.265,50.959l15.091,5.866L34.028,65.258Z" transform="translate(-1.811 -2.953)" fill="#1f6884"/>
            <path id="Trazado_9520" data-name="Trazado 9520" d="M157.126,157.971a39.828,39.828,0,0,1-3.312,4.458q-1.773,2.084-3.747,3.99a55.047,55.047,0,0,1-8.642,6.772,54.013,54.013,0,0,1-20.711,7.721,65.357,65.357,0,0,1-11.157.6l-2.784-.187-1.4-.1L104,181.046l-2.765-.367-2.731-.522a93.337,93.337,0,0,1-20.947-6.988l4.251-8.407a84.772,84.772,0,0,0,18.5,7.736l2.413.652,2.438.5,1.221.256,1.228.177,2.464.353a58.567,58.567,0,0,0,9.914.193,48.447,48.447,0,0,0,19.032-5.557,50.818,50.818,0,0,0,8.387-5.632c1.3-1.082,2.551-2.233,3.741-3.439a37.32,37.32,0,0,0,3.276-3.774Z" transform="translate(-4.492 -9.051)" fill="#1f6884"/>
            <path id="Trazado_9521" data-name="Trazado 9521" d="M164.187,163.971,151.4,154.038l14.223-4.562Z" transform="translate(-8.77 -8.659)" fill="#1f6884"/>
          </g>
        </g>
      </g>
    </g>
  </g>
</svg>
