<svg id="Grupo_4914" data-name="Grupo 4914" xmlns="http://www.w3.org/2000/svg" xmlns:xlink="http://www.w3.org/1999/xlink" width="462.504" height="360.497" viewBox="0 0 462.504 360.497">
  <defs>
    <clipPath id="clip-path">
      <rect id="Rectángulo_3944" data-name="Rectángulo 3944" width="462.504" height="360.497" fill="none"/>
    </clipPath>
    <clipPath id="clip-path-3">
      <rect id="Rectángulo_3935" data-name="Rectángulo 3935" width="272.189" height="99.32" fill="none"/>
    </clipPath>
    <clipPath id="clip-path-4">
      <rect id="Rectángulo_3936" data-name="Rectángulo 3936" width="126.085" height="82.683" fill="none"/>
    </clipPath>
    <clipPath id="clip-path-5">
      <rect id="Rectángulo_3937" data-name="Rectángulo 3937" width="121.425" height="58.775" fill="none"/>
    </clipPath>
    <clipPath id="clip-path-6">
      <rect id="Rectángulo_3938" data-name="Rectángulo 3938" width="17.267" height="22.573" fill="none"/>
    </clipPath>
    <clipPath id="clip-path-7">
      <rect id="Rectángulo_3939" data-name="Rectángulo 3939" width="4.316" height="4.718" fill="none"/>
    </clipPath>
    <clipPath id="clip-path-8">
      <rect id="Rectángulo_3940" data-name="Rectángulo 3940" width="4.678" height="4.456" fill="none"/>
    </clipPath>
    <clipPath id="clip-path-9">
      <rect id="Rectángulo_3941" data-name="Rectángulo 3941" width="126.372" height="77.032" fill="none"/>
    </clipPath>
    <clipPath id="clip-path-10">
      <rect id="Rectángulo_3942" data-name="Rectángulo 3942" width="65.126" height="65.125" fill="none"/>
    </clipPath>
  </defs>
  <g id="Grupo_4913" data-name="Grupo 4913" clip-path="url(#clip-path)">
    <g id="Grupo_4912" data-name="Grupo 4912">
      <g id="Grupo_4911" data-name="Grupo 4911" clip-path="url(#clip-path)">
        <path id="Trazado_9606" data-name="Trazado 9606" d="M156.151,67.836a114.308,114.308,0,0,1,15.086-24.041c48.9-59.817,144.979-54.778,201.318-6.561,62.484,53.476,56.706,143.475,55.429,158.852-4.443,53.5-32.216,140.575-96.1,158.313-29.678,8.24-58-1.026-82.7-18.216-19.511-13.576-45.238-12.309-63.862,3.606A88.4,88.4,0,0,1,161.7,354.5c-19.743,8.156-37.318,5.971-44.931,4.928C57.427,351.3-.542,283.738,0,220.566c.627-72.492,78.209-128.1,156.147-152.73" transform="translate(0 0)" fill="#ecf3fe"/>
        <path id="Trazado_9607" data-name="Trazado 9607" d="M1050.941,1161.96v142.523c0,.173-.008.347-.016.528,0,.083-.008.165-.016.248s-.008.157-.017.24c0,.033-.008.066-.008.1-.008.058-.017.107-.025.157-.008.124-.033.248-.05.372s-.041.239-.066.355a1.342,1.342,0,0,1-.041.173.371.371,0,0,1-.025.132,1.3,1.3,0,0,1-.041.173c-.025.107-.058.215-.083.314a.15.15,0,0,1-.017.057c-.058.182-.107.363-.173.537a.031.031,0,0,1-.008.025c-.033.091-.066.182-.1.264s-.066.157-.091.231a.328.328,0,0,0-.025.066c-.1.223-.2.454-.314.669-.033.066-.074.149-.115.223s-.083.14-.124.215-.074.14-.124.206c-.083.14-.174.281-.264.413-.058.091-.116.165-.165.248-.14.181-.272.363-.421.536q-.161.2-.322.372c-.107.124-.223.24-.339.355-.049.058-.107.107-.165.165a1.216,1.216,0,0,1-.157.14c-.058.058-.124.116-.19.174-.016.016-.041.033-.058.05-.157.14-.322.272-.487.4a.225.225,0,0,0-.05.041c-.132.091-.264.19-.4.281-.049.033-.091.066-.132.091-.074.05-.149.1-.223.141a1.313,1.313,0,0,1-.182.107,2.252,2.252,0,0,1-.2.115,9.217,9.217,0,0,1-1.453.669c-.033.008-.058.025-.091.033s-.074.025-.107.033c-.116.041-.231.082-.355.115-.207.066-.413.115-.62.165l-.322.074a1.783,1.783,0,0,1-.206.033l-.256.05c-.016,0-.025,0-.033.008l-.207.025c-.033,0-.066.008-.1.008l-.182.025c-.033,0-.066.008-.107.008l-.38.025c-.182.008-.363.016-.545.016h-251.8c-.182,0-.363-.008-.545-.016l-.38-.025a3.668,3.668,0,0,1-.421-.05,2.058,2.058,0,0,1-.239-.033c-.2-.025-.4-.066-.586-.107a1.209,1.209,0,0,1-.165-.041c-.207-.05-.413-.1-.619-.165-.124-.041-.239-.074-.355-.115a11.121,11.121,0,0,1-1.6-.7l-.372-.223c-.14-.083-.281-.174-.413-.264a10.288,10.288,0,0,1-2.171-1.973q-.222-.26-.421-.545a9.77,9.77,0,0,1-1.131-2.031c-.066-.165-.132-.347-.2-.52s-.115-.355-.173-.537-.1-.363-.14-.545-.074-.338-.107-.512c-.008-.025-.008-.058-.016-.083-.025-.165-.05-.339-.066-.5a.061.061,0,0,1-.008-.041c-.016-.132-.025-.256-.033-.388-.025-.256-.033-.512-.033-.776V1161.96a10.16,10.16,0,0,1,3.715-7.869.485.485,0,0,1,.066-.049l.528-.4a10.117,10.117,0,0,1,5.887-1.874h251.8a6.993,6.993,0,0,1,.727.033.359.359,0,0,1,.132.008c.231.017.471.042.694.074l.157.025c.2.033.4.074.586.124a.945.945,0,0,1,.149.033c.239.058.47.124.7.2.215.066.438.149.644.231a8.265,8.265,0,0,1,.867.4,4.989,4.989,0,0,1,.463.247,6.618,6.618,0,0,1,.76.5c.008-.009.008,0,.008,0l.529.4a.472.472,0,0,1,.066.049c.141.108.264.223.388.339.1.083.19.173.281.264a8.93,8.93,0,0,1,.793.875q.173.211.322.421a9.56,9.56,0,0,1,1.082,1.9c.083.182.157.372.231.562,0,.008.008.016.008.025a9.406,9.406,0,0,1,.289.933c.041.157.074.306.107.462.025.124.05.239.066.363s.041.248.058.372a4.094,4.094,0,0,1,.049.446,2.961,2.961,0,0,1,.025.38c.008.173.016.355.016.528" transform="translate(-675.108 -998.476)" fill="#dfe5ea"/>
        <path id="Trazado_9608" data-name="Trazado 9608" d="M1054.31,536.234H783.342a10.2,10.2,0,0,1,3.1-4.384.477.477,0,0,1,.066-.049l.528-.4L912.58,436.1a10.317,10.317,0,0,1,12.492,0L1050.6,531.4c.008-.009.008,0,.008,0l.529.4a.479.479,0,0,1,.066.049c.14.107.264.223.388.339.1.083.19.173.281.264a8.921,8.921,0,0,1,.792.875q.173.21.322.421a9.566,9.566,0,0,1,1.082,1.9c.083.182.157.372.231.562,0,.008.008.017.008.025" transform="translate(-679.088 -376.235)" fill="#5b97ef"/>
        <path id="Trazado_9609" data-name="Trazado 9609" d="M1136.808,803.659H900.344V589.1A18.253,18.253,0,0,1,918.6,570.85h199.958a18.253,18.253,0,0,1,18.253,18.253Z" transform="translate(-780.518 -494.876)" fill="#fff"/>
        <path id="Trazado_9610" data-name="Trazado 9610" d="M1280.866,888.009H1107.113a4.439,4.439,0,0,1-4.426-4.426V881.7a4.439,4.439,0,0,1,4.426-4.426h173.753a4.439,4.439,0,0,1,4.426,4.426v1.882a4.439,4.439,0,0,1-4.426,4.426" transform="translate(-955.932 -760.519)" fill="#e4ecf9"/>
        <path id="Trazado_9611" data-name="Trazado 9611" d="M1280.866,1060.3H1107.113a4.439,4.439,0,0,1-4.426-4.426v-1.882a4.439,4.439,0,0,1,4.426-4.426h173.753a4.439,4.439,0,0,1,4.426,4.426v1.882a4.439,4.439,0,0,1-4.426,4.426" transform="translate(-955.932 -909.88)" fill="#e4ecf9"/>
        <path id="Trazado_9612" data-name="Trazado 9612" d="M1280.866,1232.592H1107.113a4.439,4.439,0,0,1-4.426-4.426v-1.882a4.439,4.439,0,0,1,4.426-4.426h173.753a4.439,4.439,0,0,1,4.426,4.426v1.882a4.439,4.439,0,0,1-4.426,4.426" transform="translate(-955.932 -1059.243)" fill="#e4ecf9"/>
        <path id="Trazado_9613" data-name="Trazado 9613" d="M1280.866,1404.884H1107.113a4.439,4.439,0,0,1-4.426-4.426v-1.882a4.439,4.439,0,0,1,4.426-4.426h173.753a4.438,4.438,0,0,1,4.426,4.426v1.882a4.439,4.439,0,0,1-4.426,4.426" transform="translate(-955.932 -1208.605)" fill="#e4ecf9"/>
        <path id="Trazado_9614" data-name="Trazado 9614" d="M1280.866,1577.175H1107.113a4.439,4.439,0,0,1-4.426-4.426v-1.882a4.439,4.439,0,0,1,4.426-4.426h173.753a4.439,4.439,0,0,1,4.426,4.426v1.882a4.439,4.439,0,0,1-4.426,4.426" transform="translate(-955.932 -1357.966)" fill="#e4ecf9"/>
        <path id="Trazado_9615" data-name="Trazado 9615" d="M914.851,1237.044v.008a6.68,6.68,0,0,1-1.4,1.156L789.51,1314.679h-.561a9.959,9.959,0,0,1-2.956-.437c-.132-.041-.264-.083-.388-.124a10.1,10.1,0,0,1-4.2-2.782q-.161-.173-.322-.372a9.5,9.5,0,0,1-.85-1.2c-.091-.14-.165-.281-.248-.421s-.157-.3-.223-.446a10.143,10.143,0,0,1-1.007-4.417V1161.96a10.16,10.16,0,0,1,3.715-7.869.49.49,0,0,1,.066-.049l.528-.4a10.117,10.117,0,0,1,5.887-1.874h2.328l10.882,6.713,100.316,61.9,3.773,2.328,7.2,4.442a6.676,6.676,0,0,1,1.4,1.156v.008a6.523,6.523,0,0,1,0,8.735" transform="translate(-675.109 -998.476)" fill="#3b82f4"/>
        <path id="Trazado_9616" data-name="Trazado 9616" d="M1926.486,1161.96v142.523c0,.173-.008.347-.016.528,0,.083-.008.165-.016.248s-.008.157-.017.24c0,.033-.008.066-.008.1-.008.058-.017.107-.025.157-.008.124-.033.248-.05.372s-.041.239-.066.355c0,.016-.008.041-.008.058a.845.845,0,0,1-.033.116.371.371,0,0,1-.025.132,1.333,1.333,0,0,1-.041.173c-.025.107-.05.206-.083.314a.15.15,0,0,1-.017.057c-.05.182-.107.363-.173.537a.031.031,0,0,1-.008.025c-.033.091-.058.173-.1.264-.025.074-.058.149-.091.231a.5.5,0,0,0-.025.066c-.1.223-.2.454-.314.669-.033.066-.074.149-.116.223s-.083.14-.124.215-.074.14-.124.206c-.083.14-.174.281-.264.413-.057.091-.115.165-.165.248-.14.19-.281.363-.421.536q-.161.2-.322.372c-.107.124-.223.24-.339.355-.049.058-.107.107-.165.165a1.223,1.223,0,0,1-.157.14c-.058.058-.124.116-.19.174-.016.016-.041.033-.058.05-.157.14-.322.272-.487.4a.222.222,0,0,0-.05.041c-.132.091-.264.19-.4.281-.05.033-.091.066-.132.091-.074.05-.149.1-.223.141a1.327,1.327,0,0,1-.182.107,2.269,2.269,0,0,1-.2.115,9.232,9.232,0,0,1-1.453.669c-.033.008-.066.025-.091.033s-.074.025-.107.033c-.116.041-.231.082-.355.115-.207.066-.413.115-.62.165l-.322.074a1.783,1.783,0,0,1-.206.033l-.256.05h-.025c-.074.008-.148.025-.215.033-.033,0-.066.008-.1.008l-.182.025c-.033,0-.066.008-.107.008l-.38.025c-.182.008-.363.016-.545.016h-.561l-123.937-76.471a6.43,6.43,0,0,1-1.4-1.156v-.008a6.505,6.505,0,0,1,0-8.735v-.008a6.427,6.427,0,0,1,1.4-1.156l7.191-4.442,3.773-2.328,100.324-61.9,10.882-6.713h2.328a6.991,6.991,0,0,1,.727.033.36.36,0,0,1,.132.008c.231.017.471.042.693.074l.157.025c.2.033.4.074.586.124a.945.945,0,0,1,.149.033c.24.058.471.124.7.2.215.066.438.149.644.231a8.253,8.253,0,0,1,.867.4,4.991,4.991,0,0,1,.463.247,6.65,6.65,0,0,1,.76.5c.008-.009.008,0,.008,0l.528.4a.472.472,0,0,1,.066.049c.141.108.264.223.388.339.1.083.19.173.281.264a8.913,8.913,0,0,1,.793.875q.174.211.322.421a9.566,9.566,0,0,1,1.082,1.9c.083.182.157.372.231.562,0,.008.008.016.008.025a9.374,9.374,0,0,1,.289.933c.041.157.074.306.107.462.025.124.05.239.066.363s.041.248.058.372a4.094,4.094,0,0,1,.049.446,2.961,2.961,0,0,1,.025.38c.008.173.016.355.016.528" transform="translate(-1550.653 -998.476)" fill="#3b82f4"/>
        <g id="Grupo_4889" data-name="Grupo 4889" transform="translate(103.643 216.883)" opacity="0.29">
          <g id="Grupo_4888" data-name="Grupo 4888">
            <g id="Grupo_4887" data-name="Grupo 4887" clip-path="url(#clip-path-3)">
              <path id="Trazado_9617" data-name="Trazado 9617" d="M1050.941,1716.806v1.482a10.428,10.428,0,0,1-10.2,10.643h-251.8a10.428,10.428,0,0,1-10.2-10.643v-1.482l129.51-85.209a11.9,11.9,0,0,1,13.161,0Z" transform="translate(-778.751 -1629.612)" fill="#474747"/>
            </g>
          </g>
        </g>
        <path id="Trazado_9618" data-name="Trazado 9618" d="M1050.941,1744.479v1.42a10.2,10.2,0,0,1-10.2,10.2h-251.8a10.2,10.2,0,0,1-10.2-10.2v-1.42l129.51-81.631a12.34,12.34,0,0,1,13.161,0Z" transform="translate(-675.108 -1439.893)" fill="#5b97ef"/>
        <path id="Trazado_9619" data-name="Trazado 9619" d="M1182.889,715.717h-75.777a4.439,4.439,0,0,1-4.426-4.426V709.41a4.439,4.439,0,0,1,4.426-4.426h75.777a4.439,4.439,0,0,1,4.426,4.426v1.882a4.439,4.439,0,0,1-4.426,4.426" transform="translate(-955.931 -611.158)" fill="#3b82f4"/>
        <path id="Trazado_9620" data-name="Trazado 9620" d="M153.744,908.64l-.068,0c-3.019-.12-6.057-.381-9.032-.776a1.671,1.671,0,1,1,.439-3.312c2.873.38,5.809.633,8.726.749a1.671,1.671,0,0,1-.065,3.341m8.906-.042a1.671,1.671,0,0,1-.08-3.341c2.882-.14,5.82-.408,8.734-.8a1.671,1.671,0,1,1,.443,3.312c-3.007.4-6.039.679-9.014.824l-.083,0M136.1,906.292a1.7,1.7,0,0,1-.376-.043c-2.93-.674-5.868-1.5-8.732-2.447a1.671,1.671,0,1,1,1.052-3.172c2.765.917,5.6,1.711,8.429,2.361a1.671,1.671,0,0,1-.373,3.3m44.208-.033a1.671,1.671,0,0,1-.35-3.3c2.834-.609,5.7-1.339,8.517-2.169a1.671,1.671,0,1,1,.945,3.206c-2.9.854-5.844,1.6-8.759,2.23a1.671,1.671,0,0,1-.352.038m17.1-5.018a1.671,1.671,0,0,1-.584-3.237c2.73-1.018,5.468-2.146,8.137-3.356a1.671,1.671,0,1,1,1.379,3.044c-2.738,1.24-5.547,2.4-8.348,3.443a1.679,1.679,0,0,1-.583.106m-78.218-.529a1.674,1.674,0,0,1-.657-.135c-2.705-1.159-5.454-2.459-8.171-3.864a1.671,1.671,0,1,1,1.535-2.968c2.646,1.367,5.322,2.633,7.953,3.76a1.672,1.672,0,0,1-.659,3.208m94.451-6.831a1.671,1.671,0,0,1-.8-3.141c2.35-1.27,4.586-2.583,6.646-3.9a1.671,1.671,0,1,1,1.8,2.817c-2.128,1.361-4.435,2.714-6.856,4.023a1.661,1.661,0,0,1-.794.2m-110.29-1.345a1.666,1.666,0,0,1-.866-.242c-2.588-1.571-5.131-3.235-7.557-4.947a1.671,1.671,0,1,1,1.927-2.731c2.363,1.667,4.841,3.289,7.364,4.819a1.672,1.672,0,0,1-.868,3.1M88.787,882.243a1.664,1.664,0,0,1-1.062-.382c-2.265-1.866-4.436-3.8-6.458-5.762a1.695,1.695,0,0,1,1.747-2.9,75.591,75.591,0,0,0,8.175,1.366,1.671,1.671,0,0,1-.368,3.322q-1.549-.171-3.107-.408,1.051.912,2.136,1.806a1.671,1.671,0,0,1-1.064,2.961M99.9,878.349a1.671,1.671,0,0,1-.014-3.343c2.327-.02,4.678-.155,6.988-.4.473-.05,1.032-.11,1.724-.193a1.671,1.671,0,1,1,.4,3.318c-.708.085-1.28.146-1.7.191q-3.73.4-7.382.427Zm17.707-2.065a1.671,1.671,0,0,1-.343-3.307c2.911-.613,5.768-1.349,8.492-2.19a1.672,1.672,0,0,1,.985,3.195c-2.822.869-5.779,1.632-8.789,2.266a1.67,1.67,0,0,1-.346.036M73.673,873.92a1.663,1.663,0,0,1-.554-.1,83.631,83.631,0,0,1-8.4-3.481,1.672,1.672,0,0,1,1.446-3.014,79.96,79.96,0,0,0,8.059,3.342,1.671,1.671,0,0,1-.554,3.248m60.954-2.927a1.671,1.671,0,0,1-.661-3.207,67.022,67.022,0,0,0,7.758-3.928,1.671,1.671,0,1,1,1.707,2.873,70.282,70.282,0,0,1-8.145,4.126,1.671,1.671,0,0,1-.659.136m-58.543-1.217a1.668,1.668,0,0,1-1.28-.6,77.067,77.067,0,0,1-5.447-7.3,1.671,1.671,0,1,1,2.8-1.832,73.885,73.885,0,0,0,5.21,6.98,1.671,1.671,0,0,1-1.279,2.746m-18.455-3.545a1.667,1.667,0,0,1-.878-.25A86.118,86.118,0,0,1,49.29,860.8a1.671,1.671,0,1,1,2.049-2.64,82.917,82.917,0,0,0,7.171,4.98,1.672,1.672,0,0,1-.881,3.093m92.224-4.4a1.671,1.671,0,0,1-1.076-2.951,43.978,43.978,0,0,0,6.009-6.107,1.671,1.671,0,0,1,2.605,2.094,47.406,47.406,0,0,1-6.465,6.573,1.664,1.664,0,0,1-1.074.391M43.575,855.323a1.664,1.664,0,0,1-1.159-.468,84.128,84.128,0,0,1-6.2-6.645,1.671,1.671,0,1,1,2.564-2.144,81.163,81.163,0,0,0,5.953,6.381,1.671,1.671,0,0,1-1.159,2.875m22.831-.456a1.671,1.671,0,0,1-1.516-.966,53.313,53.313,0,0,1-3.161-8.624,1.671,1.671,0,0,1,3.228-.867,49.96,49.96,0,0,0,2.963,8.08,1.671,1.671,0,0,1-1.514,2.376m94.468-6.856a1.671,1.671,0,0,1-1.5-2.411,39.6,39.6,0,0,0,2.8-7.54l.121-.472a1.671,1.671,0,0,1,3.242.812l-.128.5a42.889,42.889,0,0,1-3.039,8.177,1.672,1.672,0,0,1-1.5.931m-128.7-6.338a1.67,1.67,0,0,1-1.395-.749,79.974,79.974,0,0,1-4.585-7.857,1.671,1.671,0,0,1,2.978-1.517,76.747,76.747,0,0,0,4.393,7.528,1.671,1.671,0,0,1-1.391,2.594m29.71-3.921a1.671,1.671,0,0,1-1.666-1.563c-.062-.951-.093-1.918-.093-2.874a44.957,44.957,0,0,1,.455-6.358,1.671,1.671,0,1,1,3.309.475,41.558,41.558,0,0,0-.421,5.883c0,.885.029,1.779.086,2.658a1.671,1.671,0,0,1-1.56,1.776c-.036,0-.073,0-.11,0m103.3-6.9-.074,0a1.671,1.671,0,0,1-1.6-1.742q.042-.968.042-1.937a47.231,47.231,0,0,0-.476-6.642,1.671,1.671,0,0,1,3.309-.471,50.577,50.577,0,0,1,.509,7.112q0,1.04-.044,2.082a1.672,1.672,0,0,1-1.668,1.6M24.1,825.825a1.671,1.671,0,0,1-1.566-1.087,82.48,82.48,0,0,1-2.7-8.684,1.671,1.671,0,1,1,3.241-.815,79.045,79.045,0,0,0,2.59,8.33,1.671,1.671,0,0,1-1.565,2.256m40.235-5.61a1.672,1.672,0,0,1-1.582-2.209,60.594,60.594,0,0,1,3.614-8.417,1.671,1.671,0,0,1,2.965,1.543,57.24,57.24,0,0,0-3.415,7.949,1.671,1.671,0,0,1-1.582,1.134M162.72,813.3a1.672,1.672,0,0,1-1.59-1.159,53.785,53.785,0,0,0-3.305-7.977,1.671,1.671,0,0,1,2.976-1.522,57.237,57.237,0,0,1,3.511,8.474,1.672,1.672,0,0,1-1.591,2.185M19.744,808.575a1.672,1.672,0,0,1-1.653-1.437,90.6,90.6,0,0,1-.815-9.042,1.671,1.671,0,0,1,3.34-.133,87.135,87.135,0,0,0,.784,8.706,1.674,1.674,0,0,1-1.657,1.906m52.743-4.149a1.671,1.671,0,0,1-1.365-2.633,72.277,72.277,0,0,1,5.715-7.109,1.671,1.671,0,1,1,2.468,2.254,69.058,69.058,0,0,0-5.45,6.778,1.667,1.667,0,0,1-1.368.71m82.156-6.937a1.671,1.671,0,0,1-1.35-.684,52.739,52.739,0,0,0-5.648-6.526,1.671,1.671,0,0,1,2.338-2.389,56.1,56.1,0,0,1,6.008,6.941,1.672,1.672,0,0,1-1.347,2.659m-70.158-6.193a1.671,1.671,0,0,1-1.081-2.946,67.369,67.369,0,0,1,7.348-5.425,1.671,1.671,0,0,1,1.795,2.819,63.989,63.989,0,0,0-6.982,5.155,1.665,1.665,0,0,1-1.079.4m-65.459-.5-.1,0a1.672,1.672,0,0,1-1.573-1.765,90.263,90.263,0,0,1,.97-9.028,1.671,1.671,0,1,1,3.3.527,86.942,86.942,0,0,0-.933,8.692,1.672,1.672,0,0,1-1.667,1.575m122.9-5.679a1.663,1.663,0,0,1-.936-.288,43.45,43.45,0,0,0-7.523-4.1,1.671,1.671,0,1,1,1.3-3.081,46.807,46.807,0,0,1,8.1,4.413,1.671,1.671,0,0,1-.939,3.054M99.5,781.8a1.671,1.671,0,0,1-.673-3.2,52.614,52.614,0,0,1,8.7-2.963,1.671,1.671,0,1,1,.789,3.248,49.26,49.26,0,0,0-8.143,2.775,1.661,1.661,0,0,1-.671.142m26.1-3.487a1.681,1.681,0,0,1-.3-.028,38.929,38.929,0,0,0-6.971-.628c-.473-.009-1.026.009-1.538.029a1.671,1.671,0,0,1-.129-3.34c.555-.021,1.149-.011,1.668-.031a42.288,42.288,0,0,1,7.571.682,1.671,1.671,0,0,1-.3,3.315M21.9,773.231a1.672,1.672,0,0,1-1.61-2.124,84.635,84.635,0,0,1,2.928-8.6,1.671,1.671,0,0,1,3.1,1.247,81.14,81.14,0,0,0-2.812,8.256,1.672,1.672,0,0,1-1.608,1.219m6.623-16.5a1.672,1.672,0,0,1-1.475-2.454,88.41,88.41,0,0,1,4.665-7.791,1.671,1.671,0,0,1,2.776,1.862A85.038,85.038,0,0,0,30,755.843a1.67,1.67,0,0,1-1.478.889m9.9-14.786a1.671,1.671,0,0,1-1.287-2.736c1.911-2.313,3.968-4.569,6.111-6.705a1.671,1.671,0,1,1,2.359,2.367c-2.068,2.061-4.051,4.237-5.895,6.468a1.667,1.667,0,0,1-1.289.606M51.03,729.37a1.671,1.671,0,0,1-1.065-2.96c2.311-1.908,4.75-3.741,7.247-5.448a1.671,1.671,0,1,1,1.886,2.759c-2.414,1.65-4.771,3.421-7.005,5.266a1.662,1.662,0,0,1-1.063.383m14.7-10.054a1.671,1.671,0,0,1-.818-3.129c2.614-1.466,5.336-2.84,8.089-4.083a1.671,1.671,0,0,1,1.376,3.045c-2.665,1.2-5.3,2.535-7.831,3.953a1.663,1.663,0,0,1-.816.214m16.233-7.341a1.671,1.671,0,0,1-.557-3.247c2.825-1,5.736-1.891,8.651-2.655a1.671,1.671,0,1,1,.847,3.233c-2.825.74-5.646,1.606-8.384,2.573a1.684,1.684,0,0,1-.557.1" transform="translate(-14.976 -612.055)" fill="#f4b545"/>
        <g id="Grupo_4892" data-name="Grupo 4892" transform="translate(24.249 53.779)" opacity="0.1">
          <g id="Grupo_4891" data-name="Grupo 4891">
            <g id="Grupo_4890" data-name="Grupo 4890" clip-path="url(#clip-path-4)">
              <path id="Trazado_9621" data-name="Trazado 9621" d="M308.287,404.076,182.2,420.9l30.568,23.186.479,42.674,26.342-22.375,14.8,11.161Z" transform="translate(-182.202 -404.076)" fill="#232323"/>
            </g>
          </g>
        </g>
        <path id="Trazado_9622" data-name="Trazado 9622" d="M431.6,467.313l-.7-62.335,95.737-20.348Z" transform="translate(-373.552 -333.44)" fill="#46c1aa"/>
        <path id="Trazado_9623" data-name="Trazado 9623" d="M233.649,424.8c.484-.243,95.31-40.166,95.31-40.166L202.874,401.454Z" transform="translate(-175.874 -333.44)" fill="#52d1bd"/>
        <path id="Trazado_9624" data-name="Trazado 9624" d="M446.333,729.765l-10.18,34.561,43.661-37.086Z" transform="translate(-378.106 -630.453)" fill="#3caf99"/>
        <path id="Trazado_9625" data-name="Trazado 9625" d="M512.642,432.752,543.606,456.1,597.5,384.63Z" transform="translate(-444.415 -333.44)" fill="#52d1bd"/>
        <g id="Grupo_4895" data-name="Grupo 4895" transform="translate(281.095 165.926)" opacity="0.1">
          <g id="Grupo_4894" data-name="Grupo 4894">
            <g id="Grupo_4893" data-name="Grupo 4893" clip-path="url(#clip-path-5)">
              <path id="Trazado_9626" data-name="Trazado 9626" d="M2230.594,1249.468a2.932,2.932,0,0,0-3.1-2.732l-112.669,7.162a2.931,2.931,0,0,0-2.732,3.1l2.909,45.767a2.931,2.931,0,0,0,3.1,2.732l112.669-7.162a2.932,2.932,0,0,0,2.732-3.1Z" transform="translate(-2112.085 -1246.731)" fill="#232323"/>
            </g>
          </g>
        </g>
        <path id="Trazado_9627" data-name="Trazado 9627" d="M2252.181,1266.723l-112.669,7.162a2.931,2.931,0,0,1-3.1-2.731l-2.909-45.767a2.931,2.931,0,0,1,2.731-3.1l112.669-7.162a2.931,2.931,0,0,1,3.1,2.732l2.909,45.767a2.932,2.932,0,0,1-2.732,3.1" transform="translate(-1849.55 -1053.398)" fill="#fff"/>
        <path id="Trazado_9628" data-name="Trazado 9628" d="M2599.382,1287.72l-49.166,3.125a2.319,2.319,0,0,1-2.454-2.16l-.007-.116a2.318,2.318,0,0,1,2.16-2.453l49.166-3.125a2.318,2.318,0,0,1,2.453,2.16l.007.116a2.318,2.318,0,0,1-2.16,2.453" transform="translate(-2208.673 -1112.235)" fill="#3b82f4"/>
        <path id="Trazado_9629" data-name="Trazado 9629" d="M2604.309,1365.227l-49.167,3.125a2.318,2.318,0,0,1-2.453-2.16l-.007-.116a2.318,2.318,0,0,1,2.16-2.453l49.166-3.125a2.319,2.319,0,0,1,2.454,2.16l.007.116a2.319,2.319,0,0,1-2.16,2.454" transform="translate(-2212.944 -1179.426)" fill="#ecf3fe"/>
        <path id="Trazado_9630" data-name="Trazado 9630" d="M2609.235,1442.733l-49.166,3.125a2.318,2.318,0,0,1-2.453-2.16l-.007-.116a2.318,2.318,0,0,1,2.16-2.454l49.166-3.125a2.318,2.318,0,0,1,2.453,2.16l.007.116a2.318,2.318,0,0,1-2.16,2.453" transform="translate(-2217.215 -1246.617)" fill="#ecf3fe"/>
        <path id="Trazado_9631" data-name="Trazado 9631" d="M2614.162,1520.238,2565,1523.364a2.318,2.318,0,0,1-2.453-2.16l-.007-.116a2.318,2.318,0,0,1,2.16-2.453l49.166-3.125a2.318,2.318,0,0,1,2.453,2.16l.007.116a2.318,2.318,0,0,1-2.16,2.453" transform="translate(-2221.486 -1313.808)" fill="#ecf3fe"/>
        <path id="Trazado_9632" data-name="Trazado 9632" d="M2224.812,1308.776a21.7,21.7,0,1,1-23.033-20.28,21.7,21.7,0,0,1,23.033,20.28" transform="translate(-1891.127 -1116.973)" fill="#ecf3fe"/>
        <path id="Trazado_9633" data-name="Trazado 9633" d="M2293.172,1521.368a17.108,17.108,0,0,1-3.712,2.49,16.5,16.5,0,0,1-2.128.885,16.755,16.755,0,0,1-2.4.625,17.278,17.278,0,0,1-12.81-2.661,10.007,10.007,0,0,1,5.72-5.231h0a.007.007,0,0,1,.006,0,9.338,9.338,0,0,1,1.355-.372.437.437,0,0,1,.056-.012,9.561,9.561,0,0,1,1.253-.162l3.6-.229a9.672,9.672,0,0,1,1.263,0,.266.266,0,0,1,.057,0,9.35,9.35,0,0,1,1.394.2h0v0a10,10,0,0,1,6.339,4.464" transform="translate(-1969.724 -1314.826)" fill="#727272"/>
        <path id="Trazado_9634" data-name="Trazado 9634" d="M2285.132,1330.654l.738,11.611a4.639,4.639,0,0,1-4.335,4.926l-10.914.694a4.64,4.64,0,0,1-4.924-4.338l-.738-11.61c-.655-10.312,9.46-10.488,9.46-10.488a12.012,12.012,0,0,1,5.27.8c2.373.971,4.775,3.049,5.346,7.422.042.313.074.642.1.982" transform="translate(-1963.492 -1145.549)" fill="#302f2f"/>
        <path id="Trazado_9635" data-name="Trazado 9635" d="M2330.686,1487.464l.217,3.414a3.167,3.167,0,0,1-6.233.4l-.217-3.414a2.367,2.367,0,0,1,.541-1.634,2.684,2.684,0,0,1,.287-.311,3.123,3.123,0,0,1,.683-.485,3.616,3.616,0,0,1,2.917-.186,3.121,3.121,0,0,1,.738.394l.034.025a2.671,2.671,0,0,1,.291.248,2.368,2.368,0,0,1,.743,1.552" transform="translate(-2015.09 -1287.382)" fill="#f4b698"/>
        <g id="Grupo_4898" data-name="Grupo 4898" transform="translate(303.249 180.249)" opacity="0.28">
          <g id="Grupo_4897" data-name="Grupo 4897">
            <g id="Grupo_4896" data-name="Grupo 4896" clip-path="url(#clip-path-6)">
              <path id="Trazado_9636" data-name="Trazado 9636" d="M2295.474,1361.934l.316,4.972a8.173,8.173,0,0,1-4.858,7.972l.083,1.312a8.058,8.058,0,0,1-2.752.671l-.667.042a8.051,8.051,0,0,1-2.815-.318l-.083-1.312a8.173,8.173,0,0,1-5.829-7.293l-.316-4.972a8.17,8.17,0,0,1,7.612-8.605l.667-.042a8.1,8.1,0,0,1,5.165,1.452h0a8.144,8.144,0,0,1,3.474,6.12" transform="translate(-2278.54 -1354.346)"/>
            </g>
          </g>
        </g>
        <path id="Trazado_9637" data-name="Trazado 9637" d="M2294.864,1352.111l.4,6.246a8.092,8.092,0,0,1-1.148,4.7l-.005.006a8.659,8.659,0,0,1-.636.908,8.2,8.2,0,0,1-3.068,2.361,8.061,8.061,0,0,1-2.753.67l-.666.042a8.025,8.025,0,0,1-2.812-.317,8.175,8.175,0,0,1-5.831-7.294l-.395-6.212c-.005-.086-.008-.173-.011-.26a8.129,8.129,0,0,1,2.463-6.117,8.229,8.229,0,0,1,.8-.689,8.08,8.08,0,0,1,4.355-1.612l.666-.042a8.086,8.086,0,0,1,5.014,1.352,8.244,8.244,0,0,1,2.611,2.814,8.01,8.01,0,0,1,1.019,3.444" transform="translate(-1974.763 -1165.548)" fill="#f4b698"/>
        <path id="Trazado_9638" data-name="Trazado 9638" d="M2408.647,1405.055a3.262,3.262,0,0,1-3.048,3.462l-.414-6.511a3.247,3.247,0,0,1,1.289.177l.005,0a3.262,3.262,0,0,1,2.168,2.869" transform="translate(-2085.081 -1215.409)" fill="#f4b698"/>
        <path id="Trazado_9639" data-name="Trazado 9639" d="M2407.919,1413.225a2.02,2.02,0,0,1-1.887,2.144l-.256-4.031a2.02,2.02,0,0,1,2.144,1.888" transform="translate(-2085.594 -1223.5)" fill="#e29586"/>
        <path id="Trazado_9640" data-name="Trazado 9640" d="M2324.093,1518.354v0l-1.905,8.463a17.349,17.349,0,0,1-4.128.262l-2.961-8.154v0l1.72-.109.065.059,2.894,2.635,2.541-2.98.057-.067Z" transform="translate(-2006.984 -1316.278)" fill="#565656"/>
        <path id="Trazado_9641" data-name="Trazado 9641" d="M2258.163,1410.131l.414,6.511a3.262,3.262,0,0,1-1.139-6.382c.049-.015.1-.029.15-.04l.081-.017a3.136,3.136,0,0,1,.494-.073" transform="translate(-1954.979 -1222.458)" fill="#f4b698"/>
        <path id="Trazado_9642" data-name="Trazado 9642" d="M2264.442,1421.59a2.02,2.02,0,0,0,2.144,1.888l-.256-4.031a2.02,2.02,0,0,0-1.888,2.144" transform="translate(-1963.066 -1230.533)" fill="#e29586"/>
        <path id="Trazado_9643" data-name="Trazado 9643" d="M2388.245,1570.62a16.48,16.48,0,0,1-2.128.885l-.048-.746Z" transform="translate(-2068.51 -1361.588)" fill="#565656"/>
        <g id="Grupo_4901" data-name="Grupo 4901" transform="translate(312.792 202.076)" opacity="0.2">
          <g id="Grupo_4900" data-name="Grupo 4900">
            <g id="Grupo_4899" data-name="Grupo 4899" clip-path="url(#clip-path-7)">
              <path id="Trazado_9644" data-name="Trazado 9644" d="M2350.253,1521.5l2.528,1.561,1.789-4.718Z" transform="translate(-2350.253 -1518.347)" fill="#363636"/>
            </g>
          </g>
        </g>
        <path id="Trazado_9645" data-name="Trazado 9645" d="M2354.569,1516.479l-1.841,4.561-2.475-1.4,2.6-3.048.339-.4Z" transform="translate(-2037.46 -1314.404)" fill="#eee"/>
        <g id="Grupo_4904" data-name="Grupo 4904" transform="translate(308.114 202.647)" opacity="0.2">
          <g id="Grupo_4903" data-name="Grupo 4903">
            <g id="Grupo_4902" data-name="Grupo 4902" clip-path="url(#clip-path-8)">
              <path id="Trazado_9646" data-name="Trazado 9646" d="M2315.1,1522.643l2.348,4.455,2.33-1.87Z" transform="translate(-2315.102 -1522.642)" fill="#363636"/>
            </g>
          </g>
        </g>
        <path id="Trazado_9647" data-name="Trazado 9647" d="M2319.781,1522.235l-2.275,1.705-2.4-4.291,1.333-.459.386.35Z" transform="translate(-2006.988 -1317.003)" fill="#eee"/>
        <path id="Trazado_9648" data-name="Trazado 9648" d="M2380.438,1340.855c-6.037.823-5.809-4.7-5.346-7.422,2.373.971,4.775,3.049,5.346,7.422" transform="translate(-2058.812 -1155.968)" fill="#302f2f"/>
        <path id="Trazado_9649" data-name="Trazado 9649" d="M2282.816,1338.789c-.188.347-2.039,4.243-5.8,4.482s-9.593,2.879-9.538,6.638-5.439-11.142,5.912-13.053,9.427,1.933,9.427,1.933" transform="translate(-1964.59 -1158.473)" fill="#302f2f"/>
        <g id="Grupo_4907" data-name="Grupo 4907" transform="translate(283.417 113.08)" opacity="0.1">
          <g id="Grupo_4906" data-name="Grupo 4906">
            <g id="Grupo_4905" data-name="Grupo 4905" clip-path="url(#clip-path-9)">
              <path id="Trazado_9650" data-name="Trazado 9650" d="M2255.817,896.455,2245,851.889a2.932,2.932,0,0,0-3.53-2.151l-109.713,26.621a2.931,2.931,0,0,0-2.151,3.53l10.814,44.566a2.931,2.931,0,0,0,3.529,2.151l109.713-26.62a2.932,2.932,0,0,0,2.151-3.53" transform="translate(-2129.528 -849.656)" fill="#232323"/>
            </g>
          </g>
        </g>
        <path id="Trazado_9651" data-name="Trazado 9651" d="M2272.2,869.672l-109.713,26.621a2.932,2.932,0,0,1-3.53-2.151l-10.813-44.566a2.932,2.932,0,0,1,2.151-3.53l109.713-26.621a2.931,2.931,0,0,1,3.53,2.151l10.813,44.566a2.931,2.931,0,0,1-2.151,3.53" transform="translate(-1862.18 -710.297)" fill="#f4b545"/>
        <path id="Trazado_9652" data-name="Trazado 9652" d="M2263.48,1021.866a21.5,21.5,0,1,1-25.964-15.824,21.5,21.5,0,0,1,25.964,15.824" transform="translate(-1925.479 -871.619)" fill="#ffdca4"/>
        <path id="Trazado_9653" data-name="Trazado 9653" d="M2344.69,1247.823a3.306,3.306,0,0,1-.353.072h-.006a18.324,18.324,0,0,1-10.455-.861,10.12,10.12,0,0,1,4.844-6.517h.006a8.969,8.969,0,0,1,1.279-.606,9.811,9.811,0,0,1,1.268-.4l3.539-.859a9.787,9.787,0,0,1,1.305-.222l.006,0a8.966,8.966,0,0,1,1.415-.047,10.051,10.051,0,0,1,5.494,1.9,10.256,10.256,0,0,1,1.656,1.5,18.425,18.425,0,0,1-8.615,5.669c-.156.051-.313.1-.478.136a.328.328,0,0,1-.075.025h-.006a.279.279,0,0,1-.1.025.215.215,0,0,1-.089.022,3.787,3.787,0,0,1-.372.1l-.089.021-.108.026-.031.008Z" transform="translate(-2023.263 -1073.557)" fill="#f4b545"/>
        <path id="Trazado_9654" data-name="Trazado 9654" d="M2299.774,1042.832s-4.015-11.7,2.473-13.526,8.759-4.132,10.46-3.959,5.542,10.758,5.64,12.979-18.572,4.506-18.572,4.506" transform="translate(-1992.635 -888.876)" fill="#e09f36"/>
        <path id="Trazado_9655" data-name="Trazado 9655" d="M2382.425,1212.885l.813,3.349a3.191,3.191,0,0,1-6.114,1.483l-.812-3.349a2.383,2.383,0,0,1,.25-1.715,2.723,2.723,0,0,1,.23-.359,3.16,3.16,0,0,1,.593-.6,3.641,3.641,0,0,1,2.861-.694,3.127,3.127,0,0,1,.8.262l.039.018a2.718,2.718,0,0,1,.332.2,2.384,2.384,0,0,1,1.008,1.41" transform="translate(-2059.995 -1049.777)" fill="#f4cb95"/>
        <path id="Trazado_9656" data-name="Trazado 9656" d="M2331.2,1087.67l1.183,4.877a8.232,8.232,0,0,1-3.425,8.758l.312,1.286a8.117,8.117,0,0,1-2.612,1.148l-.654.159a8.11,8.11,0,0,1-2.848.177l-.312-1.286a8.233,8.233,0,0,1-7.058-6.215l-1.183-4.877a8.229,8.229,0,0,1,6.046-9.868l.654-.159a8.156,8.156,0,0,1,5.378.537h0a8.2,8.2,0,0,1,4.517,5.463" transform="translate(-2006.366 -937.512)" fill="#d8a471"/>
        <path id="Trazado_9657" data-name="Trazado 9657" d="M2328.863,1078.063l1.487,6.128a8.121,8.121,0,0,1-.178,4.478c-.072.22-.16.437-.249.646a7.315,7.315,0,0,1-.364.752,8.169,8.169,0,0,1-5.245,4.029l-.649.157a8.22,8.22,0,0,1-9.905-6.037l-1.542-6.356a8.2,8.2,0,0,1,1.375-6.494,7.544,7.544,0,0,1,.676-.82,8.122,8.122,0,0,1,4.041-2.363l.649-.157a7.958,7.958,0,0,1,3.687-.028,6.454,6.454,0,0,1,.7.182,7.7,7.7,0,0,1,.824.308,8.193,8.193,0,0,1,4.695,5.576" transform="translate(-2004.332 -929.151)" fill="#f4cb95"/>
        <path id="Trazado_9658" data-name="Trazado 9658" d="M2442.5,1120.929a3.286,3.286,0,0,1-2.418,3.968l-1.549-6.386a3.27,3.27,0,0,1,1.309-.049h.006a3.285,3.285,0,0,1,2.653,2.466" transform="translate(-2113.994 -969.569)" fill="#edc28e"/>
        <path id="Trazado_9659" data-name="Trazado 9659" d="M2443.207,1129.377a2.035,2.035,0,0,1-1.5,2.457l-.959-3.954a2.035,2.035,0,0,1,2.457,1.5" transform="translate(-2115.913 -977.721)" fill="#d8a471"/>
        <path id="Trazado_9660" data-name="Trazado 9660" d="M2297.483,1149.376l1.55,6.386a3.286,3.286,0,0,1-2.247-6.131c.046-.023.094-.046.142-.066l.078-.031a3.177,3.177,0,0,1,.477-.158" transform="translate(-1989.537 -996.407)" fill="#edc28e"/>
        <path id="Trazado_9661" data-name="Trazado 9661" d="M2304.431,1160.968a2.035,2.035,0,0,0,2.457,1.5l-.96-3.955a2.035,2.035,0,0,0-1.5,2.457" transform="translate(-1997.686 -1004.326)" fill="#d8a471"/>
        <path id="Trazado_9662" data-name="Trazado 9662" d="M2375.014,1080.565l1.487,6.128a8.118,8.118,0,0,1-.178,4.478c-.072.22-.16.437-.25.646-1.218-11.939-3.563-13.143-6.3-12.455-2.946.73-4.5-2.735-4.5-2.735l4.221-1.946a7.655,7.655,0,0,1,.824.307,8.193,8.193,0,0,1,4.695,5.576" transform="translate(-2050.483 -931.654)" fill="#e5b67f"/>
        <path id="Trazado_9663" data-name="Trazado 9663" d="M2422.2,1244l1.1,1.14-2.08,4.043c-.156.051-.313.1-.478.136a.322.322,0,0,1-.074.025l-.007,0a.281.281,0,0,1-.1.025l.977-6.2,0-.014.163-1.021,0-.008.015-.1-.4-1.652,2.393,2.46-1.431,1.114Z" transform="translate(-2098.408 -1075.29)" fill="#cc8e2b"/>
        <path id="Trazado_9664" data-name="Trazado 9664" d="M2385.524,1256.72l.089-.022a3.71,3.71,0,0,0,.372-.1.216.216,0,0,0,.089-.022.277.277,0,0,0,.1-.025h.006l.24-.731,1.266-3.933-.248-1.023.564-.891-.7-1.3a3.326,3.326,0,0,1-.113.337l-.009.016,0,.013a6.778,6.778,0,0,1-1.744,2.711,4.015,4.015,0,0,1-.714.5,4.234,4.234,0,0,1-1.175-.213,6.611,6.611,0,0,1-2.47-1.527l-.009-.011a3.428,3.428,0,0,1-.255-.247l-.032,1.474.91.533.248,1.023,2.52,2.51.951.953.008,0Z" transform="translate(-2063.924 -1082.489)" fill="#fff"/>
        <path id="Trazado_9665" data-name="Trazado 9665" d="M2421.7,1242.578l1.018,1.2-2.558,4.18a.326.326,0,0,1-.075.025h-.007a.277.277,0,0,1-.1.025.211.211,0,0,1-.089.022l.944-5.954v-.006l.252-1.595,0-.013.01-.016-.4-1.652,2.444,2.67-1.562.964Z" transform="translate(-2097.829 -1073.924)" fill="#e09f36"/>
        <path id="Trazado_9666" data-name="Trazado 9666" d="M2378.433,1259.226a3.258,3.258,0,0,1-.353.072h-.006l-3.846-2.626.453-1.516-.1-.017-1.783-.334,1-3.283.35,1.442.051.21.01.011.031.046.01.011.633.862v.006l3.721,5.078-.108.026-.032.008Z" transform="translate(-2057.006 -1084.96)" fill="#cc8e2b"/>
        <path id="Trazado_9667" data-name="Trazado 9667" d="M2378.433,1257.861l-4.2-2.552.354-1.532.048-.193-1.831-.141.949-3.493.051.21.35,1.442.01.011.964,1.313,0,.006,3.57,4.872-.089.021-.108.026-.031.008Z" transform="translate(-2057.006 -1083.594)" fill="#e09f36"/>
        <path id="Trazado_9668" data-name="Trazado 9668" d="M2318.8,1064.2a43.144,43.144,0,0,0-5.051-.049,14.2,14.2,0,0,0-3.185,1.261,15.5,15.5,0,0,0-3.342,2.96l-.233.928a2.864,2.864,0,0,0-.351.737c.007.079.014.343.019.582l-.193.766c.044-.031.155-.1.288-.186l.363.6a7.112,7.112,0,0,1,1.712-2.426c1.59-1.046,3.9-1.773,5.851-.958,3.553,1.48,8.863-1.174,8.863-1.174Z" transform="translate(-1999.5 -922.462)" fill="#e09f36"/>
        <path id="Trazado_9669" data-name="Trazado 9669" d="M2611.748,899.232l-47.876,11.617a2.318,2.318,0,0,1-2.792-1.7l-.027-.113a2.318,2.318,0,0,1,1.7-2.791l47.876-11.617a2.318,2.318,0,0,1,2.791,1.7l.027.113a2.318,2.318,0,0,1-1.7,2.791" transform="translate(-2220.149 -775.505)" fill="#e29d2d"/>
        <path id="Trazado_9670" data-name="Trazado 9670" d="M2630.061,974.7l-47.876,11.617a2.318,2.318,0,0,1-2.792-1.7l-.027-.113a2.318,2.318,0,0,1,1.7-2.791l47.876-11.617a2.318,2.318,0,0,1,2.791,1.7l.028.113a2.318,2.318,0,0,1-1.7,2.791" transform="translate(-2236.025 -840.933)" fill="#ffdca4"/>
        <path id="Trazado_9671" data-name="Trazado 9671" d="M2648.373,1050.176l-47.876,11.617a2.318,2.318,0,0,1-2.792-1.7l-.027-.113a2.318,2.318,0,0,1,1.7-2.791l47.876-11.617a2.318,2.318,0,0,1,2.791,1.7l.027.113a2.318,2.318,0,0,1-1.7,2.791" transform="translate(-2251.9 -906.36)" fill="#ffdca4"/>
        <path id="Trazado_9672" data-name="Trazado 9672" d="M2666.686,1125.648l-47.876,11.617a2.318,2.318,0,0,1-2.791-1.7l-.027-.113a2.319,2.319,0,0,1,1.7-2.792l47.876-11.616a2.318,2.318,0,0,1,2.791,1.7l.028.113a2.318,2.318,0,0,1-1.7,2.791" transform="translate(-2267.776 -971.788)" fill="#ffdca4"/>
        <path id="Trazado_9673" data-name="Trazado 9673" d="M2037.576,1601.987q-1.19,0-2.381-.049a1.671,1.671,0,1,1,.135-3.339,55.779,55.779,0,0,0,8.637-.322,1.671,1.671,0,0,1,.38,3.32,59.585,59.585,0,0,1-6.771.391m-11.146-1.15a1.663,1.663,0,0,1-.347-.036,54.786,54.786,0,0,1-8.786-2.644,1.672,1.672,0,0,1,1.23-3.109,51.188,51.188,0,0,0,8.247,2.483,1.671,1.671,0,0,1-.343,3.307m26.476-.878a1.671,1.671,0,0,1-.423-3.288,67.019,67.019,0,0,0,8.243-2.752,1.671,1.671,0,1,1,1.26,3.1,70.449,70.449,0,0,1-8.655,2.89,1.691,1.691,0,0,1-.425.055m-42.979-5.619a1.66,1.66,0,0,1-.852-.236,64.029,64.029,0,0,1-7.5-5.24,1.671,1.671,0,1,1,2.1-2.6,60.614,60.614,0,0,0,7.1,4.967,1.671,1.671,0,0,1-.856,3.107m59.466-1.054a1.671,1.671,0,0,1-.812-3.133,76.588,76.588,0,0,0,7.369-4.659,1.671,1.671,0,0,1,1.944,2.719,79.958,79.958,0,0,1-7.692,4.862,1.659,1.659,0,0,1-.808.21M1996.08,1583.2a1.666,1.666,0,0,1-1.206-.514,83.732,83.732,0,0,1-5.923-6.907,1.671,1.671,0,0,1,2.65-2.037,80.076,80.076,0,0,0,5.685,6.629,1.671,1.671,0,0,1-1.206,2.829m87.785-.249a1.671,1.671,0,0,1-1.12-2.912,75,75,0,0,0,6.126-6.2,1.671,1.671,0,0,1,2.512,2.2,78.337,78.337,0,0,1-6.4,6.477,1.668,1.668,0,0,1-1.118.43m5.743-9.928a1.671,1.671,0,0,1-.161-3.334,40.89,40.89,0,0,0,4.812-.766,1.673,1.673,0,0,1-.071-1.966,59.445,59.445,0,0,0,4.317-7.509,1.671,1.671,0,0,1,3.014,1.442,62.242,62.242,0,0,1-4.071,7.2q.19-.057.379-.117a1.672,1.672,0,1,1,1,3.191,45.162,45.162,0,0,1-9.052,1.851,1.621,1.621,0,0,1-.164.009m-8.887-.128a1.661,1.661,0,0,1-.215-.014,47.563,47.563,0,0,1-8.988-2.1,1.671,1.671,0,0,1,1.061-3.17,44.25,44.25,0,0,0,8.353,1.956,1.671,1.671,0,0,1-.21,3.328M1985.2,1569.1a1.671,1.671,0,0,1-1.42-.787c-1.62-2.6-3.114-5.265-4.438-7.928a1.671,1.671,0,0,1,2.993-1.488c1.277,2.568,2.717,5.141,4.281,7.647a1.672,1.672,0,0,1-1.416,2.556m121.336-1.306a1.672,1.672,0,0,1-.787-3.147,51.488,51.488,0,0,0,7.24-4.681,1.671,1.671,0,0,1,2.041,2.647,54.964,54.964,0,0,1-7.711,4.985,1.662,1.662,0,0,1-.783.2m-42.656-.476a1.654,1.654,0,0,1-.794-.2,48.521,48.521,0,0,1-7.664-5.127,1.671,1.671,0,1,1,2.121-2.583,45.227,45.227,0,0,0,7.136,4.772,1.671,1.671,0,0,1-.8,3.14m56.734-10.326a1.671,1.671,0,0,1-1.211-2.822,59.931,59.931,0,0,0,5.488-6.7,1.671,1.671,0,0,1,2.731,1.927,63.173,63.173,0,0,1-5.8,7.075,1.664,1.664,0,0,1-1.211.521m-70.325-1a1.671,1.671,0,0,1-1.332-.66,32.629,32.629,0,0,1-4.562-8.17,1.671,1.671,0,0,1,3.126-1.182,29.237,29.237,0,0,0,4.1,7.33,1.671,1.671,0,0,1-1.33,2.682m52.864-2.475a1.65,1.65,0,0,1-.443-.06,1.671,1.671,0,0,1-1.17-2.053,38.625,38.625,0,0,0,1.37-8.411,1.671,1.671,0,0,1,3.339.156,42.041,42.041,0,0,1-1.486,9.139,1.672,1.672,0,0,1-1.611,1.23m27.722-11.022a1.672,1.672,0,0,1-1.483-2.438,66.647,66.647,0,0,0,3.468-7.964,1.671,1.671,0,1,1,3.145,1.133,69.916,69.916,0,0,1-3.645,8.365,1.67,1.67,0,0,1-1.485.9m-86.721-2.935a1.671,1.671,0,0,1-1.669-1.591q-.037-.772-.038-1.546a34.092,34.092,0,0,1,.916-7.757,1.671,1.671,0,0,1,3.254.76,30.838,30.838,0,0,0-.827,7q0,.693.034,1.385a1.672,1.672,0,0,1-1.589,1.75l-.082,0m59.719-3.681a1.673,1.673,0,0,1-1.637-1.343,45.12,45.12,0,0,0-2.5-8.214,1.671,1.671,0,1,1,3.094-1.266,48.55,48.55,0,0,1,2.686,8.823,1.673,1.673,0,0,1-1.311,1.967,1.7,1.7,0,0,1-.33.032m-55.815-13.509a1.671,1.671,0,0,1-1.489-2.429,40.428,40.428,0,0,1,5.128-7.737,1.672,1.672,0,0,1,2.554,2.157,37,37,0,0,0-4.7,7.1,1.672,1.672,0,0,1-1.491.914m49.129-2.918a1.668,1.668,0,0,1-1.409-.771,41.121,41.121,0,0,0-5.3-6.7,1.671,1.671,0,1,1,2.38-2.347,44.393,44.393,0,0,1,5.74,7.247,1.672,1.672,0,0,1-1.405,2.572m-37.682-10.532a1.671,1.671,0,0,1-.965-3.037,29.119,29.119,0,0,1,8.437-4.172,1.671,1.671,0,1,1,.956,3.2,25.815,25.815,0,0,0-7.466,3.7,1.663,1.663,0,0,1-.961.306m25.135-1.886a1.655,1.655,0,0,1-.814-.214,21.294,21.294,0,0,0-7.774-2.629,1.671,1.671,0,0,1,.412-3.316,24.594,24.594,0,0,1,8.994,3.03,1.671,1.671,0,0,1-.818,3.129" transform="translate(-1715.761 -1301.108)" fill="#52d1bd"/>
        <g id="Grupo_4910" data-name="Grupo 4910" transform="translate(390.458 178.627)" opacity="0.1">
          <g id="Grupo_4909" data-name="Grupo 4909">
            <g id="Grupo_4908" data-name="Grupo 4908" clip-path="url(#clip-path-10)">
              <path id="Trazado_9674" data-name="Trazado 9674" d="M2998.851,1377.03a32.561,32.561,0,1,0-34.79,30.168,32.561,32.561,0,0,0,34.79-30.168" transform="translate(-2933.809 -1342.157)" fill="#232323"/>
            </g>
          </g>
        </g>
        <path id="Trazado_9675" data-name="Trazado 9675" d="M3050.855,1347.8a32.561,32.561,0,1,1-30.168-34.79,32.561,32.561,0,0,1,30.168,34.79" transform="translate(-2588.435 -1138.19)" fill="#f4b545"/>
        <path id="Trazado_9676" data-name="Trazado 9676" d="M3088,1401.666l.77-2.557,6.181.44-4.753,16.533a13.366,13.366,0,0,0-.478,2.084,1.227,1.227,0,0,0,.21.862.831.831,0,0,0,.622.35,5.82,5.82,0,0,0,3.383-1.418,14.338,14.338,0,0,0,3.808-4.247,13.743,13.743,0,0,0,1.24-11.477,12.324,12.324,0,0,0-2.772-4.527,14.313,14.313,0,0,0-4.771-3.21,20.413,20.413,0,0,0-6.635-1.508,23.448,23.448,0,0,0-7.071.5,17.76,17.76,0,0,0-5.8,2.459,16.051,16.051,0,0,0-4.354,4.314,20.009,20.009,0,0,0-2.554,5.136,23.659,23.659,0,0,0-1.171,5.87,16.8,16.8,0,0,0,1.08,7.477,14.947,14.947,0,0,0,4.261,5.927,19.187,19.187,0,0,0,7.157,3.733,31.082,31.082,0,0,0,9.759,1.083,23.268,23.268,0,0,0,7.479-1.444,14.486,14.486,0,0,0,5.382-3.711l4.987.355a16.617,16.617,0,0,1-3.49,4.246,18.03,18.03,0,0,1-4.812,2.987,23.869,23.869,0,0,1-6.022,1.63,33.722,33.722,0,0,1-7.144.2,33.319,33.319,0,0,1-10.263-2.248,21.328,21.328,0,0,1-7.451-4.907,18.507,18.507,0,0,1-4.281-7.129,22.85,22.85,0,0,1-1-8.835,25.859,25.859,0,0,1,2.325-9.2,21.474,21.474,0,0,1,13.311-11.641,26.608,26.608,0,0,1,10.066-1.1,24.6,24.6,0,0,1,8.067,1.88,18.124,18.124,0,0,1,6.091,4.186,16.312,16.312,0,0,1,3.628,6.059,18.969,18.969,0,0,1,.869,7.462,17.752,17.752,0,0,1-5.165,11.244,15.687,15.687,0,0,1-5.2,3.442,13.684,13.684,0,0,1-6.209.958,5.673,5.673,0,0,1-2.9-.854,3.183,3.183,0,0,1-1.259-2.148,9.1,9.1,0,0,1-4.864,2.207,8.753,8.753,0,0,1-5.092-.857,8.549,8.549,0,0,1-3.771-3.715,10.893,10.893,0,0,1-1.111-6.055,17.713,17.713,0,0,1,2.1-7.122,14.972,14.972,0,0,1,4.91-5.51,10.475,10.475,0,0,1,6.752-1.8,6.768,6.768,0,0,1,5.956,3.6m-13.669,11.216a6.889,6.889,0,0,0,.864,4.391,3.718,3.718,0,0,0,2.961,1.717,5.218,5.218,0,0,0,4-1.48,11.421,11.421,0,0,0,2.856-4.256,16.875,16.875,0,0,0,1.235-5.124,7.927,7.927,0,0,0-.133-2.256,5.318,5.318,0,0,0-.742-1.806,3.8,3.8,0,0,0-1.3-1.233,4.219,4.219,0,0,0-1.811-.517,5.21,5.21,0,0,0-3.825,1.34,10.5,10.5,0,0,0-2.837,3.986,16.1,16.1,0,0,0-1.267,5.24" transform="translate(-2652.254 -1203.802)" fill="#fff"/>
        <path id="Trazado_9677" data-name="Trazado 9677" d="M2453.237,188.357l3.519-1.85a1.087,1.087,0,0,1,1.577,1.146l-.672,3.919a1.085,1.085,0,0,0,.312.962l2.847,2.775a1.087,1.087,0,0,1-.6,1.854l-3.935.572a1.087,1.087,0,0,0-.818.594l-1.76,3.565a1.087,1.087,0,0,1-1.949,0l-1.76-3.565a1.086,1.086,0,0,0-.818-.594l-3.935-.572a1.087,1.087,0,0,1-.6-1.854l2.847-2.775a1.088,1.088,0,0,0,.313-.962l-.672-3.919a1.087,1.087,0,0,1,1.577-1.146l3.519,1.85a1.087,1.087,0,0,0,1.012,0" transform="translate(-2119.001 -161.575)" fill="#4786d1"/>
        <path id="Trazado_9678" data-name="Trazado 9678" d="M299.659,2206.038a9.356,9.356,0,1,1,9.356-9.355,9.365,9.365,0,0,1-9.356,9.355m0-16.137a6.782,6.782,0,1,0,6.782,6.782,6.79,6.79,0,0,0-6.782-6.782" transform="translate(-251.668 -1896.217)" fill="#4786d1"/>
        <path id="Trazado_9679" data-name="Trazado 9679" d="M334.328,2226.589a4.765,4.765,0,1,1-4.765-4.765,4.765,4.765,0,0,1,4.765,4.765" transform="translate(-281.572 -1926.124)" fill="#4786d1"/>
        <path id="Trazado_9680" data-name="Trazado 9680" d="M1790.265,2617.265a4.3,4.3,0,1,1-4.3-4.3,4.3,4.3,0,0,1,4.3,4.3" transform="translate(-1544.544 -2265.207)" fill="#4786d1"/>
        <path id="Trazado_9681" data-name="Trazado 9681" d="M1253.942,50.771a4.3,4.3,0,1,1-4.3-4.3,4.3,4.3,0,0,1,4.3,4.3" transform="translate(-1079.6 -40.285)" fill="#4786d1"/>
      </g>
    </g>
  </g>
</svg>
