<svg xmlns="http://www.w3.org/2000/svg" xmlns:xlink="http://www.w3.org/1999/xlink" width="803.177" height="315.223" viewBox="0 0 803.177 315.223">
  <defs>
    <clipPath id="clip-path">
      <path id="Trazado_10995" data-name="Trazado 10995" d="M0,0H756.285V303.793H0Z" fill="none"/>
    </clipPath>
    <clipPath id="clip-path-2">
      <rect id="Rectángulo_4281" data-name="Rectángulo 4281" width="756.285" height="303.793" fill="rgba(255,255,255,0.3)"/>
    </clipPath>
    <clipPath id="clip-path-3">
      <rect id="Rectángulo_4278" data-name="Rectángulo 4278" width="485.058" height="31.029" fill="none"/>
    </clipPath>
  </defs>
  <g id="Grupo_13569" data-name="Grupo 13569" transform="translate(-338.647 -1788.037)">
    <rect id="Rectángulo_4244" data-name="Rectángulo 4244" width="803.116" height="314.887" transform="translate(338.647 1788.037)" fill="#f7ec45" opacity="0.5"/>
    <rect id="Rectángulo_4246" data-name="Rectángulo 4246" width="802.619" height="314.913" transform="translate(339.206 1788.037)" fill="none"/>
    <g id="Grupo_5560" data-name="Grupo 5560" transform="translate(342 1799.467)">
      <g id="Enmascarar_grupo_1" data-name="Enmascarar grupo 1" clip-path="url(#clip-path)">
        <g id="Grupo_5558" data-name="Grupo 5558" transform="translate(0 0)">
          <g id="Grupo_5557" data-name="Grupo 5557" clip-path="url(#clip-path-2)">
            <path id="Trazado_10853" data-name="Trazado 10853" d="M1442.392,458.587c-.281,2.184-23.069-.352-23.386,1.8l-142.185.493H959.1V287.134a112.669,112.669,0,0,0,12.221-.986c13.947-1.9,28.564-6.692,44.061-15.708,160.394-93.017,290.991-67.764,364.319,4.86a218.371,218.371,0,0,1,62.692,183.287" transform="translate(-724.929 -158.915)" fill="rgba(243,248,252,0.51)"/>
            <path id="Trazado_10854" data-name="Trazado 10854" d="M2706.209,505.565v155.78h-24.448V476.681a216.428,216.428,0,0,1,24.448,28.884" transform="translate(-2026.994 -360.297)" fill="#deedff"/>
            <path id="Trazado_10855" data-name="Trazado 10855" d="M2664.351,290.575c-.352-1.387-.552-1.52-.552-1.52s-13.8.771-15.1.787-19.013-4.77-19.013-4.77l-9.106,9.728s24.921,2.473,28.209,2.369c5.434-.172,15.54-4.581,15.54-4.581a3.969,3.969,0,0,0,.026-2.014" transform="translate(-1980.747 -215.47)" fill="#6ca3ea"/>
            <path id="Trazado_10856" data-name="Trazado 10856" d="M2783.092,633.47s-.252,5.572.867,6.053,14.109-.419,14.109-.419-.091-1.626-2.348-1.864a10.612,10.612,0,0,1-7.092-4.26c-2.382-3.5-5.536.489-5.536.489" transform="translate(-2103.565 -477.349)" fill="#2a3967"/>
            <path id="Trazado_10857" data-name="Trazado 10857" d="M2629.528,439.925s18.155,15.628,20.491,20.671,9.545,27.773,9.545,27.773a14.081,14.081,0,0,1-6.041,1.421,6.073,6.073,0,0,1-3.083-.638s-10.514-20.623-11.433-22.612-24.293-9.742-30.714-21.492Z" transform="translate(-1971.463 -332.515)" fill="#133f7b"/>
            <rect id="Rectángulo_4268" data-name="Rectángulo 4268" width="10.702" height="287.2" transform="translate(681.652 14.656)" fill="#a7c7ff"/>
            <rect id="Rectángulo_4269" data-name="Rectángulo 4269" width="140.042" height="7.06" transform="translate(616.243 22.473)" fill="#a7c7ff"/>
            <rect id="Rectángulo_4270" data-name="Rectángulo 4270" width="2.309" height="15.634" transform="translate(621.523 6.839)" fill="#a7c7ff"/>
            <path id="Trazado_10858" data-name="Trazado 10858" d="M2524.757,36.643c0-.791,2.833-1.433,6.328-1.433s6.328.641,6.328,1.433-2.833,1.433-6.328,1.433-6.328-.641-6.328-1.433" transform="translate(-1908.323 -26.614)" fill="#a7c7ff"/>
            <path id="Trazado_10859" data-name="Trazado 10859" d="M2524.757,24.907c0-.791,2.833-1.433,6.328-1.433s6.328.641,6.328,1.433-2.833,1.433-6.328,1.433-6.328-.642-6.328-1.433" transform="translate(-1908.323 -17.743)" fill="#a7c7ff"/>
            <path id="Trazado_10860" data-name="Trazado 10860" d="M2524.757,13.17c0-.791,2.833-1.433,6.328-1.433s6.328.642,6.328,1.433-2.833,1.433-6.328,1.433-6.328-.641-6.328-1.433" transform="translate(-1908.323 -8.872)" fill="#a7c7ff"/>
            <path id="Trazado_10861" data-name="Trazado 10861" d="M2524.757,1.434c0-.791,2.833-1.433,6.328-1.433s6.328.641,6.328,1.433-2.833,1.433-6.328,1.433-6.328-.641-6.328-1.433" transform="translate(-1908.323 -0.001)" fill="#a7c7ff"/>
            <rect id="Rectángulo_4271" data-name="Rectángulo 4271" width="7.678" height="9.75" transform="translate(618.839 0.787)" fill="#a7c7ff"/>
            <rect id="Rectángulo_4272" data-name="Rectángulo 4272" width="2.309" height="15.634" transform="translate(685.026 6.839)" fill="#a7c7ff"/>
            <path id="Trazado_10862" data-name="Trazado 10862" d="M2784.846,36.643c0-.791,2.833-1.433,6.328-1.433s6.328.641,6.328,1.433-2.834,1.433-6.328,1.433-6.328-.641-6.328-1.433" transform="translate(-2104.909 -26.614)" fill="#a7c7ff"/>
            <path id="Trazado_10863" data-name="Trazado 10863" d="M2784.846,24.907c0-.791,2.833-1.433,6.328-1.433s6.328.641,6.328,1.433-2.834,1.433-6.328,1.433-6.328-.642-6.328-1.433" transform="translate(-2104.909 -17.743)" fill="#a7c7ff"/>
            <path id="Trazado_10864" data-name="Trazado 10864" d="M2784.846,13.17c0-.791,2.833-1.433,6.328-1.433s6.328.642,6.328,1.433-2.834,1.433-6.328,1.433-6.328-.641-6.328-1.433" transform="translate(-2104.909 -8.872)" fill="#a7c7ff"/>
            <path id="Trazado_10865" data-name="Trazado 10865" d="M2784.846,1.434c0-.791,2.833-1.433,6.328-1.433s6.328.641,6.328,1.433-2.834,1.433-6.328,1.433-6.328-.641-6.328-1.433" transform="translate(-2104.909 -0.001)" fill="#a7c7ff"/>
            <rect id="Rectángulo_4273" data-name="Rectángulo 4273" width="7.678" height="9.75" transform="translate(682.341 0.787)" fill="#a7c7ff"/>
            <rect id="Rectángulo_4274" data-name="Rectángulo 4274" width="2.308" height="15.634" transform="translate(748.719 6.839)" fill="#a7c7ff"/>
            <path id="Trazado_10866" data-name="Trazado 10866" d="M3045.716,36.643c0-.791,2.833-1.433,6.328-1.433s6.328.641,6.328,1.433-2.834,1.433-6.328,1.433-6.328-.641-6.328-1.433" transform="translate(-2302.087 -26.614)" fill="#a7c7ff"/>
            <path id="Trazado_10867" data-name="Trazado 10867" d="M3045.716,24.907c0-.791,2.833-1.433,6.328-1.433s6.328.641,6.328,1.433-2.834,1.433-6.328,1.433-6.328-.642-6.328-1.433" transform="translate(-2302.087 -17.743)" fill="#a7c7ff"/>
            <path id="Trazado_10868" data-name="Trazado 10868" d="M3045.716,13.17c0-.791,2.833-1.433,6.328-1.433s6.328.642,6.328,1.433-2.834,1.433-6.328,1.433-6.328-.641-6.328-1.433" transform="translate(-2302.087 -8.872)" fill="#a7c7ff"/>
            <path id="Trazado_10869" data-name="Trazado 10869" d="M3045.716,1.434c0-.791,2.833-1.433,6.328-1.433s6.328.641,6.328,1.433-2.834,1.433-6.328,1.433-6.328-.641-6.328-1.433" transform="translate(-2302.087 -0.001)" fill="#a7c7ff"/>
            <rect id="Rectángulo_4275" data-name="Rectángulo 4275" width="7.678" height="9.75" transform="translate(746.034 0.787)" fill="#a7c7ff"/>
            <path id="Trazado_10870" data-name="Trazado 10870" d="M2690.99,138.88l-39.674-33.11,1.463-1.74,38.2,31.879,38.817-32.943,1.477,1.727Z" transform="translate(-2003.981 -77.827)" fill="#a7c7ff"/>
            <rect id="Rectángulo_4276" data-name="Rectángulo 4276" width="28.623" height="35.063" transform="translate(672.771 44.551)" fill="#214d9a"/>
            <path id="Trazado_10871" data-name="Trazado 10871" d="M2691.85,425.55a1.088,1.088,0,0,0-.32-.085l-.741-.08a1.157,1.157,0,0,0-1.01.4l-1.11,1.315,1.545,2.156,1.782-1.133a1.063,1.063,0,0,0,.489-.784.713.713,0,0,0,.01-.124v-.682a1.072,1.072,0,0,0-.646-.986m-.117,2.165-1.388.884-1.056-1.471.866-1.028a.671.671,0,0,1,.582-.231l.743.081a.59.59,0,0,1,.528.587v.682a.538.538,0,0,1-.054.241.558.558,0,0,1-.22.256" transform="translate(-2032.215 -321.519)" fill="#133f7b"/>
            <path id="Trazado_10872" data-name="Trazado 10872" d="M2730.963,382.959v2.6s-27.263,8.527-32.082,9.725c-.23.056-.408.1-.53.119l0,0a.54.54,0,0,0,.054-.241v-.682a.59.59,0,0,0-.528-.587l-.743-.08,1.115-.319c5.156-1.486,26.7-7.748,32.717-10.529" transform="translate(-2038.611 -289.458)" fill="#ff912b"/>
            <path id="Trazado_10873" data-name="Trazado 10873" d="M2747.977,653.1s-1.173,5.453-.15,6.113,13.985,1.911,13.985,1.911.181-1.619-2.006-2.225a10.6,10.6,0,0,1-6.287-5.37c-1.769-3.844-5.541-.429-5.541-.429" transform="translate(-2076.612 -492.582)" fill="#2a3967"/>
            <path id="Trazado_10874" data-name="Trazado 10874" d="M2623.3,245.524s6.168,6.935,10.814,6.061c0,0-1.27-1.48-2.686-2.8-.423-.4-.3-1.328-.143-1.886q.129-.47.234-.888a27.516,27.516,0,0,0,.593-2.87l-3.131-3.194-2.124-2.167a9.5,9.5,0,0,1-.547,2.842,17.868,17.868,0,0,1-3.011,4.907" transform="translate(-1982.808 -179.721)" fill="#ffae73"/>
            <path id="Trazado_10875" data-name="Trazado 10875" d="M2635.633,247.325a8.717,8.717,0,0,0,5.209,5.389,27.6,27.6,0,0,0,.593-2.87l-3.131-3.194a8.96,8.96,0,0,0-2.671.675" transform="translate(-1992.128 -186.429)" fill="#f9924f"/>
            <path id="Trazado_10876" data-name="Trazado 10876" d="M2640.644,220.914s-7.544.344-7.687-4.34-1.212-7.793,3.6-8.211,5.8,1.342,6.231,2.893-.184,9.448-2.142,9.658" transform="translate(-1989.955 -157.443)" fill="#ffae73"/>
            <path id="Trazado_10877" data-name="Trazado 10877" d="M2610.988,293.608q-.043-.7-.067-1.413a42.449,42.449,0,0,0-.853-7.159,32.467,32.467,0,0,0-1.411-4.942,15.706,15.706,0,0,0-3.064-5.125c-.01-.011-2.03-2.071-2.04-2.077-4.86.5-8.394-3.379-8.394-3.379s-11.617,10.035-8.587,31.624c0,0,.292,1.56.8,3.807.112.487.235,1.007.367,1.552.894,3.7,23.615-6.7,23.245-12.888" transform="translate(-1954.664 -203.71)" fill="#a8ccff"/>
            <path id="Trazado_10878" data-name="Trazado 10878" d="M2614.439,200.337c-.085-.069-.258-.106-.62-.062a1.461,1.461,0,0,1,.637-.31,1.851,1.851,0,0,1,.912-1.83,1.106,1.106,0,0,0-.382.879c.812-1.211,2.811-2.342,8.8-2.916,7.9-.757,6.231,4.741,5.33,5.521s-3.732-.419-5.583.064-1.719,3.292-2.289,3.781-.438-.221-1.37-.462-.757,1.218-.34,2.114-.547,2.344-.547,2.344l-1.43-1.092c-1.429-1.092-3.543-6.416-3.208-7.69.029-.112.058-.226.088-.341" transform="translate(-1975.64 -148.166)" fill="#25468f"/>
            <path id="Trazado_10879" data-name="Trazado 10879" d="M2605.867,346.643s3.26,10.967,6.954,12.745,3.479-7.613,3.479-7.613Z" transform="translate(-1969.629 -262.008)" fill="#6ca3ea"/>
            <path id="Trazado_10880" data-name="Trazado 10880" d="M2619.331,347.611c-5.857-2.6-3.921-15.062-4.291-21.249-.028-.464-.051-.934-.067-1.413a42.451,42.451,0,0,0-.853-7.159,32.525,32.525,0,0,0-1.411-4.942l-8.1,1.315a3.114,3.114,0,0,0-2.618,3.185c.147,4.027-.22,11.5-4.479,15.31a75.67,75.67,0,0,1-6.086,5.039c.112.487.234,1.007.367,1.552.894,3.7,1.89,8.4,4.015,11.094,1.639,2.076,24.145-2.455,23.521-2.732" transform="translate(-1958.716 -236.465)" fill="#214d9a"/>
            <path id="Trazado_10881" data-name="Trazado 10881" d="M2617.536,272.741s2.235.837,5.156,4.692a22.109,22.109,0,0,1,3.4,6.412l-1.343.3s-1.992-6.846-8.02-10.482c0,0,.016-.132.811-.92" transform="translate(-1977.836 -206.15)" fill="#214d9a"/>
            <path id="Trazado_10882" data-name="Trazado 10882" d="M2764.189,278.907a37.274,37.274,0,0,1,1.767-3.609,11.655,11.655,0,0,1,2.484-1.857c.146.075.2.651-.152.987-.25.237-.543.454-.39.478s.85-1.075,1.4-.714,1.852,1.968,1.017,3.229-4.021,2.6-4.191,2.793c-1.44,1.621-1.934-1.307-1.934-1.307" transform="translate(-2089.296 -206.677)" fill="#ffae73"/>
            <path id="Trazado_10883" data-name="Trazado 10883" d="M2638.956,295.836s-14.568,12.877-15.946,13.029c-2.2.243-14.481-10.93-14.481-10.93a4.112,4.112,0,0,0-5.229-1.42c-3.129,1.188-4.494,4.945-4.494,4.945s-1.059,3.7.779,5.916c4.074,4.9,19.63,9.835,24.269,9.244,5.983-.763,17.068-17.049,17.068-17.049a2.741,2.741,0,0,0-.032-2.428,4.6,4.6,0,0,0-1.934-1.307" transform="translate(-1964.063 -223.606)" fill="#a8ccff"/>
            <path id="Trazado_10884" data-name="Trazado 10884" d="M2644.382,488.028a14.093,14.093,0,0,1-6.193.407,6.069,6.069,0,0,1-2.934-1.138s-.628-2-1.523-4.847q-.205-.661-.433-1.376c-.2-.624-.4-1.277-.609-1.946q-.213-.68-.43-1.378c-1.958-6.252-4.21-13.471-4.528-14.635-.577-2.114-22.341-13.61-26.723-26.255l21.711-4.362s15.393,21.211,16.86,26.57c.782,2.859,2.1,10.919,3.154,17.809q.107.683.206,1.347c.1.675.2,1.332.3,1.965q.1.694.2,1.345c.562,3.79.944,6.5.944,6.5" transform="translate(-1965.958 -326.901)" fill="#214d9a"/>
            <path id="Trazado_10885" data-name="Trazado 10885" d="M2626.392,432.5a42.534,42.534,0,0,1-20.525,7.713,9,9,0,0,0,3.239,4.053s13.059-1.971,18.588-9.953Z" transform="translate(-1969.629 -326.903)" fill="#ff912b"/>
            <path id="Trazado_10886" data-name="Trazado 10886" d="M2750.235,681.905a.576.576,0,0,1-.08-.005l-17.532-2.294a.609.609,0,1,1,.16-1.207l17.4,2.276,7.023-2.253a.609.609,0,1,1,.375,1.159l-7.154,2.295a.609.609,0,0,1-.187.029" transform="translate(-2065.035 -512.759)" fill="#172441"/>
            <path id="Trazado_10887" data-name="Trazado 10887" d="M2739.683,615.606a28.9,28.9,0,0,1-7.782.986c-1.027,0-1.88-.044-2.467-.08q-.213-.68-.43-1.379c.052,0,.11.007.179.012a30.48,30.48,0,0,0,10.3-.887c.071.456.139.9.206,1.347" transform="translate(-2062.702 -464.284)" fill="#fff"/>
            <path id="Trazado_10888" data-name="Trazado 10888" d="M2743.4,629.171a28.915,28.915,0,0,1-7.713.969c-.777,0-1.452-.024-1.993-.051q-.205-.661-.433-1.376a30.167,30.167,0,0,0,9.938-.887c.069.463.135.911.2,1.345" transform="translate(-2065.919 -474.539)" fill="#fff"/>
            <rect id="Rectángulo_4277" data-name="Rectángulo 4277" width="22.049" height="35.063" transform="translate(679.344 44.551)" fill="#1e3865"/>
            <path id="Trazado_10889" data-name="Trazado 10889" d="M269.681,429.112V603.946l-210.336.739c.528-7.643-34.094-108.443,10.284-166.029,62.974-81.746,116.791-15.638,187.831-9.9a116.841,116.841,0,0,0,12.221.353" transform="translate(-35.512 -300.893)" fill="rgba(255,255,255,0.3)"/>
            <g id="Grupo_5556" data-name="Grupo 5556" transform="translate(234.169 272.165)" opacity="0.6">
              <g id="Grupo_5555" data-name="Grupo 5555">
                <g id="Grupo_5554" data-name="Grupo 5554" clip-path="url(#clip-path-3)">
                  <path id="Trazado_10890" data-name="Trazado 10890" d="M1444.153,1114.72a219.286,219.286,0,0,1-1.761,28.74c-.281,2.183-23.069-.352-23.386,1.8l-142.185.493H959.1v-.141l317.723-1.092,142.185-.493c.317-2.148,23.1.388,23.386-1.8a219.288,219.288,0,0,0,1.761-27.507" transform="translate(-959.098 -1114.72)" fill="#ebf3fa"/>
                </g>
              </g>
            </g>
            <path id="Trazado_10891" data-name="Trazado 10891" d="M1419.46,496.669V629.538h-410.3V513.917h31.452V482.362h31.452v42.631h25.462v-9.526h44.355v16.1h19.3V495.405h51.672v-62.02h40.858v33.078h9.318V438.754h40.858v42.682h37.031V455.244h39.6v26.193h7.385v15.233Z" transform="translate(-762.764 -327.572)" fill="#e8f0fd"/>
            <path id="Trazado_10892" data-name="Trazado 10892" d="M642.847,612.388H606.361a3.055,3.055,0,0,1-3.046-3.045V574.127a3.055,3.055,0,0,1,3.046-3.045h36.486a3.054,3.054,0,0,1,3.045,3.045v35.215a3.054,3.054,0,0,1-3.045,3.045" transform="translate(-456.012 -431.649)" fill="#c0d8fb"/>
            <path id="Trazado_10893" data-name="Trazado 10893" d="M646.976,616.138H613.652a2.79,2.79,0,0,1-2.782-2.781V581.193a2.79,2.79,0,0,1,2.782-2.782h33.325a2.79,2.79,0,0,1,2.781,2.782v32.164a2.789,2.789,0,0,1-2.781,2.781" transform="translate(-461.723 -437.189)" fill="#dfebfd"/>
            <path id="Trazado_10894" data-name="Trazado 10894" d="M686.9,591.122a.882.882,0,1,1,.882.882.882.882,0,0,1-.882-.882" transform="translate(-519.186 -446.13)" fill="#b7d3f3"/>
            <path id="Trazado_10895" data-name="Trazado 10895" d="M715.7,597.552a.882.882,0,1,1,.342,1.2.882.882,0,0,1-.342-1.2" transform="translate(-540.873 -451.314)" fill="#b7d3f3"/>
            <path id="Trazado_10896" data-name="Trazado 10896" d="M739.764,618.361a.882.882,0,1,1-.263,1.219.882.882,0,0,1,.263-1.219" transform="translate(-558.841 -467.278)" fill="#b7d3f3"/>
            <path id="Trazado_10897" data-name="Trazado 10897" d="M750.653,649.5a.882.882,0,1,1-.882.882.882.882,0,0,1,.882-.882" transform="translate(-566.71 -490.923)" fill="#b7d3f3"/>
            <path id="Trazado_10898" data-name="Trazado 10898" d="M742.407,684.339a.882.882,0,1,1-1.247,0,.882.882,0,0,1,1.247,0" transform="translate(-560.006 -517.059)" fill="#b7d3f3"/>
            <path id="Trazado_10899" data-name="Trazado 10899" d="M719.724,707.082a.882.882,0,1,1-1.247,0,.882.882,0,0,1,1.247,0" transform="translate(-542.861 -534.249)" fill="#b7d3f3"/>
            <path id="Trazado_10900" data-name="Trazado 10900" d="M686.9,716.874a.882.882,0,1,1,.882.882.882.882,0,0,1-.882-.882" transform="translate(-519.186 -541.179)" fill="#b7d3f3"/>
            <path id="Trazado_10901" data-name="Trazado 10901" d="M659.739,597.552a.882.882,0,1,0-.342,1.2.882.882,0,0,0,.342-1.2" transform="translate(-497.41 -451.314)" fill="#b7d3f3"/>
            <path id="Trazado_10902" data-name="Trazado 10902" d="M635.674,618.361a.882.882,0,1,0,.263,1.219.882.882,0,0,0-.263-1.219" transform="translate(-479.443 -467.278)" fill="#b7d3f3"/>
            <path id="Trazado_10903" data-name="Trazado 10903" d="M624.786,649.5a.882.882,0,1,0,.882.882.882.882,0,0,0-.882-.882" transform="translate(-471.574 -490.923)" fill="#b7d3f3"/>
            <path id="Trazado_10904" data-name="Trazado 10904" d="M633.031,684.339a.882.882,0,1,0,1.247,0,.882.882,0,0,0-1.247,0" transform="translate(-478.278 -517.059)" fill="#b7d3f3"/>
            <path id="Trazado_10905" data-name="Trazado 10905" d="M655.716,707.082a.882.882,0,1,0,1.247,0,.882.882,0,0,0-1.247,0" transform="translate(-495.424 -534.249)" fill="#b7d3f3"/>
            <path id="Trazado_10906" data-name="Trazado 10906" d="M689.533,650.386a.882.882,0,1,1,.882.882.882.882,0,0,1-.882-.882" transform="translate(-521.18 -490.924)" fill="#b7d3f3"/>
            <rect id="Rectángulo_4279" data-name="Rectángulo 4279" width="0.241" height="11.018" transform="translate(169.115 148.444)" fill="#b7d3f3"/>
            <rect id="Rectángulo_4280" data-name="Rectángulo 4280" width="7.426" height="0.722" transform="translate(168.902 159.162) rotate(-38.137)" fill="#b7d3f3"/>
            <path id="Trazado_10907" data-name="Trazado 10907" d="M933.469,521.115V694.931H909.021V521.74a111.775,111.775,0,0,0,24.448-.625" transform="translate(-687.078 -393.882)" fill="#deedff"/>
            <path id="Trazado_10909" data-name="Trazado 10909" d="M1079.117,981.738H1075.2l4.8,60.773h9.537Z" transform="translate(-812.68 -742.041)" fill="#b7d3f3"/>
            <path id="Trazado_10910" data-name="Trazado 10910" d="M1379.494,852.866l-.841.17a6.973,6.973,0,0,1-8.192-5.438l-.889-4.4a6.973,6.973,0,0,1,5.438-8.192l.842-.17a6.973,6.973,0,0,1,8.192,5.438l.889,4.4a6.973,6.973,0,0,1-5.438,8.192" transform="translate(-1035.079 -630.903)" fill="#122544"/>
            <path id="Trazado_10911" data-name="Trazado 10911" d="M1075.2,964.216s21.414-10.052,50.753-3.364l-46.832,3.364Z" transform="translate(-812.681 -724.52)" fill="#b7d3f3"/>
            <path id="Trazado_10912" data-name="Trazado 10912" d="M1101.674,1027.93l-10.418-61.352s32.81-11.018,58.265,0l15.141,60.965Z" transform="translate(-824.82 -726.881)" fill="#d2e3fc"/>
            <path id="Trazado_10913" data-name="Trazado 10913" d="M1923.634,1122.182c-.582,6.657-4.341,8.712-5.994,8.535s-11.32-3.867-11.529-2.513,5.608,5.779,9.682,5.986c0,0-7.693,8.485-12.806,6.035s-5.549-6.33-8.736-7.785-5.907-1.452-4.592.033,7.084,2.927,8.906,6.152c.43.76.851,1.463,1.172,2.082l-10.765-.022c-3.413-1.7-6.289-4.036-6.5-6.557-.017-.193-.032-.377-.046-.553l-.331-3.88s-5.528-6.448-2.654-11.8a8.179,8.179,0,0,1,2.19-2.541s5.152-3.119,9.353-2.865c0,0-3.255,5.459-4.172,8.7-.324,1.144-.356,2.012.145,2.271.549.284,1.259-.54,1.994-1.861a67.717,67.717,0,0,0,3.836-9.74s3.1-.3,6.623-.346c1.582-.021,3.249.01,4.761.142a12.816,12.816,0,0,1,4.111.88s-.21.172-.564.468c-.526.44-1.369,1.155-2.305,1.984-2.78,2.459-6.393,5.927-5.042,6.239,1.093.253,4.525-1.786,7.579-3.809,2.843-1.882,5.358-3.753,5.358-3.753s10.912,1.856,10.33,8.513" transform="translate(-1419.935 -840.13)" fill="#82b378"/>
            <path id="Trazado_10914" data-name="Trazado 10914" d="M1908.634,1155.79s-29.637-1.142-36.182,7.334a21.435,21.435,0,0,1-5.9,8.283l-.694,1.892s5.136-5.415,6.973-5.743c0,0-2.874-10.5,35.8-11.766" transform="translate(-1410.296 -873.558)" fill="#82b378"/>
            <path id="Trazado_10915" data-name="Trazado 10915" d="M1861.676,1217.552c-.254.279-.634.658-1.179,1.16l-.011.012c-.189.175-.373.364-.551.564a10.839,10.839,0,0,0-.79.992l-1.385,0a16.645,16.645,0,0,1,2.671-2.676l0,0c.108-.065,2.661-1.608,1.242-.046" transform="translate(-1404.176 -919.753)" fill="#82b378"/>
            <path id="Trazado_10916" data-name="Trazado 10916" d="M1624.584,1044.96s11.957-6.7,6.377-15.783c0,0-4.464-5.58-9.247-7.015,0,0,2.551,13.551,0,13.87s-1.754-15.305-1.754-15.305-12.595-6.058-17.537-5.58c0,0,7.812,13.232,5.261,12.914s-11.319-13.711-11.319-13.711-12.914-2.392-14.987,5.261,1.276,11.478,3.189,11.957,14.189.319,13.87,1.913-8.609,4.145-13.233,2.71c0,0,5.1,12.595,11.8,11.957s8.769-4.783,12.914-5.1,7.174.8,5.1,1.913-9.087.366-12.435,3.212-6.058,4.6.16,5.875,17.377.478,19.609-4.3Z" transform="translate(-1194.782 -766.423)" fill="#a8d29f"/>
            <path id="Trazado_10917" data-name="Trazado 10917" d="M1607.563,1046.787s33.48,10.841,37.306,22.958a25.439,25.439,0,0,0,3.189,11.638v2.391s-3.508-8.131-5.421-9.247c0,0,7.493-10.522-35.074-27.74" transform="translate(-1215.067 -791.208)" fill="#82b378"/>
            <path id="Trazado_10918" data-name="Trazado 10918" d="M1771.569,1194.2l-1.913,0a24.96,24.96,0,0,0-1.325-8.241h0c-.118-.3-.245-.581-.384-.852l0-.009c-.4-.777-.665-1.35-.835-1.765h0c-.979-2.4,1.361.547,1.361.547a22.441,22.441,0,0,1,3.1,10.326" transform="translate(-1335.476 -893.702)" fill="#82b378"/>
            <path id="Trazado_10919" data-name="Trazado 10919" d="M1806.195,976.636s-15.762-8.826-8.406-20.805c0,0,5.884-7.355,12.189-9.247,0,0-3.362,17.863,0,18.284s2.312-20.175,2.312-20.175,16.6-7.986,23.117-7.355c0,0-10.3,17.443-6.935,17.023s14.921-18.074,14.921-18.074,17.022-3.152,19.754,6.935-1.681,15.131-4.2,15.761-18.7.42-18.284,2.522,11.348,5.464,17.443,3.573c0,0-6.725,16.6-15.552,15.762s-11.558-6.3-17.023-6.725-9.457,1.051-6.725,2.522,11.979.482,16.392,4.234,7.986,6.064-.21,7.745-22.907.63-25.849-5.674Z" transform="translate(-1357.37 -707.334)" fill="#a8d29f"/>
            <path id="Trazado_10920" data-name="Trazado 10920" d="M1874.438,979.046s-44.133,14.291-49.177,30.262a33.53,33.53,0,0,1-4.2,15.341v3.152s4.624-10.718,7.146-12.189c0,0-9.878-13.87,46.234-36.567" transform="translate(-1376.436 -740.006)" fill="#82b378"/>
            <path id="Trazado_10921" data-name="Trazado 10921" d="M1810.1,1159.029s0,0,0,.005c-.223.549-.578,1.307-1.1,2.333l0,.006c-.182.356-.349.731-.5,1.12,0,0,0,0,0,0-1.511,3.786-1.81,9.011-1.754,13.129l-2.532-.005a29.629,29.629,0,0,1,4.106-15.867h0c.067-.083,3.067-3.845,1.794-.723" transform="translate(-1363.678 -875.11)" fill="#82b378"/>
            <path id="Trazado_10922" data-name="Trazado 10922" d="M1309.55,1014.783H1249.6a63.791,63.791,0,0,1-2.344-6.833,116.314,116.314,0,0,1-3.521-19.018c-.009-.082-.018-.166-.027-.248a221.922,221.922,0,0,1-1.053-28.426c.094-3.742.242-6.047.251-6.159v0c.127-.055.257-.106.384-.158,3.179-1.334,6.229-2.484,9.151-3.479l.024-.006q3.685-1.257,7.1-2.184a103.633,103.633,0,0,1,11.162-2.435,81.668,81.668,0,0,1,11.02-1.017c.149-.006.293-.006.442-.009q1.3-.022,2.523.006a47.91,47.91,0,0,1,16.429,2.9c.384.151.714.293.989.421l.109.045c.311.139.553.257.723.342a.362.362,0,0,1,.066.036c.082.042.161.088.236.133l4.323,45.433Z" transform="translate(-939.197 -714.121)" fill="#2b478b"/>
            <path id="Trazado_10923" data-name="Trazado 10923" d="M1512.2,1010.181c-6.007,2.789-41.733,5.129-45.164,4.141-1.76-.508-9.125-7-16.536-14.977l-.007,0c-7.012-7.549-14.082-16.435-16.467-22.829a39.126,39.126,0,0,1-.688-24.807s9.116-.038,12.832,2.205,24.964,41.381,27.8,42.413,36.5,2.962,40.352,4.791c0,0,3.874,6.279-2.127,9.067" transform="translate(-1082.106 -719.34)" fill="#2b478b"/>
            <path id="Trazado_10924" data-name="Trazado 10924" d="M1334.575,911.865l-.009,2.212s.613,6.918-7.9,7.941-14.978-2.675-14.755-8.014c.761-4.135,1.6-6.975,1.651-10.4a24.118,24.118,0,0,0-.309-4.143l16.508-.355,4.864.787Z" transform="translate(-991.592 -679.588)" fill="#ea9e6a"/>
            <path id="Trazado_10925" data-name="Trazado 10925" d="M1338.79,901l-.045,11.967a13.962,13.962,0,0,1-5.948,1.322c-7.587.012-15.139-12.2-15.379-13.721Z" transform="translate(-995.763 -680.686)" fill="#d88d59"/>
            <path id="Trazado_10926" data-name="Trazado 10926" d="M1327.412,818.15s-21.137,4.3-23.614-8.9-6.874-21.541,6.516-24.848,16.965,1.239,18.865,5.445,3.668,26.843-1.766,28.3" transform="translate(-983.412 -592.027)" fill="#ea9e6a"/>
            <path id="Trazado_10927" data-name="Trazado 10927" d="M1315.211,756.245a44.325,44.325,0,0,1-12.856-3.458c-5.648-2.445-12.765.268-15.075,1.49a3.438,3.438,0,0,1,.561-1.392,3.1,3.1,0,0,0-1.188,1.767c-.106.079-.154.133-.127.151a3.975,3.975,0,0,0-1.932.128s.529-.076.719.263a.312.312,0,0,0,.085.093c-8.8,4.268-9.59,18.184-6.752,21.4,3.415,3.868,7.516,12.586,7.516,12.586a7.478,7.478,0,0,0,.863-5.471c-.625-3.408,2.319-3.412,6.035-4.968s.611-5.889,3.861-8.528,15.183-1.108,15.025-3.122c4.426-1.62,3.265-10.486,3.265-10.94" transform="translate(-965.349 -568.244)" fill="#8e342e"/>
            <path id="Trazado_10928" data-name="Trazado 10928" d="M1253.091,1142.682a63.745,63.745,0,0,1-2.344-6.833,116.285,116.285,0,0,1-3.521-19.019c-.009-.082-.018-.166-.027-.248.046.021.12.144.17.084,2.334-2.835,8.706-5.937,16.423,5.358,1.54,2.25,8.292,18.022,9.368,20.657Z" transform="translate(-942.687 -842.02)" fill="#233862"/>
            <path id="Trazado_10929" data-name="Trazado 10929" d="M1296.812,1208.094a6.414,6.414,0,0,1,.814-3.9s.989-.641,2.3-1.389c1.958-1.1,4.635-2.441,5.847-2.227.218.04.511.1.859.188,2.877.69,9.583,2.756,10.6,3.966.835,1,1.972,2.263,2.756,3.364Z" transform="translate(-980.143 -907.432)" fill="#ea9e6a"/>
            <path id="Trazado_10930" data-name="Trazado 10930" d="M1139.946,1035.977h-56.486a3.427,3.427,0,0,1,.042-1.9c1.685-4.256,4.973-11.262,8.761-18.779,2.786-5.53,5.838-11.338,8.721-16.532,4-7.212,7.668-13.244,9.822-15.718a25.508,25.508,0,0,1,6.077-4.925,42.785,42.785,0,0,1,5.669-2.831v0c.127-.055.257-.106.384-.158a49.987,49.987,0,0,1,7.051-2.293s.042,1.785.045,4.528c.012,7.962-.293,24.007-2.834,27.921a52.471,52.471,0,0,1-3.676,4.673c-.048.055-.094.109-.142.163-.892,1.047-1.882,2.172-2.919,3.331-5.9,6.6-13.361,14.359-14.272,15.3-.064.063-.094.1-.094.1h.109l15.839.221,4.858.067,10.073.139a3.812,3.812,0,0,1,1.651,1.4,10.2,10.2,0,0,1,1.319,5.291" transform="translate(-818.843 -735.315)" fill="#2b478b"/>
            <path id="Trazado_10931" data-name="Trazado 10931" d="M1570.547,1154.167c-6.007,2.789-41.733,5.129-45.164,4.141-1.76-.508-9.125-7-16.536-14.977.366.048,3.754-5.6,19.206,7.917,0,0,4.046,1.8,15.059.793s25.155-1.379,27.435,2.126" transform="translate(-1140.453 -863.326)" fill="#233862"/>
            <path id="Trazado_10932" data-name="Trazado 10932" d="M1491.371,1220.915h-40.842a3.256,3.256,0,0,1,3.256-3.256h37.586Z" transform="translate(-1096.374 -920.361)" fill="#b24940"/>
            <path id="Trazado_10933" data-name="Trazado 10933" d="M1569.17,1048.814h63.144l-15.146,44.481h-63.554Z" transform="translate(-1174.29 -792.74)" fill="#b24940"/>
            <path id="Trazado_10934" data-name="Trazado 10934" d="M1636.121,1048.81l-15.146,44.481h-63.554l15.556-44.481Z" transform="translate(-1177.168 -792.737)" fill="#c65447"/>
            <path id="Trazado_10935" data-name="Trazado 10935" d="M1721.017,1128.692a4.105,4.105,0,0,1-3.788,3.077,2.37,2.37,0,0,1-2.367-3.077,4.106,4.106,0,0,1,3.788-3.077,2.369,2.369,0,0,1,2.367,3.077" transform="translate(-1296.107 -850.79)" fill="#f9ddbf"/>
            <path id="Trazado_10936" data-name="Trazado 10936" d="M1741.343,1048.81l-15.146,44.481h-29.565l35.412-44.481Z" transform="translate(-1282.39 -792.737)" fill="#b24940"/>
            <path id="Trazado_10937" data-name="Trazado 10937" d="M1306.234,852.866l-.841.17a6.973,6.973,0,0,1-8.192-5.438l-.889-4.4a6.973,6.973,0,0,1,5.438-8.192l.842-.17a6.973,6.973,0,0,1,8.192,5.438l.889,4.4a6.973,6.973,0,0,1-5.438,8.192" transform="translate(-979.705 -630.903)" fill="#122544"/>
            <path id="Trazado_10938" data-name="Trazado 10938" d="M1308.612,774.361c-.563-1.018-1.39-9.207.861-15.727a10.449,10.449,0,0,1,5.054-6.161,5.409,5.409,0,0,1,2.6-.673l2.218.037c-7.3,3.092-9,19.637-8.429,21.4a.664.664,0,0,0-.057-.123Z" transform="translate(-988.634 -568.244)" fill="#122544"/>
            <path id="Trazado_10939" data-name="Trazado 10939" d="M1340.859,882.333a22.633,22.633,0,0,1-18.412-9.8l1.1-.671-.549.335.548-.336a21.314,21.314,0,0,0,17.316,9.185h.232l.013,1.286h-.246" transform="translate(-999.563 -658.992)" fill="#122544"/>
            <path id="Trazado_10940" data-name="Trazado 10940" d="M1313.753,863.44l-.419.085a3.475,3.475,0,0,1-4.082-2.709l-.443-2.192a3.474,3.474,0,0,1,2.709-4.081l.419-.085a3.474,3.474,0,0,1,4.082,2.709l.443,2.192a3.474,3.474,0,0,1-2.709,4.081" transform="translate(-989.204 -645.785)" fill="#2b478b"/>
            <path id="Trazado_10941" data-name="Trazado 10941" d="M1397.206,909.864h-1.158a1.072,1.072,0,0,1,0-2.144h1.158a1.072,1.072,0,1,1,0,2.144" transform="translate(-1054.385 -686.095)" fill="#122544"/>
            <path id="Trazado_10942" data-name="Trazado 10942" d="M319.726,755.852s-10.3,5.266-2.795,16.579c0,0-8.849,1.023-11.075-1.521a7.214,7.214,0,0,0,.727,1.656s-8.573-1.124-11.645-4.373,6.507-46.47,29.341-37.626c0,0,20.3,1.852,14.541,24.735s1.807,24.155,1.807,24.155a10.922,10.922,0,0,1-3.3.513s-1.39-.816-1.546-1.686a5.358,5.358,0,0,0,.389,1.814s-8.3-.6-11.862-4.366-6.555-15.289-4.587-19.879" transform="translate(-222.505 -551.295)" fill="#8e342e"/>
            <path id="Trazado_10943" data-name="Trazado 10943" d="M430.27,829.242l-.824.114a6.761,6.761,0,0,1-7.6-5.75l-.6-4.31a6.761,6.761,0,0,1,5.75-7.6l.824-.114a6.76,6.76,0,0,1,7.6,5.75l.6,4.31a6.761,6.761,0,0,1-5.75,7.6" transform="translate(-318.347 -613.379)" fill="#ed7d2b"/>
            <path id="Trazado_10944" data-name="Trazado 10944" d="M338.7,911.747c-3.073,2.373-5.018,10.938-9.974,12.351-18.576,5.3-28.547-16.756-31.809-27.524a16.178,16.178,0,0,1,6.269-2.281c1.35-.23,2.774-.409,3.954-.528,2.028-1.724,4.836-8.5,5.007-18.811l.9.192,15.021,3.3s-.438,4.744-.544,9.212c-.08,3.5-.192,4.332.077,4.748,1.169.192,2.545,3.18,2.545,3.18a.036.036,0,0,0,.008.013,95.478,95.478,0,0,1,8.548,16.149" transform="translate(-224.42 -661.329)" fill="#ffb27d"/>
            <path id="Trazado_10945" data-name="Trazado 10945" d="M377.985,879.051s-.441,4.74-.544,9.212c-8.436-.412-12.739-8.2-14.479-12.51Z" transform="translate(-274.343 -661.933)" fill="#ed985f"/>
            <path id="Trazado_10946" data-name="Trazado 10946" d="M362.79,1009.934s-8.833.324-18.426.357c-1.134.006-2.283.006-3.427,0-7.812-.033-15.49-.307-18.756-1.149-3.192-.822-15.469-9.143-25.294-19.224a.009.009,0,0,1,0-.006c-.762,1.816-1.337,3.2-1.352,3.313a50.983,50.983,0,0,1-1.355,6.708,81.436,81.436,0,0,1-6.067,15.52l-5.261-.009-41.073-.06s7.759-11.95,5.675-42.564c-.054-.774,7.151-25.476,7.151-25.476s5.6-.979,12.066-1.5c.61.557,1.867,16.806,9.959,17.747,1.316.152,9.759,13.049,9.759,13.049l2.557-13.174-3.025-17.479a92.072,92.072,0,0,1,9.238,2.834,10.2,10.2,0,0,1,5.15,4.576c5.654,10.331,24,43.654,25.874,44.431,1.754.726,8.363,2.048,15.356,3.325h.006c9.357,1.709,19.4,3.332,19.4,3.332Z" transform="translate(-182.746 -714.912)" fill="#d2e3fc"/>
            <path id="Trazado_10947" data-name="Trazado 10947" d="M434.453,1230.948l-2.941.009.009-.012Z" transform="translate(-326.156 -930.403)" fill="#d2e3fc"/>
            <path id="Trazado_10948" data-name="Trazado 10948" d="M374.236,802.58s-19.974-.392-19.539-12.827-1.849-20.861,10.922-21.136,15.082,4.556,15.946,8.742-2.122,25-7.329,25.221" transform="translate(-268.091 -580.946)" fill="#ffb27d"/>
            <path id="Trazado_10949" data-name="Trazado 10949" d="M514.962,1117.746c-1.134.006-2.284.006-3.427,0-7.812-.033-15.49-.307-18.756-1.149-3.192-.822-15.469-9.143-25.294-19.223a.01.01,0,0,1,0-.006s2.072-7.934,2.965-9.262,4.418,11.578,12.653,16.83,21.123,8.932,27.381,7.443c4.216-1,4.648,2.786,4.481,5.368" transform="translate(-353.344 -822.366)" fill="#b7d3f3"/>
            <path id="Trazado_10950" data-name="Trazado 10950" d="M418.677,878s.127,1.489,3.4,1.724c0,0,2.75.2,2.864-1.4a8.07,8.07,0,0,0-6.267-.321" transform="translate(-316.455 -663.292)" fill="#fff"/>
            <path id="Trazado_10951" data-name="Trazado 10951" d="M379.27,854.384a21.945,21.945,0,0,1-14.16-14.437l1.211-.3-.605.15.6-.15a20.664,20.664,0,0,0,13.326,13.548l.215.066-.363,1.193-.228-.07" transform="translate(-275.966 -634.642)" fill="#122544"/>
            <path id="Trazado_10952" data-name="Trazado 10952" d="M422.81,896.119l-1.07-.338a1.039,1.039,0,1,1,.626-1.982l1.07.338a1.039,1.039,0,1,1-.626,1.982" transform="translate(-318.221 -675.537)" fill="#ed7d2b"/>
            <path id="Trazado_10953" data-name="Trazado 10953" d="M368.19,755.563s-5.114,15.148-12.785,17.717-10.215-.472-10.215-.472a22.188,22.188,0,0,0,6.3-13.593s12.394-9.846,16.7-3.652" transform="translate(-260.91 -569.542)" fill="#8e342e"/>
            <path id="Trazado_10954" data-name="Trazado 10954" d="M400.276,764.294s10.414-.584,13.526,2.381c2.245,2.139,2.192,3.255,2.366,6.106,0,0,4.554-7.025-.132-11.942-4.969-5.214-15.761,3.456-15.761,3.456" transform="translate(-302.546 -573.814)" fill="#8e342e"/>
            <path id="Trazado_10955" data-name="Trazado 10955" d="M399.987,757.364s-2.608,14.493-12.142,19.758c0,0,9.234-9.451,9.4-18.907s2.744-.851,2.744-.851" transform="translate(-293.15 -569.74)" fill="#8e342e"/>
            <path id="Trazado_10956" data-name="Trazado 10956" d="M294.937,768.188c3.071,3.25,11.644,4.376,11.644,4.376a7.126,7.126,0,0,1-.724-1.658c4.406,3.572,15.227.978,15.227.978-8.632-1.907-5.836-14.363-2.9-14.894a269.854,269.854,0,0,1,6.693-26.344c-.382-.062-.6-.083-.6-.083-22.832-8.845-32.411,34.379-29.34,37.625" transform="translate(-222.505 -551.293)" fill="#8e342e"/>
            <path id="Trazado_10957" data-name="Trazado 10957" d="M345.322,824.01l-.824.114a6.76,6.76,0,0,1-7.6-5.75l-.6-4.31a6.761,6.761,0,0,1,5.75-7.6l.824-.114a6.761,6.761,0,0,1,7.6,5.75l.6,4.31a6.761,6.761,0,0,1-5.75,7.6" transform="translate(-254.14 -609.424)" fill="#ed7d2b"/>
            <path id="Trazado_10958" data-name="Trazado 10958" d="M351.108,749.536c-.49-.919,1.229-8.059,3.757-13.6,1.222-2.677,4.305-6.259,6.506-7.183a4.738,4.738,0,0,1,2.713,0,20.678,20.678,0,0,1,2.381.96c-7.234,2.255-13.52,17.414-13.064,18.983a.557.557,0,0,0-.048-.11Z" transform="translate(-265.32 -550.673)" fill="#ed7d2b"/>
            <path id="Trazado_10959" data-name="Trazado 10959" d="M352.648,833.99l-.411.057a3.368,3.368,0,0,1-3.788-2.865l-.3-2.148a3.368,3.368,0,0,1,2.865-3.788l.411-.057a3.368,3.368,0,0,1,3.788,2.865l.3,2.148a3.368,3.368,0,0,1-2.865,3.788" transform="translate(-263.124 -623.69)" fill="#f99746"/>
            <path id="Trazado_10960" data-name="Trazado 10960" d="M565.176,1178.125s8.565-.493,9.4-.044a46.837,46.837,0,0,1,6.674,4.552,48.028,48.028,0,0,1,2.609,4.316s-.817.227-1.187-.1-3.164-3.3-3.164-3.3l2.871,4.362a2.43,2.43,0,0,1-1.386-.477c-.394-.433-3.076-3.161-3.076-3.161l-.914-.18a9.917,9.917,0,0,1,1.436,1.422,8.812,8.812,0,0,1,.84,1.4,6.715,6.715,0,0,1-1.073-.26c-.255-.122-2.66-2.227-2.66-2.227l1.275,1.74a3.353,3.353,0,0,1-1.142-.233,17.765,17.765,0,0,0-2.489-1.913,11.2,11.2,0,0,1-3.751-.641c-1.027-.545-4.252-1.792-4.252-1.792Z" transform="translate(-427.185 -890.303)" fill="#ffb27d"/>
            <path id="Trazado_10961" data-name="Trazado 10961" d="M326.785,936.082s-5.728,1.67-7.034,2.985c0,0,5.988,15.308,14.622,22.453l2.307-1.637v3.722l8.644,5.656s-18.982-28.549-18.539-33.18" transform="translate(-241.682 -707.532)" fill="#b7d3f3"/>
            <path id="Trazado_10962" data-name="Trazado 10962" d="M320.261,1084.437a81.421,81.421,0,0,1-6.068,15.52l2.933,0-2.941.009H286.9s3.166-.006,3.16-.021c-.074-.277,4.615-12.988-3.16-18.2s-10.612-18.052-10.612-18.052l24.782-6.054s10.211,14.9,13.117,17.74c2.231,2.181,7.431,2.345,7.431,2.345Z" transform="translate(-208.828 -799.414)" fill="#b7d3f3"/>
            <path id="Trazado_10963" data-name="Trazado 10963" d="M422.147,938.608s2.636,20.829.468,30.653c0,0,3.538-6.5,4.034-7.691l-.6-3.573,2.282.794s-2.013-16.606-3.835-19.517-2.493-3.193-2.493-3.193Z" transform="translate(-318.973 -707.532)" fill="#b7d3f3"/>
            <path id="Trazado_10964" data-name="Trazado 10964" d="M666.506,1181.159s-11.051.408-21.852.357c-2.679-4.156.6-9.137.6-9.137h.006c9.357,1.709,19.4,3.332,19.4,3.332Z" transform="translate(-486.462 -886.136)" fill="#ffb27d"/>
            <path id="Trazado_10965" data-name="Trazado 10965" d="M615.271,1220.915H574.429a3.256,3.256,0,0,1,3.256-3.256h37.586Z" transform="translate(-434.179 -920.361)" fill="#ed7d2b"/>
            <path id="Trazado_10966" data-name="Trazado 10966" d="M756.213,1048.81l-15.144,44.482H677.514l15.556-44.482Z" transform="translate(-512.095 -792.737)" fill="#ed7d2b"/>
            <path id="Trazado_10967" data-name="Trazado 10967" d="M759.088,1048.81l-15.006,44.07-.139.412H681.318l15.556-44.482Z" transform="translate(-514.97 -792.737)" fill="#f99746"/>
            <path id="Trazado_10968" data-name="Trazado 10968" d="M844.918,1128.692a4.106,4.106,0,0,1-3.788,3.077,2.37,2.37,0,0,1-2.367-3.077,4.106,4.106,0,0,1,3.788-3.077,2.37,2.37,0,0,1,2.367,3.077" transform="translate(-633.913 -850.79)" fill="#ffc397"/>
            <path id="Trazado_10969" data-name="Trazado 10969" d="M864.316,1048.81l-15.006,44.07H820.536l35.084-44.07Z" transform="translate(-620.197 -792.737)" fill="#ed7d2b"/>
            <path id="Trazado_10970" data-name="Trazado 10970" d="M464.156,1161.748s-21.025,1.837-32.645,1.319V1151.65c7.613,2.1,32.636,6.639,32.636,6.639Z" transform="translate(-326.155 -870.468)" fill="#ffb27d"/>
            <path id="Trazado_10971" data-name="Trazado 10971" d="M267.773,948.31s-12.024.273-15.745,4.293,3.693,26.735,3.693,26.735,22.412,27.449,33.623,29.384c0,0,4.9.669,7.187.706,0,0-2.243-6.529,1.928-10.626,0,0-4.8-1.343-5-1.939s-25.687-48.553-25.687-48.553" transform="translate(-189.704 -716.775)" fill="#d2e3fc"/>
            <path id="Trazado_10972" data-name="Trazado 10972" d="M2217.611,732.858s-12.177-4.531-19.786,4.365c-4.362,5.1-32.257,58.279-31.925,62.935a10.621,10.621,0,0,0,2.993,6.984s-1.164-4.074-.291-6.194c0,0-.561,7.171,3.866,10.226,2.307,1.592,59.732-1.525,64.722-8.48,10.85-15.122-12.844-22.946-12.263-39.282.338-9.473,9.644-29.6-7.316-30.553" transform="translate(-1637.08 -553.054)" fill="#2c3a64"/>
            <path id="Trazado_10973" data-name="Trazado 10973" d="M2395.041,820.633l-.816.165a6.76,6.76,0,0,1-7.942-5.272l-.862-4.266a6.761,6.761,0,0,1,5.272-7.942l.816-.165a6.76,6.76,0,0,1,7.942,5.272l.862,4.266a6.76,6.76,0,0,1-5.272,7.942" transform="translate(-1802.906 -606.958)" fill="#ed7d2b"/>
            <path id="Trazado_10974" data-name="Trazado 10974" d="M2473.763,1020.448h-38.1c-6.462-10.258-12.144-24.111-13.468-34.9-.631-5.118-.279-9.545,1.431-12.57,5.323-9.4-3.12-20.437-3.12-20.437s11.623,3.289,14.324,12.872c2.753,9.762,10.143,42.232,10.143,42.232l28.291,5.819a13.258,13.258,0,0,1,.5,6.981" transform="translate(-1829.526 -719.974)" fill="#f99746"/>
            <path id="Trazado_10975" data-name="Trazado 10975" d="M2478.99,1117.27h-38.1c-6.462-10.259-12.144-24.111-13.468-34.9l5.652-1.731s7.15,32.64,11.308,33.139,34.608,3.49,34.608,3.49" transform="translate(-1834.753 -816.796)" fill="#ed7d2b"/>
            <path id="Trazado_10976" data-name="Trazado 10976" d="M2311.56,907.191a34.932,34.932,0,0,1-11.55,6.535c-18.215,6.434-27.168-8.564-31.086-19.11a16.17,16.17,0,0,1,6.116-2.663c1.334-.312,2.743-.578,3.914-.77,1.918-1.846,4.3-8.783,3.841-19.083l.907.137,15.2,2.369s-.146,4.762.023,9.228c.135,3.494.47,6.811,1.218,7.547,1.178.12,1.887.2,1.887.2a.046.046,0,0,0,.009.013,95.469,95.469,0,0,1,9.524,15.592" transform="translate(-1714.953 -659.172)" fill="#ffb27d"/>
            <path id="Trazado_10977" data-name="Trazado 10977" d="M2344.651,875.04s-.149,4.758.024,9.228c-8.445.107-13.219-7.405-15.221-11.6Z" transform="translate(-1760.704 -659.604)" fill="#ed985f"/>
            <path id="Trazado_10978" data-name="Trazado 10978" d="M2290.058,978.754c-.042.327-4.1,13.53-4.145,13.862-1.409,11.054-3.96,22.848-3.96,22.848l-5.58-.01-36.82-.072s4.442-13.4-7.276-33.952q-.576-1.01-1.2-2.043c-1.669-2.741,8.86-32.045,8.86-32.045s4.611-.815,11.078-1.336c.611.559,5.1,16.993,13.233,17.494,10.613.654,6.59-17.658,6.59-17.658a36.935,36.935,0,0,1,11.43,3.843s8.019,27.266,7.794,29.069" transform="translate(-1686.208 -714.909)" fill="#f99746"/>
            <path id="Trazado_10979" data-name="Trazado 10979" d="M2338.748,796.428s-19.96.837-20.29-11.6-3.129-20.707,9.6-21.768,15.333,3.62,16.453,7.745-.581,25.086-5.764,25.624" transform="translate(-1752.025 -576.638)" fill="#ffb27d"/>
            <path id="Trazado_10980" data-name="Trazado 10980" d="M2385.288,870.9s.219,1.479,3.5,1.511c0,0,2.757.029,2.772-1.576a8.07,8.07,0,0,0-6.275.065" transform="translate(-1802.906 -657.778)" fill="#fff"/>
            <path id="Trazado_10981" data-name="Trazado 10981" d="M2344.474,850.11a21.945,21.945,0,0,1-15.021-13.539l1.19-.374-.595.187.594-.187a20.665,20.665,0,0,0,14.134,12.7l.219.053-.289,1.213-.232-.056" transform="translate(-1760.703 -632.034)" fill="#122544"/>
            <path id="Trazado_10982" data-name="Trazado 10982" d="M2390.632,889.116l-1.089-.272a1.039,1.039,0,1,1,.5-2.017l1.089.272a1.039,1.039,0,0,1-.5,2.017" transform="translate(-1805.527 -670.281)" fill="#2c3a64"/>
            <path id="Trazado_10983" data-name="Trazado 10983" d="M2326.883,731.374s12.853-2.006,18.169,8.693c4.048,8.145.673,13.23-.914,14.789,0,0-2.1-11.7-6.028-12.7a4.245,4.245,0,0,0-4.259,1.235c-1.727,2.008-4.225,10.96-7.093,12.332,0,0-8.906,2.2-9.343-.909s-.193-12.783,2.051-14.341,7.416-9.1,7.416-9.1" transform="translate(-1751.47 -552.692)" fill="#2c3a64"/>
            <path id="Trazado_10984" data-name="Trazado 10984" d="M2309.933,820.633l-.816.165a6.76,6.76,0,0,1-7.942-5.272l-.862-4.266a6.76,6.76,0,0,1,5.272-7.942l.816-.165a6.76,6.76,0,0,1,7.942,5.272l.862,4.266a6.76,6.76,0,0,1-5.272,7.942" transform="translate(-1738.578 -606.958)" fill="#ed7d2b"/>
            <path id="Trazado_10985" data-name="Trazado 10985" d="M2312.238,751.368c-.546-.887-1.348-8.024.834-13.706a9.421,9.421,0,0,1,4.9-5.37,5.716,5.716,0,0,1,2.525-.586l2.151.032c-7.082,2.7-8.724,17.114-8.172,18.652a.524.524,0,0,0-.054-.107Z" transform="translate(-1747.234 -553.055)" fill="#ed7d2b"/>
            <path id="Trazado_10986" data-name="Trazado 10986" d="M2317.222,830.885l-.407.082a3.368,3.368,0,0,1-3.957-2.627l-.43-2.125a3.368,3.368,0,0,1,2.627-3.957l.406-.082a3.368,3.368,0,0,1,3.957,2.627l.43,2.125a3.368,3.368,0,0,1-2.626,3.957" transform="translate(-1747.786 -621.387)" fill="#f99746"/>
            <path id="Trazado_10987" data-name="Trazado 10987" d="M2243.836,1108.676s4.442-13.4-7.275-33.952l4.365-5.452s7.727,21.886,17.384,28.268c9.637,6.367,20.978,5.038,22.347,11.208Z" transform="translate(-1690.492 -808.202)" fill="#ed7d2b"/>
            <path id="Trazado_10988" data-name="Trazado 10988" d="M2179.105,951.988s-7.946.692-13.267,10.092-15.422,44.525-15.422,57.947h42.525a13.239,13.239,0,0,0-.5-6.979l-26.315-5.078s15.84-23.521,16.006-33.664-3.028-22.318-3.028-22.318" transform="translate(-1625.38 -719.555)" fill="#f99746"/>
            <path id="Trazado_10989" data-name="Trazado 10989" d="M2321.24,1211.313s8.286-.81,9.658-.436a40.882,40.882,0,0,1,6.173,2.557,24.951,24.951,0,0,1,2.557,2.2,5.421,5.421,0,0,1-1.684.061c-.624-.14-2.494-.265-2.993-.306a15.513,15.513,0,0,0-2.286.328h-12.845Z" transform="translate(-1753.422 -915.16)" fill="#ffb27d"/>
            <path id="Trazado_10990" data-name="Trazado 10990" d="M2506.519,1220.915h-40.842a3.256,3.256,0,0,1,3.256-3.256h37.586Z" transform="translate(-1863.668 -920.361)" fill="#233862"/>
            <path id="Trazado_10991" data-name="Trazado 10991" d="M2647.462,1048.81l-15.145,44.482h-63.554l15.556-44.482Z" transform="translate(-1941.584 -792.737)" fill="#233862"/>
            <path id="Trazado_10992" data-name="Trazado 10992" d="M2650.337,1048.81l-15.006,44.07-.139.412h-62.625l15.556-44.482Z" transform="translate(-1944.46 -792.737)" fill="#2b478b"/>
            <path id="Trazado_10993" data-name="Trazado 10993" d="M2736.167,1128.692a4.106,4.106,0,0,1-3.788,3.077,2.37,2.37,0,0,1-2.367-3.077,4.106,4.106,0,0,1,3.788-3.077,2.369,2.369,0,0,1,2.366,3.077" transform="translate(-2063.402 -850.79)" fill="#f99746"/>
            <path id="Trazado_10994" data-name="Trazado 10994" d="M2755.563,1048.81l-15.006,44.07h-28.774l35.084-44.07Z" transform="translate(-2049.686 -792.737)" fill="#233862"/>
          </g>
        </g>
      </g>
    </g>
    <rect id="Rectángulo_4245" data-name="Rectángulo 4245" width="802.619" height="3.643" transform="translate(339.206 2099.307)" fill="#184655"/>
  </g>
</svg>
