<svg xmlns="http://www.w3.org/2000/svg" xmlns:xlink="http://www.w3.org/1999/xlink" width="397.163" height="360" viewBox="0 0 397.163 360">
  <defs>
    <clipPath id="clip-path">
      <rect id="Rectángulo_8453" data-name="Rectángulo 8453" width="376.674" height="318.951" fill="none"/>
    </clipPath>
    <clipPath id="clip-path-3">
      <rect id="Rectángulo_8395" data-name="Rectángulo 8395" width="375.206" height="309.457" fill="none"/>
    </clipPath>
    <clipPath id="clip-path-5">
      <rect id="Rectángulo_8400" data-name="Rectángulo 8400" width="29.122" height="19.932" fill="none"/>
    </clipPath>
    <clipPath id="clip-path-6">
      <rect id="Rectángulo_8412" data-name="Rectángulo 8412" width="27.09" height="20.767" fill="none"/>
    </clipPath>
    <clipPath id="clip-path-7">
      <rect id="Rectángulo_8413" data-name="Rectángulo 8413" width="17.803" height="26.55" fill="none"/>
    </clipPath>
    <clipPath id="clip-path-8">
      <rect id="Rectángulo_8441" data-name="Rectángulo 8441" width="42.709" height="16.242" fill="none"/>
    </clipPath>
    <clipPath id="clip-path-9">
      <rect id="Rectángulo_8447" data-name="Rectángulo 8447" width="40.717" height="46.517" fill="none"/>
    </clipPath>
    <clipPath id="clip-path-10">
      <rect id="Rectángulo_8448" data-name="Rectángulo 8448" width="25.598" height="17.772" fill="none"/>
    </clipPath>
    <clipPath id="clip-path-11">
      <rect id="Rectángulo_8449" data-name="Rectángulo 8449" width="25.496" height="18.028" fill="none"/>
    </clipPath>
    <clipPath id="clip-path-12">
      <rect id="Rectángulo_8450" data-name="Rectángulo 8450" width="11.497" height="15.701" fill="none"/>
    </clipPath>
    <clipPath id="clip-path-13">
      <rect id="Rectángulo_8451" data-name="Rectángulo 8451" width="17.658" height="17.713" fill="none"/>
    </clipPath>
  </defs>
  <g id="Grupo_13582" data-name="Grupo 13582" transform="translate(-284.769 -1417.5)">
    <line id="Línea_709" data-name="Línea 709" y1="360" transform="translate(680.932 1417.5)" fill="none" stroke="#78958a" stroke-width="2"/>
    <g id="Grupo_13141" data-name="Grupo 13141" transform="translate(284.769 1450.755)">
      <g id="Grupo_13140" data-name="Grupo 13140" clip-path="url(#clip-path)">
        <g id="Grupo_13110" data-name="Grupo 13110">
          <g id="Grupo_13109" data-name="Grupo 13109" clip-path="url(#clip-path)">
            <g id="Grupo_13108" data-name="Grupo 13108" opacity="0.3" style="mix-blend-mode: multiply;isolation: isolate">
              <g id="Grupo_13107" data-name="Grupo 13107">
                <g id="Grupo_13106" data-name="Grupo 13106" clip-path="url(#clip-path-3)">
                  <path id="Trazado_17930" data-name="Trazado 17930" d="M4.691,216.357H84.773a4.5,4.5,0,0,1,3.306,7.7L85,227.036a4.75,4.75,0,0,1-3.3,1.323H15.146a4.6,4.6,0,0,0-4.675,4.512v8.687a4.6,4.6,0,0,0,4.675,4.512H130.712c5.3,0,4.674,5.566,4.674,7.365a4.6,4.6,0,0,1-4.674,4.513H58.071a4.6,4.6,0,0,0-4.674,4.514v8.432a4.6,4.6,0,0,0,4.674,4.514h58.158a4.6,4.6,0,0,1,4.674,4.512v4.263a4.6,4.6,0,0,1-4.674,4.514h-11a4.594,4.594,0,0,0-4.673,4.514v11.732a4.6,4.6,0,0,0,4.673,4.514h188.05a4.6,4.6,0,0,0,4.675-4.514v-7.988a4.6,4.6,0,0,0-4.675-4.514H277.054a4.6,4.6,0,0,1-4.673-4.514v-3.078a4.6,4.6,0,0,1,4.673-4.514h45.359a4.6,4.6,0,0,0,4.675-4.513c0-16.06,4.547-12.045-51.7-12.045-6.448,0-6.4-11.1,0-11.1h53.055a4.6,4.6,0,0,0,4.675-4.514v-6.53a4.6,4.6,0,0,0-4.675-4.513H303.826a4.6,4.6,0,0,1-4.674-4.514c0-3.152-.811-8.976,4.674-8.976h55.621a4.594,4.594,0,0,0,4.674-4.512c0-4.345.953-10.292-4.674-10.292H324.223a4.6,4.6,0,0,1-4.674-4.514v-7.528a4.6,4.6,0,0,1,4.674-4.513h41.188a4.6,4.6,0,0,0,4.674-4.514c0-7.787,1.177-13.913-4.674-13.913H259.575c-6.175,0-6.184-9.026,0-9.026h76.452c5.871,0,4.675-6.341,4.675-12.969H266.8c-1.393-4.188-2.93-3.141-36.316-3.141-6.293,0-6.243-10.144,0-10.144,130.746,0,127.856,1.856,127.856-4.514,0-17.5,2.831-14.513-26-14.513a4.594,4.594,0,0,1-4.674-4.512v-3.88a4.6,4.6,0,0,1,4.674-4.513h38.186a4.6,4.6,0,0,0,4.675-4.514V97.922a4.6,4.6,0,0,0-4.675-4.513H290.448a4.5,4.5,0,0,1-3.305-7.706l3.082-2.975c1.951-1.885-2.073-1.322,69.851-1.322,5.894,0,4.675-6.367,4.675-13.2a4.6,4.6,0,0,0-4.675-4.512c-122.146,0-120.24,1.895-120.24-4.514,0-1.793-.643-7.365,4.675-7.365h72.641a4.6,4.6,0,0,0,4.674-4.513c0-16.7,4.422-12.946-44.939-12.946-2.581,0-23.563-2.02-23.563-4.512,0-2.827-.846-8.777,4.674-8.777,8.688,0,15.675,1.3,15.675-4.514C273.673,6.185,274.891.309,269,.309,58.623.309,65.34-1.764,65.34,4.823c0,6.032-1.208,12.5,4.675,12.5,14.627,0,20.9-1.325,20.9,4.513,0,10.118,3.718,7.592-65.938,7.592A4.6,4.6,0,0,0,20.3,33.943c0,5.8-1.1,12.046,4.675,12.046,82.1,0,79.537-2.492,79.537,6.587a4.6,4.6,0,0,1-4.674,4.514c-62.113,0-57.73-3.885-57.73,11.045a4.6,4.6,0,0,0,4.675,4.513H71.4A4.6,4.6,0,0,1,76.07,77.16c0,3.152.811,8.976-4.674,8.976-64.669,0-60.3-3.537-60.3,10.291a4.6,4.6,0,0,0,4.676,4.513H51a4.6,4.6,0,0,1,4.674,4.514v7.528A4.6,4.6,0,0,1,51,117.5H9.811a4.6,4.6,0,0,0-4.674,4.514v9.4a4.6,4.6,0,0,0,4.674,4.514H115.647a4.516,4.516,0,1,1,0,9.026H39.2a4.6,4.6,0,0,0-4.674,4.514v8.453h73.9a4.641,4.641,0,0,0,4.431,3.141h31.886a4.6,4.6,0,0,1,4.674,4.514v1.118a4.6,4.6,0,0,1-4.674,4.514c-130.747,0-127.856-1.856-127.856,4.513,0,17.5-2.827,14.514,26,14.514,5.423,0,4.674,5.782,4.674,8.392a4.6,4.6,0,0,1-4.674,4.513c-44.975,0-42.861-2.513-42.861,8.708a4.6,4.6,0,0,0,4.675,4.514" transform="translate(0 0)" fill="#8dccdb"/>
                </g>
              </g>
            </g>
          </g>
        </g>
        <rect id="Rectángulo_8397" data-name="Rectángulo 8397" width="34.044" height="64.503" transform="translate(89.184 101.027) rotate(-31.228)" fill="#fff"/>
        <path id="Trazado_17931" data-name="Trazado 17931" d="M110.188,113.945l16.937-10.269,26.068,42.995L136.256,156.94Zm-6.534-1.592,30.987,51.112,25.072-15.2L128.729,97.151Z" transform="translate(-11.23 -10.526)" fill="#26a587"/>
        <g id="Grupo_13139" data-name="Grupo 13139">
          <g id="Grupo_13138" data-name="Grupo 13138" clip-path="url(#clip-path)">
            <path id="Trazado_17932" data-name="Trazado 17932" d="M132.627,161.811a9.961,9.961,0,0,1,13.677,3.333l-8.524,5.169Z" transform="translate(-14.369 -17.374)" fill="#26a587"/>
            <path id="Trazado_17933" data-name="Trazado 17933" d="M108.814,122.082a9.96,9.96,0,0,0,3.362-13.677l-8.522,5.167Z" transform="translate(-11.23 -11.745)" fill="#26a587"/>
            <path id="Trazado_17934" data-name="Trazado 17934" d="M160.163,144.942a9.943,9.943,0,0,0-3.354,13.656l8.506-5.156Z" transform="translate(-16.833 -15.704)" fill="#26a587"/>
            <path id="Trazado_17935" data-name="Trazado 17935" d="M135.9,105.663a9.949,9.949,0,0,1-13.666-3.354l8.507-5.158Z" transform="translate(-13.243 -10.526)" fill="#26a587"/>
            <path id="Trazado_17936" data-name="Trazado 17936" d="M142.661,146.7a4.711,4.711,0,1,0,6.466,1.592,4.718,4.718,0,0,0-6.466-1.592" transform="translate(-15.211 -15.821)" fill="#26a587"/>
            <path id="Trazado_17937" data-name="Trazado 17937" d="M129.463,125.746a8.788,8.788,0,1,0,12.071,2.953,8.78,8.78,0,0,0-12.071-2.953" transform="translate(-13.568 -13.485)" fill="#26a587"/>
            <path id="Trazado_17938" data-name="Trazado 17938" d="M122.91,114.125a4.711,4.711,0,1,0,6.463,1.588,4.716,4.716,0,0,0-6.463-1.588" transform="translate(-13.071 -12.291)" fill="#26a587"/>
            <path id="Trazado_17939" data-name="Trazado 17939" d="M133.97,138.261c-1.838,1.114-3.126.347-4.023-1.044l-1.1.671-.739-1.223,1.11-.672a11.084,11.084,0,0,1-.97-2.464l1.651-1c.4.822,1.165,2.24,1.546,2.869.452.75.728,1.077,1.447.643l.309-.187c.552-.337.641-.7.231-1.383l-.625-1.032c-1.156-1.905.164-3.247,1.189-3.867l.538-.326c2.185-1.323,3.46-.322,4.234.954l1.064-.643.74,1.225-1.074.646a7.491,7.491,0,0,1,.973,2.491l-1.625.985c-.27-.535-.95-1.856-1.673-3.044-.328-.541-.72-.9-1.279-.566l-.374.226c-.464.28-.652.594-.269,1.227l.6.992a2.714,2.714,0,0,1-1.09,4.041Z" transform="translate(-13.88 -13.935)" fill="#87decd"/>
            <rect id="Rectángulo_8398" data-name="Rectángulo 8398" width="34.045" height="64.5" transform="matrix(0.506, -0.862, 0.862, 0.506, 66.449, 138.778)" fill="#fff"/>
            <path id="Trazado_17940" data-name="Trazado 17940" d="M84.652,149.929l10.032-17.081,43.353,25.467-10.032,17.078Zm-6.508,1.7L129.683,181.9l14.849-25.281L92.995,126.347Z" transform="translate(-8.466 -13.689)" fill="#26a587"/>
            <path id="Trazado_17941" data-name="Trazado 17941" d="M126.334,182.407a9.951,9.951,0,0,1,13.616-3.559l-5.047,8.593Z" transform="translate(-13.687 -19.229)" fill="#26a587"/>
            <path id="Trazado_17942" data-name="Trazado 17942" d="M86.727,158.7a9.97,9.97,0,0,0-3.536-13.636l-5.048,8.594Z" transform="translate(-8.466 -15.716)" fill="#26a587"/>
            <path id="Trazado_17943" data-name="Trazado 17943" d="M142.823,154.652a9.937,9.937,0,0,0,3.531,13.611l5.035-8.577Z" transform="translate(-15.325 -16.756)" fill="#26a587"/>
            <path id="Trazado_17944" data-name="Trazado 17944" d="M102.77,131.386a9.949,9.949,0,0,1-13.623,3.535l5.041-8.574Z" transform="translate(-9.659 -13.689)" fill="#26a587"/>
            <path id="Trazado_17945" data-name="Trazado 17945" d="M128.112,164.447a4.709,4.709,0,1,0,6.443-1.669,4.715,4.715,0,0,0-6.443,1.669" transform="translate(-13.81 -17.565)" fill="#26a587"/>
            <path id="Trazado_17946" data-name="Trazado 17946" d="M106.72,151.973a8.787,8.787,0,1,0,12.023-3.131,8.777,8.777,0,0,0-12.023,3.131" transform="translate(-11.431 -15.995)" fill="#26a587"/>
            <path id="Trazado_17947" data-name="Trazado 17947" d="M95.259,145.151a4.712,4.712,0,1,0,6.444-1.669,4.72,4.72,0,0,0-6.444,1.669" transform="translate(-10.251 -15.475)" fill="#26a587"/>
            <path id="Trazado_17948" data-name="Trazado 17948" d="M116.547,160.907c-1.09,1.854-2.584,1.79-4.036.993l-.651,1.109-1.232-.724.659-1.118a10.991,10.991,0,0,1-2.021-1.71l.976-1.663c.738.535,2.09,1.419,2.725,1.79.753.444,1.155.6,1.579-.119l.182-.311c.328-.559.231-.926-.454-1.327l-1.039-.612c-1.923-1.129-1.4-2.935-.79-3.97l.317-.537c1.295-2.205,2.893-1.93,4.181-1.173l.629-1.071,1.233.725-.635,1.079A7.529,7.529,0,0,1,120.207,154l-.961,1.64c-.491-.342-1.718-1.181-2.919-1.887-.546-.32-1.063-.454-1.394.111l-.222.375c-.272.466-.288.834.346,1.206l1,.586a2.717,2.717,0,0,1,.96,4.077Z" transform="translate(-11.838 -16.302)" fill="#87decd"/>
            <rect id="Rectángulo_8399" data-name="Rectángulo 8399" width="34.046" height="64.499" transform="matrix(0.573, -0.819, 0.819, 0.573, 304.31, 155.27)" fill="#fff"/>
            <path id="Trazado_17949" data-name="Trazado 17949" d="M404.144,181.991,392.785,198.22l-41.191-28.833,11.358-16.226Zm6.623-1.176L361.8,146.539l-16.81,24.021,48.966,34.274Z" transform="translate(-37.377 -15.877)" fill="#26a587"/>
            <path id="Trazado_17950" data-name="Trazado 17950" d="M371.288,152.24a9.949,9.949,0,0,1-13.855,2.465l5.713-8.167Z" transform="translate(-38.726 -15.877)" fill="#26a587"/>
            <path id="Trazado_17951" data-name="Trazado 17951" d="M409.393,178.579a9.97,9.97,0,0,0,2.44,13.874l5.716-8.167Z" transform="translate(-44.16 -19.348)" fill="#26a587"/>
            <path id="Trazado_17952" data-name="Trazado 17952" d="M353.125,178.189a9.938,9.938,0,0,0-2.438-13.848l-5.7,8.148Z" transform="translate(-37.377 -17.805)" fill="#26a587"/>
            <path id="Trazado_17953" data-name="Trazado 17953" d="M390.757,205a9.949,9.949,0,0,1,13.861-2.44l-5.706,8.146Z" transform="translate(-42.336 -21.751)" fill="#26a587"/>
            <path id="Trazado_17954" data-name="Trazado 17954" d="M368.626,170.1a4.709,4.709,0,1,0-6.555,1.151,4.717,4.717,0,0,0,6.555-1.151" transform="translate(-39.01 -17.627)" fill="#26a587"/>
            <path id="Trazado_17955" data-name="Trazado 17955" d="M388.009,183.209a8.788,8.788,0,1,0-12.234,2.164,8.779,8.779,0,0,0,12.234-2.164" transform="translate(-40.306 -18.352)" fill="#26a587"/>
            <path id="Trazado_17956" data-name="Trazado 17956" d="M399.842,191.95a4.712,4.712,0,1,0-6.556,1.153,4.719,4.719,0,0,0,6.556-1.153" transform="translate(-42.392 -19.994)" fill="#26a587"/>
            <path id="Trazado_17957" data-name="Trazado 17957" d="M379.679,174.2c1.234-1.762,2.719-1.579,4.1-.671l.737-1.054,1.17.82-.745,1.062a11.058,11.058,0,0,1,1.88,1.866l-1.107,1.58c-.693-.593-1.97-1.58-2.573-2-.716-.5-1.1-.692-1.584-.007l-.207.3c-.371.531-.3.9.348,1.36l.986.691c1.828,1.279,1.162,3.037.472,4.02l-.358.509c-1.466,2.1-3.037,1.7-4.261.837l-.712,1.018-1.173-.82.719-1.025a7.573,7.573,0,0,1-1.89-1.889l1.088-1.559c.464.38,1.619,1.314,2.76,2.113.519.362,1.025.536,1.4,0l.251-.358c.309-.442.353-.808-.248-1.23l-.95-.664a2.717,2.717,0,0,1-.634-4.139Z" transform="translate(-40.681 -18.686)" fill="#87decd"/>
            <path id="Trazado_17958" data-name="Trazado 17958" d="M377.7,87.176a14.658,14.658,0,0,0,5.814,19.9L397.6,81.363a14.655,14.655,0,0,0-19.9,5.813" transform="translate(-40.725 -8.619)" fill="#f59905"/>
            <path id="Trazado_17959" data-name="Trazado 17959" d="M394.8,79.829a14.661,14.661,0,1,0,5.814,19.9,14.659,14.659,0,0,0-5.814-19.9" transform="translate(-40.422 -8.453)" fill="#ffca00"/>
            <path id="Trazado_17960" data-name="Trazado 17960" d="M377.361,87.127a12.188,12.188,0,0,0,4.835,16.551L393.912,82.29a12.191,12.191,0,0,0-16.551,4.836" transform="translate(-40.722 -8.753)" fill="#f59905"/>
            <path id="Trazado_17961" data-name="Trazado 17961" d="M394.681,82.474,382.966,103.86a12.193,12.193,0,1,0,11.715-21.386" transform="translate(-41.492 -8.936)" fill="#f59207"/>
            <path id="Trazado_17962" data-name="Trazado 17962" d="M383.307,102.283a10.345,10.345,0,1,1,14.044-4.1,10.356,10.356,0,0,1-14.044,4.1m9.724-17.743a9.887,9.887,0,1,0,3.921,13.42,9.9,9.9,0,0,0-3.921-13.42" transform="translate(-40.947 -8.978)" fill="#ffca00"/>
            <path id="Trazado_17963" data-name="Trazado 17963" d="M386.371,88.523c1.269-2.275,3.079-2.227,4.859-1.315l.759-1.369,1.514.842-.761,1.38a12.2,12.2,0,0,1,2.495,2L394.114,92.1c-.916-.619-2.586-1.635-3.371-2.071-.917-.522-1.411-.7-1.9.18l-.218.39c-.384.692-.25,1.123.6,1.591l1.274.708c2.359,1.308,1.786,3.511,1.074,4.792l-.368.666c-1.5,2.7-3.445,2.428-5.03,1.552l-.722,1.3-1.517-.841.734-1.322a9.6,9.6,0,0,1-2.528-2.035l1.12-2.021c.608.4,2.118,1.376,3.6,2.2.674.376,1.3.513,1.683-.175l.256-.458c.315-.574.331-1.018-.453-1.448l-1.232-.681c-2.851-1.581-1.777-4.038-1.291-4.913Z" transform="translate(-41.403 -9.3)" fill="#ffca00"/>
            <g id="Grupo_13113" data-name="Grupo 13113" transform="translate(332.671 70.056)" opacity="0.3" style="mix-blend-mode: screen;isolation: isolate">
              <g id="Grupo_13112" data-name="Grupo 13112">
                <g id="Grupo_13111" data-name="Grupo 13111" clip-path="url(#clip-path-5)">
                  <path id="Trazado_17964" data-name="Trazado 17964" d="M391.712,78.568,377.2,82.808a14.482,14.482,0,0,0-2.063,2.869l19.859-5.806a14.681,14.681,0,0,0-3.281-1.3" transform="translate(-373.314 -78.568)" fill="#ffca00"/>
                  <path id="Trazado_17965" data-name="Trazado 17965" d="M398.84,83.7l-25.594,7.477a14.692,14.692,0,0,0,1.025,7.88l27.943-8.167A14.65,14.65,0,0,0,398.84,83.7" transform="translate(-373.093 -79.124)" fill="#ffca00"/>
                </g>
              </g>
            </g>
            <path id="Trazado_17966" data-name="Trazado 17966" d="M357.362,311.837c.054-.053.1-.108.153-.165a3.422,3.422,0,0,0,.4-.5l.347-.541h0l4.92-7.706,4.328-6.781,2.987-4.68a3.825,3.825,0,0,0-1.166-5.268L334.19,263.759a3.829,3.829,0,0,0-5.271,1.167l-3,4.7-4.33,6.785-4.92,7.7v0l-.332.521a3.957,3.957,0,0,0-.382.806c0,.02-.008.044-.013.064a3.737,3.737,0,0,0-.167.812v0A3.816,3.816,0,0,0,317.5,289.9l35.143,22.43a3.805,3.805,0,0,0,4,.042v0l.011-.007a3.951,3.951,0,0,0,.341-.226c.125-.1.245-.2.363-.307" transform="translate(-34.211 -28.512)" fill="#b81818"/>
            <rect id="Rectángulo_8401" data-name="Rectángulo 8401" width="8.044" height="49.323" transform="translate(286.251 247.101) rotate(-57.48)" fill="#fefefe"/>
            <path id="Trazado_17967" data-name="Trazado 17967" d="M370.458,290.571A3.823,3.823,0,0,0,369.3,285.3l-35.141-22.431a3.827,3.827,0,0,0-5.269,1.165l-3,4.7,41.588,26.515Z" transform="translate(-35.308 -28.416)" fill="#ff4140"/>
            <path id="Trazado_17968" data-name="Trazado 17968" d="M320.319,277.125l-5.251,8.226a3.83,3.83,0,0,0,1.165,5.27l35.138,22.432a3.827,3.827,0,0,0,5.271-1.165l5.269-8.25Z" transform="translate(-34.071 -30.025)" fill="#ff4140"/>
            <path id="Trazado_17969" data-name="Trazado 17969" d="M355.383,314.031a3.768,3.768,0,0,0,1.264-1.206l.348-.541-41.59-26.516-.333.521a3.79,3.79,0,0,0-.562,1.685Z" transform="translate(-34.075 -30.961)" fill="#b81818"/>
            <path id="Trazado_17970" data-name="Trazado 17970" d="M340.576,271.219l-.476.145a1.279,1.279,0,0,0-.529-.714c-.547-.347-1.238-.271-1.937.821-.668,1.046-.492,1.733.07,2.094a1.452,1.452,0,0,0,.963.182l.047.481a1.679,1.679,0,0,1-1.294-.254c-.876-.559-1.094-1.622-.317-2.839s1.878-1.436,2.7-.913a1.677,1.677,0,0,1,.776,1" transform="translate(-36.471 -29.248)" fill="#eff2f4"/>
            <path id="Trazado_17971" data-name="Trazado 17971" d="M342.667,273.37l-.391.415a.97.97,0,0,0-.224-.184c-.346-.222-.7-.1-1.154.354l-1.01,1.581-.482-.307,1.763-2.77.414.266-.31.591a.936.936,0,0,1,1.14-.152,1.352,1.352,0,0,1,.254.206" transform="translate(-36.772 -29.519)" fill="#eff2f4"/>
            <path id="Trazado_17972" data-name="Trazado 17972" d="M344.517,276.793l-1.766-1.126c-.362.67-.218,1.108.179,1.363a1.39,1.39,0,0,0,.875.216l.027.424a1.785,1.785,0,0,1-1.189-.268,1.454,1.454,0,0,1-.319-2.2c.549-.86,1.376-1.2,2.092-.745.747.476.81,1.247.268,2.094-.059.094-.119.18-.167.241m-.22-.689c.347-.54.321-.976-.116-1.255-.367-.234-.772-.131-1.2.459l1.3.828Z" transform="translate(-37.05 -29.714)" fill="#eff2f4"/>
            <path id="Trazado_17973" data-name="Trazado 17973" d="M347.046,280.063l-.426-.273.2-.412a1.1,1.1,0,0,1-1.083-.063c-.674-.427-.681-1.238-.129-2.1.536-.845,1.337-1.2,2.017-.77a1.185,1.185,0,0,1,.528.819l.926-1.451.448.367Zm-.019-1.039.861-1.356a.933.933,0,0,0-.406-.77c-.416-.267-.9-.084-1.354.639s-.443,1.207-.046,1.461a.949.949,0,0,0,.945.026" transform="translate(-37.401 -29.883)" fill="#eff2f4"/>
            <path id="Trazado_17974" data-name="Trazado 17974" d="M351.369,277.406a.4.4,0,0,1-.678-.432.4.4,0,0,1,.678.432m-2.978,3.4,1.765-2.768.482.308-1.765,2.77Z" transform="translate(-37.746 -29.988)" fill="#eff2f4"/>
            <path id="Trazado_17975" data-name="Trazado 17975" d="M350.826,282.5a.83.83,0,0,1-.243-1.269l1.064-1.666-.482-.31.237-.374.483.309.4-.625.519.251-.436.682.658.419-.288.34-.606-.386-1.052,1.652c-.178.278-.173.465.07.618a.778.778,0,0,0,.443.114l-.027.449a1.252,1.252,0,0,1-.74-.2" transform="translate(-37.963 -30.181)" fill="#eff2f4"/>
            <path id="Trazado_17976" data-name="Trazado 17976" d="M358.214,282.465l-.476.144a1.265,1.265,0,0,0-.528-.712c-.548-.348-1.239-.272-1.936.821-.665,1.045-.492,1.733.07,2.094a1.451,1.451,0,0,0,.963.183l.048.48a1.666,1.666,0,0,1-1.294-.253c-.877-.561-1.095-1.623-.317-2.841s1.879-1.436,2.7-.911a1.688,1.688,0,0,1,.774,1" transform="translate(-38.382 -30.466)" fill="#eff2f4"/>
            <path id="Trazado_17977" data-name="Trazado 17977" d="M359.321,287.548l-.325.267a.665.665,0,0,1-.277-.76,1.112,1.112,0,0,1-1.089-.111.955.955,0,0,1-.35-1.4c.38-.594,1.031-.63,1.8-.136l.426.272.128-.206c.257-.4.154-.671-.228-.915a3.013,3.013,0,0,0-.84-.329l.1-.43a3.247,3.247,0,0,1,1.075.423,1,1,0,0,1,.388,1.537l-.806,1.267a.387.387,0,0,0-.008.52m-.424-.913.4-.634-.36-.232q-.765-.488-1.129.078a.522.522,0,0,0,.159.806.849.849,0,0,0,.926-.019" transform="translate(-38.69 -30.748)" fill="#eff2f4"/>
            <path id="Trazado_17978" data-name="Trazado 17978" d="M363.513,286.661l-.39.414a1.115,1.115,0,0,0-.224-.184c-.346-.221-.7-.1-1.157.353l-1.008,1.583-.483-.308,1.765-2.768.417.264-.312.591a.933.933,0,0,1,1.139-.15,1.281,1.281,0,0,1,.253.205" transform="translate(-39.031 -30.959)" fill="#eff2f4"/>
            <path id="Trazado_17979" data-name="Trazado 17979" d="M364.649,291.287l-.427-.272.2-.412a1.114,1.114,0,0,1-1.086-.064c-.673-.428-.681-1.237-.13-2.1.539-.843,1.34-1.2,2.019-.767a1.19,1.19,0,0,1,.529.817l.924-1.45.448.366Zm-.017-1.036.861-1.356a.944.944,0,0,0-.411-.774c-.413-.265-.892-.082-1.351.638s-.447,1.211-.045,1.462a.948.948,0,0,0,.946.029" transform="translate(-39.308 -31.099)" fill="#eff2f4"/>
            <rect id="Rectángulo_8402" data-name="Rectángulo 8402" width="4.142" height="23.406" transform="translate(284.922 254.508) rotate(-57.487)" fill="#cadfea"/>
            <rect id="Rectángulo_8403" data-name="Rectángulo 8403" width="4.141" height="9.948" transform="matrix(0.537, -0.843, 0.843, 0.537, 313.918, 272.993)" fill="#cadfea"/>
            <path id="Trazado_17980" data-name="Trazado 17980" d="M344.562,300.107l.585.371,1.317-2.065-.445-.284.074-.119a1.646,1.646,0,0,0,.579.149l.139.091-1.488,2.339.541.347-.1.152-1.3-.831Z" transform="translate(-37.32 -32.288)" fill="#eff2f4"/>
            <path id="Trazado_17981" data-name="Trazado 17981" d="M346.443,301.366c1.346-.309,2.052-.513,2.327-.947a.592.592,0,0,0-.19-.9.922.922,0,0,0-.788-.045l-.044-.182a1.121,1.121,0,0,1,.943.087.769.769,0,0,1,.256,1.146c-.317.495-1.07.681-2.228.973.141.081.294.16.43.247l.852.541-.1.159-1.528-.976Z" transform="translate(-37.527 -32.42)" fill="#eff2f4"/>
            <path id="Trazado_17982" data-name="Trazado 17982" d="M348.811,302.421a1.027,1.027,0,0,0,.486.759.64.64,0,0,0,.931-.179c.219-.342.117-.735-.5-1.13l.1-.153c.573.367.933.255,1.125-.044a.542.542,0,0,0-.21-.786.95.95,0,0,0-.747-.089l-.026-.182a1.115,1.115,0,0,1,.868.124.722.722,0,0,1,.3,1.036.749.749,0,0,1-.868.313l-.012.013a.788.788,0,0,1,.155,1.008.833.833,0,0,1-1.212.222,1.231,1.231,0,0,1-.568-.856Z" transform="translate(-37.772 -32.566)" fill="#eff2f4"/>
            <rect id="Rectángulo_8404" data-name="Rectángulo 8404" width="36.407" height="46.068" transform="translate(9.01 172.903) rotate(-16.312)" fill="#fefefe"/>
            <path id="Trazado_17983" data-name="Trazado 17983" d="M52.268,205.984a.267.267,0,0,1-.075-.524l.6-.175-.176-.6a.267.267,0,1,1,.514-.15l.251.856a.268.268,0,0,1-.182.332l-.856.251a.272.272,0,0,1-.075.011" transform="translate(-5.634 -22.139)" fill="#c4c4c4"/>
            <path id="Trazado_17984" data-name="Trazado 17984" d="M22.063,214.058a.267.267,0,0,1-.075-.524l1.683-.492a.267.267,0,0,1,.15.514l-1.683.493a.322.322,0,0,1-.076.01m3.367-.984a.268.268,0,0,1-.076-.524l1.683-.493a.268.268,0,0,1,.151.514l-1.683.493a.271.271,0,0,1-.075.011m3.366-.986a.267.267,0,0,1-.075-.523l1.683-.493a.268.268,0,0,1,.151.514l-1.683.493a.281.281,0,0,1-.076.01m3.367-.984a.268.268,0,0,1-.076-.524l1.683-.493a.268.268,0,1,1,.151.514l-1.683.493a.271.271,0,0,1-.075.011m3.366-.986a.267.267,0,0,1-.075-.523l1.683-.493a.268.268,0,0,1,.151.514l-1.683.493a.281.281,0,0,1-.076.01m3.367-.984a.268.268,0,0,1-.076-.524l1.683-.493a.268.268,0,1,1,.151.514l-1.683.492a.272.272,0,0,1-.075.011m3.367-.986a.267.267,0,0,1-.076-.523l1.683-.493a.268.268,0,0,1,.151.514l-1.683.493a.275.275,0,0,1-.075.01m3.366-.984a.267.267,0,0,1-.075-.524l1.683-.493a.268.268,0,0,1,.151.514l-1.683.492a.271.271,0,0,1-.075.011" transform="translate(-2.361 -22.333)" fill="#c4c4c4"/>
            <path id="Trazado_17985" data-name="Trazado 17985" d="M19.185,215.685a.279.279,0,0,1-.128-.032.271.271,0,0,1-.128-.16l-.251-.856a.267.267,0,1,1,.514-.15l.176.6.6-.176a.268.268,0,1,1,.151.514l-.856.251a.267.267,0,0,1-.075.011" transform="translate(-2.022 -23.217)" fill="#c4c4c4"/>
            <path id="Trazado_17986" data-name="Trazado 17986" d="M17.911,211.334a.268.268,0,0,1-.257-.193l-.519-1.773a.267.267,0,1,1,.514-.15l.519,1.773a.268.268,0,0,1-.181.332.283.283,0,0,1-.076.011m-1.038-3.547a.268.268,0,0,1-.257-.193l-.519-1.773a.267.267,0,1,1,.514-.15l.519,1.773a.268.268,0,0,1-.181.332.283.283,0,0,1-.076.011m-1.038-3.546a.268.268,0,0,1-.257-.193l-.519-1.773a.267.267,0,1,1,.514-.15l.519,1.773a.268.268,0,0,1-.181.332.283.283,0,0,1-.076.011M14.8,200.694a.267.267,0,0,1-.257-.193l-.519-1.773a.267.267,0,1,1,.514-.15l.519,1.773a.268.268,0,0,1-.182.332.272.272,0,0,1-.075.011" transform="translate(-1.518 -21.494)" fill="#c4c4c4"/>
            <path id="Trazado_17987" data-name="Trazado 17987" d="M13.666,196.8a.267.267,0,0,1-.257-.193l-.251-.856a.268.268,0,0,1,.182-.332l.856-.251a.268.268,0,0,1,.151.514l-.6.175.176.6a.268.268,0,0,1-.257.342" transform="translate(-1.425 -21.144)" fill="#c4c4c4"/>
            <path id="Trazado_17988" data-name="Trazado 17988" d="M16.264,194.24a.267.267,0,0,1-.075-.524l1.683-.492a.267.267,0,1,1,.15.514l-1.683.493a.321.321,0,0,1-.076.01m3.367-.984a.267.267,0,0,1-.075-.524l1.683-.493a.268.268,0,1,1,.151.514l-1.683.493a.283.283,0,0,1-.076.011M23,192.27a.267.267,0,0,1-.076-.523l1.683-.493a.268.268,0,0,1,.151.514l-1.683.493a.274.274,0,0,1-.075.01m3.366-.984a.268.268,0,0,1-.075-.524l1.683-.493a.268.268,0,0,1,.151.514l-1.683.493a.278.278,0,0,1-.076.011m3.367-.986a.267.267,0,0,1-.076-.523l1.683-.493a.268.268,0,1,1,.151.514l-1.683.493a.27.27,0,0,1-.075.01m3.367-.984a.268.268,0,0,1-.076-.524L34.7,188.3a.268.268,0,0,1,.151.514l-1.683.492a.272.272,0,0,1-.075.011m3.366-.986a.267.267,0,0,1-.075-.523l1.683-.493a.268.268,0,1,1,.151.514l-1.683.493a.281.281,0,0,1-.076.01m3.367-.984a.267.267,0,0,1-.075-.524l1.683-.493a.268.268,0,1,1,.151.514l-1.683.492a.272.272,0,0,1-.075.011" transform="translate(-1.733 -20.186)" fill="#c4c4c4"/>
            <path id="Trazado_17989" data-name="Trazado 17989" d="M47.575,186.874a.267.267,0,0,1-.257-.193l-.175-.6-.6.177a.268.268,0,0,1-.151-.514l.856-.251a.277.277,0,0,1,.2.022.269.269,0,0,1,.128.16l.251.856a.268.268,0,0,1-.182.332.272.272,0,0,1-.075.011" transform="translate(-5.006 -20.096)" fill="#c4c4c4"/>
            <path id="Trazado_17990" data-name="Trazado 17990" d="M51.923,201.38a.268.268,0,0,1-.257-.193l-.519-1.773a.267.267,0,1,1,.514-.15l.519,1.773a.268.268,0,0,1-.181.332.282.282,0,0,1-.076.011m-1.037-3.547a.267.267,0,0,1-.257-.193l-.519-1.773a.267.267,0,0,1,.181-.332.27.27,0,0,1,.333.182l.519,1.773a.268.268,0,0,1-.182.332.277.277,0,0,1-.075.011m-1.038-3.546a.269.269,0,0,1-.258-.193l-.519-1.773a.268.268,0,0,1,.514-.15l.519,1.773a.268.268,0,0,1-.182.332.276.276,0,0,1-.075.011M48.81,190.74a.267.267,0,0,1-.257-.193l-.519-1.773a.268.268,0,0,1,.181-.332.27.27,0,0,1,.333.182l.519,1.773a.268.268,0,0,1-.182.332.271.271,0,0,1-.075.011" transform="translate(-5.203 -20.415)" fill="#c4c4c4"/>
            <path id="Trazado_17991" data-name="Trazado 17991" d="M59.156,229.524a.268.268,0,0,1-.075-.524l.6-.175-.176-.6a.267.267,0,1,1,.514-.15l.251.856a.268.268,0,0,1-.182.332l-.856.251a.271.271,0,0,1-.075.011" transform="translate(-6.38 -24.69)" fill="#c4c4c4"/>
            <path id="Trazado_17992" data-name="Trazado 17992" d="M28.952,237.6a.267.267,0,0,1-.075-.524l1.683-.492a.267.267,0,0,1,.15.514l-1.683.493a.322.322,0,0,1-.076.01m3.367-.984a.268.268,0,0,1-.076-.524l1.683-.493a.268.268,0,0,1,.151.514l-1.683.493a.272.272,0,0,1-.075.011m3.366-.986a.267.267,0,0,1-.075-.523l1.683-.493a.268.268,0,0,1,.151.514l-1.683.493a.281.281,0,0,1-.076.01m3.367-.984a.268.268,0,0,1-.076-.524l1.683-.493a.268.268,0,1,1,.151.514l-1.683.493a.272.272,0,0,1-.075.011m3.366-.986a.267.267,0,0,1-.075-.523l1.683-.493a.268.268,0,0,1,.151.514l-1.683.493a.281.281,0,0,1-.076.01m3.367-.984a.268.268,0,0,1-.076-.524l1.683-.493a.268.268,0,0,1,.151.514l-1.683.492a.271.271,0,0,1-.075.011m3.367-.986a.267.267,0,0,1-.076-.523l1.683-.493a.268.268,0,0,1,.151.514l-1.683.493a.275.275,0,0,1-.075.01m3.366-.984a.267.267,0,0,1-.075-.524l1.683-.493a.268.268,0,1,1,.151.514l-1.683.492a.272.272,0,0,1-.075.011" transform="translate(-3.108 -24.884)" fill="#c4c4c4"/>
            <path id="Trazado_17993" data-name="Trazado 17993" d="M26.074,239.225a.26.26,0,0,1-.128-.033.266.266,0,0,1-.128-.16l-.251-.856a.267.267,0,1,1,.514-.15l.176.6.6-.176a.268.268,0,1,1,.151.514l-.856.251a.267.267,0,0,1-.075.011" transform="translate(-2.769 -25.768)" fill="#c4c4c4"/>
            <path id="Trazado_17994" data-name="Trazado 17994" d="M24.8,234.874a.268.268,0,0,1-.257-.193l-.519-1.773a.267.267,0,1,1,.514-.15l.519,1.773a.268.268,0,0,1-.181.332.282.282,0,0,1-.076.011m-1.037-3.547a.267.267,0,0,1-.257-.193l-.519-1.773a.267.267,0,1,1,.514-.15l.519,1.773a.268.268,0,0,1-.182.332.277.277,0,0,1-.075.011m-1.038-3.546a.269.269,0,0,1-.258-.193l-.519-1.774a.268.268,0,0,1,.514-.15l.519,1.773a.268.268,0,0,1-.182.332.276.276,0,0,1-.075.011m-1.038-3.546a.267.267,0,0,1-.257-.193l-.519-1.773a.267.267,0,1,1,.514-.15l.519,1.774a.268.268,0,0,1-.182.332.271.271,0,0,1-.075.011" transform="translate(-2.264 -24.044)" fill="#c4c4c4"/>
            <path id="Trazado_17995" data-name="Trazado 17995" d="M20.556,220.338a.267.267,0,0,1-.257-.193l-.251-.856a.268.268,0,0,1,.182-.332l.856-.251a.268.268,0,0,1,.151.514l-.6.175.176.6a.268.268,0,0,1-.182.332.271.271,0,0,1-.075.011" transform="translate(-2.171 -23.694)" fill="#c4c4c4"/>
            <path id="Trazado_17996" data-name="Trazado 17996" d="M23.153,217.781a.267.267,0,0,1-.075-.524l1.683-.492a.267.267,0,1,1,.15.514l-1.683.493a.322.322,0,0,1-.076.01m3.367-.984a.268.268,0,0,1-.076-.524l1.683-.493a.268.268,0,0,1,.151.514l-1.683.493a.272.272,0,0,1-.075.011m3.367-.986a.267.267,0,0,1-.076-.523l1.683-.493a.268.268,0,0,1,.151.514l-1.683.493a.274.274,0,0,1-.075.01m3.366-.984a.268.268,0,0,1-.076-.524l1.683-.493a.268.268,0,1,1,.151.514l-1.683.493a.272.272,0,0,1-.075.011m3.366-.986a.267.267,0,0,1-.075-.523l1.683-.493a.268.268,0,0,1,.151.514l-1.683.493a.281.281,0,0,1-.076.01m3.367-.984a.268.268,0,0,1-.076-.524l1.683-.493a.268.268,0,0,1,.151.514l-1.683.492a.271.271,0,0,1-.075.011m3.367-.986a.267.267,0,0,1-.076-.523l1.683-.493a.268.268,0,0,1,.151.514l-1.683.493a.274.274,0,0,1-.075.01m3.366-.984a.267.267,0,0,1-.075-.524l1.683-.493a.268.268,0,1,1,.151.514l-1.683.492a.271.271,0,0,1-.075.011" transform="translate(-2.479 -22.737)" fill="#c4c4c4"/>
            <path id="Trazado_17997" data-name="Trazado 17997" d="M54.463,210.415a.267.267,0,0,1-.257-.193l-.175-.6-.6.177a.268.268,0,0,1-.151-.514l.856-.251a.277.277,0,0,1,.2.022.269.269,0,0,1,.128.16l.251.856a.268.268,0,0,1-.182.332.272.272,0,0,1-.075.011" transform="translate(-5.752 -22.647)" fill="#c4c4c4"/>
            <path id="Trazado_17998" data-name="Trazado 17998" d="M58.811,224.921a.268.268,0,0,1-.257-.193l-.519-1.773a.267.267,0,1,1,.514-.15l.519,1.773a.268.268,0,0,1-.181.332.282.282,0,0,1-.076.011m-1.037-3.547a.268.268,0,0,1-.257-.193L57,219.409a.267.267,0,0,1,.181-.332.27.27,0,0,1,.333.182l.519,1.773a.268.268,0,0,1-.182.332.277.277,0,0,1-.075.011m-1.038-3.546a.269.269,0,0,1-.258-.193l-.519-1.773a.268.268,0,0,1,.514-.15l.519,1.774a.268.268,0,0,1-.182.332.275.275,0,0,1-.075.011M55.7,214.281a.267.267,0,0,1-.257-.193l-.519-1.773a.267.267,0,1,1,.514-.15l.519,1.773a.268.268,0,0,1-.182.332.271.271,0,0,1-.075.011" transform="translate(-5.949 -22.966)" fill="#c4c4c4"/>
            <path id="Trazado_17999" data-name="Trazado 17999" d="M21.129,194.681c0-.008-1.732.44-2.759.71l1.356-2.5a.133.133,0,0,0-.03-.024c-.251-.147-1.028.4-1.539,1.344a3.966,3.966,0,0,0-.415,1.156v-.006l-.075.216c-.029.006-.046.012-.046.012l-1.29.263a.711.711,0,0,0-.1-.177,1.01,1.01,0,0,0-1.133-.27.959.959,0,0,0-.652,1.181.79.79,0,0,0,.122.221,1.016,1.016,0,0,0,1.135.268,1.088,1.088,0,0,0,.58-.478.886.886,0,0,0,.117-.407l1.1-.11-.363,1.041a.859.859,0,0,0-.424.019,1.1,1.1,0,0,0-.6.454,1.012,1.012,0,0,0,0,1.165.782.782,0,0,0,.186.169.96.96,0,0,0,1.3-.358,1.014,1.014,0,0,0,0-1.167.777.777,0,0,0-.166-.154l.572-1.18.023-.043.226-.023-.006,0a3.858,3.858,0,0,0,1.221-.133c1.034-.278,1.75-.906,1.664-1.184m-5.137,1.749a.768.768,0,0,1-.4.329.679.679,0,0,1-.76-.163.464.464,0,0,1-.07-.127.627.627,0,0,1,.452-.753.676.676,0,0,1,.759.161.44.44,0,0,1,.071.128.509.509,0,0,1-.047.424m1.324,1.953a.63.63,0,0,1-.839.266.434.434,0,0,1-.107-.1.68.68,0,0,1,.018-.777.764.764,0,0,1,.415-.315.494.494,0,0,1,.424.052.475.475,0,0,1,.109.1.68.68,0,0,1-.019.775" transform="translate(-1.56 -20.893)" fill="#afafaf"/>
            <path id="Trazado_18000" data-name="Trazado 18000" d="M46.346,210.134c0,.008,1.456,1.036,2.326,1.649l-2.786.58a.1.1,0,0,0,0,.04c.05.287.971.523,2.018.3a3.908,3.908,0,0,0,1.151-.432l0,0,.213-.081.038.029,1.035.813a.726.726,0,0,0-.07.194,1.013,1.013,0,0,0,.529,1.04.961.961,0,0,0,1.322-.267.829.829,0,0,0,.089-.236,1.013,1.013,0,0,0-.528-1.038,1.1,1.1,0,0,0-.74-.134.854.854,0,0,0-.387.174l-.792-.766,1.028-.4a.86.86,0,0,0,.289.309,1.082,1.082,0,0,0,.731.164,1.012,1.012,0,0,0,.891-.751.729.729,0,0,0,.01-.252.958.958,0,0,0-1.114-.759,1.013,1.013,0,0,0-.891.752.851.851,0,0,0-.012.227l-1.269.325-.047.011-.162-.158,0,0a3.939,3.939,0,0,0-.891-.845c-.88-.61-1.823-.749-1.981-.5M51,212.925a.769.769,0,0,1,.512.1.681.681,0,0,1,.367.685.473.473,0,0,1-.052.136.625.625,0,0,1-.867.141.669.669,0,0,1-.366-.682.4.4,0,0,1,.051-.136.5.5,0,0,1,.355-.239m.635-2.273a.629.629,0,0,1,.744.467.451.451,0,0,1-.006.147.674.674,0,0,1-.6.486.759.759,0,0,1-.51-.11.5.5,0,0,1-.233-.358.49.49,0,0,1,0-.144.679.679,0,0,1,.6-.488" transform="translate(-4.971 -22.754)" fill="#afafaf"/>
            <path id="Trazado_18001" data-name="Trazado 18001" d="M22.132,197.953a3.18,3.18,0,0,1,1.439-.2l.231.789a7.6,7.6,0,0,0-1.091.223c-.439.128-.627.162-.316,1.226.251.858.4,1.006.93.852.547-.16,1.046-.357,1.046-.357l.231.788a3.158,3.158,0,0,1-1.33.571c-.971.268-1.516-.282-1.892-1.568-.358-1.222-.287-2.025.753-2.329" transform="translate(-2.295 -21.424)" fill="#ff4140"/>
            <path id="Trazado_18002" data-name="Trazado 18002" d="M25.638,196.948c.9-.265,1.634-.291,2.158,1.5.494,1.687-.084,2.094-1.025,2.37s-1.632.3-2.142-1.444c-.523-1.79.131-2.17,1.008-2.426m.868,2.961c.449-.131.514-.355.277-1.165-.259-.888-.4-1.028-.878-.889-.459.136-.533.287-.26,1.222.235.8.35.982.861.832" transform="translate(-2.648 -21.324)" fill="#ff4140"/>
            <path id="Trazado_18003" data-name="Trazado 18003" d="M27.972,196.247l1.014-.3.63,2.152c.144.491.24.786.737.641.465-.136.383-.459.245-.928l-.63-2.152,1.018-.3.63,2.152c.494,1.687-.365,1.949-1,2.134-.711.209-1.509.487-2.017-1.252Z" transform="translate(-3.031 -21.167)" fill="#ff4140"/>
            <path id="Trazado_18004" data-name="Trazado 18004" d="M31.8,195.162l1.7-.5c.532-.156,1.218-.215,1.543.893.359,1.227-.313,1.532-.8,1.635a5.907,5.907,0,0,1-.72.1l.409,1.4-1.014.3Zm2.086,1.2c.2-.058.223-.23.144-.5s-.2-.367-.383-.313l-.584.171.236.81Z" transform="translate(-3.446 -21.081)" fill="#ff4140"/>
            <path id="Trazado_18005" data-name="Trazado 18005" d="M36.9,193.653c.9-.265,1.633-.291,2.157,1.5.494,1.687-.084,2.094-1.024,2.37s-1.632.3-2.142-1.444c-.523-1.79.131-2.17,1.008-2.426m.868,2.961c.449-.131.513-.355.276-1.165-.259-.888-.4-1.028-.877-.889-.459.136-.534.287-.261,1.222.235.8.35.982.862.832" transform="translate(-3.868 -20.967)" fill="#ff4140"/>
            <path id="Trazado_18006" data-name="Trazado 18006" d="M39.23,192.948l1.024-.3,1.663,1.634-.572-1.953,1.014-.3,1.119,3.823-1.014.3-1.653-1.581.556,1.9-1.018.3Z" transform="translate(-4.25 -20.806)" fill="#ff4140"/>
            <path id="Trazado_18007" data-name="Trazado 18007" d="M21.621,206.5a.876.876,0,0,1,.627-1.146,3.365,3.365,0,0,1,1.432-.258l.2.676c-.3.051-.793.183-1.088.268-.243.07-.33.106-.274.294l.014.05c.04.138.089.207.332.136l.42-.123a.887.887,0,0,1,1.117.705l.043.147c.244.833-.172,1.14-.616,1.27a3.385,3.385,0,0,1-1.428.253l-.2-.678c.184-.034.757-.168,1.174-.29.193-.057.25-.127.21-.26l-.021-.071c-.038-.131-.1-.185-.3-.128l-.4.119a.885.885,0,0,1-1.165-.69Z" transform="translate(-2.337 -22.22)" fill="#ff4140"/>
            <path id="Trazado_18008" data-name="Trazado 18008" d="M25.271,204.521l1.027-.3,1.953,2.989-.891.26L27,206.952l-.882.259-.02.628-.893.261Zm1.337,1.743-.494-.809-.016.959Z" transform="translate(-2.731 -22.126)" fill="#ff4140"/>
            <path id="Trazado_18009" data-name="Trazado 18009" d="M27.963,203.667l1.19,2.053-.06-2.384.912-.267-.021,3.565-1.049.307-1.885-3.007Z" transform="translate(-2.931 -22.001)" fill="#ff4140"/>
            <path id="Trazado_18010" data-name="Trazado 18010" d="M30.682,203.736a.751.751,0,0,1,.611-1,14.6,14.6,0,0,1,1.486-.357l.213.729-1.2.35c-.233.068-.194.2-.16.318l.059.2,1.219-.3.21.72-1.193.394.058.2c.07.236.216.189.345.151l1.153-.336.211.725c-.443.2-1.4.492-1.4.492a.765.765,0,0,1-1.092-.478Z" transform="translate(-3.319 -21.926)" fill="#ff4140"/>
            <path id="Trazado_18011" data-name="Trazado 18011" d="M35.742,201.532A5.945,5.945,0,0,1,37.063,201a1,1,0,0,1,1.337.777,2.521,2.521,0,0,1-.51,1.744l.94-.276.228.78-2.347.686-.219-.752c.292-.349,1.141-1.579,1.043-1.914-.08-.273-.236-.263-.6-.156l-1,.294Z" transform="translate(-3.872 -21.771)" fill="#ff4140"/>
            <path id="Trazado_18012" data-name="Trazado 18012" d="M39.487,203.034l1.181-.347c.279-.08.221-.225.2-.314l-.039-.138c-.045-.148-.116-.225-.285-.175l-.2.058c-.143.042-.178.119-.137.259l-.833.243-.512-2.111,2.074-.607.227.779-1.227.359.116.462a.655.655,0,0,1,.266-.174,2.735,2.735,0,0,1,.341-.1.818.818,0,0,1,1.008.657l.123.422a.864.864,0,0,1-.66,1.116,6.991,6.991,0,0,1-1.437.3Z" transform="translate(-4.21 -21.658)" fill="#ff4140"/>
            <path id="Trazado_18013" data-name="Trazado 18013" d="M41.818,200.26a.558.558,0,0,1,.446-.786l.452-.133a.558.558,0,0,1,.791.425l.148.506a.559.559,0,0,1-.446.787l-.452.133a.557.557,0,0,1-.79-.425Zm.887.34.228-.068c.152-.044.152-.132.122-.23l-.07-.238c-.044-.148-.106-.163-.218-.131L42.54,200c-.1.029-.167.078-.122.23l.069.236c.029.1.07.175.218.133m1.721-1.758.556-.163-1.042,3.863-.588.173Zm.283,2.256a.556.556,0,0,1,.44-.787l.457-.133a.558.558,0,0,1,.79.426l.148.506a.558.558,0,0,1-.445.786l-.457.134a.554.554,0,0,1-.786-.426Zm.886.338.224-.065c.153-.044.156-.133.127-.231l-.07-.238c-.043-.148-.111-.161-.222-.13l-.225.065c-.1.03-.167.078-.121.233l.07.236c.029.1.07.175.218.13" transform="translate(-4.526 -21.525)" fill="#ff4140"/>
            <path id="Trazado_18014" data-name="Trazado 18014" d="M29.094,221.74a3.175,3.175,0,0,1,1.439-.194l.231.789a7.6,7.6,0,0,0-1.091.223c-.439.128-.628.161-.316,1.227.251.855.4,1,.93.85.548-.161,1.046-.357,1.046-.357l.231.787a3.132,3.132,0,0,1-1.33.572c-.971.268-1.518-.282-1.893-1.568-.358-1.222-.286-2.025.753-2.329" transform="translate(-3.049 -24.001)" fill="#ff4140"/>
            <path id="Trazado_18015" data-name="Trazado 18015" d="M32.6,220.734c.9-.265,1.634-.291,2.158,1.5.494,1.688-.084,2.1-1.025,2.371s-1.632.3-2.142-1.444c-.523-1.79.131-2.169,1.008-2.426m.867,2.96c.45-.131.514-.353.278-1.164-.26-.888-.4-1.028-.879-.889-.459.136-.532.288-.259,1.222.234.8.35.98.86.83" transform="translate(-3.402 -23.901)" fill="#ff4140"/>
            <path id="Trazado_18016" data-name="Trazado 18016" d="M34.934,220.034l1.014-.3.63,2.151c.144.492.24.787.737.642.465-.136.383-.459.244-.928l-.63-2.152,1.019-.3.63,2.152c.494,1.687-.366,1.948-1,2.133-.709.21-1.507.488-2.016-1.251Z" transform="translate(-3.785 -23.744)" fill="#ff4140"/>
            <path id="Trazado_18017" data-name="Trazado 18017" d="M38.764,218.949l1.7-.5c.533-.157,1.22-.216,1.543.892.358,1.228-.311,1.532-.8,1.635a5.576,5.576,0,0,1-.719.1l.41,1.4-1.014.3Zm2.087,1.2c.2-.058.222-.23.144-.5s-.2-.367-.381-.313l-.585.17.237.81Z" transform="translate(-4.2 -23.659)" fill="#ff4140"/>
            <path id="Trazado_18018" data-name="Trazado 18018" d="M43.86,217.439c.9-.265,1.632-.291,2.157,1.5.494,1.688-.085,2.1-1.024,2.371s-1.633.3-2.142-1.444c-.524-1.79.131-2.169,1.008-2.426m.867,2.96c.448-.131.513-.353.276-1.164-.259-.888-.4-1.028-.878-.889-.459.136-.533.288-.26,1.222.235.8.35.981.862.83" transform="translate(-4.622 -23.544)" fill="#ff4140"/>
            <path id="Trazado_18019" data-name="Trazado 18019" d="M46.192,216.735l1.024-.3,1.665,1.634-.572-1.954,1.013-.3,1.119,3.823-1.013.3-1.654-1.581.556,1.9-1.018.3Z" transform="translate(-5.005 -23.383)" fill="#ff4140"/>
            <path id="Trazado_18020" data-name="Trazado 18020" d="M28.65,230.889a.875.875,0,0,1,.628-1.146,3.355,3.355,0,0,1,1.433-.258l.2.675c-.3.052-.793.183-1.089.269-.243.07-.33.106-.274.294l.014.049c.04.139.09.208.333.136l.419-.122a.886.886,0,0,1,1.117.705l.043.147c.244.832-.172,1.14-.614,1.271a3.387,3.387,0,0,1-1.43.251l-.2-.677c.185-.033.759-.168,1.175-.29.192-.057.25-.127.21-.26l-.021-.072c-.038-.131-.1-.185-.3-.128l-.4.119a.883.883,0,0,1-1.165-.688Z" transform="translate(-3.099 -24.863)" fill="#ff4140"/>
            <path id="Trazado_18021" data-name="Trazado 18021" d="M32.3,228.907l1.026-.3,1.953,2.988-.89.261-.362-.518-.881.259-.021.628-.89.261Zm1.337,1.743-.495-.809-.015.959Z" transform="translate(-3.493 -24.768)" fill="#ff4140"/>
            <path id="Trazado_18022" data-name="Trazado 18022" d="M34.994,228.053l1.189,2.053-.06-2.383.913-.267-.021,3.566-1.049.307-1.886-3.007Z" transform="translate(-3.692 -24.643)" fill="#ff4140"/>
            <path id="Trazado_18023" data-name="Trazado 18023" d="M37.713,228.123a.751.751,0,0,1,.611-1,14.881,14.881,0,0,1,1.486-.357l.213.729-1.2.35c-.234.068-.2.2-.16.318l.059.2,1.219-.3.21.721-1.193.393.058.2c.07.237.217.189.347.152l1.151-.336.212.725c-.444.2-1.4.492-1.4.492a.766.766,0,0,1-1.092-.478Z" transform="translate(-4.081 -24.568)" fill="#ff4140"/>
            <path id="Trazado_18024" data-name="Trazado 18024" d="M43.59,228.277l1.182-.346c.278-.081.221-.226.2-.315l-.04-.138c-.044-.148-.115-.224-.285-.175l-.2.058c-.143.042-.178.119-.137.259l-.833.243-.511-2.111,2.073-.608.228.779-1.228.36.116.461a.655.655,0,0,1,.266-.174,2.594,2.594,0,0,1,.34-.1.818.818,0,0,1,1.008.656l.123.422a.863.863,0,0,1-.66,1.116,6.924,6.924,0,0,1-1.436.3Z" transform="translate(-4.655 -24.393)" fill="#ff4140"/>
            <path id="Trazado_18025" data-name="Trazado 18025" d="M46.094,225.837a.835.835,0,0,1,.6-1.16l.735-.214a.779.779,0,0,1,1.08.616l.455,1.559a.8.8,0,0,1-.581,1.1l-.735.215a.806.806,0,0,1-1.115-.607Zm1.591,1.264.188-.055c.146-.043.245-.09.174-.333l-.35-1.2c-.061-.206-.17-.233-.292-.2l-.255.075a.225.225,0,0,0-.148.325l.35,1.2c.073.251.234.218.333.189" transform="translate(-4.988 -24.313)" fill="#ff4140"/>
            <path id="Trazado_18026" data-name="Trazado 18026" d="M49.044,224.59a.558.558,0,0,1,.446-.786l.451-.133a.558.558,0,0,1,.791.425l.148.506a.558.558,0,0,1-.446.786l-.453.133a.557.557,0,0,1-.789-.425Zm.886.34.228-.068c.152-.044.152-.132.122-.23l-.07-.237c-.044-.149-.106-.164-.218-.132l-.228.069c-.1.028-.167.078-.122.229l.07.236c.029.1.07.175.218.133m1.722-1.76.556-.162-1.042,3.864-.588.174Zm.282,2.258a.556.556,0,0,1,.441-.786l.457-.134a.557.557,0,0,1,.79.426l.148.506a.56.56,0,0,1-.446.787l-.457.133a.554.554,0,0,1-.786-.426Zm.886.338.224-.065c.153-.045.156-.133.128-.231l-.07-.238c-.043-.148-.111-.163-.223-.13l-.225.065c-.1.03-.165.078-.12.233l.07.236c.029.1.07.175.218.13" transform="translate(-5.309 -24.161)" fill="#ff4140"/>
            <path id="Trazado_18027" data-name="Trazado 18027" d="M82.909,93.292l-9.587-2.264-3.16,13.385,9.587,2.263c2.6.614,5.419-1.883,6.292-5.579s-.531-7.19-3.132-7.8" transform="translate(-7.602 -9.862)" fill="#fff"/>
            <path id="Trazado_18028" data-name="Trazado 18028" d="M70.646,97.386A27.085,27.085,0,1,1,50.509,64.8,27.085,27.085,0,0,1,70.646,97.386" transform="translate(-1.863 -6.942)" fill="#fff"/>
            <path id="Trazado_18029" data-name="Trazado 18029" d="M67.152,87.728a22.706,22.706,0,0,1-16.294,25.854c-.659.173-1.374.327-2.068.45a22.67,22.67,0,1,1,18.362-26.3" transform="translate(-2.401 -7.48)" fill="#bcbec0"/>
            <path id="Trazado_18030" data-name="Trazado 18030" d="M58.852,92.564A22.661,22.661,0,0,1,50.858,114.1c-.659.173-1.374.326-2.067.45A22.68,22.68,0,0,1,30.506,74.647c.657-.173,1.35-.323,2.043-.447a22.675,22.675,0,0,1,26.3,18.365" transform="translate(-2.401 -8.001)" fill="#bcbec0"/>
            <path id="Trazado_18031" data-name="Trazado 18031" d="M62.788,89.223a17.692,17.692,0,1,1-1.019-3.5,16.225,16.225,0,0,1,1.019,3.5" transform="translate(-3.014 -8.092)" fill="#704c30"/>
            <path id="Trazado_18032" data-name="Trazado 18032" d="M64.078,90.448a17.61,17.61,0,0,1-23.062,19.747,16.348,16.348,0,0,1-1.019-3.5A17.618,17.618,0,0,1,54.26,86.261a17.435,17.435,0,0,1,8.8.686,16.226,16.226,0,0,1,1.019,3.5" transform="translate(-4.304 -9.316)" fill="#5a3b20"/>
            <rect id="Rectángulo_8405" data-name="Rectángulo 8405" width="118.905" height="88.802" transform="translate(182.723 68.762) rotate(-14.271)" fill="#fff"/>
            <rect id="Rectángulo_8406" data-name="Rectángulo 8406" width="12.069" height="26.617" transform="translate(219.212 103.862) rotate(-14.35)" fill="#ffca00"/>
            <rect id="Rectángulo_8407" data-name="Rectángulo 8407" width="12.069" height="38.209" transform="translate(230.339 89.05) rotate(-14.363)" fill="#ff4140"/>
            <rect id="Rectángulo_8408" data-name="Rectángulo 8408" width="12.068" height="53.448" transform="translate(240.566 70.702) rotate(-14.363)" fill="#26a587"/>
            <rect id="Rectángulo_8409" data-name="Rectángulo 8409" width="12.067" height="42.562" transform="translate(257.273 77.663) rotate(-14.358)" fill="#f59905"/>
            <rect id="Rectángulo_8410" data-name="Rectángulo 8410" width="12.069" height="47.911" transform="matrix(0.969, -0.248, 0.248, 0.969, 270.761, 68.688)" fill="#2b476b"/>
            <path id="Trazado_18033" data-name="Trazado 18033" d="M306.784,56.961l-9.23,3.823,2.372,1.818a1.722,1.722,0,0,0-.408.278L288.974,73.586,270.1,64.717a1.933,1.933,0,0,0-2.5.8l-21.3,37.743a1.927,1.927,0,1,0,3.357,1.895l20.42-36.183,18.494,8.687a1.932,1.932,0,0,0,2.2-.391l11.5-11.679a1.855,1.855,0,0,0,.454-.843l2.763,2.119Z" transform="translate(-26.658 -6.171)" fill="#ff4140"/>
            <path id="Trazado_18034" data-name="Trazado 18034" d="M329.389,128.848l-85.311,21.834a1.927,1.927,0,0,1-2.344-1.388L226.117,88.271a1.927,1.927,0,1,1,3.734-.957l15.141,59.153,83.44-21.356a1.929,1.929,0,0,1,.957,3.737" transform="translate(-24.492 -9.303)" fill="#16405e"/>
            <path id="Trazado_18035" data-name="Trazado 18035" d="M64.426,283.658s-1.172-4.481-6.41-1.265S46.9,304.646,46.9,304.646s7.96,4.36,8.523,4.4,9-25.385,9-25.385" transform="translate(-5.081 -30.47)" fill="#e7b088"/>
            <path id="Trazado_18036" data-name="Trazado 18036" d="M69.918,309.238A3.217,3.217,0,0,1,69,307.77a9.519,9.519,0,0,1,.243-.976c1.065-3.437,4.73-5.339,6.07-5.93a2.369,2.369,0,0,1-.265,2.873l-4.686,5.086c-.143.137-.3.279-.443.415" transform="translate(-7.476 -32.597)" fill="#ead4c1"/>
            <rect id="Rectángulo_8411" data-name="Rectángulo 8411" width="111.926" height="86.159" transform="translate(25.449 220.845) rotate(-16.151)" fill="#fff"/>
            <path id="Trazado_18037" data-name="Trazado 18037" d="M97.129,275.965,86.239,309.946a35.525,35.525,0,0,1-15.534-10,35.935,35.935,0,0,1-8.446-16.425,35.674,35.674,0,0,1,10.888-33.983Z" transform="translate(-6.657 -27.036)" fill="#26a587"/>
            <path id="Trazado_18038" data-name="Trazado 18038" d="M100.143,279.176l7.555,34.87a35.43,35.43,0,0,1-18.446-.889Z" transform="translate(-9.67 -30.247)" fill="#ff4140"/>
            <path id="Trazado_18039" data-name="Trazado 18039" d="M101.466,279.176l7.552,34.87a35.839,35.839,0,0,0,16.423-8.448Z" transform="translate(-10.993 -30.247)" fill="#ff4140"/>
            <path id="Trazado_18040" data-name="Trazado 18040" d="M135.45,290.065a35.555,35.555,0,0,1-10,15.536l-23.981-26.425Z" transform="translate(-10.993 -30.247)" fill="#ff4140"/>
            <path id="Trazado_18041" data-name="Trazado 18041" d="M91,239.967a35.981,35.981,0,0,0-16.428,8.445l23.982,26.427.207-.19,10.388-33.879a35.469,35.469,0,0,0-18.149-.8" transform="translate(-8.079 -25.911)" fill="#f59905"/>
            <path id="Trazado_18042" data-name="Trazado 18042" d="M102.214,278.408l-.351.6-.4.089Z" transform="translate(-10.993 -30.164)" fill="#f62f48"/>
            <path id="Trazado_18043" data-name="Trazado 18043" d="M136.343,267.478a35.572,35.572,0,0,1-.9,18.453l-33.975-10.894.4-.1.358-.587-.557.494,10.385-33.879a2.451,2.451,0,0,1,.315.091,35.526,35.526,0,0,1,7.248,3.247,36.355,36.355,0,0,1,8.275,6.748,35.961,35.961,0,0,1,8.456,16.423" transform="translate(-10.993 -26.107)" fill="#ff4140"/>
            <path id="Trazado_18044" data-name="Trazado 18044" d="M32.1,150.339a13.838,13.838,0,0,0,7.876,17.921l10.045-25.8A13.837,13.837,0,0,0,32.1,150.339" transform="translate(-3.375 -15.332)" fill="#f59905"/>
            <path id="Trazado_18045" data-name="Trazado 18045" d="M47.215,141.368a13.843,13.843,0,1,0,7.876,17.921,13.845,13.845,0,0,0-7.876-17.921" transform="translate(-3.071 -15.214)" fill="#ffca00"/>
            <path id="Trazado_18046" data-name="Trazado 18046" d="M31.745,150.375a11.515,11.515,0,0,0,6.554,14.9l8.351-21.458a11.513,11.513,0,0,0-14.9,6.553" transform="translate(-3.354 -15.497)" fill="#f59905"/>
            <path id="Trazado_18047" data-name="Trazado 18047" d="M47.542,143.919l-8.351,21.457a11.512,11.512,0,1,0,8.351-21.457" transform="translate(-4.246 -15.593)" fill="#f59207"/>
            <path id="Trazado_18048" data-name="Trazado 18048" d="M39.939,150.049c.992-2.546,2.885-2.766,4.864-2.061l.592-1.525,1.7.659-.6,1.541a13.792,13.792,0,0,1,2.885,1.732l-.888,2.291c-1.04-.529-2.911-1.361-3.787-1.7-1.036-.4-1.568-.523-1.954.468l-.168.43c-.3.77-.1,1.21.838,1.574l1.427.556c2.646,1.029,2.348,3.4,1.794,4.825l-.287.742c-1.181,3.028-3.241,3.008-5.01,2.317l-.572,1.469-1.693-.66.572-1.484a9.632,9.632,0,0,1-2.9-1.757l.879-2.253c.683.33,2.392,1.132,4.046,1.776.745.289,1.425.353,1.721-.422l.2-.521c.25-.637.193-1.1-.682-1.44l-1.369-.532c-3.188-1.243-2.409-3.945-2.029-4.926Z" transform="translate(-3.981 -15.868)" fill="#ffca00"/>
            <g id="Grupo_13116" data-name="Grupo 13116" transform="translate(25.275 125.325)" opacity="0.3" style="mix-blend-mode: screen;isolation: isolate">
              <g id="Grupo_13115" data-name="Grupo 13115">
                <g id="Grupo_13114" data-name="Grupo 13114" clip-path="url(#clip-path-6)">
                  <path id="Trazado_18049" data-name="Trazado 18049" d="M44.073,140.553,31,146.3a13.919,13.919,0,0,0-1.583,2.935L47.3,141.373a13.7,13.7,0,0,0-3.228-.82" transform="translate(-28.462 -140.553)" fill="#ffca00"/>
                  <path id="Trazado_18050" data-name="Trazado 18050" d="M51.392,144.347l-23.045,10.13a13.914,13.914,0,0,0,1.922,7.254L55.435,150.67a13.862,13.862,0,0,0-4.044-6.323" transform="translate(-28.346 -140.964)" fill="#ffca00"/>
                </g>
              </g>
            </g>
            <path id="Trazado_18051" data-name="Trazado 18051" d="M206.027,48.558a13.337,13.337,0,0,0,18.218,4.908L210.934,30.34a13.338,13.338,0,0,0-4.907,18.218" transform="translate(-22.129 -3.287)" fill="#f59905"/>
            <path id="Trazado_18052" data-name="Trazado 18052" d="M208.417,31.572a13.342,13.342,0,1,0,18.219,4.908,13.344,13.344,0,0,0-18.219-4.908" transform="translate(-21.856 -3.228)" fill="#ffca00"/>
            <path id="Trazado_18053" data-name="Trazado 18053" d="M205.73,49.127a11.1,11.1,0,0,0,15.153,4.079L209.809,33.973a11.1,11.1,0,0,0-4.079,15.154" transform="translate(-22.129 -3.681)" fill="#f59905"/>
            <path id="Trazado_18054" data-name="Trazado 18054" d="M210.485,33.793l11.073,19.233a11.1,11.1,0,1,0-11.073-19.233" transform="translate(-22.805 -3.501)" fill="#f59207"/>
            <path id="Trazado_18055" data-name="Trazado 18055" d="M210.373,43.253c-1.313-2.284-.334-3.838,1.391-4.9l-.788-1.365,1.52-.877.793,1.384a13.288,13.288,0,0,1,3.043-1.122l1.184,2.051c-1.025.462-2.78,1.365-3.566,1.817-.928.535-1.339.862-.827,1.75l.221.385c.4.689.847.809,1.69.321l1.278-.736c2.371-1.366,3.976.293,4.707,1.568l.386.663c1.56,2.716.3,4.251-1.287,5.163l.757,1.316-1.518.874-.769-1.326a9.294,9.294,0,0,1-3.074,1.119l-1.161-2.021c.66-.313,2.294-1.113,3.779-1.966.666-.386,1.125-.857.722-1.548l-.268-.467c-.327-.572-.709-.809-1.494-.358l-1.226.706c-2.86,1.644-4.419-.572-4.925-1.451Z" transform="translate(-22.727 -3.913)" fill="#ffca00"/>
            <g id="Grupo_13119" data-name="Grupo 13119" transform="translate(180.391 26.563)" opacity="0.3" style="mix-blend-mode: screen;isolation: isolate">
              <g id="Grupo_13118" data-name="Grupo 13118">
                <g id="Grupo_13117" data-name="Grupo 13117" clip-path="url(#clip-path-7)">
                  <path id="Trazado_18056" data-name="Trazado 18056" d="M205.889,33.737l-3.58,13.29a13.436,13.436,0,0,0,1.251,2.961l4.9-18.181a13.224,13.224,0,0,0-2.566,1.93" transform="translate(-202.31 -30.009)" fill="#ffca00"/>
                  <path id="Trazado_18057" data-name="Trazado 18057" d="M213.444,29.975,207.135,53.4a13.387,13.387,0,0,0,6.609,2.936l6.892-25.583a13.372,13.372,0,0,0-7.191-.783" transform="translate(-202.833 -29.791)" fill="#ffca00"/>
                </g>
              </g>
            </g>
            <path id="Trazado_18058" data-name="Trazado 18058" d="M355.341,222.843l-65.423,44.807a3.3,3.3,0,0,1-4.6-.876L250.331,215.69a4.244,4.244,0,0,1,1.149-5.909l12.763-8.529,5.008-3.333,45.478-30.337a7.469,7.469,0,0,1,10.319,1.986l31.622,46.172a5.112,5.112,0,0,1-1.329,7.1" transform="translate(-27.041 -18.019)" fill="#d8a932"/>
            <path id="Trazado_18059" data-name="Trazado 18059" d="M365.622,221.29l-47.391,25.667-25.789,13.97-1.32.713-6.865-12.667-22.1-40.784-1.366-2.518,24.167-13.1,46.875-25.409,3.447-1.859,20.4,37.654,7.256,13.376Z" transform="translate(-28.255 -17.91)" fill="#fff"/>
            <path id="Trazado_18060" data-name="Trazado 18060" d="M363.435,216.006l-45.4,30.075-25.909,15.073-34.253-50.016L284.646,192.8l46.875-25.409,23.847,35.795Z" transform="translate(-27.939 -18.136)" fill="#bcbec0"/>
            <rect id="Rectángulo_8414" data-name="Rectángulo 8414" width="84.728" height="63.671" transform="matrix(0.825, -0.565, 0.565, 0.825, 229.281, 192.727)" fill="#fff"/>
            <path id="Trazado_18061" data-name="Trazado 18061" d="M301.386,262.667l18.262-12.509a8.572,8.572,0,0,0,3.559-8.783l38.055-26.063-34.91-50.973a2.489,2.489,0,0,0-1.525-1.025L292.661,264.587c2.716,1.337,5.97-.036,8.725-1.921" transform="translate(-31.708 -17.694)" fill="#ffca00"/>
            <path id="Trazado_18062" data-name="Trazado 18062" d="M288.093,264.582a4.119,4.119,0,0,1-.531-.255l-37.107-54.183,67.835-46.458a2.478,2.478,0,0,1,1.963-.369L319.4,166Z" transform="translate(-27.135 -17.687)" fill="#f59905"/>
            <rect id="Rectángulo_8415" data-name="Rectángulo 8415" width="61.727" height="7.94" transform="translate(258.925 227.587) rotate(-34.406)" fill="#fff"/>
            <rect id="Rectángulo_8416" data-name="Rectángulo 8416" width="19.934" height="3.324" transform="matrix(0.825, -0.565, 0.565, 0.825, 280.85, 215.369)" fill="#c2c4c4"/>
            <rect id="Rectángulo_8417" data-name="Rectángulo 8417" width="18.448" height="3.325" transform="translate(261.702 228.483) rotate(-34.408)" fill="#c2c4c4"/>
            <rect id="Rectángulo_8418" data-name="Rectángulo 8418" width="10.116" height="3.323" transform="matrix(0.825, -0.565, 0.565, 0.825, 300.243, 202.089)" fill="#c2c4c4"/>
            <rect id="Rectángulo_8419" data-name="Rectángulo 8419" width="120.669" height="148.821" transform="translate(120.23 104.065)" fill="#203145"/>
            <rect id="Rectángulo_8420" data-name="Rectángulo 8420" width="106.095" height="134.241" transform="translate(128.925 111.353)" fill="#c4c4c4"/>
            <rect id="Rectángulo_8421" data-name="Rectángulo 8421" width="106.087" height="134.241" transform="translate(125.054 111.353)" fill="#fefefe"/>
            <path id="Trazado_18063" data-name="Trazado 18063" d="M217.061,116.434h-9.637v-.26a12.88,12.88,0,0,0-25.759,0v.26h-9.021a10,10,0,0,0-9.98,9.559h64.374a10,10,0,0,0-9.977-9.559m-26.971-4.173a4.465,4.465,0,1,1,6.008,4.173H193a4.45,4.45,0,0,1-2.909-4.173" transform="translate(-17.624 -11.193)" fill="#ffca00"/>
            <rect id="Rectángulo_8422" data-name="Rectángulo 8422" width="4.739" height="67.207" transform="translate(131.698 171.352)" fill="#e1e1e1"/>
            <rect id="Rectángulo_8423" data-name="Rectángulo 8423" width="4.736" height="67.213" transform="translate(159.198 169.912)" fill="#e1e1e1"/>
            <rect id="Rectángulo_8424" data-name="Rectángulo 8424" width="4.742" height="67.213" transform="translate(190.975 169.912)" fill="#e1e1e1"/>
            <rect id="Rectángulo_8425" data-name="Rectángulo 8425" width="4.743" height="67.213" transform="translate(219.847 169.912)" fill="#e1e1e1"/>
            <rect id="Rectángulo_8426" data-name="Rectángulo 8426" width="92.893" height="4.741" transform="translate(131.697 168.066)" fill="#e1e1e1"/>
            <rect id="Rectángulo_8427" data-name="Rectángulo 8427" width="15.942" height="9.887" transform="translate(139.716 177.216)" fill="#c4c4c4"/>
            <rect id="Rectángulo_8428" data-name="Rectángulo 8428" width="15.941" height="9.887" transform="translate(169.259 177.216)" fill="#c4c4c4"/>
            <rect id="Rectángulo_8429" data-name="Rectángulo 8429" width="15.941" height="9.884" transform="translate(169.259 198.578)" fill="#c4c4c4"/>
            <rect id="Rectángulo_8430" data-name="Rectángulo 8430" width="92.893" height="4.743" transform="translate(131.697 189.983)" fill="#e1e1e1"/>
            <rect id="Rectángulo_8431" data-name="Rectángulo 8431" width="92.893" height="4.74" transform="translate(131.697 211.904)" fill="#e1e1e1"/>
            <rect id="Rectángulo_8432" data-name="Rectángulo 8432" width="90.976" height="4.739" transform="translate(133.614 233.82)" fill="#e1e1e1"/>
            <path id="Trazado_18064" data-name="Trazado 18064" d="M115.534,187.47a6.843,6.843,0,0,0-6.99-6.646l-22.646.032-22.656.037a6.839,6.839,0,0,0-6.966,6.666l.141,53.608a6.839,6.839,0,0,0,6.994,6.643l22.647-.032,22.653-.037a6.838,6.838,0,0,0,6.967-6.667Z" transform="translate(-6.097 -19.591)" fill="#2b476b"/>
            <path id="Trazado_18065" data-name="Trazado 18065" d="M113.552,213.79h-5.145a4.979,4.979,0,0,0-4.981,4.982v22.052a4.98,4.98,0,0,0,4.981,4.983h5.145a4.986,4.986,0,0,0,4.983-4.983V218.772a4.985,4.985,0,0,0-4.983-4.982" transform="translate(-11.206 -23.163)" fill="#c4c4c4"/>
            <path id="Rectángulo_8433" data-name="Rectángulo 8433" d="M5.587,0H9.522a5.587,5.587,0,0,1,5.587,5.587V9.521a5.586,5.586,0,0,1-5.586,5.586H5.586A5.586,5.586,0,0,1,0,9.521V5.587A5.587,5.587,0,0,1,5.587,0Z" transform="translate(54.509 190.628)" fill="#c4c4c4"/>
            <path id="Rectángulo_8434" data-name="Rectángulo 8434" d="M5.588,0H9.522a5.587,5.587,0,0,1,5.587,5.587V9.519a5.587,5.587,0,0,1-5.587,5.587H5.586A5.586,5.586,0,0,1,0,9.52V5.588A5.588,5.588,0,0,1,5.588,0Z" transform="translate(54.509 207.538)" fill="#c4c4c4"/>
            <path id="Trazado_18066" data-name="Trazado 18066" d="M97.279,223.916A4.98,4.98,0,0,1,92.3,228.9H87.152a4.986,4.986,0,0,1-4.983-4.982v-5.145a4.985,4.985,0,0,1,4.983-4.981H92.3a4.98,4.98,0,0,1,4.977,4.981Z" transform="translate(-8.902 -23.163)" fill="#c4c4c4"/>
            <path id="Trazado_18067" data-name="Trazado 18067" d="M97.279,242.878a4.98,4.98,0,0,1-4.977,4.983H87.152a4.986,4.986,0,0,1-4.983-4.983v-5.147a4.983,4.983,0,0,1,4.983-4.976H92.3a4.977,4.977,0,0,1,4.977,4.976Z" transform="translate(-8.902 -25.217)" fill="#c4c4c4"/>
            <path id="Trazado_18068" data-name="Trazado 18068" d="M111.4,213.79h-5.146a4.979,4.979,0,0,0-4.976,4.982v22.052a4.98,4.98,0,0,0,4.976,4.983H111.4a4.984,4.984,0,0,0,4.982-4.983V218.772a4.983,4.983,0,0,0-4.982-4.982" transform="translate(-10.973 -23.163)" fill="#fff"/>
            <path id="Rectángulo_8435" data-name="Rectángulo 8435" d="M5.587,0H9.519a5.587,5.587,0,0,1,5.587,5.587V9.521A5.586,5.586,0,0,1,9.52,15.107H5.587A5.587,5.587,0,0,1,0,9.52V5.587A5.587,5.587,0,0,1,5.587,0Z" transform="translate(52.593 190.628)" fill="#fff"/>
            <path id="Rectángulo_8436" data-name="Rectángulo 8436" d="M5.588,0H9.519a5.587,5.587,0,0,1,5.587,5.587V9.519a5.587,5.587,0,0,1-5.587,5.587H5.587A5.587,5.587,0,0,1,0,9.519V5.588A5.588,5.588,0,0,1,5.588,0Z" transform="translate(52.593 207.538)" fill="#fff"/>
            <path id="Rectángulo_8437" data-name="Rectángulo 8437" d="M5.587,0H9.515A5.587,5.587,0,0,1,15.1,5.587V9.521a5.586,5.586,0,0,1-5.586,5.586H5.583A5.583,5.583,0,0,1,0,9.524V5.587A5.587,5.587,0,0,1,5.587,0Z" transform="translate(71.353 190.628)" fill="#fff"/>
            <path id="Rectángulo_8438" data-name="Rectángulo 8438" d="M5.583,0H9.518A5.584,5.584,0,0,1,15.1,5.584V9.525a5.581,5.581,0,0,1-5.581,5.581H5.583A5.583,5.583,0,0,1,0,9.523V5.583A5.583,5.583,0,0,1,5.583,0Z" transform="translate(71.353 207.538)" fill="#fff"/>
            <path id="Trazado_18069" data-name="Trazado 18069" d="M62.016,220.111h3.263v-3.288H68.4v3.288h3.31v3.123H68.4v3.287H65.278v-3.287H62.016Z" transform="translate(-6.719 -23.491)" fill="#203145"/>
            <path id="Trazado_18070" data-name="Trazado 18070" d="M62.377,242.987l2.306-2.307-2.324-2.325,2.209-2.209,2.325,2.326,2.338-2.34,2.208,2.208-2.341,2.34L71.423,243l-2.208,2.211-2.323-2.323-2.307,2.3Z" transform="translate(-6.756 -25.584)" fill="#203145"/>
            <rect id="Rectángulo_8439" data-name="Rectángulo 8439" width="9.401" height="3.123" transform="translate(74.204 196.62)" fill="#203145"/>
            <path id="Trazado_18071" data-name="Trazado 18071" d="M104.992,227.845h8.469V230.5h-8.469Zm0,4.3h8.469V234.8h-8.469Z" transform="translate(-11.375 -24.686)" fill="#ff4140"/>
            <rect id="Rectángulo_8440" data-name="Rectángulo 8440" width="9.401" height="3.127" transform="translate(74.204 213.527)" fill="#203145"/>
            <path id="Trazado_18072" data-name="Trazado 18072" d="M89.767,236.4a1.451,1.451,0,1,0-1.453,1.455,1.451,1.451,0,0,0,1.453-1.455" transform="translate(-9.411 -25.456)" fill="#203145"/>
            <path id="Trazado_18073" data-name="Trazado 18073" d="M89.767,245.691a1.451,1.451,0,1,0-1.453,1.451,1.452,1.452,0,0,0,1.453-1.451" transform="translate(-9.411 -26.462)" fill="#203145"/>
            <path id="Trazado_18074" data-name="Trazado 18074" d="M112.8,197.209a5.05,5.05,0,0,1-5.049,5.052H65a5.054,5.054,0,0,1-5.055-5.052v-6.143A5.053,5.053,0,0,1,65,186.019h42.743a5.049,5.049,0,0,1,5.049,5.048Z" transform="translate(-6.495 -20.154)" fill="#4dc5ac"/>
            <path id="Trazado_18075" data-name="Trazado 18075" d="M90.444,198.275h3.67c.862,0,.821-.458.821-.737v-.432c0-.458-.139-.737-.668-.737h-.612c-.445,0-.612.194-.612.625H90.458l.3-6.465H97.2v2.419H93.392l-.056,1.419a2,2,0,0,1,.9-.277,8.567,8.567,0,0,1,1.057,0,2.444,2.444,0,0,1,2.336,2.725v1.307a2.576,2.576,0,0,1-2.823,2.642,20.808,20.808,0,0,1-4.366-.333Z" transform="translate(-9.799 -20.643)" fill="#fff"/>
            <path id="Trazado_18076" data-name="Trazado 18076" d="M101.976,190.5a14.184,14.184,0,0,1,4.617.292v2.058h-3.045c-1.265,0-1.265.751-1.265,1.766a4.248,4.248,0,0,1,2.127-.292c2.029,0,2.516,1.113,2.516,2.628v1.266c0,1.806-1.042,2.489-2.656,2.489h-1.918c-1.7,0-2.767-.974-2.767-5.354,0-3.685,1.153-4.659,2.391-4.852m1.419,7.786h.237c.458,0,.6-.125.6-.639v-.278c0-.6-.014-.765-.528-.765h-1.419c0,1.475.208,1.683,1.112,1.683" transform="translate(-10.789 -20.63)" fill="#fff"/>
            <path id="Trazado_18077" data-name="Trazado 18077" d="M108.584,190.53h6.688l.654,1.084-3.184,9.094h-2.864l2.753-7.759h-4.046Z" transform="translate(-11.764 -20.643)" fill="#fff"/>
            <path id="Trazado_18078" data-name="Trazado 18078" d="M112.044,188.415a5.014,5.014,0,0,0-3.5-1.436H65.8a5.063,5.063,0,0,0-5.056,5.053v6.146a5.114,5.114,0,0,0,.737,2.646,5.076,5.076,0,0,1-1.535-3.618v-6.145A5.064,5.064,0,0,1,65,186.005h42.748a5.037,5.037,0,0,1,4.3,2.41" transform="translate(-6.495 -20.152)" fill="#26a587"/>
            <g id="Grupo_13122" data-name="Grupo 13122" transform="translate(53.545 165.866)" opacity="0.5" style="mix-blend-mode: screen;isolation: isolate">
              <g id="Grupo_13121" data-name="Grupo 13121">
                <g id="Grupo_13120" data-name="Grupo 13120" clip-path="url(#clip-path-8)">
                  <path id="Trazado_18079" data-name="Trazado 18079" d="M72.1,186.02,60.051,198.074a5.038,5.038,0,0,0,1.838,3.074L77.017,186.02Z" transform="translate(-60.052 -186.02)" fill="#91dce1"/>
                  <path id="Trazado_18080" data-name="Trazado 18080" d="M83.6,186.02,67.354,202.262H87.31l16.242-16.242Z" transform="translate(-60.843 -186.02)" fill="#91dce1"/>
                </g>
              </g>
            </g>
            <path id="Trazado_18081" data-name="Trazado 18081" d="M348.5,103.823l-.368.551-1.538,2.291-.58.866c-.112.167-.42.152-.675-.031l-.278-.2-.6-.426-1.2-.857-.312-.227-.133-.095h0l-3.441-2.458-.289-.206-2.683-1.917-.436-.309a.408.408,0,0,1-.177-.514l.422-.627,1.537-2.294.179-.26a.4.4,0,0,1,.537-.034l.676.425,1.222.77,1.647,1.034,2.555,1.6,1.025.651.467.292,1.249.787.624.392.29.178c.268.17.4.446.287.613" transform="translate(-36.376 -10.508)" fill="#c4c4c4"/>
            <path id="Trazado_18082" data-name="Trazado 18082" d="M352.239,105.763l-.613.914-1.54,2.3-.82,1.225c-.1.15-.412.129-.685-.059l-.345-.231-2.369-1.589-.111-.073c-.274-.185-.414-.462-.314-.613l.068-.1.761-1.132,1.536-2.3.542-.805.07-.1c.1-.153.409-.127.682.06l.113.075,1.02.685,1.691,1.134c.276.185.418.462.312.613" transform="translate(-37.423 -11.17)" fill="#a7a9ab"/>
            <path id="Trazado_18083" data-name="Trazado 18083" d="M373.125,118.594l-1.062,1.588-1.535,2.308-1.32,1.963c-.176.259-.818.111-1.453-.325L348.02,110.466l-1.554-1.126c-.452-.32-.714-.762-.567-.992l.011-.021.25-.357.769-1.146.037-.049,1.507-2.244.037-.047.507-.786.248-.357.009-.018c.154-.218.656-.161,1.119.137.014-.005.021.012.021.012l21.885,13.9c.641.4,1.017.959.827,1.222" transform="translate(-37.471 -11.18)" fill="#203145"/>
            <path id="Trazado_18084" data-name="Trazado 18084" d="M346.439,102.1l-.517.77-1.535,2.292-.741,1.1-.312-.226-.133-.1h0l-3.441-2.458-.289-.206-.16-.115.44-.657.215-.322,1.544-2.294.416-.628.469.292,2.554,1.6,1.024.65Z" transform="translate(-36.762 -10.754)" fill="#a7a9ab"/>
            <path id="Trazado_18085" data-name="Trazado 18085" d="M346.339,101.187l-.373.557-.506.75-1.54,2.3-.259.391-.466.7-.374.552a.492.492,0,0,1-.678.021l-2.589-1.738c-.254-.169-.365-.456-.243-.634l.442-.66.664-.991,1.542-2.3.43-.643v0l.44-.655a.5.5,0,0,1,.68-.02l1.672,1.12.918.617c.251.168.361.455.241.634" transform="translate(-36.757 -10.693)" fill="#203145"/>
            <path id="Trazado_18086" data-name="Trazado 18086" d="M372.2,120.339l-1.542,2.29-23.555-15.7,1.507-2.244.037-.047Z" transform="translate(-37.606 -11.337)" fill="#2b476b"/>
            <path id="Trazado_18087" data-name="Trazado 18087" d="M334.245,84.48c-.064.4-.137.8-.224,1.189-.03.135-.063.267-.094.4-.038.153-.076.3-.118.455-.056.2-.11.4-.169.592-.043.139-.088.281-.136.42-.034.1-.07.2-.1.3a1.534,1.534,0,0,0-.063.173.039.039,0,0,1-.007.014,1.267,1.267,0,0,1-.045.121c-.029.082-.06.169-.092.25-.136.358-.284.713-.44,1.06-.025.055-.055.118-.084.17-.053.125-.108.244-.168.36-.165.344-.345.686-.534,1.018l-.093.167c-.066.114-.132.224-.2.342-.2.327-.409.648-.622.964a.541.541,0,0,0-.042.062c-.024.03-.049.067-.073.1-.048.07-.1.141-.154.216-.027.033-.049.074-.078.108-.062.085-.12.166-.184.251-.172.226-.35.449-.531.671-.045.05-.086.1-.126.157a1.357,1.357,0,0,0-.1.11c-.058.062-.112.128-.169.2-.266.3-.537.587-.82.868a1.59,1.59,0,0,1-.144.145c-.1.1-.2.2-.3.291-.3.284-.61.553-.927.816-.054.049-.109.092-.164.141l-.22.171c-.042.034-.079.062-.122.095-.334.262-.687.514-1.043.754-.062.046-.128.082-.188.122s-.132.09-.2.134a.336.336,0,0,1-.046.028v0c-.043.034-.091.06-.136.089q-.518.324-1.058.613a.442.442,0,0,1-.069.037c-.239.126-.482.249-.725.37-.486.23-.98.444-1.486.638-.345.129-.693.253-1.049.369-.008,0-.018.006-.025.007-.059.021-.116.037-.174.054-.222.067-.44.129-.66.191-.2.052-.4.1-.593.151-.083.018-.16.038-.242.053-.251.056-.5.108-.747.153-.23.045-.465.079-.692.114l-.234.033c-.106.01-.214.026-.318.038-.178.02-.353.039-.527.052a.04.04,0,0,1-.014,0,.422.422,0,0,1-.066,0c-.583.056-1.167.075-1.748.078-.083-.005-.166,0-.247,0-.111,0-.218-.005-.326-.011-.081,0-.166,0-.243-.006-.053-.009-.1-.007-.153-.012-.148,0-.3-.013-.449-.026l-.393-.038h-.025c-.144-.013-.289-.03-.432-.05-.486-.059-.963-.132-1.441-.233-.083-.015-.166-.032-.25-.052l-.259-.056c-.307-.071-.608-.149-.911-.235-.09-.025-.179-.049-.265-.074-.016-.005-.035-.008-.054-.014-.493-.15-.983-.317-1.465-.5-.056-.021-.109-.041-.165-.064s-.125-.049-.184-.074h0a.828.828,0,0,1-.084-.037c-.284-.114-.568-.242-.844-.374a18.408,18.408,0,0,1-2.039-1.112c-.144-.085-.284-.177-.422-.265-.046-.032-.09-.059-.133-.089-.073-.051-.15-.1-.221-.153-.392-.27-.779-.558-1.149-.857a.069.069,0,0,1-.021-.015c-.044-.038-.088-.07-.132-.111-.193-.155-.379-.318-.564-.483-.24-.211-.474-.427-.705-.653-.3-.3-.593-.6-.873-.919-.245-.272-.482-.551-.711-.841-.027-.035-.053-.066-.081-.1l-.166-.217c-.1-.13-.2-.265-.294-.4,0-.006-.012-.009-.013-.014s-.01-.013-.012-.02l0,0c-.041-.054-.086-.115-.128-.178a19.177,19.177,0,0,1-1.372-2.264c-.018-.027-.032-.06-.046-.086-.177-.347-.341-.7-.5-1.059-.244-.558-.461-1.13-.654-1.718-.021-.063-.045-.133-.066-.2-.028-.093-.054-.18-.083-.273-.019-.061-.035-.114-.052-.171s-.04-.129-.058-.2c-.049-.17-.1-.351-.138-.525s-.086-.346-.124-.522c0-.012-.006-.028-.011-.045s-.012-.053-.016-.078a19.349,19.349,0,0,1-.41-5.178c.024-.425.063-.852.115-1.277.034-.3.078-.6.131-.9.056-.359.131-.713.21-1.066.014-.071.031-.142.049-.2.058-.267.133-.526.2-.788.022-.068.039-.136.062-.205.081-.27.162-.544.259-.816.055-.159.112-.32.17-.481.02-.049.037-.1.057-.142a19.508,19.508,0,0,1,9.524-10.515h0a19.644,19.644,0,0,1,13.174-1.534,19.536,19.536,0,0,1,8.177,4.136c.071.059.139.119.213.182s.13.12.2.177c.08.075.158.143.234.218.053.045.105.094.159.143a19.071,19.071,0,0,1,1.406,1.486c.056.063.11.13.168.2.106.124.209.256.31.387.051.065.1.13.152.2.324.408.622.839.909,1.283.177.275.346.55.509.833.147.259.292.526.432.793a19.484,19.484,0,0,1,1.056,2.442c.073.206.143.412.207.621s.136.425.193.639v0A19.287,19.287,0,0,1,334.433,80a.313.313,0,0,1,0,.053c0,.056.009.109.012.166.015.239.027.476.03.712.011.346.012.686,0,1.025-.008.218-.018.433-.029.652a18.56,18.56,0,0,1-.209,1.872m3.5-1.787c.038-.7.044-1.39.019-2.09a23.038,23.038,0,0,0-.226-2.467c-.082-.55-.185-1.1-.3-1.644-.056-.25-.114-.5-.181-.745-.048-.192-.1-.387-.155-.578-.063-.215-.128-.426-.2-.638-.144-.459-.3-.909-.474-1.354a22.781,22.781,0,0,0-2.638-4.915c-.1-.147-.2-.286-.308-.432-.3-.407-.61-.8-.939-1.174a22.635,22.635,0,0,0-2.568-2.572A22.752,22.752,0,0,0,308.064,59.7a22.7,22.7,0,0,0-8.6,5.007,22.775,22.775,0,0,0-7.3,16.469c0,.033,0,.063,0,.1l0,0c0,.512.012,1.027.043,1.55.024.391.053.772.1,1.158a22.981,22.981,0,0,0,.932,4.357,23.53,23.53,0,0,0,1.115,2.842c.131.281.271.559.413.83.159.3.327.6.493.9.184.309.372.62.57.923a23.036,23.036,0,0,0,1.541,2.1q.316.388.65.761a22.582,22.582,0,0,0,1.737,1.721c.234.218.473.422.716.621a22.33,22.33,0,0,0,1.9,1.4c.066.045.134.089.2.131.192.127.385.25.582.365a21.79,21.79,0,0,0,2.045,1.106c.221.1.446.2.671.3l0,.005a1.589,1.589,0,0,1,.166.073,22.848,22.848,0,0,0,2.2.8q.448.146.9.259c.466.128.937.234,1.406.327.206.04.41.079.62.116.108.018.218.037.327.052.24.038.475.07.711.1.086.01.172.016.259.026.184.024.367.044.554.057.08.005.158.014.239.02.573.043,1.156.062,1.735.064a.027.027,0,0,0,.019,0c.081,0,.166,0,.251,0s.168,0,.251,0c.177-.006.348-.012.522-.02a.592.592,0,0,1,.1,0c.562-.031,1.127-.078,1.69-.155.088-.006.179-.02.267-.035a.972.972,0,0,0,.119-.017c.168-.021.334-.049.5-.077.024,0,.05-.009.077-.012.384-.066.765-.141,1.146-.226.039-.01.083-.019.121-.03.1-.021.189-.04.284-.065s.209-.05.31-.077c.353-.093.705-.19,1.057-.3q.087-.025.179-.056c.117-.036.231-.072.342-.108.259-.089.512-.179.763-.27l.039-.016q.645-.246,1.26-.521c.166-.071.332-.149.492-.227.112-.052.222-.105.328-.157a22.4,22.4,0,0,0,2.8-1.642q.865-.6,1.666-1.264c.583-.485,1.137-1,1.667-1.537.152-.152.3-.309.448-.471.251-.267.5-.544.731-.824a22.687,22.687,0,0,0,1.649-2.218c.121-.192.245-.377.359-.57a23.7,23.7,0,0,0,1.486-2.866,22.783,22.783,0,0,0,1.84-7.785" transform="translate(-31.653 -6.351)" fill="#ededed"/>
            <path id="Trazado_18088" data-name="Trazado 18088" d="M335.069,83.939a20.064,20.064,0,0,0-.9-7.6,20.329,20.329,0,0,0-2.481-5.158,20.1,20.1,0,0,0-1.308-1.732c-.07-.082-.144-.17-.215-.25a19.518,19.518,0,0,0-1.46-1.513l-.159-.144a20.308,20.308,0,0,0-8.825-4.712,20.216,20.216,0,0,0-14.379,1.869h0a20.159,20.159,0,0,0-9.59,11.669c-.122.4-.236.794-.335,1.206-.044.177-.089.362-.128.539-.005.027-.011.049-.017.071-.026.12-.049.241-.072.364-.078.4-.144.791-.2,1.2-.027.173-.048.353-.068.526v0c-.005.086-.016.173-.023.256v0a20.077,20.077,0,0,0,.621,7.171c.056.214.118.418.183.633.021.063.04.133.063.2.013.038.025.077.04.119.122.388.258.762.4,1.134v0a20.05,20.05,0,0,0,1.331,2.761c.185.328.383.652.591.963a20.183,20.183,0,0,0,9.049,7.522h0a20.048,20.048,0,0,0,5.377,1.431c.173.022.349.042.521.058a20.246,20.246,0,0,0,4.327-.061,19.91,19.91,0,0,0,2.019-.35c.484-.109.971-.238,1.452-.389.063-.015.129-.037.193-.06.38-.119.754-.252,1.124-.394a20.137,20.137,0,0,0,12.3-13.874c.1-.389.183-.783.26-1.179.023-.109.04-.22.062-.331.037-.227.075-.453.107-.686.059-.416.1-.84.133-1.264m-7.68-16.553h0c.081.067.161.135.237.2.316.276.629.562.929.86a18.952,18.952,0,0,1,5.562,13.045c.006.4,0,.786-.019,1.18l0,0c0,.112-.006.227-.013.34v0c-.01.169-.024.338-.037.5-.037.407-.086.806-.152,1.208A18.887,18.887,0,0,1,331,92.207c-.221.339-.453.667-.7.99a18.776,18.776,0,0,1-9.342,6.608c-.157.05-.318.1-.475.143a18.612,18.612,0,0,1-3.349.649,17.889,17.889,0,0,1-2.213.092c-.412-.008-.821-.025-1.232-.062-.183-.013-.372-.033-.556-.053-.531-.062-1.064-.142-1.584-.251-.547-.107-1.1-.243-1.63-.4q-.86-.254-1.691-.586c-.124-.055-.249-.1-.367-.153-.494-.212-.976-.445-1.453-.695a18.708,18.708,0,0,1-1.72-1.035,19.02,19.02,0,0,1-2.683-2.189c-.237-.237-.469-.479-.7-.73-.35-.383-.685-.783-1-1.2a18.323,18.323,0,0,1-1.083-1.56c-.333-.54-.642-1.1-.926-1.683a18.649,18.649,0,0,1-1.02-2.556c-.1-.3-.183-.6-.259-.9-.049-.177-.1-.36-.139-.539-.025-.114-.051-.228-.076-.341-.083-.387-.152-.778-.21-1.165a18.771,18.771,0,0,1,.307-7.115c.077-.33.165-.662.266-.986a1.644,1.644,0,0,1,.059-.2q.162-.522.349-1.032c0-.013.008-.025.014-.04q.255-.669.554-1.325a18.806,18.806,0,0,1,11.4-10.036c.156-.05.31-.1.46-.146v0a18.851,18.851,0,0,1,17.386,3.675" transform="translate(-31.942 -6.744)" fill="#a7a9ab"/>
            <path id="Trazado_18089" data-name="Trazado 18089" d="M275.055,242.3l19.475-3.329,8.836,49.779L281.1,299.928l-7.277-19.982-9.8-10.919,12.4-19.672Z" transform="translate(-28.606 -25.891)" fill="#ffc28e"/>
            <path id="Trazado_18090" data-name="Trazado 18090" d="M275.279,242.3l19.474-3.329,3.533,36.084c-1.724-.634-3.382-.287-5.322-.267a68.354,68.354,0,0,0-10.688.7c-3.968.653-5.288.238-9.2.565l-6.989-7.161,1.049-17.954,11.306-3.325Z" transform="translate(-28.828 -25.891)" fill="#ffc28e"/>
            <path id="Trazado_18091" data-name="Trazado 18091" d="M291.759,236.852l-22.117-16.218-15.149-1.239s-12.686,3.22-15.1,4.854c-1.221.828-2.017,4.418,2.744,5.682,2.934.781,9.142-2.167,9.142-2.167l8.14,2.164,8.374,6.271,5.466,8.976,15.809-3.821Z" transform="translate(-25.835 -23.77)" fill="#ffc28e"/>
            <rect id="Rectángulo_8442" data-name="Rectángulo 8442" width="7.048" height="3.014" transform="translate(260.187 223.593) rotate(-74.856)" fill="#063b5b"/>
            <rect id="Rectángulo_8443" data-name="Rectángulo 8443" width="7.05" height="39.154" transform="translate(205.803 208.849) rotate(-74.83)" fill="#063b5b"/>
            <rect id="Rectángulo_8444" data-name="Rectángulo 8444" width="7.05" height="39.154" transform="translate(205.803 208.849) rotate(-74.83)" fill="#ff4140"/>
            <path id="Trazado_18092" data-name="Trazado 18092" d="M252.737,230.947l-2.352,8.67-.41-1.111,1.845-6.805Z" transform="translate(-27.083 -25.022)" fill="#063b5b"/>
            <rect id="Rectángulo_8445" data-name="Rectángulo 8445" width="8.982" height="39.153" transform="translate(223.302 214.594) rotate(-74.831)" fill="#ff4140"/>
            <path id="Trazado_18093" data-name="Trazado 18093" d="M230.123,233.4l-5.753-5.211,7.6-1.593Z" transform="translate(-24.309 -24.551)" fill="#063b5b"/>
            <path id="Trazado_18094" data-name="Trazado 18094" d="M283.363,249.894l-.706-.192-9.218-2.5-.473-.128a9.163,9.163,0,0,0-2.105-.3c-1.631.02-3.419,1.263-2.613,2.395.889,1.242,2.2-.544,3.57-.019l1.02.276,9.217,2.5,1.909.516a1.064,1.064,0,0,0,1.3-.745l.048-.178,2.84-10.475-2.228-.6Z" transform="translate(-29.041 -26.05)" fill="#063b5b"/>
            <path id="Trazado_18095" data-name="Trazado 18095" d="M247.894,253.474s-6.608-11.529-7.782-13.626c-2.532-4.529.9-7.472,4.545-5.789,1.719.794,8.223,10.007,8.223,10.007l8.462,6.395,5.444-.858,13.556,26.811L270,278.084Z" transform="translate(-25.92 -25.307)" fill="#ffc28e"/>
            <path id="Trazado_18096" data-name="Trazado 18096" d="M273.079,286.684c.626,2.561,5.594,12.684,6.174,15.251,9.7-3.775,19.037-10.161,29.486-12.372-.347-2.654-4.322-9.533-4.716-12.187a199.784,199.784,0,0,0-30.944,9.308" transform="translate(-29.586 -30.052)" fill="#fff"/>
            <path id="Trazado_18097" data-name="Trazado 18097" d="M329.2,349.289H284.309L273.7,291.8l1.159-.41,2.274-.8,25.234-8.925,2.736-.963,1.936-.687Z" transform="translate(-29.653 -30.338)" fill="#063b5b"/>
            <path id="Trazado_18098" data-name="Trazado 18098" d="M103.869,233.156c-4.727,1.765-1.011,28.359-3.625,31.77.624-.811-.994-7.631-1.083-8.771-.324-4.131.689-12.329-6.172-9.578-4.634,1.856-2.667,6.462-2.742,10.2-.014.783-.714,6.909-.992,5.982-1.075-3.619-1.268-12.308-7.321-9.419-2.237,1.067-2.663,3.4-2.827,5.618-.054.7-.546,5.593-.251,6.019-3.678-5.252-8.047-4.926-9.041,1.635-1.05,6.911-1.43,13.409.469,20.246a28.619,28.619,0,0,0,1.584,4.271c1.23,2.7,2.724,5.155,4.02,8,1.061,2.363,3.214,4.094,4.081,6.566a49.592,49.592,0,0,1,1.315,6.618c.216,1.095.4,2,.483,2.383.057.332.05.737.284.854.216.1.879-.119,1.1-.15q1.077-.146,2.149-.275c2.184-.245,2.063.7,4.226.488,4.482-.44,8.808-1.512,13.293-1.5,4.071.016,5.308-3.194,7.2-6.769,3.987-7.629,11.109-12.24,11.463-27.046.051-1.875-.175-3.667-.049-5.517.03-.551,1.022-4.6,1.132-5.158.312-1.585,1.479-4.146.866-5.479-.8-1.741-5.086-.562-6.207.459-4.907,4.481-1.923,14.754-6.1,17.916-6.622-11,3.378-53.344-7.252-49.367" transform="translate(-7.47 -25.232)" fill="#ffc28e"/>
            <path id="Trazado_18099" data-name="Trazado 18099" d="M79.541,324.747a206.541,206.541,0,0,1,33.8,1.05q-.181-4.252-.289-8.511a212.609,212.609,0,0,0-34.6-1.149q.512,4.311,1.089,8.61" transform="translate(-8.5 -34.224)" fill="#fff"/>
            <path id="Trazado_18100" data-name="Trazado 18100" d="M124.8,274.626c.072.67-.212,4.238.587,4.409.027-.5.934-4.209,1.035-4.718.286-1.45,1.354-3.793.792-5.012-.651.676-2.669,3.1-2.414,5.321" transform="translate(-13.519 -29.177)" fill="#f2c4a5"/>
            <path id="Trazado_18101" data-name="Trazado 18101" d="M119.375,353.628H77.69l-1.632-33.508h2.559l3.156-.009,27.257-.036,3.835-.009h1.917l.624,4.646Z" transform="translate(-8.24 -34.677)" fill="#063b5b"/>
            <path id="Trazado_18102" data-name="Trazado 18102" d="M398.609,258.041a4.167,4.167,0,0,0-3.358-4.811L381.76,250.5l-13.5-2.729a4.16,4.16,0,0,0-4.959,3.122l-11.306,55.884a4.163,4.163,0,0,0,3.359,4.808l13.491,2.728,13.5,2.731a4.161,4.161,0,0,0,4.959-3.126Z" transform="translate(-38.128 -26.835)" fill="#203145"/>
            <path id="Trazado_18103" data-name="Trazado 18103" d="M396.532,262.428a1.665,1.665,0,0,0-1.339-1.925l-14.322-2.9-14.337-2.9a1.663,1.663,0,0,0-1.979,1.253l-8.987,44.421a1.664,1.664,0,0,0,1.339,1.922l14.327,2.9,14.328,2.9a1.663,1.663,0,0,0,1.986-1.251Z" transform="translate(-38.52 -27.592)" fill="#f2f6fa"/>
            <rect id="Rectángulo_8446" data-name="Rectángulo 8446" width="16.219" height="30.218" transform="translate(323.58 246.119) rotate(-78.475)" fill="#e1e1e1"/>
            <path id="Trazado_18104" data-name="Trazado 18104" d="M373.835,262.192a3.682,3.682,0,0,1,1.576.578l-.189.93a9.006,9.006,0,0,0-1.236-.36c-.517-.106-.728-.174-.984,1.082-.206,1.01-.131,1.243.49,1.37.647.133,1.262.2,1.262.2l-.19.93a3.653,3.653,0,0,1-1.666-.135c-1.135-.251-1.4-1.107-1.088-2.621.294-1.441.8-2.223,2.025-1.974" transform="translate(-40.27 -28.402)" fill="#ff4140"/>
            <path id="Trazado_18105" data-name="Trazado 18105" d="M376.236,262.716l1.195.243-.365,1.792,1.046.213.366-1.791,1.2.243-.919,4.508-1.2-.244.335-1.643-1.046-.215-.335,1.645-1.195-.243Z" transform="translate(-40.663 -28.464)" fill="#ff4140"/>
            <path id="Trazado_18106" data-name="Trazado 18106" d="M380.4,264.674a1.012,1.012,0,0,1,1.358-.813,20.455,20.455,0,0,1,2,.509l-.206,1-1.644-.336c-.321-.065-.357.114-.391.281l-.054.27,1.642.406-.2.992-1.668-.284-.055.271c-.067.326.137.362.317.4l1.583.323-.2,1c-.652-.044-1.973-.293-1.973-.293-.4-.069-1.194-.315-1-1.256Z" transform="translate(-41.156 -28.583)" fill="#ff4140"/>
            <path id="Trazado_18107" data-name="Trazado 18107" d="M386.054,264.684a3.7,3.7,0,0,1,1.576.578l-.189.93a9.044,9.044,0,0,0-1.236-.36c-.517-.106-.728-.174-.984,1.082-.206,1.01-.132,1.243.49,1.37.647.132,1.263.2,1.263.2l-.19.93a3.657,3.657,0,0,1-1.667-.135c-1.135-.251-1.4-1.107-1.088-2.622.294-1.44.8-2.222,2.025-1.973" transform="translate(-41.594 -28.672)" fill="#ff4140"/>
            <path id="Trazado_18108" data-name="Trazado 18108" d="M388.459,265.208l1.132.231-.362,1.774.247.05,1.278-1.587,1.374.281-1.7,2.013.781,2.495-1.374-.281-.565-1.911-.24-.049-.352,1.724-1.139-.231Z" transform="translate(-41.987 -28.734)" fill="#ff4140"/>
            <path id="Trazado_18109" data-name="Trazado 18109" d="M366,269.256l1.957.4c.961.2,1.261.745,1.106,1.508-.078.382-.4.854-.851.8a.966.966,0,0,1,.573,1.117c-.206,1.011-.767,1.281-1.716,1.088l-1.989-.406Zm1.214,3.892c.234.047.335-.1.391-.369.047-.228.029-.457-.211-.506l-.734-.149-.178.875Zm.31-1.836a.285.285,0,0,0,.342-.258c.054-.271-.07-.381-.207-.408l-.671-.136-.136.666Z" transform="translate(-39.554 -29.172)" fill="#ff4140"/>
            <path id="Trazado_18110" data-name="Trazado 18110" d="M371.279,270.369l1.411.288.448,4.787-1.225-.251-.105-.844-1.213-.247-.419.736-1.226-.249Zm.5,2.918-.081-1.274-.621,1.131Z" transform="translate(-39.973 -29.293)" fill="#ff4140"/>
            <path id="Trazado_18111" data-name="Trazado 18111" d="M374.936,271.076l1.195.243-.635,3.117c-.067.325.138.362.317.4l1.269.259-.218,1.072-1.823-.372a.922.922,0,0,1-.827-1.169Z" transform="translate(-40.54 -29.369)" fill="#ff4140"/>
            <path id="Trazado_18112" data-name="Trazado 18112" d="M379.82,272.112l1.411.287.448,4.787-1.225-.25-.105-.844-1.213-.247-.419.736-1.226-.25Zm.5,2.917-.081-1.274-.621,1.131Z" transform="translate(-40.899 -29.482)" fill="#ff4140"/>
            <path id="Trazado_18113" data-name="Trazado 18113" d="M383.457,272.817l1.207.246.817,2.566.47-2.3,1.195.244-.919,4.508-1.195-.243-.836-2.506-.457,2.242-1.2-.244Z" transform="translate(-41.445 -29.558)" fill="#ff4140"/>
            <path id="Trazado_18114" data-name="Trazado 18114" d="M389.643,274.046a3.691,3.691,0,0,1,1.576.578l-.19.93a9,9,0,0,0-1.236-.36c-.516-.106-.727-.174-.983,1.082-.206,1.01-.132,1.244.49,1.37.647.133,1.263.2,1.263.2l-.19.93a3.648,3.648,0,0,1-1.666-.136c-1.135-.251-1.4-1.106-1.088-2.621.294-1.441.8-2.224,2.025-1.974" transform="translate(-41.983 -29.686)" fill="#ff4140"/>
            <path id="Trazado_18115" data-name="Trazado 18115" d="M391.818,275.632a1.012,1.012,0,0,1,1.358-.813,20.334,20.334,0,0,1,1.995.509l-.205,1L393.323,276c-.321-.066-.358.113-.391.28l-.054.27,1.642.406-.2.992-1.668-.283-.056.271c-.066.326.137.361.317.4l1.583.324-.2,1c-.652-.043-1.972-.293-1.972-.293-.4-.069-1.194-.314-1-1.255Z" transform="translate(-42.393 -29.77)" fill="#ff4140"/>
            <path id="Trazado_18116" data-name="Trazado 18116" d="M375.374,315.72a2.448,2.448,0,0,0-1.532-1l-1.913-.386-1.916-.39a2.486,2.486,0,0,0-.929-.012,2.3,2.3,0,0,0-1.886,1.785,2.358,2.358,0,0,0,1.908,2.727l1.912.388,1.914.386a2.413,2.413,0,0,0,.929.012,2.286,2.286,0,0,0,1.884-1.785,2.216,2.216,0,0,0-.37-1.73" transform="translate(-39.779 -34.009)" fill="#e1e1e1"/>
            <path id="Trazado_18117" data-name="Trazado 18117" d="M388.084,254.516l-3.928-.794-3.931-.8a.9.9,0,1,0-.356,1.764l3.928.794,3.93.8a.9.9,0,1,0,.357-1.765" transform="translate(-41.074 -27.401)" fill="#e1e1e1"/>
            <path id="Trazado_18118" data-name="Trazado 18118" d="M399.4,257.751a.829.829,0,1,0-.98.65.833.833,0,0,0,.98-.65" transform="translate(-43.095 -27.817)" fill="#e1e1e1"/>
            <path id="Trazado_18119" data-name="Trazado 18119" d="M365.286,291.983a11.141,11.141,0,0,0,8.691,13.145l4.453-21.836a11.139,11.139,0,0,0-13.144,8.691" transform="translate(-39.552 -30.668)" fill="#f59905"/>
            <path id="Trazado_18120" data-name="Trazado 18120" d="M388.2,296.463a11.141,11.141,0,0,1-11.036,8.917,11.336,11.336,0,0,1-2.105-.225l4.453-21.836c.245.049.489.111.729.175a11.14,11.14,0,0,1,7.959,12.968" transform="translate(-40.636 -30.696)" fill="#f59905"/>
            <path id="Trazado_18121" data-name="Trazado 18121" d="M376.054,282.808a11.143,11.143,0,1,0,8.69,13.144,11.141,11.141,0,0,0-8.69-13.144" transform="translate(-39.294 -30.616)" fill="#ffca00"/>
            <path id="Trazado_18122" data-name="Trazado 18122" d="M364.973,292.1a9.269,9.269,0,0,0,7.23,10.933l3.7-18.161a9.271,9.271,0,0,0-10.934,7.229" transform="translate(-39.522 -30.844)" fill="#f59905"/>
            <path id="Trazado_18123" data-name="Trazado 18123" d="M376.809,284.895l-3.7,18.161a9.268,9.268,0,1,0,3.7-18.161" transform="translate(-40.424 -30.867)" fill="#f59207"/>
            <path id="Trazado_18124" data-name="Trazado 18124" d="M372.655,301.828a7.862,7.862,0,1,1,9.273-6.133,7.87,7.87,0,0,1-9.273,6.133m3.073-15.066a7.514,7.514,0,1,0,5.86,8.864,7.521,7.521,0,0,0-5.86-8.864" transform="translate(-39.693 -31.015)" fill="#ffca00"/>
            <path id="Trazado_18125" data-name="Trazado 18125" d="M371.851,291.208c.411-1.935,1.736-2.314,3.233-2.048l.241-1.162,1.291.269-.242,1.174a9.285,9.285,0,0,1,2.261.894l-.361,1.728c-.8-.243-2.243-.608-2.91-.746-.782-.173-1.181-.191-1.338.555l-.07.334c-.12.585.074.872.789,1.018l1.087.23c2.01.419,2.086,2.148,1.86,3.236l-.119.567c-.481,2.3-1.96,2.539-3.3,2.255l-.233,1.11-1.292-.27.238-1.127a7.109,7.109,0,0,1-2.294-.91l.359-1.715c.535.155,1.846.523,3.1.786.575.121,1.06.081,1.183-.5l.082-.392c.1-.488.012-.808-.654-.948l-1.047-.217a2.508,2.508,0,0,1-2.04-3.279Z" transform="translate(-40.162 -31.203)" fill="#ffca00"/>
            <g id="Grupo_13125" data-name="Grupo 13125" transform="translate(317.017 228.68)" opacity="0.4" style="mix-blend-mode: screen;isolation: isolate">
              <g id="Grupo_13124" data-name="Grupo 13124">
                <g id="Grupo_13123" data-name="Grupo 13123" clip-path="url(#clip-path-9)">
                  <path id="Trazado_18126" data-name="Trazado 18126" d="M381.491,257.8l-6.6-1.335L363.6,263.934l-2.337,11.543,25.208-16.669Z" transform="translate(-356.158 -256.466)" fill="#fefefe"/>
                  <path id="Trazado_18127" data-name="Trazado 18127" d="M396.254,264.911l-38.426,25.408-2.26,11.17a1.666,1.666,0,0,0,1.339,1.922l2.414.488,33.532-22.175Z" transform="translate(-355.537 -257.381)" fill="#fefefe"/>
                </g>
              </g>
            </g>
            <path id="Trazado_18128" data-name="Trazado 18128" d="M92.6,69.209c-1.585-1.609,46.213-37.934,51.8-32.255,1.092,1.109.66,2.715-.844,3.453-1.675.823-3.527-.386-8.465,1.7C117.374,49.567,94.271,70.345,94,70.627Z" transform="translate(-10.028 -3.938)" fill="#063b5b"/>
            <path id="Trazado_18129" data-name="Trazado 18129" d="M165.466,52.653c.277-2.242-60.426-1.938-61.4,5.97-.191,1.545,1.147,2.555,2.805,2.225,1.85-.367,2.588-2.454,7.827-3.811,18.8-4.871,50.127-2.464,50.52-2.407Z" transform="translate(-11.273 -5.574)" fill="#063b5b"/>
            <g id="Grupo_13128" data-name="Grupo 13128" transform="translate(87.397 61.096)" opacity="0.09" style="mix-blend-mode: multiply;isolation: isolate">
              <g id="Grupo_13127" data-name="Grupo 13127">
                <g id="Grupo_13126" data-name="Grupo 13126" clip-path="url(#clip-path-10)">
                  <path id="Trazado_18130" data-name="Trazado 18130" d="M121.692,69.247c1.955,1.783,2.236,4.387,1.649,6.877a12.6,12.6,0,0,1-2.535,5.106c-3.62,4.331-8.912,5.365-13.756,4.991a9.291,9.291,0,0,1-7.386-4.687c-3.986-6.617-.223-9.2,5.7-10.528,3.527-.788,6.992-1.937,10.582-2.273,1.458-.123,4.49-.62,5.741.513" transform="translate(-98.016 -68.52)" fill="#3c6c8f"/>
                </g>
              </g>
            </g>
            <g id="Grupo_13131" data-name="Grupo 13131" transform="translate(125.798 51.098)" opacity="0.09" style="mix-blend-mode: multiply;isolation: isolate">
              <g id="Grupo_13130" data-name="Grupo 13130">
                <g id="Grupo_13129" data-name="Grupo 13129" clip-path="url(#clip-path-11)">
                  <path id="Trazado_18131" data-name="Trazado 18131" d="M156.594,58.063c5.831-1.625,10.343-1.132,9.963,6.563a9.332,9.332,0,0,1-4.277,7.628c-4.078,2.621-9.207,4.207-14.439,2.117a12.65,12.65,0,0,1-4.637-3.294c-1.7-1.914-2.678-4.342-1.787-6.836.565-1.6,3.456-2.6,4.818-3.168,3.3-1.408,6.89-2.029,10.358-3.01" transform="translate(-141.084 -57.307)" fill="#3c6c8f"/>
                </g>
              </g>
            </g>
            <path id="Trazado_18132" data-name="Trazado 18132" d="M140.782,60.449c-1.362.568-4.252,1.567-4.818,3.168-.891,2.494.091,4.922,1.787,6.836a12.654,12.654,0,0,0,4.636,3.294c5.232,2.09,10.361.5,14.439-2.117A9.336,9.336,0,0,0,161.1,64c.379-7.7-4.132-8.19-9.964-6.564-3.468.981-7.053,1.6-10.357,3.01m-34.9,27.51a11.723,11.723,0,0,1-9.32-6.076,29.367,29.367,0,0,1-3.731-9.311c-.181.045-.638.17-.806.211-.734.193-1.268-.882-1.287-1.7A1.662,1.662,0,0,1,91.98,69.3c1.055-.472,25.869-6.414,30.337-6.134a1.339,1.339,0,0,1,1.15.731l0,.012a14.83,14.83,0,0,1,8.656-2.473,1.314,1.314,0,0,1,.595-.889c3.8-2.36,28.392-8.847,29.532-8.94a1.658,1.658,0,0,1,1.938.985c.358.728.611,1.814-.469,2.249a3.967,3.967,0,0,1-.53.13,30.436,30.436,0,0,1,.967,9.864,11.776,11.776,0,0,1-5.31,9.754,21.787,21.787,0,0,1-7.312,3.168,17.413,17.413,0,0,1-15.687-4.714,15.033,15.033,0,0,1-3.9-8.362,11.333,11.333,0,0,0-6.882,2.076,15.017,15.017,0,0,1,.391,8.91,17.5,17.5,0,0,1-11.627,11.6,21.549,21.549,0,0,1-7.948.687m-1.3-18.792c-5.927,1.326-9.69,3.912-5.7,10.529a9.29,9.29,0,0,0,7.386,4.686c4.843.374,10.135-.66,13.755-4.991a12.6,12.6,0,0,0,2.535-5.1c.588-2.491.308-5.094-1.648-6.878-1.252-1.132-4.284-.636-5.742-.512-3.589.335-7.054,1.484-10.581,2.272" transform="translate(-9.831 -5.585)" fill="#063b5b"/>
            <g id="Grupo_13134" data-name="Grupo 13134" transform="translate(89.376 62.077)" opacity="0.3" style="mix-blend-mode: screen;isolation: isolate">
              <g id="Grupo_13133" data-name="Grupo 13133">
                <g id="Grupo_13132" data-name="Grupo 13132" clip-path="url(#clip-path-12)">
                  <path id="Trazado_18133" data-name="Trazado 18133" d="M105.883,71.061l-5.647,11.086a9.463,9.463,0,0,0,3.5,3.174l8-15.7c-1.954.45-3.894.994-5.85,1.441" transform="translate(-100.236 -69.62)" fill="#fff"/>
                </g>
              </g>
            </g>
            <g id="Grupo_13137" data-name="Grupo 13137" transform="translate(126.646 51.216)" opacity="0.3" style="mix-blend-mode: screen;isolation: isolate">
              <g id="Grupo_13136" data-name="Grupo 13136">
                <g id="Grupo_13135" data-name="Grupo 13135" clip-path="url(#clip-path-13)">
                  <path id="Trazado_18134" data-name="Trazado 18134" d="M156.7,58.077c-3.469.981-7.054,1.6-10.358,3.01l-.174.071-4.13,8.11a9.679,9.679,0,0,0,1.273,1.823,12.65,12.65,0,0,0,4.637,3.294,13.409,13.409,0,0,0,2.723.766l9.024-17.713a22.167,22.167,0,0,0-2.994.638" transform="translate(-142.034 -57.439)" fill="#fff"/>
                </g>
              </g>
            </g>
          </g>
        </g>
      </g>
    </g>
  </g>
</svg>
