<svg xmlns="http://www.w3.org/2000/svg" xmlns:xlink="http://www.w3.org/1999/xlink" width="398.727" height="407.062" viewBox="0 0 398.727 407.062">
  <defs>
    <clipPath id="clip-path">
      <path id="Trazado_19271" data-name="Trazado 19271" d="M35.268,172.486A162.077,162.077,0,1,0,357.594,196.77,162.079,162.079,0,0,0,35.268,172.486" transform="translate(-33.458 -34.702)" fill="none"/>
    </clipPath>
    <clipPath id="clip-path-2">
      <rect id="Rectángulo_8789" data-name="Rectángulo 8789" width="398.727" height="407.062" fill="none"/>
    </clipPath>
    <clipPath id="clip-path-3">
      <path id="Trazado_19311" data-name="Trazado 19311" d="M175.5,99.349c0,1.5,3.371,2.709,7.351,2.744l-.175-30.217c-2.688,2.3-7.175,27.473-7.175,27.473" transform="translate(-175.504 -71.876)" fill="none"/>
    </clipPath>
    <linearGradient id="linear-gradient" x1="-23.928" y1="10.832" x2="-23.791" y2="10.832" gradientUnits="objectBoundingBox">
      <stop offset="0" stop-color="#a06937"/>
      <stop offset="1" stop-color="#996133"/>
    </linearGradient>
    <clipPath id="clip-path-4">
      <path id="Trazado_19312" data-name="Trazado 19312" d="M182.094,102.093l.175,0c4.059,0,7.35-1.228,7.35-2.746,0,0-1.392-8.289-3.57-17.152-1.59-6.469-2.78-9.585-3.955-10.321Z" transform="translate(-182.094 -71.876)" fill="none"/>
    </clipPath>
    <linearGradient id="linear-gradient-2" x1="-23.878" y1="10.819" x2="-23.747" y2="10.819" gradientUnits="objectBoundingBox">
      <stop offset="0" stop-color="#996133"/>
      <stop offset="0.005" stop-color="#996133"/>
      <stop offset="1" stop-color="#915a30"/>
    </linearGradient>
  </defs>
  <g id="Grupo_13590" data-name="Grupo 13590" transform="translate(-479 -639)">
    <g id="Grupo_13541" data-name="Grupo 13541" transform="translate(479 639.001)">
      <g id="Grupo_13532" data-name="Grupo 13532" transform="translate(36.43 37.785)">
        <g id="Grupo_13531" data-name="Grupo 13531" clip-path="url(#clip-path)">
          <rect id="Rectángulo_8697" data-name="Rectángulo 8697" width="398.727" height="398.727" transform="translate(-36.43 -37.786)" fill="#e2e2e2"/>
          <path id="Trazado_19263" data-name="Trazado 19263" d="M0,231.773l66.848-86.8,36.842,30.56,53.193-26.392,70.843,37.341,83.341-41.51,87.661,89.894S308.86,282.851,305.2,282.336,100.182,266.342,91.666,264.278,0,231.773,0,231.773" transform="translate(-36.43 -24.906)" fill="#b2b2b2"/>
          <rect id="Rectángulo_8698" data-name="Rectángulo 8698" width="398.727" height="166.485" transform="translate(-36.43 202.79)" fill="#ccc"/>
          <path id="Trazado_19264" data-name="Trazado 19264" d="M132.473,96.154A17.364,17.364,0,1,1,115.11,78.79a17.363,17.363,0,0,1,17.364,17.364" transform="translate(-27.747 -30.786)" fill="#f4f4f4"/>
          <rect id="Rectángulo_8699" data-name="Rectángulo 8699" width="340.071" height="340.071" transform="translate(-7.804 -3.704)" fill="#d9edef"/>
          <rect id="Rectángulo_8700" data-name="Rectángulo 8700" width="340.071" height="54.756" transform="translate(-7.804 281.611)" fill="#b4dade"/>
          <rect id="Rectángulo_8701" data-name="Rectángulo 8701" width="48.868" height="11.121" transform="translate(82.288 78.044)" fill="#b4dade"/>
          <rect id="Rectángulo_8702" data-name="Rectángulo 8702" width="47.923" height="4.98" transform="translate(88.625 89.165)" fill="#b4dade"/>
          <rect id="Rectángulo_8703" data-name="Rectángulo 8703" width="52.662" height="11.484" transform="translate(80.342 94.146)" fill="#b4dade"/>
          <rect id="Rectángulo_8704" data-name="Rectángulo 8704" width="52.662" height="7.953" transform="translate(76.472 105.63)" fill="#b4dade"/>
          <rect id="Rectángulo_8705" data-name="Rectángulo 8705" width="56.208" height="14.015" transform="translate(78.705 113.582)" fill="#b4dade"/>
          <rect id="Rectángulo_8706" data-name="Rectángulo 8706" width="57.623" height="3.839" transform="translate(74.836 127.598)" fill="#b4dade"/>
          <rect id="Rectángulo_8707" data-name="Rectángulo 8707" width="60.077" height="48.226" transform="translate(74.835 131.437)" fill="#b4dade"/>
          <rect id="Rectángulo_8708" data-name="Rectángulo 8708" width="48.868" height="12.998" transform="translate(252.68 209.497)" fill="#b4dade"/>
          <rect id="Rectángulo_8709" data-name="Rectángulo 8709" width="47.922" height="5.821" transform="translate(247.287 222.495)" fill="#b4dade"/>
          <rect id="Rectángulo_8710" data-name="Rectángulo 8710" width="52.662" height="13.423" transform="translate(250.832 228.316)" fill="#b4dade"/>
          <rect id="Rectángulo_8711" data-name="Rectángulo 8711" width="52.662" height="9.295" transform="translate(254.701 241.739)" fill="#b4dade"/>
          <rect id="Rectángulo_8712" data-name="Rectángulo 8712" width="56.207" height="16.381" transform="translate(248.923 251.034)" fill="#b4dade"/>
          <rect id="Rectángulo_8713" data-name="Rectángulo 8713" width="57.622" height="4.488" transform="translate(251.377 267.416)" fill="#b4dade"/>
          <rect id="Rectángulo_8714" data-name="Rectángulo 8714" width="60.076" height="9.707" transform="translate(248.923 271.904)" fill="#b4dade"/>
          <rect id="Rectángulo_8715" data-name="Rectángulo 8715" width="48.868" height="12.998" transform="translate(23.824 209.497)" fill="#b4dade"/>
          <rect id="Rectángulo_8716" data-name="Rectángulo 8716" width="47.922" height="5.821" transform="translate(18.431 222.495)" fill="#b4dade"/>
          <rect id="Rectángulo_8717" data-name="Rectángulo 8717" width="52.662" height="13.423" transform="translate(21.975 228.316)" fill="#b4dade"/>
          <rect id="Rectángulo_8718" data-name="Rectángulo 8718" width="52.662" height="9.295" transform="translate(25.846 241.739)" fill="#b4dade"/>
          <rect id="Rectángulo_8719" data-name="Rectángulo 8719" width="56.207" height="16.381" transform="translate(20.067 251.034)" fill="#b4dade"/>
          <rect id="Rectángulo_8720" data-name="Rectángulo 8720" width="57.623" height="4.488" transform="translate(22.52 267.416)" fill="#b4dade"/>
          <rect id="Rectángulo_8721" data-name="Rectángulo 8721" width="60.076" height="9.707" transform="translate(20.067 271.904)" fill="#b4dade"/>
          <rect id="Rectángulo_8722" data-name="Rectángulo 8722" width="48.868" height="13" transform="translate(212.263 107.189)" fill="#b4dade"/>
          <rect id="Rectángulo_8723" data-name="Rectángulo 8723" width="47.923" height="5.821" transform="translate(217.551 120.188)" fill="#b4dade"/>
          <rect id="Rectángulo_8724" data-name="Rectángulo 8724" width="52.662" height="13.423" transform="translate(210.415 126.009)" fill="#b4dade"/>
          <rect id="Rectángulo_8725" data-name="Rectángulo 8725" width="52.662" height="9.294" transform="translate(214.285 139.432)" fill="#b4dade"/>
          <rect id="Rectángulo_8726" data-name="Rectángulo 8726" width="56.207" height="16.381" transform="translate(208.507 148.727)" fill="#b4dade"/>
          <rect id="Rectángulo_8727" data-name="Rectángulo 8727" width="57.622" height="4.488" transform="translate(210.961 165.108)" fill="#b4dade"/>
          <rect id="Rectángulo_8728" data-name="Rectángulo 8728" width="60.076" height="9.708" transform="translate(208.507 169.596)" fill="#b4dade"/>
          <rect id="Rectángulo_8729" data-name="Rectángulo 8729" width="225.732" height="94.889" transform="translate(49.287 186.721)" fill="#8abcc1"/>
          <rect id="Rectángulo_8730" data-name="Rectángulo 8730" width="244.088" height="7.055" transform="translate(40.109 179.667)" fill="#b4dade"/>
          <rect id="Rectángulo_8731" data-name="Rectángulo 8731" width="14.932" height="56.703" transform="translate(244.105 224.908)" fill="#b4dade"/>
          <path id="Trazado_19265" data-name="Trazado 19265" d="M269.345,284.789a4.475,4.475,0,1,1-4.475-4.488,4.482,4.482,0,0,1,4.475,4.488" transform="translate(-13.299 -12.885)" fill="#93c4cc"/>
          <rect id="Rectángulo_8732" data-name="Rectángulo 8732" width="14.932" height="56.703" transform="translate(227.404 224.908)" fill="#b4dade"/>
          <path id="Trazado_19266" data-name="Trazado 19266" d="M254.008,284.789a4.476,4.476,0,1,1-4.475-4.488,4.483,4.483,0,0,1,4.475,4.488" transform="translate(-14.661 -12.885)" fill="#93c4cc"/>
          <rect id="Rectángulo_8733" data-name="Rectángulo 8733" width="10.292" height="37.335" transform="translate(216.938 244.276)" fill="#b4dade"/>
          <rect id="Rectángulo_8734" data-name="Rectángulo 8734" width="37.336" height="10.292" transform="matrix(0.067, -0.998, 0.998, 0.067, 204.294, 280.926)" fill="#b4dade"/>
          <rect id="Rectángulo_8735" data-name="Rectángulo 8735" width="37.333" height="10.293" transform="translate(189.804 279.799) rotate(-79.88)" fill="#b4dade"/>
          <path id="Trazado_19267" data-name="Trazado 19267" d="M204.547,296.5l-9.871-2.918L205.2,257.767l9.872,2.918Z" transform="translate(-19.137 -14.887)" fill="#b4dade"/>
          <rect id="Rectángulo_8736" data-name="Rectángulo 8736" width="14.933" height="56.704" transform="translate(126.886 123.61)" fill="#b4dade"/>
          <path id="Trazado_19268" data-name="Trazado 19268" d="M152.739,191.756a4.476,4.476,0,1,0,4.475-4.489,4.481,4.481,0,0,0-4.475,4.489" transform="translate(-22.862 -21.15)" fill="#93c4cc"/>
          <rect id="Rectángulo_8737" data-name="Rectángulo 8737" width="14.933" height="56.704" transform="translate(143.586 123.61)" fill="#b4dade"/>
          <path id="Trazado_19269" data-name="Trazado 19269" d="M168.077,191.756a4.475,4.475,0,1,0,4.475-4.489,4.481,4.481,0,0,0-4.475,4.489" transform="translate(-21.5 -21.15)" fill="#93c4cc"/>
          <rect id="Rectángulo_8738" data-name="Rectángulo 8738" width="10.292" height="37.335" transform="translate(158.694 142.979)" fill="#b4dade"/>
          <rect id="Rectángulo_8739" data-name="Rectángulo 8739" width="10.292" height="37.336" transform="matrix(0.998, -0.067, 0.067, 0.998, 168.876, 143.06)" fill="#b4dade"/>
          <rect id="Rectángulo_8740" data-name="Rectángulo 8740" width="10.293" height="37.333" transform="translate(179.427 143.558) rotate(-10.12)" fill="#b4dade"/>
          <path id="Trazado_19270" data-name="Trazado 19270" d="M218.472,203.465l9.871-2.919-10.525-35.812-9.872,2.918Z" transform="translate(-17.958 -23.151)" fill="#b4dade"/>
          <rect id="Rectángulo_8741" data-name="Rectángulo 8741" width="48.868" height="12.998" transform="translate(114.954 209.497)" fill="#b4dade"/>
          <rect id="Rectángulo_8742" data-name="Rectángulo 8742" width="47.923" height="5.821" transform="translate(109.561 222.495)" fill="#b4dade"/>
          <rect id="Rectángulo_8743" data-name="Rectángulo 8743" width="52.662" height="13.423" transform="translate(113.106 228.316)" fill="#b4dade"/>
          <rect id="Rectángulo_8744" data-name="Rectángulo 8744" width="52.662" height="9.295" transform="translate(116.976 241.739)" fill="#b4dade"/>
          <rect id="Rectángulo_8745" data-name="Rectángulo 8745" width="60.077" height="16.381" transform="translate(109.561 251.034)" fill="#b4dade"/>
          <rect id="Rectángulo_8746" data-name="Rectángulo 8746" width="57.623" height="4.488" transform="translate(112.016 267.416)" fill="#b4dade"/>
          <rect id="Rectángulo_8747" data-name="Rectángulo 8747" width="60.077" height="9.707" transform="translate(109.561 271.904)" fill="#b4dade"/>
          <rect id="Rectángulo_8748" data-name="Rectángulo 8748" width="54.935" height="12.918" transform="translate(65.269 268.693)" fill="#c6e3e5"/>
          <rect id="Rectángulo_8749" data-name="Rectángulo 8749" width="54.935" height="1.098" transform="translate(65.269 278.866)" fill="#b4dade"/>
          <rect id="Rectángulo_8750" data-name="Rectángulo 8750" width="54.935" height="1.098" transform="translate(65.269 274.649)" fill="#b4dade"/>
          <rect id="Rectángulo_8751" data-name="Rectángulo 8751" width="54.935" height="1.099" transform="translate(65.269 270.432)" fill="#b4dade"/>
          <rect id="Rectángulo_8752" data-name="Rectángulo 8752" width="54.935" height="12.918" transform="translate(50.757 256.573)" fill="#c6e3e5"/>
          <rect id="Rectángulo_8753" data-name="Rectángulo 8753" width="54.935" height="1.098" transform="translate(50.757 266.747)" fill="#b4dade"/>
          <rect id="Rectángulo_8754" data-name="Rectángulo 8754" width="54.935" height="1.099" transform="translate(50.757 262.529)" fill="#b4dade"/>
          <rect id="Rectángulo_8755" data-name="Rectángulo 8755" width="54.935" height="1.099" transform="translate(50.757 258.312)" fill="#b4dade"/>
          <rect id="Rectángulo_8756" data-name="Rectángulo 8756" width="54.935" height="12.918" transform="translate(57.286 167.036)" fill="#8abcc1"/>
          <rect id="Rectángulo_8757" data-name="Rectángulo 8757" width="54.935" height="1.099" transform="translate(57.286 177.208)" fill="#b4dade"/>
          <rect id="Rectángulo_8758" data-name="Rectángulo 8758" width="54.935" height="1.098" transform="translate(57.286 172.992)" fill="#b4dade"/>
          <rect id="Rectángulo_8759" data-name="Rectángulo 8759" width="54.935" height="1.099" transform="translate(57.286 168.775)" fill="#b4dade"/>
          <rect id="Rectángulo_8760" data-name="Rectángulo 8760" width="54.935" height="12.919" transform="translate(60.02 154.117)" fill="#8abcc1"/>
          <rect id="Rectángulo_8761" data-name="Rectángulo 8761" width="54.935" height="12.918" transform="translate(56.658 141.24)" fill="#8abcc1"/>
          <rect id="Rectángulo_8762" data-name="Rectángulo 8762" width="54.935" height="1.098" transform="translate(56.658 151.413)" fill="#b4dade"/>
          <rect id="Rectángulo_8763" data-name="Rectángulo 8763" width="54.935" height="1.098" transform="translate(56.658 147.197)" fill="#b4dade"/>
          <rect id="Rectángulo_8764" data-name="Rectángulo 8764" width="54.935" height="1.099" transform="translate(56.658 142.98)" fill="#b4dade"/>
          <rect id="Rectángulo_8765" data-name="Rectángulo 8765" width="54.935" height="12.919" transform="translate(50.757 128.321)" fill="#8abcc1"/>
          <rect id="Rectángulo_8766" data-name="Rectángulo 8766" width="54.935" height="1.098" transform="translate(50.757 138.494)" fill="#b4dade"/>
          <rect id="Rectángulo_8767" data-name="Rectángulo 8767" width="54.935" height="1.099" transform="translate(50.757 134.277)" fill="#b4dade"/>
          <rect id="Rectángulo_8768" data-name="Rectángulo 8768" width="54.935" height="1.099" transform="translate(50.757 130.06)" fill="#b4dade"/>
          <rect id="Rectángulo_8769" data-name="Rectángulo 8769" width="54.935" height="12.918" transform="translate(47.725 115.403)" fill="#8abcc1"/>
          <rect id="Rectángulo_8770" data-name="Rectángulo 8770" width="54.935" height="1.099" transform="translate(47.725 125.575)" fill="#b4dade"/>
          <rect id="Rectángulo_8771" data-name="Rectángulo 8771" width="54.935" height="1.098" transform="translate(47.725 121.359)" fill="#b4dade"/>
          <rect id="Rectángulo_8772" data-name="Rectángulo 8772" width="54.935" height="1.099" transform="translate(47.725 117.142)" fill="#b4dade"/>
          <rect id="Rectángulo_8773" data-name="Rectángulo 8773" width="54.935" height="12.919" transform="translate(211.826 173.811)" fill="#8abcc1"/>
          <rect id="Rectángulo_8774" data-name="Rectángulo 8774" width="54.935" height="1.098" transform="translate(211.826 183.985)" fill="#b4dade"/>
          <rect id="Rectángulo_8775" data-name="Rectángulo 8775" width="54.935" height="1.099" transform="translate(211.826 179.768)" fill="#b4dade"/>
          <rect id="Rectángulo_8776" data-name="Rectángulo 8776" width="54.935" height="1.099" transform="translate(211.826 175.551)" fill="#b4dade"/>
          <rect id="Rectángulo_8777" data-name="Rectángulo 8777" width="54.935" height="12.918" transform="translate(205.925 160.893)" fill="#8abcc1"/>
          <rect id="Rectángulo_8778" data-name="Rectángulo 8778" width="54.935" height="1.099" transform="translate(205.925 171.065)" fill="#b4dade"/>
          <rect id="Rectángulo_8779" data-name="Rectángulo 8779" width="54.935" height="1.098" transform="translate(205.925 166.849)" fill="#b4dade"/>
          <rect id="Rectángulo_8780" data-name="Rectángulo 8780" width="54.935" height="1.099" transform="translate(205.925 162.632)" fill="#b4dade"/>
          <rect id="Rectángulo_8781" data-name="Rectángulo 8781" width="54.935" height="12.918" transform="translate(202.892 147.975)" fill="#8abcc1"/>
          <rect id="Rectángulo_8782" data-name="Rectángulo 8782" width="54.935" height="1.099" transform="translate(202.892 158.147)" fill="#b4dade"/>
          <rect id="Rectángulo_8783" data-name="Rectángulo 8783" width="54.935" height="1.099" transform="translate(202.892 153.93)" fill="#b4dade"/>
          <rect id="Rectángulo_8784" data-name="Rectángulo 8784" width="54.935" height="1.099" transform="translate(202.892 149.713)" fill="#b4dade"/>
          <rect id="Rectángulo_8785" data-name="Rectángulo 8785" width="54.935" height="12.918" transform="translate(209.032 133.849)" fill="#8abcc1"/>
        </g>
      </g>
      <g id="Grupo_13534" data-name="Grupo 13534" transform="translate(0 -0.001)">
        <g id="Grupo_13533" data-name="Grupo 13533" clip-path="url(#clip-path-2)">
          <path id="Trazado_19272" data-name="Trazado 19272" d="M196.414,370.607q-.843,0-1.682-.009a.694.694,0,1,1,.013-1.388c1.235.012,2.472.011,3.7,0a.685.685,0,0,1,.7.686.693.693,0,0,1-.687.7q-1.022.013-2.049.013m-5.856-.1h-.023c-1.24-.041-2.495-.095-3.729-.163a.7.7,0,0,1-.655-.732.682.682,0,0,1,.732-.654c1.224.066,2.468.121,3.7.162a.694.694,0,0,1-.023,1.388m12.073-.012a.695.695,0,0,1-.025-1.389c1.227-.044,2.472-.1,3.7-.171a.695.695,0,0,1,.078,1.387c-1.237.071-2.492.129-3.728.172h-.025m-19.958-.43-.056,0c-1.233-.1-2.484-.209-3.717-.333a.695.695,0,0,1,.139-1.383c1.224.123,2.465.235,3.687.331a.695.695,0,0,1-.053,1.387m27.842-.029a.695.695,0,0,1-.054-1.387c1.226-.1,2.466-.212,3.686-.338a.694.694,0,1,1,.143,1.381c-1.23.127-2.48.242-3.716.342a.514.514,0,0,1-.058,0m-35.7-.772a.593.593,0,0,1-.087-.005c-1.23-.154-2.475-.323-3.7-.5a.694.694,0,0,1,.2-1.374c1.213.177,2.448.346,3.669.5a.695.695,0,0,1-.086,1.384m43.554-.045a.695.695,0,0,1-.086-1.384c1.219-.155,2.453-.327,3.667-.507a.695.695,0,0,1,.2,1.374c-1.224.183-2.467.354-3.7.511a.626.626,0,0,1-.089.007M167,368.106a.737.737,0,0,1-.119-.01c-1.214-.209-2.45-.436-3.672-.673a.695.695,0,0,1,.266-1.364c1.212.236,2.437.461,3.641.669a.694.694,0,0,1-.117,1.378m59.178-.062a.694.694,0,0,1-.119-1.378c1.208-.21,2.432-.438,3.64-.675a.695.695,0,0,1,.267,1.363c-1.215.24-2.45.468-3.668.681a.762.762,0,0,1-.12.01m-66.929-1.456a.688.688,0,0,1-.149-.016c-1.21-.266-2.434-.549-3.637-.841a.695.695,0,1,1,.327-1.35c1.194.29,2.407.571,3.607.834a.695.695,0,0,1-.148,1.373m74.676-.077a.695.695,0,0,1-.149-1.373c1.2-.268,2.415-.551,3.6-.843a.7.7,0,1,1,.331,1.35c-1.2.293-2.422.579-3.635.848a.652.652,0,0,1-.151.017m-82.349-1.8a.74.74,0,0,1-.181-.023c-1.2-.322-2.405-.662-3.594-1.008a.695.695,0,0,1,.39-1.334c1.179.345,2.379.681,3.565,1a.695.695,0,0,1-.18,1.365m90.018-.095a.695.695,0,0,1-.182-1.365c1.184-.32,2.381-.659,3.563-1.007a.695.695,0,0,1,.393,1.333c-1.191.351-2.4.693-3.592,1.016a.7.7,0,0,1-.182.024M144,362.488a.712.712,0,0,1-.211-.033c-1.186-.379-2.381-.774-3.557-1.177a.695.695,0,1,1,.452-1.314c1.165.4,2.352.793,3.528,1.167a.695.695,0,0,1-.211,1.357m105.169-.11a.694.694,0,0,1-.212-1.356c1.159-.371,2.34-.767,3.513-1.172a.695.695,0,1,1,.454,1.313c-1.182.408-2.375.807-3.542,1.18a.682.682,0,0,1-.212.034M136.508,359.9a.7.7,0,0,1-.242-.044c-1.168-.432-2.344-.883-3.5-1.339a.7.7,0,0,1,.512-1.292c1.142.452,2.308.9,3.468,1.329a.695.695,0,0,1-.242,1.346m120.125-.115a.7.7,0,0,1-.243-1.347c1.151-.429,2.314-.876,3.454-1.331a.694.694,0,1,1,.514,1.289c-1.15.458-2.321.91-3.482,1.344a.709.709,0,0,1-.243.045m-127.488-2.81a.7.7,0,0,1-.271-.056c-1.138-.483-2.291-.988-3.429-1.5a.694.694,0,0,1,.571-1.266c1.128.508,2.272,1.009,3.4,1.487a.7.7,0,0,1-.272,1.335m134.808-.116a.694.694,0,0,1-.273-1.333c1.13-.482,2.267-.982,3.378-1.485a.694.694,0,1,1,.573,1.265c-1.12.507-2.266,1.01-3.4,1.5a.692.692,0,0,1-.272.056m-142.024-3.146a.688.688,0,0,1-.3-.07c-1.117-.536-2.245-1.093-3.355-1.655a.695.695,0,0,1,.628-1.239c1.1.559,2.22,1.109,3.327,1.643a.695.695,0,0,1-.3,1.321m149.193-.109a.695.695,0,0,1-.3-1.321c1.1-.53,2.214-1.081,3.307-1.639a.7.7,0,0,1,.63,1.239c-1.1.561-2.224,1.116-3.334,1.651a.7.7,0,0,1-.3.07m-156.246-3.482a.7.7,0,0,1-.329-.083c-1.091-.588-2.192-1.2-3.273-1.809a.695.695,0,0,1,.685-1.209c1.072.609,2.165,1.211,3.247,1.793a.7.7,0,0,1-.33,1.307m163.26-.1a.694.694,0,0,1-.33-1.305c1.076-.581,2.162-1.184,3.229-1.79a.695.695,0,1,1,.687,1.208c-1.077.612-2.172,1.219-3.257,1.805a.7.7,0,0,1-.33.083M108,346.215a.689.689,0,0,1-.357-.1c-1.068-.64-2.14-1.3-3.185-1.956a.695.695,0,0,1,.739-1.176c1.037.652,2.1,1.3,3.16,1.939a.7.7,0,0,1-.357,1.291m176.985-.093a.7.7,0,0,1-.358-1.29c1.047-.628,2.106-1.278,3.147-1.936a.695.695,0,0,1,.741,1.175c-1.051.663-2.118,1.32-3.173,1.952a.689.689,0,0,1-.357.1m-183.676-4.128a.685.685,0,0,1-.383-.117c-1.037-.687-2.076-1.394-3.091-2.1a.695.695,0,1,1,.794-1.141c1,.7,2.037,1.4,3.066,2.082a.695.695,0,0,1-.385,1.274m190.34-.084a.7.7,0,0,1-.385-1.274c1.02-.677,2.048-1.377,3.056-2.079a.695.695,0,1,1,.794,1.14c-1.016.708-2.054,1.412-3.081,2.1a.691.691,0,0,1-.383.117M94.821,337.474a.694.694,0,0,1-.409-.134c-1-.728-2-1.482-2.991-2.238a.694.694,0,1,1,.844-1.1c.981.75,1.979,1.5,2.967,2.219a.694.694,0,0,1-.41,1.255m203.292-.079a.694.694,0,0,1-.41-1.254c.99-.725,1.985-1.471,2.958-2.217a.695.695,0,1,1,.845,1.1c-.981.751-1.985,1.5-2.982,2.234a.7.7,0,0,1-.411.134M88.55,332.663a.693.693,0,0,1-.436-.154c-.963-.775-1.934-1.572-2.884-2.371a.695.695,0,1,1,.894-1.064c.943.792,1.905,1.584,2.861,2.352a.7.7,0,0,1-.436,1.237m215.819-.075a.695.695,0,0,1-.437-1.236c.952-.767,1.913-1.557,2.856-2.351a.7.7,0,1,1,.895,1.064c-.952.8-1.92,1.6-2.88,2.369a.69.69,0,0,1-.434.154M82.507,327.572a.7.7,0,0,1-.459-.173c-.93-.821-1.863-1.663-2.772-2.5a.695.695,0,0,1,.941-1.022c.9.832,1.828,1.666,2.75,2.48a.695.695,0,0,1-.459,1.215m227.9-.073a.694.694,0,0,1-.461-1.215c.919-.81,1.842-1.645,2.747-2.478a.694.694,0,1,1,.941,1.02c-.911.842-1.842,1.682-2.769,2.5a.688.688,0,0,1-.458.173M76.7,322.213a.693.693,0,0,1-.483-.2c-.879-.849-1.773-1.732-2.655-2.622a.694.694,0,0,1,.985-.978c.877.883,1.763,1.758,2.635,2.6a.7.7,0,0,1-.482,1.194M316.2,322.14a.695.695,0,0,1-.482-1.193c.876-.847,1.762-1.724,2.632-2.6a.7.7,0,0,1,.989.978c-.878.886-1.772,1.769-2.655,2.624a.7.7,0,0,1-.483.195M71.153,316.6a.7.7,0,0,1-.505-.218c-.848-.9-1.7-1.819-2.532-2.74a.695.695,0,0,1,1.03-.933c.825.912,1.67,1.827,2.512,2.719a.695.695,0,0,1-.505,1.172m250.594-.077a.695.695,0,0,1-.506-1.172c.845-.895,1.69-1.811,2.512-2.72a.695.695,0,1,1,1.031.931c-.829.917-1.68,1.84-2.533,2.743a.69.69,0,0,1-.5.218M65.866,310.734a.691.691,0,0,1-.527-.242c-.8-.933-1.614-1.892-2.4-2.851a.694.694,0,0,1,1.071-.883c.784.949,1.588,1.9,2.386,2.828a.694.694,0,0,1-.526,1.148m261.167-.084a.7.7,0,0,1-.526-1.148c.8-.933,1.606-1.887,2.386-2.833a.695.695,0,1,1,1.072.883c-.786.954-1.6,1.915-2.405,2.856a.691.691,0,0,1-.527.242M60.852,304.64a.693.693,0,0,1-.547-.266c-.761-.969-1.525-1.964-2.271-2.956a.694.694,0,1,1,1.111-.834c.74.984,1.5,1.971,2.253,2.932a.695.695,0,0,1-.546,1.124m271.2-.1a.694.694,0,0,1-.546-1.124c.761-.97,1.52-1.961,2.254-2.94a.695.695,0,0,1,1.112.834c-.74.988-1.5,1.984-2.272,2.963a.693.693,0,0,1-.548.267M56.122,298.326a.692.692,0,0,1-.565-.291c-.72-1.008-1.436-2.036-2.133-3.056a.695.695,0,1,1,1.148-.783c.69,1.013,1.4,2.033,2.116,3.032a.694.694,0,0,1-.565,1.1m280.661-.112a.694.694,0,0,1-.565-1.1c.711-1,1.424-2.021,2.118-3.041a.7.7,0,1,1,1.15.782c-.7,1.028-1.42,2.059-2.136,3.065a.694.694,0,0,1-.566.292m-285.1-6.41a.693.693,0,0,1-.584-.317c-.67-1.035-1.339-2.095-1.99-3.148a.695.695,0,0,1,1.182-.73c.646,1.045,1.309,2.095,1.974,3.123a.693.693,0,0,1-.583,1.071m289.535-.133a.695.695,0,0,1-.582-1.071c.67-1.038,1.335-2.093,1.977-3.136a.694.694,0,1,1,1.182.728c-.647,1.052-1.317,2.115-1.994,3.161a.69.69,0,0,1-.584.318M47.559,285.09a.692.692,0,0,1-.6-.344c-.623-1.065-1.242-2.154-1.843-3.235a.695.695,0,1,1,1.214-.675c.6,1.074,1.212,2.153,1.828,3.209a.695.695,0,0,1-.6,1.045m297.8-.16a.7.7,0,0,1-.35-.095.7.7,0,0,1-.25-.949c.617-1.061,1.234-2.145,1.831-3.225a.695.695,0,0,1,1.216.673c-.6,1.089-1.225,2.182-1.848,3.25a.693.693,0,0,1-.6.346M43.742,278.2a.7.7,0,0,1-.616-.372c-.571-1.09-1.139-2.2-1.691-3.314a.694.694,0,1,1,1.243-.618c.548,1.1,1.113,2.207,1.679,3.289a.694.694,0,0,1-.615,1.016M349.187,278a.694.694,0,0,1-.615-1.016c.566-1.086,1.132-2.2,1.682-3.307a.694.694,0,1,1,1.245.616c-.554,1.117-1.124,2.24-1.7,3.334a.7.7,0,0,1-.615.372M40.248,271.14a.7.7,0,0,1-.63-.4c-.524-1.121-1.04-2.262-1.536-3.387a.694.694,0,1,1,1.271-.56c.492,1.116,1,2.246,1.524,3.359a.694.694,0,0,1-.335.923.687.687,0,0,1-.293.066m312.441-.236a.7.7,0,0,1-.629-.988c.516-1.111,1.031-2.248,1.529-3.383a.695.695,0,1,1,1.272.559c-.5,1.143-1.02,2.29-1.541,3.41a.7.7,0,0,1-.63.4M37.083,263.933a.7.7,0,0,1-.644-.431c-.465-1.129-.931-2.294-1.384-3.466a.694.694,0,1,1,1.295-.5c.45,1.162.912,2.318,1.374,3.44a.694.694,0,0,1-.378.906.682.682,0,0,1-.263.053m318.778-.286a.694.694,0,0,1-.641-.958c.466-1.138.928-2.3,1.371-3.451a.695.695,0,1,1,1.3.5c-.448,1.161-.912,2.332-1.383,3.479a.7.7,0,0,1-.643.431M34.242,256.562a.694.694,0,0,1-.653-.461c-.42-1.168-.832-2.355-1.223-3.526a.694.694,0,1,1,1.317-.44c.388,1.161.8,2.337,1.212,3.5a.7.7,0,0,1-.653.93m324.454-.314a.711.711,0,0,1-.234-.04.7.7,0,0,1-.42-.889c.415-1.159.821-2.34,1.211-3.511a.695.695,0,1,1,1.319.438c-.393,1.181-.8,2.374-1.221,3.541a.694.694,0,0,1-.654.462m-326.951-7.18a.7.7,0,0,1-.663-.49c-.363-1.176-.719-2.381-1.059-3.579a.7.7,0,0,1,1.337-.38c.338,1.189.691,2.385,1.05,3.55a.7.7,0,0,1-.459.869.74.74,0,0,1-.2.03m329.441-.346a.687.687,0,0,1-.2-.03.7.7,0,0,1-.462-.867c.359-1.178.71-2.373,1.042-3.553a.695.695,0,1,1,1.337.378c-.334,1.188-.688,2.393-1.051,3.581a.7.7,0,0,1-.664.491M29.6,241.468a.7.7,0,0,1-.672-.523c-.309-1.2-.609-2.416-.892-3.624a.694.694,0,1,1,1.351-.317c.282,1.2.579,2.406.885,3.594a.7.7,0,0,1-.5.846.684.684,0,0,1-.174.023m333.72-.352a.666.666,0,0,1-.172-.022.694.694,0,0,1-.5-.845c.3-1.181.6-2.392.876-3.6a.695.695,0,0,1,1.353.315c-.282,1.214-.579,2.434-.885,3.626a.694.694,0,0,1-.672.523M27.8,233.776a.694.694,0,0,1-.678-.553c-.255-1.215-.5-2.448-.725-3.661a.694.694,0,1,1,1.365-.254c.225,1.2.467,2.424.719,3.631a.7.7,0,0,1-.538.822.791.791,0,0,1-.143.014m337.294-.355a.626.626,0,0,1-.142-.015.693.693,0,0,1-.54-.82c.249-1.208.489-2.43.71-3.632a.695.695,0,0,1,1.366.25c-.223,1.213-.464,2.446-.716,3.663a.694.694,0,0,1-.678.554M26.367,226.009a.694.694,0,0,1-.685-.584c-.2-1.213-.383-2.455-.555-3.69a.695.695,0,0,1,1.376-.192c.171,1.225.356,2.457.55,3.66a.7.7,0,0,1-.575.8.953.953,0,0,1-.111.008m340.151-.358a.759.759,0,0,1-.11-.008.7.7,0,0,1-.577-.8c.194-1.216.377-2.449.542-3.662a.7.7,0,0,1,1.377.189c-.168,1.223-.353,2.464-.548,3.691a.694.694,0,0,1-.685.585m-341.23-7.465a.694.694,0,0,1-.689-.616c-.142-1.233-.271-2.483-.385-3.712a.694.694,0,1,1,1.383-.127c.114,1.218.242,2.457.382,3.682a.694.694,0,0,1-.611.769.66.66,0,0,1-.079,0m342.292-.36a.631.631,0,0,1-.078,0,.693.693,0,0,1-.612-.769c.136-1.21.262-2.449.373-3.682a.695.695,0,0,1,1.384.125c-.113,1.243-.24,2.492-.378,3.713a.694.694,0,0,1-.689.617M24.567,210.32a.694.694,0,0,1-.691-.647c-.084-1.218-.157-2.472-.217-3.725a.694.694,0,1,1,1.387-.066c.06,1.245.132,2.488.215,3.7a.7.7,0,0,1-.646.74h-.048m343.717-.361a.344.344,0,0,1-.047,0,.693.693,0,0,1-.647-.737c.082-1.23.151-2.474.207-3.7a.694.694,0,0,1,1.387.063c-.056,1.233-.125,2.487-.207,3.726a.7.7,0,0,1-.694.648M24.205,202.431a.7.7,0,0,1-.695-.679c-.028-1.241-.044-2.5-.047-3.73a.694.694,0,0,1,.694-.7.7.7,0,0,1,.7.692c0,1.224.019,2.469.047,3.7a.694.694,0,0,1-.678.71h-.016m344.423-.361h-.014a.694.694,0,0,1-.681-.708c.026-1.226.039-2.472.039-3.7V197.4a.695.695,0,1,1,1.389,0v.252c0,1.245-.013,2.5-.039,3.735a.7.7,0,0,1-.695.681M24.2,194.532h-.016a.7.7,0,0,1-.679-.709c.027-1.235.069-2.489.121-3.73a.683.683,0,0,1,.724-.663.693.693,0,0,1,.664.723c-.052,1.231-.093,2.476-.12,3.7a.7.7,0,0,1-.694.679m344.411-.617a.694.694,0,0,1-.694-.676c-.033-1.247-.077-2.491-.134-3.7a.7.7,0,0,1,.662-.726.7.7,0,0,1,.726.662c.057,1.219.1,2.474.134,3.729a.694.694,0,0,1-.676.712ZM24.552,186.642l-.048,0a.693.693,0,0,1-.646-.739c.083-1.238.181-2.491.29-3.721a.695.695,0,1,1,1.384.124c-.109,1.219-.206,2.462-.287,3.689a.7.7,0,0,1-.692.649m343.682-.616a.694.694,0,0,1-.691-.647c-.087-1.221-.188-2.463-.3-3.69a.695.695,0,0,1,1.384-.127c.113,1.238.216,2.489.3,3.719a.7.7,0,0,1-.644.743l-.05,0M25.259,178.777a.657.657,0,0,1-.079,0,.7.7,0,0,1-.611-.769c.139-1.239.294-2.486.459-3.7a.694.694,0,1,1,1.376.186c-.163,1.208-.317,2.444-.456,3.674a.7.7,0,0,1-.689.617m342.238-.615a.7.7,0,0,1-.69-.613c-.144-1.229-.3-2.465-.468-3.673a.694.694,0,0,1,1.375-.191c.17,1.216.329,2.462.474,3.7a.691.691,0,0,1-.69.775M26.328,170.95a.635.635,0,0,1-.111-.009.694.694,0,0,1-.576-.795c.2-1.226.407-2.464.629-3.679a.695.695,0,1,1,1.366.249c-.22,1.205-.43,2.432-.624,3.649a.7.7,0,0,1-.685.585m340.073-.611a.694.694,0,0,1-.685-.583c-.195-1.2-.409-2.426-.636-3.645a.694.694,0,1,1,1.365-.255c.229,1.229.444,2.467.642,3.677a.7.7,0,0,1-.574.8.667.667,0,0,1-.113.008M27.753,163.183a.8.8,0,0,1-.143-.014.7.7,0,0,1-.539-.821c.252-1.211.519-2.437.8-3.646a.694.694,0,0,1,1.353.311c-.275,1.2-.542,2.417-.79,3.616a.7.7,0,0,1-.679.554m337.195-.6a.694.694,0,0,1-.678-.552c-.257-1.211-.527-2.426-.8-3.614a.694.694,0,0,1,1.352-.317c.281,1.2.553,2.424.811,3.643a.694.694,0,0,1-.536.823.656.656,0,0,1-.145.016m-335.413-7.09a.723.723,0,0,1-.172-.022.7.7,0,0,1-.5-.845c.307-1.2.63-2.408.966-3.606a.695.695,0,0,1,1.338.373c-.332,1.188-.654,2.392-.958,3.577a.7.7,0,0,1-.673.523m333.6-.6a.7.7,0,0,1-.672-.519c-.311-1.2-.637-2.4-.97-3.574a.694.694,0,1,1,1.336-.379c.336,1.184.665,2.4.979,3.6a.7.7,0,0,1-.673.87M31.671,147.883a.661.661,0,0,1-.2-.03.694.694,0,0,1-.461-.868c.36-1.178.743-2.379,1.135-3.569a.695.695,0,0,1,1.32.434c-.389,1.181-.769,2.373-1.126,3.542a.7.7,0,0,1-.664.491m329.3-.59a.694.694,0,0,1-.663-.489c-.363-1.169-.744-2.355-1.135-3.523a.694.694,0,1,1,1.317-.44c.394,1.178.779,2.373,1.144,3.552a.694.694,0,0,1-.458.869.675.675,0,0,1-.206.032m-326.81-6.935a.673.673,0,0,1-.233-.04.693.693,0,0,1-.42-.887c.417-1.166.854-2.349,1.3-3.513a.695.695,0,1,1,1.3.5c-.442,1.154-.875,2.326-1.289,3.483a.693.693,0,0,1-.654.461m324.3-.553a.7.7,0,0,1-.652-.458c-.421-1.164-.857-2.33-1.3-3.468a.695.695,0,1,1,1.3-.5c.443,1.148.883,2.324,1.307,3.5a.693.693,0,0,1-.417.888.661.661,0,0,1-.236.042M37,132.962a.693.693,0,0,1-.642-.958c.468-1.139.958-2.3,1.459-3.447a.695.695,0,0,1,1.274.555c-.5,1.14-.984,2.29-1.448,3.42a.694.694,0,0,1-.642.43m318.6-.52a.7.7,0,0,1-.642-.43c-.467-1.126-.954-2.267-1.449-3.392a.695.695,0,0,1,1.272-.56c.5,1.133.99,2.284,1.461,3.42a.7.7,0,0,1-.377.908.709.709,0,0,1-.265.053M40.18,125.707a.685.685,0,0,1-.293-.064.7.7,0,0,1-.335-.923c.522-1.121,1.066-2.256,1.616-3.374a.695.695,0,0,1,1.247.614c-.546,1.107-1.086,2.234-1.6,3.347a.692.692,0,0,1-.63.4m312.248-.466a.693.693,0,0,1-.628-.4c-.519-1.1-1.059-2.223-1.6-3.323a.695.695,0,0,1,1.245-.618c.55,1.111,1.094,2.239,1.617,3.351a.7.7,0,0,1-.628.991m-308.74-6.63a.695.695,0,0,1-.615-1.017c.578-1.105,1.174-2.214,1.769-3.295a.694.694,0,0,1,1.216.671c-.591,1.071-1.181,2.171-1.755,3.269a.693.693,0,0,1-.615.372m305.231-.421a.7.7,0,0,1-.615-.371c-.568-1.079-1.16-2.172-1.756-3.248a.695.695,0,0,1,1.215-.674c.6,1.086,1.2,2.186,1.77,3.274a.694.694,0,0,1-.614,1.019m-301.4-6.5a.681.681,0,0,1-.35-.095.7.7,0,0,1-.25-.949c.633-1.084,1.278-2.164,1.92-3.209a.694.694,0,1,1,1.184.726c-.635,1.037-1.275,2.107-1.9,3.183a.693.693,0,0,1-.6.344m297.572-.381a.7.7,0,0,1-.6-.343c-.623-1.063-1.264-2.129-1.9-3.166a.695.695,0,1,1,1.184-.728c.645,1.046,1.29,2.12,1.92,3.191a.7.7,0,0,1-.248.952.7.7,0,0,1-.351.095M51.657,104.946a.694.694,0,0,1-.583-1.071c.671-1.038,1.364-2.085,2.063-3.116a.694.694,0,1,1,1.149.78c-.691,1.022-1.381,2.062-2.046,3.091a.7.7,0,0,1-.584.317m289.287-.347a.7.7,0,0,1-.584-.316c-.672-1.037-1.362-2.071-2.047-3.078a.694.694,0,1,1,1.149-.781c.69,1.014,1.385,2.057,2.063,3.1a.7.7,0,0,1-.581,1.074M56.1,98.407a.7.7,0,0,1-.565-1.1c.724-1.014,1.466-2.03,2.2-3.017a.695.695,0,0,1,1.114.831c-.732.98-1.467,1.987-2.185,2.993a.7.7,0,0,1-.566.292m280.395-.32a.694.694,0,0,1-.565-.29c-.712-1-1.448-2-2.187-2.982a.695.695,0,0,1,1.112-.833c.745.993,1.486,2,2.2,3.005a.7.7,0,0,1-.564,1.1M60.839,92.079a.695.695,0,0,1-.546-1.124c.767-.977,1.553-1.958,2.337-2.912a.694.694,0,1,1,1.074.881c-.777.947-1.557,1.92-2.318,2.889a.691.691,0,0,1-.547.266m270.914-.3a.7.7,0,0,1-.546-.263c-.761-.967-1.543-1.935-2.321-2.881a.694.694,0,0,1,1.073-.882c.785.953,1.572,1.928,2.34,2.9a.694.694,0,0,1-.546,1.124M65.86,85.976a.694.694,0,0,1-.526-1.148c.812-.944,1.643-1.886,2.467-2.8a.695.695,0,0,1,1.032.93c-.818.909-1.642,1.843-2.447,2.779a.694.694,0,0,1-.527.242M326.727,85.7a.7.7,0,0,1-.526-.241c-.8-.928-1.627-1.861-2.451-2.771a.695.695,0,1,1,1.031-.932c.831.919,1.662,1.859,2.472,2.8a.7.7,0,0,1-.526,1.149M71.152,80.109a.694.694,0,0,1-.505-1.17c.848-.9,1.719-1.8,2.591-2.686a.695.695,0,0,1,.99.976c-.866.878-1.73,1.774-2.571,2.664a.689.689,0,0,1-.505.217m250.275-.262a.691.691,0,0,1-.5-.217c-.846-.892-1.712-1.787-2.575-2.658a.695.695,0,0,1,.988-.978c.87.88,1.743,1.781,2.6,2.681a.7.7,0,0,1-.026.981.686.686,0,0,1-.478.191M76.7,74.493A.695.695,0,0,1,76.22,73.3c.89-.859,1.8-1.723,2.71-2.563a.695.695,0,1,1,.944,1.019c-.9.834-1.806,1.69-2.688,2.542a.688.688,0,0,1-.483.2m239.162-.25a.7.7,0,0,1-.481-.195c-.894-.86-1.8-1.714-2.695-2.538a.695.695,0,0,1,.941-1.022c.9.832,1.816,1.693,2.718,2.56a.7.7,0,0,1-.482,1.2M82.5,69.136a.694.694,0,0,1-.459-1.215c.926-.817,1.875-1.637,2.823-2.437a.694.694,0,1,1,.9,1.061c-.941.795-1.883,1.608-2.8,2.418a.691.691,0,0,1-.459.173M310.049,68.9a.688.688,0,0,1-.457-.173c-.921-.809-1.865-1.621-2.809-2.414a.7.7,0,0,1,.9-1.064c.951.8,1.9,1.618,2.831,2.434a.7.7,0,0,1-.459,1.217M88.538,64.051a.694.694,0,0,1-.434-1.235c.97-.781,1.956-1.557,2.93-2.306a.695.695,0,1,1,.847,1.1c-.966.744-1.945,1.513-2.907,2.288a.7.7,0,0,1-.436.152m215.457-.234a.7.7,0,0,1-.433-.152c-.956-.765-1.937-1.534-2.916-2.285a.694.694,0,1,1,.845-1.1c.986.757,1.975,1.531,2.94,2.3a.7.7,0,0,1-.436,1.237M94.8,59.248a.7.7,0,0,1-.41-1.255c.99-.724,2.01-1.454,3.031-2.168a.695.695,0,0,1,.8,1.139c-1.014.708-2.025,1.432-3.007,2.15a.689.689,0,0,1-.409.134m202.917-.23a.7.7,0,0,1-.408-.133c-1-.728-2.016-1.452-3.019-2.149a.695.695,0,1,1,.794-1.14c1.012.7,2.034,1.432,3.043,2.166a.695.695,0,0,1-.409,1.257m-196.448-4.28a.7.7,0,0,1-.384-1.274c1.031-.684,2.082-1.366,3.126-2.027a.695.695,0,1,1,.744,1.174c-1.035.655-2.079,1.332-3.1,2.01a.693.693,0,0,1-.384.118m189.952-.226a.7.7,0,0,1-.382-.115c-1.021-.675-2.07-1.351-3.115-2.01a.695.695,0,0,1,.74-1.176c1.054.665,2.111,1.347,3.141,2.027a.695.695,0,0,1-.384,1.274M107.933,50.528a.694.694,0,0,1-.358-1.289c1.056-.634,2.137-1.266,3.214-1.882a.695.695,0,1,1,.689,1.206c-1.068.61-2.142,1.237-3.188,1.866a.7.7,0,0,1-.357.1M284.52,50.3a.691.691,0,0,1-.355-.1c-1.064-.635-2.142-1.262-3.206-1.864a.7.7,0,1,1,.685-1.21c1.073.609,2.159,1.241,3.232,1.882a.694.694,0,0,1-.356,1.29M114.782,46.631a.695.695,0,0,1-.33-1.307c1.09-.588,2.2-1.169,3.295-1.731a.7.7,0,1,1,.633,1.238c-1.087.556-2.187,1.133-3.269,1.716a.678.678,0,0,1-.329.084m162.851-.222a.683.683,0,0,1-.328-.082c-1.087-.583-2.194-1.16-3.288-1.716a.695.695,0,0,1,.629-1.239c1.1.562,2.219,1.143,3.315,1.73a.694.694,0,0,1-.329,1.307M121.8,43.053a.695.695,0,0,1-.3-1.321c1.111-.535,2.244-1.065,3.37-1.578a.695.695,0,1,1,.575,1.265c-1.116.507-2.241,1.033-3.342,1.565a.693.693,0,0,1-.3.069m148.773-.219a.7.7,0,0,1-.3-.069c-1.118-.535-2.252-1.059-3.367-1.564a.694.694,0,1,1,.572-1.265c1.124.507,2.266,1.037,3.394,1.576a.695.695,0,0,1-.3,1.322M128.97,39.8a.7.7,0,0,1-.273-1.335c1.133-.482,2.29-.96,3.437-1.419a.694.694,0,1,1,.516,1.289c-1.138.455-2.284.93-3.409,1.408a.684.684,0,0,1-.271.057m134.379-.216a.7.7,0,0,1-.269-.056c-1.138-.481-2.294-.954-3.436-1.407a.695.695,0,1,1,.512-1.291c1.152.457,2.318.934,3.465,1.419a.695.695,0,0,1-.271,1.335M136.292,36.88a.695.695,0,0,1-.243-1.346c1.16-.432,2.341-.857,3.511-1.264a.695.695,0,1,1,.456,1.312c-1.162.4-2.333.826-3.483,1.254a.671.671,0,0,1-.242.044m119.69-.2a.719.719,0,0,1-.241-.042c-1.159-.428-2.337-.848-3.5-1.248a.695.695,0,0,1,.453-1.313c1.172.4,2.36.826,3.528,1.257a.695.695,0,0,1-.241,1.347M143.755,34.294a.694.694,0,0,1-.211-1.356c1.181-.38,2.381-.749,3.566-1.1a.695.695,0,0,1,.4,1.332c-1.174.348-2.365.715-3.538,1.092a.719.719,0,0,1-.212.033m104.728-.187a.676.676,0,0,1-.21-.033c-1.174-.371-2.365-.735-3.541-1.079a.695.695,0,0,1,.39-1.334c1.186.348,2.388.714,3.57,1.089a.694.694,0,0,1-.209,1.357m-97.154-2.049a.695.695,0,0,1-.181-1.365c1.2-.323,2.411-.638,3.614-.935a.695.695,0,0,1,.333,1.349c-1.192.294-2.4.606-3.584.927a.648.648,0,0,1-.182.025M240.9,31.9a.726.726,0,0,1-.18-.023c-1.188-.317-2.394-.625-3.588-.915a.695.695,0,0,1,.328-1.35c1.2.293,2.42.6,3.618.922A.695.695,0,0,1,240.9,31.9M159,30.172a.695.695,0,0,1-.15-1.373c1.206-.267,2.435-.525,3.653-.768a.694.694,0,0,1,.271,1.362c-1.209.241-2.427.5-3.624.761a.65.65,0,0,1-.15.017m74.224-.133a.686.686,0,0,1-.148-.016c-1.2-.26-2.417-.512-3.627-.748a.695.695,0,0,1,.267-1.363c1.218.238,2.449.491,3.655.755a.694.694,0,0,1-.147,1.373m-66.476-1.4a.695.695,0,0,1-.119-1.38c1.221-.211,2.46-.413,3.684-.6a.694.694,0,1,1,.208,1.373c-1.214.184-2.443.384-3.654.595a.728.728,0,0,1-.119.01m58.723-.1a.714.714,0,0,1-.118-.01c-1.212-.206-2.441-.4-3.656-.58a.7.7,0,0,1,.2-1.375c1.225.181,2.465.378,3.687.587a.694.694,0,0,1-.115,1.378m-50.913-1.066a.7.7,0,0,1-.086-1.385c1.227-.155,2.475-.3,3.707-.428a.694.694,0,1,1,.145,1.381c-1.223.128-2.46.271-3.678.426a.6.6,0,0,1-.088.007m43.1-.078a.739.739,0,0,1-.085,0c-1.221-.15-2.459-.289-3.68-.412a.695.695,0,0,1,.14-1.383c1.231.124,2.479.265,3.71.416a.694.694,0,0,1-.085,1.383m-35.241-.735a.695.695,0,0,1-.056-1.387c1.234-.1,2.487-.186,3.724-.259a.694.694,0,1,1,.082,1.386c-1.227.073-2.469.16-3.694.258a.473.473,0,0,1-.056,0M209.8,26.61l-.054,0c-1.224-.095-2.466-.176-3.694-.245a.694.694,0,1,1,.077-1.386c1.237.068,2.49.15,3.724.245a.7.7,0,0,1-.052,1.388M190.3,26.2a.695.695,0,0,1-.024-1.389c1.235-.042,2.488-.073,3.726-.09a.695.695,0,0,1,.019,1.389c-1.227.016-2.471.047-3.7.09Zm11.61-.021h-.022c-1.224-.039-2.469-.065-3.7-.077a.695.695,0,0,1,.008-1.389h.007c1.242.013,2.5.038,3.731.078a.694.694,0,0,1-.022,1.388" transform="translate(2.084 2.197)" fill="#f7faf9"/>
          <path id="Trazado_19273" data-name="Trazado 19273" d="M196.234,364.927a.926.926,0,1,1,.931.917h-.01a.923.923,0,0,1-.921-.917m-3.25.893a.934.934,0,1,1,.013,0Zm7.408-.948a.927.927,0,1,1,.954.893h-.027a.925.925,0,0,1-.927-.893M188.8,365.7a.947.947,0,1,1,.037,0Zm15.758-.982a.925.925,0,1,1,.972.87c-.013,0-.033.005-.051.005a.921.921,0,0,1-.921-.875m-19.934.75a.9.9,0,1,1,.065,0,.305.305,0,0,1-.065,0m24.088-1.009a.924.924,0,1,1,1,.847.422.422,0,0,1-.074,0,.923.923,0,0,1-.921-.852m-28.261.681a.92.92,0,1,1,.088,0,.568.568,0,0,1-.088,0m32.4-1.042a.927.927,0,1,1,1.018.824.574.574,0,0,1-.1.005.927.927,0,0,1-.921-.83m-36.567.608a.9.9,0,1,1,.107.009.879.879,0,0,1-.107-.009m40.7-1.07a.927.927,0,1,1,1.037.8.531.531,0,0,1-.12.009.924.924,0,0,1-.917-.806m-44.85.532h0a.919.919,0,0,1-.788-1.046.926.926,0,1,1,.917,1.055.605.605,0,0,1-.128-.009m48.976-1.1a.925.925,0,1,1,1.055.773,1.16,1.16,0,0,1-.138.01.921.921,0,0,1-.917-.783M168,363.524a.927.927,0,1,1,.158.013.947.947,0,0,1-.158-.013m57.224-1.126a.925.925,0,1,1,1.075.746.956.956,0,0,1-.167.014.922.922,0,0,1-.908-.76m-61.34.385h0a.939.939,0,1,1,.175.014,1.275,1.275,0,0,1-.175-.014m65.429-1.157a.927.927,0,1,1,1.1.718.985.985,0,0,1-.189.023.93.93,0,0,1-.908-.74m-69.526.31a.927.927,0,1,1,.394-1.811.928.928,0,0,1-.2,1.834.987.987,0,0,1-.2-.023m73.6-1.181a.926.926,0,1,1,1.112.69.863.863,0,0,1-.212.023.924.924,0,0,1-.9-.713m-77.676.232a.925.925,0,1,1,.222.027.976.976,0,0,1-.222-.027m81.723-1.2a.926.926,0,1,1,1.13.663,1.087,1.087,0,0,1-.236.027.92.92,0,0,1-.894-.69m-85.776.158a.933.933,0,1,1,.246.032,1.237,1.237,0,0,1-.246-.032m89.795-1.231a.93.93,0,0,1,.636-1.149h0a.927.927,0,0,1,.51,1.782.977.977,0,0,1-.256.033.937.937,0,0,1-.894-.666m-93.818.078h0a.917.917,0,1,1,.27.041.925.925,0,0,1-.27-.041m97.815-1.255a.927.927,0,0,1,.6-1.163h0a.927.927,0,0,1,.552,1.769.955.955,0,0,1-.279.041.919.919,0,0,1-.88-.648m-101.807.005a.925.925,0,1,1,.287.046.891.891,0,0,1-.287-.046M249.4,356.259a.928.928,0,1,1,1.177.574.992.992,0,0,1-.3.051.928.928,0,0,1-.874-.625m-109.743-.075a.937.937,0,1,1,.31.051,1.029,1.029,0,0,1-.31-.051m113.675-1.3a.92.92,0,0,1,.546-1.19.926.926,0,1,1,.645,1.737.9.9,0,0,1-.324.061.923.923,0,0,1-.866-.608m-117.614-.157h0a.925.925,0,1,1,1.2-.532.935.935,0,0,1-.867.6.947.947,0,0,1-.333-.064m121.508-1.311a.925.925,0,1,1,1.2.514h-.005a.868.868,0,0,1-.342.065.92.92,0,0,1-.857-.579m-125.407-.241h0a.914.914,0,1,1,.351.074.86.86,0,0,1-.351-.074m129.245-1.324a.928.928,0,1,1,.853.561.927.927,0,0,1-.853-.561m-133.1-.324a.923.923,0,1,1,.369.078.88.88,0,0,1-.369-.078m136.908-1.333a.925.925,0,1,1,1.227.457.961.961,0,0,1-.389.084.918.918,0,0,1-.838-.541m-140.724-.407a.924.924,0,1,1,.393.088.917.917,0,0,1-.393-.088m144.483-1.344a.926.926,0,1,1,1.237.427.928.928,0,0,1-1.237-.427m-148.258-.5a.922.922,0,1,1,.417.1.906.906,0,0,1-.417-.1m151.978-1.348a.925.925,0,1,1,1.246.393.875.875,0,0,1-.427.108.914.914,0,0,1-.819-.5m-155.7-.583a.921.921,0,1,1,.436.11.928.928,0,0,1-.436-.11m159.369-1.357a.919.919,0,0,1,.364-1.255h0a.926.926,0,1,1,.894,1.621.9.9,0,0,1-.444.115.917.917,0,0,1-.809-.481m-163.042-.667a.923.923,0,1,1,.454.121.913.913,0,0,1-.454-.121m166.661-1.362a.927.927,0,1,1,1.271.334.936.936,0,0,1-1.271-.334m-170.281-.755a.919.919,0,1,1,.477.135.878.878,0,0,1-.477-.135m173.856-1.361a.923.923,0,1,1,.787.44.932.932,0,0,1-.787-.44M105.8,339.672a.926.926,0,1,1,.5.144.916.916,0,0,1-.5-.144m180.941-1.37a.927.927,0,1,1,1.283.268.94.94,0,0,1-.505.152.917.917,0,0,1-.777-.42m-184.45-.922h0a.927.927,0,1,1,.513.157.907.907,0,0,1-.513-.157M290.2,336a.926.926,0,1,1,1.287.241.909.909,0,0,1-.524.162.925.925,0,0,1-.763-.4M98.837,335a.932.932,0,1,1,.532.168.926.926,0,0,1-.532-.168m194.771-1.374a.932.932,0,0,1,.209-1.3.924.924,0,1,1-.209,1.3M95.447,332.541a.926.926,0,1,1,1.3-.189.937.937,0,0,1-.747.376.918.918,0,0,1-.55-.186m201.513-1.38a.924.924,0,1,1,1.3.175.922.922,0,0,1-1.3-.175M92.118,330a.936.936,0,1,1,.574.194.945.945,0,0,1-.574-.194m208.127-1.381a.927.927,0,1,1,1.446-1.162.922.922,0,0,1-.14,1.3.913.913,0,0,1-.578.2.933.933,0,0,1-.727-.343M88.858,327.374a.926.926,0,1,1,1.3-.125.919.919,0,0,1-1.3.125m214.613-1.385a.925.925,0,1,1,1.308.112.934.934,0,0,1-.6.218.922.922,0,0,1-.709-.33m-217.808-1.32a.925.925,0,1,1,1.306-.093.942.942,0,0,1-.7.32.9.9,0,0,1-.6-.228m220.966-1.384a.927.927,0,1,1,1.308.078v0a.924.924,0,0,1-1.308-.074m-224.1-1.4a.923.923,0,1,1,.625.242.923.923,0,0,1-.625-.242M309.718,320.5a.926.926,0,1,1,1.31.046.923.923,0,0,1-1.31-.046M79.476,319.029A.925.925,0,1,1,80.785,319a.931.931,0,0,1-.67.287.914.914,0,0,1-.639-.26m233.267-1.388a.927.927,0,1,1,.661.278.918.918,0,0,1-.661-.278M76.49,316.1a.925.925,0,1,1,1.311,0,.944.944,0,0,1-.653.269.93.93,0,0,1-.658-.273M315.7,314.705a.926.926,0,0,1,1.288-1.329.925.925,0,0,1,.019,1.31h0a.923.923,0,0,1-1.311.02M73.577,313.092a.927.927,0,1,1,1.31.037.944.944,0,0,1-.638.256.912.912,0,0,1-.672-.293M318.572,311.7a.928.928,0,1,1,1.311-.051.915.915,0,0,1-.681.3.924.924,0,0,1-.63-.245M70.739,310.019a.928.928,0,1,1,1.38-1.241l0,0a.925.925,0,0,1-1.376,1.237m250.64-1.394a.929.929,0,1,1,.61.226.928.928,0,0,1-.61-.226m-253.4-1.751a.927.927,0,1,1,.7.324.935.935,0,0,1-.7-.324m256.127-1.4a.926.926,0,1,1,.592.217.925.925,0,0,1-.592-.217M65.3,303.665a.926.926,0,1,1,1.306.134.939.939,0,0,1-.588.209.921.921,0,0,1-.718-.343m261.457-1.4a.926.926,0,1,1,1.3-.148.911.911,0,0,1-.723.353.935.935,0,0,1-.578-.2M62.7,300.391a.926.926,0,1,1,1.3.168.921.921,0,0,1-1.3-.168m266.624-1.408a.918.918,0,1,1,.555.191.9.9,0,0,1-.555-.191M60.181,297.053v.005a.927.927,0,1,1,1.291.194.921.921,0,0,1-1.291-.2m271.635-1.407a.926.926,0,1,1,1.29-.213.93.93,0,0,1-1.29.213M57.746,293.659h0a.926.926,0,1,1,1.287.228.892.892,0,0,1-.527.165.93.93,0,0,1-.76-.393m276.474-1.417a.922.922,0,1,1,.517.161.928.928,0,0,1-.517-.161M55.4,290.2a.924.924,0,1,1,1.542-1.019v0A.925.925,0,1,1,55.4,290.2m281.142-1.422a.921.921,0,1,1,.5.149.9.9,0,0,1-.5-.149M53.132,286.689a.926.926,0,1,1,1.57-.981.927.927,0,0,1-.782,1.418.933.933,0,0,1-.788-.437m285.637-1.425a.928.928,0,1,1,1.279-.31h-.005a.918.918,0,0,1-.792.444.975.975,0,0,1-.482-.134M50.962,283.12v0a.926.926,0,1,1,1.268.324.934.934,0,0,1-.471.13.919.919,0,0,1-.8-.458m289.957-1.432a.933.933,0,1,1,.463.121.922.922,0,0,1-.463-.121M48.878,279.5a.925.925,0,1,1,1.26.356.948.948,0,0,1-.455.115.911.911,0,0,1-.8-.471m294.1-1.446a.922.922,0,0,1-.371-1.254.928.928,0,1,1,.816,1.371.906.906,0,0,1-.444-.116M46.881,275.836a.927.927,0,1,1,1.252.389.975.975,0,0,1-.431.108.93.93,0,0,1-.821-.5m298.062-1.454a.927.927,0,1,1,1.245-.4.924.924,0,0,1-1.245.4M44.978,272.118h0a.927.927,0,1,1,1.241.421.908.908,0,0,1-.406.1.929.929,0,0,1-.835-.518m301.84-1.458a.936.936,0,1,1,.4.088.942.942,0,0,1-.4-.088m-303.65-2.3h.005a.922.922,0,1,1,.837.537.931.931,0,0,1-.843-.537M348.6,266.886a.936.936,0,1,1,.375.078.894.894,0,0,1-.375-.078M41.46,264.556a.924.924,0,1,1,1.218.478.893.893,0,0,1-.371.078.922.922,0,0,1-.847-.556m308.826-1.485a.926.926,0,1,1,.718-1.708.92.92,0,0,1,.5,1.208.934.934,0,0,1-.858.569.975.975,0,0,1-.356-.069M39.839,260.713h0a.928.928,0,1,1,1.209.51.94.94,0,0,1-.352.064.925.925,0,0,1-.857-.574m312.042-1.5a.917.917,0,1,1,.339.065.95.95,0,0,1-.339-.065M38.311,256.814a.928.928,0,1,1,1.194.542,1.031,1.031,0,0,1-.329.06.935.935,0,0,1-.866-.6m315.059-1.5a.925.925,0,1,1,.317.056.972.972,0,0,1-.317-.056M36.885,252.882a.925.925,0,1,1,1.745-.611h.005a.925.925,0,0,1-.574,1.176.876.876,0,0,1-.307.057.924.924,0,0,1-.87-.622m317.884-1.509a.927.927,0,0,1,.587-1.76.927.927,0,0,1-.3,1.806.907.907,0,0,1-.291-.047M35.552,248.915h0a.927.927,0,1,1,1.166.6,1.01,1.01,0,0,1-.282.041.931.931,0,0,1-.884-.639M356.065,247.4a.925.925,0,1,1,.27.041.889.889,0,0,1-.27-.041M34.324,244.913a.927.927,0,0,1,1.779-.523H36.1a.922.922,0,0,1-.623,1.148.858.858,0,0,1-.265.037.92.92,0,0,1-.885-.662m322.931-1.5a.929.929,0,0,1-.643-1.139h.005a.921.921,0,0,1,1.139-.644.927.927,0,0,1-.246,1.819.974.974,0,0,1-.255-.037M33.194,240.886v-.005a.925.925,0,1,1,1.13.658.83.83,0,0,1-.236.033.931.931,0,0,1-.894-.685M358.348,239.4a.931.931,0,1,1,.231.027,1.052,1.052,0,0,1-.231-.027M32.166,236.824a.924.924,0,1,1,1.117.685.915.915,0,0,1-.219.028.93.93,0,0,1-.9-.713m327.177-1.468a.93.93,0,0,1-.7-1.112h0a.928.928,0,1,1,.907,1.135,1.051,1.051,0,0,1-.2-.023M31.236,232.744a.925.925,0,1,1,1.1.714.947.947,0,0,1-.193.017.926.926,0,0,1-.908-.732m329-1.455a.914.914,0,1,1,.18.02,1.094,1.094,0,0,1-.18-.02M30.41,228.643a.926.926,0,1,1,1.086.736.806.806,0,0,1-.173.017.928.928,0,0,1-.912-.753M361.02,227.2a.926.926,0,1,1,.158.014.894.894,0,0,1-.158-.014m-331.33-2.68h0a.926.926,0,1,1,1.828-.3.921.921,0,0,1-.763,1.061.8.8,0,0,1-.148.013.926.926,0,0,1-.917-.776M361.7,223.1a.9.9,0,1,1,.139.014.756.756,0,0,1-.139-.014M29.068,220.382a.928.928,0,1,1,1.046.79,1.068,1.068,0,0,1-.128.01.932.932,0,0,1-.918-.8m333.225-1.4a.939.939,0,1,1,.111.005.756.756,0,0,1-.111-.005M28.554,216.227a.928.928,0,1,1,1.025.82.876.876,0,0,1-.107,0,.926.926,0,0,1-.918-.824m334.22-1.384a.926.926,0,1,1,.182-1.842.926.926,0,0,1-.088,1.848c-.033,0-.06-.005-.094-.005m-334.63-2.778a.925.925,0,1,1,1,.843c-.028,0-.052,0-.078,0a.924.924,0,0,1-.921-.846m335.01-1.372a.889.889,0,1,1,.07.005.3.3,0,0,1-.07-.005m-335.321-2.8a.925.925,0,1,1,.981.866h-.061a.918.918,0,0,1-.92-.866m335.6-1.348a.95.95,0,1,1,.041,0ZM27.624,203.711a.925.925,0,1,1,.958.891H28.55a.922.922,0,0,1-.926-.891M363.6,202.387a.938.938,0,1,1,.024,0ZM27.516,199.534h0a.926.926,0,1,1,.942.912h-.01a.928.928,0,0,1-.932-.912M362.751,197.3c0-.047.005-.093.01-.139s-.01-.093-.01-.138v-.005a.927.927,0,1,1,1.853,0c0,.047-.005.1-.01.144s.01.093.01.139a.927.927,0,0,1-1.853,0M28.43,196.284a.928.928,0,1,1,.014,0Zm334.261-3.4h0a.926.926,0,0,1,1.852-.051.933.933,0,0,1-.9.954h-.023a.931.931,0,0,1-.932-.9M28.5,192.121a.926.926,0,0,1-.891-.958h0a.926.926,0,1,1,.924.958Zm334.03-3.381a.927.927,0,1,1,.972.881c-.015,0-.028,0-.047,0a.934.934,0,0,1-.926-.885M28.68,187.963a.884.884,0,1,1,.054,0,.23.23,0,0,1-.054,0m333.595-3.353a.926.926,0,1,1,1,.856H363.2a.927.927,0,0,1-.921-.856m-333.313-.8a.927.927,0,1,1,.157-1.848.926.926,0,0,1-.079,1.848Zm332.951-3.325a.926.926,0,1,1,1.015.83c-.033,0-.061,0-.094,0a.923.923,0,0,1-.921-.834m-332.571-.824a.925.925,0,1,1,1.023-.82v0a.929.929,0,0,1-.922.825.817.817,0,0,1-.1-.01m332.108-3.287a.927.927,0,1,1,1.033.8.787.787,0,0,1-.116.01.929.929,0,0,1-.917-.81m-331.622-.843a.933.933,0,0,1-.8-1.047h0a.921.921,0,0,1,1.039-.79.927.927,0,0,1-.122,1.847,1.212,1.212,0,0,1-.124-.009m331.058-3.26a.927.927,0,1,1,1.056.777.714.714,0,0,1-.139.01.925.925,0,0,1-.917-.787M30.41,171.414a.945.945,0,1,1,.152.01c-.05,0-.1-.005-.152-.01m329.809-3.223a.925.925,0,1,1,1.073.75,1.026,1.026,0,0,1-.161.013.922.922,0,0,1-.911-.763M31.1,167.307a.913.913,0,1,1,.17.017.75.75,0,0,1-.17-.017m328.349-3.182h0a.926.926,0,0,1,1.814-.37v0a.923.923,0,0,1-.721,1.089.861.861,0,0,1-.186.017.924.924,0,0,1-.907-.74m-327.557-.9a.941.941,0,1,1,.189.017.958.958,0,0,1-.189-.017m326.685-3.145a.933.933,0,0,1,.7-1.111.926.926,0,0,1,.412,1.805.788.788,0,0,1-.207.023.925.925,0,0,1-.9-.718m-325.791-.921a.939.939,0,1,1,.213.023,1.084,1.084,0,0,1-.213-.023m324.824-3.1a.925.925,0,0,1,1.792-.458h0a.927.927,0,0,1-.671,1.125.781.781,0,0,1-.233.032.923.923,0,0,1-.893-.7m-323.835-.941a.922.922,0,1,1,.242.033,1.084,1.084,0,0,1-.242-.033m322.76-3.055a.926.926,0,1,1,1.144.639,1,1,0,0,1-.249.037.931.931,0,0,1-.9-.676M34.876,151.1a.926.926,0,1,1,.258.037.985.985,0,0,1-.258-.037m320.5-3.015a.924.924,0,1,1,1.156.612.969.969,0,0,1-.273.041.916.916,0,0,1-.883-.653m-319.3-.971a.933.933,0,1,1,.282.041,1,1,0,0,1-.282-.041M354.1,144.149h0a.928.928,0,1,1,1.177.578.968.968,0,0,1-.3.051.919.919,0,0,1-.876-.629m-316.734-1.01a.928.928,0,1,1,.306.051.853.853,0,0,1-.306-.051m315.364-2.9h0a.926.926,0,1,1,.872.612.925.925,0,0,1-.872-.612M38.764,139.2a.928.928,0,1,1,.326.06.9.9,0,0,1-.326-.06m312.5-2.833h0a.925.925,0,1,1,1.2.523.882.882,0,0,1-.338.065.92.92,0,0,1-.862-.588M40.261,135.3a.923.923,0,1,1,.347.07.923.923,0,0,1-.347-.07m309.451-2.755a.924.924,0,1,1,1.213.5,1.021,1.021,0,0,1-.362.074.922.922,0,0,1-.851-.569m-307.858-1.1a.92.92,0,1,1,.369.079.855.855,0,0,1-.369-.079m306.205-2.676h0a.927.927,0,1,1,1.227.464.869.869,0,0,1-.38.078.922.922,0,0,1-.847-.542M43.544,127.632a.924.924,0,1,1,1.227-.449h0a.932.932,0,0,1-.844.537.886.886,0,0,1-.388-.088m302.77-2.6a.934.934,0,1,1,.837.523.926.926,0,0,1-.837-.523M45.325,123.862a.92.92,0,1,1,.413.1.947.947,0,0,1-.413-.1m299.154-2.527a.925.925,0,1,1,1.644-.847h0a.93.93,0,0,1-.4,1.249.924.924,0,0,1-1.246-.4M47.2,120.135a.924.924,0,0,1-.39-1.25h.005a.924.924,0,0,1,1.25-.389.928.928,0,0,1-.437,1.75.913.913,0,0,1-.429-.111m295.348-2.45h0a.926.926,0,0,1,1.625-.888v0a.925.925,0,0,1-1.625.884M49.169,116.458a.927.927,0,1,1,1.26-.356.917.917,0,0,1-1.26.356m291.361-2.375a.926.926,0,0,1,1.6-.927.927.927,0,0,1-.8,1.389.919.919,0,0,1-.8-.463m-289.3-1.251a.924.924,0,1,1,.474.131.922.922,0,0,1-.474-.131m287.189-2.3h0a.928.928,0,0,1,1.584-.968H340a.922.922,0,0,1-.3,1.273.933.933,0,0,1-.481.139.923.923,0,0,1-.793-.444m-285.04-1.268a.926.926,0,1,1,1.279-.3.943.943,0,0,1-.788.44.91.91,0,0,1-.491-.144m282.84-2.232h0a.928.928,0,1,1,1.283.278.892.892,0,0,1-.5.148.939.939,0,0,1-.784-.426m-280.6-1.287a.92.92,0,1,1,.51.157.91.91,0,0,1-.51-.157m278.32-2.158a.927.927,0,1,1,1.288.245.9.9,0,0,1-.518.162.935.935,0,0,1-.77-.407m-276-1.3a.932.932,0,1,1,.528.167.943.943,0,0,1-.528-.167M331.57,100.2a.932.932,0,1,1,.753.384.921.921,0,0,1-.753-.384M60.342,98.887a.928.928,0,1,1,1.3-.2h0a.923.923,0,0,1-1.294.2m268.772-2.015a.932.932,0,1,1,.742.366.924.924,0,0,1-.742-.366M62.83,95.543a.931.931,0,1,1,.569.194.9.9,0,0,1-.569-.194M326.583,93.6a.926.926,0,1,1,1.3.148.9.9,0,0,1-.573.2.928.928,0,0,1-.727-.353M65.4,92.27a.925.925,0,1,1,1.3-.135.91.91,0,0,1-.716.343.932.932,0,0,1-.584-.208M323.966,90.4a.926.926,0,1,1,1.306.115.9.9,0,0,1-.592.219.927.927,0,0,1-.713-.334M68.052,89.056a.926.926,0,1,1,1.307-.1.915.915,0,0,1-1.307.1m253.224-1.8a.925.925,0,1,1,1.306.083.922.922,0,0,1-1.306-.083M70.785,85.911a.924.924,0,1,1,1.3-.07v0a.931.931,0,0,1-.688.307.906.906,0,0,1-.616-.242m247.722-1.723a.925.925,0,1,1,.676.3.928.928,0,0,1-.676-.3M73.591,82.837A.925.925,0,1,1,74.9,82.8a.91.91,0,0,1-.672.292.9.9,0,0,1-.634-.254m242.068-1.654a.927.927,0,1,1,1.31.02.935.935,0,0,1-1.31-.02M76.472,79.832a.923.923,0,1,1,1.3-.005.92.92,0,0,1-1.3.005m236.264-1.584h.007a.923.923,0,1,1,1.3-.014.906.906,0,0,1-.662.283.916.916,0,0,1-.649-.269M79.422,76.9a.926.926,0,1,1,1.31.028.94.94,0,0,1-.643.259.917.917,0,0,1-.666-.287m230.324-1.513a.932.932,0,1,1,.635.249.934.934,0,0,1-.635-.249m-227.3-1.344a.928.928,0,0,1,1.371-1.25.928.928,0,0,1-1.371,1.25M306.685,72.6h0a.926.926,0,1,1,1.231-1.384.926.926,0,0,1-.615,1.616.95.95,0,0,1-.616-.232M85.537,71.261a.927.927,0,1,1,.7.319.94.94,0,0,1-.7-.319M303.556,69.89a.933.933,0,1,1,.6.217.926.926,0,0,1-.6-.217M88.7,68.556a.939.939,0,1,1,.719.333.93.93,0,0,1-.719-.333m211.664-1.3a.932.932,0,0,1-.144-1.306.927.927,0,0,1,1.446,1.162.926.926,0,0,1-1.3.144M91.924,65.93a.925.925,0,1,1,1.3.159.963.963,0,0,1-.575.193.916.916,0,0,1-.726-.352M297.1,64.7a.926.926,0,1,1,.561.191.914.914,0,0,1-.561-.191M95.211,63.383a.922.922,0,1,1,.745.376.924.924,0,0,1-.745-.376m198.565-1.152a.927.927,0,1,1,1.292-.209.925.925,0,0,1-1.292.209M98.559,60.926a.927.927,0,1,1,1.291.218.916.916,0,0,1-.532.171.925.925,0,0,1-.759-.389m191.831-1.084h0a.925.925,0,1,1,.523.162.908.908,0,0,1-.523-.162m-188.423-1.3a.926.926,0,1,1,1.287.254.914.914,0,0,1-.514.158.938.938,0,0,1-.773-.412m184.978-1.01a.927.927,0,0,1,1.014-1.552.927.927,0,1,1-1.014,1.552M105.434,56.254a.926.926,0,1,1,1.279.282.9.9,0,0,1-.5.148.933.933,0,0,1-.784-.43m178.011-.936a.921.921,0,1,1,.486.139.933.933,0,0,1-.486-.139M108.954,54.049a.926.926,0,1,1,1.273.315.923.923,0,0,1-1.273-.315m170.934-.866a.919.919,0,1,1,.467.13.91.91,0,0,1-.467-.13M112.528,51.929a.926.926,0,1,1,1.265.346v.005a.957.957,0,0,1-.458.12.928.928,0,0,1-.807-.471m163.754-.788a.923.923,0,1,1,.445.117.927.927,0,0,1-.445-.117M116.155,49.9a.922.922,0,0,1,.379-1.255h0a.925.925,0,1,1,.874,1.63.871.871,0,0,1-.434.112.919.919,0,0,1-.816-.487m156.468-.718a.926.926,0,1,1,1.25-.394.934.934,0,0,1-.823.5.956.956,0,0,1-.427-.107m-152.8-1.218a.926.926,0,1,1,1.24.407.86.86,0,0,1-.412.1.926.926,0,0,1-.829-.51m149.093-.643a.926.926,0,1,1,.809-1.667.927.927,0,0,1-.407,1.76.885.885,0,0,1-.4-.093m-145.374-1.2a.924.924,0,1,1,1.23.444.929.929,0,0,1-.394.087.917.917,0,0,1-.836-.531m141.618-.566a.926.926,0,1,1,1.227-.458.919.919,0,0,1-.843.542.931.931,0,0,1-.384-.084M127.3,44.371a.926.926,0,1,1,1.223.473.9.9,0,0,1-.376.078.923.923,0,0,1-.847-.551m134.062-.491a.927.927,0,1,1,.366.075.933.933,0,0,1-.366-.075M131.112,42.718a.925.925,0,1,1,1.209.5.962.962,0,0,1-.358.07.913.913,0,0,1-.85-.569M257.527,42.3a.929.929,0,1,1,.343.065.911.911,0,0,1-.343-.065M134.964,41.153a.922.922,0,1,1,.866.592.93.93,0,0,1-.866-.592m118.688-.333a.928.928,0,1,1,.32.057.968.968,0,0,1-.32-.057m-114.8-1.139a.927.927,0,1,1,1.186.564,1,1,0,0,1-.31.051.927.927,0,0,1-.875-.615m110.882-.25a.918.918,0,1,1,.3.051.814.814,0,0,1-.3-.051m-106.95-1.12a.926.926,0,0,1,1.76-.578.934.934,0,0,1-.588,1.172h0a.892.892,0,0,1-.287.046.925.925,0,0,1-.88-.639m103-.167a.924.924,0,1,1,1.159-.606.934.934,0,0,1-.886.653.778.778,0,0,1-.272-.047m-99.038-1.1a.927.927,0,1,1,1.153.621,1.08,1.08,0,0,1-.268.037.927.927,0,0,1-.885-.658m95.069-.078h0a.918.918,0,1,1,.256.037.989.989,0,0,1-.256-.037m-91.077-1.1a.914.914,0,1,1,.894.685.924.924,0,0,1-.894-.685m87.081.01a.926.926,0,0,1,.463-1.793.927.927,0,0,1-.226,1.825.882.882,0,0,1-.236-.032M154.768,34.8a.925.925,0,1,1,1.12.676.97.97,0,0,1-.223.027.924.924,0,0,1-.9-.7m79.039.1a.924.924,0,1,1,.207.024.741.741,0,0,1-.207-.024m-74.993-1.069a.925.925,0,1,1,1.1.7.994.994,0,0,1-.2.024.927.927,0,0,1-.9-.727m70.949.186a.912.912,0,1,1,.185.022.819.819,0,0,1-.185-.022m-66.878-1.056a.925.925,0,1,1,1.083.732.747.747,0,0,1-.176.019.921.921,0,0,1-.907-.75m62.812.278a.928.928,0,1,1,.167.014.965.965,0,0,1-.167-.014m-58.724-1.046a.925.925,0,1,1,1.069.759h0a.811.811,0,0,1-.152.014.926.926,0,0,1-.912-.773m54.645.36h-.005a.9.9,0,1,1,.144.015.672.672,0,0,1-.138-.015m-50.538-1.027a.926.926,0,1,1,1.051.786c-.047,0-.088.01-.134.01a.93.93,0,0,1-.917-.8m46.434.453a.945.945,0,1,1,.121.005.9.9,0,0,1-.121-.005m-42.308-1.014a.925.925,0,1,1,1.028.81.976.976,0,0,1-.112,0,.922.922,0,0,1-.916-.814m38.2.537a.934.934,0,1,1,.1,0c-.032,0-.064,0-.1,0m-34.062-1a.925.925,0,1,1,1.009.838c-.033,0-.06.005-.088.005a.93.93,0,0,1-.921-.844m29.941.626a.965.965,0,1,1,.074,0Zm-25.791-.982a.926.926,0,1,1,.985.857.352.352,0,0,1-.065,0,.924.924,0,0,1-.92-.861m21.661.709a.95.95,0,1,1,.05,0Zm-17.508-.968a.925.925,0,1,1,.964.884h-.041a.924.924,0,0,1-.922-.884m13.373.8a.941.941,0,1,1,.027,0Zm-9.223-.949a.926.926,0,1,1,.944.908h-.017a.925.925,0,0,1-.927-.908m5.085.875a.923.923,0,1,1,.93-.921.922.922,0,0,1-.93.921Z" transform="translate(2.444 2.555)" fill="#93c4cc"/>
          <path id="Trazado_19274" data-name="Trazado 19274" d="M197.113,379.872A181.564,181.564,0,0,1,126.458,31.106a181.563,181.563,0,0,1,141.308,334.5,180.382,180.382,0,0,1-70.654,14.264m0-362.1c-99.578,0-180.589,81.012-180.589,180.589s81.011,180.59,180.589,180.59S377.7,297.936,377.7,198.357,296.691,17.768,197.113,17.768" transform="translate(1.385 1.497)" fill="#93c4cc"/>
          <path id="Trazado_19275" data-name="Trazado 19275" d="M39.08,173.339c11.532-76.752,78.853-134.63,156.595-134.63s145.063,57.878,156.6,134.63c.048.315.087.632.133.946,2.469.029,5,.248,7.5.13-.1-.727-.2-1.454-.306-2.178A165.8,165.8,0,0,0,31.776,172.1a72.189,72.189,0,0,1,7.2,1.969c.035-.242.066-.485.1-.725" transform="translate(2.823 2.781)" fill="#93c4cc"/>
          <path id="Trazado_19276" data-name="Trazado 19276" d="M197.925,304.615s.056-2.174,4.409-1.506,7.144,1.394,8.762,1.117,1.618,4.353,1.34,4.52a53.155,53.155,0,0,1-7.424.95c-.445-.169-7.087-5.081-7.087-5.081" transform="translate(17.582 26.915)" fill="#223b3f"/>
          <path id="Trazado_19277" data-name="Trazado 19277" d="M196.975,311.556s-2.12,1.451-1.4,5.3c.335,1.4,4.344.966,12.6,4.816s19.316,7.1,31.648.519c1.284-.672,2.289-5.861-2.177-6.252s-40.679-4.384-40.679-4.384" transform="translate(17.36 27.677)" fill="#d6ccc0"/>
          <path id="Trazado_19278" data-name="Trazado 19278" d="M214.306,309.172a2,2,0,0,1-2.132,1.84H201.826a2,2,0,0,1-2.133-1.84V295a2,2,0,0,1,2.133-1.84h10.348a2,2,0,0,1,2.132,1.84Z" transform="translate(17.739 26.042)" fill="#996133"/>
          <path id="Trazado_19279" data-name="Trazado 19279" d="M198.071,304.823s-1.841,6.754-1.785,8.318c5.133,1.562,3.562.908,8.639,3.308s25.344,9.166,34.218,1.744c1.115-1.116-1.34-7.654-13.783-10.669-2.4-.947-6.026-4.764-7.42-6.774-2.344-.669-5.8,1.786-9.934,5.58s-9.766-3.293-9.933-1.507" transform="translate(17.436 26.707)" fill="#264147"/>
          <path id="Trazado_19280" data-name="Trazado 19280" d="M219.126,309.82a4.476,4.476,0,0,1-.425-2.73,9.064,9.064,0,0,0-1.867.685.39.39,0,0,1-.364-.007.381.381,0,0,1-.2-.3,6.07,6.07,0,0,1,.11-2.113c-.112.01-.226.023-.342.034-.82.084-1.754.18-2.829.272a.384.384,0,0,1-.37-.189.39.39,0,0,1,.01-.416,6.617,6.617,0,0,1,5.526-2.686.392.392,0,0,1,.257.67,5.917,5.917,0,0,0-1.071,1.413,11.545,11.545,0,0,1,2.914-.01.389.389,0,0,1,.308.273.4.4,0,0,1-.106.4,4.394,4.394,0,0,0-.775.955,11.082,11.082,0,0,1,2.476-.053.394.394,0,0,1,.342.436.388.388,0,0,1-.434.343,11.12,11.12,0,0,0-2.747.124,3.53,3.53,0,0,0,.269,2.514.392.392,0,1,1-.679.39m.462-4.679a21.44,21.44,0,0,0-2.368.13,4.91,4.91,0,0,0-.208,1.558,10.557,10.557,0,0,1,1.937-.6,4.5,4.5,0,0,1,.639-1.084m-2.155-1.933a5.772,5.772,0,0,0-3.379,1.589c.7-.065,1.328-.128,1.9-.188.24-.024.467-.048.687-.069a5.946,5.946,0,0,1,.789-1.332" transform="translate(18.902 26.861)" fill="#d6ccc0"/>
          <path id="Trazado_19281" data-name="Trazado 19281" d="M166.9,304.615s-.056-2.174-4.409-1.506-7.143,1.394-8.762,1.117-1.618,4.353-1.34,4.52a53.192,53.192,0,0,0,7.425.95c.444-.169,7.086-5.081,7.086-5.081" transform="translate(13.524 26.915)" fill="#264147"/>
          <path id="Trazado_19282" data-name="Trazado 19282" d="M170.364,311.556s2.12,1.451,1.4,5.3c-.336,1.4-4.346.966-12.6,4.816s-19.317,7.1-31.649.519c-1.284-.672-2.288-5.861,2.178-6.252s40.679-4.384,40.679-4.384" transform="translate(11.23 27.677)" fill="#e1d5c9"/>
          <path id="Trazado_19283" data-name="Trazado 19283" d="M150.514,309.172a2,2,0,0,0,2.132,1.84h10.348a2,2,0,0,0,2.134-1.84V295a2,2,0,0,0-2.134-1.84H152.646a2,2,0,0,0-2.132,1.84Z" transform="translate(13.37 26.042)" fill="#a06937"/>
          <path id="Trazado_19284" data-name="Trazado 19284" d="M169.073,304.823s1.841,6.754,1.786,8.318c-5.133,1.562-3.563.908-8.64,3.308s-25.344,9.166-34.217,1.744c-1.116-1.116,1.339-7.654,13.784-10.669,2.4-.947,6.025-4.764,7.419-6.774,2.344-.669,5.8,1.786,9.935,5.58s9.766-3.293,9.933-1.507" transform="translate(11.349 26.707)" fill="#2b4a51"/>
          <path id="Trazado_19285" data-name="Trazado 19285" d="M145.086,310.017a.386.386,0,0,1-.194-.053.39.39,0,0,1-.145-.534,3.526,3.526,0,0,0,.269-2.513,11.091,11.091,0,0,0-2.747-.125.386.386,0,0,1-.434-.343.391.391,0,0,1,.343-.434,11.019,11.019,0,0,1,2.474.052,4.453,4.453,0,0,0-.774-.955.392.392,0,0,1,.2-.67,11.545,11.545,0,0,1,2.914.01,5.94,5.94,0,0,0-1.071-1.413.392.392,0,0,1,.257-.67,6.618,6.618,0,0,1,5.527,2.687.393.393,0,0,1,.01.415.385.385,0,0,1-.371.189c-1.074-.093-2.008-.188-2.828-.272-.117-.01-.23-.023-.341-.034a6.2,6.2,0,0,1,.11,2.113.393.393,0,0,1-.566.308,9.055,9.055,0,0,0-1.868-.685,4.481,4.481,0,0,1-.425,2.73.391.391,0,0,1-.34.2m.517-3.79a10.524,10.524,0,0,1,1.939.6,4.981,4.981,0,0,0-.209-1.559,21.189,21.189,0,0,0-2.368-.129,4.57,4.57,0,0,1,.638,1.084m2.3-1.687.687.069c.576.06,1.207.124,1.9.188a5.794,5.794,0,0,0-3.38-1.589,5.821,5.821,0,0,1,.788,1.332" transform="translate(12.599 26.861)" fill="#e1d5c9"/>
          <path id="Trazado_19286" data-name="Trazado 19286" d="M191.822,120.147h-9.6l-1.044,6.475,1.044,6.586h9.6Z" transform="translate(16.094 10.674)" fill="#996133"/>
          <rect id="Rectángulo_8786" data-name="Rectángulo 8786" width="9.62" height="13.062" transform="translate(188.693 130.821)" fill="#a06937"/>
          <path id="Trazado_19287" data-name="Trazado 19287" d="M167.523,306.63H148.38V217.921l32.214,3.127s-1.49.836-5.2,7.046c-5.061,8.461-7.869,78.536-7.869,78.536" transform="translate(13.181 19.359)" fill="#8c643e"/>
          <path id="Trazado_19288" data-name="Trazado 19288" d="M199.376,306.63h19.142V217.921L186.3,221.048s1.492.836,5.2,7.046c5.062,8.461,7.87,78.536,7.87,78.536" transform="translate(16.549 19.359)" fill="#8c643e"/>
          <path id="Trazado_19289" data-name="Trazado 19289" d="M148.38,191.932v30.379s27.56,2.089,36.752,2.089l1.045-13.247-1.045-19.222Z" transform="translate(13.181 17.051)" fill="#8c643e"/>
          <path id="Trazado_19290" data-name="Trazado 19290" d="M182.135,191.932V224.4c9.191,0,36.751-2.089,36.751-2.089V191.932Z" transform="translate(16.179 17.051)" fill="#8c643e"/>
          <path id="Trazado_19291" data-name="Trazado 19291" d="M170.862,299.159a1.03,1.03,0,0,1-1.016,1.044h-23.7a1.029,1.029,0,0,1-1.015-1.044v-7.836a1.029,1.029,0,0,1,1.015-1.045h23.7a1.029,1.029,0,0,1,1.016,1.045Z" transform="translate(12.892 25.787)" fill="#8c643e"/>
          <path id="Trazado_19292" data-name="Trazado 19292" d="M220.817,299.159A1.03,1.03,0,0,1,219.8,300.2H196.1a1.03,1.03,0,0,1-1.016-1.044v-7.836a1.03,1.03,0,0,1,1.016-1.045h23.7a1.03,1.03,0,0,1,1.015,1.045Z" transform="translate(17.329 25.787)" fill="#8c643e"/>
          <path id="Trazado_19293" data-name="Trazado 19293" d="M157.147,131.662c-6.519,0-11.8,4.861-11.8,13.432l3.306,60.234h36.94l1.044-33.016-1.044-40.65Z" transform="translate(12.911 11.697)" fill="#5aaa9c"/>
          <path id="Trazado_19294" data-name="Trazado 19294" d="M222.426,145.094c0-8.571-5.284-13.432-11.8-13.432H182.135v73.666h36.75Z" transform="translate(16.179 11.697)" fill="#509d8e"/>
          <path id="Trazado_19295" data-name="Trazado 19295" d="M209.4,205.391V132.357a1.389,1.389,0,0,0-1.389-1.388h-4.079a1.389,1.389,0,0,0-1.389,1.388v73.033Z" transform="translate(17.992 11.635)" fill="#d6ccc0"/>
          <path id="Trazado_19296" data-name="Trazado 19296" d="M168.362,155.725l11.666-12.5-15.183-11.564h-6.9Z" transform="translate(14.031 11.697)" fill="#478879"/>
          <path id="Trazado_19297" data-name="Trazado 19297" d="M197.963,155.725l-11.646-12.606,15.3-11.457h6.759Z" transform="translate(16.551 11.697)" fill="#478879"/>
          <path id="Trazado_19298" data-name="Trazado 19298" d="M182.212,130.7l-1.045,9.958,1.045,13.6.032.083,4.531-11.142,15.259-11.456Z" transform="translate(16.093 11.612)" fill="#f9f9f9"/>
          <path id="Trazado_19299" data-name="Trazado 19299" d="M164.282,131.748l15.184,11.563,4.245,10.951V130.7Z" transform="translate(14.593 11.612)" fill="#fff"/>
          <path id="Trazado_19300" data-name="Trazado 19300" d="M161.654,205.391V132.357a1.389,1.389,0,0,0-1.389-1.388h-4.078a1.39,1.39,0,0,0-1.39,1.388v73.033Z" transform="translate(13.751 11.635)" fill="#d6ccc0"/>
          <path id="Rectángulo_8787" data-name="Rectángulo 8787" d="M2.8,0h4.47a2.793,2.793,0,0,1,2.793,2.793V7.264a2.794,2.794,0,0,1-2.794,2.794H2.8A2.8,2.8,0,0,1,0,7.263V2.8A2.8,2.8,0,0,1,2.8,0Z" transform="translate(166.948 213.79)" fill="#c55a28"/>
          <path id="Rectángulo_8788" data-name="Rectángulo 8788" d="M2.8,0h4.47a2.794,2.794,0,0,1,2.794,2.794v4.47a2.794,2.794,0,0,1-2.794,2.794H2.8A2.8,2.8,0,0,1,0,7.263V2.8A2.8,2.8,0,0,1,2.8,0Z" transform="translate(218.934 213.79)" fill="#bd5328"/>
          <path id="Trazado_19301" data-name="Trazado 19301" d="M234.755,63.279a48.541,48.541,0,1,1-48.54-48.54,48.54,48.54,0,0,1,48.54,48.54" transform="translate(12.23 1.31)" fill="#3f3f3f"/>
          <path id="Trazado_19302" data-name="Trazado 19302" d="M182.269,14.739l-.179,0v97.076l.179,0a48.54,48.54,0,1,0,0-97.08" transform="translate(16.175 1.31)" fill="#353535"/>
          <path id="Trazado_19303" data-name="Trazado 19303" d="M217.282,92c-.087,2.167-.882,4.8-3.045,4.684a3.925,3.925,0,0,1-3.7-4.136l.722-13a3.926,3.926,0,0,1,4.138-3.7,3.8,3.8,0,0,1,3.7,4.135c-.463,3-1.574,6.141-1.811,12.021" transform="translate(18.701 6.737)" fill="#996133"/>
          <path id="Trazado_19304" data-name="Trazado 19304" d="M147.609,92c.086,2.167.882,4.8,3.045,4.684a3.926,3.926,0,0,0,3.7-4.136l-.723-13a3.923,3.923,0,0,0-4.135-3.7,3.8,3.8,0,0,0-3.7,4.135c.465,3,1.574,6.141,1.814,12.021" transform="translate(12.948 6.737)" fill="#a06937"/>
          <path id="Trazado_19305" data-name="Trazado 19305" d="M167.285,39.392A17.658,17.658,0,0,0,150.642,52.14V72.168l2.14,34.368c0,10.257,7.847,18.571,17.528,18.571h22.34V39.392Z" transform="translate(13.382 3.5)" fill="#a06937"/>
          <path id="Trazado_19306" data-name="Trazado 19306" d="M216.362,51.747a17.631,17.631,0,0,0-16.518-12.355H182.1v85.715H196.82c9.68,0,17.527-8.314,17.527-18.571l2.015-32.355Z" transform="translate(16.176 3.5)" fill="#996133"/>
          <path id="Trazado_19307" data-name="Trazado 19307" d="M170.383,124.281c-9.169,0-16.629-7.928-16.629-17.672l-2.141-34.4V52.351a16.714,16.714,0,0,1,15.744-11.987h17.778v-1.8H167.358a18.511,18.511,0,0,0-17.5,13.378l-.041.132V72.24l2.141,34.4c.014,10.724,8.274,19.441,18.426,19.441h14.754v-1.8Z" transform="translate(13.308 3.427)" fill="#3f3f3f"/>
          <path id="Trazado_19308" data-name="Trazado 19308" d="M217.2,51.534a18.55,18.55,0,0,0-17.369-12.967H182.255v1.8h17.577a16.748,16.748,0,0,1,15.619,11.6V74.226l-2.014,32.326v.057c0,9.744-7.461,17.673-16.629,17.673H182.255v1.8h14.552c10.151,0,18.411-8.718,18.425-19.442l2.014-32.327V51.673Z" transform="translate(16.19 3.427)" fill="#353535"/>
          <path id="Trazado_19309" data-name="Trazado 19309" d="M203.015,77.159a3.423,3.423,0,1,1-3.367-2.8,3.124,3.124,0,0,1,3.367,2.8" transform="translate(17.436 6.606)" fill="#353535"/>
          <path id="Trazado_19310" data-name="Trazado 19310" d="M201.343,76.6a.96.96,0,1,1-.959-.961.96.96,0,0,1,.959.961" transform="translate(17.715 6.72)" fill="#f7d8ba"/>
        </g>
      </g>
      <g id="Grupo_13536" data-name="Grupo 13536" transform="translate(191.094 78.261)">
        <g id="Grupo_13535" data-name="Grupo 13535" clip-path="url(#clip-path-3)">
          <rect id="Rectángulo_8790" data-name="Rectángulo 8790" width="7.973" height="30.363" transform="translate(-0.624 0.013) rotate(-1.184)" fill="url(#linear-gradient)"/>
        </g>
      </g>
      <g id="Grupo_13538" data-name="Grupo 13538" transform="translate(198.27 78.261)">
        <g id="Grupo_13537" data-name="Grupo 13537" clip-path="url(#clip-path-4)">
          <rect id="Rectángulo_8791" data-name="Rectángulo 8791" width="8.287" height="30.4" transform="translate(-0.765 0.019) rotate(-1.45)" fill="url(#linear-gradient-2)"/>
        </g>
      </g>
      <g id="Grupo_13540" data-name="Grupo 13540" transform="translate(0 -0.001)">
        <g id="Grupo_13539" data-name="Grupo 13539" clip-path="url(#clip-path-2)">
          <path id="Trazado_19313" data-name="Trazado 19313" d="M179.268,97.525a2.472,2.472,0,1,1-2.389-1.838,2.168,2.168,0,0,1,2.389,1.838" transform="translate(15.5 8.501)" fill="#996133"/>
          <path id="Trazado_19314" data-name="Trazado 19314" d="M190.329,97.525a2.473,2.473,0,1,1-2.389-1.838,2.168,2.168,0,0,1,2.389,1.838" transform="translate(16.482 8.501)" fill="#915a30"/>
          <path id="Trazado_19315" data-name="Trazado 19315" d="M168.632,77.159a3.423,3.423,0,1,1-3.367-2.8,3.124,3.124,0,0,1,3.367,2.8" transform="translate(14.382 6.606)" fill="#3f3f3f"/>
          <path id="Trazado_19316" data-name="Trazado 19316" d="M166.953,76.555a.916.916,0,1,1-.915-.917.915.915,0,0,1,.915.917" transform="translate(14.668 6.72)" fill="#f7d8ba"/>
          <path id="Trazado_19317" data-name="Trazado 19317" d="M157.4,69.767a1.6,1.6,0,0,1-.96-.41,1.178,1.178,0,0,1,.051-1.828,17.357,17.357,0,0,1,8.518-4.177c5.089-.74,10.459,1.284,10.82,1.344a1.191,1.191,0,0,1,.7,1.688,1.621,1.621,0,0,1-1.972.747c-.14,0-4.832-1.859-9.168-1.222a13.35,13.35,0,0,0-6.824,3.5,1.571,1.571,0,0,1-1.169.36" transform="translate(13.86 5.614)" fill="#3f3f3f"/>
          <path id="Trazado_19318" data-name="Trazado 19318" d="M208.766,69.767a1.6,1.6,0,0,0,.96-.41,1.178,1.178,0,0,0-.051-1.828,17.357,17.357,0,0,0-8.518-4.177c-5.089-.74-10.459,1.284-10.82,1.344a1.19,1.19,0,0,0-.7,1.688,1.62,1.62,0,0,0,1.971.747c.14,0,4.833-1.859,9.169-1.222a13.35,13.35,0,0,1,6.824,3.5,1.571,1.571,0,0,0,1.169.36" transform="translate(16.833 5.614)" fill="#353535"/>
          <path id="Trazado_19319" data-name="Trazado 19319" d="M202.131,47.666a2.92,2.92,0,0,1,2.92,2.921,4.118,4.118,0,0,0,4.118,4.118c4.26,0,6.365,3.453,6.365,7.712l.3,14.29h1.7V41.176A11.034,11.034,0,0,0,206.5,30.143H179.877l-3.146,9.049,3.146,8.473Z" transform="translate(15.699 2.679)" fill="#353535"/>
          <path id="Trazado_19320" data-name="Trazado 19320" d="M151.831,76.706l.159-14.29c0-4.26,1.656-7.712,5.917-7.712a4.118,4.118,0,0,0,4.118-4.118,2.92,2.92,0,0,1,2.92-2.921H184.95V30.142H161.025a11.033,11.033,0,0,0-11.032,11.033V76.706Z" transform="translate(13.324 2.679)" fill="#3f3f3f"/>
          <path id="Trazado_19321" data-name="Trazado 19321" d="M182.5,124.389h9.324a5.738,5.738,0,0,0,0-11.456H182.5l-4.942,7.525Z" transform="translate(15.772 10.033)" fill="#996133"/>
          <path id="Trazado_19322" data-name="Trazado 19322" d="M183.3,112.933h-9.324a5.738,5.738,0,0,0,0,11.456H183.3Z" transform="translate(14.974 10.033)" fill="#a06937"/>
          <path id="Trazado_19323" data-name="Trazado 19323" d="M198.584,106.7a.673.673,0,0,0-.136-.428.909.909,0,0,0-.088-.108c-.723-1.623-2.62-3.4-5.794-4.074a17.6,17.6,0,0,0-9.209.573,17.612,17.612,0,0,0-9.209-.574c-3.3.7-5.224,2.6-5.879,4.269h.024a5.762,5.762,0,0,0-.541,2.434v9.582a7.468,7.468,0,0,0,7.46,7.46h16.306a7.468,7.468,0,0,0,7.46-7.46v-9.582a5.756,5.756,0,0,0-.393-2.092m-1.09,11.429a5.907,5.907,0,0,1-5.907,5.907H175.245a5.906,5.906,0,0,1-5.906-5.907v-7.515a3.725,3.725,0,0,1,3.725-3.726H193.77a3.725,3.725,0,0,1,3.725,3.726Z" transform="translate(14.902 9.038)" fill="#3f3f3f"/>
          <path id="Trazado_19324" data-name="Trazado 19324" d="M197.311,106.7a.675.675,0,0,0-.136-.428.909.909,0,0,0-.088-.108c-.723-1.623-2.62-3.4-5.794-4.074a17.605,17.605,0,0,0-9.2.569v4.229h10.4a3.725,3.725,0,0,1,3.725,3.726v7.515a5.907,5.907,0,0,1-5.907,5.907h-8.223v1.8h8.153a7.468,7.468,0,0,0,7.46-7.46v-9.582a5.756,5.756,0,0,0-.393-2.092" transform="translate(16.175 9.038)" fill="#353535"/>
          <path id="Trazado_19325" data-name="Trazado 19325" d="M196.618,111.348a.762.762,0,0,0-.021-.118c.174-1.357-.684-3.782-3.725-5.622a13.207,13.207,0,0,0-9.7-1.5,13.207,13.207,0,0,0-9.7,1.533c-3.158,1.935-3.948,4.469-3.684,5.806l.024-.02c.267,1.468,6.68.106,13.4.26,6.83-.162,13.395,1.26,13.4-.344" transform="translate(15.078 9.218)" fill="#915a30"/>
          <path id="Trazado_19326" data-name="Trazado 19326" d="M195.523,111.348a.762.762,0,0,0-.021-.118c.174-1.357-.684-3.782-3.725-5.622a13.207,13.207,0,0,0-9.7-1.5h-.007q.008,3.791.016,7.58h.036c6.83-.162,13.395,1.26,13.4-.344" transform="translate(16.173 9.218)" fill="#84502c"/>
          <path id="Trazado_19327" data-name="Trazado 19327" d="M193.421,109.689s-10.555-2.036-20.7.107a1.81,1.81,0,0,1-.334-.935s2.066-2.4,10.822-2.394c4.691-.1,9.27,1.6,10.373,2.374a1.329,1.329,0,0,1-.165.849" transform="translate(15.314 9.458)" fill="#5e381e"/>
          <path id="Trazado_19328" data-name="Trazado 19328" d="M172.391,108.86a1.8,1.8,0,0,0,.334.934,50.017,50.017,0,0,1,10.313-.98v-2.348c-8.606.026-10.648,2.393-10.648,2.393" transform="translate(15.314 9.459)" fill="#6b4022"/>
          <path id="Trazado_19329" data-name="Trazado 19329" d="M117.956,64.066l9.033-10.412s2.615-15.21,4.251-17.94,6.4-7.672,15.068-11.264l4.307-.83,12.111-.172a2.562,2.562,0,0,1,2.117,3.157,2.538,2.538,0,0,1-3.157,2.119l-10.2.431s-7.706,5.949-7.02,10.975,1.087,9.786-4.476,14.077L124.4,76.72Z" transform="translate(10.478 2.084)" fill="#996133"/>
          <path id="Trazado_19330" data-name="Trazado 19330" d="M150.525,162.379l6.293-8.014s2.326-11.927.4-13.7c-39.056-35.975-19.589-77.229-18.7-79.049L119.809,52.3a88.854,88.854,0,0,0-7.779,37.155c.1,19.553,6.855,48.078,38.495,72.92" transform="translate(9.952 4.647)" fill="#5aaa9c"/>
          <path id="Trazado_19331" data-name="Trazado 19331" d="M195.591,237.011H159.645s17.005.985,17.005-48.3S194.8,141.151,194.8,141.151h35.947S212.6,139.761,212.6,188.715s-17.006,48.3-17.006,48.3" transform="translate(14.181 12.539)" fill="#ccc"/>
          <path id="Trazado_19332" data-name="Trazado 19332" d="M201.673,174.452l-6.958-10.713a1.617,1.617,0,1,1,2.535-2.008l5.507,6.955c.809.52.751-.54.751-.54l-6.873-8.68a1.618,1.618,0,0,1,2.537-2.008l6.719,8.487c.883.425-.211-.47-.211-.47l-6.6-9.617a1.618,1.618,0,0,1,2.537-2.01l7.38,9.323s1.272.119.593-.737L202.68,153.7a1.616,1.616,0,1,1,2.535-2.007l5.826,7.357a1.584,1.584,0,0,1,.541-1.859,1.618,1.618,0,0,1,2.264.327l5.325,7.21c.046.063.093.125.135.186l.124.168c.027.036.049.082.075.122,2.3,3.363,1.242,5.425,1.317,6.7.083,1.407,5.114,6.706,5.114,6.706s-6.5,5.688-8.13,6.979c-1.043-1.875-4.83-6.1-5.8-6.019a11.6,11.6,0,0,1-6.6-2.632c-1.087-.837-3.19-1.536-3.734-2.483" transform="translate(17.266 13.421)" fill="#996133"/>
          <path id="Trazado_19333" data-name="Trazado 19333" d="M240.907,180.82s-19.182-7.174-20.179-8.745l-8.494,15.189c11.771,15.883,21.949,18.561,36.4,10.128,22.938-13.383-36.722-83.363-37.5-60.212-.175,5.22,15.375,10.7,12.625,15.668a40.811,40.811,0,0,0-2.546,7.542c6.393,11.521,19.689,20.43,19.689,20.43" transform="translate(18.755 11.773)" fill="#509d8e"/>
          <path id="Trazado_19334" data-name="Trazado 19334" d="M268.671,258.218c0-128.883-46.79-117.041-46.79-117.041H192.558l3.206.9c13.956,3.919,36.749,25.779,36.749,116.141,0,77.515,18.872,88.992,18.872,88.992h36.158s-18.872-10.956-18.872-88.992" transform="translate(17.105 12.517)" fill="#f9f9f9"/>
          <path id="Trazado_19335" data-name="Trazado 19335" d="M235.71,147.446a.67.67,0,0,1-.671.671H212.434a.67.67,0,1,1,0-1.34h22.605a.669.669,0,0,1,.671.67" transform="translate(18.811 13.039)" fill="#e8e8e8"/>
          <path id="Trazado_19336" data-name="Trazado 19336" d="M230.864,143.888a.669.669,0,0,1-.671.67H207.588a.67.67,0,1,1,0-1.339h22.605a.669.669,0,0,1,.671.67" transform="translate(18.381 12.723)" fill="#e8e8e8"/>
          <path id="Trazado_19337" data-name="Trazado 19337" d="M240.158,153.522a.67.67,0,0,1-.671.67H216.881a.67.67,0,0,1,0-1.34h22.606a.671.671,0,0,1,.671.671" transform="translate(19.206 13.579)" fill="#e8e8e8"/>
          <path id="Trazado_19338" data-name="Trazado 19338" d="M244.039,160.2a.669.669,0,0,1-.671.67H220.763a.67.67,0,1,1,0-1.34h22.605a.67.67,0,0,1,.671.671" transform="translate(19.551 14.172)" fill="#e8e8e8"/>
          <path id="Trazado_19339" data-name="Trazado 19339" d="M246.706,166.882a.67.67,0,0,1-.671.671H223.43a.67.67,0,1,1,0-1.34h22.605a.669.669,0,0,1,.671.67" transform="translate(19.788 14.766)" fill="#e8e8e8"/>
          <path id="Trazado_19340" data-name="Trazado 19340" d="M249.614,173.563a.67.67,0,0,1-.67.671H226.338a.67.67,0,1,1,0-1.34h22.606a.669.669,0,0,1,.67.67" transform="translate(20.046 15.359)" fill="#e8e8e8"/>
          <path id="Trazado_19341" data-name="Trazado 19341" d="M252.526,180.244a.671.671,0,0,1-.671.671H229.249a.67.67,0,1,1,0-1.34h22.606a.67.67,0,0,1,.671.67" transform="translate(20.305 15.953)" fill="#e8e8e8"/>
          <path id="Trazado_19342" data-name="Trazado 19342" d="M254.222,186.924a.669.669,0,0,1-.67.67H230.946a.67.67,0,1,1,0-1.339h22.606a.669.669,0,0,1,.67.67" transform="translate(20.455 16.546)" fill="#e8e8e8"/>
          <path id="Trazado_19343" data-name="Trazado 19343" d="M255.516,193.6a.67.67,0,0,1-.671.67H232.239a.67.67,0,0,1,0-1.34h22.606a.671.671,0,0,1,.671.671" transform="translate(20.57 17.14)" fill="#e8e8e8"/>
          <path id="Trazado_19344" data-name="Trazado 19344" d="M256.892,200.286a.669.669,0,0,1-.671.67H233.616a.67.67,0,1,1,0-1.34h22.605a.67.67,0,0,1,.671.671" transform="translate(20.693 17.733)" fill="#e8e8e8"/>
          <path id="Trazado_19345" data-name="Trazado 19345" d="M257.619,206.966a.67.67,0,0,1-.671.67H234.342a.67.67,0,0,1,0-1.34h22.606a.671.671,0,0,1,.671.671" transform="translate(20.757 18.326)" fill="#e8e8e8"/>
          <path id="Trazado_19346" data-name="Trazado 19346" d="M258.428,213.647a.669.669,0,0,1-.671.67H235.152a.67.67,0,1,1,0-1.34h22.605a.67.67,0,0,1,.671.671" transform="translate(20.829 18.92)" fill="#e8e8e8"/>
          <path id="Trazado_19347" data-name="Trazado 19347" d="M258.751,220.327a.67.67,0,0,1-.671.671H235.475a.67.67,0,1,1,0-1.34H258.08a.669.669,0,0,1,.671.67" transform="translate(20.858 19.513)" fill="#e8e8e8"/>
          <path id="Trazado_19348" data-name="Trazado 19348" d="M258.982,227.007a.671.671,0,0,1-.671.671H235.7a.67.67,0,0,1,0-1.34h22.606a.67.67,0,0,1,.671.67" transform="translate(20.878 20.107)" fill="#e8e8e8"/>
          <path id="Trazado_19349" data-name="Trazado 19349" d="M259.306,233.688a.671.671,0,0,1-.671.671H236.029a.67.67,0,0,1,0-1.34h22.606a.67.67,0,0,1,.671.67" transform="translate(20.907 20.7)" fill="#e8e8e8"/>
          <path id="Trazado_19350" data-name="Trazado 19350" d="M259.306,240.369a.67.67,0,0,1-.671.67H236.029a.67.67,0,1,1,0-1.339h22.606a.67.67,0,0,1,.671.67" transform="translate(20.907 21.294)" fill="#e8e8e8"/>
          <path id="Trazado_19351" data-name="Trazado 19351" d="M259.306,247.049a.67.67,0,0,1-.671.67H236.029a.67.67,0,1,1,0-1.339h22.606a.67.67,0,0,1,.671.67" transform="translate(20.907 21.887)" fill="#e8e8e8"/>
          <path id="Trazado_19352" data-name="Trazado 19352" d="M259.306,253.73a.67.67,0,0,1-.671.67H236.029a.67.67,0,0,1,0-1.34h22.606a.671.671,0,0,1,.671.671" transform="translate(20.907 22.48)" fill="#e8e8e8"/>
          <path id="Trazado_19353" data-name="Trazado 19353" d="M259.8,267.091a.67.67,0,0,1-.671.67H236.523a.67.67,0,1,1,0-1.34h22.605a.67.67,0,0,1,.671.671" transform="translate(20.951 23.667)" fill="#e8e8e8"/>
          <path id="Trazado_19354" data-name="Trazado 19354" d="M260.122,273.771a.67.67,0,0,1-.671.671H236.846a.67.67,0,1,1,0-1.34h22.605a.669.669,0,0,1,.671.67" transform="translate(20.98 24.261)" fill="#e8e8e8"/>
          <path id="Trazado_19355" data-name="Trazado 19355" d="M260.607,280.452a.67.67,0,0,1-.671.671H237.331a.67.67,0,1,1,0-1.34h22.605a.669.669,0,0,1,.671.67" transform="translate(21.023 24.854)" fill="#e8e8e8"/>
          <path id="Trazado_19356" data-name="Trazado 19356" d="M261.5,287.132a.671.671,0,0,1-.672.671H238.22a.67.67,0,1,1,0-1.34h22.605a.67.67,0,0,1,.672.67" transform="translate(21.102 25.448)" fill="#e8e8e8"/>
          <path id="Trazado_19357" data-name="Trazado 19357" d="M262.195,293.813a.67.67,0,0,1-.671.67H238.918a.67.67,0,0,1,0-1.339h22.606a.67.67,0,0,1,.671.67" transform="translate(21.164 26.041)" fill="#e8e8e8"/>
          <path id="Trazado_19358" data-name="Trazado 19358" d="M263.488,300.494a.669.669,0,0,1-.671.67H240.212a.67.67,0,1,1,0-1.339h22.605a.669.669,0,0,1,.671.67" transform="translate(21.279 26.635)" fill="#e8e8e8"/>
          <path id="Trazado_19359" data-name="Trazado 19359" d="M264.7,307.174a.67.67,0,0,1-.671.67H241.424a.67.67,0,0,1,0-1.34H264.03a.67.67,0,0,1,.671.671" transform="translate(21.386 27.228)" fill="#e8e8e8"/>
          <path id="Trazado_19360" data-name="Trazado 19360" d="M269.8,320.535a.67.67,0,0,1-.671.671H246.529a.67.67,0,1,1,0-1.34h22.605a.669.669,0,0,1,.671.67" transform="translate(21.84 28.415)" fill="#e8e8e8"/>
          <path id="Trazado_19361" data-name="Trazado 19361" d="M266.963,313.855a.669.669,0,0,1-.67.67H243.687a.67.67,0,1,1,0-1.34h22.606a.669.669,0,0,1,.67.671" transform="translate(21.587 27.821)" fill="#e8e8e8"/>
          <path id="Trazado_19362" data-name="Trazado 19362" d="M259.4,260.411a.669.669,0,0,1-.671.67H236.121a.67.67,0,1,1,0-1.34h22.605a.67.67,0,0,1,.671.671" transform="translate(20.915 23.074)" fill="#e8e8e8"/>
          <path id="Trazado_19363" data-name="Trazado 19363" d="M352.556,163a160.184,160.184,0,0,1,1.635,22.787c0,87.321-71.042,158.363-158.363,158.363S37.464,273.107,37.464,185.786a160.381,160.381,0,0,1,1.666-23.008,5.346,5.346,0,0,0-3.749-4.371c-.9-.24-2.548.405-3.453,2.4-.007.048-.015.095-.023.142a167.809,167.809,0,0,0-1.85,24.835,165.814,165.814,0,0,0,318.515,64.526A164.735,164.735,0,0,0,361.6,185.786a167.842,167.842,0,0,0-1.544-22.657c-.568-1.363-2.743-2.217-4.012-2.26A3.492,3.492,0,0,0,352.556,163" transform="translate(2.67 14.068)" fill="#93c4cc"/>
        </g>
      </g>
    </g>
  </g>
</svg>
