<svg xmlns="http://www.w3.org/2000/svg" xmlns:xlink="http://www.w3.org/1999/xlink" width="371.345" height="241.013" viewBox="0 0 371.345 241.013">
  <defs>
    <clipPath id="clip-path">
      <rect id="Rectángulo_8650" data-name="Rectángulo 8650" width="371.345" height="241.013" fill="none"/>
    </clipPath>
    <clipPath id="clip-path-3">
      <rect id="Rectángulo_8601" data-name="Rectángulo 8601" width="371.345" height="57.954" fill="none"/>
    </clipPath>
    <clipPath id="clip-path-5">
      <rect id="Rectángulo_8603" data-name="Rectángulo 8603" width="58.749" height="16.321" fill="none"/>
    </clipPath>
    <clipPath id="clip-path-6">
      <rect id="Rectángulo_8604" data-name="Rectángulo 8604" width="48.452" height="53.272" fill="none"/>
    </clipPath>
    <clipPath id="clip-path-7">
      <rect id="Rectángulo_8620" data-name="Rectángulo 8620" width="54.664" height="21.136" fill="none"/>
    </clipPath>
    <clipPath id="clip-path-8">
      <rect id="Rectángulo_8637" data-name="Rectángulo 8637" width="62.756" height="65.991" fill="none"/>
    </clipPath>
    <clipPath id="clip-path-9">
      <rect id="Rectángulo_8639" data-name="Rectángulo 8639" width="41.34" height="28.315" fill="none"/>
    </clipPath>
    <clipPath id="clip-path-10">
      <rect id="Rectángulo_8641" data-name="Rectángulo 8641" width="20.88" height="7.333" fill="none"/>
    </clipPath>
    <clipPath id="clip-path-11">
      <rect id="Rectángulo_8642" data-name="Rectángulo 8642" width="16.223" height="34.846" fill="none"/>
    </clipPath>
    <clipPath id="clip-path-12">
      <rect id="Rectángulo_8644" data-name="Rectángulo 8644" width="25.21" height="9.905" fill="none"/>
    </clipPath>
  </defs>
  <g id="Grupo_13587" data-name="Grupo 13587" transform="translate(-510.23 -2606.25)">
    <g id="Grupo_13459" data-name="Grupo 13459" transform="translate(510.23 2606.25)">
      <g id="Grupo_13458" data-name="Grupo 13458" clip-path="url(#clip-path)">
        <g id="Grupo_13425" data-name="Grupo 13425">
          <g id="Grupo_13424" data-name="Grupo 13424" clip-path="url(#clip-path)">
            <g id="Grupo_13423" data-name="Grupo 13423" transform="translate(0 183.059)" opacity="0.12" style="mix-blend-mode: multiply;isolation: isolate">
              <g id="Grupo_13422" data-name="Grupo 13422">
                <g id="Grupo_13421" data-name="Grupo 13421" clip-path="url(#clip-path-3)">
                  <path id="Trazado_18923" data-name="Trazado 18923" d="M355.213,626.06H48.4c-8.873,0-16.132,4.4-16.132,9.774,0,3.723,3.482,6.975,8.569,8.624h-24.7c-8.873,0-16.132,4.4-16.132,9.774s7.259,9.774,16.132,9.774h8.607c-2.4,1.708-3.862,3.918-3.862,6.325v3.91c0,5.376,7.259,9.774,16.132,9.774H339.651c8.873,0,16.132-4.4,16.132-9.774v-3.91c0-5.375-7.259-9.774-16.132-9.774l-18.789.217a8.936,8.936,0,0,0,5.314-2.059c2.734-2.411,2.855-6.082,1.518-9.12-.866-1.969-2.254-3.531-5.694-4.118l33.212.132c8.872,0,16.132-4.4,16.132-9.774s-7.259-9.774-16.132-9.774" transform="translate(0 -626.06)" fill="#606060"/>
                </g>
              </g>
            </g>
          </g>
        </g>
        <path id="Trazado_18924" data-name="Trazado 18924" d="M454.077,137.369l6.706,4.067,16.663,31.282,31.579,11.988-.292,7.31-34.5-5.263Z" transform="translate(-321.306 -97.202)" fill="#9babe8"/>
        <path id="Trazado_18925" data-name="Trazado 18925" d="M641.292,297.848l6.725-.585,7.018,4.678-1.754,1.462-5.117-1.289-1.608,3.044,3.539,2.123-4.123,1.386L641,305.158Z" transform="translate(-453.573 -210.344)" fill="#eacdb0"/>
        <path id="Trazado_18926" data-name="Trazado 18926" d="M349.047,730.4l-.143,4.106,8.165,4.349,4.3-3.986-4.011-4.228-8.165-4.349Z" transform="translate(-246.885 -513.927)" fill="#3a3029"/>
        <path id="Trazado_18927" data-name="Trazado 18927" d="M352.787,392.251l-15.652,2.823,9.354,41.621-6.159,56,8.183,1.869,21.466-67.59.059-20.2-1.6-11.957Z" transform="translate(-238.557 -277.558)" fill="#757573"/>
        <path id="Trazado_18928" data-name="Trazado 18928" d="M446.584,313.421l.53,52.413L437,433.4l-7.69-.012-4.757-62.363-10.424-62.371Z" transform="translate(-293.04 -218.401)" fill="#757573"/>
        <path id="Trazado_18929" data-name="Trazado 18929" d="M466.191,732.148l-.006,4.106,8.31,4.12,4.165-4.1-4.152-4.113Z" transform="translate(-329.873 -518.069)" fill="#3a3029"/>
        <g id="Grupo_13457" data-name="Grupo 13457">
          <g id="Grupo_13456" data-name="Grupo 13456" clip-path="url(#clip-path)">
            <path id="Trazado_18930" data-name="Trazado 18930" d="M319.379,211.171c.106,2.328,3.429,17.477,2.719,17.893q5.236-1.836,10.612-3.234a136.3,136.3,0,0,1,28.834-4.275c4.406-.177,9.044-.467,13.4.325,2.136.388,4.227.981,6.327,1.52.54.138,6.11,1.149,6.123,1.234-1-6.71-.713-13.431-1.165-20.2a181.377,181.377,0,0,0-2.532-20.417c-1.926-10.576-7.263-19.351-11.528-29.159-2.117-4.869-4.084-9.837-6.82-14.4-2.142-3.576-5.88-8.759-10.053-10.116a12.675,12.675,0,0,0-4.418-.35l-13.507.521a10.934,10.934,0,0,0-4.8.919c-2.17,1.162-3.277,3.6-4.235,5.865a107.845,107.845,0,0,0-7.779,32.031c-.54,5.77-1.01,11.547-1.289,17.333-.312,6.456-.388,12.926-.062,19.379.036.717.058,2.731.167,5.137" transform="translate(-225.726 -91.953)" fill="#9babe8"/>
            <path id="Trazado_18931" data-name="Trazado 18931" d="M389.384,157.042a47.8,47.8,0,0,1,.029,8.735c-1.023,17.711-5.494,39.432-6.518,57.144,11.354-2.1,25.4-2.349,40.706-.5-.88-6.551-2.844-19.406-3.725-25.957a106.054,106.054,0,0,0-2.19-12.5c-1.709-6.593-4.657-12.708-7.584-18.765L393.878,131.62a4.8,4.8,0,0,0-1.079-1.629,3.833,3.833,0,0,0-2.065-.714c-3.5-.451-7.429-.768-10.856.046-.624,3.659,2.994,9.7,4.4,12.973,2.052,4.758,4.435,9.457,5.1,14.745" transform="translate(-268.751 -91.154)" fill="#fffff1"/>
            <path id="Trazado_18932" data-name="Trazado 18932" d="M446.641,37.784a15.279,15.279,0,0,1,.423,7.137,2.189,2.189,0,0,0,.218,1.837c.459.508-.2,1.277.324.834s2.3-1.988,2.506-2.642a25.258,25.258,0,0,0,.975-4.706,6.894,6.894,0,0,0-.5-4.087,7.827,7.827,0,0,0-1.619-1.867,10.053,10.053,0,0,0-2.9-2.1c-1.913-.786-3.283-.327-1.816,1.427a12.4,12.4,0,0,1,2.387,4.17" transform="translate(-313.92 -22.513)" fill="#e4e4e4"/>
            <path id="Trazado_18933" data-name="Trazado 18933" d="M382.953,59.483l8.053,2.482a50.645,50.645,0,0,0,2.228-7.024c2.47.089,5.435-.1,6.772-2.424A8.369,8.369,0,0,0,400.8,50.1l2.243-10.366a10.231,10.231,0,0,0,.341-3.624,7.356,7.356,0,0,0-3.536-4.747,15.913,15.913,0,0,0-14.3-2.086,7.869,7.869,0,0,0-3.425,2.256c-1.395,1.692-1.759,4.065-2.062,6.291l-.839,6.163c-.322,2.363-.532,5.116,1.02,6.724.824.853,2.039,1.232,2.69,2.25,1.148,1.795-.072,4.307.029,6.526" transform="translate(-268.172 -20.095)" fill="#eacdb0"/>
            <path id="Trazado_18934" data-name="Trazado 18934" d="M399.35,85.718c.1-.65.208-2.588-1-1.608a1.976,1.976,0,0,0-.572,1.089,4.448,4.448,0,0,1-.382,1.2,2.2,2.2,0,0,1-2.425.827,2.15,2.15,0,0,1-.962-.45,3.215,3.215,0,0,1-.621-.868L392.1,83.615c-.736-1.312-2.754-1.232-4.093-1.335a8.534,8.534,0,0,0-4.573.754c-.144.074-.287.154-.43.233a4.6,4.6,0,0,1-1.078.48,2.953,2.953,0,0,1-3.183-1.793c-.272-.562-.489-1.258-1.051-1.459a1.215,1.215,0,0,0-1.269.45A3.468,3.468,0,0,0,375.8,82.3a10.659,10.659,0,0,0-.182,5.405c.962,3.789,4.122,4.889,7.4,5.493l3.89.717c2.37.437,4.884.859,7.158-.1a8.656,8.656,0,0,0,4.354-4.748,13.636,13.636,0,0,0,.927-3.348M389.7,88.789a4.615,4.615,0,0,1-4.093-.371c-.551-.3-.1-1.236.457-.935a3.711,3.711,0,0,0,3.34.323c.594-.241.887.744.3.983" transform="translate(-265.598 -56.923)" fill="#e4e4e4"/>
            <path id="Trazado_18935" data-name="Trazado 18935" d="M404.808,15.683a18.79,18.79,0,0,0,1.037-2.451,5.169,5.169,0,0,1-2.547-.308l.306-1.494c.082-.415-5.455-1.873-5.9-2.006-4.186-1.239-8.011-2.384-12.34-.9a11.849,11.849,0,0,0-7.712,7.43,18.121,18.121,0,0,0,.427,11.955c.189-.968.11-3.361.529-4.23a8.368,8.368,0,0,1,1.443-2.437,11.053,11.053,0,0,1,4.629-3.2,21.477,21.477,0,0,1,8.88-1.063c2.733.184,6.041.519,8.517,1.77,1.191.6,1.334.961,2.363-.152a22.1,22.1,0,0,0,1.692-2.618l-1.323-.3" transform="translate(-266.649 -5.535)" fill="#e4e4e4"/>
            <path id="Trazado_18936" data-name="Trazado 18936" d="M1022.859,730.222l.224,5.951-3.818,4.116-3.078.116a1.777,1.777,0,0,1-1.684-2.51l.646-1.424,1.835-4.042,1.835-4.042Z" transform="translate(-717.75 -515.409)" fill="#404f5a"/>
            <path id="Trazado_18937" data-name="Trazado 18937" d="M1014.61,490.206l-3.5,41.783-3.468,31.623-9.13.343-3.483-31.87-4.36-40.98Z" transform="translate(-701.002 -346.871)" fill="#62717a"/>
            <path id="Trazado_18938" data-name="Trazado 18938" d="M1102.841,716.821l.286,5.948-3.774,4.157-3.077.148a1.777,1.777,0,0,1-1.711-2.492l.631-1.431,1.792-4.061,1.792-4.061Z" transform="translate(-774.408 -505.956)" fill="#404f5a"/>
            <path id="Trazado_18939" data-name="Trazado 18939" d="M1091.812,476.409l-4.751,41.87-1.434,31.606-9.126.44-5.635-31.484-2.98-41.279Z" transform="translate(-755.638 -337.108)" fill="#62717a"/>
            <path id="Trazado_18940" data-name="Trazado 18940" d="M984.445,34.561a22.524,22.524,0,0,0,4.171,10.256,36.8,36.8,0,0,1-.926-10.377,18.549,18.549,0,0,1,3.409-9.734c-.244.324-3.147-.057-3.818.26a4.438,4.438,0,0,0-1.925,2.219,12.793,12.793,0,0,0-.91,7.376" transform="translate(-696.479 -17.482)" fill="#dddad7"/>
            <path id="Trazado_18941" data-name="Trazado 18941" d="M1011.6,54.082a43.727,43.727,0,0,1-9.267,1.882,30.151,30.151,0,0,0-1.373-6.222c-.453-1.351-1.916-1.268-3.078-1.455a5.893,5.893,0,0,1-2.9-1.272,8.99,8.99,0,0,1-1.6-1.868,26.627,26.627,0,0,1-2.906-7.056c-1.538-4.838-3.76-10.463.015-14.839a16.421,16.421,0,0,1,9.025-4.937,17.215,17.215,0,0,1,7.6-.046,10.6,10.6,0,0,1,6.26,4.127c1.68,2.463,1.8,5.286,1.849,8.155.069,3.685,1.563,6.822-.312,10.31a41.912,41.912,0,0,1-2.336,3.566,9.066,9.066,0,0,0-1.43,4.689c0,.488.761,4.871.445,4.964" transform="translate(-699.406 -12.641)" fill="#a08a78"/>
            <path id="Trazado_18942" data-name="Trazado 18942" d="M995.05,7.37a48.745,48.745,0,0,1-4.948.571,6.3,6.3,0,0,1-4.68-1.8c4.791-1.71,9.47-5.877,14.469-6.139,3.981-.208,9.474,4.674,12.042,8.26,2.5,3.49,2.307,8.734,1.154,12.914-.559-1.658-.384-3.488-.94-5.131-.709-2.1-2.552-3.742-4.16-4.944A18.688,18.688,0,0,0,995.05,7.37" transform="translate(-697.287 0)" fill="#dddad7"/>
            <path id="Trazado_18943" data-name="Trazado 18943" d="M1008.386,89.163c-2.163-.2-4.677.165-5.829,1.879-.8,1.189-.72,2.7-.808,4.109s-.506,2.99-1.829,3.653a4.481,4.481,0,0,0,3.368-.168,6.623,6.623,0,0,0,2.549-2.135,7.616,7.616,0,0,1,1.923-2.2,6.81,6.81,0,0,1,2.117-.672,4.3,4.3,0,0,0,2.02-.856c2.144-1.954-1.986-3.472-3.511-3.612" transform="translate(-707.545 -63.057)" fill="#dddad7"/>
            <path id="Trazado_18944" data-name="Trazado 18944" d="M1044.831,82.5c1.947-.965,4.422-1.531,6.115-.347,1.175.822,1.644,2.259,2.234,3.542s1.548,2.608,3.022,2.749A4.479,4.479,0,0,1,1053,89.5a6.621,6.621,0,0,1-3.147-1.073,7.609,7.609,0,0,0-2.586-1.357,6.807,6.807,0,0,0-2.216.135,4.3,4.3,0,0,1-2.194-.071c-2.7-1.051.6-3.954,1.975-4.634" transform="translate(-737.196 -57.659)" fill="#dddad7"/>
            <path id="Trazado_18945" data-name="Trazado 18945" d="M1021.952,150.117c-5.4-15.442-14.62-23.684-20.025-24.531l-.139-.276-.2.026-.1-.073-.043.092-20.66,2.694s-.706.727-1.807,2.056a35.439,35.439,0,0,0-4.391,20.011c.877,11.7,1.17,41.521-2.924,53.216s-12.834,31.433-5.686,32.676c9.624,1.709,31.814,4.644,50.463-.384l15.536-5.113s-.006-.046-.019-.131c4.245-9.733-3.892-62.805-10-80.264" transform="translate(-681.6 -88.636)" fill="#bed2f4"/>
            <path id="Trazado_18946" data-name="Trazado 18946" d="M962.333,139.064l-5.848-3.8-7.895,5.263L929,185.263l3.8,8.772,10.234-3.509L957.363,168.3Z" transform="translate(-657.362 -95.712)" fill="#bed2f4"/>
            <path id="Trazado_18947" data-name="Trazado 18947" d="M938.56,144.972c-19.274,7.97-31.142.493-32.763-.634,0,0-.053-.132-.1-.068-.063-.046-.066.1-.066.1-1.124,1.624-9.62,12.785-30.465,12.071,0,0,3.448,36.645,17.8,49.252,15.333,13.466,26.733,16.313,26.779,16.263.06.031,9.848-6.556,19.385-24.613,8.923-16.894-.578-52.368-.578-52.368" transform="translate(-619.271 -102.073)" fill="#066598"/>
            <path id="Trazado_18948" data-name="Trazado 18948" d="M945.019,159.912c-17.5,7.158-28.244.532-29.711-.467,0,0-.047-.118-.087-.06-.057-.04-.061.087-.061.087-1.024,1.45-8.763,11.418-27.665,10.845,0,0,3.017,32.634,16,43.821,13.865,11.949,24.341,15.313,24.382,15.268.055.028,8.8-6.731,17.509-22.845,8.143-15.076-.366-46.649-.366-46.649" transform="translate(-627.994 -112.77)" fill="#4498c5"/>
            <g id="Grupo_13428" data-name="Grupo 13428" transform="translate(259.196 44.931)" opacity="0.06">
              <g id="Grupo_13427" data-name="Grupo 13427">
                <g id="Grupo_13426" data-name="Grupo 13426" clip-path="url(#clip-path-5)">
                  <path id="Trazado_18949" data-name="Trazado 18949" d="M914.987,158.6s0-.133.063-.091c.041-.061.091.063.091.063,1.507,1.027,12.353,7.717,30.057.909-.681-3.258-1.225-5.277-1.225-5.277-17.5,7.158-28.244.533-29.711-.467,0,0-.048-.118-.087-.06-.057-.04-.061.087-.061.087-1.024,1.45-8.763,11.418-27.665,10.845,0,0,.192,2.081.689,5.371,18.977.179,26.8-9.89,27.847-11.38" transform="translate(-886.45 -153.664)"/>
                </g>
              </g>
            </g>
            <g id="Grupo_13431" data-name="Grupo 13431" transform="translate(266.592 56.519)" opacity="0.34">
              <g id="Grupo_13430" data-name="Grupo 13430">
                <g id="Grupo_13429" data-name="Grupo 13429" clip-path="url(#clip-path-6)">
                  <path id="Trazado_18950" data-name="Trazado 18950" d="M958.4,193.821c-13.214,5.464-23.048.3-24.16-.468,0,0-.036-.091-.066-.046-.043-.031-.046.067-.046.067-.77,1.113-8.089,9.357-22.38,8.868,0,0,3.858,24.532,13.7,33.175,10.512,9.232,18.328,11.184,18.359,11.15.041.021,6.752-4.494,13.291-16.875,6.118-11.583,1.3-35.87,1.3-35.87" transform="translate(-911.745 -193.295)" fill="#fff"/>
                </g>
              </g>
            </g>
            <path id="Trazado_18951" data-name="Trazado 18951" d="M1079.14,125.263l11.988,3.509,24.854,36.257-5.263,10.526H1073v-8.772l28.363-3.8-13.45-14.035Z" transform="translate(-759.257 -88.636)" fill="#bed2f4"/>
            <path id="Trazado_18952" data-name="Trazado 18952" d="M703.39,534.988c13.541,0,24.5,15.736,24.5,35.148s-10.977,35.148-24.518,35.148-24.519-15.736-24.519-35.148,10.977-35.148,24.519-35.148Zm-.018-3.4a21.573,21.573,0,0,0-11.307,3.255,29.505,29.505,0,0,0-8.82,8.495c-5.025,7.2-7.793,16.721-7.793,26.8s2.768,19.6,7.793,26.8a29.506,29.506,0,0,0,8.82,8.495,21.267,21.267,0,0,0,22.614,0,29.513,29.513,0,0,0,8.82-8.495c5.025-7.2,7.793-16.721,7.793-26.8s-2.767-19.6-7.793-26.8a29.512,29.512,0,0,0-8.82-8.495,21.572,21.572,0,0,0-11.307-3.255" transform="translate(-477.951 -376.152)" fill="#59595b"/>
            <path id="Trazado_18953" data-name="Trazado 18953" d="M711.62,546.054c5.6,0,10.909,3.225,14.994,9.082,4.3,6.167,6.672,14.418,6.672,23.231s-2.369,17.064-6.672,23.232c-4.085,5.856-9.417,9.082-15.012,9.082s-10.927-3.225-15.013-9.082c-4.3-6.168-6.671-14.418-6.671-23.232s2.369-17.064,6.671-23.231c4.085-5.856,9.417-9.082,15.013-9.082Zm-.018-2.834c-13.542,0-24.519,15.736-24.519,35.148s10.977,35.148,24.519,35.148,24.518-15.736,24.518-35.148S725.144,543.22,711.6,543.22" transform="translate(-486.182 -384.384)" fill="#aeb8bd"/>
            <rect id="Rectángulo_8605" data-name="Rectángulo 8605" width="0.85" height="33.022" transform="translate(224.995 160.821)" fill="#aeb8bd"/>
            <rect id="Rectángulo_8606" data-name="Rectángulo 8606" width="0.85" height="29.909" transform="translate(211.07 167.598) rotate(-27.855)" fill="#aeb8bd"/>
            <rect id="Rectángulo_8607" data-name="Rectángulo 8607" width="0.85" height="26.307" transform="translate(202.943 180.167) rotate(-57.758)" fill="#aeb8bd"/>
            <rect id="Rectángulo_8608" data-name="Rectángulo 8608" width="24.518" height="0.85" transform="translate(200.902 193.417)" fill="#aeb8bd"/>
            <rect id="Rectángulo_8609" data-name="Rectángulo 8609" width="25.458" height="0.85" transform="translate(203.661 207.064) rotate(-32.242)" fill="#aeb8bd"/>
            <rect id="Rectángulo_8610" data-name="Rectángulo 8610" width="30.39" height="0.85" transform="matrix(0.467, -0.884, 0.884, 0.467, 210.844, 220.512)" fill="#aeb8bd"/>
            <rect id="Rectángulo_8611" data-name="Rectángulo 8611" width="0.85" height="33.022" transform="translate(224.995 193.842)" fill="#aeb8bd"/>
            <rect id="Rectángulo_8612" data-name="Rectángulo 8612" width="0.85" height="30.427" transform="translate(225.045 194.041) rotate(-27.855)" fill="#aeb8bd"/>
            <rect id="Rectángulo_8613" data-name="Rectángulo 8613" width="0.85" height="25.759" transform="matrix(0.533, -0.846, 0.846, 0.533, 225.194, 194.202)" fill="#aeb8bd"/>
            <rect id="Rectángulo_8614" data-name="Rectángulo 8614" width="23.221" height="0.85" transform="translate(225.42 193.417)" fill="#aeb8bd"/>
            <rect id="Rectángulo_8615" data-name="Rectángulo 8615" width="25.29" height="0.85" transform="translate(225.194 193.483) rotate(-32.242)" fill="#aeb8bd"/>
            <rect id="Rectángulo_8616" data-name="Rectángulo 8616" width="30.667" height="0.85" transform="translate(225.041 193.642) rotate(-62.131)" fill="#aeb8bd"/>
            <path id="Trazado_18954" data-name="Trazado 18954" d="M765.883,651.078c0,2.818-1.594,5.1-3.559,5.1s-3.559-2.284-3.559-5.1,1.593-5.1,3.559-5.1,3.559,2.284,3.559,5.1" transform="translate(-536.904 -457.094)" fill="#aeb8bd"/>
            <path id="Trazado_18955" data-name="Trazado 18955" d="M758.912,642.546c1.966,0,3.541,2.284,3.541,5.1s-1.593,5.1-3.559,5.1-3.559-2.284-3.559-5.1,1.594-5.1,3.559-5.1Zm-.018-1.417c-2.791,0-4.977,2.864-4.977,6.519s2.186,6.519,4.977,6.519,4.976-2.864,4.976-6.519-2.186-6.519-4.976-6.519" transform="translate(-533.474 -453.664)" fill="#59595b"/>
            <rect id="Rectángulo_8617" data-name="Rectángulo 8617" width="52.722" height="15.306" transform="translate(172.557 101.58)" fill="#446072"/>
            <path id="Trazado_18956" data-name="Trazado 18956" d="M750.417,518.5h49.849v26.078H750.1Z" transform="translate(-530.769 -366.892)" fill="#446072"/>
            <path id="Trazado_18957" data-name="Trazado 18957" d="M732.108,419.819h-4.252V327.131a3.681,3.681,0,0,0-1.032-2.844,6.583,6.583,0,0,0-4.349-1.271l-.147,0h-9.07v-4.252h9c.768-.046,4.724-.136,7.446,2.392a7.89,7.89,0,0,1,2.4,5.97Z" transform="translate(-504.704 -225.551)" fill="#aeb8bd"/>
            <path id="Trazado_18958" data-name="Trazado 18958" d="M676.289,321.649h13.677a1.807,1.807,0,0,0,1.807-1.806V317.22a1.807,1.807,0,0,0-1.807-1.807H676.289a1.807,1.807,0,0,0-1.807,1.807v2.622a1.807,1.807,0,0,0,1.807,1.806" transform="translate(-477.265 -223.187)" fill="#446072"/>
            <path id="Trazado_18959" data-name="Trazado 18959" d="M817.139,545.073h-4.252V471.5c0-4.433-1.552-7.755-4.611-9.874a12.048,12.048,0,0,0-4.483-1.889H770.937V455.49h33.158l.135.018a16.078,16.078,0,0,1,6.467,2.628c2.939,2.035,6.443,6.006,6.443,13.369Z" transform="translate(-545.517 -322.306)" fill="#aeb8bd"/>
            <rect id="Rectángulo_8618" data-name="Rectángulo 8618" width="51.588" height="4.252" transform="translate(217.909 176.472)" fill="#aeb8bd"/>
            <rect id="Rectángulo_8619" data-name="Rectángulo 8619" width="4.535" height="14.173" transform="translate(267.229 207.023)" fill="#464647"/>
            <path id="Trazado_18960" data-name="Trazado 18960" d="M887.188,742.151a8.929,8.929,0,1,1-8.929-8.929,8.929,8.929,0,0,1,8.929,8.929" transform="translate(-615.14 -518.829)" fill="#aeb8bd"/>
            <path id="Trazado_18961" data-name="Trazado 18961" d="M878.3,737.474a4.7,4.7,0,1,1-.039,0Zm-.039-4.252a8.929,8.929,0,1,0,8.929,8.929,8.929,8.929,0,0,0-8.929-8.929" transform="translate(-615.14 -518.829)" fill="#59595b"/>
            <path id="Trazado_18962" data-name="Trazado 18962" d="M899.6,737.27l-6.006,6.006a2.267,2.267,0,1,0,3.2,3.071l5.944-5.944Z" transform="translate(-631.604 -521.694)" fill="#464647"/>
            <path id="Trazado_18963" data-name="Trazado 18963" d="M823.412,689.55H802.349l-5.1-29.416h-49.09v-4.252h52.668l5.1,29.417h17.486Z" transform="translate(-529.397 -464.103)" fill="#aeb8bd"/>
            <path id="Trazado_18964" data-name="Trazado 18964" d="M945.853,757.876H960.8a1.88,1.88,0,0,0,1.88-1.879v-2.477a1.879,1.879,0,0,0-1.88-1.879H945.853a1.879,1.879,0,0,0-1.879,1.879V756a1.879,1.879,0,0,0,1.879,1.879" transform="translate(-667.958 -531.862)" fill="#446072"/>
            <path id="Trazado_18965" data-name="Trazado 18965" d="M798,589.511l-3.752-3.839a5.79,5.79,0,0,0-4.141-1.737H750.1V589.6Z" transform="translate(-530.769 -413.194)" fill="#5e859e"/>
            <path id="Trazado_18966" data-name="Trazado 18966" d="M742.675,531.587l15.306,19.558-2.268,40.533h-8.787l-2.551-36.849-22.392-7.653Z" transform="translate(-510.877 -376.152)" fill="#9e6652"/>
            <path id="Trazado_18967" data-name="Trazado 18967" d="M804.387,531.587l19.841,11.338,14.456,47.052-7.937,3.685-18.424-42.517-16.44-4.819-9.921-9.354Z" transform="translate(-556.149 -376.152)" fill="#9e6652"/>
            <path id="Trazado_18968" data-name="Trazado 18968" d="M660.643,239.261l7.623.745c.411.04.466-6.048.717-6.522.334-.63,1.509-.825,2.116-1.245a7.975,7.975,0,0,0,2.066-2.142c2.444-3.66,1.72-7.888,1.768-12.084a9.305,9.305,0,0,0-.356-3.289,6.686,6.686,0,0,0-4.013-3.584,14.465,14.465,0,0,0-13.117.746,7.155,7.155,0,0,0-2.639,2.632c-.946,1.784-.74,3.834-.788,5.772a18.9,18.9,0,0,0,1.032,6.456,10.632,10.632,0,0,0,3.66,5.267c2.45,1.761,1.265,4.6,1.931,7.247" transform="translate(-462.782 -148.544)" fill="#eacdb0"/>
            <path id="Trazado_18969" data-name="Trazado 18969" d="M642.509,198.38a3.8,3.8,0,0,1-.522-1.091c-.359-1.421,1.272-1.6,1.616-2.845.242-.878.108-2.268,1.135-2.671.863-.338,1.786.467,2.706.367s1.495-1.036,2.074-1.778,1.645-1.4,2.383-.818c.226.177.372.443.605.609.574.408,1.345.051,2.021-.138,1.346-.377,3.068.221,3.415,1.591a3.936,3.936,0,0,0,.178.7c.315.683,1.217.768,1.96.82s1.662.347,1.736,1.1-.822,1.4-.622,2.133c.094.344.406.571.626.85a1.828,1.828,0,0,1,.246,1.792,9.155,9.155,0,0,0-.59,1.165c-.267,1.041.945,2,1.993,1.823a3.622,3.622,0,0,0,2.35-2.013,3.49,3.49,0,0,0,.524-2.465c-.1-.41-.324-.784-.4-1.2a3.8,3.8,0,0,1,.332-1.892,6.532,6.532,0,0,0,.429-3.457,13.036,13.036,0,0,1-.234-1.447,2,2,0,0,0-.321-1.258c-.409-.512-1.006-.929-1.132-1.574-.175-.9.658-1.72.618-2.634a2.212,2.212,0,0,0-.48-1.168,4.942,4.942,0,0,0-3.218-1.965,5.236,5.236,0,0,1-1.716-.352c-.952-.506-1.233-1.769-2.039-2.488a3.887,3.887,0,0,0-3.018-.666,10,10,0,0,1-3.162.122c-1.529-.337-2.842-1.671-4.4-1.5-2.132.241-3.038,3.055-5.028,3.866-1.3.531-2.927.131-4.059.973-1.632,1.212-1.268,4.146-1.938,5.908-.949,2.5-1.425,4.375-.317,6.98a4.132,4.132,0,0,1,.558,2.347c-.07.351-.245.671-.346,1.014a3.835,3.835,0,0,0,1.067,3.443c.82.943,1.861,1.673,2.655,2.638a8.133,8.133,0,0,0,1.161,1.329,1.528,1.528,0,0,0,1.639.259,1.18,1.18,0,0,1,.01-1.274c.206-.3.552-.5.7-.836a1.514,1.514,0,0,0,.087-.711,6.618,6.618,0,0,0-.918-3c-.118-.2-.247-.39-.371-.585" transform="translate(-449.768 -124.55)" fill="#e4e4e4"/>
            <path id="Trazado_18970" data-name="Trazado 18970" d="M631.184,174.754a2.053,2.053,0,0,0-1.848-.6c-.273.077-.517.238-.789.318-.91.269-1.8-.4-2.72-.64a3.148,3.148,0,0,0-2.9.739,1.566,1.566,0,0,0-.465,1.889c.1.156.25.28.353.435a1.526,1.526,0,0,1-.517,1.889c-.547.456-1.246.688-1.81,1.122a3.274,3.274,0,0,0-1.033,3.623,3.208,3.208,0,0,0,3.13,2.043,4.968,4.968,0,0,1,1.936-.08,5.9,5.9,0,0,1,.92.526,3.441,3.441,0,0,0,3.5-.339,9.034,9.034,0,0,0,2.435-2.778,1.876,1.876,0,0,0,.421-1.355c-.349-1.556-1.792-1.348-.435-2.923a2.535,2.535,0,0,0-.173-3.867" transform="translate(-438.194 -122.933)" fill="#e4e4e4"/>
            <path id="Trazado_18971" data-name="Trazado 18971" d="M689.547,364.832c-11.333-8.326-20.777-22.758-26.507-35.466-1.019-2.258-9.315-26.556-13.283-26.556l-16.763.238s-16.836,25.086-10.424,58.238c2.055,10.624,3.96,19.42,5.6,26.472,6.877,17.419,22.856,2.651,30.46-3.224,4.438-3.429,15.633-6.392,23.8-9.6,7.548-2.968,12.5-6.147,7.121-10.1" transform="translate(-439.501 -214.269)" fill="#9987f2"/>
            <path id="Trazado_18972" data-name="Trazado 18972" d="M948.059,733.222l8.874,2.268v3.118H942.761l-.5-2.693Z" transform="translate(-666.745 -518.829)" fill="#3a3029"/>
            <path id="Trazado_18973" data-name="Trazado 18973" d="M814.943,737.149l4.818,1.934v2.268H807.356l-.066-4.252Z" transform="translate(-571.24 -521.573)" fill="#3a3029"/>
            <path id="Trazado_18974" data-name="Trazado 18974" d="M723.144,304.781l7.88,4.809s23.526,27.494,23.81,28.345,2.268,11.338,1.984,11.054-9.07-2.551-9.07-2.551l-17.858-16.724Z" transform="translate(-511.698 -215.664)" fill="#c69c6d"/>
            <path id="Trazado_18975" data-name="Trazado 18975" d="M797.227,418.168l-6.236,2.268-7.937,14.74,3.685,3.4,12.472-9.354Z" transform="translate(-554.091 -295.897)" fill="#d1a573"/>
            <path id="Trazado_18976" data-name="Trazado 18976" d="M743.56,303.707c-5.329-3.143-13.832-3.341-17.916.9.745-5.842-6.3-13.029-12.086-15.21-15.277-5.755-28.565,9.246-27.943,23.912.335,7.893,2.512,15.7,5.4,23.149,2.415,6.24,9.55,20.439,9.6,20.426.021.046,15.557-3.3,21.932-5.327,7.613-2.425,15.057-5.621,21.417-10.309,11.816-8.709,13.663-29.25-.4-37.544" transform="translate(-485.128 -203.888)" fill="#b22759"/>
            <g id="Grupo_13434" data-name="Grupo 13434" transform="translate(209.534 132.192)" opacity="0.12" style="mix-blend-mode: multiply;isolation: isolate">
              <g id="Grupo_13433" data-name="Grupo 13433">
                <g id="Grupo_13432" data-name="Grupo 13432" clip-path="url(#clip-path-7)">
                  <path id="Trazado_18977" data-name="Trazado 18977" d="M762.342,457.378a91.156,91.156,0,0,1-18.653,6.9c-6.2,1.529-12.93,2.221-19.171.541a21.011,21.011,0,0,1-7.913-4.014c2.842,6.077,6.049,12.435,6.082,12.426.02.046,15.556-3.3,21.932-5.327,7.613-2.425,15.058-5.621,21.417-10.309a22.3,22.3,0,0,0,5.234-5.5,68.209,68.209,0,0,1-8.927,5.282" transform="translate(-716.605 -452.096)"/>
                </g>
              </g>
            </g>
            <path id="Trazado_18978" data-name="Trazado 18978" d="M749.016,393.075l-11.672-5.208q1.764-9.034,3.527-18.069a.877.877,0,0,0-1.513-.725l-22.32,23.7-1.293,1.374,2.753-21.323.442-3.42c.089-.688-.72-1.364-1.344-.874l-8.695,6.836L696,369.2a.87.87,0,0,0-.751,1.569l13.382,6.408a.859.859,0,0,0,.863-.064l7.451-5.858q-1.412,10.938-2.824,21.875l-.442,3.42a.877.877,0,0,0,1.513.725l22.32-23.7,1.068-1.134L735.5,388.226a.882.882,0,0,0,.481.938l12.283,5.48c1.02.456,1.775-1.112.751-1.569" transform="translate(-491.623 -260.658)" fill="#fff"/>
            <path id="Trazado_18979" data-name="Trazado 18979" d="M837.925,474.471l-5.09-4.775-4.524.709-.159,3.062,4.22,2.109,2.152,1.163Z" transform="translate(-586.002 -332.358)" fill="#eacdb0"/>
            <path id="Trazado_18980" data-name="Trazado 18980" d="M719.6,436.942l5.072,2.112,3.2,7.189-3.461.8-5.326-4.793Z" transform="translate(-508.819 -309.181)" fill="#eacdb0"/>
            <path id="Trazado_18981" data-name="Trazado 18981" d="M611.911,305.764l-18.858,35.431,6.236,7.086h30.9l.85-5.669-22.109-6.236,10.2-16.44-5.952-16.157Z" transform="translate(-419.646 -214.955)" fill="#9987f2"/>
            <rect id="Rectángulo_8621" data-name="Rectángulo 8621" width="43.935" height="26.078" transform="translate(173.691 151.608)" fill="#446072"/>
            <path id="Trazado_18982" data-name="Trazado 18982" d="M554.708,419.535h-4.252v-92.4a3.681,3.681,0,0,0-1.032-2.844,6.585,6.585,0,0,0-4.349-1.271l-.147,0h-9.07v-4.252h9c.769-.046,4.724-.136,7.446,2.392a7.889,7.889,0,0,1,2.4,5.97Z" transform="translate(-379.175 -225.551)" fill="#aeb8bd"/>
            <path id="Trazado_18983" data-name="Trazado 18983" d="M498.89,321.649h13.677a1.807,1.807,0,0,0,1.807-1.806V317.22a1.807,1.807,0,0,0-1.807-1.807H498.89a1.807,1.807,0,0,0-1.807,1.807v2.622a1.807,1.807,0,0,0,1.807,1.806" transform="translate(-351.737 -223.187)" fill="#446072"/>
            <path id="Trazado_18984" data-name="Trazado 18984" d="M639.74,545.073h-4.252V471.5c0-4.433-1.552-7.755-4.611-9.874a12.045,12.045,0,0,0-4.483-1.889H593.538V455.49H626.7l.135.018a16.077,16.077,0,0,1,6.467,2.628c2.939,2.035,6.443,6.006,6.443,13.369Z" transform="translate(-419.989 -322.306)" fill="#aeb8bd"/>
            <rect id="Rectángulo_8622" data-name="Rectángulo 8622" width="43.935" height="4.252" transform="translate(173.691 176.472)" fill="#aeb8bd"/>
            <path id="Trazado_18985" data-name="Trazado 18985" d="M672.187,689.55H651.123l-5.1-29.416h-49.09v-4.252H649.6l5.1,29.417h17.486Z" transform="translate(-422.389 -464.103)" fill="#aeb8bd"/>
            <rect id="Rectángulo_8623" data-name="Rectángulo 8623" width="4.535" height="14.173" transform="translate(215.358 207.023)" fill="#464647"/>
            <path id="Trazado_18986" data-name="Trazado 18986" d="M709.789,742.151a8.929,8.929,0,1,1-8.929-8.929,8.929,8.929,0,0,1,8.929,8.929" transform="translate(-489.613 -518.829)" fill="#aeb8bd"/>
            <path id="Trazado_18987" data-name="Trazado 18987" d="M700.724,737.474a4.8,4.8,0,0,1,4.814,4.677,4.677,4.677,0,1,1-4.677-4.677Zm.137-4.252a8.929,8.929,0,1,0,8.929,8.929,8.929,8.929,0,0,0-8.929-8.929" transform="translate(-489.613 -518.829)" fill="#59595b"/>
            <path id="Trazado_18988" data-name="Trazado 18988" d="M722.2,737.27l-6.006,6.006a2.267,2.267,0,1,0,3.2,3.071l5.944-5.944Z" transform="translate(-506.075 -521.694)" fill="#464647"/>
            <path id="Trazado_18989" data-name="Trazado 18989" d="M794.628,757.876h14.949A1.879,1.879,0,0,0,811.457,756v-2.477a1.879,1.879,0,0,0-1.879-1.879H794.628a1.879,1.879,0,0,0-1.879,1.879V756a1.879,1.879,0,0,0,1.879,1.879" transform="translate(-560.951 -531.862)" fill="#446072"/>
            <path id="Trazado_18990" data-name="Trazado 18990" d="M520.62,534.988c14.794,0,26.651,15.736,26.651,35.148s-11.992,35.148-26.786,35.148S493.7,589.548,493.7,570.136s11.992-35.148,26.786-35.148Zm-.135-3.4a24.646,24.646,0,0,0-12.077,3.189,31,31,0,0,0-9.569,8.445c-5.508,7.227-8.542,16.786-8.542,26.915s3.033,19.688,8.542,26.915a30.994,30.994,0,0,0,9.569,8.445,24.461,24.461,0,0,0,24.154,0,31,31,0,0,0,9.569-8.445c5.508-7.227,8.541-16.786,8.541-26.915s-3.033-19.687-8.541-26.915a31,31,0,0,0-9.569-8.445,24.646,24.646,0,0,0-12.077-3.189" transform="translate(-346.936 -376.152)" fill="#59595b"/>
            <path id="Trazado_18991" data-name="Trazado 18991" d="M528.852,546.054c6.25,0,12.041,3.26,16.551,9.178,4.685,6.148,7.266,14.364,7.266,23.135s-2.58,16.987-7.266,23.135c-4.51,5.918-10.436,9.178-16.686,9.178s-12.175-3.26-16.686-9.178c-4.685-6.148-7.266-14.364-7.266-23.135s2.58-16.987,7.266-23.135c4.51-5.918,10.436-9.178,16.686-9.178Zm-.135-2.834c-14.794,0-26.786,15.736-26.786,35.148s11.992,35.148,26.786,35.148S555.5,597.779,555.5,578.368,543.51,543.22,528.717,543.22" transform="translate(-355.167 -384.384)" fill="#aeb8bd"/>
            <rect id="Rectángulo_8624" data-name="Rectángulo 8624" width="0.85" height="33.022" transform="translate(173.124 160.821)" fill="#aeb8bd"/>
            <rect id="Rectángulo_8625" data-name="Rectángulo 8625" width="0.85" height="30.534" transform="matrix(0.866, -0.5, 0.5, 0.866, 157.914, 167.612)" fill="#aeb8bd"/>
            <rect id="Rectángulo_8626" data-name="Rectángulo 8626" width="0.85" height="28.069" transform="matrix(0.5, -0.866, 0.866, 0.5, 149.028, 180.176)" fill="#aeb8bd"/>
            <rect id="Rectángulo_8627" data-name="Rectángulo 8627" width="26.786" height="0.85" transform="translate(146.763 193.417)" fill="#aeb8bd"/>
            <rect id="Rectángulo_8628" data-name="Rectángulo 8628" width="27.163" height="0.85" transform="translate(149.813 207.057) rotate(-30.005)" fill="#aeb8bd"/>
            <rect id="Rectángulo_8629" data-name="Rectángulo 8629" width="31.025" height="0.85" transform="translate(157.67 220.499) rotate(-60.006)" fill="#aeb8bd"/>
            <rect id="Rectángulo_8630" data-name="Rectángulo 8630" width="0.85" height="33.022" transform="translate(173.124 193.842)" fill="#aeb8bd"/>
            <rect id="Rectángulo_8631" data-name="Rectángulo 8631" width="0.85" height="31.063" transform="translate(173.181 194.055) rotate(-30)" fill="#aeb8bd"/>
            <rect id="Rectángulo_8632" data-name="Rectángulo 8632" width="0.85" height="27.485" transform="translate(173.337 194.211) rotate(-60)" fill="#aeb8bd"/>
            <rect id="Rectángulo_8633" data-name="Rectángulo 8633" width="25.369" height="0.85" transform="translate(173.549 193.417)" fill="#aeb8bd"/>
            <rect id="Rectángulo_8634" data-name="Rectángulo 8634" width="26.984" height="0.85" transform="translate(173.337 193.475) rotate(-30.005)" fill="#aeb8bd"/>
            <rect id="Rectángulo_8635" data-name="Rectángulo 8635" width="31.309" height="0.85" transform="matrix(0.5, -0.866, 0.866, 0.5, 173.18, 193.629)" fill="#aeb8bd"/>
            <path id="Trazado_18992" data-name="Trazado 18992" d="M588.017,651.078c0,2.818-1.741,5.1-3.888,5.1s-3.888-2.284-3.888-5.1,1.741-5.1,3.888-5.1,3.888,2.284,3.888,5.1" transform="translate(-410.579 -457.094)" fill="#aeb8bd"/>
            <path id="Trazado_18993" data-name="Trazado 18993" d="M580.834,642.546c2.148,0,3.753,2.284,3.753,5.1s-1.741,5.1-3.888,5.1-3.888-2.284-3.888-5.1,1.741-5.1,3.888-5.1Zm-.135-1.417c-2.925,0-5.306,2.925-5.306,6.519s2.38,6.519,5.306,6.519S586,651.243,586,647.648s-2.38-6.519-5.306-6.519" transform="translate(-407.149 -453.664)" fill="#59595b"/>
            <path id="Trazado_18994" data-name="Trazado 18994" d="M946.734,661.332s-1.628,2.171-3.8-.814-3.528-2.171-4.07-.814,1.182.873,2.714,3.256c2.442,3.8,5.156,6.513,5.97,6.784s3.227.82,3.649,2.446.965-5.43.693-5.7l-5.156-5.156" transform="translate(-664.27 -465.944)" fill="#bcac98"/>
            <path id="Trazado_18995" data-name="Trazado 18995" d="M1035.523,701.04s-2.8,7.763-1.429,9.881,5.148,9.133,4.576,10.322-.278,1.726.737,1.344,2.42-1.327,1.839-3.982-1.75-5.738-.874-7.968-1.08-8.794-1.08-8.794Z" transform="translate(-731.461 -496.057)" fill="#bcac98"/>
            <path id="Trazado_18996" data-name="Trazado 18996" d="M976.721,616.764s2.713-1.085,3.256,2.171,4.885,8.141,10.854,11.126c5.835,2.918,11.871,8.136,7.835,16.551s-16.518,3.53-19.775,0S968.58,642,965.867,636.3s0-9.226-.271-11.126,11.126-8.412,11.126-8.412" transform="translate(-682.589 -436.301)" fill="#d3c2a4"/>
            <path id="Trazado_18997" data-name="Trazado 18997" d="M971.156,682.536l-.116,1.351s.657,1.312,2.547,4.4,1.78,11.543,1.549,12.447-1.048,1.449.3,1.873,2,.018,2.811-4.068,1.039-3.143,1.389-5.422a15.8,15.8,0,0,0-.331-5.108Z" transform="translate(-687.11 -482.964)" fill="#d3c2a4"/>
            <path id="Trazado_18998" data-name="Trazado 18998" d="M1038.506,706.386s-1.489,3.972,1.5,6.8,5.743,4.107,6.82,6.163-1.28,2.753.515,2.751,3-.279,2.84-2.506-3.8-4.162-3.311-7.281,2.9-3.758,3.177-6.057-6.821-6.163-6.821-6.163l-5.154,6.453Z" transform="translate(-734.543 -495.386)" fill="#d3c2a4"/>
            <path id="Trazado_18999" data-name="Trazado 18999" d="M1079.594,690.134a3.906,3.906,0,0,0,4.745-.824c1.984-2.134,2.09-5.177-.148-7.048s-3.929.158-3.727.849,2.613,3.352.121,5.432c-1.2.767-.991,1.591-.991,1.591" transform="translate(-763.913 -482.224)" fill="#bcac98"/>
            <path id="Trazado_19000" data-name="Trazado 19000" d="M964.731,623.609l.993.8s4.961,1.678,10.7-4.628c2.271-3.355,1.567-3.933,1.567-3.933l-1.27.265s-2.44,7.342-11.991,7.494" transform="translate(-682.646 -435.777)" fill="#37454d"/>
            <path id="Trazado_19001" data-name="Trazado 19001" d="M964.636,580.989a2.3,2.3,0,0,0-1.9-.816c-1.413-.051-3.592,2.235-4.114,2.416s-1.782.473-.526.965,5.906-1.141,6.541-2.565" transform="translate(-677.568 -410.531)" fill="#4f3c22"/>
            <path id="Trazado_19002" data-name="Trazado 19002" d="M960.385,586.058s-2.2-3.108-5.512-3.176a7.9,7.9,0,0,0-5.207,1.987c-.756.626-1.357,1.387-2.068,2.053-.472.442-1.055.639-1.515,1.121a5.524,5.524,0,0,0-1.235,4.749c.4,1.529-1.4,5.976,3.69,7.14s11.883-1.823,13.358-4.45,2.8-5.292-1.511-9.425" transform="translate(-668.485 -412.448)" fill="#dacaaf"/>
            <path id="Trazado_19003" data-name="Trazado 19003" d="M994.705,593.819a3.272,3.272,0,0,1,2.786-.253c1.258.644,2.265.43,2.215,1.843s.139,4.949-1.563,6.011-1.266-1.834-2.112-2.847-2.253-4.336-1.325-4.755" transform="translate(-703.64 -419.844)" fill="#4f3c22"/>
            <path id="Trazado_19004" data-name="Trazado 19004" d="M499.292,308.354l7.895-2.09,3.511.7,1.533,1.978h-3.216l-.95,2.588,1.713,3.648,4.577-.054-1.611,3.131-6.032.826L499,315.62Z" transform="translate(-353.093 -216.713)" fill="#eacdb0"/>
            <path id="Trazado_19005" data-name="Trazado 19005" d="M342.1,137.369l5.295,1.8,9.921,37.059,26.023,11.988-1.017,8.574L353.987,192.7l-11.338-5.669L333.9,157.7l1.88-12.58Z" transform="translate(-236.267 -97.202)" fill="#9babe8"/>
            <path id="Trazado_19006" data-name="Trazado 19006" d="M1037.485,262.21l-6.3-3.947-8.187,3.8v3.8h7.31l7.175,1.134Z" transform="translate(-723.877 -182.747)" fill="#a08a78"/>
            <path id="Trazado_19007" data-name="Trazado 19007" d="M886,250.479l5.263-3.216,7.31,1.462v5.263l-9.888,3.44-1.516-.808Z" transform="translate(-626.935 -174.964)" fill="#a08a78"/>
            <path id="Trazado_19008" data-name="Trazado 19008" d="M216.484,139.918l7.414,3.353,20.882,42.622-2.288,9.154L230.764,191.9l-17.735-37.187Z" transform="translate(-150.74 -99.006)" fill="#c2969c"/>
            <path id="Trazado_19009" data-name="Trazado 19009" d="M128,729.287v7.066l4.711,4.711h3.655a2.108,2.108,0,0,0,1.886-3.051l-.83-1.66-2.356-4.711-2.356-4.711Z" transform="translate(-90.573 -514.378)" fill="#3a3029"/>
            <path id="Trazado_19010" data-name="Trazado 19010" d="M208,725.474v7.066l4.711,4.711,3.906-1.3a2.059,2.059,0,0,0,.8-3.409l-2.356-4.711-2.356-4.711Z" transform="translate(-147.181 -511.68)" fill="#3a3029"/>
            <path id="Trazado_19011" data-name="Trazado 19011" d="M74.585,436.253l8.263,42.805L88.369,519.9h8.852l4.7-41.446,3.78-48.785Z" transform="translate(-52.777 -304.036)" fill="#928475"/>
            <path id="Trazado_19012" data-name="Trazado 19012" d="M188.792,439.3l2.047,42.453-6.159,44.406-8.785.459-3.6-44.192-8.808-39.357Z" transform="translate(-115.683 -310.846)" fill="#928475"/>
            <path id="Trazado_19013" data-name="Trazado 19013" d="M166.869,66.229l8.018,2.436a52.47,52.47,0,0,0,2.2-7.147c2.458.065,5.408-.154,6.733-2.528a8.653,8.653,0,0,0,.781-2.465l2.211-10.536a10.6,10.6,0,0,0,.332-3.679,7.368,7.368,0,0,0-3.529-4.778,15.536,15.536,0,0,0-14.237-1.97,7.916,7.916,0,0,0-3.4,2.324c-1.384,1.731-1.742,4.142-2.039,6.4q-.411,3.13-.822,6.26c-.315,2.4-.518,5.2,1.029,6.809.821.857,2.032,1.229,2.682,2.255,1.146,1.809-.062,4.369.042,6.619" transform="translate(-115.265 -24.5)" fill="#eacdb0"/>
            <path id="Trazado_19014" data-name="Trazado 19014" d="M160.694,26.71a21.014,21.014,0,0,1-7.154,4.57c-1.677.587-3.324.665-3.8,2.723a6.418,6.418,0,0,0,1.825,5.692,2.393,2.393,0,0,1,.642.751,1.34,1.34,0,0,1-.765,1.621,2.691,2.691,0,0,1-1.91-.022,8.566,8.566,0,0,1-4.474-3.739,14.816,14.816,0,0,1-1.252-12.25,19.065,19.065,0,0,1,7.484-9.88c3.178-2.094,6.344-4.3,10.339-3.7,2.251.338,5.908,2.408,5.455,5.243-.477,2.979-4.338,6.989-6.39,8.985" transform="translate(-101.215 -8.761)" fill="#bfbebe"/>
            <path id="Trazado_19015" data-name="Trazado 19015" d="M215.825,35.084c1.323,1.488,2.926,2.955,3.215,4.884a7.333,7.333,0,0,1-.187,2.535,45.606,45.606,0,0,1-1.127,4.426,8.351,8.351,0,0,1-2.434,4.239c-.532.416-4.03,1.932-1.473,2.835a2.909,2.909,0,0,0,2.249-.434c5.468-2.88,9.558-8.3,10.092-14.311a15.645,15.645,0,0,0-2.918-10.382c-1.974-2.752-6.121-6.4-9.908-5.07-5.047,1.769.506,9.046,2.491,11.279" transform="translate(-149.496 -16.645)" fill="#bfbebe"/>
            <path id="Trazado_19016" data-name="Trazado 19016" d="M110.266,155.56c.578-5.2-.141-12.968-4.921-16.2-4.128-2.789-7.475-3.1-12.379-3.1H83.648l-1.987.131S65.642,146.978,58.2,176.441c-6.934,27.469-11.156,65.792-4.291,66.65a.907.907,0,0,0,.356-.032c1.032.14,3.949.523,8.159.963,5.385.307,10.791.4,16.183.374,9.292-.052,18.976.481,27.548-3.706,6.511-3.181,14.759-7.481,11.716-16-1.711-4.46-3.694-9.811-5.607-16.213-7.437-24.886-3.147-42.621-2-52.92" transform="translate(-35.677 -96.42)" fill="#5d33ff"/>
            <path id="Trazado_19017" data-name="Trazado 19017" d="M70.042,136.712l-7.151,2.861L34,173.9l1.716,8.868,32.324,20.6,4.863-7.151L49.446,173.9l18.593-18.88Z" transform="translate(-24.058 -96.738)" fill="#5d33ff"/>
            <rect id="Rectángulo_8636" data-name="Rectángulo 8636" width="71.86" height="53.988" transform="translate(23.781 106.516) rotate(-75.087)" fill="#3c657c"/>
            <g id="Grupo_13437" data-name="Grupo 13437" transform="translate(28.468 52.482)" opacity="0.26">
              <g id="Grupo_13436" data-name="Grupo 13436">
                <g id="Grupo_13435" data-name="Grupo 13435" clip-path="url(#clip-path-8)">
                  <path id="Trazado_19018" data-name="Trazado 19018" d="M97.361,231.575l.781.208,45.691,13.7,16.284-65.992-2.3.044Z" transform="translate(-97.361 -179.486)"/>
                </g>
              </g>
            </g>
            <rect id="Rectángulo_8638" data-name="Rectángulo 8638" width="66.484" height="48.542" transform="translate(27.207 104.234) rotate(-75.087)" fill="#fffff1"/>
            <g id="Grupo_13440" data-name="Grupo 13440" transform="translate(36.527 39.675)" opacity="0.05">
              <g id="Grupo_13439" data-name="Grupo 13439">
                <g id="Grupo_13438" data-name="Grupo 13438" clip-path="url(#clip-path-9)">
                  <path id="Trazado_19019" data-name="Trazado 19019" d="M132.522,135.691l33.739,8.985-41.34,19.33Z" transform="translate(-124.921 -135.69)"/>
                </g>
              </g>
            </g>
            <g id="Grupo_13443" data-name="Grupo 13443" transform="translate(57.167 43.183)" opacity="0.12">
              <g id="Grupo_13442" data-name="Grupo 13442">
                <g id="Grupo_13441" data-name="Grupo 13441" clip-path="url(#clip-path-10)">
                  <rect id="Rectángulo_8640" data-name="Rectángulo 8640" width="1.974" height="21.082" transform="matrix(0.257, -0.966, 0.966, 0.257, 0, 1.907)"/>
                </g>
              </g>
            </g>
            <path id="Trazado_19020" data-name="Trazado 19020" d="M213.752,128.158l-.316-.084.057-.213a4.067,4.067,0,0,0-3.21-4.738l-3.037-.809a4.067,4.067,0,0,0-5.141,2.514l-.057.213-.316-.084a4.067,4.067,0,0,0-5.141,2.514l-1.079,4.051,20.372,5.425,1.079-4.051a4.067,4.067,0,0,0-3.21-4.738m-3.349-.8-5.367-1.43a1.03,1.03,0,1,1,.53-1.99l5.367,1.429a1.03,1.03,0,1,1-.53,1.99" transform="translate(-138.344 -86.431)" fill="#c4d3d3"/>
            <g id="Grupo_13446" data-name="Grupo 13446" transform="translate(36.693 59.591)" opacity="0.47">
              <g id="Grupo_13445" data-name="Grupo 13445">
                <g id="Grupo_13444" data-name="Grupo 13444" clip-path="url(#clip-path-11)">
                  <path id="Trazado_19021" data-name="Trazado 19021" d="M157.809,205.649l-6.887-1.834a.376.376,0,0,0-.454.262l-1.829,6.869a.376.376,0,0,0,.263.454l6.887,1.834a.341.341,0,0,0,.268-.031l.016-.008.008-.006a.34.34,0,0,0,.162-.218l1.83-6.869a.376.376,0,0,0-.263-.453m-2.188,6.774-6.17-1.643,1.639-6.154,6.169,1.643-1.639,6.154" transform="translate(-141.862 -203.803)" fill="#8c9498"/>
                  <path id="Trazado_19022" data-name="Trazado 19022" d="M146.24,249.085l-6.887-1.834a.376.376,0,0,0-.454.262l-1.83,6.869a.376.376,0,0,0,.263.453l6.887,1.834a.343.343,0,0,0,.268-.031l.015-.008.008-.005a.343.343,0,0,0,.162-.218l1.829-6.869a.376.376,0,0,0-.263-.454m-2.188,6.774-6.17-1.643,1.639-6.154,6.169,1.643-1.638,6.154" transform="translate(-133.676 -234.538)" fill="#8c9498"/>
                  <path id="Trazado_19023" data-name="Trazado 19023" d="M134.672,292.522l-6.887-1.834a.376.376,0,0,0-.454.262l-1.83,6.869a.376.376,0,0,0,.263.453l6.887,1.834a.342.342,0,0,0,.268-.031l.015-.008.008-.005a.342.342,0,0,0,.162-.218l1.829-6.869a.376.376,0,0,0-.263-.453m-2.188,6.774-6.17-1.643,1.639-6.154,6.169,1.643-1.639,6.154" transform="translate(-125.49 -265.274)" fill="#8c9498"/>
                </g>
              </g>
            </g>
            <path id="Trazado_19024" data-name="Trazado 19024" d="M162.042,210.692l1.723-.1.459,1.813,9.011-3.424.833.41-10.709,4.85Z" transform="translate(-114.661 -147.872)" fill="#6bac8f"/>
            <path id="Trazado_19025" data-name="Trazado 19025" d="M148.218,254.707l1.723-.1.459,1.813,9.011-3.424.833.41-10.709,4.85Z" transform="translate(-104.879 -179.017)" fill="#6bac8f"/>
            <path id="Trazado_19026" data-name="Trazado 19026" d="M136.778,295.689l1.723-.1.459,1.813,9.011-3.424.833.409-10.709,4.851Z" transform="translate(-96.785 -208.016)" fill="#6bac8f"/>
            <g id="Grupo_13449" data-name="Grupo 13449" transform="translate(48.641 90.808)" opacity="0.32">
              <g id="Grupo_13448" data-name="Grupo 13448">
                <g id="Grupo_13447" data-name="Grupo 13447" clip-path="url(#clip-path-12)">
                  <rect id="Rectángulo_8643" data-name="Rectángulo 8643" width="3.554" height="25.142" transform="matrix(0.257, -0.966, 0.966, 0.257, 0, 3.434)" fill="#8c9498"/>
                </g>
              </g>
            </g>
            <g id="Grupo_13452" data-name="Grupo 13452" transform="translate(52.224 77.356)" opacity="0.32">
              <g id="Grupo_13451" data-name="Grupo 13451">
                <g id="Grupo_13450" data-name="Grupo 13450" clip-path="url(#clip-path-12)">
                  <rect id="Rectángulo_8645" data-name="Rectángulo 8645" width="3.554" height="25.142" transform="matrix(0.257, -0.966, 0.966, 0.257, 0, 3.435)" fill="#8c9498"/>
                </g>
              </g>
            </g>
            <g id="Grupo_13455" data-name="Grupo 13455" transform="translate(55.806 63.904)" opacity="0.32">
              <g id="Grupo_13454" data-name="Grupo 13454">
                <g id="Grupo_13453" data-name="Grupo 13453" clip-path="url(#clip-path-12)">
                  <rect id="Rectángulo_8647" data-name="Rectángulo 8647" width="3.554" height="25.142" transform="translate(0 3.435) rotate(-75.087)" fill="#8c9498"/>
                </g>
              </g>
            </g>
            <path id="Trazado_19027" data-name="Trazado 19027" d="M34,257.66l12.872-2.575,28.033,24.887-7.151,7.151-32.038-20.6Z" transform="translate(-24.058 -180.499)" fill="#5d33ff"/>
            <path id="Trazado_19028" data-name="Trazado 19028" d="M160.666,344.427l6.383,3.34,2,8.009-3.719.858L160.47,351.2l-3.931-2.934Z" transform="translate(-110.767 -243.717)" fill="#eacdb0"/>
            <path id="Trazado_19029" data-name="Trazado 19029" d="M233.7,252.849l-6.045-8.839-26.851-9.468-3.432,6.007L224.689,260.2l6.727,1.8Z" transform="translate(-139.664 -165.962)" fill="#5d33ff"/>
            <path id="Trazado_19030" data-name="Trazado 19030" d="M170.388,228.071l-6.212-4.29-8.868.858.286,3.432,9.44,3.433,3.31.143Z" transform="translate(-109.897 -158.348)" fill="#eacdb0"/>
          </g>
        </g>
      </g>
    </g>
  </g>
</svg>
