<svg xmlns="http://www.w3.org/2000/svg" xmlns:xlink="http://www.w3.org/1999/xlink" width="152.443" height="152.443" viewBox="0 0 152.443 152.443">
  <defs>
    <clipPath id="clip-path">
      <path id="Trazado_8747" data-name="Trazado 8747" d="M65.13,0a65.13,65.13,0,1,0,65.13,65.131A65.13,65.13,0,0,0,65.13,0Z" fill="none"/>
    </clipPath>
  </defs>
  <g id="Grupo_13559" data-name="Grupo 13559" transform="translate(-280.517 -4247.172)">
    <path id="Trazado_8701" data-name="Trazado 8701" d="M1947.738,6466.172q3.745,0,7.471.367t7.4,1.1q3.673.729,7.256,1.817t7.043,2.52q3.459,1.433,6.762,3.2t6.416,3.845q3.113,2.08,6.008,4.456t5.542,5.024q2.648,2.648,5.023,5.542t4.456,6.008q2.08,3.113,3.846,6.416t3.2,6.762q1.433,3.458,2.52,7.042t1.817,7.256q.731,3.674,1.1,7.4t.367,7.471q0,3.746-.367,7.471t-1.1,7.4q-.73,3.672-1.817,7.255t-2.52,7.043q-1.432,3.459-3.2,6.762t-3.846,6.416q-2.08,3.112-4.456,6.008t-5.023,5.542q-2.648,2.649-5.542,5.023t-6.008,4.456q-3.114,2.08-6.416,3.846t-6.762,3.2q-3.459,1.433-7.043,2.52t-7.256,1.817q-3.672.732-7.4,1.1t-7.471.367q-3.744,0-7.471-.367t-7.4-1.1q-3.672-.73-7.256-1.817t-7.042-2.52q-3.461-1.434-6.762-3.2t-6.416-3.846q-3.114-2.079-6.008-4.456t-5.542-5.023q-2.649-2.648-5.024-5.542t-4.456-6.008q-2.079-3.114-3.845-6.416t-3.2-6.762q-1.432-3.459-2.52-7.043t-1.818-7.255q-.73-3.674-1.1-7.4t-.367-7.471q0-3.744.367-7.471t1.1-7.4q.731-3.672,1.818-7.256t2.52-7.042q1.433-3.461,3.2-6.762t3.845-6.416q2.08-3.114,4.456-6.008t5.024-5.542q2.648-2.649,5.542-5.024t6.008-4.456q3.114-2.079,6.416-3.845t6.762-3.2q3.459-1.434,7.042-2.52t7.256-1.817q3.673-.732,7.4-1.1T1947.738,6466.172Z" transform="translate(-1591 -2219)" fill="#f7ec45"/>
    <circle id="Elipse_351" data-name="Elipse 351" cx="71.597" cy="71.597" r="71.597" transform="translate(285.142 4251.797)" fill="#fff"/>
    <circle id="Elipse_352" data-name="Elipse 352" cx="65.13" cy="65.13" r="65.13" transform="translate(291.608 4258.263)" fill="#c2d8ff"/>
    <g id="Grupo_4650" data-name="Grupo 4650" transform="translate(292 4258)">
      <g id="Grupo_4649" data-name="Grupo 4649" clip-path="url(#clip-path)">
        <path id="Trazado_8706" data-name="Trazado 8706" d="M11.642,36.069S27.525,52.308,63.658,54.688L64.937,30.2s-42.728,1.462-53.295,5.866" fill="#b68e30"/>
        <path id="Trazado_8707" data-name="Trazado 8707" d="M117.2,34.935S102.348,52.308,66.222,54.688L64.937,30.2s41.7.329,52.264,4.732" fill="#b68e30"/>
        <path id="Trazado_8708" data-name="Trazado 8708" d="M64.991,81.953l-14.54-7.285v32.943s5.624,7.771,14.54,7.771c10.524,0,14.534-7.242,14.534-7.242V79.525Z" fill="#ffe5ba"/>
        <path id="Trazado_8709" data-name="Trazado 8709" d="M79.525,87.5v1.992c0,.615-11.361,6.7-29.1,14.276V84.075Z" fill="#fdbd86"/>
        <path id="Trazado_8710" data-name="Trazado 8710" d="M43.9,58.515s.086.674.232,1.791c.75,5.688,3.06,23.067,3.616,24.065.3.54,3.012,2.229,6.271,3.88,3.951,2.008,8.705,3.973,10.967,3.811V32.4S40.456,27.217,43.9,58.515" fill="#fdd9aa"/>
        <path id="Trazado_8711" data-name="Trazado 8711" d="M82.229,84.371c.659-1.192,3.843-25.855,3.843-25.855a75.46,75.46,0,0,0,.383-13.894c-.491-6.347-2.116-11.063-5.154-12.536-6.671-3.233-16.31.318-16.31.318V92.062c2.278.163,7.081-1.83,11.048-3.853,3.222-1.646,5.888-3.3,6.19-3.838" fill="#ffe5ba"/>
        <path id="Trazado_8712" data-name="Trazado 8712" d="M81.3,32.085s4.447,0,5.327,4.107C87.955,42.42,85.574,61.3,85.574,61.3s-2.779-15.257-3.712-20.984a62.537,62.537,0,0,1-.562-8.23" fill="#bf5835"/>
        <path id="Trazado_8713" data-name="Trazado 8713" d="M56.76,49.491c-8.187-1.846-9.045,2.256-9.045,2.256,4.431-1.927,10.005,1.479,13.023,2.245,2.6.658,2.272-3.125,2.164-3.918-.119.265-1.053.562-6.142-.583" fill="#7d402c"/>
        <path id="Trazado_8714" data-name="Trazado 8714" d="M74.4,50.2c8.182-1.846,9.045,2.25,9.045,2.25-4.431-1.926-9.44.955-12.462,1.729-2.6.657-2.828-2.6-2.725-3.39.119.265,1.053.56,6.142-.589" fill="#7d402c"/>
        <path id="Trazado_8715" data-name="Trazado 8715" d="M81.3,32.085A88.12,88.12,0,0,0,54.283,44.93c-6.579,4.755-10.5,4.62-10.5,4.62l-.7-15.166s9.763-11.981,27.249-8.15c6.163,1.35,9.509,3.093,10.961,5.851" fill="#bf5835"/>
        <path id="Trazado_8716" data-name="Trazado 8716" d="M71.591,34.488C62.308,38.314,46.1,47.543,44.336,63.976c-1.246,11.577-8.624,10.789-8.624,10.789s4.5-1.948,3.211-14.119c-.583-5.5-7.993-36.554,23.347-37.789,17.006-.669,19.106,8.495,19.106,8.495s-7.41,2.158-9.785,3.136" fill="#7d402c"/>
        <path id="Trazado_8717" data-name="Trazado 8717" d="M89.132,44.974a2.313,2.313,0,0,0-2.678-.352,70.112,70.112,0,0,1-.075,10.557c.253-8.22-1.7-13.438-4.528-16.73,2.337,3.67,3.664,9.3,2.719,17.9,0,0-2.331,18.016-3.875,22-2.5,6.434-11.873,9.439-15.705,9.164-3.837.275-12.316-3.535-15.229-8.359C46.534,73.8,45.4,56.35,45.4,56.35c-.945-8.6.384-14.231,2.72-17.9-3.286,3.832-5.4,10.275-4.221,21.021,0,0,.054.426.152,1.154-1.154,4.41-2.946,11.454-2.1,9.359,0,0,.146,8.16,0,12.877,0,0,7.674,6.735,10.493,11.058,0,0,.221-1.09.674-2.715a21.019,21.019,0,0,0,23.837-.442c.583,1.706.891,2.86.891,2.86C80.657,89.3,87.922,82.86,87.922,82.86c-.14-4.717,0-12.877,0-12.877,1.21,2.99,2.618,3.783,2.618,3.783a247.3,247.3,0,0,0-1.408-28.792" fill="#7d402c"/>
        <path id="Trazado_8718" data-name="Trazado 8718" d="M41.476,41.255s.928,16.412-7.113,21.463c0,0,14.178,1.479,15.441-15.586.863-11.647-8.328-5.877-8.328-5.877" fill="#7d402c"/>
        <path id="Trazado_8719" data-name="Trazado 8719" d="M78.543,32.965s-3.756,9.429,6.217,27.018C91.6,72.044,97.1,62.076,97.1,62.076s-2.429.588-4.706-2.947c-3.152-4.89,2.925-26.256-11.1-27.044Z" fill="#7d402c"/>
        <path id="Trazado_8720" data-name="Trazado 8720" d="M15.387,117.012c3.638,3.3,8.549,12.646,7.944,43.516L7.157,160.49s.674-39.415,8.23-43.478" fill="#c6cebe"/>
        <path id="Trazado_8721" data-name="Trazado 8721" d="M48.827,102.559l-11.943,5.159.037.066c-.021-.028-.048-.038-.07-.066,0,0-17.68,7.47-21.339,9.224a.582.582,0,0,0-.13.07c3.638,3.3,8.549,12.646,7.945,43.516l41.982.1-.378-57.186c-.9.2-16.1-.885-16.1-.885" fill="#c6cebe"/>
        <path id="Trazado_8722" data-name="Trazado 8722" d="M115.237,117.012c-3.644,3.3-8.554,12.646-7.951,43.516l16.18-.038s-.68-39.415-8.229-43.478" fill="#d1d8cb"/>
        <path id="Trazado_8723" data-name="Trazado 8723" d="M81.8,102.559l11.938,5.159-.033.066c.022-.028.049-.038.065-.066,0,0,17.681,7.47,21.345,9.224a.79.79,0,0,1,.13.07c-3.638,3.3-8.554,12.646-7.945,43.516l-41.988.1-.378-57.186c.891.2,16.866-.885,16.866-.885" fill="#d1d8cb"/>
        <path id="Trazado_8724" data-name="Trazado 8724" d="M69.119,75.774c-2.31-.248-3.06-.291-3.81.113-.75-.4-1.5-.361-3.8-.113-2.467.259-5.052.761-5.052.761s1.965,4,7.853,4.237c.3,0,.643.032,1,.048.361-.016.707-.043,1.015-.048,5.877-.232,7.847-4.237,7.847-4.237s-2.586-.5-5.052-.761" fill="#fdb88d"/>
        <path id="Trazado_8725" data-name="Trazado 8725" d="M65.309,71.818s-7.788-2.261-10.708,3.52c-2.471,4.9-3.508,3.416-3.508,3.416s1.1,2.5,4.118-.508,10.1,0,10.1,0Z" fill="#7d402c"/>
        <path id="Trazado_8726" data-name="Trazado 8726" d="M65.309,71.818s7.426-2.062,10.713,3.52c2.876,4.9,3.5,3.416,3.5,3.416s-1.1,2.5-4.118-.508-10.1,0-10.1,0Z" fill="#7d402c"/>
        <path id="Trazado_8727" data-name="Trazado 8727" d="M64.931,103.444,50.424,95.538l-3.583,7.874,12.261,13.6Z" fill="#858585"/>
        <path id="Trazado_8728" data-name="Trazado 8728" d="M64.931,103.444l14.594-7.906,3.491,7.874-12.262,13.6Z" fill="#959494"/>
        <path id="Trazado_8729" data-name="Trazado 8729" d="M23.574,113.38s5.375,24.485,4.474,47.25H65.309V135.453L44.4,137.008s-3.654-21.944-8.792-28.761Z" fill="#858585"/>
        <path id="Trazado_8730" data-name="Trazado 8730" d="M107.049,113.38s-5.375,24.485-4.479,47.25H65.309V135.453l20.913,1.555s3.659-21.944,8.8-28.761Z" fill="#959494"/>
        <path id="Trazado_8731" data-name="Trazado 8731" d="M58.541,74.781s-3.135,1.8-1.327,11.231-3.411,1.5-3.708,0-.6-7.976,1.9-10.459,3.135-.772,3.135-.772" fill="#7d402c"/>
        <path id="Trazado_8732" data-name="Trazado 8732" d="M57.1,77.171s-2.963,12.754,7.831,6.666v4.685S49.814,91.69,57.1,77.171" fill="#7d402c"/>
        <path id="Trazado_8733" data-name="Trazado 8733" d="M71.316,74.781s3.136,1.8,1.328,11.231,3.41,1.5,3.713,0,.6-7.976-1.9-10.459-3.136-.772-3.136-.772" fill="#7d402c"/>
        <path id="Trazado_8734" data-name="Trazado 8734" d="M72.757,77.171s2.963,12.754-7.826,6.666v4.685s15.112,3.168,7.826-11.351" fill="#7d402c"/>
        <path id="Trazado_8735" data-name="Trazado 8735" d="M91.069,28.567c-.13-.006-.27-.011-.416-.021-1.009-5.419-2.9-13.979-5.45-18.852C80.5.7,76.13,8.161,68.946,9.046a12.4,12.4,0,0,1-3.955-.091V43.268c24.9-.124,52.21-8.333,52.21-8.333C112.052,30.2,96,28.858,91.069,28.567" fill="#f5ca66"/>
        <path id="Trazado_8736" data-name="Trazado 8736" d="M50.948,5.6c-7.361.162-10.665,14.847-11.922,22.818-8.964,1.246-24.48,3.891-27.384,7.648,0,0,27.735,7.2,52.782,7.2.184,0,.378-.006.567-.006V8.955C61,8.166,58.838,5.43,50.948,5.6" fill="#f2bd40"/>
        <path id="Trazado_8737" data-name="Trazado 8737" d="M30.9,34.708a.891.891,0,0,1-.259-.037L11.377,28.383a.841.841,0,0,1,.524-1.6l19.262,6.282a.852.852,0,0,1,.539,1.064.843.843,0,0,1-.8.577" fill="#f2bd40"/>
        <path id="Trazado_8738" data-name="Trazado 8738" d="M43.511,36.112a.831.831,0,0,1-.718-.41L32.345,18.345a.844.844,0,1,1,1.446-.869L44.234,34.833a.843.843,0,0,1-.286,1.155.818.818,0,0,1-.437.124" fill="#f2bd40"/>
        <path id="Trazado_8739" data-name="Trazado 8739" d="M63.005,19.91a.865.865,0,0,1-.686-.355L50.516,3.094a.843.843,0,0,1,1.371-.983l11.8,16.461a.845.845,0,0,1-.189,1.177.865.865,0,0,1-.5.161" fill="#f2bd40"/>
        <path id="Trazado_8740" data-name="Trazado 8740" d="M97.1,36.112a.844.844,0,0,1-.264-1.646L116.068,28.1a.845.845,0,0,1,1.063.534A.831.831,0,0,1,116.6,29.7L97.368,36.069a.946.946,0,0,1-.265.043" fill="#f5ca66"/>
        <path id="Trazado_8741" data-name="Trazado 8741" d="M112.139,40.138c-.049,0-.1-.006-.151-.011L92.046,36.56a.842.842,0,1,1,.3-1.657l19.942,3.562a.843.843,0,0,1-.146,1.673" fill="#f5ca66"/>
        <path id="Trazado_8742" data-name="Trazado 8742" d="M11.642,40.824a.841.841,0,0,1-.248-1.646l16.32-4.933a.84.84,0,1,1,.486,1.608L11.885,40.786a.761.761,0,0,1-.243.038" fill="#f2bd40"/>
        <path id="Trazado_8743" data-name="Trazado 8743" d="M35.713,47.769a.857.857,0,0,1-.725-.4.848.848,0,0,1,.288-1.16l13.572-8.252a.842.842,0,1,1,.874,1.44L36.149,47.645a.82.82,0,0,1-.436.124" fill="#f2bd40"/>
        <path id="Trazado_8744" data-name="Trazado 8744" d="M38.654,146.538a2.944,2.944,0,1,1-2.941-2.94,2.944,2.944,0,0,1,2.941,2.94" fill="#646464"/>
        <path id="Trazado_8745" data-name="Trazado 8745" d="M96.439,146.538A2.942,2.942,0,1,1,93.5,143.6a2.944,2.944,0,0,1,2.941,2.94" fill="#706f6f"/>
        <path id="Trazado_8746" data-name="Trazado 8746" d="M96.412,26.322a.761.761,0,0,1-.243-.038L84.458,22.759a.834.834,0,0,1-.567-1.046.849.849,0,0,1,1.047-.567l11.717,3.525a.844.844,0,0,1-.243,1.651" fill="#f5ca66"/>
      </g>
    </g>
  </g>
</svg>
