<svg xmlns="http://www.w3.org/2000/svg" xmlns:xlink="http://www.w3.org/1999/xlink" width="202.667" height="202.667" viewBox="0 0 202.667 202.667">
  <defs>
    <clipPath id="clip-path">
      <rect id="Rectángulo_3717" data-name="Rectángulo 3717" width="193.928" height="193.301" fill="none"/>
    </clipPath>
    <clipPath id="clip-path-2">
      <path id="Trazado_8814" data-name="Trazado 8814" d="M97.3,0a96.65,96.65,0,1,0,96.649,97.058v-.814A96.654,96.654,0,0,0,97.3,0Z" transform="translate(-0.645)" fill="none"/>
    </clipPath>
    <clipPath id="clip-path-3">
      <rect id="Rectángulo_3715" data-name="Rectángulo 3715" width="42.408" height="33.438" fill="none"/>
    </clipPath>
    <clipPath id="clip-path-4">
      <rect id="Rectángulo_3716" data-name="Rectángulo 3716" width="35.895" height="27.927" fill="none"/>
    </clipPath>
  </defs>
  <g id="Grupo_13559" data-name="Grupo 13559" transform="translate(-613.261 -1300.878)">
    <circle id="Elipse_54" data-name="Elipse 54" cx="98.333" cy="98.333" r="98.333" transform="translate(616.261 1303.878)" fill="none" stroke="#97c7ea" stroke-miterlimit="10" stroke-width="6"/>
    <g id="Grupo_4669" data-name="Grupo 4669" transform="translate(619 1307.409)">
      <g id="Grupo_4668" data-name="Grupo 4668" clip-path="url(#clip-path)">
        <g id="Grupo_4667" data-name="Grupo 4667" transform="translate(0.627)">
          <g id="Grupo_4666" data-name="Grupo 4666" clip-path="url(#clip-path-2)">
            <path id="Trazado_8788" data-name="Trazado 8788" d="M99.36,75.406c-6.593,4.745-28.8,20.9-28.8,20.9L64.55,87.022S89.677,72.487,94.059,70.066c4.525-2.5,11.122,1.148,5.3,5.34" transform="translate(-2.385 -1.885)" fill="#de9875"/>
            <path id="Trazado_8789" data-name="Trazado 8789" d="M108.735,80.486c-6.747,4.635-31.594,22.427-31.594,22.427L71.693,95.6s28.288-18.033,32.284-21.051c5.119-3.865,9.915,2.4,4.759,5.94" transform="translate(-2.579 -1.996)" fill="#de9875"/>
            <path id="Trazado_8790" data-name="Trazado 8790" d="M111.778,90.716c-5.952,4.643-29.326,19.923-29.326,19.923l-4.487-6.915s25.2-16.972,28.944-19.684c4.933-3.578,11.145,1.779,4.87,6.676" transform="translate(-2.75 -2.256)" fill="#de9875"/>
            <path id="Trazado_8791" data-name="Trazado 8791" d="M113.06,99.834c-4.9,5.562-25.439,18.325-25.439,18.325l-4.784-6.392s23.241-15.019,27.145-17.486,6.782,1.344,3.078,5.553" transform="translate(-2.882 -2.545)" fill="#de9875"/>
            <path id="Trazado_8792" data-name="Trazado 8792" d="M86.242,118.184s-15.471,13.633-21.524,16.837c-5.7,3.02-9.917,1.161-9.917,1.161L41.2,147.958l-5.685-9.136,17.056-13.808L71.451,94.76Z" transform="translate(-1.594 -2.58)" fill="#de9875"/>
            <path id="Trazado_8793" data-name="Trazado 8793" d="M141.967,151.314H56.937l9.233-25.425H151.2Z" transform="translate(-2.177 -3.427)" fill="#fff"/>
            <path id="Trazado_8794" data-name="Trazado 8794" d="M141.967,151.314H56.937l9.233-25.425H151.2Z" transform="translate(-2.177 -3.427)" fill="none" stroke="#d2d1d1" stroke-linecap="round" stroke-linejoin="round" stroke-width="1.282"/>
            <path id="Trazado_8795" data-name="Trazado 8795" d="M151.457,68.329H66.429L88.742,34.977H173.77Z" transform="translate(-2.436 -0.952)" fill="#fff"/>
            <path id="Trazado_8796" data-name="Trazado 8796" d="M151.457,68.329H66.429L88.742,34.977H173.77Z" transform="translate(-2.436 -0.952)" fill="none" stroke="#d2d1d1" stroke-linecap="round" stroke-linejoin="round" stroke-width="1.282"/>
            <path id="Trazado_8797" data-name="Trazado 8797" d="M143.636,134H67.323l1.225-3.67h76.527Z" transform="translate(-2.46 -3.548)" fill="#a3a3a3"/>
            <path id="Trazado_8798" data-name="Trazado 8798" d="M141.428,140.024H65.339l1.462-3.671h76.088Z" transform="translate(-2.406 -3.712)" fill="#a3a3a3"/>
            <path id="Trazado_8799" data-name="Trazado 8799" d="M106.14,146.049H64.153l1.154-3.669H106.14Z" transform="translate(-2.374 -3.876)" fill="#a3a3a3"/>
            <path id="Trazado_8800" data-name="Trazado 8800" d="M153.163,48.376H106.421l2.307-4.244h49.63Z" transform="translate(-3.524 -1.201)" fill="#a3a3a3"/>
            <path id="Trazado_8801" data-name="Trazado 8801" d="M148.191,55.345H103.223L105.5,51.1h46.21Z" transform="translate(-3.437 -1.391)" fill="#a3a3a3"/>
            <path id="Trazado_8802" data-name="Trazado 8802" d="M125.389,62.314H100.726l2.044-4.245h24.72Z" transform="translate(-3.369 -1.581)" fill="#a3a3a3"/>
            <path id="Trazado_8803" data-name="Trazado 8803" d="M161.782,124.348H78.575L66.428,69.263h85.029Z" transform="translate(-2.436 -1.885)" fill="#eaeaea"/>
            <path id="Trazado_8804" data-name="Trazado 8804" d="M161.782,124.348H78.575L66.428,69.263h85.029Z" transform="translate(-2.436 -1.885)" fill="none" stroke="#d2d1d1" stroke-linecap="round" stroke-linejoin="round" stroke-width="1.282"/>
            <path id="Trazado_8805" data-name="Trazado 8805" d="M145.876,77.149H77.181l-.8-3.669h68.794Z" transform="translate(-2.707 -2)" fill="#a3a3a3"/>
            <path id="Trazado_8806" data-name="Trazado 8806" d="M147.028,83.176H78.49l-.8-3.669h68.636Z" transform="translate(-2.742 -2.164)" fill="#a3a3a3"/>
            <path id="Trazado_8807" data-name="Trazado 8807" d="M116.232,89.2H79.8L79,85.53h36.487Z" transform="translate(-2.778 -2.328)" fill="#a3a3a3"/>
            <path id="Trazado_8808" data-name="Trazado 8808" d="M150.357,100.625H82.278L80.461,92.26h68.306Z" transform="translate(-2.818 -2.511)" fill="#353e44"/>
            <path id="Trazado_8809" data-name="Trazado 8809" d="M148.521,92.565l5.768,30.3H87.4l-6.573-30.3Zm.245-.3h-68.3l6.709,30.9h67.475Z" transform="translate(-2.818 -2.511)" fill="#353e44"/>
            <line id="Línea_253" data-name="Línea 253" x2="67.983" transform="translate(80.242 101.718)" fill="none" stroke="#353e44" stroke-miterlimit="10" stroke-width="0.423"/>
            <line id="Línea_254" data-name="Línea 254" x2="67.883" transform="translate(81.052 105.449)" fill="none" stroke="#353e44" stroke-miterlimit="10" stroke-width="0.423"/>
            <line id="Línea_255" data-name="Línea 255" x2="67.784" transform="translate(81.862 109.18)" fill="none" stroke="#353e44" stroke-miterlimit="10" stroke-width="0.423"/>
            <line id="Línea_256" data-name="Línea 256" x2="67.684" transform="translate(82.672 112.911)" fill="none" stroke="#353e44" stroke-miterlimit="10" stroke-width="0.423"/>
            <line id="Línea_257" data-name="Línea 257" x2="67.584" transform="translate(83.482 116.643)" fill="none" stroke="#353e44" stroke-miterlimit="10" stroke-width="0.423"/>
            <line id="Línea_258" data-name="Línea 258" x1="6.629" y1="30.904" transform="translate(84.347 89.749)" fill="none" stroke="#353e44" stroke-miterlimit="10" stroke-width="0.423"/>
            <line id="Línea_259" data-name="Línea 259" x1="6.134" y1="30.904" transform="translate(124.958 89.749)" fill="none" stroke="#353e44" stroke-miterlimit="10" stroke-width="0.423"/>
            <line id="Línea_260" data-name="Línea 260" x1="6.005" y1="30.904" transform="translate(135.676 89.749)" fill="none" stroke="#353e44" stroke-miterlimit="10" stroke-width="0.423"/>
            <path id="Trazado_8810" data-name="Trazado 8810" d="M30.084,128.847s7.108-3.249,8.528-6.5,1.219-18.072,3.858-21.321S62.166,86,65.821,86.411,89.456,92.4,95.059,93.923s-.809,8.625-8.38,9.849c-7.349,1.187-16.391-2.947-16.391-2.947s1.828,17.057-12.182,26.4L35.364,138.594Z" transform="translate(-1.446 -2.352)" fill="#f7a880"/>
            <path id="Trazado_8811" data-name="Trazado 8811" d="M46.469,146.568l-29.7,24.122L0,144.687l31.7-17.695Z" transform="translate(-0.627 -3.457)" fill="#006194"/>
            <g id="Grupo_4662" data-name="Grupo 4662" transform="translate(3.434 133.795)" style="mix-blend-mode: multiply;isolation: isolate">
              <g id="Grupo_4661" data-name="Grupo 4661">
                <g id="Grupo_4660" data-name="Grupo 4660" clip-path="url(#clip-path-3)">
                  <path id="Trazado_8812" data-name="Trazado 8812" d="M39.553,137.539c1.028,6.543-5.744,9.316-12.667,12.82-7.885,3.992-15.244,5.3-22.712.91l12.711,19.708,29.7-24.122Z" transform="translate(-4.175 -137.539)" fill="#becad1"/>
                </g>
              </g>
            </g>
            <g id="Grupo_4665" data-name="Grupo 4665" transform="translate(9.946 139.306)" style="mix-blend-mode: multiply;isolation: isolate">
              <g id="Grupo_4664" data-name="Grupo 4664">
                <g id="Grupo_4663" data-name="Grupo 4663" clip-path="url(#clip-path-4)">
                  <path id="Trazado_8813" data-name="Trazado 8813" d="M43.894,143.2c-.644,4.145-6.92,7.48-9.9,9.771-5.015,3.855-9.068,7.757-15.234,9.695-2.806.881-5.491-.84-7.89-1.15l6.2,9.611,29.7-24.122Z" transform="translate(-10.87 -143.205)" fill="#becad1"/>
                </g>
              </g>
            </g>
          </g>
        </g>
      </g>
    </g>
  </g>
</svg>
