<svg id="Grupo_2509" data-name="Grupo 2509" xmlns="http://www.w3.org/2000/svg" xmlns:xlink="http://www.w3.org/1999/xlink" width="361.442" height="321.976" viewBox="0 0 361.442 321.976">
  <defs>
    <clipPath id="clip-path">
      <rect id="Rectángulo_638" data-name="Rectángulo 638" width="361.442" height="321.976" fill="none"/>
    </clipPath>
    <clipPath id="clip-path-3">
      <path id="Rectángulo_632" data-name="Rectángulo 632" d="M46.33,0h9.512a46.33,46.33,0,0,1,46.33,46.33V150.871a46.33,46.33,0,0,1-46.33,46.33H46.331A46.331,46.331,0,0,1,0,150.87V46.33A46.33,46.33,0,0,1,46.33,0Z" fill="none"/>
    </clipPath>
    <linearGradient id="linear-gradient" x1="-0.331" y1="1.879" x2="-0.33" y2="1.879" gradientUnits="objectBoundingBox">
      <stop offset="0" stop-color="#336"/>
      <stop offset="1" stop-color="#5959b3"/>
    </linearGradient>
    <clipPath id="clip-path-5">
      <rect id="Rectángulo_633" data-name="Rectángulo 633" width="81.717" height="196.19" fill="none"/>
    </clipPath>
    <clipPath id="clip-path-6">
      <rect id="Rectángulo_634" data-name="Rectángulo 634" width="78.909" height="196.487" fill="none"/>
    </clipPath>
  </defs>
  <g id="Grupo_2508" data-name="Grupo 2508" clip-path="url(#clip-path)">
    <path id="Trazado_1" data-name="Trazado 1" d="M1900.481,752.849h-.771v-.2h.771Zm0-4.824h-.771V743.4h.771Zm0-9.251h-.771v-4.625h.771Zm0-9.251h-.771V724.9h.771Zm0-9.251h-.771v-4.625h.771Zm-.771-9.251V706.4h.771v4.625Zm.771-9.251h-.771v-4.625h.771Zm0-9.251h-.771v-4.625h.771Zm0-9.251h-.771v-4.625h.771Zm0-9.251h-.771v-4.625h.771Zm0-9.251h-.771v-4.625h.771Z" transform="translate(-1569.867 -545.522)" fill="#708fff"/>
    <path id="Trazado_2" data-name="Trazado 2" d="M428.14,80.615h-.771V75.99h.771Zm0-9.251h-.771V66.739h.771Zm0-9.251h-.771V57.488h.771Zm0-9.251h-.771V48.237h.771Zm0-9.251h-.771V38.986h.771Zm0-9.251h-.771V29.735h.771Zm0-9.251h-.771V22.723h.771Z" transform="translate(-353.166 -18.778)" fill="#708fff"/>
    <rect id="Rectángulo_621" data-name="Rectángulo 621" width="0.771" height="2.313" transform="translate(264.673 37.096)" fill="#708fff"/>
    <path id="Trazado_3" data-name="Trazado 3" d="M1525.139,393.291h-.771v-4.525h.771Zm0-9.049h-.771v-4.525h.771Zm0-9.049h-.771v-4.525h.771Zm0-9.049h-.771V361.62h.771Zm0-9.049h-.771v-4.524h.771Zm0-9.049h-.771v-4.525h.771Zm0-9.049h-.771v-4.525h.771Zm0-9.049h-.771v-4.525h.771Zm0-9.049h-.771v-4.525h.771Zm0-9.049h-.771v-4.524h.771Zm0-9.049h-.771v-4.525h.771Zm0-9.049h-.771v-4.525h.771Zm0-9.049h-.771v-4.525h.771Zm0-9.049h-.771V271.13h.771Zm0-9.049h-.771v-4.524h.771Zm0-9.049h-.771v-4.525h.771Z" transform="translate(-1259.695 -209.099)" fill="#708fff"/>
    <path id="Trazado_4" data-name="Trazado 4" d="M1515.965,1089.6h-2.7v-.771h1.928v-1.927h.771Z" transform="translate(-1250.521 -898.188)" fill="#708fff"/>
    <path id="Trazado_5" data-name="Trazado 5" d="M1379.42,1098.776h-4.529V1098h4.529Zm-9.057,0h-4.529V1098h4.529Zm-9.057,0h-4.529V1098h4.529Z" transform="translate(-1121.202 -907.36)" fill="#708fff"/>
    <rect id="Rectángulo_622" data-name="Rectángulo 622" width="2.313" height="0.771" transform="translate(228.734 190.645)" fill="#708fff"/>
    <rect id="Rectángulo_623" data-name="Rectángulo 623" width="0.771" height="2.313" transform="translate(329.843 62.449)" fill="#708fff"/>
    <path id="Trazado_6" data-name="Trazado 6" d="M1900.483,437.68h-.771V433.3h.771Zm0-8.766h-.771v-4.383h.771Zm0-8.766h-.771v-4.383h.771Zm0-8.766h-.771V407h.771Zm0-8.766h-.771v-4.383h.771Z" transform="translate(-1569.869 -329.089)" fill="#708fff"/>
    <path id="Trazado_7" data-name="Trazado 7" d="M1891.309,653.359h-2.7v-.771h1.927V650.66h.771Z" transform="translate(-1560.695 -537.687)" fill="#708fff"/>
    <path id="Trazado_8" data-name="Trazado 8" d="M1622.15,662.531h-4.585v-.771h4.585Zm-9.17,0h-4.585v-.771h4.585Zm-9.17,0h-4.585v-.771h4.585Zm-9.17,0h-4.585v-.771h4.585Zm-9.171,0h-4.585v-.771h4.585Zm-9.17,0h-4.585v-.771h4.585Z" transform="translate(-1298.819 -546.86)" fill="#708fff"/>
    <rect id="Rectángulo_624" data-name="Rectángulo 624" width="2.313" height="0.771" transform="translate(265.996 114.9)" fill="#708fff"/>
    <rect id="Rectángulo_625" data-name="Rectángulo 625" width="62.427" height="29.309" transform="translate(299.015 100.601)" fill="#708fff"/>
    <rect id="Rectángulo_626" data-name="Rectángulo 626" width="62.427" height="0.827" transform="translate(299.015 100.601)" fill="#91a9ff"/>
    <rect id="Rectángulo_627" data-name="Rectángulo 627" width="57.708" height="24.59" transform="translate(301.374 102.96)" fill="#abc2fe"/>
    <g id="Grupo_2497" data-name="Grupo 2497" transform="translate(0 0)">
      <g id="Grupo_2496" data-name="Grupo 2496" clip-path="url(#clip-path)">
        <path id="Trazado_9" data-name="Trazado 9" d="M1735.747,599.216a6.223,6.223,0,0,0,6.223-6.223h-6.223Z" transform="translate(-1434.373 -490.033)" fill="#708fff"/>
        <path id="Trazado_10" data-name="Trazado 10" d="M2038.495,599.216a6.223,6.223,0,0,1-6.223-6.223h6.223Z" transform="translate(-1679.412 -490.033)" fill="#708fff"/>
        <path id="Trazado_11" data-name="Trazado 11" d="M1735.747,698.779A6.223,6.223,0,0,1,1741.97,705h-6.223Z" transform="translate(-1434.373 -577.451)" fill="#708fff"/>
        <path id="Trazado_12" data-name="Trazado 12" d="M2038.495,698.779a6.223,6.223,0,0,0-6.223,6.223h6.223Z" transform="translate(-1679.412 -577.451)" fill="#708fff"/>
        <path id="Trazado_13" data-name="Trazado 13" d="M1866.068,618.405a9.539,9.539,0,1,1-9.539-9.539,9.539,9.539,0,0,1,9.539,9.539" transform="translate(-1526.3 -503.15)" fill="#708fff"/>
        <path id="Trazado_14" data-name="Trazado 14" d="M1886.372,629.057c0-2.433-1.925-3.061-3.507-3.686v-2.907a1.734,1.734,0,0,1,.848.5,1.173,1.173,0,0,0,1.7-1.613,4.1,4.1,0,0,0-2.551-1.258v-.771a.78.78,0,1,0-1.56,0v.788a3.449,3.449,0,0,0-3.078,3.463c0,2.157,1.556,2.984,3.078,3.593v3.075a2.166,2.166,0,0,1-1.045-.659,1.189,1.189,0,0,0-1.491-.267l-.084.048a1.167,1.167,0,0,0-.334,1.739,4.474,4.474,0,0,0,2.955,1.549v.827a.78.78,0,1,0,1.56,0v-.806a3.6,3.6,0,0,0,3.507-3.619m-5.761-5.465a1.124,1.124,0,0,1,.693-1.06v2.1a1.172,1.172,0,0,1-.693-1.039m2.253,6.7v-2.5c.708.33,1.106.677,1.106,1.284a1.242,1.242,0,0,1-1.106,1.216" transform="translate(-1552.005 -511.147)" fill="#e2eafe"/>
        <path id="Trazado_15" data-name="Trazado 15" d="M1305.424,552.191a20.355,20.355,0,0,0,8.832-18c-.689-12.187-11.344-8.9-11.344-8.9Z" transform="translate(-1076.691 -433.75)" fill="#ffb1d0"/>
        <path id="Trazado_16" data-name="Trazado 16" d="M472.819,609.521c9.78-44.96,16.373-56.625,18.909-65.247s23.837-58.809,32.966-57.552,7.607,8.786,4.057,23.533-11.614,34.019-11.614,34.019l.931,37.732Z" transform="translate(-390.724 -402.194)" fill="#ffb1d0"/>
        <path id="Trazado_17" data-name="Trazado 17" d="M478.636,633.529l43.753-43.613-.445-18.054s2.8-6.684,5.821-15.19l-5.821-36.589s-3.433,46.365-4.924,56.723L500.8,584.528s-10.915,12.594-16.162,24.782c-1.693,5.446-3.9,15.893-6,24.219" transform="translate(-395.531 -429.782)" fill="#fe7592"/>
        <path id="Trazado_18" data-name="Trazado 18" d="M1294.791,878.944s9.228-10.087,12.3-20.485,4.505-14.519-1.538-19.135c-3.658-2.794-16.533,21.425-16.533,21.425v23.838Z" transform="translate(-1065.213 -693.408)" fill="#ffb1d0"/>
        <path id="Trazado_19" data-name="Trazado 19" d="M1293.278,727.554s8.27-3.166,11.346,3.243,2.774,11.791-3.68,20.318-11.919,16.809-11.919,16.809Z" transform="translate(-1065.214 -600.584)" fill="#ffb1d0"/>
        <path id="Trazado_20" data-name="Trazado 20" d="M1284.173,751.07s-6.629,5.777-7.181,13.768,2.172,21.4,2.172,21.4l-12.655,15.01,5.242-68.091,2.92-1.878s.391,20.166,2.046,20.928,7.457-1.134,7.457-1.134" transform="translate(-1046.608 -604.306)" fill="#fe7592"/>
        <path id="Trazado_21" data-name="Trazado 21" d="M659.173,1034.179l17.244,11.158s28.4-11.158,39.559-24.851,33.98-46.152,33.98-46.152l-74.046-42.7-20.6,1.84-9.327,48.978Z" transform="translate(-533.825 -769.873)" fill="#ffb1d0"/>
        <path id="Trazado_22" data-name="Trazado 22" d="M763.165,998.13,698.2,960.662l-23.092,7.293L665.522,975l-3.141,16.493,4.939,20.982,13.729,25.386s5.336-3.439,7.125-8.13l57.134-6.052h0c7.773-10.62,15.18-21.08,17.471-24.326Z" transform="translate(-547.373 -793.864)" fill="#fe7592"/>
        <path id="Trazado_23" data-name="Trazado 23" d="M304.592,1449.23l-32.964,58.559H355.4l11.66-34.722-16.179-23.837Z" transform="translate(-224.466 -1197.603)" fill="#ffb1d0"/>
        <path id="Trazado_24" data-name="Trazado 24" d="M719.974,12.009V56.631H695.96V12.009a12.007,12.007,0,0,1,24.014,0" transform="translate(-575.122 -0.002)" fill="#abc2fe"/>
        <path id="Trazado_25" data-name="Trazado 25" d="M581.667,164.265v16.1a12.007,12.007,0,0,1-24.014,0v-16.1Z" transform="translate(-460.829 -135.744)" fill="#fff"/>
        <path id="Trazado_26" data-name="Trazado 26" d="M644.353,225.075v17.549H626.8a12.008,12.008,0,0,0,12.008-12.006v-5.543Z" transform="translate(-517.972 -185.995)" fill="#abc2fe"/>
        <rect id="Rectángulo_628" data-name="Rectángulo 628" width="102.172" height="197.201" rx="46.33" transform="translate(126.376 31.289)" fill="none" stroke="#231f20" stroke-miterlimit="10" stroke-width="1.239"/>
        <rect id="Rectángulo_629" data-name="Rectángulo 629" width="93.089" height="174.494" rx="13.078" transform="translate(130.918 42.643)" fill="none" stroke="#231f20" stroke-miterlimit="10" stroke-width="1.239"/>
      </g>
    </g>
    <g id="Grupo_2499" data-name="Grupo 2499" transform="translate(126.376 31.289)">
      <g id="Grupo_2498" data-name="Grupo 2498" clip-path="url(#clip-path-3)">
        <rect id="Rectángulo_631" data-name="Rectángulo 631" width="213.549" height="139.258" transform="translate(-38.339 189.442) rotate(-78.559)" fill="url(#linear-gradient)"/>
      </g>
    </g>
    <g id="Grupo_2507" data-name="Grupo 2507" transform="translate(0 0)">
      <g id="Grupo_2506" data-name="Grupo 2506" clip-path="url(#clip-path)">
        <path id="Trazado_27" data-name="Trazado 27" d="M754.013,417.822V247.87a2.271,2.271,0,0,1,2.271-2.271h88.547a2.271,2.271,0,0,1,2.271,2.271V417.822a2.271,2.271,0,0,1-2.271,2.271H756.284a2.271,2.271,0,0,1-2.271-2.271" transform="translate(-623.095 -202.956)" fill="#d6e3ff"/>
        <circle id="Elipse_1" data-name="Elipse 1" cx="2.547" cy="2.547" r="2.547" transform="translate(173.547 35.292) rotate(-22.5)" fill="none" stroke="#231f20" stroke-miterlimit="10" stroke-width="1.239"/>
        <path id="Trazado_28" data-name="Trazado 28" d="M1009.126,199.08a2.547,2.547,0,1,1-2.547-2.547,2.547,2.547,0,0,1,2.547,2.547" transform="translate(-829.703 -162.409)" fill="#221473"/>
        <g id="Grupo_2502" data-name="Grupo 2502" transform="translate(146.831 31.587)" opacity="0.2">
          <g id="Grupo_2501" data-name="Grupo 2501">
            <g id="Grupo_2500" data-name="Grupo 2500" clip-path="url(#clip-path-5)">
              <path id="Trazado_29" data-name="Trazado 29" d="M927.382,189.667a8.046,8.046,0,0,0-5.879-7.747L845.665,376.5l33.907,1.608,47.81-150.757Z" transform="translate(-845.665 -181.92)" fill="#fff"/>
            </g>
          </g>
        </g>
        <g id="Grupo_2505" data-name="Grupo 2505" transform="translate(126.376 31.29)" opacity="0.2">
          <g id="Grupo_2504" data-name="Grupo 2504">
            <g id="Grupo_2503" data-name="Grupo 2503" clip-path="url(#clip-path-6)">
              <path id="Trazado_30" data-name="Trazado 30" d="M806.764,180.209h-7.356l-.185.277L727.855,363.6v5.766a8.027,8.027,0,0,0,3.04,6.3l13.556,1.034Z" transform="translate(-727.855 -180.209)" fill="#fff"/>
            </g>
          </g>
        </g>
        <path id="Trazado_31" data-name="Trazado 31" d="M847.082,1060.473H782.258a11.167,11.167,0,1,1,0-22.335h64.824a11.167,11.167,0,0,1,0,22.335" transform="translate(-637.208 -857.888)" fill="#feab00"/>
        <path id="Trazado_32" data-name="Trazado 32" d="M930.651,636.27a24.32,24.32,0,1,1-24.32-24.32,24.32,24.32,0,0,1,24.32,24.32" transform="translate(-728.869 -505.698)" fill="#fff"/>
        <path id="Trazado_33" data-name="Trazado 33" d="M979.59,658.245a11.3,11.3,0,1,1-11.3-11.3,11.3,11.3,0,0,1,11.3,11.3" transform="translate(-790.825 -534.615)" fill="#482af6"/>
        <path id="Trazado_34" data-name="Trazado 34" d="M946.613,811.612a24.224,24.224,0,0,0,15.857-5.881,16.914,16.914,0,0,0-31.714,0,24.223,24.223,0,0,0,15.857,5.881" transform="translate(-769.151 -656.72)" fill="#482af6"/>
        <path id="Trazado_35" data-name="Trazado 35" d="M964.039,921.975H937.082a1.549,1.549,0,0,1,0-3.1h26.956a1.549,1.549,0,1,1,0,3.1" transform="translate(-773.098 -759.333)" fill="#fff"/>
        <path id="Trazado_36" data-name="Trazado 36" d="M984.209,959.65H967.983a1.549,1.549,0,1,1,0-3.1h16.226a1.549,1.549,0,1,1,0,3.1" transform="translate(-798.634 -790.467)" fill="#fff"/>
        <path id="Trazado_37" data-name="Trazado 37" d="M778.109,424.659h0a8.005,8.005,0,0,1,8.005-8h69.93a8,8,0,1,1,0,16.01h-69.93a8.005,8.005,0,0,1-8.005-8" transform="translate(-643.007 -344.311)" fill="#708fff"/>
        <path id="Trazado_38" data-name="Trazado 38" d="M871.293,444.712H801.362a4.8,4.8,0,0,1,0-9.6h69.931a4.8,4.8,0,0,1,0,9.6" transform="translate(-658.257 -359.562)" fill="#3955bf"/>
        <path id="Trazado_39" data-name="Trazado 39" d="M777.124,0V12.009A12.005,12.005,0,0,0,765.118,0Z" transform="translate(-632.272 -0.002)" fill="#fff"/>
        <path id="Trazado_40" data-name="Trazado 40" d="M834.268,0V85.15h66.438V12.216A12.216,12.216,0,0,0,888.491,0Z" transform="translate(-689.416 0)" fill="#fff"/>
        <path id="Trazado_41" data-name="Trazado 41" d="M887.254,209.058H874.32a1.223,1.223,0,1,1,0-2.445h12.935a1.223,1.223,0,1,1,0,2.445" transform="translate(-721.503 -170.739)" fill="#7fa0ff"/>
        <path id="Trazado_42" data-name="Trazado 42" d="M994.718,125.67H981.784a1.223,1.223,0,1,1,0-2.445h12.935a1.223,1.223,0,0,1,0,2.445" transform="translate(-810.308 -101.83)" fill="#7fa0ff"/>
        <path id="Trazado_43" data-name="Trazado 43" d="M1147.6,209.058h-3.391a1.223,1.223,0,1,1,0-2.445h3.391a1.223,1.223,0,1,1,0,2.445" transform="translate(-944.534 -170.739)" fill="#7fa0ff"/>
        <path id="Trazado_44" data-name="Trazado 44" d="M881.338,236.767h-7.02a1.223,1.223,0,1,1,0-2.445h7.02a1.223,1.223,0,0,1,0,2.445" transform="translate(-721.502 -193.637)" fill="#7fa0ff"/>
        <path id="Trazado_45" data-name="Trazado 45" d="M946.985,236.767h-9.07a1.223,1.223,0,0,1,0-2.445h9.07a1.223,1.223,0,1,1,0,2.445" transform="translate(-774.057 -193.637)" fill="#7fa0ff"/>
        <path id="Trazado_46" data-name="Trazado 46" d="M1147.6,236.767h-3.391a1.223,1.223,0,1,1,0-2.445h3.391a1.223,1.223,0,1,1,0,2.445" transform="translate(-944.534 -193.637)" fill="#7fa0ff"/>
        <path id="Trazado_47" data-name="Trazado 47" d="M884.809,264.476H874.32a1.223,1.223,0,1,1,0-2.445h10.49a1.223,1.223,0,1,1,0,2.445" transform="translate(-721.503 -216.535)" fill="#7fa0ff"/>
        <path id="Trazado_48" data-name="Trazado 48" d="M960.268,264.476H957.9a1.223,1.223,0,0,1,0-2.445h2.366a1.223,1.223,0,0,1,0,2.445" transform="translate(-790.573 -216.535)" fill="#7fa0ff"/>
        <path id="Trazado_49" data-name="Trazado 49" d="M1147.6,264.476h-3.391a1.223,1.223,0,1,1,0-2.445h3.391a1.223,1.223,0,1,1,0,2.445" transform="translate(-944.534 -216.535)" fill="#7fa0ff"/>
        <path id="Trazado_50" data-name="Trazado 50" d="M887.254,292.185H874.32a1.223,1.223,0,1,1,0-2.445h12.935a1.223,1.223,0,1,1,0,2.445" transform="translate(-721.503 -239.433)" fill="#7fa0ff"/>
        <path id="Trazado_51" data-name="Trazado 51" d="M1147.6,292.185h-3.391a1.223,1.223,0,1,1,0-2.445h3.391a1.223,1.223,0,1,1,0,2.445" transform="translate(-944.534 -239.433)" fill="#7fa0ff"/>
        <path id="Trazado_52" data-name="Trazado 52" d="M881.338,319.894h-7.02a1.223,1.223,0,1,1,0-2.445h7.02a1.223,1.223,0,0,1,0,2.445" transform="translate(-721.502 -262.331)" fill="#7fa0ff"/>
        <path id="Trazado_53" data-name="Trazado 53" d="M946.985,319.894h-9.07a1.223,1.223,0,0,1,0-2.445h9.07a1.223,1.223,0,1,1,0,2.445" transform="translate(-774.057 -262.331)" fill="#7fa0ff"/>
        <path id="Trazado_54" data-name="Trazado 54" d="M1147.6,319.894h-3.391a1.223,1.223,0,1,1,0-2.445h3.391a1.223,1.223,0,1,1,0,2.445" transform="translate(-944.534 -262.331)" fill="#7fa0ff"/>
        <path id="Trazado_55" data-name="Trazado 55" d="M884.809,413.68H874.32a1.223,1.223,0,1,1,0-2.445h10.49a1.223,1.223,0,1,1,0,2.445" transform="translate(-721.503 -339.833)" fill="#7fa0ff"/>
        <path id="Trazado_56" data-name="Trazado 56" d="M960.268,413.68H957.9a1.223,1.223,0,0,1,0-2.445h2.366a1.223,1.223,0,0,1,0,2.445" transform="translate(-790.573 -339.833)" fill="#7fa0ff"/>
        <path id="Trazado_57" data-name="Trazado 57" d="M1147.858,384.286c0-1.866-1.478-2.349-2.692-2.829v-2.231a1.327,1.327,0,0,1,.65.385.9.9,0,0,0,1.307-1.237,3.147,3.147,0,0,0-1.958-.965v-.592a.6.6,0,1,0-1.2,0v.6a2.647,2.647,0,0,0-2.362,2.657c0,1.655,1.194,2.29,2.362,2.757v2.36a1.664,1.664,0,0,1-.8-.506.912.912,0,0,0-1.144-.2l-.064.037a.9.9,0,0,0-.257,1.335,3.433,3.433,0,0,0,2.267,1.188v.635a.6.6,0,1,0,1.2,0v-.618a2.766,2.766,0,0,0,2.692-2.777m-4.421-4.193a.862.862,0,0,1,.532-.813v1.611a.9.9,0,0,1-.532-.8m1.729,5.14v-1.918c.544.253.849.52.849.985a.953.953,0,0,1-.849.933" transform="translate(-943.309 -310.897)" fill="#7fa0ff"/>
        <rect id="Rectángulo_635" data-name="Rectángulo 635" width="52.697" height="0.657" transform="translate(151.594 61.792)" fill="#7fa0ff"/>
        <rect id="Rectángulo_636" data-name="Rectángulo 636" width="52.697" height="0.657" transform="translate(151.594 31.258)" fill="#7fa0ff"/>
        <path id="Trazado_58" data-name="Trazado 58" d="M963.839,54.054H939.828a3.336,3.336,0,0,0,0,6.672h24.011a3.336,3.336,0,1,0,0-6.672" transform="translate(-773.891 -44.669)" fill="#7fa0ff"/>
        <path id="Trazado_59" data-name="Trazado 59" d="M457.98,967.194s-3.467-34.487,4.648-52.238,17.751-37.53,21.808-41.588,16.737-2.536,29.923-4.057,26.185-7.607,27.039,1.522-11.317,19.972-24.5,21.4-14.9,6.064-14.9,6.064l-4.554,15.141s28.073,38.037,5.757,66.438Z" transform="translate(-377.854 -715.567)" fill="#ffb1d0"/>
        <path id="Trazado_60" data-name="Trazado 60" d="M824.248,866.975s1.027,6.314-1.779,8.257c-1.747,1.209-5.435,2.064-7.968,2.536a2.822,2.822,0,0,1-3.279-2.164c-.445-2.027-.917-4.716-.651-6.052Z" transform="translate(-669.769 -716.444)" fill="#ffd4e5"/>
        <path id="Trazado_61" data-name="Trazado 61" d="M188.29,1627.1c-.569-5.647-4.98-36.315-34.065-44.112-32.074-8.6-65.588.711-65.588.711l-11.364,6.157a10.184,10.184,0,0,0-3.568,3.225L50.555,1627.1Z" transform="translate(-41.777 -1305.126)" fill="#ffc31b"/>
        <path id="Trazado_62" data-name="Trazado 62" d="M331.087,1484.272a71.465,71.465,0,0,1,38.153,35.795h.783l8.615-19.107s-.924-20.574-35.711-40.807-62.629-4.512-62.629-4.512l-10.409,21.025s32.345-3.857,61.2,7.606" transform="translate(-223.029 -1198.091)" fill="#e6eeff"/>
        <path id="Trazado_63" data-name="Trazado 63" d="M356.23,1513.871c-3.716-.854-9.479,10.581-3.583,11.437s9.377-10.1,3.583-11.437" transform="translate(-289.327 -1250.983)" fill="#ffc31b"/>
        <path id="Trazado_64" data-name="Trazado 64" d="M1462.5,361.935h-22.837a4.446,4.446,0,0,1-4.446-4.446V334.652a4.446,4.446,0,0,1,4.446-4.446H1462.5a4.446,4.446,0,0,1,4.446,4.446v22.837a4.446,4.446,0,0,1-4.446,4.446" transform="translate(-1186.023 -272.873)" fill="#ffd769"/>
        <path id="Trazado_65" data-name="Trazado 65" d="M1484.3,373.921a5.372,5.372,0,0,0-5.366,5.367.767.767,0,0,0,1.533,0,3.838,3.838,0,0,1,3.833-3.833.767.767,0,0,0,0-1.533" transform="translate(-1222.149 -308.998)" fill="#fff"/>
        <path id="Trazado_66" data-name="Trazado 66" d="M1483.5,375.874l-4.824-4.824a.767.767,0,0,0-1.084,0l-.224.225-1.189-1.189a8.443,8.443,0,1,0-1.084,1.084l1.189,1.189-.225.224a.767.767,0,0,0,0,1.084l4.825,4.824a1.533,1.533,0,0,0,2.168,0l.449-.449a1.534,1.534,0,0,0,0-2.169m-20.7-11.182a6.9,6.9,0,1,1,11.807,4.845c-.011.01-.023.017-.034.028s-.018.023-.028.034a6.9,6.9,0,0,1-11.745-4.907m19.615,12.266h0l-.449.449-4.282-4.282.224-.224h0l.224-.224,4.283,4.282Z" transform="translate(-1207.552 -294.402)" fill="#fff"/>
        <path id="Trazado_67" data-name="Trazado 67" d="M1837.842,886.9h-22.837a4.446,4.446,0,0,1-4.446-4.446V859.614a4.446,4.446,0,0,1,4.446-4.446h22.837a4.446,4.446,0,0,1,4.446,4.446v22.837a4.446,4.446,0,0,1-4.446,4.446" transform="translate(-1496.195 -706.687)" fill="#ffd769"/>
        <path id="Trazado_68" data-name="Trazado 68" d="M1847.322,903.4a11.474,11.474,0,1,1,11.474-11.474,11.487,11.487,0,0,1-11.474,11.474m0-21.418a9.944,9.944,0,1,0,9.944,9.944,9.955,9.955,0,0,0-9.944-9.944" transform="translate(-1517.093 -727.583)" fill="#fff"/>
        <path id="Trazado_69" data-name="Trazado 69" d="M1891.009,907.073a2.295,2.295,0,1,1,2.295-2.295,2.3,2.3,0,0,1-2.295,2.295m0-3.06a.765.765,0,1,0,.765.765.766.766,0,0,0-.765-.765" transform="translate(-1560.78 -745.786)" fill="#fff"/>
        <path id="Trazado_70" data-name="Trazado 70" d="M1891.009,943.265a2.3,2.3,0,0,1-2.295-2.294v-5.355a2.295,2.295,0,1,1,4.59,0v5.355a2.3,2.3,0,0,1-2.295,2.294m0-8.414a.766.766,0,0,0-.765.765v5.355a.765.765,0,0,0,1.53,0v-5.355a.766.766,0,0,0-.765-.765" transform="translate(-1560.78 -771.27)" fill="#fff"/>
        <path id="Trazado_71" data-name="Trazado 71" d="M1462.5,604.164h-22.837a4.446,4.446,0,0,1-4.446-4.446V576.881a4.446,4.446,0,0,1,4.446-4.446H1462.5a4.446,4.446,0,0,1,4.446,4.446v22.837a4.446,4.446,0,0,1-4.446,4.446" transform="translate(-1186.023 -473.044)" fill="#abc2fe"/>
        <path id="Trazado_72" data-name="Trazado 72" d="M1489.9,621.183a1.944,1.944,0,0,1-.651-2.6,1.954,1.954,0,0,0-1.952-1.952h-6.506v-5.2a1.954,1.954,0,0,0-1.952-1.952h-.687a1.291,1.291,0,0,0-1.3,1.179,8.211,8.211,0,0,1-1.162,3.665,19.109,19.109,0,0,0-1.63,3.038,1.289,1.289,0,0,0-.431-.075h-1.952a1.3,1.3,0,0,0-1.3,1.3v8.458a1.3,1.3,0,0,0,1.3,1.3h1.952a1.3,1.3,0,0,0,1.27-1.021,5.462,5.462,0,0,0,2.634,1.021h8.458a48.537,48.537,0,0,1,3.253-4.554,1.945,1.945,0,0,1,.651-2.6m-16.265,5.856h-1.952v-8.458h1.952Zm13.663-2.6h-2.6a.651.651,0,0,0,0,1.3h1.3a.651.651,0,0,1,0,1.3h-8.458a5.838,5.838,0,0,1-2.6-1.29v-7.058a18.082,18.082,0,0,1,1.843-3.654,9.512,9.512,0,0,0,1.374-4.265h.687a.652.652,0,0,1,.651.651v5.855a.651.651,0,0,0,.651.651h7.157a.651.651,0,0,1,0,1.3h-2.6a.651.651,0,0,0,0,1.3h3.253a.651.651,0,0,1,0,1.3h-3.253a.651.651,0,0,0,0,1.3h2.6a.651.651,0,0,1,0,1.3" transform="translate(-1215.081 -503.65)" fill="#fff"/>
        <path id="Trazado_73" data-name="Trazado 73" d="M1503.049,191.749h-8.388a1.633,1.633,0,0,1-1.633-1.633v-8.388a1.633,1.633,0,0,1,1.633-1.633h8.388a1.633,1.633,0,0,1,1.633,1.633v8.388a1.633,1.633,0,0,1-1.633,1.633" transform="translate(-1233.797 -148.826)" fill="#abc2fe"/>
        <path id="Trazado_74" data-name="Trazado 74" d="M1878.392,1128.774H1870a1.633,1.633,0,0,1-1.633-1.633v-8.387a1.633,1.633,0,0,1,1.633-1.633h8.388a1.633,1.633,0,0,1,1.633,1.633v8.387a1.633,1.633,0,0,1-1.633,1.633" transform="translate(-1543.969 -923.157)" fill="#abc2fe"/>
        <path id="Trazado_75" data-name="Trazado 75" d="M1876.283,364.612h-9.139a1.779,1.779,0,0,1-1.779-1.779v-9.139a1.779,1.779,0,0,1,1.779-1.779h9.139a1.779,1.779,0,0,1,1.779,1.779v9.139a1.779,1.779,0,0,1-1.779,1.779" transform="translate(-1541.485 -290.812)" fill="#ffd769"/>
        <path id="Trazado_76" data-name="Trazado 76" d="M1488.036,891.921H1474.3a2.674,2.674,0,0,1-2.674-2.674V875.508a2.674,2.674,0,0,1,2.674-2.674h13.738a2.675,2.675,0,0,1,2.674,2.674v13.738a2.674,2.674,0,0,1-2.674,2.674" transform="translate(-1216.109 -721.285)" fill="#ffd769"/>
        <path id="Trazado_77" data-name="Trazado 77" d="M406.05,32.148h-8.388a1.633,1.633,0,0,1-1.633-1.633V22.128a1.633,1.633,0,0,1,1.633-1.633h8.388a1.633,1.633,0,0,1,1.633,1.633v8.387a1.633,1.633,0,0,1-1.633,1.633" transform="translate(-327.268 -16.936)" fill="#ffd769"/>
        <path id="Trazado_78" data-name="Trazado 78" d="M391.036,198.293H377.3a2.674,2.674,0,0,1-2.674-2.674V181.88a2.674,2.674,0,0,1,2.674-2.674h13.738a2.674,2.674,0,0,1,2.674,2.674v13.738a2.674,2.674,0,0,1-2.674,2.674" transform="translate(-309.579 -148.091)" fill="#ffd769"/>
        <path id="Trazado_79" data-name="Trazado 79" d="M419.36,524.927h-.771V520.3h.771Zm0-9.251h-.771v-4.625h.771Zm0-9.251h-.771V501.8h.771Zm0-9.251h-.771v-4.625h.771Zm0-9.251h-.771V483.3h.771Zm0-9.251h-.771v-4.625h.771Zm0-9.251h-.771V464.8h.771Zm52.927-6.434h-4.626v-.771h4.626Zm-9.251,0H458.41v-.771h4.626Zm-9.251,0h-4.625v-.771h4.625Zm-9.251,0h-4.625v-.771h4.625Zm-9.251,0h-4.625v-.771h4.625Zm-9.251,0h-4.626v-.771h4.626Z" transform="translate(-345.91 -381.963)" fill="#708fff"/>
        <path id="Trazado_80" data-name="Trazado 80" d="M114.916,571.182h-.771v-4.625h.771Zm0-9.251h-.771v-4.625h.771Zm0-9.251h-.771v-4.625h.771Zm0-9.251h-.771V538.8h.771Zm0-9.251h-.771v-4.625h.771Zm0-9.251h-.771V520.3h.771Zm0-9.251h-.771v-4.625h.771Zm0-9.251h-.771V501.8h.771Zm0-9.251h-.771v-4.625h.771Zm0-9.251h-.771V483.3h.771Zm0-9.251h-.771v-4.625h.771Zm0-9.251h-.771V464.8h.771Zm52.927-6.434h-4.626v-.771h4.626Zm-9.251,0h-4.626v-.771h4.626Zm-9.251,0h-4.625v-.771h4.625Zm-9.251,0h-4.625v-.771h4.625Zm-9.251,0h-4.625v-.771h4.625Zm-9.251,0h-4.625v-.771h4.625Z" transform="translate(-94.326 -381.963)" fill="#708fff"/>
        <path id="Trazado_81" data-name="Trazado 81" d="M356.721,717.5H333.884a4.446,4.446,0,0,1-4.446-4.446V690.216a4.446,4.446,0,0,1,4.446-4.446h22.837a4.446,4.446,0,0,1,4.446,4.446v22.837a4.446,4.446,0,0,1-4.446,4.446" transform="translate(-272.238 -566.701)" fill="#abc2fe"/>
        <path id="Trazado_82" data-name="Trazado 82" d="M392.435,724.682a5.962,5.962,0,1,0-5.962-5.962,5.968,5.968,0,0,0,5.962,5.962m0-10.433a4.471,4.471,0,1,1-4.471,4.471,4.476,4.476,0,0,1,4.471-4.471" transform="translate(-319.37 -589.004)" fill="#fff"/>
        <path id="Trazado_83" data-name="Trazado 83" d="M409.871,730.106h.6a.447.447,0,0,1,0,.894h-.6a.45.45,0,0,1-.429-.32.745.745,0,1,0-1.43.421,1.95,1.95,0,0,0,1.421,1.337c0,.016,0,.033,0,.048a.827.827,0,0,0,.043.139.75.75,0,0,0,.162.242.632.632,0,0,0,.113.092.681.681,0,0,0,.128.069.763.763,0,0,0,.14.042.7.7,0,0,0,.292,0,.707.707,0,0,0,.139-.042.689.689,0,0,0,.128-.069.588.588,0,0,0,.114-.092.809.809,0,0,0,.093-.113.73.73,0,0,0,.068-.13.63.63,0,0,0,.043-.139c0-.016,0-.032,0-.048a1.937,1.937,0,0,0-.437-3.824h-.6a.447.447,0,1,1,0-.894h.6a.446.446,0,0,1,.424.305.745.745,0,1,0,1.414-.471,1.934,1.934,0,0,0-1.4-1.274c0-.016,0-.031,0-.048a.661.661,0,0,0-.043-.139.783.783,0,0,0-.068-.128.707.707,0,0,0-.206-.207.794.794,0,0,0-.128-.068.719.719,0,0,0-.139-.043.75.75,0,0,0-.672.2.649.649,0,0,0-.093.114.681.681,0,0,0-.069.128.88.88,0,0,0-.043.139c0,.016,0,.033,0,.049a1.937,1.937,0,0,0,.438,3.823" transform="translate(-337.104 -599.644)" fill="#fff"/>
        <path id="Trazado_84" data-name="Trazado 84" d="M377.788,787.589a2.231,2.231,0,0,0-2.1-.2l-5.88,2.45a2.237,2.237,0,0,0-2.2-2.622H364.1a8.994,8.994,0,0,0-3.946-1.491,5.781,5.781,0,0,0-3.508,1.709.745.745,0,0,0-.218.527v6.707a.745.745,0,0,0,.745.745H369.1a.744.744,0,0,0,.375-.1l8.943-5.217a.745.745,0,0,0,.37-.644,2.232,2.232,0,0,0-1-1.86m-8.894,6.332H357.917v-5.634a4.1,4.1,0,0,1,2.236-1.073,8.187,8.187,0,0,1,3.313,1.365.746.746,0,0,0,.413.125h3.726a.745.745,0,1,1,0,1.49h-4.471a.745.745,0,1,0,0,1.49H369.1a.745.745,0,0,0,.287-.057l6.879-2.866a.734.734,0,0,1,.7.068.749.749,0,0,1,.235.249Z" transform="translate(-294.541 -649.299)" fill="#fff"/>
        <path id="Trazado_85" data-name="Trazado 85" d="M353.317,366.2a20.288,20.288,0,1,1-20.288-20.288A20.288,20.288,0,0,1,353.317,366.2" transform="translate(-258.44 -285.848)" fill="#ffc31b"/>
        <path id="Trazado_86" data-name="Trazado 86" d="M333.028,347.687a20.287,20.287,0,0,1,20.267,19.4c.013-.295.021-.591.021-.889a20.288,20.288,0,0,0-40.576,0c0,.3.008.594.021.889a20.288,20.288,0,0,1,20.268-19.4" transform="translate(-258.44 -285.849)" fill="#ffdc7d"/>
        <path id="Trazado_87" data-name="Trazado 87" d="M370.851,388.4a15.624,15.624,0,1,1-15.624-15.624A15.624,15.624,0,0,1,370.851,388.4" transform="translate(-280.638 -308.047)" fill="#ffad24"/>
        <path id="Trazado_88" data-name="Trazado 88" d="M404.057,405.732c0-3.992-3.159-5.023-5.756-6.05v-4.771a2.846,2.846,0,0,1,1.391.824,1.925,1.925,0,0,0,2.8-2.646,6.726,6.726,0,0,0-4.187-2.064V389.76a1.28,1.28,0,1,0-2.559,0v1.293c-2.734.484-5.051,2.392-5.051,5.682,0,3.539,2.554,4.9,5.051,5.9v5.047a3.556,3.556,0,0,1-1.715-1.081,1.95,1.95,0,0,0-2.447-.437l-.137.079a1.915,1.915,0,0,0-.549,2.854,7.342,7.342,0,0,0,4.849,2.542v1.358a1.28,1.28,0,0,0,2.559,0v-1.322c3.306-.4,5.756-2.488,5.756-5.939m-9.454-8.968a1.844,1.844,0,0,1,1.138-1.74v3.444a1.923,1.923,0,0,1-1.138-1.7m3.7,10.993v-4.1c1.163.541,1.815,1.111,1.815,2.107a2.039,2.039,0,0,1-1.815,2" transform="translate(-322.677 -321.029)" fill="#ffe08a"/>
        <path id="Trazado_89" data-name="Trazado 89" d="M19.034,1006.738a26.147,26.147,0,0,1-12.2-8.553A30.655,30.655,0,0,1,1.418,987.1,41.561,41.561,0,0,1,.1,973.528l.278-2.815H3.432a19.486,19.486,0,0,0,10.465-2.9,15.664,15.664,0,0,0,3.6-2.995l2.73-2.722,2.677,2.724a15.669,15.669,0,0,0,3.6,2.993,19.486,19.486,0,0,0,10.465,2.9h3.051l.278,2.815A41.559,41.559,0,0,1,38.99,987.1a30.65,30.65,0,0,1-5.415,11.087,26.146,26.146,0,0,1-12.2,8.553l-1.17.405Z" transform="translate(0 -795.048)" fill="#abc2fe"/>
        <path id="Trazado_90" data-name="Trazado 90" d="M36.118,988.274s-5.591,7.17-16.772,7.17c0,0-2.313,23.415,16.772,30.026Z" transform="translate(-15.914 -816.682)" fill="#708fff"/>
        <path id="Trazado_91" data-name="Trazado 91" d="M116.365,988.274s5.591,7.17,16.773,7.17c0,0,2.313,23.415-16.773,30.026Z" transform="translate(-96.161 -816.682)" fill="#7fa0ff"/>
        <path id="Trazado_92" data-name="Trazado 92" d="M95.979,445.972H87.592a1.633,1.633,0,0,1-1.633-1.633v-8.387a1.633,1.633,0,0,1,1.633-1.633h8.388a1.633,1.633,0,0,1,1.633,1.633v8.387a1.633,1.633,0,0,1-1.633,1.633" transform="translate(-71.034 -358.909)" fill="#abc2fe"/>
        <path id="Trazado_93" data-name="Trazado 93" d="M55.43,717.5H32.593a4.446,4.446,0,0,1-4.446-4.446V690.216a4.446,4.446,0,0,1,4.446-4.446H55.43a4.446,4.446,0,0,1,4.446,4.446v22.837A4.446,4.446,0,0,1,55.43,717.5" transform="translate(-23.26 -566.701)" fill="#ffd769"/>
        <path id="Trazado_94" data-name="Trazado 94" d="M76.748,714.995H73.767V713.5a.745.745,0,1,0-1.49,0v1.49H60.353V713.5a.745.745,0,1,0-1.49,0v1.49H55.881a.745.745,0,0,0-.745.745V734.37a.745.745,0,0,0,.745.745H76.748a.745.745,0,0,0,.745-.745V715.74a.745.745,0,0,0-.745-.745m-17.885,1.49v1.49a.745.745,0,1,0,1.49,0v-1.49H72.276v1.49a.745.745,0,1,0,1.49,0v-1.49H76v3.766H56.626v-3.766Zm-2.236,5.256H76v11.884H56.626Z" transform="translate(-45.563 -589.004)" fill="#fff"/>
        <path id="Trazado_95" data-name="Trazado 95" d="M103.839,781.432h-.745a.745.745,0,1,0,0,1.49h.745a.745.745,0,1,0,0-1.49" transform="translate(-84.578 -645.753)" fill="#fff"/>
        <path id="Trazado_96" data-name="Trazado 96" d="M82.379,781.432h-.745a.745.745,0,1,0,0,1.49h.745a.745.745,0,1,0,0-1.49" transform="translate(-66.844 -645.753)" fill="#fff"/>
        <path id="Trazado_97" data-name="Trazado 97" d="M146.76,781.432h-.745a.745.745,0,1,0,0,1.49h.745a.745.745,0,1,0,0-1.49" transform="translate(-120.047 -645.753)" fill="#fff"/>
        <path id="Trazado_98" data-name="Trazado 98" d="M125.3,781.432h-.745a.745.745,0,1,0,0,1.49h.745a.745.745,0,1,0,0-1.49" transform="translate(-102.313 -645.753)" fill="#fff"/>
        <path id="Trazado_99" data-name="Trazado 99" d="M103.839,807.184h-.745a.745.745,0,0,0,0,1.49h.745a.745.745,0,0,0,0-1.49" transform="translate(-84.578 -667.034)" fill="#fff"/>
        <path id="Trazado_100" data-name="Trazado 100" d="M82.379,807.184h-.745a.745.745,0,0,0,0,1.49h.745a.745.745,0,0,0,0-1.49" transform="translate(-66.844 -667.034)" fill="#fff"/>
        <path id="Trazado_101" data-name="Trazado 101" d="M146.76,807.184h-.745a.745.745,0,0,0,0,1.49h.745a.745.745,0,0,0,0-1.49" transform="translate(-120.047 -667.034)" fill="#fff"/>
        <path id="Trazado_102" data-name="Trazado 102" d="M125.3,807.184h-.745a.745.745,0,0,0,0,1.49h.745a.745.745,0,0,0,0-1.49" transform="translate(-102.313 -667.034)" fill="#fff"/>
      </g>
    </g>
  </g>
</svg>
